<svg width="32" height="32" viewBox="0 0 32 32" fill="none"
    xmlns="http://www.w3.org/2000/svg">
    <path d="M15.9201 2.66663C16.5616 2.66707 17.1936 2.82232 17.7623 3.11921C18.331 3.4161 18.8196 3.84585 19.1868 4.37196L19.3308 4.59063L30.5721 23.356C30.9089 23.94 31.0921 24.5999 31.1045 25.2739C31.1168 25.948 30.958 26.6142 30.6428 27.2102C30.3277 27.8062 29.8664 28.3124 29.3024 28.6817C28.7383 29.0509 28.0897 29.2709 27.4174 29.3213L27.1508 29.3333H4.67609C4.003 29.3252 3.34292 29.1469 2.75736 28.8149C2.17181 28.4829 1.67986 28.008 1.32737 27.4346C0.974879 26.8611 0.773332 26.2077 0.741517 25.5353C0.709701 24.863 0.848654 24.1935 1.14542 23.5893L1.28009 23.3373L12.5134 4.58396C12.8687 3.99865 13.3688 3.51474 13.9655 3.17891C14.5622 2.84308 15.2354 2.66665 15.9201 2.66663ZM16.0134 21.3333L15.8441 21.3426C15.52 21.3812 15.2213 21.5372 15.0046 21.7812C14.7879 22.0253 14.6682 22.3403 14.6682 22.6666C14.6682 22.993 14.7879 23.308 15.0046 23.552C15.2213 23.796 15.52 23.9521 15.8441 23.9906L16.0001 24L16.1694 23.9906C16.4935 23.9521 16.7922 23.796 17.0089 23.552C17.2256 23.308 17.3453 22.993 17.3453 22.6666C17.3453 22.3403 17.2256 22.0253 17.0089 21.7812C16.7922 21.5372 16.4935 21.3812 16.1694 21.3426L16.0134 21.3333ZM16.0001 10.6666C15.6735 10.6667 15.3583 10.7866 15.1143 11.0036C14.8702 11.2206 14.7143 11.5196 14.6761 11.844L14.6668 12V17.3333L14.6761 17.4893C14.7146 17.8134 14.8707 18.112 15.1147 18.3287C15.3587 18.5454 15.6737 18.6651 16.0001 18.6651C16.3264 18.6651 16.6415 18.5454 16.8855 18.3287C17.1295 18.112 17.2855 17.8134 17.3241 17.4893L17.3334 17.3333V12L17.3241 11.844C17.2859 11.5196 17.13 11.2206 16.8859 11.0036C16.6419 10.7866 16.3267 10.6667 16.0001 10.6666Z" fill="#F94144"/>
</svg>
