<svg width="16" height="17" viewBox="0 0 16 17" fill="none" xmlns="http://www.w3.org/2000/svg">
<path d="M7.86333 14.5H3.33333C2.97971 14.5 2.64057 14.3595 2.39052 14.1095C2.14048 13.8594 2 13.5203 2 13.1667V5.16667C2 4.81304 2.14048 4.47391 2.39052 4.22386C2.64057 3.97381 2.97971 3.83333 3.33333 3.83333H11.3333C11.687 3.83333 12.0261 3.97381 12.2761 4.22386C12.5262 4.47391 12.6667 4.81304 12.6667 5.16667V7.83333H2M12 9.83333V12.5H14.6667M12 9.83333C12.7072 9.83333 13.3855 10.1143 13.8856 10.6144C14.3857 11.1145 14.6667 11.7928 14.6667 12.5M12 9.83333C11.2928 9.83333 10.6145 10.1143 10.1144 10.6144C9.61429 11.1145 9.33333 11.7928 9.33333 12.5C9.33333 13.2072 9.61429 13.8855 10.1144 14.3856C10.6145 14.8857 11.2928 15.1667 12 15.1667C12.7072 15.1667 13.3855 14.8857 13.8856 14.3856C14.3857 13.8855 14.6667 13.2072 14.6667 12.5M10 2.5V5.16667M4.66667 2.5V5.16667" stroke="#49454F" stroke-linecap="round" stroke-linejoin="round"/>
</svg>
