<svg width="16" height="17" viewBox="0 0 16 17" fill="none" xmlns="http://www.w3.org/2000/svg">
<g clip-path="url(#clip0_983_2211)">
<g clip-path="url(#clip1_983_2211)">
<path d="M7.66667 14.5H3.33333C2.97971 14.5 2.64057 14.3595 2.39052 14.1095C2.14048 13.8594 2 13.5203 2 13.1667V5.16667C2 4.81304 2.14048 4.47391 2.39052 4.22386C2.64057 3.97381 2.97971 3.83333 3.33333 3.83333H11.3333C11.687 3.83333 12.0261 3.97381 12.2761 4.22386C12.5262 4.47391 12.6667 4.81304 12.6667 5.16667V8.5M12 11.1667V15.1667M12 15.1667L14 13.1667M12 15.1667L10 13.1667M10 2.5V5.16667M4.66667 2.5V5.16667M2 7.83333H12.6667" stroke="#49454F" stroke-linecap="round" stroke-linejoin="round"/>
</g>
</g>
<defs>
<clipPath id="clip0_983_2211">
<rect width="16" height="16" fill="white" transform="translate(0 0.5)"/>
</clipPath>
<clipPath id="clip1_983_2211">
<rect width="16" height="16" fill="white" transform="translate(0 0.5)"/>
</clipPath>
</defs>
</svg>
