<svg width="18" height="24" viewBox="0 0 18 24" fill="none"
    xmlns="http://www.w3.org/2000/svg">
    <path d="M5.66406 16.0769V21.7746C5.66406 22.27 6.19717 22.5735 6.61122 22.3138L8.64143 21.0403C8.7413 20.9777 8.85424 20.9464 8.96711 20.9464C9.08005 20.9464 9.19307 20.9777 9.29287 21.0403L11.3231 22.3138C11.7371 22.5735 12.2702 22.27 12.2702 21.7746V16.0769" stroke="#49454F" stroke-width="1.5" stroke-miterlimit="10" stroke-linecap="round" stroke-linejoin="round"/>
    <path d="M8.9672 13.5822C6.71051 13.5822 4.88109 11.7181 4.88109 9.41877C4.88109 7.11942 6.71051 5.2554 8.9672 5.2554C11.2239 5.2554 13.0533 7.11942 13.0533 9.41877C13.0533 11.7181 11.2239 13.5822 8.9672 13.5822ZM16.0919 10.3711C15.7077 9.7965 15.7077 9.04105 16.0919 8.46649C16.7033 7.55212 16.3026 6.29583 15.2805 5.92224C14.6382 5.6875 14.2024 5.07631 14.1818 4.38141C14.149 3.27555 13.1 2.49904 12.0577 2.809C11.4027 3.00365 10.6975 2.77019 10.28 2.22038C9.94772 1.78293 9.45749 1.56414 8.9672 1.56414C8.4769 1.56414 7.98675 1.78293 7.6545 2.22038C7.23691 2.77019 6.53173 3.00365 5.87674 2.809C4.83436 2.49904 3.78549 3.27555 3.75256 4.38141C3.73197 5.07631 3.29615 5.6875 2.65393 5.92224C1.63185 6.29583 1.23117 7.55212 1.84253 8.46649C2.22668 9.04105 2.22668 9.7965 1.84253 10.3711C1.23117 11.2854 1.63185 12.5417 2.65393 12.9153C3.29615 13.15 3.73197 13.7612 3.75256 14.4561C3.7832 15.4867 4.69632 16.2313 5.66415 16.0769C5.73487 16.0657 5.8058 16.0497 5.87674 16.0286C6.53173 15.8338 7.23691 16.0673 7.6545 16.6171C8.319 17.4921 9.61547 17.4921 10.28 16.6171C10.6975 16.0673 11.4027 15.8338 12.0577 16.0286C12.1287 16.0497 12.1996 16.0657 12.2702 16.0769C13.2381 16.2313 14.1513 15.4867 14.1818 14.4561C14.2024 13.7612 14.6382 13.15 15.2805 12.9153C16.3026 12.5417 16.7033 11.2854 16.0919 10.3711Z" stroke="#49454F" stroke-width="1.5" stroke-miterlimit="10" stroke-linecap="round" stroke-linejoin="round"/>
    <path d="M8.96746 5.25529C6.71077 5.25529 4.88135 7.11931 4.88135 9.41867C4.88135 11.7181 6.71077 13.582 8.96746 13.582C11.2241 13.582 13.0536 11.7181 13.0536 9.41867C13.0536 7.11931 11.2241 5.25529 8.96746 5.25529Z" stroke="#49454F" stroke-width="1.5" stroke-miterlimit="10" stroke-linecap="round" stroke-linejoin="round"/>
</svg>
