<svg width="16" height="17" viewBox="0 0 16 17" fill="none"
    xmlns="http://www.w3.org/2000/svg">
    <g clip-path="url(#clip0_983_2205)">
        <g clip-path="url(#clip1_983_2205)">
            <path d="M6.66648 2.63336C5.62362 2.87512 4.66443 3.3915 3.8884 4.12892C3.11237 4.86634 2.54777 5.79796 2.25317 6.82715C1.95856 7.85633 1.94467 8.94559 2.21294 9.98195C2.48121 11.0183 3.02187 11.964 3.77884 12.721C4.53582 13.478 5.48153 14.0186 6.51789 14.2869C7.55425 14.5552 8.64351 14.5413 9.67269 14.2467C10.7019 13.9521 11.6335 13.3875 12.3709 12.6114C13.1083 11.8354 13.6247 10.8762 13.8665 9.83336C13.8665 9.65655 13.7962 9.48698 13.6712 9.36196C13.5462 9.23693 13.3766 9.1667 13.1998 9.1667H10.6665C10.5453 9.6327 10.3031 10.0584 9.96454 10.4008C9.62595 10.7431 9.20293 10.9899 8.73829 11.1163C8.27366 11.2426 7.78389 11.244 7.31857 11.1202C6.85324 10.9964 6.42887 10.7519 6.08839 10.4114C5.74792 10.071 5.50342 9.6466 5.37966 9.18127C5.25589 8.71595 5.25724 8.22619 5.38357 7.76155C5.5099 7.29691 5.75673 6.87389 6.09908 6.5353C6.44143 6.19671 6.86714 5.95456 7.33315 5.83336V3.1667C7.32486 3.08771 7.30098 3.01116 7.26289 2.94148C7.2248 2.87179 7.17325 2.81036 7.11123 2.76075C7.04922 2.71114 6.97797 2.67433 6.90163 2.65247C6.82528 2.6306 6.74535 2.62411 6.66648 2.63336Z" stroke="#49454F" stroke-linecap="round" stroke-linejoin="round"/>
            <path d="M9.99982 2.83335C10.8463 3.13141 11.6151 3.61555 12.2497 4.25013C12.8843 4.8847 13.3684 5.65354 13.6665 6.50002H10.6665C10.4621 6.26066 10.2392 6.03775 9.99982 5.83335V2.83335Z" stroke="#49454F" stroke-linecap="round" stroke-linejoin="round"/>
        </g>
    </g>
    <defs>
        <clipPath id="clip0_983_2205">
            <rect width="16" height="16" fill="white" transform="translate(0 0.5)"/>
        </clipPath>
        <clipPath id="clip1_983_2205">
            <rect width="16" height="16" fill="white" transform="translate(0 0.5)"/>
        </clipPath>
    </defs>
</svg>
