<svg width="54" height="54" viewBox="0 0 54 54" fill="none"
    xmlns="http://www.w3.org/2000/svg">
    <path d="M27.0274 0.362625C29.1015 0.362751 31.1046 1.11828 32.6621 2.48796L33.0728 2.87463L34.9341 4.73596C35.4449 5.24346 36.112 5.56383 36.8274 5.64529L37.1874 5.66663H39.8541C42.0334 5.6665 44.1301 6.50014 45.7143 7.9966C47.2985 9.49305 48.2502 11.5389 48.3741 13.7146L48.3874 14.2V16.8666C48.3874 17.5866 48.6328 18.288 49.0754 18.848L49.3154 19.1146L51.1741 20.976C52.7147 22.5078 53.613 24.5696 53.6858 26.7409C53.7587 28.9123 53.0006 31.0296 51.5661 32.6613L51.1794 33.072L49.3181 34.9333C48.8106 35.4441 48.4902 36.1112 48.4088 36.8266L48.3874 37.1866V39.8533C48.3876 42.0325 47.5539 44.1293 46.0575 45.7135C44.561 47.2977 42.5152 48.2493 40.3394 48.3733L39.8541 48.3866H37.1874C36.4685 48.3869 35.7705 48.6292 35.2061 49.0746L34.9394 49.3146L33.0781 51.1733C31.5462 52.7139 29.4845 53.6122 27.3131 53.685C25.1418 53.7578 23.0244 52.9997 21.3928 51.5653L20.9821 51.1786L19.1208 49.3173C18.6099 48.8098 17.9429 48.4894 17.2274 48.408L16.8674 48.3866H14.2008C12.0215 48.3867 9.92481 47.5531 8.34059 46.0567C6.75638 44.5602 5.80472 42.5143 5.68077 40.3386L5.66744 39.8533V37.1866C5.6672 36.4676 5.42485 35.7697 4.97944 35.2053L4.73944 34.9386L2.88077 33.0773C1.34019 31.5454 0.4419 29.4836 0.36906 27.3123C0.29622 25.141 1.05431 23.0236 2.48877 21.392L2.87544 20.9813L4.73677 19.12C5.24427 18.6091 5.56465 17.9421 5.64611 17.2266L5.66744 16.8666V14.2L5.68077 13.7146C5.79984 11.6225 6.68458 9.64729 8.16634 8.16553C9.64811 6.68376 11.6233 5.79903 13.7154 5.67996L14.2008 5.66663H16.8674C17.5864 5.66639 18.2844 5.42403 18.8488 4.97863L19.1154 4.73862L20.9768 2.87996C21.7697 2.08233 22.7124 1.44931 23.7508 1.01729C24.7892 0.585274 25.9028 0.362788 27.0274 0.362625ZM36.8861 19.7813C36.386 19.2814 35.7079 19.0005 35.0008 19.0005C34.2937 19.0005 33.6155 19.2814 33.1154 19.7813L24.3341 28.56L20.8861 25.1146L20.6354 24.8933C20.0995 24.4789 19.4258 24.284 18.7514 24.3482C18.0769 24.4125 17.4522 24.731 17.0041 25.2392C16.556 25.7474 16.3182 26.4071 16.3388 27.0843C16.3595 27.7615 16.6372 28.4054 17.1154 28.8853L22.4488 34.2186L22.6994 34.44C23.2125 34.838 23.8532 35.0351 24.5013 34.9943C25.1493 34.9536 25.7603 34.6778 26.2194 34.2186L36.8861 23.552L37.1074 23.3013C37.5054 22.7882 37.7026 22.1475 37.6618 21.4995C37.6211 20.8514 37.3452 20.2405 36.8861 19.7813Z" fill="#1FB071"/>
</svg>
