<svg width="64" height="64" viewBox="0 0 64 64" fill="none" xmlns="http://www.w3.org/2000/svg">
<path d="M47.5 17.5H16V48H47.5V17.5Z" fill="white" stroke="white"/>
<path d="M31.9997 5.33331C46.7277 5.33331 58.6663 17.272 58.6663 32C58.6663 39.0724 55.8568 45.8552 50.8559 50.8562C45.8549 55.8571 39.0721 58.6666 31.9997 58.6666C24.9272 58.6666 18.1445 55.8571 13.1435 50.8562C8.14252 45.8552 5.33301 39.0724 5.33301 32C5.33301 17.272 17.2717 5.33331 31.9997 5.33331ZM37.333 18.6666C35.3727 18.6663 33.4805 19.3858 32.0156 20.6885C30.5507 21.9912 29.615 23.7864 29.3863 25.7333L29.3463 26.1973L29.333 26.6666L29.3463 27.136C29.397 27.9866 29.5783 28.8 29.8717 29.5573L30.1117 30.1146L20.7783 39.448L20.5597 39.6986C20.1968 40.1663 19.9999 40.7414 19.9999 41.3333C19.9999 41.9252 20.1968 42.5003 20.5597 42.968L20.781 43.2187L24.781 47.2187L25.0317 47.44C25.4993 47.8028 26.0744 47.9998 26.6663 47.9998C27.2583 47.9998 27.8333 47.8028 28.301 47.44L28.5517 47.2187L28.773 46.968C29.1359 46.5003 29.3328 45.9252 29.3328 45.3333C29.3328 44.7414 29.1359 44.1663 28.773 43.6986L28.5517 43.448L26.4397 41.3333L27.9997 39.7733L30.1143 41.8853L30.365 42.1066C30.8781 42.5044 31.5187 42.7012 32.1666 42.6604C32.8145 42.6195 33.4253 42.3437 33.8843 41.8846C34.3434 41.4256 34.6192 40.8148 34.6601 40.1669C34.7009 39.519 34.5041 38.8784 34.1063 38.3653L33.885 38.1146L31.773 36L33.885 33.888C34.9685 34.4045 36.1543 34.6706 37.3546 34.6666C38.5549 34.6626 39.7389 34.3885 40.8188 33.8647C41.8988 33.3409 42.8471 32.5808 43.5934 31.6407C44.3397 30.7007 44.8649 29.6047 45.1301 28.4341C45.3952 27.2634 45.3936 26.0481 45.1253 24.8782C44.8569 23.7083 44.3288 22.6137 43.5799 21.6757C42.8311 20.7376 41.8808 19.9801 40.7994 19.4592C39.718 18.9383 38.5333 18.6674 37.333 18.6666ZM37.333 24C38.0403 24 38.7185 24.2809 39.2186 24.781C39.7187 25.2811 39.9997 25.9594 39.9997 26.6666C39.9997 27.3739 39.7187 28.0522 39.2186 28.5523C38.7185 29.0524 38.0403 29.3333 37.333 29.3333C36.6258 29.3333 35.9475 29.0524 35.4474 28.5523C34.9473 28.0522 34.6663 27.3739 34.6663 26.6666C34.6663 25.9594 34.9473 25.2811 35.4474 24.781C35.9475 24.2809 36.6258 24 37.333 24Z" fill="#1A90CD"/>
</svg>
