<svg width="16" height="16" viewBox="0 0 16 16" fill="none"
    xmlns="http://www.w3.org/2000/svg">
    <path d="M7.33301 7.99999C7.33301 8.17681 7.40325 8.34638 7.52827 8.4714C7.65329 8.59642 7.82286 8.66666 7.99967 8.66666C8.17649 8.66666 8.34605 8.59642 8.47108 8.4714C8.5961 8.34638 8.66634 8.17681 8.66634 7.99999C8.66634 7.82318 8.5961 7.65361 8.47108 7.52859C8.34605 7.40357 8.17649 7.33333 7.99967 7.33333C7.82286 7.33333 7.65329 7.40357 7.52827 7.52859C7.40325 7.65361 7.33301 7.82318 7.33301 7.99999Z" stroke="#49454F" stroke-linecap="round" stroke-linejoin="round"/>
    <path d="M7.33301 12.6667C7.33301 12.8435 7.40325 13.013 7.52827 13.1381C7.65329 13.2631 7.82286 13.3333 7.99967 13.3333C8.17649 13.3333 8.34605 13.2631 8.47108 13.1381C8.5961 13.013 8.66634 12.8435 8.66634 12.6667C8.66634 12.4899 8.5961 12.3203 8.47108 12.1953C8.34605 12.0702 8.17649 12 7.99967 12C7.82286 12 7.65329 12.0702 7.52827 12.1953C7.40325 12.3203 7.33301 12.4899 7.33301 12.6667Z" stroke="#49454F" stroke-linecap="round" stroke-linejoin="round"/>
    <path d="M7.33301 3.33334C7.33301 3.51015 7.40325 3.67972 7.52827 3.80474C7.65329 3.92977 7.82286 4.00001 7.99967 4.00001C8.17649 4.00001 8.34605 3.92977 8.47108 3.80474C8.5961 3.67972 8.66634 3.51015 8.66634 3.33334C8.66634 3.15653 8.5961 2.98696 8.47108 2.86193C8.34605 2.73691 8.17649 2.66667 7.99967 2.66667C7.82286 2.66667 7.65329 2.73691 7.52827 2.86193C7.40325 2.98696 7.33301 3.15653 7.33301 3.33334Z" stroke="#49454F" stroke-linecap="round" stroke-linejoin="round"/>
</svg>
