<svg width="20" height="20" viewBox="0 0 20 20" fill="none" xmlns="http://www.w3.org/2000/svg">
<path d="M13.8693 0.668776L18.8378 5.6373C19.7165 6.51598 19.7165 7.94059 18.8378 8.81929L10.156 17.4998L16.2539 17.5C16.6336 17.5 16.9474 17.7821 16.997 18.1482L17.0039 18.25C17.0039 18.6297 16.7217 18.9435 16.3556 18.9931L16.2539 19L7.84381 19.0012C7.2276 19.0348 6.6002 18.8163 6.12948 18.3456L1.16096 13.377C0.282283 12.4984 0.282283 11.0737 1.16096 10.1951L10.6873 0.668776C11.566 -0.209904 12.9906 -0.209904 13.8693 0.668776ZM3.70795 9.7678L2.22162 11.2557C1.92872 11.5486 1.92872 12.0235 2.22162 12.3164L7.19014 17.2849C7.33659 17.4314 7.52853 17.5046 7.72047 17.5046L7.74935 17.5L7.78785 17.5016C7.95675 17.4864 8.12146 17.4142 8.25076 17.2849L9.73696 15.7978L3.70795 9.7678ZM11.7479 1.72944L4.76895 8.7068L10.798 14.7368L17.7771 7.75862C18.07 7.46573 18.07 6.99085 17.7771 6.69796L12.8086 1.72944C12.5157 1.43654 12.0408 1.43654 11.7479 1.72944Z" fill="#49454F"/>
</svg>
