<svg width="24" height="24" viewBox="0 0 24 24" fill="none"
    xmlns="http://www.w3.org/2000/svg">
    <path d="M18.9004 7C19.8049 8.50118 20.1913 10.2578 20.0004 12V13C19.9993 14.0529 20.2752 15.0875 20.8004 16M8.00043 11C8.00043 9.93913 8.42185 8.92172 9.172 8.17157C9.92215 7.42143 10.9396 7 12.0004 7C13.0613 7 14.0787 7.42143 14.8289 8.17157C15.579 8.92172 16.0004 9.93913 16.0004 11V12C16.0004 14.1637 16.7022 16.269 18.0004 18M12.0004 11V13C11.9972 15.8594 12.8697 18.6512 14.5004 21M8.00043 15C8.24513 17.0898 8.85435 19.1206 9.80043 21M4.90042 19C4.22567 16.7303 3.92176 14.3665 4.00042 12V11C3.99659 9.59382 4.36345 8.21151 5.06403 6.99232C5.76461 5.77313 6.77417 4.76013 7.99097 4.0554C9.20777 3.35067 10.5888 2.97911 11.995 2.97815C13.4011 2.9772 14.7827 3.34689 16.0004 4.04996" stroke="white" stroke-width="2" stroke-linecap="round" stroke-linejoin="round"/>
</svg>
