<svg width="54" height="54" viewBox="0 0 54 54" fill="none"
    xmlns="http://www.w3.org/2000/svg">
    <path d="M26.9997 0.333313L27.8637 0.335979L28.7117 0.346647L30.3543 0.39198L31.1517 0.426647L32.6957 0.517313L34.1703 0.63998C46.9303 1.87731 52.1223 7.06931 53.3597 19.8293L53.4823 21.304L53.573 22.848C53.5863 23.1093 53.5997 23.376 53.6077 23.6453L53.653 25.288L53.6663 27L53.653 28.712L53.6077 30.3546L53.573 31.152L53.4823 32.696L53.3597 34.1706C52.1223 46.9306 46.9303 52.1226 34.1703 53.36L32.6957 53.4826L31.1517 53.5733C30.8903 53.5866 30.6237 53.6 30.3543 53.608L28.7117 53.6533L26.9997 53.6666L25.2877 53.6533L23.645 53.608L22.8477 53.5733L21.3037 53.4826L19.829 53.36C7.06901 52.1226 1.87701 46.9306 0.639674 34.1706L0.517008 32.696L0.426341 31.152C0.413368 30.8863 0.401813 30.6205 0.391675 30.3546L0.346341 28.712C0.338341 28.152 0.333008 27.5813 0.333008 27L0.335674 26.136L0.346341 25.288L0.391675 23.6453L0.426341 22.848L0.517008 21.304L0.639674 19.8293C1.87701 7.06931 7.06901 1.87731 19.829 0.63998L21.3037 0.517313L22.8477 0.426647C23.109 0.413313 23.3757 0.39998 23.645 0.39198L25.2877 0.346647C25.8477 0.338647 26.4183 0.333313 26.9997 0.333313ZM23.029 19.3733C22.4703 19.0407 21.8093 18.9237 21.1704 19.0443C20.5314 19.1649 19.9586 19.5148 19.5595 20.0282C19.1605 20.5416 18.9628 21.1831 19.0036 21.832C19.0444 22.4809 19.3208 23.0926 19.781 23.552L23.2263 27L19.781 30.448L19.5597 30.6986C19.1452 31.2346 18.9504 31.9083 19.0146 32.5827C19.0789 33.2572 19.3974 33.8819 19.9056 34.33C20.4138 34.7781 21.0735 35.0159 21.7507 34.9953C22.4278 34.9746 23.0718 34.6969 23.5517 34.2186L26.9997 30.7733L30.4477 34.2186L30.6983 34.44C31.2343 34.8544 31.9079 35.0493 32.5824 34.985C33.2569 34.9208 33.8816 34.6022 34.3297 34.0941C34.7778 33.5859 35.0156 32.9262 34.9949 32.249C34.9743 31.5718 34.6966 30.9279 34.2183 30.448L30.773 27L34.2183 23.552L34.4397 23.3013C34.8541 22.7653 35.049 22.0917 34.9847 21.4172C34.9205 20.7428 34.6019 20.1181 34.0937 19.67C33.5856 19.2219 32.9259 18.984 32.2487 19.0047C31.5715 19.0254 30.9276 19.3031 30.4477 19.7813L26.9997 23.2266L23.5517 19.7813L23.301 19.56L23.029 19.3733Z" fill="#F94144"/>
</svg>
