<svg width="16" height="17" viewBox="0 0 16 17" fill="none"
    xmlns="http://www.w3.org/2000/svg">
    <path d="M11.3333 13.6667H4C3.46957 13.6667 2.96086 13.456 2.58579 13.0809C2.21071 12.7058 2 12.1971 2 11.6667C2 11.1362 2.21071 10.6275 2.58579 10.2525C2.96086 9.87738 3.46957 9.66667 4 9.66667H11.3333C10.8029 9.66667 10.2942 9.87738 9.91912 10.2525C9.54405 10.6275 9.33333 11.1362 9.33333 11.6667C9.33333 12.1971 9.54405 12.7058 9.91912 13.0809C10.2942 13.456 10.8029 13.6667 11.3333 13.6667ZM11.3333 13.6667H12C12.5304 13.6667 13.0391 13.456 13.4142 13.0809C13.7893 12.7058 14 12.1971 14 11.6667V4.33333C14 3.97971 13.8595 3.64057 13.6095 3.39052C13.3594 3.14048 13.0203 3 12.6667 3H6C5.64638 3 5.30724 3.14048 5.05719 3.39052C4.80714 3.64057 4.66667 3.97971 4.66667 4.33333V9.66667" stroke="#49454F" stroke-linecap="round" stroke-linejoin="round"/>
</svg>
