<svg width="14" height="13" viewBox="0 0 14 13" fill="none"
    xmlns="http://www.w3.org/2000/svg">
    <path d="M4.80001 5.63333L9.20001 3.36667M4.80001 7.36667L9.20001 9.63333M1 6.5C1 7.03043 1.21071 7.53914 1.58579 7.91421C1.96086 8.28929 2.46957 8.5 3 8.5C3.53043 8.5 4.03914 8.28929 4.41421 7.91421C4.78929 7.53914 5 7.03043 5 6.5C5 5.96957 4.78929 5.46086 4.41421 5.08579C4.03914 4.71071 3.53043 4.5 3 4.5C2.46957 4.5 1.96086 4.71071 1.58579 5.08579C1.21071 5.46086 1 5.96957 1 6.5ZM9 2.5C9 3.03043 9.21071 3.53914 9.58579 3.91421C9.96086 4.28929 10.4696 4.5 11 4.5C11.5304 4.5 12.0391 4.28929 12.4142 3.91421C12.7893 3.53914 13 3.03043 13 2.5C13 1.96957 12.7893 1.46086 12.4142 1.08579C12.0391 0.710714 11.5304 0.5 11 0.5C10.4696 0.5 9.96086 0.710714 9.58579 1.08579C9.21071 1.46086 9 1.96957 9 2.5ZM9 10.5C9 11.0304 9.21071 11.5391 9.58579 11.9142C9.96086 12.2893 10.4696 12.5 11 12.5C11.5304 12.5 12.0391 12.2893 12.4142 11.9142C12.7893 11.5391 13 11.0304 13 10.5C13 9.96957 12.7893 9.46086 12.4142 9.08579C12.0391 8.71071 11.5304 8.5 11 8.5C10.4696 8.5 9.96086 8.71071 9.58579 9.08579C9.21071 9.46086 9 9.96957 9 10.5Z" stroke="#49454F" stroke-linecap="round" stroke-linejoin="round"/>
</svg>
