<svg width="24" height="24" viewBox="0 0 24 24" fill="none"
    xmlns="http://www.w3.org/2000/svg">
    <path d="M12.4438 20.876C12.2968 20.92 12.1488 20.961 11.9998 21C10.443 20.5962 8.98331 19.8836 7.70738 18.9045C6.43144 17.9254 5.36534 16.6998 4.57243 15.3005C3.77952 13.9013 3.27597 12.3569 3.09171 10.7592C2.90745 9.16147 3.04624 7.54302 3.49983 6C6.61536 6.14257 9.664 5.06658 11.9998 3C14.3357 5.06658 17.3843 6.14257 20.4998 6C21.1071 8.06555 21.1476 10.2565 20.6168 12.343M18.9998 16V22M18.9998 22L21.9998 19M18.9998 22L15.9998 19" stroke="white" stroke-linecap="round" stroke-linejoin="round"/>
</svg>
