<svg width="16" height="16" viewBox="0 0 16 16" fill="none"
    xmlns="http://www.w3.org/2000/svg">
    <g clip-path="url(#clip0_983_923)">
        <g clip-path="url(#clip1_983_923)">
            <path d="M11.9601 14.6666L11.2543 13.9999V9.99992C11.2543 9.62625 11.5645 9.33325 11.9601 9.33325C12.3558 9.33325 12.666 9.62625 12.666 9.99992V13.9999L11.9601 14.6666ZM11.9601 14.6666H7.3719C7.18469 14.6666 7.00514 14.5963 6.87276 14.4713C6.74039 14.3463 6.66602 14.1767 6.66602 13.9999C6.66602 13.8231 6.74039 13.6535 6.87276 13.5285C7.00514 13.4035 7.18469 13.3333 7.3719 13.3333H8.78366C8.97087 13.3333 9.15042 13.263 9.2828 13.138C9.41518 13.013 9.48955 12.8434 9.48955 12.6666C9.48955 12.4898 9.41518 12.3202 9.2828 12.1952C9.15042 12.0702 8.97087 11.9999 8.78366 11.9999H7.72484M11.2543 10.6666H12.666" stroke="#49454F" stroke-linecap="round" stroke-linejoin="round"/>
            <path d="M3.33398 13.3333V11.9999C3.33398 11.2927 3.61494 10.6144 4.11503 10.1143C4.61513 9.6142 5.29341 9.33325 6.00065 9.33325H8.66732C8.89932 9.33325 9.12465 9.36325 9.33998 9.41859M4.66732 3.99992C4.66732 4.70716 4.94827 5.38544 5.44837 5.88554C5.94846 6.38563 6.62674 6.66659 7.33398 6.66659C8.04123 6.66659 8.71951 6.38563 9.2196 5.88554C9.7197 5.38544 10.0007 4.70716 10.0007 3.99992C10.0007 3.29267 9.7197 2.6144 9.2196 2.1143C8.71951 1.6142 8.04123 1.33325 7.33398 1.33325C6.62674 1.33325 5.94846 1.6142 5.44837 2.1143C4.94827 2.6144 4.66732 3.29267 4.66732 3.99992Z" stroke="#49454F" stroke-linecap="round" stroke-linejoin="round"/>
        </g>
    </g>
    <defs>
        <clipPath id="clip0_983_923">
            <rect width="16" height="16" fill="white"/>
        </clipPath>
        <clipPath id="clip1_983_923">
            <rect width="16" height="16" fill="white"/>
        </clipPath>
    </defs>
</svg>
