<?xml version="1.0" encoding="UTF-8"?>
<svg version="1.1" xmlns="http://www.w3.org/2000/svg" width="1082" height="1089">
<path d="M0 0 C4.53230779 1.07832894 7.37992891 4.66749644 10.51717567 7.92208195 C11.7017511 9.10249561 11.7017511 9.10249561 12.91025734 10.30675602 C15.51484123 12.91181464 18.08982843 15.5441905 20.66536903 18.17794132 C22.47394425 19.99890841 24.28422751 21.81818053 26.09613991 23.63582706 C29.89147632 27.45096033 33.6743278 31.27778897 37.44588661 35.11641788 C42.74287619 40.50757958 48.0649594 45.87339848 53.39284337 51.23400688 C60.94446859 58.83485026 68.4835886 66.44815484 75.99764442 74.08614445 C76.72666969 74.8241428 77.45569496 75.56214115 78.2068119 76.32250309 C83.40860699 81.62210046 88.48518587 87.01104931 93.02441883 92.89672375 C99.52981061 101.29786795 106.09005473 109.26028006 116.98772621 111.22759342 C124.25219539 111.97017021 131.48863098 111.8750385 138.7738378 111.65010524 C142.42242486 111.55810703 146.07062468 111.57629971 149.72013283 111.58170414 C156.59947989 111.57570703 163.47375664 111.47379159 170.3515771 111.33543569 C178.1944233 111.1824837 186.03674651 111.13943593 193.88086736 111.10459745 C209.98727292 111.0306535 226.08890097 110.82201559 242.19271278 110.52169132 C242.186805 111.16423202 242.18089722 111.80677271 242.17481041 112.46878433 C242.03475747 128.15422473 241.96179642 143.83835939 241.96211815 159.52436447 C241.96068129 167.11037413 241.93712352 174.69507371 241.86019325 182.28072453 C241.79314168 188.89796812 241.76891541 195.51379916 241.79461789 202.13135558 C241.8067547 205.63112337 241.79846762 209.12797783 241.73875618 212.62731838 C240.77951303 228.8588132 240.77951303 228.8588132 246.7452879 243.2960844 C248.82137998 245.37636175 251.02224926 247.21537352 253.34298515 249.01628017 C256.82432524 251.84958822 259.84030413 255.17053817 262.96151161 258.3881464 C264.37049943 259.80001073 265.78266991 261.20870511 267.19779396 262.61441898 C270.24223712 265.64157877 273.28451961 268.6708507 276.32349586 271.70349979 C281.2145579 276.583254 286.10958608 281.45901721 291.00521278 286.33419132 C296.70297706 292.00824513 302.39904417 297.68398228 308.09091187 303.36395168 C310.35266813 305.61928045 312.61743836 307.87155139 314.88236427 310.12369633 C316.27868735 311.51638452 317.67486889 312.90921463 319.07088661 314.3022089 C320.00071106 315.22428387 320.00071106 315.22428387 320.94931984 316.16498661 C324.69943629 319.91465474 328.24443281 323.79143972 331.69976616 327.81473923 C333.41296221 329.77351226 335.22870273 331.55712511 337.15755653 333.30294132 C337.81175575 333.91782413 338.46595497 334.53270695 339.13997841 335.16622257 C340.48149956 336.41690471 341.83607699 337.65370922 343.20247841 338.87716007 C343.84765419 339.49204288 344.49282997 340.1069257 345.15755653 340.74044132 C345.74142128 341.27604679 346.32528603 341.81165226 346.92684364 342.3634882 C348.85535928 345.65144928 348.86793991 348.85991022 348.19271278 352.52169132 C346.69449712 355.12230578 344.69958523 357.04091185 342.53646278 359.10201359 C341.93483818 359.7064127 341.33321358 360.31081181 340.71335793 360.93352604 C338.72500714 362.92140296 336.70972681 364.87934514 334.69271278 366.83809757 C333.297729 368.22068363 331.90444268 369.60498428 330.51278114 370.99091434 C326.84429624 374.63455145 323.15201448 378.25313495 319.45461464 381.86739445 C316.45579971 384.80640948 313.47359763 387.76195744 310.49230385 390.71872902 C304.3067134 396.85343674 298.10968888 402.97661695 291.88411903 409.07076359 C291.32378471 409.62212482 290.76345039 410.17348606 290.18613625 410.74155521 C287.28193645 413.57632362 284.31913757 416.30412863 281.24788857 418.95758915 C277.19624943 422.47295822 273.39524919 426.19150911 269.61849403 429.99825382 C268.90841194 430.70979618 268.19832985 431.42133854 267.46673012 432.15444279 C265.93899548 433.68595654 264.41241616 435.21862348 262.88689613 436.75234318 C260.4669111 439.18519667 258.04372436 441.61482081 255.61971474 444.04366398 C250.47455924 449.20019736 245.33334509 454.3606492 240.19271278 459.52169132 C234.23155032 465.50652135 228.26874707 471.48969727 222.30169106 477.46865177 C219.92450607 479.85227802 217.55037412 482.23891612 215.17635536 484.62569523 C213.70669703 486.09898902 212.23689647 487.57214094 210.76693153 489.04512882 C210.11630745 489.70091923 209.46568336 490.35670963 208.7953434 491.03237247 C205.05054443 494.77759581 201.1816888 498.30297321 197.17505836 501.76519108 C193.85439199 504.70753945 190.74226727 507.84967607 187.61849403 510.99825382 C186.90841194 511.70979618 186.19832985 512.42133854 185.46673012 513.15444279 C183.93899548 514.68595654 182.41241616 516.21862348 180.88689613 517.75234318 C178.4669111 520.18519667 176.04372436 522.61482081 173.61971474 525.04366398 C168.47455924 530.20019736 163.33334509 535.3606492 158.19271278 540.52169132 C152.23155032 546.50652135 146.26874707 552.48969727 140.30169106 558.46865177 C137.92450607 560.85227802 135.55037412 563.23891612 133.17635536 565.62569523 C131.70669703 567.09898902 130.23689647 568.57214094 128.76693153 570.04512882 C128.11630745 570.70091923 127.46568336 571.35670963 126.7953434 572.03237247 C123.05054443 575.77759581 119.1816888 579.30297321 115.17505836 582.76519108 C111.85439199 585.70753945 108.74226727 588.84967607 105.61849403 591.99825382 C104.90841194 592.70979618 104.19832985 593.42133854 103.46673012 594.15444279 C101.93899548 595.68595654 100.41241616 597.21862348 98.88689613 598.75234318 C96.4669111 601.18519667 94.04372436 603.61482081 91.61971474 606.04366398 C86.47455924 611.20019736 81.33334509 616.3606492 76.19271278 621.52169132 C70.23155032 627.50652135 64.26874707 633.48969727 58.30169106 639.46865177 C55.92450607 641.85227802 53.55037412 644.23891612 51.17635536 646.62569523 C49.70669703 648.09898902 48.23689647 649.57214094 46.76693153 651.04512882 C46.11630745 651.70091923 45.46568336 652.35670963 44.7953434 653.03237247 C40.97961381 656.84853447 37.04896852 660.46770659 32.94994545 663.97846413 C30.43864685 666.18392295 28.16374628 668.57954485 25.88021278 671.01778507 C24.94117421 671.99862407 24.00103824 672.97841342 23.05990028 673.9572382 C21.61463278 675.4644105 20.17679973 676.97633491 18.75618935 678.50679874 C17.35772142 680.00860056 15.934705 681.4830621 14.50521278 682.95528507 C13.261912 684.27097477 13.261912 684.27097477 11.99349403 685.61324406 C8.99080652 687.65926988 7.00923388 688.14685175 3.3886528 688.04015541 C-1.14699037 686.96928458 -3.99401691 683.37639083 -7.13175011 680.1213007 C-7.92146706 679.33435825 -8.71118401 678.54741581 -9.52483177 677.73662663 C-12.12941566 675.131568 -14.70440286 672.49919214 -17.27994347 669.86544132 C-19.08851868 668.04447423 -20.89880194 666.22520211 -22.71071434 664.40755558 C-26.50605075 660.59242232 -30.28890224 656.76559367 -34.06046104 652.92696476 C-39.35745062 647.53580307 -44.67953383 642.16998416 -50.0074178 636.80937576 C-57.55904303 629.20853238 -65.09816304 621.5952278 -72.61221886 613.9572382 C-73.34124413 613.21923985 -74.07026939 612.48124149 -74.82138634 611.72087955 C-78.78888081 607.67878967 -82.60417636 603.55055004 -86.29086971 599.25019264 C-88.48476073 596.74946741 -90.85815612 594.46499244 -93.26822472 592.17403507 C-94.24421155 591.23012414 -95.21945154 590.28544047 -96.19400597 589.3400507 C-97.69469839 587.88892107 -99.19929983 586.44312325 -100.71695518 585.00972843 C-102.20647348 583.59919613 -103.67583867 582.17003226 -105.14322472 580.73653507 C-106.01511436 579.90243107 -106.88700401 579.06832706 -107.78531456 578.20894718 C-110.41672122 574.7117372 -111.08117281 572.91583235 -110.80728722 568.52169132 C-108.91132242 565.43032441 -106.38952736 563.04726603 -103.80728722 560.52169132 C-102.60049812 559.28272602 -102.60049812 559.28272602 -101.36932945 558.01873112 C-98.57040217 555.1514322 -95.74144918 552.31653007 -92.90494347 549.48653507 C-91.85779586 548.43871187 -90.81079656 547.39074042 -89.763937 546.34262943 C-87.58119395 544.15842144 -85.39667697 541.976008 -83.21085167 539.79488468 C-80.42942298 537.01915251 -77.65250945 534.2389535 -74.87692165 531.4573822 C-72.71927701 529.29609929 -70.55922575 527.13723418 -68.39847183 524.97906017 C-67.37442951 523.95567812 -66.35111047 522.93157171 -65.32857513 521.90668392 C-63.89169598 520.46722401 -62.45157908 519.0310768 -61.01065636 517.59566593 C-60.19681984 516.78262501 -59.38298332 515.96958408 -58.54448509 515.13190556 C-56.38898175 513.07639998 -54.20752788 511.11733977 -51.95546532 509.17185307 C-47.87398014 505.6259864 -44.03976608 501.88205376 -40.23306847 498.04512882 C-39.52298637 497.33358646 -38.81290428 496.62204411 -38.08130455 495.88893986 C-36.55356992 494.35742611 -35.02699059 492.82475917 -33.50147057 491.29103947 C-31.08148554 488.85818597 -28.65829879 486.42856183 -26.23428917 483.99971867 C-21.08913367 478.84318528 -15.94791953 473.68273345 -10.80728722 468.52169132 C-4.84612475 462.5368613 1.1166785 456.55368537 7.08373451 450.57473087 C9.4609195 448.19110462 11.83505145 445.80446653 14.20907021 443.41768742 C15.67872854 441.94439363 17.1485291 440.4712417 18.61849403 438.99825382 C19.26911812 438.34246342 19.9197422 437.68667301 20.59008217 437.01101017 C24.33669586 433.26397191 28.20736128 429.73647942 32.21596718 426.27259159 C35.5028999 423.36119451 38.58377147 420.25319399 41.67513466 417.1369257 C42.72562744 416.08424252 42.72562744 416.08424252 43.7973423 415.01029301 C45.30379632 413.50006044 46.80909504 411.98867473 48.31333351 410.47623539 C50.69971232 408.07698549 53.08929495 405.68096744 55.47970009 403.28572941 C60.55352656 398.20052632 65.62341093 393.11140438 70.69271278 388.02169132 C76.57126822 382.11946628 82.4514657 376.2188968 88.33591652 370.32254887 C90.67986349 367.97216178 93.02075657 365.61876262 95.36153603 363.2652216 C96.81097134 361.81215075 98.26054892 360.35922181 99.71029091 358.90645695 C100.35156425 358.26001728 100.9928376 357.61357761 101.65354347 356.94754887 C104.74246817 353.85826933 107.88094873 350.88420879 111.18697548 348.02742863 C115.22687887 344.53577681 119.00738806 340.83452518 122.76693153 337.04512882 C123.47701363 336.33358646 124.18709572 335.62204411 124.91869545 334.88893986 C126.44643008 333.35742611 127.97300941 331.82475917 129.49852943 330.29103947 C131.91851446 327.85818597 134.34170121 325.42856183 136.76571083 322.99971867 C141.91086633 317.84318528 147.05208047 312.68273345 152.19271278 307.52169132 C158.15387525 301.5368613 164.1166785 295.55368537 170.08373451 289.57473087 C172.4609195 287.19110462 174.83505145 284.80446653 177.20907021 282.41768742 C178.67872854 280.94439363 180.1485291 279.4712417 181.61849403 277.99825382 C182.26911812 277.34246342 182.9197422 276.68667301 183.59008217 276.01101017 C187.37770138 272.22296174 191.27648515 268.62716172 195.34550095 265.14249992 C198.60262813 262.28458204 201.63461605 259.2024131 204.68490028 256.12716007 C205.35691475 255.45373066 206.02892921 254.78030125 206.72130775 254.08646488 C208.83916586 251.96307281 210.95349747 249.83620982 213.06771278 247.70919132 C214.50758305 246.26429674 215.94768527 244.81963326 217.38802528 243.37520695 C220.53720856 240.21625388 223.68418176 237.05511877 226.82915688 233.89197636 C227.9486984 232.76690991 229.0704054 231.64399871 230.19271278 230.52169132 C220.31081319 232.10985376 215.43919193 237.68441361 209.666605 245.58820438 C202.19449357 255.42147127 194.14794347 264.22000441 181.50146753 266.38847607 C168.9535906 267.9252038 156.25242701 267.45195738 143.64696765 267.05653977 C137.74479249 266.89848667 131.84217623 266.88543714 125.93821144 266.85590458 C114.7977261 266.77870151 103.66349483 266.57428549 92.52574402 266.32216734 C79.82980233 266.04111907 67.1335353 265.90488189 54.43524921 265.77978146 C28.35095793 265.51961316 2.27218814 265.08091422 -23.80728722 264.52169132 C-22.84607115 263.3955832 -21.88419282 262.27004034 -20.92203331 261.1447382 C-20.11867043 260.20446781 -20.11867043 260.20446781 -19.29907799 259.24520206 C-15.54236784 254.90496185 -11.40325355 250.99680821 -7.04837608 247.26448917 C-2.97197625 243.71244329 0.86848591 239.97424213 4.67513466 236.1369257 C5.72562744 235.08424252 5.72562744 235.08424252 6.7973423 234.01029301 C8.30379632 232.50006044 9.80909504 230.98867473 11.31333351 229.47623539 C13.69971232 227.07698549 16.08929495 224.68096744 18.47970009 222.28572941 C23.55352656 217.20052632 28.62341093 212.11140438 33.69271278 207.02169132 C39.57126822 201.11946628 45.4514657 195.2188968 51.33591652 189.32254887 C53.67986349 186.97216178 56.02075657 184.61876262 58.36153603 182.2652216 C59.81097134 180.81215075 61.26054892 179.35922181 62.71029091 177.90645695 C63.35156425 177.26001728 63.9928376 176.61357761 64.65354347 175.94754887 C68.44701756 172.153639 72.36555531 168.56756723 76.42526817 165.06035519 C78.41539286 163.3278353 80.31847977 161.5288909 82.19027138 159.6693964 C82.86391731 159.00213032 83.53756325 158.33486423 84.2316227 157.64737797 C84.9277668 156.95234669 85.6239109 156.25731541 86.34115028 155.54122257 C87.07975288 154.80594837 87.81835548 154.07067417 88.57933998 153.31311893 C90.12510692 151.77237677 91.66955662 150.23031202 93.21273232 148.68697453 C95.57695759 146.32495514 97.94909444 143.97107395 100.32161903 141.61739445 C101.82861798 140.11332647 103.33514537 138.60878586 104.84115028 137.10372257 C105.90358452 136.05206661 105.90358452 136.05206661 106.98748207 134.97916508 C107.64221504 134.32135548 108.29694801 133.66354588 108.97152138 132.98580265 C109.54695686 132.41179218 110.12239235 131.83778172 110.71526527 131.24637699 C113.98905974 127.42474112 114.41931962 124.5070417 114.19271278 119.52169132 C113.62447037 120.19590374 113.62447037 120.19590374 113.04474831 120.88373661 C107.74678211 127.06209223 102.04789855 132.81253348 96.29036903 138.55684757 C95.24322142 139.60467078 94.19622212 140.65264222 93.14936256 141.70075321 C90.96661952 143.88496121 88.78210253 146.06737464 86.59627724 148.24849796 C83.81484854 151.02423013 81.03793502 153.80442915 78.26234722 156.58600044 C76.10470257 158.74728335 73.94465132 160.90614847 71.7838974 163.06432247 C70.75985508 164.08770453 69.73653604 165.11181093 68.7140007 166.13669872 C67.27712155 167.57615864 65.83700464 169.01230585 64.39608192 170.44771671 C63.58224541 171.26075764 62.76840889 172.07379856 61.92991066 172.91147709 C59.77440732 174.96698267 57.59295345 176.92604287 55.34089088 178.87152958 C51.2594057 182.41739624 47.42519165 186.16132889 43.61849403 189.99825382 C42.90841194 190.70979618 42.19832985 191.42133854 41.46673012 192.15444279 C39.93899548 193.68595654 38.41241616 195.21862348 36.88689613 196.75234318 C34.4669111 199.18519667 32.04372436 201.61482081 29.61971474 204.04366398 C24.47455924 209.20019736 19.33334509 214.3606492 14.19271278 219.52169132 C8.23155032 225.50652135 2.26874707 231.48969727 -3.69830894 237.46865177 C-6.07549393 239.85227802 -8.44962588 242.23891612 -10.82364464 244.62569523 C-12.29330297 246.09898902 -13.76310353 247.57214094 -15.23306847 249.04512882 C-15.88369255 249.70091923 -16.53431664 250.35670963 -17.2046566 251.03237247 C-20.94945557 254.77759581 -24.8183112 258.30297321 -28.82494164 261.76519108 C-32.14560801 264.70753945 -35.25773273 267.84967607 -38.38150597 270.99825382 C-39.09158806 271.70979618 -39.80167015 272.42133854 -40.53326988 273.15444279 C-42.06100452 274.68595654 -43.58758384 276.21862348 -45.11310387 277.75234318 C-47.5330889 280.18519667 -49.95627564 282.61482081 -52.38028526 285.04366398 C-57.52544076 290.20019736 -62.66665491 295.3606492 -67.80728722 300.52169132 C-73.76844968 306.50652135 -79.73125293 312.48969727 -85.69830894 318.46865177 C-88.07549393 320.85227802 -90.44962588 323.23891612 -92.82364464 325.62569523 C-94.29330297 327.09898902 -95.76310353 328.57214094 -97.23306847 330.04512882 C-97.88369255 330.70091923 -98.53431664 331.35670963 -99.2046566 332.03237247 C-102.94945557 335.77759581 -106.8183112 339.30297321 -110.82494164 342.76519108 C-114.14560801 345.70753945 -117.25773273 348.84967607 -120.38150597 351.99825382 C-121.09158806 352.70979618 -121.80167015 353.42133854 -122.53326988 354.15444279 C-124.06100452 355.68595654 -125.58758384 357.21862348 -127.11310387 358.75234318 C-129.5330889 361.18519667 -131.95627564 363.61482081 -134.38028526 366.04366398 C-139.52544076 371.20019736 -144.66665491 376.3606492 -149.80728722 381.52169132 C-155.76844968 387.50652135 -161.73125293 393.48969727 -167.69830894 399.46865177 C-170.07549393 401.85227802 -172.44962588 404.23891612 -174.82364464 406.62569523 C-176.29330297 408.09898902 -177.76310353 409.57214094 -179.23306847 411.04512882 C-179.88369255 411.70091923 -180.53431664 412.35670963 -181.2046566 413.03237247 C-184.99667843 416.82482402 -188.90040848 420.42260683 -192.97678852 423.90829754 C-196.12326834 426.6815915 -199.00031129 429.71051295 -201.90494347 432.73262882 C-203.21343456 434.07320865 -204.52270208 435.41303098 -205.83267784 436.75216007 C-207.86314004 438.83216979 -209.8885336 440.91622397 -211.90128136 443.01339054 C-213.86787608 445.0587633 -215.85312067 447.08438666 -217.84244347 449.10762882 C-218.43743141 449.73672153 -219.03241936 450.36581425 -219.64543724 451.01397038 C-222.53390722 453.9209544 -224.39939099 455.3898376 -228.36758995 456.67257023 C-234.83317571 456.38896373 -238.6783958 451.84633844 -242.83739281 447.31481266 C-243.74094757 446.31506916 -243.74094757 446.31506916 -244.66275597 445.29512882 C-251.90498058 437.43035037 -259.37630435 429.83267118 -266.95779991 422.29601383 C-269.18976795 420.07712053 -271.41832326 417.85484518 -273.6461544 415.63179874 C-278.36366577 410.92554924 -283.08517426 406.22332311 -287.80728722 401.52169132 C-293.31629228 396.03642535 -298.82357158 390.54944782 -304.32666588 385.05825138 C-306.50865197 382.88268351 -308.6936534 380.71017677 -310.87882042 378.5378046 C-312.22491646 377.19534309 -313.57087118 375.85273985 -314.91666222 374.50997257 C-315.51313057 373.91867054 -316.10959892 373.32736851 -316.72414207 372.71814823 C-320.41479925 369.02794869 -323.89624945 365.20475227 -327.29724789 361.24573612 C-329.0844942 359.20519807 -330.98663076 357.34832393 -332.99088097 355.52169132 C-333.69019737 354.86169132 -334.38951378 354.20169132 -335.11002159 353.52169132 C-336.54782555 352.17465449 -337.99873027 350.8414819 -339.46158409 349.52169132 C-340.15187706 348.86169132 -340.84217003 348.20169132 -341.55338097 347.52169132 C-342.17914024 346.94419132 -342.80489952 346.36669132 -343.4496212 345.77169132 C-345.45764294 342.44388547 -345.50259377 339.25566228 -344.80728722 335.52169132 C-343.30841 332.92141539 -341.31420764 331.00251651 -339.15103722 328.94136906 C-338.54941261 328.33696995 -337.94778801 327.73257084 -337.32793236 327.10985661 C-335.33958157 325.12197968 -333.32430125 323.1640375 -331.30728722 321.20528507 C-329.91230344 319.82269901 -328.51901711 318.43839836 -327.12735558 317.0524683 C-323.45887067 313.4088312 -319.76658892 309.7902477 -316.06918907 306.1759882 C-313.07037415 303.23697317 -310.08817206 300.2814252 -307.10687828 297.32465363 C-300.92128783 291.1899459 -294.72426331 285.06676569 -288.49869347 278.97261906 C-287.93835915 278.42125782 -287.37802483 277.86989658 -286.80071068 277.30182743 C-283.89651088 274.46705903 -280.933712 271.73925402 -277.862463 269.0857935 C-273.81082386 265.57042442 -270.00982362 261.85187354 -266.23306847 258.04512882 C-265.16794533 256.97781528 -265.16794533 256.97781528 -264.08130455 255.88893986 C-262.55356992 254.35742611 -261.02699059 252.82475917 -259.50147057 251.29103947 C-257.08148554 248.85818597 -254.65829879 246.42856183 -252.23428917 243.99971867 C-247.08913367 238.84318528 -241.94791953 233.68273345 -236.80728722 228.52169132 C-230.84612475 222.5368613 -224.8833215 216.55368537 -218.91626549 210.57473087 C-216.5390805 208.19110462 -214.16494855 205.80446653 -211.79092979 203.41768742 C-210.32127146 201.94439363 -208.8514709 200.4712417 -207.38150597 198.99825382 C-206.73088188 198.34246342 -206.0802578 197.68667301 -205.40991783 197.01101017 C-201.66330414 193.26397191 -197.79263872 189.73647942 -193.78403282 186.27259159 C-190.4971001 183.36119451 -187.41622853 180.25319399 -184.32486534 177.1369257 C-183.27437256 176.08424252 -183.27437256 176.08424252 -182.2026577 175.01029301 C-180.69620368 173.50006044 -179.19090496 171.98867473 -177.68666649 170.47623539 C-175.30028768 168.07698549 -172.91070505 165.68096744 -170.52029991 163.28572941 C-165.44647344 158.20052632 -160.37658907 153.11140438 -155.30728722 148.02169132 C-149.42873178 142.11946628 -143.5485343 136.2188968 -137.66408348 130.32254887 C-135.32013651 127.97216178 -132.97924343 125.61876262 -130.63846397 123.2652216 C-129.18902866 121.81215075 -127.73945108 120.35922181 -126.28970909 118.90645695 C-125.64843575 118.26001728 -125.0071624 117.61357761 -124.34645653 116.94754887 C-121.25753183 113.85826933 -118.11905127 110.88420879 -114.81302452 108.02742863 C-110.77312113 104.53577681 -106.99261194 100.83452518 -103.23306847 97.04512882 C-102.52298637 96.33358646 -101.81290428 95.62204411 -101.08130455 94.88893986 C-99.55356992 93.35742611 -98.02699059 91.82475917 -96.50147057 90.29103947 C-94.08148554 87.85818597 -91.65829879 85.42856183 -89.23428917 82.99971867 C-84.08913367 77.84318528 -78.94791953 72.68273345 -73.80728722 67.52169132 C-67.84612475 61.5368613 -61.8833215 55.55368537 -55.91626549 49.57473087 C-53.5390805 47.19110462 -51.16494855 44.80446653 -48.79092979 42.41768742 C-47.32127146 40.94439363 -45.8514709 39.4712417 -44.38150597 37.99825382 C-43.40556984 37.01456821 -43.40556984 37.01456821 -42.40991783 36.01101017 C-38.5971336 32.19779387 -34.66983056 28.58137048 -30.57348442 25.07388306 C-27.97482195 22.79009368 -25.64537416 20.32898132 -23.27603722 17.80684757 C-22.29142615 16.78043328 -21.30571715 15.75507126 -20.31900597 14.7306757 C-18.80133899 13.15110843 -17.29103172 11.56673941 -15.79800987 9.96382999 C-14.33003033 8.39256232 -12.83748178 6.84852796 -11.33853722 5.30684757 C-10.4677755 4.38782658 -9.59701378 3.46880558 -8.69986534 2.52193546 C-5.64133976 0.40693714 -3.70388453 -0.11360954 0 0 Z " fill="#C6393A" transform="translate(535.8072872161865,59.47830867767334)"/>
<path d="M0 0 C5.89841407 2.17133269 10.25306556 7.79782156 14.24743652 12.44616699 C17.82420211 16.54437204 21.58284755 20.41057561 25.44335938 24.24023438 C26.49604256 25.29072716 26.49604256 25.29072716 27.56999207 26.36244202 C29.08022463 27.86889604 30.59161034 29.37419476 32.10404968 30.87843323 C34.50329958 33.26481203 36.89931763 35.65439466 39.29455566 38.0447998 C44.37975875 43.11862628 49.4688807 48.18851065 54.55859375 53.2578125 C60.46081879 59.13636794 66.36138827 65.01656541 72.25773621 70.90101624 C74.60812329 73.24496321 76.96152245 75.58585628 79.31506348 77.92663574 C80.76813432 79.37607105 82.22106326 80.82564864 83.67382812 82.27539062 C84.32026779 82.91666397 84.96670746 83.55793732 85.63273621 84.21864319 C89.44715978 88.03262863 93.06146057 91.96670182 96.57489109 96.06010437 C98.28444431 98.01623916 100.09785221 99.79620463 102.0234375 101.5390625 C102.67763672 102.15394531 103.33183594 102.76882813 104.00585938 103.40234375 C105.34738053 104.65302589 106.70195795 105.8898304 108.06835938 107.11328125 C108.71353516 107.72816406 109.35871094 108.34304688 110.0234375 108.9765625 C110.60730225 109.51216797 111.19116699 110.04777344 111.79272461 110.59960938 C113.72124024 113.88757046 113.73382087 117.0960314 113.05859375 120.7578125 C111.56037809 123.35842695 109.5654662 125.27703303 107.40234375 127.33813477 C106.80071915 127.94253387 106.19909454 128.54693298 105.57923889 129.16964722 C103.5908881 131.15752414 101.57560778 133.11546632 99.55859375 135.07421875 C98.16360997 136.45680481 96.77032364 137.84110546 95.37866211 139.22703552 C91.71017721 142.87067262 88.01789545 146.48925612 84.32049561 150.10351562 C81.32168068 153.04253066 78.3394786 155.99807862 75.35818481 158.9548502 C69.17259437 165.08955792 62.97556984 171.21273813 56.75 177.30688477 C55.90949852 178.13392662 55.90949852 178.13392662 55.05201721 178.97767639 C52.14781741 181.8124448 49.18501854 184.5402498 46.11376953 187.19371033 C42.06213039 190.7090794 38.26113016 194.42763028 34.484375 198.234375 C33.77429291 198.94591736 33.06421082 199.65745972 32.33261108 200.39056396 C30.80487645 201.92207772 29.27829713 203.45474465 27.7527771 204.98846436 C25.33279207 207.42131785 22.90960532 209.85094199 20.4855957 212.27978516 C15.3404402 217.43631854 10.19922606 222.59677037 5.05859375 227.7578125 C-0.90256872 233.74264253 -6.86537197 239.72581845 -12.83242798 245.70477295 C-15.20961297 248.0883992 -17.58374492 250.4750373 -19.95776367 252.86181641 C-21.427422 254.33511019 -22.89722257 255.80826212 -24.3671875 257.28125 C-25.01781158 257.93704041 -25.66843567 258.59283081 -26.33877563 259.26849365 C-30.0835746 263.01371699 -33.95243023 266.53909438 -37.95906067 270.00131226 C-41.27972704 272.94366063 -44.39185176 276.08579725 -47.515625 279.234375 C-48.22570709 279.94591736 -48.93578918 280.65745972 -49.66738892 281.39056396 C-51.19512355 282.92207772 -52.72170287 284.45474465 -54.2472229 285.98846436 C-56.66720793 288.42131785 -59.09039468 290.85094199 -61.5144043 293.27978516 C-66.6595598 298.43631854 -71.80077394 303.59677037 -76.94140625 308.7578125 C-82.90256872 314.74264253 -88.86537197 320.72581845 -94.83242798 326.70477295 C-97.20961297 329.0883992 -99.58374492 331.4750373 -101.95776367 333.86181641 C-103.427422 335.33511019 -104.89722257 336.80826212 -106.3671875 338.28125 C-107.01781158 338.93704041 -107.66843567 339.59283081 -108.33877563 340.26849365 C-112.0835746 344.01371699 -115.95243023 347.53909438 -119.95906067 351.00131226 C-123.27972704 353.94366063 -126.39185176 357.08579725 -129.515625 360.234375 C-130.22570709 360.94591736 -130.93578918 361.65745972 -131.66738892 362.39056396 C-133.19512355 363.92207772 -134.72170287 365.45474465 -136.2472229 366.98846436 C-138.66720793 369.42131785 -141.09039468 371.85094199 -143.5144043 374.27978516 C-148.6595598 379.43631854 -153.80077394 384.59677037 -158.94140625 389.7578125 C-164.90256872 395.74264253 -170.86537197 401.72581845 -176.83242798 407.70477295 C-179.20961297 410.0883992 -181.58374492 412.4750373 -183.95776367 414.86181641 C-185.427422 416.33511019 -186.89722257 417.80826212 -188.3671875 419.28125 C-189.01781158 419.93704041 -189.66843567 420.59283081 -190.33877563 421.26849365 C-194.15450523 425.08465565 -198.08515051 428.70382777 -202.18417358 432.2145853 C-204.69547218 434.42004413 -206.97037275 436.81566602 -209.25390625 439.25390625 C-210.19294482 440.23474525 -211.1330808 441.2145346 -212.07421875 442.19335938 C-213.51948625 443.70053168 -214.9573193 445.21245608 -216.37792969 446.74291992 C-217.77639761 448.24472174 -219.19941403 449.71918328 -220.62890625 451.19140625 C-221.87220703 452.50709595 -221.87220703 452.50709595 -223.140625 453.84936523 C-226.14331251 455.89539106 -228.12488515 456.38297292 -231.74546623 456.27627659 C-236.28110941 455.20540576 -239.12813595 451.612512 -242.26586914 448.35742188 C-243.05558609 447.57047943 -243.84530304 446.78353699 -244.65895081 445.9727478 C-247.26353469 443.36768918 -249.83852189 440.73531332 -252.4140625 438.1015625 C-254.22263771 436.28059541 -256.03292098 434.46132329 -257.84483337 432.64367676 C-261.64016978 428.82854349 -265.42302127 425.00171485 -269.19458008 421.16308594 C-274.49156965 415.77192424 -279.81365287 410.40610534 -285.14153683 405.04549694 C-292.69316206 397.44465356 -300.23228207 389.83134898 -307.74633789 382.19335938 C-308.83987579 381.08636185 -308.83987579 381.08636185 -309.95550537 379.95700073 C-313.92299984 375.91491085 -317.73829539 371.78667121 -321.42498875 367.48631382 C-323.61887976 364.98558859 -325.99227516 362.70111362 -328.40234375 360.41015625 C-329.37833058 359.46624531 -330.35357058 358.52156165 -331.328125 357.57617188 C-332.82881742 356.12504225 -334.33341887 354.67924443 -335.85107422 353.24584961 C-337.34059251 351.83531731 -338.8099577 350.40615344 -340.27734375 348.97265625 C-341.1492334 348.13855225 -342.02112305 347.30444824 -342.91943359 346.44506836 C-345.55084025 342.94785838 -346.21529184 341.15195352 -345.94140625 336.7578125 C-344.04544146 333.66644559 -341.52364639 331.28338721 -338.94140625 328.7578125 C-338.13688019 327.93183563 -337.33235413 327.10585876 -336.50344849 326.25485229 C-333.7045212 323.38755338 -330.87556821 320.55265125 -328.0390625 317.72265625 C-326.99191489 316.67483304 -325.94491559 315.6268616 -324.89805603 314.57875061 C-322.71531299 312.39454262 -320.530796 310.21212918 -318.3449707 308.03100586 C-315.56354201 305.25527369 -312.78662849 302.47507468 -310.01104069 299.69350338 C-307.85339604 297.53222047 -305.69334478 295.37335536 -303.53259087 293.21518135 C-302.50854855 292.19179929 -301.48522951 291.16769289 -300.46269417 290.1428051 C-299.02581501 288.70334518 -297.58569811 287.26719797 -296.14477539 285.83178711 C-294.92402061 284.61222572 -294.92402061 284.61222572 -293.67860413 283.36802673 C-291.52310079 281.31252116 -289.34164692 279.35346095 -287.08958435 277.40797424 C-283.00809917 273.86210758 -279.17388512 270.11817494 -275.3671875 266.28125 C-274.30206436 265.21393646 -274.30206436 265.21393646 -273.21542358 264.12506104 C-271.68768895 262.59354728 -270.16110963 261.06088035 -268.6355896 259.52716064 C-266.21560457 257.09430715 -263.79241782 254.66468301 -261.3684082 252.23583984 C-256.2232527 247.07930646 -251.08203856 241.91885463 -245.94140625 236.7578125 C-239.98024378 230.77298247 -234.01744053 224.78980655 -228.05038452 218.81085205 C-225.67319953 216.4272258 -223.29906758 214.0405877 -220.92504883 211.65380859 C-219.4553905 210.18051481 -217.98558993 208.70736288 -216.515625 207.234375 C-215.86500092 206.57858459 -215.21437683 205.92279419 -214.54403687 205.24713135 C-210.79742318 201.50009309 -206.92675775 197.9726006 -202.91815186 194.50871277 C-199.63121913 191.59731568 -196.55034757 188.48931516 -193.45898438 185.37304688 C-192.40849159 184.32036369 -192.40849159 184.32036369 -191.33677673 183.24641418 C-189.83032271 181.73618162 -188.32502399 180.22479591 -186.82078552 178.71235657 C-184.43440672 176.31310667 -182.04482409 173.91708862 -179.65441895 171.52185059 C-174.58059247 166.4366475 -169.5107081 161.34752555 -164.44140625 156.2578125 C-158.56285081 150.35558746 -152.68265334 144.45501798 -146.79820251 138.55867004 C-144.45425554 136.20828296 -142.11336247 133.8548838 -139.77258301 131.50134277 C-138.3231477 130.04827193 -136.87357011 128.59534299 -135.42382812 127.14257812 C-134.78255478 126.49613846 -134.14128143 125.84969879 -133.48057556 125.18367004 C-130.39165086 122.0943905 -127.2531703 119.12032997 -123.94714355 116.2635498 C-119.90724017 112.77189799 -116.12673097 109.07064636 -112.3671875 105.28125 C-111.65710541 104.56970764 -110.94702332 103.85816528 -110.21542358 103.12506104 C-108.68768895 101.59354728 -107.16110963 100.06088035 -105.6355896 98.52716064 C-103.21560457 96.09430715 -100.79241782 93.66468301 -98.3684082 91.23583984 C-93.2232527 86.07930646 -88.08203856 80.91885463 -82.94140625 75.7578125 C-76.98024378 69.77298247 -71.01744053 63.78980655 -65.05038452 57.81085205 C-62.67319953 55.4272258 -60.29906758 53.0405877 -57.92504883 50.65380859 C-56.4553905 49.18051481 -54.98558993 47.70736288 -53.515625 46.234375 C-52.53968887 45.25068939 -52.53968887 45.25068939 -51.54403687 44.24713135 C-47.75659943 40.45926471 -43.85803118 36.86398547 -39.78861809 33.38017082 C-36.52617254 30.51484938 -33.49807259 27.41710494 -30.44921875 24.328125 C-29.44119705 23.31442337 -29.44119705 23.31442337 -28.41281128 22.28024292 C-26.29486426 20.15021009 -24.18023622 18.0169306 -22.06640625 15.8828125 C-19.25936536 13.04923048 -16.44905787 10.21894742 -13.63671875 7.390625 C-12.9940506 6.73965851 -12.35138245 6.08869202 -11.6892395 5.41799927 C-11.09456879 4.82002533 -10.49989807 4.22205139 -9.88720703 3.60595703 C-9.36506622 3.07857941 -8.84292542 2.55120178 -8.30496216 2.00784302 C-5.66645656 -0.41098887 -3.49855529 -0.56733329 0 0 Z " fill="#C6393B" transform="translate(770.94140625,291.2421875)"/>
<path d="M0 0 C43.23 0 86.46 0 131 0 C131 41.58 131 83.16 131 126 C127 124 127 124 125.140625 122.859375 C121.67590487 120.8263574 119.04267124 119.55648865 115 120.3125 C107.62528222 123.0006244 102.97882326 128.89132418 98.47389221 135.06651306 C91.00259793 144.90002911 82.95465591 153.69841164 70.30875474 155.86678475 C57.76087782 157.40351247 45.05971423 156.93026606 32.45425487 156.53484845 C26.55207971 156.37679535 20.64946345 156.36374582 14.74549866 156.33421326 C3.60501331 156.25701019 -7.52921795 156.05259416 -18.66696876 155.80047601 C-31.36291046 155.51942775 -44.05917748 155.38319057 -56.75746357 155.25809014 C-82.84175485 154.99792184 -108.92052465 154.5592229 -135 154 C-134.03878393 152.87389188 -133.07690561 151.74834902 -132.11474609 150.62304688 C-131.57917084 149.99619995 -131.04359558 149.36935303 -130.49179077 148.72351074 C-126.73508062 144.38327053 -122.59596634 140.47511689 -118.24108887 136.74279785 C-114.16468903 133.19075197 -110.32422688 129.45255081 -106.51757812 125.61523438 C-105.8172496 124.91344559 -105.11692108 124.2116568 -104.39537048 123.48860168 C-102.88891646 121.97836912 -101.38361774 120.46698341 -99.87937927 118.95454407 C-97.49300047 116.55529417 -95.10341784 114.15927612 -92.7130127 111.76403809 C-87.63918622 106.678835 -82.56930185 101.58971305 -77.5 96.5 C-71.62144456 90.59777496 -65.74124709 84.69720548 -59.85679626 78.80085754 C-57.51284929 76.45047046 -55.17195622 74.0970713 -52.83117676 71.74353027 C-51.38174145 70.29045943 -49.93216386 68.83753049 -48.48242188 67.38476562 C-47.84114853 66.73832596 -47.19987518 66.09188629 -46.53916931 65.42585754 C-42.74569523 61.63194768 -38.82715748 58.04587591 -34.76744461 54.53866386 C-32.77731992 52.80614397 -30.87423301 51.00719958 -29.00244141 49.14770508 C-28.32879547 48.480439 -27.65514954 47.81317291 -26.96109009 47.12568665 C-26.26494598 46.43065536 -25.56880188 45.73562408 -24.8515625 45.01953125 C-24.1129599 44.28425705 -23.3743573 43.54898285 -22.6133728 42.79142761 C-21.06760587 41.25068545 -19.52315617 39.70862069 -17.97998047 38.1652832 C-15.61575519 35.80326382 -13.24361835 33.44938262 -10.87109375 31.09570312 C-9.36409481 29.59163515 -7.85756741 28.08709453 -6.3515625 26.58203125 C-5.64327301 25.88092728 -4.93498352 25.1798233 -4.20523071 24.45747375 C-3.22313126 23.47075935 -3.22313126 23.47075935 -2.22119141 22.46411133 C-1.35803818 21.60309563 -1.35803818 21.60309563 -0.47744751 20.72468567 C2.24613249 17.54533793 3.29058867 14.78815251 3.3125 10.625 C3.33763672 9.53058594 3.33763672 9.53058594 3.36328125 8.4140625 C3.01558503 5.25833353 3.01558503 5.25833353 0 0 Z " fill="#FECB29" transform="translate(647,170)"/>
<path d="M0 0 C0.8633384 -0.00085442 1.7266768 -0.00170885 2.61617696 -0.00258917 C5.5259075 -0.00424391 8.43558112 0.00127733 11.3453064 0.00672913 C13.42439269 0.00701102 15.50347908 0.00685321 17.58256531 0.00628662 C23.24136597 0.00599875 28.9001456 0.01189379 34.55894136 0.01886058 C40.46733272 0.02509586 46.37572451 0.02569805 52.28411865 0.02688599 C63.47904398 0.02999878 74.67395959 0.03821149 85.86888063 0.04823548 C98.61112584 0.0593982 111.35337151 0.06490747 124.09562039 0.06993091 C150.31345732 0.08039414 176.53128561 0.09799259 202.74911499 0.12025452 C201.15319201 3.51445577 199.5714648 5.36955643 196.69296265 7.80531311 C189.49318308 14.13139783 182.80321777 20.95494347 176.0466423 27.74756241 C173.60131359 30.20580001 171.15274751 32.66077279 168.70336914 35.11497498 C163.50745108 40.32224724 158.31549153 45.5334551 153.12411499 50.74525452 C147.09606006 56.79698876 141.06635104 62.84705581 135.03239822 68.89291 C132.63083222 71.30091455 130.23231924 73.71193126 127.83392334 76.12309265 C126.35056243 77.61008865 124.86705949 79.09694299 123.38339233 80.58363342 C122.7265596 81.24563248 122.06972687 81.90763153 121.39299011 82.58969116 C117.57705885 86.40605105 113.64012549 90.01569445 109.55602074 93.54310799 C107.29641038 95.51539494 105.14780964 97.5805674 103.0171814 99.6910553 C102.18336945 100.5152597 101.3495575 101.33946411 100.49047852 102.18864441 C99.61934418 103.05552887 98.74820984 103.92241333 97.85067749 104.81556702 C96.93450653 105.7260379 96.01833557 106.63650879 95.07440186 107.5745697 C93.15140828 109.48715019 91.23067724 111.40197281 89.31112671 113.31800842 C86.85667139 115.76693937 84.39303841 118.20642055 81.92724037 120.64392281 C79.56182213 122.9862351 77.20699364 125.33909888 74.85067749 127.69056702 C73.96739777 128.56149994 73.08411804 129.43243286 72.17407227 130.32975769 C71.35917328 131.14765778 70.54427429 131.96555786 69.7046814 132.8082428 C68.98712677 133.52215179 68.26957214 134.23606079 67.53027344 134.97160339 C65.09888333 137.90464345 63.77976235 140.60576396 63.70223999 144.43666077 C63.80020874 145.1778717 63.89817749 145.91908264 63.99911499 146.68275452 C64.08677124 147.42654358 64.17442749 148.17033264 64.26473999 148.93666077 C64.74381806 151.51449925 64.74381806 151.51449925 66.74911499 155.12025452 C28.79911499 155.12025452 -9.15088501 155.12025452 -48.25088501 155.12025452 C-48.61235803 125.62227139 -48.61235803 125.62227139 -48.70316982 111.05393982 C-48.75304909 103.17385581 -48.81637403 95.29462892 -48.92984009 87.41517639 C-49.01963303 81.17668055 -49.07762849 74.93883125 -49.09768146 68.69970715 C-49.10940253 65.39653325 -49.1416144 62.09563695 -49.20245552 58.79294968 C-49.2677386 55.10259317 -49.27678953 51.41607537 -49.27261353 47.72523499 C-49.30497101 46.63406876 -49.33732849 45.54290253 -49.3706665 44.41867065 C-49.28151443 37.14401357 -49.28151443 37.14401357 -46.30696583 34.18929386 C-43.9152832 32.60290527 -43.9152832 32.60290527 -41.54036522 31.3497076 C-37.771811 29.32599034 -35.05156139 26.27328709 -32.09854126 23.22572327 C-31.47233383 22.59289932 -30.8461264 21.96007538 -30.20094299 21.30807495 C-28.2310614 19.31506483 -26.27176839 17.31205828 -24.31338501 15.30775452 C-22.32820662 13.28747427 -20.34085573 11.26939647 -18.35084534 9.25387573 C-17.12005521 8.006139 -15.89236665 6.75533353 -14.6681366 5.50115967 C-9.60022321 0.34355525 -7.03455505 -0.0251367 0 0 Z " fill="#FFCC29" transform="translate(352.2508850097656,489.87974548339844)"/>
<path d="M0 0 C0.00879936 1.43033821 0.00879936 1.43033821 0.01777649 2.88957214 C0.07501083 11.87974383 0.14777614 20.8696738 0.23571491 29.85959911 C0.28042607 34.48133282 0.31968055 39.10297822 0.34643555 43.72485352 C0.3724611 48.18595208 0.41285817 52.64671098 0.46318626 57.10759926 C0.47986005 58.80877772 0.49137115 60.51001494 0.49761391 62.21126366 C0.50724957 64.59587514 0.53530134 66.97961666 0.56762695 69.36401367 C0.56547432 70.4170594 0.56547432 70.4170594 0.5632782 71.49137878 C0.64575723 75.79857278 1.29777485 78.60650622 4 82 C6.80688757 82.93562919 8.52955983 83.13142932 11.4339447 83.14717102 C12.79455269 83.15790398 12.79455269 83.15790398 14.18264771 83.16885376 C15.17545746 83.17154266 16.16826721 83.17423157 17.19116211 83.17700195 C18.23856064 83.18357315 19.28595917 83.19014435 20.36509705 83.19691467 C23.83584664 83.21664854 27.30655303 83.2283085 30.77734375 83.23828125 C32.55300311 83.24439454 32.55300311 83.24439454 34.36453438 83.25063133 C40.62607779 83.27148918 46.88759928 83.28579401 53.14916992 83.29516602 C59.62711978 83.30624952 66.10472794 83.3406729 72.58255672 83.38033772 C77.55559444 83.40643156 82.52854969 83.41485126 87.50164986 83.41844749 C89.89032876 83.42332961 92.2790036 83.43498943 94.66761589 83.45348549 C98.00517105 83.47772985 101.34182785 83.47693892 104.67944336 83.4699707 C105.67022888 83.48278076 106.6610144 83.49559082 107.68182373 83.50878906 C112.98707095 83.53532313 112.98707095 83.53532313 117.57252502 81.13883972 C119.2414877 78.63816986 120.16145415 76.30446408 121.0625 73.4375 C122.20417521 69.82627841 123.07000293 67.46518167 126 65 C128.29296875 65.5546875 128.29296875 65.5546875 131 67 C132.33972316 69.42370741 133.35144015 71.56386426 134.3125 74.125 C134.70791992 75.11306641 134.70791992 75.11306641 135.11132812 76.12109375 C135.75697331 77.7410762 136.38068314 79.36977073 137 81 C140.20394317 81.34540214 140.20394317 81.34540214 142.453125 78.65625 C143.39369685 77.61156263 144.32552213 76.55895598 145.25 75.5 C145.74306641 74.95045654 146.23613281 74.40091309 146.74414062 73.8347168 C149.38993445 70.87553684 151.95458562 67.85834779 154.5 64.8125 C162.20317311 55.96401099 172.13430225 47.76428429 184.171875 46.7265625 C196.08535057 46.38840708 196.08535057 46.38840708 201.3828125 50.3671875 C206.58830637 55.622976 209.1398625 61.25071465 209.1875 68.625 C209.20167969 69.60726562 209.21585938 70.58953125 209.23046875 71.6015625 C209 75 209 75 207 84 C215.91 83.67 224.82 83.34 234 83 C229.53268786 76.29903179 224.75973664 70.59033262 219 65 C220.29591199 61.47353445 221.82752303 58.54374852 223.96875 55.4609375 C224.53980469 54.63335938 225.11085938 53.80578125 225.69921875 52.953125 C226.29347656 52.10234375 226.88773437 51.2515625 227.5 50.375 C228.67708598 48.674481 229.85416942 46.97396024 231.03125 45.2734375 C231.81338867 44.15074463 231.81338867 44.15074463 232.61132812 43.00537109 C233.75839356 41.34890213 234.88235845 39.67646232 236 38 C241.85739633 39.95246544 244.61025849 47.23756903 247.2734375 52.53125 C254.13700897 68.42583656 254.04967817 89.00557986 248.75 105.375 C245.74541416 112.42536478 241.26678399 116.39507965 234.24609375 119.2734375 C228.09023275 121.26472471 222.03586088 121.25194401 215.625 121.3125 C214.10132813 121.35600586 214.10132813 121.35600586 212.546875 121.40039062 C205.15820116 121.46276255 200.7817156 120.47419147 195.22265625 115.3671875 C192 111.22222222 192 111.22222222 192 109 C191.24976563 109.54269531 190.49953125 110.08539062 189.7265625 110.64453125 C175.71484091 120.43861876 162.39097658 122.30396759 145.4609375 119.73828125 C140.91408704 118.76835491 137.08992614 117.15538224 133 115 C131.33805262 114.32165413 129.67401097 113.64800425 128 113 C127.16855469 113.74056641 127.16855469 113.74056641 126.3203125 114.49609375 C125.59585938 115.13675781 124.87140625 115.77742187 124.125 116.4375 C123.40570313 117.07558594 122.68640625 117.71367188 121.9453125 118.37109375 C118.89994803 120.92112785 117.13157885 121.12722597 113.2331543 121.14044189 C112.22674393 121.14615204 111.22033356 121.15186218 110.1834259 121.15774536 C108.52061836 121.15942215 108.52061836 121.15942215 106.82421875 121.16113281 C105.65980759 121.16609772 104.49539642 121.17106262 103.29570007 121.17617798 C99.42629411 121.19083464 95.55692921 121.1976091 91.6875 121.203125 C90.35353572 121.20586066 89.01957168 121.20871704 87.68560791 121.21169281 C81.41291454 121.22537641 75.14023427 121.23503629 68.86752701 121.2388947 C61.64161966 121.24336421 54.41590253 121.26085662 47.19005299 121.2898953 C41.59754207 121.31158389 36.00508434 121.32160295 30.41253185 121.32293582 C27.07653387 121.32397964 23.74085585 121.33126055 20.40487671 121.34775543 C16.67341907 121.36488144 12.9424189 121.36291879 9.2109375 121.35644531 C8.11859299 121.3656601 7.02624847 121.37487488 5.90080261 121.3843689 C-3.18362412 121.33520069 -11.8398381 119.99455415 -19 114 C-25.97200246 106.03754593 -27.04448116 97.11491643 -27.24609375 86.78515625 C-27.277857 85.37727368 -27.30984936 83.96939627 -27.34204102 82.56152344 C-27.35743927 81.82800659 -27.37283752 81.09448975 -27.38870239 80.33874512 C-27.69742414 65.93790856 -28.34778794 51.58846401 -29.33959961 37.21899414 C-29.4247583 35.97625732 -29.50991699 34.73352051 -29.59765625 33.453125 C-29.71379272 31.83132324 -29.71379272 31.83132324 -29.83227539 30.17675781 C-29.88762451 29.12842773 -29.94297363 28.08009766 -30 27 C-30.06783691 25.774021 -30.13567383 24.54804199 -30.20556641 23.28491211 C-30 20 -30 20 -28.8137207 18.2434082 C-27.97200317 17.62212036 -27.97200317 17.62212036 -27.11328125 16.98828125 C-26.47342285 16.50311035 -25.83356445 16.01793945 -25.17431641 15.51806641 C-24.45679199 15.01710449 -23.73926758 14.51614258 -23 14 C-22.23220215 13.44876465 -21.4644043 12.8975293 -20.67333984 12.32958984 C-18.19877487 10.58309995 -15.69894423 8.88045664 -13.1875 7.1875 C-12.32962891 6.60291016 -11.47175781 6.01832031 -10.58789062 5.41601562 C-2.61134849 0 -2.61134849 0 0 0 Z M152 86 C152 86.33 152 86.66 152 87 C169.29502353 87.88739413 169.29502353 87.88739413 185.3515625 82.546875 C187.21931055 81.08181567 187.21931055 81.08181567 187.5625 78.5625 C187.17300503 75.84404253 187.17300503 75.84404253 185.0625 73.6875 C172.86962402 66.9689765 160.61385944 78.07393923 152 86 Z " fill="#C6393B" transform="translate(243,813)"/>
<path d="M0 0 C0.09261967 6.52307124 -0.22702706 12.88559934 -0.875 19.375 C-0.95363281 20.26316406 -1.03226563 21.15132812 -1.11328125 22.06640625 C-1.19707031 22.91847656 -1.28085937 23.77054688 -1.3671875 24.6484375 C-1.44050293 25.41333496 -1.51381836 26.17823242 -1.58935547 26.96630859 C-2 29 -2 29 -4 32 C-6.367305 33.02557876 -8.64934833 33.89151339 -11.08984375 34.69921875 C-11.79017227 34.9391304 -12.49050079 35.17904205 -13.21205139 35.42622375 C-14.69236354 35.93104306 -16.17438987 36.43085949 -17.65795898 36.92602539 C-19.92902641 37.68466942 -22.19421857 38.45909888 -24.45898438 39.23632812 C-25.8981191 39.72489723 -27.33756251 40.2125582 -28.77734375 40.69921875 C-29.45554672 40.93041916 -30.13374969 41.16161957 -30.83250427 41.39982605 C-33.68778785 42.34806458 -35.96847012 43 -39 43 C-34.88846175 48.83303598 -30.29340214 54.08902504 -25.44921875 59.32421875 C-23.35847194 61.60836797 -21.35978369 63.93711815 -19.375 66.3125 C-13.47160963 73.05923186 -6.40785965 78.36907426 2.75794983 79.27155113 C6.03111606 79.36806652 9.29193519 79.37105463 12.56640625 79.34057617 C14.42621376 79.34123329 14.42621376 79.34123329 16.32359314 79.34190369 C19.70133026 79.34017956 23.07850802 79.32520029 26.45614624 79.30418181 C29.99418468 79.28534725 33.53223166 79.28365926 37.0703125 79.28010559 C43.76019338 79.27080493 50.44992608 79.2462182 57.1397419 79.21605712 C64.76007585 79.18245122 72.38041712 79.16601159 80.00080681 79.15097082 C95.66729017 79.11966668 111.33362593 79.06694504 127 79 C126.24347624 75.53974562 125.23028629 73.8081028 122.8125 71.1875 C119.46384761 67.52136815 116.21872942 63.78019 113 60 C114.87099503 57.16400365 116.7475422 54.33172123 118.625 51.5 C119.40810547 50.31277344 119.40810547 50.31277344 120.20703125 49.1015625 C123.63861276 43.93300764 127.21920861 38.91893003 131 34 C140.30421498 42.20960146 145.36707782 53.79266332 146.21142578 66.07568359 C146.3522072 69.59420979 146.41500009 73.10376425 146.4375 76.625 C146.44765137 77.75671631 146.45780273 78.88843262 146.46826172 80.05444336 C146.3456027 91.94113896 144.68106948 102.61087218 135.9375 111.1875 C128.27994997 117.29665814 118.29967157 117.44373162 108.91015625 117.40405273 C107.17860794 117.41434761 107.17860794 117.41434761 105.41207886 117.42485046 C101.62875775 117.44302394 97.84585502 117.43929477 94.0625 117.43359375 C92.08448119 117.4370039 90.1064622 117.44042326 88.12844563 117.44494683 C81.92054591 117.4589348 75.71278398 117.45747813 69.50488281 117.44604492 C63.12963164 117.43456201 56.75480109 117.44865499 50.37960529 117.4754414 C44.87689182 117.49768451 39.37430956 117.50421673 33.87155437 117.49836498 C30.59769285 117.49501552 27.32415814 117.4990163 24.05032349 117.51461601 C20.39651626 117.52957716 16.74362336 117.51881043 13.08984375 117.50170898 C12.02458466 117.51137695 10.95932556 117.52104492 9.86178589 117.53100586 C0.46508671 117.4394147 -8.19206985 115.25575082 -15.4375 109 C-16.21996094 108.34 -17.00242187 107.68 -17.80859375 107 C-19.93705485 105.05744726 -21.98336851 103.05797473 -24 101 C-24.53367187 101.66386719 -25.06734375 102.32773437 -25.6171875 103.01171875 C-34.03719181 112.99044359 -43.09462853 117.24220396 -56 119 C-62.00606887 119.47918467 -68.02453566 119.4743254 -74.04614258 119.44604492 C-76.79780275 119.4375454 -79.54737207 119.46637579 -82.29882812 119.49804688 C-95.8700531 119.55153209 -111.93143578 118.93999418 -123 110 C-131.60106607 100.98029797 -133.32147607 90.88061065 -133.21875 78.74609375 C-132.66092293 69.19330509 -130.87376106 60.87376106 -124 54 C-121.5 53.75 -121.5 53.75 -119 54 C-116.23216206 56.76783794 -116.52380392 58.89218251 -116.125 62.75 C-115.23145691 70.1256162 -115.23145691 70.1256162 -111 76 C-92.35717907 85.68417263 -63.92868921 83.70792428 -44 79 C-47.21911316 73.77607206 -51.08359853 69.49257815 -55.3125 65.0625 C-55.95123047 64.38509766 -56.58996094 63.70769531 -57.24804688 63.00976562 C-57.88419922 62.33751953 -58.52035156 61.66527344 -59.17578125 60.97265625 C-59.80387695 60.3070166 -60.43197266 59.64137695 -61.07910156 58.95556641 C-62.36194717 57.64956827 -63.68841605 56.38507392 -65.05371094 55.16552734 C-69.91594726 50.76954954 -69.91594726 50.76954954 -70.3515625 46.78125 C-70.11179687 45.6984375 -69.87203125 44.615625 -69.625 43.5 C-69.36976563 42.29601562 -69.11453125 41.09203125 -68.8515625 39.8515625 C-68.57054687 38.58054687 -68.28953125 37.30953125 -68 36 C-67.82678684 34.63455739 -67.66803037 33.26720673 -67.5234375 31.8984375 C-67.34951633 30.55721919 -67.17505134 29.21607127 -67 27.875 C-66.855625 26.65554688 -66.71125 25.43609375 -66.5625 24.1796875 C-64.76889867 20.52970879 -64.29548198 20.4070303 -60.66772461 19.05810547 C-59.76408173 18.72001862 -58.86043884 18.38193176 -57.92941284 18.03359985 C-52.89070113 16.25576519 -47.83351027 14.54798515 -42.75390625 12.890625 C-41.62097641 12.51895203 -40.48804657 12.14727905 -39.32078552 11.76434326 C-36.94560044 10.9862578 -34.56986436 10.20985248 -32.19360352 9.43505859 C-28.54709256 8.24497158 -24.90337061 7.04660669 -21.25976562 5.84765625 C-18.94547586 5.09064623 -16.63102828 4.33411847 -14.31640625 3.578125 C-13.22582413 3.21881897 -12.135242 2.85951294 -11.01161194 2.48931885 C-10.00303635 2.16187683 -8.99446075 1.83443481 -7.95532227 1.49707031 C-7.06837173 1.20713196 -6.1814212 0.9171936 -5.26759338 0.61846924 C-3 0 -3 0 0 0 Z " fill="#C6393B" transform="translate(710,817)"/>
<path d="M0 0 C0 39.27 0 78.54 0 119 C-39.93 119 -79.86 119 -121 119 C-119.15892872 115.31785744 -117.74543285 113.50292455 -114.875 110.6875 C-114.15054688 109.96949219 -113.42609375 109.25148438 -112.6796875 108.51171875 C-110.58640844 106.54965106 -108.46774416 104.66881421 -106.29443359 102.79882812 C-102.23571186 99.25372979 -98.40322018 95.53189323 -94.609375 91.70703125 C-93.91880005 91.01499603 -93.2282251 90.32296082 -92.51672363 89.60995483 C-91.03155022 88.12100346 -89.54753208 86.63089898 -88.0645752 85.13973999 C-85.71180265 82.77409364 -83.35582412 80.41168172 -80.99902344 78.05004883 C-75.99652596 73.03617606 -70.99797137 68.018384 -66 63 C-60.20405163 57.18037992 -54.40645992 51.36241688 -48.60461426 45.54867554 C-46.29390529 43.23152763 -43.98625109 40.91136741 -41.67871094 38.59106445 C-40.24949865 37.15821656 -38.82014404 35.7255106 -37.390625 34.29296875 C-36.75870239 33.65587982 -36.12677979 33.01879089 -35.47570801 32.36239624 C-31.70077031 28.58701887 -27.80555757 25.01031542 -23.75505638 21.53175259 C-21.36108917 19.4423807 -19.13465486 17.21293381 -16.9140625 14.94140625 C-15.61275391 13.62172852 -15.61275391 13.62172852 -14.28515625 12.27539062 C-12.48655998 10.44113936 -10.68973095 8.60515378 -8.89453125 6.76757812 C-7.60482422 5.46143555 -7.60482422 5.46143555 -6.2890625 4.12890625 C-5.51256348 3.33556885 -4.73606445 2.54223145 -3.93603516 1.72485352 C-2 0 -2 0 0 0 Z " fill="#FFCC29" transform="translate(778,526)"/>
<path d="M0 0 C34.98 0 69.96 0 106 0 C106 0.66 106 1.32 106 2 C104.51305389 3.46694183 104.51305389 3.46694183 102.46765137 5.16345215 C98.28277637 8.72469917 94.38588773 12.48529158 90.51757812 16.38476562 C89.8172496 17.08655441 89.11692108 17.7883432 88.39537048 18.51139832 C86.88891646 20.02163088 85.38361774 21.53301659 83.87937927 23.04545593 C81.49300047 25.44470583 79.10341784 27.84072388 76.7130127 30.23596191 C71.63918622 35.321165 66.56930185 40.41028695 61.5 45.5 C55.62144456 51.40222504 49.74124709 57.30279452 43.85679626 63.19914246 C41.51284929 65.54952954 39.17195622 67.9029287 36.83117676 70.25646973 C35.38174145 71.70954057 33.93216386 73.16246951 32.48242188 74.61523438 C31.84114853 75.26167404 31.19987518 75.90811371 30.53916931 76.57414246 C26.72713436 80.38661532 22.7953316 84.00125068 18.70700645 87.51629734 C16.71430717 89.24831963 14.84544722 91.06967007 13.0078125 92.96484375 C12.36585938 93.61904297 11.72390625 94.27324219 11.0625 94.94726562 C9.74576129 96.29984298 8.4307164 97.65407091 7.1171875 99.00976562 C6.16585938 99.9775293 6.16585938 99.9775293 5.1953125 100.96484375 C4.62828613 101.5487085 4.06125977 102.13257324 3.47705078 102.73413086 C2 104 2 104 0 104 C0 69.68 0 35.36 0 0 Z " fill="#FFCC29" transform="translate(304,170)"/>
<path d="M0 0 C0.00879936 1.43033821 0.00879936 1.43033821 0.01777649 2.88957214 C0.07501083 11.87974383 0.14777614 20.8696738 0.23571491 29.85959911 C0.28042607 34.48133282 0.31968055 39.10297822 0.34643555 43.72485352 C0.3724611 48.18595208 0.41285817 52.64671098 0.46318626 57.10759926 C0.47986005 58.80877772 0.49137115 60.51001494 0.49761391 62.21126366 C0.50724957 64.59587514 0.53530134 66.97961666 0.56762695 69.36401367 C0.56547432 70.4170594 0.56547432 70.4170594 0.5632782 71.49137878 C0.64596728 75.80954196 1.36251659 78.55826359 4 82 C6.60951236 83.30475618 8.52701285 83.11301572 11.4453125 83.09765625 C12.52167969 83.09443359 13.59804688 83.09121094 14.70703125 83.08789062 C16.39892578 83.07532227 16.39892578 83.07532227 18.125 83.0625 C19.26066406 83.05798828 20.39632812 83.05347656 21.56640625 83.04882812 C24.37765638 83.03701615 27.1888023 83.02054507 30 83 C25.69395613 76.42518033 21.37785915 70.68960232 15 66 C15.54907597 62.35123775 16.41292959 59.9808215 18.58203125 57.00390625 C19.10216797 56.28009766 19.62230469 55.55628906 20.15820312 54.81054688 C20.70412109 54.06869141 21.25003906 53.32683594 21.8125 52.5625 C22.88215962 51.08510523 23.95118221 49.60724901 25.01953125 48.12890625 C25.52822754 47.42910645 26.03692383 46.72930664 26.56103516 46.00830078 C28.44315562 43.38150694 30.23043237 40.70362511 32 38 C41.72553418 45.37988348 45.59456979 56.37544658 47.5703125 68.14453125 C49.18188483 82.60473029 49.52838355 99.60792888 41 112 C36.32853333 117.34250608 29.87517478 119.8713812 23 121 C18.62781191 121.26949808 14.25463331 121.27710426 9.875 121.3125 C8.11542969 121.35600586 8.11542969 121.35600586 6.3203125 121.40039062 C-2.63449855 121.46506426 -11.05747106 120.20241797 -18.4375 114.75 C-27.36487584 105.16940153 -27.26962789 92.53841565 -27.46414185 80.11242676 C-27.525977 76.25412383 -27.61844405 72.39663792 -27.71484375 68.5390625 C-27.74426308 67.35697205 -27.74426308 67.35697205 -27.77427673 66.15100098 C-28.03706413 56.4912691 -28.67465729 46.85725139 -29.33984375 37.21826172 C-29.42492187 35.9757666 -29.51 34.73327148 -29.59765625 33.453125 C-29.71379272 31.83132324 -29.71379272 31.83132324 -29.83227539 30.17675781 C-29.88762451 29.12842773 -29.94297363 28.08009766 -30 27 C-30.07871338 25.78489746 -30.15742676 24.56979492 -30.23852539 23.31787109 C-30 20 -30 20 -28.57958984 18.00927734 C-27.92168457 17.4983252 -27.2637793 16.98737305 -26.5859375 16.4609375 C-25.8547168 15.8844043 -25.12349609 15.30787109 -24.37011719 14.71386719 C-20.51125241 11.92346435 -16.61655789 9.22247177 -12.625 6.625 C-11.81933594 6.09261719 -11.01367188 5.56023438 -10.18359375 5.01171875 C-2.57037214 0 -2.57037214 0 0 0 Z " fill="#C6393B" transform="translate(895,813)"/>
<path d="M0 0 C5.02481907 18.65882814 5.37311513 37.52618577 5.37060547 56.74267578 C5.3749933 60.49427231 5.41149417 64.24470268 5.44921875 67.99609375 C5.52525561 84.38659832 5.50166339 102.35427735 -3 117 C-3.474375 117.845625 -3.94875 118.69125 -4.4375 119.5625 C-6 121 -6 121 -8.5 121.5 C-11 121 -11 121 -12.5378418 119.40380859 C-20.32639826 106.59931252 -20.41751166 85.86606951 -22.6875 71.375 C-23.09383477 68.81371218 -23.50073197 66.25251353 -23.90820312 63.69140625 C-26.96466256 44.43199618 -26.96466256 44.43199618 -28 37 C-28.1134375 36.2059375 -28.226875 35.411875 -28.34375 34.59375 C-28.59241019 31.26170343 -28.66885752 28.93878222 -26.68359375 26.15234375 C-24.85200798 24.35353804 -22.93500674 22.68643868 -21 21 C-19.91501801 19.8118124 -18.85287354 18.60243578 -17.8125 17.375 C-14.48907935 13.5356145 -11.10553997 9.75511576 -7.6875 6 C-7.15938721 5.41138184 -6.63127441 4.82276367 -6.0871582 4.21630859 C-2.22998897 0 -2.22998897 0 0 0 Z " fill="#C6393B" transform="translate(532,813)"/>
<path d="M0 0 C9.19269735 4.45706538 14.40711773 13.82313352 18 23 C23.96086893 41.81764506 21.31635916 64.9883916 13.0625 82.5625 C7.68973829 92.65513085 7.68973829 92.65513085 3 95 C1.5660255 95.10441777 0.12741418 95.14864222 -1.31030273 95.16113281 C-2.64695229 95.17554413 -2.64695229 95.17554413 -4.01060486 95.19024658 C-5.45748436 95.1966214 -5.45748436 95.1966214 -6.93359375 95.203125 C-8.41690941 95.21167511 -8.41690941 95.21167511 -9.93019104 95.22039795 C-12.02416918 95.22985377 -14.11816225 95.23638423 -16.2121582 95.24023438 C-19.42099828 95.24995004 -22.6292007 95.28097223 -25.83789062 95.3125 C-27.86978785 95.31902889 -29.90168967 95.32427981 -31.93359375 95.328125 C-33.3774369 95.3466452 -33.3774369 95.3466452 -34.85044861 95.36553955 C-35.74470047 95.36253845 -36.63895233 95.35953735 -37.56030273 95.35644531 C-38.74039162 95.36191376 -38.74039162 95.36191376 -39.94432068 95.36749268 C-42.53692154 94.90401483 -43.41156883 94.06517124 -45 92 C-45.5 89.5625 -45.5 89.5625 -45 87 C-41.33056046 83.62659405 -37.18336092 81.38049557 -32.8125 79.0625 C-11.89002087 68.07406014 -11.89002087 68.07406014 3 51 C1.76273462 43.37019682 -7.11996581 36.80786612 -12.59375 31.95703125 C-14 30 -14 30 -13.75585938 27.73413086 C-12.91502104 24.69261002 -11.73458896 22.11399217 -10.3125 19.296875 C-9.77882812 18.2346875 -9.24515625 17.1725 -8.6953125 16.078125 C-8.13585937 14.97984375 -7.57640625 13.8815625 -7 12.75 C-6.44054687 11.63625 -5.88109375 10.5225 -5.3046875 9.375 C-1.1541718 1.1541718 -1.1541718 1.1541718 0 0 Z " fill="#C6393B" transform="translate(184,880)"/>
<path d="M0 0 C3.61752706 1.57210288 6.29838306 3.77723188 9.25 6.375 C10.14203125 7.14585937 11.0340625 7.91671875 11.953125 8.7109375 C14 11 14 11 14 15 C12.30520783 17.11849022 10.67404004 18.93007406 8.75 20.8125 C8.25886719 21.32748047 7.76773437 21.84246094 7.26171875 22.37304688 C3.65027493 25.97004492 3.65027493 25.97004492 0.96484375 26.09375 C-1.74211585 24.58689376 -3.88747267 22.76330015 -6.1875 20.6875 C-7.06792969 19.90761719 -7.94835937 19.12773438 -8.85546875 18.32421875 C-12.04497981 14.86746269 -12.04497981 14.86746269 -12 12 C-10.48828125 9.74609375 -10.48828125 9.74609375 -8.3125 7.4375 C-7.60738281 6.67308594 -6.90226562 5.90867187 -6.17578125 5.12109375 C-4.21331353 3.20795197 -2.23504054 1.57915957 0 0 Z " fill="#C6393B" transform="translate(472,815)"/>
<path d="M0 0 C3.13165461 1.66903626 5.40472787 4.12464566 7.82421875 6.66796875 C8.33082031 7.18810547 8.83742188 7.70824219 9.359375 8.24414062 C10.6045628 9.52456959 11.84033377 10.81414429 13.07421875 12.10546875 C11.67638709 16.51884735 9.61174797 18.89197791 6.19921875 21.98046875 C4.90371094 23.18316406 4.90371094 23.18316406 3.58203125 24.41015625 C1.07421875 26.10546875 1.07421875 26.10546875 -0.88671875 26.2109375 C-3.9922578 24.52728318 -6.26618349 22.07589238 -8.67578125 19.54296875 C-9.18238281 19.02283203 -9.68898438 18.50269531 -10.2109375 17.96679688 C-11.4561253 16.68636791 -12.69189627 15.39679321 -13.92578125 14.10546875 C-11.82797132 10.33879404 -9.49242345 7.32073307 -6.48828125 4.23046875 C-5.72644531 3.42867187 -4.96460938 2.626875 -4.1796875 1.80078125 C-1.92578125 0.10546875 -1.92578125 0.10546875 0 0 Z " fill="#C6393B" transform="translate(834.92578125,814.89453125)"/>
<path d="M0 0 C3.36415324 1.36558834 5.53493675 3.8896407 7.9921875 6.47265625 C8.49878906 6.99279297 9.00539063 7.51292969 9.52734375 8.04882812 C10.77253155 9.32925709 12.00830252 10.61883179 13.2421875 11.91015625 C11.65551172 15.81301392 9.10868269 18.24536607 6.1171875 21.16015625 C5.20710937 22.0521875 4.29703125 22.94421875 3.359375 23.86328125 C2.66070313 24.53875 1.96203125 25.21421875 1.2421875 25.91015625 C-1.90687665 24.49413412 -4.25304922 22.77280543 -6.8203125 20.47265625 C-7.49191406 19.87582031 -8.16351562 19.27898438 -8.85546875 18.6640625 C-10.5332604 17.11718683 -12.15940493 15.53844059 -13.7578125 13.91015625 C-11.56755659 9.16460178 -5.92481097 -0.30282367 0 0 Z " fill="#C6393B" transform="translate(924.7578125,945.08984375)"/>
</svg>
