<?xml version="1.0" encoding="UTF-8"?>
<svg version="1.1" xmlns="http://www.w3.org/2000/svg" width="873" height="1067">
<path d="M0 0 C17.44319369 3.64714947 35.55701243 28.24905682 44.88916016 42.29931641 C45.2557373 42.86054199 45.62231445 43.42176758 46 44 C46.66386719 45.01449219 47.32773437 46.02898437 48.01171875 47.07421875 C65.66892702 75.76239445 68.70729976 111.08810017 61.3125 143.5 C54.90181431 169.70126109 42.58318963 191.55789548 24 211 C23.19691406 211.8559375 22.39382813 212.711875 21.56640625 213.59375 C14.92591608 220.48503044 7.63368757 226.26971576 0 232 C-0.73460449 232.55236328 -1.46920898 233.10472656 -2.22607422 233.67382812 C-10.3726454 239.77906673 -18.58025273 245.77639831 -27 251.5 C-43.84503018 262.95163721 -60.05563374 275.13746497 -75 289 C-75.64195312 289.57621094 -76.28390625 290.15242188 -76.9453125 290.74609375 C-96.00417058 308.64866128 -110.26901003 333.68121249 -111.23828125 360.15234375 C-111.46534454 372.16803522 -110.65730647 382.52995283 -107 394 C-106.41638537 395.99991793 -105.83301197 397.9999063 -105.25 400 C-104.83733469 401.33457717 -104.42249459 402.66850189 -104 404 C-109.13943184 402.48552864 -112.3378057 399.29665553 -116.125 395.6875 C-116.78661133 395.0594043 -117.44822266 394.43130859 -118.12988281 393.78417969 C-145.11463937 367.79160576 -160.42367858 333.64067082 -161.3125 296.125 C-161.10329377 261.25587199 -145.41570068 227.2273603 -122 202 C-121.52336914 201.47954102 -121.04673828 200.95908203 -120.55566406 200.42285156 C-104.91408733 183.49301868 -85.02008575 171.93250364 -65.36376953 160.27368164 C-50.90374238 151.68342886 -38.17204912 142.59565682 -26 131 C-25.21882812 130.28328125 -24.43765625 129.5665625 -23.6328125 128.828125 C-1.97271314 108.3242587 12.47084989 77.93560702 13.29321289 48.06738281 C13.45805845 30.39760808 7.21797769 15.84073465 0 0 Z " fill="#BE9C39" transform="translate(489,82)"/>
<path d="M0 0 C17.33592033 14.36482706 28.57431526 32.91988108 40.43798828 51.80712891 C55.54251681 75.78452278 74.46463951 101.41611875 103.625 108.5 C115.80744175 110.54002974 128.69491954 109.09918152 140.9375 108.1875 C126.02320995 126.54354929 103.61430062 139.61393472 79.9375 142.1875 C49.92953771 143.68981659 26.69427471 135.86879823 4.20458984 116.12670898 C-1.16857008 111.26147727 -5.77676287 106.03997662 -10.0625 100.1875 C-11.07763672 98.85332031 -11.07763672 98.85332031 -12.11328125 97.4921875 C-18.1016225 89.28148195 -22.85629028 80.4707125 -27.75073242 71.58203125 C-31.27861465 65.22620933 -34.92562307 59.04177238 -39.0625 53.0625 C-39.48257324 52.45494873 -39.90264648 51.84739746 -40.33544922 51.22143555 C-53.76195996 32.29983277 -73.93381671 18.6572637 -96.6875 13.8125 C-111.15844304 11.73905145 -124.02550064 13.57425469 -137.0625 20.1875 C-137.7225 20.1875 -138.3825 20.1875 -139.0625 20.1875 C-131.14815426 2.38946493 -108.14679301 -10.44507207 -91.0625 -17.8125 C-60.47881529 -29.35125311 -24.95068041 -19.23442545 0 0 Z " fill="#031C45" transform="translate(322.0625,430.8125)"/>
<path d="M0 0 C0.00879936 1.44913033 0.00879936 1.44913033 0.01777649 2.92753601 C0.07500866 12.03543482 0.14777285 21.14309497 0.23571491 30.25075054 C0.28042773 34.93301864 0.31968185 39.61519954 0.34643555 44.29760742 C0.37245944 48.81705836 0.41285535 53.33617393 0.46318626 57.85541725 C0.47986117 59.57892495 0.49137157 61.30249067 0.49761391 63.02606773 C0.50724832 65.44180774 0.53529873 67.85668855 0.56762695 70.2722168 C0.56547432 71.33928864 0.56547432 71.33928864 0.5632782 72.42791748 C0.64555403 76.77971397 1.32217731 79.54561095 4 83 C7.41763215 85.27842143 8.61275386 85.24974309 12.62661076 85.24888897 C13.80525481 85.25348777 14.98389887 85.25808656 16.19825941 85.26282471 C17.49940623 85.25768115 18.80055304 85.25253759 20.14112854 85.24723816 C21.53235128 85.24882558 22.92357324 85.25128851 24.31479305 85.25455457 C28.1465215 85.26098525 31.97814475 85.25488671 35.80986631 85.24679029 C39.93872827 85.24022628 44.06757821 85.24515892 48.19644165 85.24867249 C56.28805797 85.25372064 64.37963351 85.24806523 72.47124476 85.23882218 C81.88642485 85.22845263 91.30159605 85.22850799 100.71678077 85.22899476 C117.5106587 85.2294957 134.30451761 85.22032521 151.09838867 85.20581055 C167.40959011 85.19172026 183.72077481 85.18463985 200.03198242 85.18530273 C201.53903022 85.18536267 201.53903022 85.18536267 203.07652343 85.18542381 C204.5809174 85.18548435 204.5809174 85.18548435 206.11570317 85.1855461 C224.66411632 85.18623528 243.21252234 85.18034996 261.76093318 85.17139288 C268.33035891 85.16837175 274.89978333 85.16731276 281.46920967 85.16686058 C289.46973099 85.16617966 297.47024027 85.16173198 305.47075648 85.15252777 C309.55599185 85.147899 313.64121179 85.14486824 317.72644997 85.14612198 C321.4612189 85.14721262 325.19595364 85.14372573 328.93071543 85.13647345 C330.93230325 85.13378471 332.93389578 85.13602732 334.93548399 85.1384055 C336.1115203 85.13518106 337.28755661 85.13195661 338.49923038 85.12863445 C340.03124091 85.12757782 340.03124091 85.12757782 341.59420115 85.12649983 C344.01303312 85.15999655 344.01303312 85.15999655 346 84 C346.3452376 81.99054011 346.60063366 79.96536358 346.8125 77.9375 C347.8926189 70.29293752 350.23530332 65.26568313 356 60.125 C361.63928377 56.13050733 366.1933514 55.29429396 373 56 C378.6162285 57.1232457 382.17394985 59.46064135 385.68359375 63.96484375 C390.75665149 71.80776091 392.20717047 79.14883076 392.3125 88.3125 C392.34150391 89.14201172 392.37050781 89.97152344 392.40039062 90.82617188 C392.461312 96.76366296 391.46994797 100.14946882 388 105 C386.21875 106.7421875 386.21875 106.7421875 384.5 107.875 C383.9328125 108.26429688 383.365625 108.65359375 382.78125 109.0546875 C378.20627799 111.48263317 373.05314757 111.70051423 368 111 C361.95781174 108.83951429 357.16923264 105.86410475 353 101 C352.44570313 101.49371094 351.89140625 101.98742187 351.3203125 102.49609375 C350.59585937 103.13675781 349.87140625 103.77742187 349.125 104.4375 C348.40570312 105.07558594 347.68640625 105.71367188 346.9453125 106.37109375 C343.67551562 109.10905619 341.67240489 109.12690232 337.46913815 109.13422108 C335.69495869 109.14090784 335.69495869 109.14090784 333.88493723 109.14772969 C332.57397957 109.14754533 331.26302191 109.14736097 329.91233826 109.14717102 C328.51459321 109.15046877 327.11684912 109.15419415 325.71910626 109.1583125 C321.86446395 109.16835109 318.00983721 109.17205229 314.15518367 109.17470181 C310.00299024 109.17859947 305.8508092 109.18817831 301.69862366 109.19691467 C291.66299177 109.21669641 281.62735884 109.22674837 271.59171233 109.23564246 C266.86741084 109.24002338 262.14311048 109.24539077 257.41880989 109.25063133 C241.71606269 109.26764685 226.01331619 109.28214068 210.31056118 109.28938007 C206.23365211 109.29129002 202.15674304 109.29321034 198.07983398 109.29516602 C197.06651676 109.29564976 196.05319953 109.2961335 195.00917573 109.2966319 C178.59683737 109.30493083 162.18457194 109.33026398 145.77226543 109.36274669 C128.92706232 109.39581462 112.08189627 109.41382868 95.23666054 109.41702431 C85.77674565 109.41918988 76.31693703 109.42794506 66.85705376 109.45348549 C58.79958612 109.475189 50.74225054 109.4832447 42.68475699 109.47351871 C38.57425899 109.46897271 34.4640335 109.4708774 30.35357285 109.49028015 C26.58741557 109.50790389 22.82172974 109.50692083 19.05556751 109.49138286 C17.05411261 109.48788283 15.05265281 109.50403915 13.05126661 109.52098733 C5.19493913 109.46485742 -1.9157148 108.89241349 -7.83836371 103.24799901 C-16.82286621 93.02768756 -15.64585209 77.26778674 -16.0625 64.5 C-16.19372839 60.65597746 -16.33128154 56.81226762 -16.4765625 52.96875 C-16.51170456 52.02459229 -16.54684662 51.08043457 -16.58305359 50.10766602 C-16.81848863 44.47415347 -17.27587696 38.93145545 -18.0234375 33.34375 C-20.20556285 16.32273519 -20.20556285 16.32273519 -17.87451172 11.83154297 C-14.57136882 7.73023887 -10.6231242 5.39899707 -6 3 C-5.23945313 2.42378906 -4.47890625 1.84757813 -3.6953125 1.25390625 C-2 0 -2 0 0 0 Z M365.33984375 69.73046875 C362.97960929 73.72841692 364.03420969 77.62437861 365 82 C366.785641 87.15460899 369.11412223 91.25914174 374 94 C376.69628579 94.17778312 376.69628579 94.17778312 379 93 C381.51034269 89.14056157 381.15526007 86.02618753 380.61328125 81.60546875 C379.34868369 76.2329428 376.13820927 71.61822485 372 68 C368.82838672 67.44496768 367.60986977 67.36430045 365.33984375 69.73046875 Z " fill="#960000" transform="translate(244,706)"/>
<path d="M0 0 C3.40140262 2.74808443 4.81931063 6.52289054 6.5 10.4375 C6.80824707 11.15035156 7.11649414 11.86320312 7.43408203 12.59765625 C10.97902994 21.01950163 13.4834124 29.83816691 14 39 C14.06445312 40.13824219 14.12890625 41.27648437 14.1953125 42.44921875 C14.81783568 63.63575768 8.16899778 81.84432672 -6.3125 97.5 C-7.6428125 98.7375 -7.6428125 98.7375 -9 100 C-9.97453125 100.98226562 -9.97453125 100.98226562 -10.96875 101.984375 C-26.97383443 117.45595662 -48.1455762 123.73859089 -69.28027344 128.80371094 C-93.00444953 134.56453151 -114.45653669 145.51457717 -127.8125 166.75 C-134.15868889 178.20198632 -134.77919744 191.20311673 -136 204 C-140.27651719 200.41355717 -142.20675472 196.02470902 -144.5 191.0625 C-144.89509766 190.21655273 -145.29019531 189.37060547 -145.69726562 188.49902344 C-154.51704884 169.22860157 -156.75417291 150.24144116 -149.93359375 129.8046875 C-144.82833801 116.89833141 -137.71385188 106.72766959 -128 97 C-127.26910156 96.2575 -126.53820312 95.515 -125.78515625 94.75 C-112.4739331 82.05847997 -95.02494521 76.95029296 -77.97265625 71.36328125 C-77.25893356 71.12848557 -76.54521088 70.89368988 -75.80986023 70.65177917 C-72.24033653 69.47763801 -68.66840524 68.31315601 -65.08862305 67.1706543 C-44.01339328 60.35543869 -19.11054863 50.2466695 -8.13671875 29.6171875 C-4.46335636 21.15961773 -2.56178351 12.60421508 -1.39453125 3.484375 C-1 1 -1 1 0 0 Z " fill="#031C45" transform="translate(555,475)"/>
<path d="M0 0 C8.52034345 6.72308351 16.09708207 16.77807945 18.25390625 27.62890625 C19.83285203 42.66648515 17.88359401 56.03255588 8.78515625 68.28125 C0.12597696 78.78205434 -10.80016753 84.41649376 -24.1875 85.84765625 C-36.99177514 86.51066079 -48.11390291 82.99520227 -58.625 75.84765625 C-68.30228597 67.02021693 -74.80069232 54.11261767 -75.703125 41.02734375 C-75.90679198 27.21193352 -72.12634607 17.94331319 -64.25 6.78515625 C-46.63239975 -11.232844 -20.83555262 -14.26387396 0 0 Z " fill="#BE9C39" transform="translate(494.5,422.02734375)"/>
<path d="M0 0 C15.10935451 12.70324154 20.19096507 27.70743885 22.28125 46.91796875 C22.51297501 50.16601341 22.65501193 53.41430547 22.78125 56.66796875 C23.43783488 72.53356379 26.83917016 88.1374612 38.28125 99.91796875 C40.84077134 101.56725473 43.51265082 102.84631802 46.28125 104.10546875 C47.67791652 104.76386044 49.07376999 105.42398 50.46875 106.0859375 C51.12230469 106.39321777 51.77585937 106.70049805 52.44921875 107.01708984 C54.81445452 108.18016553 57.05309023 109.51231327 59.28125 110.91796875 C55.00782327 115.19139548 48.09825802 115.45873127 42.28125 115.91796875 C41.61609375 115.97210937 40.9509375 116.02625 40.265625 116.08203125 C26.90972681 116.62616044 14.32299768 112.39986308 4.15625 103.85546875 C-11.57549685 88.91525634 -14.08209711 70.28868084 -16.4296875 49.81640625 C-18.10975681 35.20765196 -20.00195809 22.70054583 -27.71875 9.91796875 C-28.01523437 9.21800781 -28.31171875 8.51804687 -28.6171875 7.796875 C-30.03358024 5.38097106 -31.16460403 5.05790638 -33.71875 3.91796875 C-36.16923467 2.42923344 -38.56527097 0.85620714 -40.96875 -0.70703125 C-41.6184375 -1.12726563 -42.268125 -1.5475 -42.9375 -1.98046875 C-44.53243881 -3.01248798 -46.12575669 -4.04701153 -47.71875 -5.08203125 C-47.38875 -5.74203125 -47.05875 -6.40203125 -46.71875 -7.08203125 C-31.045921 -12.11972629 -13.15188093 -10.01336389 0 0 Z " fill="#031C45" transform="translate(573.71875,401.08203125)"/>
<path d="M0 0 C11.1827945 10.60833588 17.12263584 26.20680637 18.16796875 41.44921875 C18.27199074 53.37013894 16.47089127 64.31335511 8.75 73.75 C7.8425 74.4925 6.935 75.235 6 76 C5.42121094 76.49113281 4.84242188 76.98226562 4.24609375 77.48828125 C-9.04313262 87.65063082 -29.58076637 88.17966916 -45.5625 86.375 C-54.67163948 84.76125967 -61.7624468 81.51951261 -67.52734375 74.1328125 C-68.25630859 73.07707031 -68.25630859 73.07707031 -69 72 C-69.43441406 71.37867188 -69.86882812 70.75734375 -70.31640625 70.1171875 C-75.53556229 60.84272903 -74.04985478 48.00560148 -71.45678711 38.07641602 C-66.81562756 22.21838812 -66.81562756 22.21838812 -60.3125 18.4375 C-58 18 -58 18 -56 19 C-54.64083075 23.82469502 -55.34165146 26.95029214 -56.9375 31.625 C-59.30163262 39.41757652 -60.91324506 46.87916448 -57.375 54.5 C-51.15001799 61.05261264 -44.31036965 62.92955011 -35.4921875 63.30078125 C-33.95324107 63.320082 -32.41402756 63.32358138 -30.875 63.3125 C-30.05459229 63.30758545 -29.23418457 63.3026709 -28.38891602 63.29760742 C-17.36954733 63.08925128 -5.10601141 61.76720427 4 55 C6.13034572 51.72863319 6.28590937 49.20882357 5.66015625 45.33203125 C3.35041803 37.1727785 -1.94848565 30.44711017 -7.36328125 24.09375 C-9 22 -9 22 -10 19 C-9.19555664 16.9152832 -9.19555664 16.9152832 -7.91015625 14.55078125 C-7.22856445 13.27944336 -7.22856445 13.27944336 -6.53320312 11.98242188 C-6.04787109 11.10134766 -5.56253906 10.22027344 -5.0625 9.3125 C-4.58103516 8.41982422 -4.09957031 7.52714844 -3.60351562 6.60742188 C-2.41123103 4.39992466 -1.20982106 2.19792067 0 0 Z " fill="#960000" transform="translate(193,774)"/>
<path d="M0 0 C10.67932611 5.31257572 21.33050281 8.88921309 33.28930664 6.05883789 C40.58564499 3.529596 45.60842317 -1.29617381 50.32446289 -7.24975586 C50.78981445 -7.75764648 51.25516602 -8.26553711 51.73461914 -8.78881836 C52.39461914 -8.78881836 53.05461914 -8.78881836 53.73461914 -8.78881836 C50.3061413 5.37107384 45.58275246 19.30706962 33.07446289 27.92602539 C21.09457275 34.50596505 7.71675061 35.02425219 -5.26538086 31.33618164 C-13.54935176 28.80253585 -21.45458014 25.25837524 -29.33569336 21.69018555 C-45.23064389 14.50158379 -55.75447316 15.8783136 -72.14038086 21.96118164 C-73.17163086 22.37368164 -74.20288086 22.78618164 -75.26538086 23.21118164 C-73.60392854 12.59316452 -66.32357442 2.88786147 -57.95288086 -3.57397461 C-38.32591579 -16.37553676 -19.1332694 -9.56563138 0 0 Z " fill="#031C45" transform="translate(521.265380859375,356.788818359375)"/>
<path d="M0 0 C0.66 0.33 1.32 0.66 2 1 C2.57836914 2.82592773 2.57836914 2.82592773 3.03515625 5.18359375 C3.20466797 6.02857422 3.37417969 6.87355469 3.54882812 7.74414062 C3.71833984 8.63294922 3.88785156 9.52175781 4.0625 10.4375 C4.40519793 12.18666079 4.75014444 13.93538298 5.09765625 15.68359375 C5.32207397 16.85233032 5.32207397 16.85233032 5.55102539 18.04467773 C5.93386889 20.0641581 5.93386889 20.0641581 7 22 C10.97030526 23.01718565 14.86160758 23.22272895 18.875 22.4375 C21.78114235 20.47158017 22.68145596 18.19226452 24 15 C24.99 15.33 25.98 15.66 27 16 C28.1875 19.5625 28.1875 19.5625 29 23 C32.46485707 22.37967524 32.46485707 22.37967524 36 21 C37.51792644 18.50358872 37.51792644 18.50358872 38 16 C39.32 16 40.64 16 42 16 C42.433125 16.969375 42.86625 17.93875 43.3125 18.9375 C44.7014861 22.27731765 44.7014861 22.27731765 48 23 C50.72426311 20.64722731 51.8141763 18.37503669 53 15 C54.32 15.33 55.64 15.66 57 16 C57.99 19.465 57.99 19.465 59 23 C60.74991334 23.02715383 62.49994945 23.04646551 64.25 23.0625 C65.22453125 23.07410156 66.1990625 23.08570313 67.203125 23.09765625 C70.69722588 22.9820753 70.69722588 22.9820753 74 22 C75.79271391 18.51202512 75.79271391 18.51202512 77 15 C78.875 15.125 78.875 15.125 81 16 C81.70381157 17.98723268 82.3711811 19.98777953 83 22 C86 23.33333333 86 23.33333333 89 22 C90.71567661 18.49705129 90.71567661 18.49705129 92 15 C93.875 15.125 93.875 15.125 96 16 C97.25 19.0625 97.25 19.0625 98 22 C99.65 22.33 101.3 22.66 103 23 C103.495 21.515 103.495 21.515 104 20 C103.01 18.515 103.01 18.515 102 17 C102.32408368 13.65113536 103.78470069 11.48113523 106 9 C106.66 9 107.32 9 108 9 C110.88160769 14.76321539 112.2120313 19.59979942 110.4609375 25.95703125 C109.04198758 29.66033462 107.60226538 32.25032824 104 34 C99.33987653 34.59490938 96.80530297 33.68609622 93 31 C92.46375 31.495 91.9275 31.99 91.375 32.5 C88.30142595 34.44120466 86.58544099 34.43903359 83 34 C80.125 32.5 80.125 32.5 78 31 C77.49339844 31.48726562 76.98679687 31.97453125 76.46484375 32.4765625 C73.07672916 34.57064284 70.51941311 34.39852971 66.5625 34.375 C65.26441406 34.38273438 63.96632813 34.39046875 62.62890625 34.3984375 C58.90376322 33.98943364 56.99475748 33.18115284 54 31 C53.46375 31.495 52.9275 31.99 52.375 32.5 C49.31754465 34.43102443 47.561827 34.44522837 44 34 C41.625 32.5 41.625 32.5 40 31 C39.484375 31.495 38.96875 31.99 38.4375 32.5 C35.11025784 34.54753364 32.85169806 34.33786825 29 34 C28.113125 33.62875 27.22625 33.2575 26.3125 32.875 C25.549375 32.58625 24.78625 32.2975 24 32 C23.43539062 32.30292969 22.87078125 32.60585938 22.2890625 32.91796875 C17.34393039 35.25551413 11.32046087 34.63443512 6 34 C3.29480078 32.59788325 2.64130784 31.65134343 1 29 C1 28.34 1 27.68 1 27 C0.34 27 -0.32 27 -1 27 C-1.33 27.99 -1.66 28.98 -2 30 C-6.58289598 30.24026833 -10.72206312 30.4089398 -15.125 29 C-17 27 -17 27 -17.625 23.1875 C-17.37105091 19.44689854 -16.19186152 17.08343302 -13.57421875 14.30078125 C-11.88474379 12.90476348 -10.19398553 11.94356262 -8.25 10.9375 C-4.79603137 9.38676354 -4.79603137 9.38676354 -4.3125 6.5 C-4.209375 5.675 -4.10625 4.85 -4 4 C-1.9375 1.6875 -1.9375 1.6875 0 0 Z M-10 20 C-7.04335481 21.4783226 -4.25770263 21.06032783 -1 21 C-1.33 19.35 -1.66 17.7 -2 16 C-5.90838866 16 -7.11594107 17.50567876 -10 20 Z " fill="#031C45" transform="translate(499,699)"/>
<path d="M0 0 C8.23678831 3.87613568 12.64298018 12.93585456 16 21 C18.10812845 26.93371819 18.3856808 32.39916316 18.375 38.625 C18.37258301 40.08607178 18.37258301 40.08607178 18.37011719 41.57666016 C18.23805588 49.36957209 17.10864788 55.79310007 14 63 C13.69964844 63.73992188 13.39929688 64.47984375 13.08984375 65.2421875 C9.6135468 72.97732443 3.98413815 80.20874883 -3 85 C-5.82280723 85.6561061 -8.48986405 85.6176015 -11.375 85.5 C-12.15431885 85.48445068 -12.9336377 85.46890137 -13.73657227 85.45288086 C-22.59197748 85.15307684 -31.58264919 83.8057836 -40 81 C-39 78 -39 78 -35.75390625 76.16796875 C-34.36074494 75.49946653 -32.96331778 74.83980605 -31.5625 74.1875 C-30.09111533 73.47540319 -28.62105758 72.76055804 -27.15234375 72.04296875 C-26.43675293 71.69411621 -25.72116211 71.34526367 -24.98388672 70.98583984 C-13.22504525 65.14259571 -1.03741724 57.07483448 5 45 C5.79574326 39.4297972 5.1248755 36.60803904 1.9375 31.9375 C-1.35799206 27.58610539 -4.98163128 23.68859378 -9 20 C-6.23345343 13.19701662 -3.3850895 6.51943164 0 0 Z " fill="#960000" transform="translate(683,770)"/>
<path d="M0 0 C0.33 11.55 0.66 23.1 1 35 C5.5046975 37.25234875 7.78098187 37.37701238 12.6484375 36.82421875 C15.6301414 35.77913649 16.24856424 34.73493238 17.625 31.9375 C18.12237952 30.63929381 18.59413524 29.32966142 19 28 C19.99 28.33 20.98 28.66 22 29 C22.474375 30.155 22.94875 31.31 23.4375 32.5 C24.57177516 36.00047591 24.57177516 36.00047591 26.75 36.9375 C27.4925 36.958125 28.235 36.97875 29 37 C30.11375 37.061875 31.2275 37.12375 32.375 37.1875 C36.14162108 36.99267477 38.65183256 36.75017843 42 35 C43.41064609 32.70372271 44.13788276 30.58635171 45 28 C45.99 28.33 46.98 28.66 48 29 C48.268125 30.134375 48.53625 31.26875 48.8125 32.4375 C49.40876808 34.44155324 49.40876808 34.44155324 51 36 C55.62091932 37.26720246 60.22779866 37.69109925 65 38 C64.67 37.34 64.34 36.68 64 36 C63.52802397 31.35890238 63.4374592 28.23139729 66 24.25 C68.99453 20.58064633 72.37642258 18.15802307 77 17 C81.50494828 17.0654076 84.21998889 18.23998918 87.4375 21.375 C88.81018135 23.68110466 89.61003202 25.36771611 90 28 C88.515 27.7525 88.515 27.7525 87 27.5 C78.68066217 26.27516921 78.68066217 26.27516921 71 29 C71.89635172 31.2408793 72.58166399 32.69879807 74.5625 34.125 C78.09493391 35.3930532 81.55020761 35.20997756 85.25 35.125 C85.99507813 35.11597656 86.74015625 35.10695313 87.5078125 35.09765625 C89.33868059 35.07418358 91.16938238 35.03831525 93 35 C92.33983557 39.29106881 91.14677015 41.97031897 88 45 C81.03793659 47.46374033 73.31324501 47.60547141 66 48 C64.86280518 48.07250977 64.86280518 48.07250977 63.70263672 48.14648438 C53.34004077 48.74864523 53.34004077 48.74864523 48.9375 46.2890625 C47.968125 45.86367188 46.99875 45.43828125 46 45 C43.51375074 46.28195055 43.51375074 46.28195055 41 48 C37.44140625 48.3984375 37.44140625 48.3984375 33.5625 48.375 C31.64630859 48.38660156 31.64630859 48.38660156 29.69140625 48.3984375 C26 48 26 48 22.83984375 46.2890625 C21.90269531 45.86367188 20.96554687 45.43828125 20 45 C17.5421855 46.28770931 17.5421855 46.28770931 15 48 C12.23201124 48.314802 9.7585136 48.4654923 7 48.4375 C5.95199219 48.4674707 5.95199219 48.4674707 4.8828125 48.49804688 C1.34628561 48.49471053 -0.85265413 48.08588609 -3.921875 46.296875 C-7.83890554 41.96752545 -7.5419996 36.5975263 -8 31 C-8.09361816 30.02482422 -8.18723633 29.04964844 -8.28369141 28.04492188 C-8.58914256 24.71945362 -8.83269175 21.39399847 -9.0625 18.0625 C-9.16143555 16.97235596 -9.26037109 15.88221191 -9.36230469 14.7590332 C-9.78163361 7.08969671 -9.78163361 7.08969671 -7.50341797 3.91357422 C-3.08560578 0 -3.08560578 0 0 0 Z " fill="#031C45" transform="translate(353,685)"/>
<path d="M0 0 C0.13975208 11.9795948 0.24600007 23.95899189 0.31087303 35.9392395 C0.34202768 41.50373372 0.3842071 47.06766537 0.45263672 52.63183594 C0.51839945 58.01356439 0.55382495 63.39475584 0.56926346 68.77685547 C0.58024855 70.81795695 0.60169647 72.859033 0.63438034 74.89990234 C0.82764899 87.48216107 0.25597359 98.78910652 -6 110 C-8.20083618 111.92529297 -8.20083618 111.92529297 -10 113 C-12.28081462 104.28871131 -12.93967504 95.45498165 -13.7265625 86.515625 C-13.88029743 84.8108206 -14.03438708 83.10604816 -14.18881226 81.40130615 C-14.5102451 77.83785541 -14.82744393 74.27406022 -15.14160156 70.70996094 C-15.54155336 66.17629476 -15.95194569 61.64364714 -16.36556435 57.11120987 C-16.68551822 53.59223537 -16.99986581 50.07277652 -17.312603 46.55315399 C-17.46160882 44.8835107 -17.61228184 43.21401522 -17.76475906 41.54468536 C-20.18673605 14.9221094 -20.18673605 14.9221094 -17.72297668 10.93165588 C-16.15892416 9.28639969 -14.57134141 8.07573478 -12.6875 6.8125 C-12.09259766 6.36326172 -11.49769531 5.91402344 -10.88476562 5.45117188 C-3.59209174 0 -3.59209174 0 0 0 Z " fill="#960000" transform="translate(743,707)"/>
<path d="M0 0 C4.13448553 4.46089228 5.09853091 9.07719777 5 15 C4.25121518 18.13128196 3.46805016 19.51523376 1.25 21.8125 C-1.75036616 23.39602659 -3.64355788 23.41099291 -7 23 C-7.86625 22.46375 -8.7325 21.9275 -9.625 21.375 C-10.40875 20.92125 -11.1925 20.4675 -12 20 C-13.34355109 20.64582713 -14.67532254 21.3162955 -16 22 C-18.578125 22.4140625 -18.578125 22.4140625 -21.25 22.625 C-22.14203125 22.69976563 -23.0340625 22.77453125 -23.953125 22.8515625 C-24.62859375 22.90054688 -25.3040625 22.94953125 -26 23 C-26.17015625 23.65226563 -26.3403125 24.30453125 -26.515625 24.9765625 C-28.30475538 31.42885186 -30.20015756 36.20015756 -35 41 C-38.15234375 41.01171875 -38.15234375 41.01171875 -41.9375 40.6875 C-43.80728516 40.53861328 -43.80728516 40.53861328 -45.71484375 40.38671875 C-49 40 -49 40 -52 39 C-52 38.34 -52 37.68 -52 37 C-51.28714844 36.63648438 -50.57429687 36.27296875 -49.83984375 35.8984375 C-40.01355834 31.04954119 -40.01355834 31.04954119 -33 23 C-34.13888672 22.83564453 -34.13888672 22.83564453 -35.30078125 22.66796875 C-36.29464844 22.50941406 -37.28851562 22.35085938 -38.3125 22.1875 C-39.29863281 22.03667969 -40.28476562 21.88585937 -41.30078125 21.73046875 C-44.16647818 20.95494729 -45.28343797 20.38826021 -47 18 C-47.64844569 12.48821162 -46.60792917 7.83880834 -44 3 C-41.75 0.4375 -41.75 0.4375 -39 -1 C-34.77193574 -1.07417657 -32.79538412 -0.71165948 -29.625 2.125 C-27.73673749 5.46577214 -27.29816296 8.19842229 -27 12 C-23.37 11.67 -19.74 11.34 -16 11 C-15.9175 9.948125 -15.835 8.89625 -15.75 7.8125 C-14.93476184 3.6683727 -14.00100945 1.91526633 -11 -1 C-7.22050185 -2.95491284 -3.7547626 -1.54213464 0 0 Z M-7 4 C-7.80469849 5.70112992 -7.80469849 5.70112992 -8 8 C-6.64185993 11.21712945 -6.64185993 11.21712945 -5 14 C-3.68 14 -2.36 14 -1 14 C-1.34066313 9.22564536 -1.34066313 9.22564536 -3.4375 5.0625 C-4.96072099 3.81256333 -4.96072099 3.81256333 -7 4 Z M-40 8 C-40.33 8.99 -40.66 9.98 -41 11 C-38.69 11.33 -36.38 11.66 -34 12 C-35.29467677 9.94009522 -35.29467677 9.94009522 -37 8 C-37.99 8 -38.98 8 -40 8 Z " fill="#031C45" transform="translate(665,711)"/>
<path d="M0 0 C2.34146847 1.81331768 3.36271405 3.42003426 5 6 C5 7.32 5 8.64 5 10 C3.89591797 9.94779297 3.89591797 9.94779297 2.76953125 9.89453125 C-4.67660158 9.50582011 -4.67660158 9.50582011 -11 13 C-11.33 13.99 -11.66 14.98 -12 16 C-10.62714844 16.38091797 -10.62714844 16.38091797 -9.2265625 16.76953125 C-8.03804688 17.11371094 -6.84953125 17.45789063 -5.625 17.8125 C-4.44164062 18.14894531 -3.25828125 18.48539063 -2.0390625 18.83203125 C1 20 1 20 3 23 C3.45944562 28.60523661 3.20467806 32.19298292 0 37 C-6.44424286 43.30103746 -12.36077972 44.34814035 -21 44.3125 C-21.78117187 44.32861328 -22.56234375 44.34472656 -23.3671875 44.36132812 C-28.32541721 44.36550172 -31.69351355 43.71051444 -36 41 C-39.78043551 36.82848496 -40.2798983 32.91964353 -40.2265625 27.48828125 C-39.77756112 22.55700753 -38.54774931 17.54774931 -35 14 C-34.01 14 -33.02 14 -32 14 C-32.09539062 14.89203125 -32.19078125 15.7840625 -32.2890625 16.703125 C-32.39992188 17.87359375 -32.51078125 19.0440625 -32.625 20.25 C-32.79902344 21.99023438 -32.79902344 21.99023438 -32.9765625 23.765625 C-33.00006133 27.00846314 -32.98473057 28.46975869 -31 31 C-24.85658928 34.38317199 -16.87000541 33.83312616 -10.1875 32.39453125 C-8.023948 31.71148679 -6.00538006 31.06109916 -4 30 C-3.67 29.34 -3.34 28.68 -3 28 C-4.35544922 27.85304688 -4.35544922 27.85304688 -5.73828125 27.703125 C-6.91777344 27.55359375 -8.09726562 27.4040625 -9.3125 27.25 C-10.48425781 27.11078125 -11.65601563 26.9715625 -12.86328125 26.828125 C-16 26 -16 26 -17.9140625 24.1796875 C-19.83873604 20.31649385 -19.14081501 17.05903242 -18 13 C-14.26629006 4.84944075 -9.89166099 -1.58973123 0 0 Z " fill="#031C45" transform="translate(305,707)"/>
<path d="M0 0 C4.54869205 0.42117519 8.95761219 1.18038426 13.4375 2.0625 C21.60633248 3.54774227 27.79513304 3.44296579 35.640625 0.55859375 C38.41266229 -0.09769985 40.27336332 0.26999621 43 1 C42.68165288 4.71404978 41.68373879 7.16746631 38.921875 9.734375 C31.0779461 14.89988916 21.31044936 17.45789095 12 17 C10.26775016 16.59634302 8.53864849 16.17899867 6.8125 15.75 C4.30291559 15.13500788 4.30291559 15.13500788 2 15 C-0.35522225 16.7712618 -0.35522225 16.7712618 -2 19 C-4.75 19.25 -4.75 19.25 -7 19 C-7.83953449 11.44418961 -5.30492227 7.11752112 -1 1 C-0.67 0.67 -0.34 0.34 0 0 Z " fill="#960000" transform="translate(716,684)"/>
<path d="M0 0 C4.22141034 1.50764655 5.80349864 4.21292869 8 8 C10.36846683 15.46378691 9.60711705 22.95498583 6.265625 29.9296875 C4.64680306 32.57776042 3.20524208 34.79094921 1 37 C-2.05859375 37.5234375 -2.05859375 37.5234375 -5.4375 37.375 C-6.54996094 37.34148438 -7.66242188 37.30796875 -8.80859375 37.2734375 C-11.61585204 37.03291353 -14.25631804 36.62566205 -17 36 C-17 35.34 -17 34.68 -17 34 C-16.28714844 33.63648438 -15.57429688 33.27296875 -14.83984375 32.8984375 C-4.48820045 27.82913662 -4.48820045 27.82913662 2.25 19 C2.26715121 15.73683612 2.26715121 15.73683612 -0.5 13 C-3 10 -3 10 -2.9375 6.875 C-2.13507167 4.41421978 -1.29124778 2.23816282 0 0 Z " fill="#031C45" transform="translate(329,713)"/>
<path d="M0 0 C2.96469776 1.57055006 4.96542581 3.72932625 7.28515625 6.140625 C8.1771875 7.05972656 9.06921875 7.97882812 9.98828125 8.92578125 C10.66375 9.63605469 11.33921875 10.34632813 12.03515625 11.078125 C8.96392761 16.11493997 5.30598959 20.02323267 1.03515625 24.078125 C-2.5488707 22.54564451 -4.99334509 20.4106649 -7.77734375 17.703125 C-8.58816406 16.93226563 -9.39898437 16.16140625 -10.234375 15.3671875 C-11.96484375 13.078125 -11.96484375 13.078125 -11.99609375 11.08984375 C-10.59450102 8.35567611 -8.80929664 6.4508195 -6.65234375 4.265625 C-5.48251953 3.04939453 -5.48251953 3.04939453 -4.2890625 1.80859375 C-1.96484375 0.078125 -1.96484375 0.078125 0 0 Z " fill="#960000" transform="translate(163.96484375,752.921875)"/>
<path d="M0 0 C0.09908722 6.1563653 0.17157253 12.3122635 0.21972656 18.46923828 C0.23980659 20.56241953 0.2670764 22.65554492 0.30175781 24.74853516 C0.35043434 27.76218469 0.37300512 30.77509073 0.390625 33.7890625 C0.41127014 34.72054108 0.43191528 35.65201965 0.45318604 36.61172485 C0.45516346 42.3743891 -0.19392231 45.58936325 -4 50 C-4.33 50 -4.66 50 -5 50 C-5.62142561 45.31286425 -6.16834068 40.62193164 -6.67382812 35.92089844 C-6.90775114 33.82609679 -7.15840387 31.73313742 -7.41992188 29.64160156 C-7.86367335 26.03538124 -8.24808532 22.42626069 -8.625 18.8125 C-8.77952637 17.64291748 -8.93405273 16.47333496 -9.09326172 15.26831055 C-9.87222911 7.07611082 -9.87222911 7.07611082 -7.27246094 3.86865234 C-2.20553342 0 -2.20553342 0 0 0 Z " fill="#031C45" transform="translate(459,685)"/>
<path d="M0 0 C0.86625 0.495 0.86625 0.495 1.75 1 C4.19883862 2.27075898 4.19883862 2.27075898 8 2 C10.20067421 1.06716704 10.20067421 1.06716704 12 0 C14.0625 1.75 14.0625 1.75 16 4 C15.91773794 6.71464802 15.23959034 7.73165881 13.4375 9.75 C12.963125 10.1625 12.48875 10.575 12 11 C9.53199953 9.84826645 7.95216435 8.95216435 6 7 C4.68 8.32 3.36 9.64 2 11 C-0.62187494 9.95125002 -1.79371361 9.35068687 -3.25 6.875 C-3.4975 6.25625 -3.745 5.6375 -4 5 C-2.68 3.35 -1.36 1.7 0 0 Z " fill="#031C45" transform="translate(391,698)"/>
<path d="M0 0 C3.29279709 0.31865778 4.86535088 1.54515351 7 4 C5.60667426 7.36720387 4.0210714 8.9859524 1 11 C-0.65 9.35 -2.3 7.7 -4 6 C-2.84826645 3.53199953 -1.95216435 1.95216435 0 0 Z " fill="#031C45" transform="translate(369,739)"/>
</svg>
