<?xml version="1.0" encoding="UTF-8"?>
<svg version="1.1" xmlns="http://www.w3.org/2000/svg" width="600" height="423">
<path d="M0 0 C1.57160368 -0.00758144 3.14319394 -0.01859391 4.7147522 -0.03274536 C8.95281729 -0.06049453 13.18924395 -0.03843442 17.42721677 -0.00532293 C21.87881073 0.02253887 26.33031728 0.00943997 30.78196716 0.00241089 C38.25416223 -0.0029803 45.72571236 0.02384563 53.19775391 0.0703125 C61.81693632 0.12354464 70.43504178 0.1270159 79.05433232 0.10353577 C87.37264848 0.08192352 95.69057789 0.09439701 104.00886345 0.12264633 C107.53699913 0.13411535 111.0648494 0.13404114 114.59298897 0.12451553 C118.75250052 0.11491923 122.91084362 0.13540725 127.07013321 0.17842484 C128.5897687 0.18948417 130.10951738 0.19056169 131.62915993 0.1805191 C140.68710214 0.12819796 148.03572397 0.8124151 155.13061523 7.00341797 C159.88650521 12.90512994 161.24937733 17.80283411 161.27778625 25.33950806 C161.28851921 27.29499069 161.28851921 27.29499069 161.29946899 29.28997803 C161.30230911 30.73303199 161.30502086 32.17608621 161.30761719 33.61914062 C161.31388448 35.14043329 161.32053152 36.66172444 161.32752991 38.18301392 C161.34854465 43.17782531 161.35893128 48.17263692 161.36889648 53.16748047 C161.37294529 54.88963207 161.37706225 56.61178351 161.38124657 58.33393478 C161.40029418 66.42734024 161.41452495 74.52073662 161.42285854 82.61416018 C161.43262351 91.94271087 161.45892543 101.27102381 161.49935943 110.59949076 C161.52957055 117.81835362 161.54433222 125.03714853 161.54763955 132.25607336 C161.54998473 136.56342779 161.55887529 140.87052812 161.58410072 145.17781448 C161.60747356 149.23429606 161.61157799 153.29035789 161.60133934 157.3468895 C161.60084607 158.82948457 161.60710464 160.31210095 161.62089539 161.79463196 C161.69941142 170.74138193 161.7272031 179.92896186 155.38049793 186.93548012 C150.34496679 191.61456085 145.62028528 193.24541171 138.74346924 193.29534912 C136.80899933 193.31642982 136.80899933 193.31642982 134.83544922 193.3379364 C133.41333084 193.34349066 131.99121165 193.34883962 130.5690918 193.35400391 C129.06572783 193.36658215 127.56237066 193.37999555 126.059021 193.3941803 C121.98035904 193.43001863 117.90171345 193.45340483 113.82294941 193.47399807 C110.41364338 193.49242926 107.0043954 193.51716592 103.59513068 193.54196858 C95.54742814 193.60050979 87.49970813 193.64922796 79.4519043 193.69140625 C71.16249759 193.73498154 62.87328593 193.79304754 54.58402658 193.85865378 C47.45777014 193.91465353 40.33149184 193.96258723 33.20513511 194.00390267 C28.95322136 194.02857193 24.70137558 194.05601628 20.44953156 194.09081268 C16.4473465 194.12313181 12.44522767 194.14528583 8.44293976 194.15981865 C6.97926741 194.16676041 5.51560645 194.17715264 4.05198669 194.19137001 C-16.0744722 194.38107371 -16.0744722 194.38107371 -23.86938477 188.00341797 C-28.97781053 182.72471135 -31.11576287 178.83128433 -31.1368103 171.46405029 C-31.14134142 170.80882519 -31.14587253 170.15360009 -31.15054095 169.47851968 C-31.16319351 167.28459882 -31.16156405 165.09092594 -31.15991211 162.89697266 C-31.16589695 161.32317282 -31.17270239 159.74937592 -31.18026733 158.17558289 C-31.19794186 153.90060986 -31.2026234 149.6257169 -31.20389891 145.35071087 C-31.20532056 142.67850347 -31.20959048 140.00631642 -31.21489334 137.33411407 C-31.23340035 128.0075603 -31.24156335 118.68106371 -31.23999023 109.35449219 C-31.23878953 100.66803866 -31.25987606 91.98183389 -31.29147756 83.2954433 C-31.31765682 75.83286712 -31.3283568 68.37037209 -31.32707942 60.90775037 C-31.32657015 56.45292498 -31.33223344 51.99832051 -31.35343552 47.54354095 C-31.37284506 43.35080157 -31.37292399 39.15849317 -31.35840225 34.9657383 C-31.35631621 33.43070914 -31.36100286 31.89565282 -31.37312317 30.36067009 C-31.49565802 13.76097282 -31.49565802 13.76097282 -24.71434689 6.78722572 C-17.02029563 0.22234377 -9.64273338 -0.13362481 0 0 Z " fill="#522D1D" transform="translate(234.869384765625,-1.00341796875)"/>
<path d="M0 0 C0.33 0 0.66 0 1 0 C1.09285808 10.42284578 1.16384514 20.84559244 1.20724869 31.26876831 C1.22808485 36.10917823 1.25632966 40.94930423 1.30175781 45.78955078 C1.34535758 50.46447524 1.36916696 55.13912734 1.37950897 59.8142395 C1.38687504 61.59396652 1.40125922 63.37367936 1.42292023 65.15328979 C1.45214278 67.65459906 1.45594825 70.15479632 1.45410156 72.65625 C1.47567322 73.74922142 1.47567322 73.74922142 1.49768066 74.86427307 C1.45026865 80.83571239 -0.28301489 86.12180983 -4.44744492 90.5333252 C-9.34779528 94.76807132 -12.81274845 96.24810892 -19.24911499 96.26742554 C-20.53330826 96.27595551 -21.81750153 96.28448547 -23.14060974 96.29327393 C-24.56167615 96.29257492 -25.98274246 96.29165186 -27.40380859 96.29052734 C-28.9020369 96.29651243 -30.40026212 96.30331793 -31.89848328 96.31088257 C-35.96671784 96.32855178 -40.03486827 96.33323833 -44.10313749 96.33451414 C-46.64534219 96.33593577 -49.1875255 96.34020558 -51.72972488 96.34550858 C-60.60010384 96.36401183 -69.47042269 96.37217881 -78.34082031 96.37060547 C-86.60697123 96.36940395 -94.87286108 96.39050742 -103.13894594 96.4220928 C-110.23801252 96.44825143 -117.33699382 96.45897294 -124.43610823 96.45769465 C-128.67513367 96.4571849 -132.91392711 96.46287534 -137.15290451 96.48405075 C-141.140451 96.50342634 -145.12754402 96.50356255 -149.11510658 96.48901749 C-150.57679851 96.48692743 -152.03851876 96.49164214 -153.50016212 96.5037384 C-155.49902319 96.51920635 -157.49803908 96.50747688 -159.49691772 96.49447632 C-161.17324059 96.49611062 -161.17324059 96.49611062 -162.88342857 96.49777794 C-168.09074501 95.66606678 -171.88029289 92.56866821 -175.25 88.625 C-175.72953125 88.08101563 -176.2090625 87.53703125 -176.703125 86.9765625 C-180.11146084 81.78193016 -180.31864821 76.4417219 -180.3359375 70.4453125 C-180.3425943 69.62610321 -180.3492511 68.80689392 -180.35610962 67.96286011 C-180.36620516 66.22982003 -180.3709276 64.49674133 -180.37060547 62.76367188 C-180.37492959 60.16727625 -180.41114277 57.57265233 -180.44921875 54.9765625 C-180.54763082 40.51145695 -179.25077284 25.82846215 -170 14 C-165.06766281 9.06766281 -159.78119283 6.8322807 -152.89453125 6.734375 C-147.1007701 6.80924468 -142.23834661 8.05807466 -136.8125 10 C-135.89597656 10.31904297 -134.97945312 10.63808594 -134.03515625 10.96679688 C-125.62501582 13.97964746 -117.86205442 17.79337689 -110 22 C-77.65575007 41.1077806 -77.65575007 41.1077806 -41.5625 41.375 C-22.57123484 33.95491553 -11.61010923 19.45994656 -1.53125 2.421875 C-0.77328125 1.22304687 -0.77328125 1.22304687 0 0 Z " fill="#522D1D" transform="translate(389,90)"/>
<path d="M0 0 C1.57160368 -0.00758144 3.14319394 -0.01859391 4.7147522 -0.03274536 C8.95281729 -0.06049453 13.18924395 -0.03843442 17.42721677 -0.00532293 C21.87881073 0.02253887 26.33031728 0.00943997 30.78196716 0.00241089 C38.25416223 -0.0029803 45.72571236 0.02384563 53.19775391 0.0703125 C61.81693632 0.12354464 70.43504178 0.1270159 79.05433232 0.10353577 C87.37264848 0.08192352 95.69057789 0.09439701 104.00886345 0.12264633 C107.53699913 0.13411535 111.0648494 0.13404114 114.59298897 0.12451553 C118.75250052 0.11491923 122.91084362 0.13540725 127.07013321 0.17842484 C128.5897687 0.18948417 130.10951738 0.19056169 131.62915993 0.1805191 C140.68710214 0.12819796 148.03572397 0.8124151 155.13061523 7.00341797 C159.88650521 12.90512994 161.24937733 17.80283411 161.27778625 25.33950806 C161.28851921 27.29499069 161.28851921 27.29499069 161.29946899 29.28997803 C161.30230911 30.73303199 161.30502086 32.17608621 161.30761719 33.61914062 C161.31388448 35.14043329 161.32053152 36.66172444 161.32752991 38.18301392 C161.34854465 43.17782531 161.35893128 48.17263692 161.36889648 53.16748047 C161.37294529 54.88963207 161.37706225 56.61178351 161.38124657 58.33393478 C161.40029418 66.42734024 161.41452495 74.52073662 161.42285854 82.61416018 C161.43262351 91.94271087 161.45892543 101.27102381 161.49935943 110.59949076 C161.52957055 117.81835362 161.54433222 125.03714853 161.54763955 132.25607336 C161.54998473 136.56342779 161.55887529 140.87052812 161.58410072 145.17781448 C161.60747356 149.23429606 161.61157799 153.29035789 161.60133934 157.3468895 C161.60084607 158.82948457 161.60710464 160.31210095 161.62089539 161.79463196 C161.69941142 170.74138193 161.7272031 179.92896186 155.38049793 186.93548012 C150.34496679 191.61456085 145.62028528 193.24541171 138.74346924 193.29534912 C136.80899933 193.31642982 136.80899933 193.31642982 134.83544922 193.3379364 C133.41333084 193.34349066 131.99121165 193.34883962 130.5690918 193.35400391 C129.06572783 193.36658215 127.56237066 193.37999555 126.059021 193.3941803 C121.98035904 193.43001863 117.90171345 193.45340483 113.82294941 193.47399807 C110.41364338 193.49242926 107.0043954 193.51716592 103.59513068 193.54196858 C95.54742814 193.60050979 87.49970813 193.64922796 79.4519043 193.69140625 C71.16249759 193.73498154 62.87328593 193.79304754 54.58402658 193.85865378 C47.45777014 193.91465353 40.33149184 193.96258723 33.20513511 194.00390267 C28.95322136 194.02857193 24.70137558 194.05601628 20.44953156 194.09081268 C16.4473465 194.12313181 12.44522767 194.14528583 8.44293976 194.15981865 C6.97926741 194.16676041 5.51560645 194.17715264 4.05198669 194.19137001 C-16.0744722 194.38107371 -16.0744722 194.38107371 -23.86938477 188.00341797 C-28.97781053 182.72471135 -31.11576287 178.83128433 -31.1368103 171.46405029 C-31.14134142 170.80882519 -31.14587253 170.15360009 -31.15054095 169.47851968 C-31.16319351 167.28459882 -31.16156405 165.09092594 -31.15991211 162.89697266 C-31.16589695 161.32317282 -31.17270239 159.74937592 -31.18026733 158.17558289 C-31.19794186 153.90060986 -31.2026234 149.6257169 -31.20389891 145.35071087 C-31.20532056 142.67850347 -31.20959048 140.00631642 -31.21489334 137.33411407 C-31.23340035 128.0075603 -31.24156335 118.68106371 -31.23999023 109.35449219 C-31.23878953 100.66803866 -31.25987606 91.98183389 -31.29147756 83.2954433 C-31.31765682 75.83286712 -31.3283568 68.37037209 -31.32707942 60.90775037 C-31.32657015 56.45292498 -31.33223344 51.99832051 -31.35343552 47.54354095 C-31.37284506 43.35080157 -31.37292399 39.15849317 -31.35840225 34.9657383 C-31.35631621 33.43070914 -31.36100286 31.89565282 -31.37312317 30.36067009 C-31.49565802 13.76097282 -31.49565802 13.76097282 -24.71434689 6.78722572 C-17.02029563 0.22234377 -9.64273338 -0.13362481 0 0 Z M-21.53415203 15.17446136 C-25.18406871 20.68653308 -26.01449571 25.22023029 -25.98291016 31.77954102 C-25.98305618 32.57001831 -25.98320221 33.36049561 -25.98335266 34.17492676 C-25.98265586 36.78835797 -25.97487432 39.40171795 -25.96704102 42.01513672 C-25.96517601 43.82688864 -25.9637525 45.63864107 -25.9627533 47.45039368 C-25.95893462 52.21958813 -25.94910985 56.98875215 -25.93804932 61.75793457 C-25.92782126 66.62426339 -25.92325268 71.49059712 -25.91821289 76.35693359 C-25.90748702 85.90577509 -25.89041836 95.454594 -25.86938477 105.00341797 C-22.74646387 101.9857731 -20.69806392 99.20278398 -18.61938477 95.37841797 C-14.08255594 87.40489263 -8.62472733 80.2391188 -1.86938477 74.00341797 C-1.39500977 73.53548828 -0.92063477 73.06755859 -0.43188477 72.58544922 C6.7874303 65.83469547 16.27962945 61.10880911 26.13061523 60.00341797 C27.48799805 59.81005859 27.48799805 59.81005859 28.87280273 59.61279297 C48.25693327 58.13308835 68.40362 72.54119518 84.73901367 81.42138672 C109.28128089 95.50665463 109.28128089 95.50665463 136.58374023 96.28466797 C144.76550582 92.41238197 148.78651386 86.15593383 152.13061523 78.00341797 C155.63862496 67.50588285 155.62583078 56.98677741 155.57666016 46.03564453 C155.56806917 43.1127454 155.59713788 40.19175416 155.62866211 37.26904297 C155.63027264 35.39143938 155.62969942 33.51383237 155.62670898 31.63623047 C155.64355995 30.34073776 155.64355995 30.34073776 155.66075134 29.01907349 C155.58428386 22.34797294 153.96835401 18.07141187 149.34936523 13.07763672 C148.78217773 12.62001953 148.21499023 12.16240234 147.63061523 11.69091797 C147.06342773 11.22041016 146.49624023 10.74990234 145.91186523 10.26513672 C141.86679329 7.39987743 138.96557762 6.74955693 133.97761536 6.72253418 C132.08307114 6.70540375 132.08307114 6.70540375 130.1502533 6.68792725 C128.75283853 6.68543667 127.35542332 6.68318645 125.95800781 6.68115234 C124.48434962 6.67189216 123.0106962 6.66184231 121.53704834 6.65106201 C117.53474423 6.6248428 113.53250718 6.61192932 109.53013062 6.6030407 C107.0274346 6.59717333 104.52475678 6.58896252 102.02206993 6.58003235 C94.18548761 6.55268731 86.34894706 6.53335279 78.51232034 6.52562857 C69.47791593 6.51667401 60.44411775 6.48160839 51.40989763 6.42362738 C44.41948811 6.38032729 37.42924871 6.36021643 30.43870658 6.35754633 C26.26707016 6.35545453 22.09600379 6.34373386 17.92450905 6.3079071 C13.99671404 6.27482976 10.06991389 6.27068835 6.14202881 6.28818512 C4.7057649 6.28971993 3.26944626 6.28111827 1.83331871 6.26126862 C-7.87918584 6.13497111 -15.3409454 7.09782468 -21.53415203 15.17446136 Z M154.13061523 91.00341797 C153.31360559 92.22337324 152.54455706 93.47546313 151.79467773 94.73779297 C140.6971306 113.08950049 129.5028774 126.82614565 108.32983398 133.57763672 C84.02503956 138.28318306 62.09724501 122.61653382 41.59545898 111.64697266 C33.70534705 107.42626396 25.77842585 103.9484628 17.31811523 101.00341797 C16.46991211 100.69984375 15.62170898 100.39626953 14.74780273 100.08349609 C7.57251796 97.71219281 0.46615538 96.84875427 -6.92016602 98.81591797 C-15.53253706 103.33778463 -19.46913773 109.20630483 -23.01000977 118.12060547 C-25.97191314 128.05644496 -26.24191022 137.62432577 -26.23999023 147.92602539 C-26.24438124 150.56379965 -26.28084465 153.19992077 -26.31860352 155.83740234 C-26.4396098 169.6333413 -26.4396098 169.6333413 -19.79907227 181.37841797 C-19.12102539 181.91466797 -18.44297852 182.45091797 -17.74438477 183.00341797 C-17.06118164 183.56029297 -16.37797852 184.11716797 -15.67407227 184.69091797 C-12.28023855 187.15916067 -10.0472423 187.13648264 -5.87423706 187.15731812 C-4.59568344 187.16591858 -3.31712982 187.17451904 -1.99983215 187.18338013 C-0.57467692 187.18781557 0.85047875 187.19211391 2.27563477 187.19628906 C3.77032157 187.20418921 5.26500646 187.2124581 6.75968933 187.22106934 C11.67758356 187.2473068 16.59548636 187.26260196 21.51342773 187.27685547 C23.20652141 187.28221506 24.89961503 187.28759257 26.59270859 187.29298782 C33.6373146 187.314622 40.68191831 187.33335728 47.72654915 187.34461021 C57.81959851 187.3608385 67.9122622 187.39398264 78.00516617 187.45101106 C85.10251275 187.48974395 92.19975633 187.50924705 99.29720581 187.51453078 C103.53528882 187.51818062 107.77296065 187.53016173 112.01092911 187.56263351 C116.00178232 187.59277219 119.99197687 187.59900569 123.98291969 187.58724976 C125.44378811 187.58702948 126.90468758 187.59529662 128.36544991 187.61290359 C136.49798165 187.70555108 142.88545965 187.64873626 149.13061523 182.00341797 C154.38541951 176.47204504 155.43023398 171.46270103 155.35766602 164.00024414 C155.35795807 163.20947479 155.35825012 162.41870544 155.35855103 161.60397339 C155.35716244 159.00133122 155.34162352 156.39897861 155.32592773 153.79638672 C155.32219593 151.98749447 155.31934975 150.1786002 155.31735229 148.3697052 C155.30972904 143.6169371 155.29009177 138.86429192 155.26794434 134.11157227 C155.24745774 129.25848045 155.23834456 124.40536872 155.22827148 119.55224609 C155.20684465 110.03591615 155.17272448 100.5196773 155.13061523 91.00341797 C154.80061523 91.00341797 154.47061523 91.00341797 154.13061523 91.00341797 Z " fill="#CD9B29" transform="translate(234.869384765625,-1.00341796875)"/>
<path d="M0 0 C-0.44459577 5.77974504 -2.04651118 10.72637185 -6 15 C-11.10533946 17.63789041 -16.44477454 19.23776274 -21.9375 20.875 C-24.12706285 21.56112584 -26.31345169 22.25656922 -28.49916077 22.9548645 C-29.85306462 23.38377776 -31.20975938 23.80401793 -32.56956482 24.21383667 C-36.61032462 25.45022042 -40.27179243 27.01444513 -44 29 C-43.566875 29.48210937 -43.13375 29.96421875 -42.6875 30.4609375 C-42.130625 31.09257812 -41.57375 31.72421875 -41 32.375 C-40.1646875 33.31472656 -40.1646875 33.31472656 -39.3125 34.2734375 C-38 36 -38 36 -38 38 C-37.44828125 38.22300781 -36.8965625 38.44601562 -36.328125 38.67578125 C-33.2694324 40.41554097 -31.1926188 42.65764482 -28.75 45.1875 C-24.33869906 49.69094681 -19.82425885 53.94364752 -15 58 C-14.14664063 58.75410156 -13.29328125 59.50820313 -12.4140625 60.28515625 C-4.00356459 67.52949269 3.02094457 71.64102136 14.3046875 71.20703125 C18.222706 70.906082 22.10322066 70.51105303 26 70 C23.38130002 63.21331787 23.38130002 63.21331787 20.1875 56.6875 C18.74643439 53.42614099 19.00063217 52.37410327 20 49 C21.55859375 46.32421875 21.55859375 46.32421875 23.4375 43.6875 C24.36369141 42.36298828 24.36369141 42.36298828 25.30859375 41.01171875 C25.86675781 40.34785156 26.42492187 39.68398438 27 39 C27.66 39 28.32 39 29 39 C30.15082685 41.24756784 31.29576858 43.49781748 32.4375 45.75 C32.76298828 46.38421875 33.08847656 47.0184375 33.42382812 47.671875 C37.58066005 55.89983098 38.80999254 64.91258114 36.12890625 73.9296875 C33.09942812 80.46541408 29.20319381 85.32509095 22.421875 88.02734375 C12.26170241 91.10661393 2.99317387 90.68978727 -7 87 C-12.85580484 83.55930111 -17.31255415 77.60402105 -21 72 C-21 71.34 -21 70.68 -21 70 C-21.66 70 -22.32 70 -23 70 C-23.20625 70.845625 -23.4125 71.69125 -23.625 72.5625 C-26.30149721 79.25374303 -30.33119231 83.04853739 -36.765625 86.11669922 C-40.48783344 87.58817542 -44.23735093 88.20310596 -48.1875 88.75 C-49.43696411 88.93212036 -49.43696411 88.93212036 -50.71166992 89.11791992 C-64.43185616 90.99890252 -81.92086789 91.92848384 -94 84 C-99.42798056 79.51653588 -102.01068098 73.90602308 -103 67 C-103.14294818 59.15691004 -101.83871042 52.28190934 -99 45 C-97.35 45.33 -95.7 45.66 -94 46 C-93.96132813 47.41152344 -93.96132813 47.41152344 -93.921875 48.8515625 C-93.80905915 58.31248742 -93.80905915 58.31248742 -89 66 C-77.03918486 74.00971441 -60.47246644 72.63057283 -47 70 C-42.57796913 68.93636758 -38.27313854 67.55524124 -34 66 C-34 60.11989393 -39.69211994 55.35464283 -43.63867188 51.328125 C-45.97063157 49.0195629 -48.30752849 46.71951099 -50.6940918 44.46728516 C-55.21104888 40.11851621 -56.12966668 37.29798191 -56.3125 31.1875 C-56.20594948 26.35010625 -55.58483373 22.46456626 -52 19 C-44.09547742 14.20828775 -35.33130227 11.06353718 -26.66186523 7.95751953 C-24.66954017 7.24356404 -22.68125349 6.51916013 -20.69335938 5.79296875 C-4.7334854 0 -4.7334854 0 0 0 Z " fill="#522D1D" transform="translate(407,239)"/>
<path d="M0 0 C1.46484375 6.34765625 2.9296875 12.6953125 4.39453125 19.04296875 C4.79309326 20.75540771 4.79309326 20.75540771 5.19970703 22.50244141 C5.74396746 24.88104877 6.27034412 27.26380379 6.78076172 29.64990234 C7.03229004 30.80828613 7.28381836 31.96666992 7.54296875 33.16015625 C7.87397583 34.72648804 7.87397583 34.72648804 8.21166992 36.32446289 C9.3477008 40.18007217 10.73570465 41.71499326 14 44 C19.41065894 45.80355298 24.81396897 45.47689767 30.08984375 43.3828125 C33.45056309 40.94989911 34.78264867 37.26965193 36.5546875 33.609375 C38.54215319 30.02119369 40.34288591 28.74544081 44 27 C44.66 27 45.32 27 46 27 C45.96519531 27.90363281 45.93039063 28.80726563 45.89453125 29.73828125 C45.85392578 31.50751953 45.85392578 31.50751953 45.8125 33.3125 C45.77769531 34.48425781 45.74289063 35.65601563 45.70703125 36.86328125 C45.729449 39.94942525 45.729449 39.94942525 47.3203125 41.84375 C53.41354529 46.03816141 61.63993062 45.74817759 68.640625 44.546875 C70.77584258 44.07685855 72.88974719 43.57088965 75 43 C73.17770411 36.91062034 73.17770411 36.91062034 70.25 31.3125 C69 29 69 29 68.9375 26.25 C70.44298483 21.64498759 72.86907809 17.69947241 76 14 C76.99 13.67 77.98 13.34 79 13 C85.12819839 24.73607804 89.78067022 35.52751834 85.8125 48.875 C83.77816754 54.122437 81.06981485 57.6828451 76.25 60.75 C66.53535323 64.4864026 55.95435388 65.63961751 46 62 C44.01953125 60.71875 44.01953125 60.71875 42.1875 59.3125 C39.38553894 56.74000393 39.38553894 56.74000393 37.02734375 57.19921875 C34.8569096 58.05651933 33.25526219 59.1238081 31.375 60.5 C26.0039646 63.92789643 20.87133202 64.55033641 14.609375 63.66015625 C8.21054061 61.99515342 4.84499899 58.20496648 1 53 C0.5875 53.47050781 0.175 53.94101562 -0.25 54.42578125 C-5.44401872 60.02558269 -9.55352417 62.564071 -17.1875 63.3125 C-22.19404845 63.49455631 -25.99029012 63.43521978 -30.625 61.4375 C-34.48647137 57.47441096 -36.15176753 53.2784981 -36.29296875 47.81640625 C-36.27336134 46.39813727 -36.23807877 44.98000243 -36.1875 43.5625 C-36.17396484 42.83095703 -36.16042969 42.09941406 -36.14648438 41.34570312 C-36.11153874 39.56347578 -36.05774805 37.78163427 -36 36 C-33.1484375 35.75390625 -33.1484375 35.75390625 -30 36 C-28.6015625 37.71484375 -28.6015625 37.71484375 -27.625 39.9375 C-25.63560629 43.5108059 -25.40932122 43.87038161 -21.25 45.1875 C-17.23427287 45.31679424 -13.79692403 44.22039882 -10.078125 42.7890625 C-8.06905133 42.02621874 -6.09238382 41.48068277 -4 41 C-5.03620295 32.79218193 -6.68858151 25.14823812 -9.29296875 17.2890625 C-10.26768774 12.75473439 -9.9472451 8.99660957 -7.94921875 4.78515625 C-7.32466797 3.93244141 -7.32466797 3.93244141 -6.6875 3.0625 C-6.27886719 2.47597656 -5.87023437 1.88945312 -5.44921875 1.28515625 C-4 0 -4 0 0 0 Z " fill="#522D1D" transform="translate(184,265)"/>
<path d="M0 0 C0.87903791 6.83656967 1.16112419 13.53334633 1.2109375 20.421875 C1.23897636 22.60287247 1.26764055 24.78386198 1.296875 26.96484375 C1.33827046 30.3706057 1.37520139 33.77621376 1.40136719 37.18212891 C1.42893351 40.49151352 1.47476361 43.80024258 1.5234375 47.109375 C1.52669037 48.12715027 1.52994324 49.14492554 1.53329468 50.19354248 C1.58831852 57.12002022 1.58831852 57.12002022 5 63 C13.21832085 65.48460863 21.80708618 63.68677638 30 62 C28.92766135 58.42553783 27.63586391 55.29912867 25.8125 52.0625 C23.75218341 47.96519117 23.55993963 45.48018782 25 41 C26.81438791 38.16595607 28.82280931 35.56335906 31 33 C32.8359375 33.16015625 32.8359375 33.16015625 35 34 C40.97098107 44.01211467 43.17570556 55.60002208 41 67 C38.82537476 72.87148814 35.3654463 76.6483164 29.9375 79.75 C24.43071439 82.09331302 19.54163613 82.21392295 13.625 82.25 C12.78710938 82.270625 11.94921875 82.29125 11.0859375 82.3125 C4.37877375 82.35468342 0.17818012 81.12867603 -4.75 76.3125 C-9.12935397 70.62281729 -9.3216302 63.19727982 -9.59765625 56.28515625 C-9.63684677 55.47114853 -9.67603729 54.65714081 -9.71641541 53.81846619 C-9.83932859 51.23342939 -9.95128514 48.64806385 -10.0625 46.0625 C-10.17931396 43.51906433 -10.29840548 40.97574723 -10.41850281 38.4324646 C-10.49605714 36.75556648 -10.56998114 35.07849639 -10.64021301 33.40127563 C-10.81653289 29.30097805 -11.04968431 25.22046687 -11.41479492 21.13232422 C-11.47835678 20.36093613 -11.54191864 19.58954803 -11.60740662 18.79478455 C-11.72987824 17.34931955 -11.86871588 15.90510683 -12.02723694 14.46315002 C-12.31452958 10.92545175 -12.12221507 9.19930694 -10.24438477 6.13696289 C-7.43745963 3.22075924 -4.24871661 0 0 0 Z " fill="#522D1D" transform="translate(458,246)"/>
<path d="M0 0 C6.21885338 0.90537006 11.19221003 6.22695748 16 10 C16.71414062 10.54398437 17.42828125 11.08796875 18.1640625 11.6484375 C23.32463943 15.76325875 26.90552264 20.71656791 29 27 C29.66729693 36.98378861 29.59276394 45.85697305 23.125 53.875 C18.78107159 58.51999275 14.52277184 60.74486889 8.1953125 61.203125 C-2.40129611 61.36490528 -2.40129611 61.36490528 -7 58 C-13.15349421 51.56680151 -14.42074358 46.56131105 -14.36132812 37.79541016 C-14.11004796 28.84247101 -10.58577499 22.82359554 -5.875 15.4375 C-2.55120134 10.22321363 -0.82801141 6.10658417 0 0 Z M4 21 C2.68485396 22.45594755 1.37296283 23.91483579 0.0625 25.375 C-0.66839844 26.18710937 -1.39929688 26.99921875 -2.15234375 27.8359375 C-4.30701168 30.35958662 -4.92663744 31.52838352 -5.4375 34.8125 C-5.25246819 38.19138635 -5.25246819 38.19138635 -2.6875 40.875 C1.06648443 43.62377059 4.76950166 43.64214521 9.30078125 43.42578125 C13.41514169 42.77677215 15.71381956 41.57179339 19 39 C19.88451758 37.09214396 19.88451758 37.09214396 20 35 C16.33442043 28.06158153 10.67201737 24.84429722 4 21 Z " fill="#522D1D" transform="translate(114,267)"/>
<path d="M0 0 C8 0 8 0 10 1 C11.05322266 3.31665039 11.05322266 3.31665039 12.1640625 6.34765625 C12.56367188 7.42724609 12.96328125 8.50683594 13.375 9.61914062 C13.99375 11.32360352 13.99375 11.32360352 14.625 13.0625 C15.25535156 14.77276367 15.25535156 14.77276367 15.8984375 16.51757812 C16.93865595 19.34271688 17.97014167 22.17106818 19 25 C19.33 16.75 19.66 8.5 20 0 C23.3 0 26.6 0 30 0 C30.02526563 7.81452752 30.04283105 15.62904458 30.05493164 23.44360352 C30.05997383 26.10441481 30.06680736 28.76522332 30.07543945 31.42602539 C30.08751009 35.24105516 30.09322929 39.05604844 30.09765625 42.87109375 C30.10281754 44.06899033 30.10797882 45.2668869 30.11329651 46.50108337 C30.11340981 48.15268211 30.11340981 48.15268211 30.11352539 49.83764648 C30.115746 50.81249496 30.11796661 51.78734344 30.12025452 52.79173279 C30 55 30 55 29 56 C26.32941149 56.14115161 23.67567762 56.04247107 21 56 C16.83982496 48.31967686 13.98141911 40.18896449 11 32 C9.76939579 34.46120841 9.7942277 36.25776866 9.68359375 39.0078125 C9.64169922 39.99394531 9.59980469 40.98007812 9.55664062 41.99609375 C9.51732422 43.02863281 9.47800781 44.06117188 9.4375 45.125 C9.39431641 46.16527344 9.35113281 47.20554687 9.30664062 48.27734375 C9.2003712 50.85142528 9.09833417 53.42560508 9 56 C6.03 56 3.06 56 0 56 C0 37.52 0 19.04 0 0 Z " fill="#522D1D" transform="translate(199,367)"/>
<path d="M0 0 C2.97 0 5.94 0 9 0 C13.55240089 8.37964058 16.74080824 17.05617145 20 26 C20.33 17.42 20.66 8.84 21 0 C23.97 0 26.94 0 30 0 C30 18.48 30 36.96 30 56 C27.36 56 24.72 56 22 56 C20.26171875 54.17578125 20.26171875 54.17578125 19 51 C18.52167725 49.82123291 18.52167725 49.82123291 18.03369141 48.61865234 C16.91874582 45.82193397 15.86091543 43.00989061 14.8125 40.1875 C13.554375 36.825625 12.29625 33.46375 11 30 C10.67 38.58 10.34 47.16 10 56 C6.7 56 3.4 56 0 56 C0 37.52 0 19.04 0 0 Z " fill="#522D1D" transform="translate(431,367)"/>
<path d="M0 0 C17.7 0 17.7 0 23 3 C26.89573532 7.09551662 27.73858373 11.12436264 28.1171875 16.59765625 C27.95521152 19.91816389 26.7110515 22.19387555 25 25 C24.7226499 28.18490007 24.7226499 28.18490007 27 31 C28.657337 38.5248446 28.26169396 45.14674362 24.3125 51.875 C17.68628914 57.96395052 8.29415216 56 0 56 C0 37.52 0 19.04 0 0 Z M9 9 C9 13.62 9 18.24 9 23 C14.01535052 22.67039784 14.01535052 22.67039784 18 20 C18.35609192 17.86181539 18.35609192 17.86181539 18.3125 15.5 C18.32925781 14.7059375 18.34601563 13.911875 18.36328125 13.09375 C18.24339844 12.4028125 18.12351562 11.711875 18 11 C14.76887492 8.4452998 14.76887492 8.4452998 9 9 Z M9 31 C9 36.28 9 41.56 9 47 C14.51452872 47.52758544 14.51452872 47.52758544 16.85546875 45.84765625 C18.4352841 43.29730587 18.36409757 41.41825165 18.3125 38.4375 C18.30863281 37.46683594 18.30476563 36.49617188 18.30078125 35.49609375 C18.23989886 32.82827665 18.23989886 32.82827665 16 31 C13.69 31 11.38 31 9 31 Z " fill="#522D1D" transform="translate(362,367)"/>
<path d="M0 0 C2.97 0 5.94 0 9 0 C9.33 6.27 9.66 12.54 10 19 C13.3 12.73 16.6 6.46 20 0 C22.97 0 25.94 0 29 0 C28.32820906 5.58019892 25.45283272 10.05525051 22.70703125 14.85351562 C20.06051654 19.80980214 19.45261483 23.5131282 21 29 C22.41430558 33.342084 23.99909684 37.60823594 25.625 41.875 C26.47822565 44.11979607 27.32494821 46.36707848 28.1640625 48.6171875 C28.53998535 49.60315918 28.9159082 50.58913086 29.30322266 51.60498047 C30 54 30 54 29 56 C26.03 56 23.06 56 20 56 C17.76975295 50.20135768 15.77630428 44.35374852 13.8671875 38.44140625 C13.22644161 36.08322698 13.22644161 36.08322698 12 35 C9.53283162 38.8056322 9.59748027 42.79779741 9.4375 47.1875 C9.12123631 54.87876369 9.12123631 54.87876369 8 56 C6.48071962 56.07179964 4.95832518 56.08392007 3.4375 56.0625 C2.61121094 56.05347656 1.78492188 56.04445313 0.93359375 56.03515625 C0.29550781 56.02355469 -0.34257812 56.01195312 -1 56 C-1.02531347 48.50692464 -1.04285144 41.01386027 -1.05493164 33.52075195 C-1.05996662 30.97061755 -1.06679496 28.42048605 -1.07543945 25.87036133 C-1.08754149 22.20913988 -1.09323661 18.54795652 -1.09765625 14.88671875 C-1.10281754 13.7428923 -1.10797882 12.59906586 -1.11329651 11.420578 C-1.11337204 10.35970474 -1.11344757 9.29883148 -1.11352539 8.20581055 C-1.115746 7.27093307 -1.11796661 6.3360556 -1.12025452 5.37284851 C-1 3 -1 3 0 0 Z " fill="#522D1D" transform="translate(470,367)"/>
<path d="M0 0 C3.14635055 1.33887258 4.82916459 2.57403582 6.9375 5.25 C8.21192926 9.07328777 8.11945319 12.69411918 8.140625 16.6796875 C8.14632507 17.507034 8.15202515 18.33438049 8.15789795 19.1867981 C8.16734023 20.93685632 8.17387887 22.68693227 8.17773438 24.43701172 C8.18743847 27.10806431 8.21846785 29.77834675 8.25 32.44921875 C8.25653058 34.15103711 8.26178084 35.85286096 8.265625 37.5546875 C8.2779718 38.35067352 8.2903186 39.14665955 8.30303955 39.96676636 C8.28461176 44.57649564 7.85871057 47.47029299 4.9375 51.25 C0.21203111 55.66043763 -5.10665824 55.38798293 -11.3125 55.375 C-12.55515625 55.37757813 -13.7978125 55.38015625 -15.078125 55.3828125 C-18.0625 55.25 -18.0625 55.25 -19.0625 54.25 C-19.15603163 52.56198015 -19.17994791 50.87004793 -19.17602539 49.17944336 C-19.17594986 48.09839828 -19.17587433 47.01735321 -19.17579651 45.90354919 C-19.17063522 44.7275264 -19.16547394 43.5515036 -19.16015625 42.33984375 C-19.1587413 41.14267227 -19.15732635 39.94550079 -19.15586853 38.71205139 C-19.15024979 34.87050934 -19.13769411 31.02902457 -19.125 27.1875 C-19.11998741 24.59049563 -19.11542409 21.99349035 -19.11132812 19.39648438 C-19.10027427 13.01430321 -19.08351792 6.6321557 -19.0625 0.25 C-13.9248733 -2.31881335 -5.50390137 -1.35794946 0 0 Z M-10.0625 8.25 C-10.0625 20.79 -10.0625 33.33 -10.0625 46.25 C-7.7525 46.25 -5.4425 46.25 -3.0625 46.25 C0.24529288 41.28831068 -0.72973235 35.32850234 -0.74682617 29.51660156 C-0.74998883 27.25797402 -0.72651196 25.00065336 -0.70117188 22.7421875 C-0.69889906 21.30729332 -0.6981953 19.87239562 -0.69921875 18.4375 C-0.69623779 17.13167969 -0.69325684 15.82585937 -0.69018555 14.48046875 C-0.83067474 11.34250915 -0.83067474 11.34250915 -2.21020508 9.30078125 C-4.57735993 7.75657963 -4.57735993 7.75657963 -10.0625 8.25 Z " fill="#522D1D" transform="translate(256.0625,367.75)"/>
<path d="M0 0 C2.64 0 5.28 0 8 0 C9 1 9 1 9.11352539 3.22485352 C9.10828857 4.18319092 9.10305176 5.14152832 9.09765625 6.12890625 C9.09443359 7.16337891 9.09121094 8.19785156 9.08789062 9.26367188 C9.07951172 10.35228516 9.07113281 11.44089844 9.0625 12.5625 C9.05798828 13.65498047 9.05347656 14.74746094 9.04882812 15.87304688 C9.03699826 18.58208495 9.02051543 21.29101599 9 24 C11.97 24 14.94 24 18 24 C17.99214478 22.9627478 17.99214478 22.9627478 17.98413086 21.90454102 C17.963425 18.79053648 17.95036037 15.67654639 17.9375 12.5625 C17.92912109 11.47388672 17.92074219 10.38527344 17.91210938 9.26367188 C17.90727539 7.71196289 17.90727539 7.71196289 17.90234375 6.12890625 C17.89448853 4.69140015 17.89448853 4.69140015 17.88647461 3.22485352 C18 1 18 1 19 0 C21.64 0 24.28 0 27 0 C27 18.48 27 36.96 27 56 C24.03 56 21.06 56 18 56 C18 48.08 18 40.16 18 32 C15.03 32 12.06 32 9 32 C9.00523682 32.69150146 9.01047363 33.38300293 9.01586914 34.09545898 C9.036575 37.20946352 9.04963963 40.32345361 9.0625 43.4375 C9.07087891 44.52611328 9.07925781 45.61472656 9.08789062 46.73632812 C9.09111328 47.77080078 9.09433594 48.80527344 9.09765625 49.87109375 C9.10289307 50.82943115 9.10812988 51.78776855 9.11352539 52.77514648 C9 55 9 55 8 56 C5.36 56 2.72 56 0 56 C0 37.52 0 19.04 0 0 Z " fill="#522D1D" transform="translate(307,367)"/>
<path d="M0 0 C2.64 0 5.28 0 8 0 C9.36130311 3.24405262 10.43148892 6.39533527 11.23681641 9.81860352 C11.56693222 11.2101339 11.56693222 11.2101339 11.90371704 12.629776 C12.24915054 14.11434547 12.24915054 14.11434547 12.6015625 15.62890625 C12.8428891 16.65555893 13.0842157 17.68221161 13.33285522 18.73997498 C13.84071809 20.90553869 14.34658456 23.07157144 14.85058594 25.23803711 C15.62333796 28.55536508 16.40500378 31.87050558 17.1875 35.18554688 C17.68022625 37.29154069 18.17243154 39.39765648 18.6640625 41.50390625 C18.89839996 42.49564346 19.13273743 43.48738068 19.37417603 44.50917053 C19.58794891 45.43370529 19.8017218 46.35824005 20.02197266 47.31079102 C20.21135406 48.1217775 20.40073547 48.93276398 20.59585571 49.76832581 C21 52 21 52 21 56 C18.03 56 15.06 56 12 56 C10.72746564 52.35206816 9.67170806 48.8063457 9 45 C6.03 45 3.06 45 0 45 C-0.28875 46.44375 -0.5775 47.8875 -0.875 49.375 C-1.75 53.75 -1.75 53.75 -4 56 C-6.68839385 56.26991906 -9.29141936 56.08737357 -12 56 C-11.3770411 49.10406196 -10.10983197 42.56768158 -8.49609375 35.83984375 C-8.2533522 34.80936417 -8.01061066 33.77888458 -7.76051331 32.71717834 C-6.9911327 29.45608977 -6.21444034 26.19679483 -5.4375 22.9375 C-4.91162356 20.71430757 -4.38622807 18.49100131 -3.86132812 16.26757812 C-2.5797776 10.84372341 -1.29223443 5.42131862 0 0 Z " fill="#522D1D" transform="translate(112,367)"/>
<path d="M0 0 C3.125 0.25 3.125 0.25 4.73591614 1.4806366 C6.38877839 3.58599112 6.8689601 5.20700779 7.4753418 7.80981445 C7.69534348 8.73119705 7.91534515 9.65257965 8.14201355 10.60188293 C8.47970512 12.0925251 8.47970512 12.0925251 8.82421875 13.61328125 C9.0641304 14.63802048 9.30404205 15.6627597 9.55122375 16.71855164 C10.05636374 18.88692651 10.55616332 21.05655138 11.05102539 23.22729492 C11.80784959 26.54213153 12.58318282 29.85222065 13.36132812 33.16210938 C13.85006706 35.27057664 14.33773267 37.37929305 14.82421875 39.48828125 C15.17101936 40.96981438 15.17101936 40.96981438 15.52482605 42.48127747 C16.58201584 47.15520777 17.42331121 51.42181531 17.125 56.25 C14.155 56.25 11.185 56.25 8.125 56.25 C6.98735649 51.98383684 6.125 48.68513689 6.125 44.25 C2.825 44.25 -0.475 44.25 -3.875 44.25 C-4.00777344 45.03246094 -4.14054688 45.81492187 -4.27734375 46.62109375 C-4.45394531 47.63300781 -4.63054687 48.64492188 -4.8125 49.6875 C-4.98652344 50.69683594 -5.16054687 51.70617187 -5.33984375 52.74609375 C-5.875 55.25 -5.875 55.25 -6.875 56.25 C-9.87503445 56.39177857 -12.87257235 56.29228771 -15.875 56.25 C-14.3915632 45.70406221 -11.93414418 35.38810687 -9.5065918 25.02807617 C-8.80544545 22.03235875 -8.11234682 19.03485329 -7.41992188 16.03710938 C-6.977037 14.1353061 -6.53369477 12.23360927 -6.08984375 10.33203125 C-5.88254135 9.43426468 -5.67523895 8.53649811 -5.46165466 7.61152649 C-3.74516367 0.32566641 -3.74516367 0.32566641 0 0 Z M0.125 21.25 C-0.21320166 22.8323006 -0.54535939 24.41589375 -0.875 26 C-1.060625 26.88171875 -1.24625 27.7634375 -1.4375 28.671875 C-1.98653675 31.47143965 -1.98653675 31.47143965 -1.875 35.25 C0.105 35.25 2.085 35.25 4.125 35.25 C3.84331703 33.29020573 3.54933283 31.33217622 3.25 29.375 C3.08757812 28.28445313 2.92515625 27.19390625 2.7578125 26.0703125 C2.36243487 23.13067286 2.36243487 23.13067286 0.125 21.25 Z " fill="#522D1D" transform="translate(174.875,366.75)"/>
<path d="M0 0 C2.97 0 5.94 0 9 0 C10.71513856 7.33093051 12.42343208 14.66343154 14.12695312 21.99707031 C14.70740405 24.49223014 15.2894269 26.98702483 15.87304688 29.48144531 C16.71116042 33.06480831 17.54363102 36.64944204 18.375 40.234375 C18.76872803 41.90956207 18.76872803 41.90956207 19.17041016 43.61859131 C19.41065918 44.65936829 19.6509082 45.70014526 19.8984375 46.77246094 C20.21820557 48.14479889 20.21820557 48.14479889 20.54443359 49.54486084 C21 52 21 52 21 56 C18.03 56 15.06 56 12 56 C11.01 52.37 10.02 48.74 9 45 C6.03 45 3.06 45 0 45 C-0.99 48.63 -1.98 52.26 -3 56 C-5.97 56 -8.94 56 -12 56 C-11.3770411 49.10406196 -10.10983197 42.56768158 -8.49609375 35.83984375 C-8.2533522 34.80936417 -8.01061066 33.77888458 -7.76051331 32.71717834 C-6.9911327 29.45608977 -6.21444034 26.19679483 -5.4375 22.9375 C-4.91162356 20.71430757 -4.38622807 18.49100131 -3.86132812 16.26757812 C-2.57977679 10.84371997 -1.29166922 5.42145712 0 0 Z M4 21 C3.01 25.95 2.02 30.9 1 36 C2.65 36 4.3 36 6 36 C6.33 35.67 6.66 35.34 7 35 C6.97354602 32.76461232 6.97354602 32.76461232 6.6875 30.1875 C6.60886719 29.31480469 6.53023438 28.44210937 6.44921875 27.54296875 C6.06281579 24.65096113 6.06281579 24.65096113 4 21 Z " fill="#522D1D" transform="translate(406,367)"/>
<path d="M0 0 C8.25 0 16.5 0 25 0 C25 2.97 25 5.94 25 9 C19.72 9 14.44 9 9 9 C9 13.95 9 18.9 9 24 C13.62 24 18.24 24 23 24 C23 26.64 23 29.28 23 32 C18.38 32 13.76 32 9 32 C9 36.95 9 41.9 9 47 C14.28 47 19.56 47 25 47 C25 49.97 25 52.94 25 56 C16.75 56 8.5 56 0 56 C0 37.52 0 19.04 0 0 Z " fill="#522D1D" transform="translate(273,367)"/>
<path d="M0 0 C2.0625 0.4375 2.0625 0.4375 4 1 C4.29148149 5.40633196 4.57590575 9.81305327 4.85449219 14.22021484 C4.94967656 15.71154311 5.0466109 17.20276098 5.14550781 18.69384766 C8.36588265 67.36094082 8.36588265 67.36094082 -3 81 C-3.99 81 -4.98 81 -6 81 C-5.99214478 79.90836548 -5.99214478 79.90836548 -5.98413086 78.79467773 C-5.9046878 65.98021107 -5.8729514 53.17964789 -6.4375 40.375 C-6.47673584 39.47193115 -6.51597168 38.5688623 -6.55639648 37.63842773 C-6.89413109 30.69509696 -7.57817743 23.80598997 -8.34375 16.8984375 C-8.68008065 11.46669755 -8.20639713 8.54797012 -4.5625 4.375 C-3.39997132 3.22421404 -2.21775272 2.0921811 -1 1 C-0.67 0.67 -0.34 0.34 0 0 Z " fill="#522D1D" transform="translate(281,247)"/>
<path d="M0 0 C3.05028747 -0.28776297 5.9566391 -0.40686643 9 0 C13.03193316 4.03193316 15 12.34679134 15 18 C15.66 18 16.32 18 17 18 C17.16435547 17.1646875 17.16435547 17.1646875 17.33203125 16.3125 C20.12366738 2.87633262 20.12366738 2.87633262 23 0 C24.51928038 -0.07179964 26.04167482 -0.08392007 27.5625 -0.0625 C28.38878906 -0.05347656 29.21507812 -0.04445313 30.06640625 -0.03515625 C30.70449219 -0.02355469 31.34257812 -0.01195312 32 0 C31.00063641 4.4840555 29.80151979 8.66804086 28.08984375 12.93359375 C22.35676897 27.42861224 20.7167953 40.45324181 21 56 C19.52093108 56.02689216 18.04172517 56.04634621 16.5625 56.0625 C15.32693359 56.07990234 15.32693359 56.07990234 14.06640625 56.09765625 C12 56 12 56 11 55 C10.96377177 53.557699 10.98744202 52.11384172 11.03515625 50.671875 C11.20983504 33.69427076 7.01926754 20.10164392 0.90209961 4.50830078 C0 2 0 2 0 0 Z " fill="#522D1D" transform="translate(130,367)"/>
<path d="M0 0 C-1.57177616 9.67883212 -1.57177616 9.67883212 -6 13 C-8.46692136 14.23346068 -9.90243404 14.02803017 -12.6484375 13.88671875 C-13.57140625 13.85642578 -14.494375 13.82613281 -15.4453125 13.79492188 C-17.39145131 13.72356345 -19.33697301 13.63254858 -21.28125 13.52148438 C-26.29375761 13.19677455 -26.29375761 13.19677455 -30.55566406 15.35791016 C-31.82998165 17.1686102 -31.82998165 17.1686102 -33 20 C-35.90891047 17.46402677 -37.76677357 15.69967929 -39 12 C-39 7.47357525 -37.11829337 5.11829337 -34 2 C-31.7578125 1.76953125 -31.7578125 1.76953125 -29.125 1.8125 C-28.26132812 1.81894531 -27.39765625 1.82539063 -26.5078125 1.83203125 C-24 2 -24 2 -22.046875 2.49609375 C-16.24830282 3.92360484 -9.85558303 3.76782746 -4.375 1.5 C-2 0 -2 0 0 0 Z " fill="#522D1D" transform="translate(299,232)"/>
<path d="M0 0 C2.64 1.98 5.28 3.96 8 6 C10.31 4.02 12.62 2.04 15 0 C21.75 5.625 21.75 5.625 24 9 C24 12.88026471 22.56987909 14.67389779 19.9375 17.3125 C18.968125 18.199375 17.99875 19.08625 17 20 C14.11562221 18.70700306 12.12780579 17.34058637 10 15 C7.11562221 16.29299694 5.12780579 17.65941363 3 20 C-0.10442031 18.6095501 -2.3656443 16.98428402 -4.8125 14.625 C-5.43769531 14.03976562 -6.06289062 13.45453125 -6.70703125 12.8515625 C-8 11 -8 11 -7.921875 9.0078125 C-6.18724169 5.22983995 -2.98832325 2.8253238 0 0 Z " fill="#522D1D" transform="translate(236,330)"/>
<path d="M0 0 C3.2826932 1.49076434 5.93077441 3.38620321 8.75 5.625 C9.54921875 6.25664062 10.3484375 6.88828125 11.171875 7.5390625 C11.77515625 8.02117187 12.3784375 8.50328125 13 9 C11.32603695 13.591665 9.20616974 16.37196582 6 20 C0.91061189 18.40956621 -2.87456643 15.2553049 -7 12 C-5.44298069 7.32894208 -2.91552627 3.91294315 0 0 Z " fill="#522D1D" transform="translate(473,330)"/>
<path d="M0 0 C5.40489519 1.52012677 8.98492628 5.27385218 13 9 C12.42983875 10.27679728 11.84320153 11.54624288 11.25 12.8125 C10.92515625 13.52019531 10.6003125 14.22789062 10.265625 14.95703125 C9 17 9 17 5 20 C1.37 17.36 -2.26 14.72 -6 12 C-4.90492756 5.42956537 -4.19231575 4.51480158 0 0 Z " fill="#522D1D" transform="translate(411,282)"/>
<path d="M0 0 C4.80829224 1.45705825 8.83603679 4.09375803 12 8 C12.24690231 12.03273765 11.28110544 13.60815606 8.9375 16.875 C8.298125 17.57625 7.65875 18.2775 7 19 C0.61479646 18.84036991 -2.66008365 15.21875117 -7 11 C-6.40361667 9.72549553 -5.79752584 8.45553123 -5.1875 7.1875 C-4.85105469 6.47980469 -4.51460937 5.77210938 -4.16796875 5.04296875 C-2.99354529 2.98870965 -1.74371984 1.58383722 0 0 Z " fill="#522D1D" transform="translate(202,282)"/>
<path d="M0 0 C2.88611196 4.9476205 4 10.33165837 4 16 C1.69 16 -0.62 16 -3 16 C-2.57910004 10.39538469 -2.08386889 5.27913453 0 0 Z " fill="#EFEBEA" transform="translate(116,387)"/>
</svg>
