<?xml version="1.0" encoding="UTF-8"?>
<svg version="1.1" xmlns="http://www.w3.org/2000/svg" width="469" height="368">
<path d="M0 0 C154.77 0 309.54 0 469 0 C469 121.44 469 242.88 469 368 C314.23 368 159.46 368 0 368 C0 246.56 0 125.12 0 0 Z " fill="#FEFEFE" transform="translate(0,0)"/>
<path d="M0 0 C113.19 0 226.38 0 343 0 C343 0.33 343 0.66 343 1 C341.5459375 1.22042969 341.5459375 1.22042969 340.0625 1.4453125 C295.77539986 8.64510572 261.48596367 40.84650917 235.89453125 75.921875 C228.55491018 86.16548638 222.03661623 96.87288363 215.6875 107.75 C206.71803972 123.10397659 196.97457716 137.9972127 186 152 C185.37222656 152.81984375 184.74445313 153.6396875 184.09765625 154.484375 C162.99666464 181.58339899 136.1589652 202.78013946 102 210 C101.03449219 210.20625 100.06898437 210.4125 99.07421875 210.625 C82.63740584 213.75996829 69.24913769 211.92236244 54.9453125 203.08984375 C43.38451382 194.88688978 33.00770951 182.13170048 30 168 C28.94162008 156.97209152 29.21072331 146.13116223 34 136 C34.49757812 134.92363281 34.99515625 133.84726563 35.5078125 132.73828125 C42.80782429 118.1212809 53.73292433 107.37622771 69.375 102 C96.16936883 93.8429223 125.42435017 104.37649328 149.171875 116.59375 C157.03034073 120.80554533 164.49249454 125.46784063 171.71484375 130.69921875 C172.46894531 131.12847656 173.22304687 131.55773437 174 132 C177.42396376 130.85867875 177.78178252 130.2478703 179.6640625 127.32421875 C180.38722656 126.20563477 180.38722656 126.20563477 181.125 125.06445312 C181.8675 123.88786133 181.8675 123.88786133 182.625 122.6875 C183.12773437 121.91470703 183.63046875 121.14191406 184.1484375 120.34570312 C187.26876092 115.47525761 187.26876092 115.47525761 189 110 C155.46540109 85.2495025 115.73029559 65.95882784 72.98193359 71.76977539 C55.66057711 74.52656534 39.32940079 81.4904805 26 93 C25.32195313 93.58265625 24.64390625 94.1653125 23.9453125 94.765625 C9.13937235 108.47696257 3.72257126 127.70317913 1 147 C0.67 147 0.34 147 0 147 C0 98.49 0 49.98 0 0 Z " fill="#FEFEFE" transform="translate(0,0)"/>
<path d="M0 0 C0.74121094 -0.00386719 1.48242188 -0.00773437 2.24609375 -0.01171875 C5.75243033 -0.00542371 8.87800965 0.18334879 12.25 1.125 C13.35934326 15.48142762 13.36698981 29.79499339 13.3125 44.1875 C13.30747163 46.51887924 13.3029111 48.85025954 13.29882812 51.18164062 C13.28793615 56.82945061 13.27130545 62.47722018 13.25 68.125 C12.26217529 68.3118335 11.27435059 68.49866699 10.2565918 68.69116211 C-25.27474921 75.52301786 -56.06684053 95.49467456 -82.3125 119.87109375 C-84.37844186 121.78142781 -86.47950579 123.6182997 -88.625 125.4375 C-96.59854997 132.37531049 -104.11964366 140.01984464 -110.97265625 148.0625 C-115.10680272 152.85992712 -119.45057422 157.4757591 -123.75 162.125 C-124.60102295 163.04587402 -124.60102295 163.04587402 -125.46923828 163.98535156 C-143.63285544 183.61497886 -143.63285544 183.61497886 -152.359375 191.0703125 C-154.24496848 192.69093696 -156.10276738 194.33202343 -157.953125 195.9921875 C-190.40573593 224.91022426 -227.15584764 246.33011826 -271.55419922 244.33935547 C-289.83351228 243.11328695 -307.78902312 234.83056866 -321.75 223.125 C-323.05517578 222.04412109 -323.05517578 222.04412109 -324.38671875 220.94140625 C-339.84235258 207.61121086 -349.93052396 188.523348 -351.75 168.125 C-353.16598474 142.31255641 -348.69596773 116.95985836 -331.11328125 97.0546875 C-313.85094764 78.97971907 -289.23520304 70.45596768 -264.57568359 69.83959961 C-227.39934617 69.44845521 -190.11861994 86.93392286 -161.75 110.125 C-162.752295 115.24414764 -165.72552127 119.08771219 -168.5625 123.375 C-169.09681641 124.21546875 -169.63113281 125.0559375 -170.18164062 125.921875 C-170.70564453 126.7159375 -171.22964844 127.51 -171.76953125 128.328125 C-172.24495361 129.05676758 -172.72037598 129.78541016 -173.21020508 130.53613281 C-173.7183374 131.06045898 -174.22646973 131.58478516 -174.75 132.125 C-178.85502998 132.125 -179.67289374 131.85375303 -182.953125 129.78125 C-183.76023926 129.28069092 -184.56735352 128.78013184 -185.39892578 128.2644043 C-186.25728027 127.72340088 -187.11563477 127.18239746 -188 126.625 C-214.59116627 110.30714828 -246.1782824 95.30855782 -278.2421875 101.9375 C-291.2712696 105.241467 -303.67204808 113.20540681 -310.76123047 124.77539062 C-319.54493631 139.71047398 -323.38881113 154.03474432 -320.12890625 171.44140625 C-315.0473934 186.95695883 -303.35143089 199.02723079 -289.16015625 206.4609375 C-276.35204721 212.7109426 -263.48632875 212.13144176 -249.75 209.125 C-248.61175781 208.88007813 -247.47351563 208.63515625 -246.30078125 208.3828125 C-194.36162625 195.90858399 -164.09893097 151.95080916 -137.7734375 109.09765625 C-135.56392778 105.48053052 -133.39722916 101.84117546 -131.25268555 98.18530273 C-123.51951802 85.04264007 -114.62332961 72.74267429 -104.75 61.125 C-103.85437924 60.04517356 -102.95990298 58.96439711 -102.06640625 57.8828125 C-96.60015988 51.29626189 -90.98928878 45.00208287 -84.75 39.125 C-84.16476562 38.56941406 -83.57953125 38.01382813 -82.9765625 37.44140625 C-72.03883828 27.48282328 -59.86835886 18.92881083 -46.75 12.125 C-45.70585937 11.58230469 -44.66171875 11.03960937 -43.5859375 10.48046875 C-37.52418884 7.50976066 -31.39237466 5.2398849 -24.9375 3.3125 C-24.24422607 3.10536377 -23.55095215 2.89822754 -22.83666992 2.68481445 C-15.23841975 0.53087255 -7.87310593 -0.04195261 0 0 Z " fill="#2EB2A4" transform="translate(351.75,-0.125)"/>
<path d="M0 0 C35.67247387 0 35.67247387 0 52 6 C53.01707031 6.35964844 54.03414062 6.71929687 55.08203125 7.08984375 C62.63758422 9.97045894 68.70967002 13.95798356 75 19 C76.04607422 19.79857422 76.04607422 19.79857422 77.11328125 20.61328125 C88.67508493 29.95076999 95.48594096 42.47963314 101 56 C101.45632813 57.04800781 101.91265625 58.09601563 102.3828125 59.17578125 C108.97419006 77.31359292 106.49224876 100.17475077 100 118 C99.60425781 119.12148437 99.20851563 120.24296875 98.80078125 121.3984375 C91.17726001 141.10308708 77.6809615 157.18039578 58.4375 166.3125 C44.82547797 172.183396 33.25889878 175.38237746 18.375 175.3125 C17.12605957 175.30686035 15.87711914 175.3012207 14.59033203 175.29541016 C5.6676352 175.17796035 -2.40836686 174.55634722 -11 172 C-11.69706055 171.79600586 -12.39412109 171.59201172 -13.11230469 171.38183594 C-23.86731881 168.18188154 -33.99119087 164.06136527 -44 159 C-44.79809082 158.60151855 -45.59618164 158.20303711 -46.41845703 157.79248047 C-58.79581417 151.58627023 -70.58165809 144.83162557 -82 137 C-82.60360352 136.58927246 -83.20720703 136.17854492 -83.82910156 135.75537109 C-92.98529062 129.49233599 -101.58789929 122.60584896 -110.13427734 115.54101562 C-112.91372778 113.24529577 -115.70752906 110.96736074 -118.5 108.6875 C-120.00024033 107.45862667 -121.5003462 106.22958903 -123 105 C-121.51346494 101.53370165 -119.54277649 99.30977964 -116.8671875 96.671875 C-116.06152344 95.87265625 -115.25585938 95.0734375 -114.42578125 94.25 C-113.58402344 93.425 -112.74226562 92.6 -111.875 91.75 C-111.02550781 90.90953125 -110.17601562 90.0690625 -109.30078125 89.203125 C-107.20495077 87.13084317 -105.10459287 85.06337607 -103 83 C-98.87637982 84.54780381 -96.24148649 86.31096047 -92.9375 89.25 C-69.59452389 109.37015392 -27.87450954 142.52642824 4.46484375 141.34765625 C15.09157552 139.89036946 25.04700354 134.23612334 31.71875 125.859375 C38.13694218 116.54516927 38.83502938 107.08733454 38 96 C37.11852725 92.64657108 35.81303325 89.94167647 34 87 C33.67257812 86.38898438 33.34515625 85.77796875 33.0078125 85.1484375 C26.51097676 74.38360747 11.4322693 69.26636266 0 66 C0 44.22 0 22.44 0 0 Z " fill="#2EB2A4" transform="translate(364,69)"/>
<path d="M0 0 C35.97 0 71.94 0 109 0 C109 45.87 109 91.74 109 139 C106.56585416 136.56585416 106.52816617 135.28152682 105.875 131.9375 C102.80980202 119.13760292 96.76159682 107.77771199 88 98 C87.2575 96.989375 86.515 95.97875 85.75 94.9375 C74.1910961 81.29103486 53.69496633 72.50194893 36.08404541 70.81665039 C30.85294429 70.40750196 25.61492563 70.14323847 20.375 69.875 C14.97125 69.58625 9.5675 69.2975 4 69 C4 46.56 4 24.12 4 1 C2.68 0.67 1.36 0.34 0 0 Z " fill="#FEFEFE" transform="translate(360,0)"/>
<path d="M0 0 C3.63 0 7.26 0 11 0 C11.01458252 0.82725586 11.02916504 1.65451172 11.04418945 2.50683594 C11.1186586 6.25502881 11.2153246 10.00232997 11.3125 13.75 C11.33505859 15.05195313 11.35761719 16.35390625 11.38085938 17.6953125 C11.41630859 18.94570313 11.45175781 20.19609375 11.48828125 21.484375 C11.51446533 22.63647461 11.54064941 23.78857422 11.56762695 24.97558594 C12.05078798 28.35525774 12.65017613 29.57319467 15 32 C17.32732307 32.59780429 17.32732307 32.59780429 19.97460938 32.50170898 C20.98575806 32.51108994 21.99690674 32.52047089 23.03869629 32.53013611 C24.67469788 32.51328514 24.67469788 32.51328514 26.34375 32.49609375 C27.46438843 32.49754898 28.58502686 32.49900421 29.73962402 32.50050354 C32.11013385 32.49884274 34.48065426 32.4872614 36.85107422 32.46655273 C40.48581604 32.43761293 44.11909898 32.44593786 47.75390625 32.45898438 C50.05469461 32.45274682 52.35547835 32.44435574 54.65625 32.43359375 C55.74691772 32.43652939 56.83758545 32.43946503 57.96130371 32.44248962 C59.47802673 32.42346336 59.47802673 32.42346336 61.02539062 32.40405273 C61.9156897 32.39864975 62.80598877 32.39324677 63.7232666 32.38768005 C66.45777444 31.92205059 67.34879336 31.19216568 69 29 C69.47280254 26.79097088 69.47280254 26.79097088 69.375 24.4375 C69.38273437 23.65246094 69.39046875 22.86742187 69.3984375 22.05859375 C69.20121094 21.03958984 69.20121094 21.03958984 69 20 C65.31931607 17.54621071 63.31946281 17.69353786 58.92578125 17.5859375 C58.2419487 17.56657135 57.55811615 17.5472052 56.8535614 17.5272522 C54.67333375 17.46756003 52.49305298 17.42111369 50.3125 17.375 C48.8326595 17.33681057 47.352841 17.29775826 45.87304688 17.2578125 C42.2488995 17.16186798 38.62458743 17.07779849 35 17 C35 13.37 35 9.74 35 6 C39.69554174 5.87556661 44.39010534 5.78527453 49.08691406 5.7253418 C50.68148536 5.70033587 52.27594365 5.66631901 53.87011719 5.62280273 C69.84852629 5.19784505 69.84852629 5.19784505 75.62109375 9.60595703 C79.60699939 13.6356173 81.21677933 17.1804066 81.4375 22.875 C81.11709596 30.1338088 79.23667898 36.76332102 74 42 C70.69107672 44.0825986 68.02276985 44.26661038 64.14916992 44.30639648 C62.97082077 44.32238388 61.79247162 44.33837128 60.57841492 44.35484314 C59.30859268 44.36020584 58.03877045 44.36556854 56.73046875 44.37109375 C55.42096756 44.38012222 54.11146637 44.3891507 52.76228333 44.39845276 C49.99082987 44.41492517 47.21949694 44.42263941 44.44799805 44.42553711 C40.91042801 44.43091382 37.37400376 44.468569 33.83675671 44.51428127 C30.44716721 44.55132706 27.05775366 44.55257189 23.66796875 44.55859375 C22.40421921 44.57812607 21.14046967 44.59765839 19.83842468 44.61778259 C12.55293272 44.58050441 8.29846305 44.19201758 3 39 C1.11726989 36.26903191 0.72884496 34.04309379 0.5859375 30.76171875 C0.54718506 29.94799805 0.50843262 29.13427734 0.46850586 28.29589844 C0.43764893 27.43512695 0.40679199 26.57435547 0.375 25.6875 C0.33705322 24.80481445 0.29910645 23.92212891 0.26000977 23.01269531 C-0.04549899 15.3396455 -0.10469979 7.67798452 0 0 Z " fill="#364245" transform="translate(70,303)"/>
<path d="M0 0 C5.28 0 10.56 0 16 0 C11.73207975 5.04568826 7.33852646 9.93522808 2.8125 14.75 C2.16410156 15.44448242 1.51570313 16.13896484 0.84765625 16.85449219 C-2.18913497 20.09004976 -5.24733322 23.27888551 -8.45703125 26.34375 C-8.97434814 26.84036133 -9.49166504 27.33697266 -10.0246582 27.84863281 C-11.41161874 29.16605024 -12.81468047 30.46645721 -14.21875 31.765625 C-16.25627163 33.78240805 -16.25627163 33.78240805 -15.78417969 35.95068359 C-14.91025309 38.23453784 -13.99296922 39.34132817 -12.234375 41.0234375 C-11.67363281 41.57 -11.11289062 42.1165625 -10.53515625 42.6796875 C-9.94605469 43.23914063 -9.35695313 43.79859375 -8.75 44.375 C-7.59650244 45.48443137 -6.44543216 46.59639228 -5.296875 47.7109375 C-4.72888184 48.25274658 -4.16088867 48.79455566 -3.57568359 49.3527832 C-2.05644558 50.9409919 -0.93360716 52.56052866 0.2890625 54.37890625 C3.74452945 57.71985484 5.73639941 57.70484253 10.40234375 57.67382812 C11.30082031 57.63708984 12.19929688 57.60035156 13.125 57.5625 C14.03121094 57.56056641 14.93742187 57.55863281 15.87109375 57.55664062 C20.61703411 57.64484498 20.61703411 57.64484498 24.7487793 55.67822266 C26.78562065 52.94627193 26.53435384 50.15108618 26.6875 46.8125 C26.75324219 45.54019531 26.81898438 44.26789063 26.88671875 42.95703125 C26.94279297 41.49330078 26.94279297 41.49330078 27 40 C29.97 40 32.94 40 36 40 C36.10845027 43.04263267 36.18752063 46.08136204 36.25 49.125 C36.28351563 49.9809375 36.31703125 50.836875 36.3515625 51.71875 C36.43751952 57.3059565 35.94269177 60.70481592 32 65 C22.36195305 70.60587233 8.66977269 70.43497197 -2 68 C-8.12383349 64.76945281 -12.31147435 59.62918961 -16.38696289 54.14794922 C-20.00184014 49.33431367 -23.97714461 44.9096297 -28.4375 40.875 C-31 38 -31 38 -31.56811523 35.26269531 C-30.72514001 30.42147447 -27.95547686 28.22281674 -24.47265625 24.921875 C-23.47739174 23.94290253 -23.47739174 23.94290253 -22.46202087 22.94415283 C-20.3425507 20.86483481 -18.20349645 18.80712533 -16.0625 16.75 C-13.92954199 14.67440409 -11.80075506 12.59463462 -9.6736908 10.51300049 C-8.34924638 9.21974037 -7.02054357 7.93082453 -5.68727112 6.64666748 C-5.08672409 6.06556213 -4.48617706 5.48445679 -3.86743164 4.88574219 C-3.33670547 4.37533386 -2.80597931 3.86492554 -2.25917053 3.33905029 C-0.88170221 2.0025093 -0.88170221 2.0025093 0 0 Z " fill="#354144" transform="translate(307,278)"/>
<path d="M0 0 C3.3 0 6.6 0 10 0 C10.04898438 0.89203125 10.09796875 1.7840625 10.1484375 2.703125 C10.22320312 3.87359375 10.29796875 5.0440625 10.375 6.25 C10.44460937 7.41015625 10.51421875 8.5703125 10.5859375 9.765625 C10.97020566 12.76726687 11.59116773 14.39983939 13 17 C13.79211884 16.99032196 14.58423767 16.98064392 15.40036011 16.97067261 C22.90303309 16.8879628 30.403672 16.85388416 37.90672112 16.87302971 C41.76342253 16.88119303 45.61822341 16.87122877 49.47460938 16.81835938 C53.20376273 16.76792581 56.93007272 16.76703981 60.65939713 16.79904556 C62.07464908 16.80276756 63.4900646 16.78929009 64.90496445 16.75750351 C71.09080539 16.62806278 76.02285535 16.58155644 81.16558838 20.27105713 C83.66861623 22.73545445 85.91694889 25.17377931 88 28 C88 28.33 88 28.66 88 29 C78.06415163 29.09276894 68.12840667 29.16379998 58.19221306 29.20724869 C53.57818149 29.22810426 48.96444671 29.25638462 44.35058594 29.30175781 C39.89612037 29.34528828 35.44193988 29.36915238 30.98727798 29.37950897 C29.28962849 29.38688745 27.59199421 29.40129606 25.8944664 29.42292023 C23.51247457 29.4520508 21.13165364 29.4559521 18.74951172 29.45410156 C17.7018589 29.47567322 17.7018589 29.47567322 16.63304138 29.49768066 C10.49368565 29.44623079 7.12511409 26.89537202 2.6875 22.9375 C0.13673799 20.00884732 -0.1241478 17.5048393 -0.09765625 13.76953125 C-0.09282227 12.56586914 -0.09282227 12.56586914 -0.08789062 11.33789062 C-0.07951172 10.50451172 -0.07113281 9.67113281 -0.0625 8.8125 C-0.05798828 7.96751953 -0.05347656 7.12253906 -0.04882812 6.25195312 C-0.03705403 4.16793845 -0.0191189 2.08396023 0 0 Z " fill="#354144" transform="translate(211,318)"/>
<path d="M0 0 C3.63 0 7.26 0 11 0 C11.08132642 3.04221065 11.14065374 6.0822238 11.1875 9.125 C11.21263672 9.9809375 11.23777344 10.836875 11.26367188 11.71875 C11.33248895 17.68289633 10.71429434 22.09232082 6.46484375 26.64453125 C1.19098322 30.67748342 -1.76624876 31.13979117 -8.2890625 31.09765625 C-9.51669815 31.09553383 -9.51669815 31.09553383 -10.76913452 31.09336853 C-13.38779325 31.0877629 -16.00636704 31.07520948 -18.625 31.0625 C-20.39843627 31.05748572 -22.17187387 31.05292269 -23.9453125 31.04882812 C-28.29690782 31.03779164 -32.6484395 31.02052325 -37 31 C-37 27.04 -37 23.08 -37 19 C-36.01604248 18.98541748 -35.03208496 18.97083496 -34.01831055 18.95581055 C-30.36706226 18.89783002 -26.71643089 18.82059815 -23.06567383 18.73754883 C-21.48569757 18.70429812 -19.90560248 18.67626654 -18.32543945 18.65356445 C-16.05368421 18.62001984 -13.78301797 18.56770773 -11.51171875 18.51171875 C-10.80536789 18.50532883 -10.09901703 18.4989389 -9.3712616 18.49235535 C-6.50967468 18.40659261 -4.47051196 18.3177853 -2.0625 16.69140625 C-0.26190882 13.82502396 -0.42007695 10.60435458 -0.3125 7.3125 C-0.27833984 6.61060547 -0.24417969 5.90871094 -0.20898438 5.18554688 C-0.12670053 3.45758613 -0.0616676 1.72881928 0 0 Z " fill="#394548" transform="translate(388,316)"/>
<path d="M0 0 C13.85675275 -0.43402822 24.74261281 -0.08895605 36 9 C42.47854225 15.81951816 44.17439293 22.64363653 44.0625 31.75 C44.05798828 32.44738281 44.05347656 33.14476562 44.04882812 33.86328125 C44.0371002 35.57555803 44.01916653 37.28779033 44 39 C39.71 39 35.42 39 31 39 C30.9175 37.02 30.835 35.04 30.75 33 C30.29211797 27.31360026 29.69371083 22.50588218 26 18 C20.27928318 13.37621675 13.30188314 11.81440101 6.125 11.375 C4.97257813 11.30023438 3.82015625 11.22546875 2.6328125 11.1484375 C1.32957031 11.07496094 1.32957031 11.07496094 0 11 C0 7.37 0 3.74 0 0 Z " fill="#384346" transform="translate(156,294)"/>
<path d="M0 0 C3.96 0 7.92 0 12 0 C12 17.16 12 34.32 12 52 C8.04 52 4.08 52 0 52 C0 34.84 0 17.68 0 0 Z " fill="#313D40" transform="translate(351,279)"/>
<path d="M0 0 C1.48762093 0.01485695 1.48762093 0.01485695 3.0052948 0.03001404 C6.16520635 0.06912289 9.32161192 0.15693925 12.48046875 0.24609375 C14.62560078 0.28121209 16.77078741 0.31315018 18.91601562 0.34179688 C24.16785783 0.41887174 29.41766286 0.53592217 34.66796875 0.68359375 C34.52753998 2.32989703 34.38047546 3.97563554 34.23046875 5.62109375 C34.14925781 6.53761719 34.06804687 7.45414062 33.984375 8.3984375 C33.66796875 10.68359375 33.66796875 10.68359375 32.66796875 11.68359375 C31.10249827 11.77686091 29.53284103 11.80104957 27.96459961 11.79711914 C26.96363754 11.79704361 25.96267548 11.79696808 24.93138123 11.79689026 C23.84285355 11.79172897 22.75432587 11.78656769 21.6328125 11.78125 C20.5244252 11.77983505 19.4160379 11.7784201 18.27406311 11.77696228 C14.71783806 11.77134408 11.16167492 11.7587885 7.60546875 11.74609375 C5.20117278 11.74108109 2.79687583 11.73651778 0.39257812 11.73242188 C-5.51564629 11.72136874 -11.42383435 11.70461292 -17.33203125 11.68359375 C-16.67011285 10.34789684 -16.0024423 9.01504831 -15.33203125 7.68359375 C-15.02650833 7.05730576 -14.72098541 6.43101776 -14.40620422 5.78575134 C-10.78536773 -0.43366221 -6.77066872 -0.255205 0 0 Z " fill="#364245" transform="translate(165.33203125,335.31640625)"/>
<path d="M0 0 C0.97904297 0.01353516 1.95808594 0.02707031 2.96679688 0.04101562 C5.37393541 0.07624204 7.78078943 0.13004537 10.1875 0.1875 C10.1875 3.4875 10.1875 6.7875 10.1875 10.1875 C9.05570313 10.22488281 7.92390625 10.26226562 6.7578125 10.30078125 C5.27600795 10.36643082 3.79423861 10.43287851 2.3125 10.5 C1.19294922 10.53383789 1.19294922 10.53383789 0.05078125 10.56835938 C-1.912104 10.66561945 -3.86578322 10.91792294 -5.8125 11.1875 C-7.83600324 14.22275486 -8.13374018 15.38176202 -8.4375 18.875 C-8.56125 20.298125 -8.685 21.72125 -8.8125 23.1875 C-12.4425 23.1875 -16.0725 23.1875 -19.8125 23.1875 C-20.50078314 9.23064742 -20.50078314 9.23064742 -18.125 5.5 C-12.40172065 -0.22327935 -7.76059812 -0.20326617 0 0 Z " fill="#374346" transform="translate(124.8125,280.8125)"/>
<path d="M0 0 C4.0743356 0.84881992 5.54405875 2.30225596 8 5.625 C8.625 8.625 8.625 8.625 8 11.625 C5.54405875 14.94774404 4.0743356 16.40118008 0 17.25 C-4.0743356 16.40118008 -5.54405875 14.94774404 -8 11.625 C-8.625 8.625 -8.625 8.625 -8 5.625 C-5.54405875 2.30225596 -4.0743356 0.84881992 0 0 Z " fill="#3A4649" transform="translate(317,304.375)"/>
<path d="M0 0 C3.01797955 2.14435389 3.86355315 3.28744421 4.5625 6.9375 C3.79477021 11.11736219 2.42123173 12.52506641 -1 15 C-4.5625 15.625 -4.5625 15.625 -8 15 C-10.96135546 12.41830549 -11.86756104 10.81118865 -12.5 6.9375 C-11.88967138 3.35181933 -10.80986461 2.23136307 -8 0 C-5.02898609 -1.48550695 -3.16565278 -0.82306972 0 0 Z " fill="#394447" transform="translate(380,353)"/>
</svg>
