<?xml version="1.0" encoding="UTF-8"?>
<svg version="1.1" xmlns="http://www.w3.org/2000/svg" width="1383" height="1141">
<path d="M0 0 C0.33 0 0.66 0 1 0 C0.45537194 6.8352337 -0.57620004 13.401527 -2.06835938 20.09008789 C-2.38522516 21.54307927 -2.38522516 21.54307927 -2.70849228 23.025424 C-3.41499148 26.25901001 -4.12944788 29.49078574 -4.84375 32.72265625 C-5.35689231 35.06492299 -5.86946975 37.40731353 -6.38153076 39.74981689 C-7.49289571 44.82953747 -8.60745209 49.9085465 -9.72473145 54.98696899 C-11.53610324 63.22127847 -13.33892118 71.45744872 -15.13964844 79.6940918 C-15.29378566 80.39911729 -15.44792289 81.10414277 -15.60673094 81.83053267 C-16.3989985 85.45458066 -17.19111509 89.07866161 -17.98313141 92.70276451 C-18.6341451 95.68154331 -19.28544046 98.66026032 -19.93697357 101.63892555 C-25.00943795 124.82971065 -30.04408655 148.02846103 -35.046875 171.234375 C-35.21427657 172.01087607 -35.38167814 172.78737714 -35.55415249 173.58740854 C-37.60279636 183.09085428 -39.64988743 192.59463422 -41.69643712 202.09853113 C-44.8390354 216.69206973 -47.98418004 231.28505987 -51.12978268 245.87795115 C-51.48074951 247.50613925 -51.83170738 249.13432929 -52.18265629 250.76252127 C-60.01014124 287.07698646 -67.87468378 323.38338155 -75.75 359.6875 C-75.90844092 360.41790009 -76.06688184 361.14830018 -76.230124 361.90083361 C-77.18603954 366.30752514 -78.14197616 370.71421209 -79.09792364 375.1208967 C-80.36679889 380.97010351 -81.63565602 386.81931426 -82.90449786 392.66852832 C-83.37821001 394.85225921 -83.8519394 397.03598637 -84.32567024 399.21971321 C-89.04616646 420.97989773 -93.75973343 442.74157532 -98.46803141 464.5044024 C-98.96386215 466.79624409 -99.45971073 469.08808193 -99.95556259 471.37991905 C-102.79658359 484.51130796 -105.63736003 497.64274977 -108.47668457 510.77450562 C-112.31305095 528.51736437 -116.15225151 546.25960554 -120 564 C-120.13987618 564.64492653 -120.27975237 565.28985306 -120.42386723 565.95432281 C-122.26809558 574.45690663 -124.11493231 582.95891801 -125.96534157 591.4601593 C-126.49716562 593.90444576 -127.02844378 596.34885107 -127.55914879 598.79338074 C-128.28628485 602.14190169 -129.01552299 605.48995777 -129.74536133 608.83789062 C-129.96036852 609.82997025 -130.17537571 610.82204987 -130.39689827 611.8441925 C-130.59465796 612.74916977 -130.79241764 613.65414703 -130.99617004 614.58654785 C-131.16697492 615.37145851 -131.33777979 616.15636917 -131.51376057 616.965065 C-132 619 -132 619 -133 622 C-198.34 622 -263.68 622 -331 622 C-321.50327621 603.00655242 -321.50327621 603.00655242 -316.75 593.875 C-316.19771729 592.81297363 -315.64543457 591.75094727 -315.07641602 590.65673828 C-310.96188654 582.77480794 -306.73324867 574.96076605 -302.45019531 567.16943359 C-298.87889474 560.65726914 -295.4170824 554.09425263 -292 547.5 C-287.609365 539.02739629 -283.09455326 530.63305398 -278.5 522.26953125 C-274.39094989 514.76837466 -270.43273511 507.19466872 -266.49780273 499.60107422 C-263.10059304 493.06292296 -259.61217557 486.58149652 -256.0625 480.125 C-251.18894716 471.25819575 -246.49918303 462.30599084 -241.85571289 453.31689453 C-237.85168704 445.58592979 -233.71551867 437.93665531 -229.51953125 430.30859375 C-225.74512171 423.42351599 -222.10349777 416.47585805 -218.5 409.5 C-213.93153843 400.65645808 -209.24460168 391.89027944 -204.44921875 383.16796875 C-200.87852127 376.65614413 -197.41679743 370.09374167 -194 363.5 C-190.10901218 355.99116488 -186.13689383 348.53590531 -182.0625 341.125 C-177.76442913 333.30521138 -173.59540141 325.42776187 -169.5 317.5 C-164.93152048 308.65646695 -160.24460197 299.89027996 -155.44921875 291.16796875 C-151.87852127 284.65614413 -148.41679743 278.09374167 -145 271.5 C-141.10901218 263.99116488 -137.13689383 256.53590531 -133.0625 249.125 C-128.18894716 240.25819575 -123.49918303 231.30599084 -118.85571289 222.31689453 C-114.85168704 214.58592979 -110.71551867 206.93665531 -106.51953125 199.30859375 C-102.74512194 192.42351639 -99.10348364 185.475865 -95.5 178.5 C-90.95564789 169.7027388 -86.29168125 160.98408543 -81.51953125 152.30859375 C-77.74512171 145.42351599 -74.10349777 138.47585805 -70.5 131.5 C-65.93153843 122.65645808 -61.24460168 113.89027944 -56.44921875 105.16796875 C-52.87852127 98.65614413 -49.41679743 92.09374167 -46 85.5 C-42.10901218 77.99116488 -38.13689383 70.53590531 -34.0625 63.125 C-29.76442674 55.30520703 -25.5955466 47.42769048 -21.5 39.5 C-17.21140926 31.20162532 -12.85073178 22.94910129 -8.375 14.75 C-7.87806641 13.83927734 -7.38113281 12.92855469 -6.86914062 11.99023438 C-1.90504073 2.9364322 -1.90504073 2.9364322 0 0 Z " fill="#701E72" transform="translate(698,149)"/>
<path d="M0 0 C65.34 0 130.68 0 198 0 C196.51839948 3.70400131 194.98931338 7.09625824 193.1640625 10.62109375 C192.60066162 11.70986816 192.03726074 12.79864258 191.45678711 13.92041016 C190.85229736 15.0810498 190.24780762 16.24168945 189.625 17.4375 C189.15781052 18.33695343 189.15781052 18.33695343 188.68118286 19.25457764 C184.05412914 28.16022012 179.31080794 36.99676775 174.47119141 45.78881836 C170.71087288 52.64041495 167.08678871 59.55618129 163.5 66.5 C158.93155638 75.34355079 154.24460139 84.10972109 149.44921875 92.83203125 C145.87852127 99.34385587 142.41679743 105.90625833 139 112.5 C135.10901218 120.00883512 131.13689383 127.46409469 127.0625 134.875 C122.18894716 143.74180425 117.49918303 152.69400916 112.85571289 161.68310547 C108.85168704 169.41407021 104.71551867 177.06334469 100.51953125 184.69140625 C96.74512171 191.57648401 93.10349777 198.52414195 89.5 205.5 C84.93153843 214.34354192 80.24460168 223.10972056 75.44921875 231.83203125 C71.87852127 238.34385587 68.41679743 244.90625833 65 251.5 C61.10901218 259.00883512 57.13689383 266.46409469 53.0625 273.875 C48.18894716 282.74180425 43.49918303 291.69400916 38.85571289 300.68310547 C34.85168704 308.41407021 30.71551867 316.06334469 26.51953125 323.69140625 C22.74512171 330.57648401 19.10349777 337.52414195 15.5 344.5 C10.93153843 353.34354192 6.24460168 362.10972056 1.44921875 370.83203125 C-2.12147873 377.34385587 -5.58320257 383.90625833 -9 390.5 C-12.89098782 398.00883512 -16.86310617 405.46409469 -20.9375 412.875 C-25.81105284 421.74180425 -30.50081697 430.69400916 -35.14428711 439.68310547 C-39.14831296 447.41407021 -43.28448133 455.06334469 -47.48046875 462.69140625 C-51.25487829 469.57648401 -54.89650223 476.52414195 -58.5 483.5 C-63.06846157 492.34354192 -67.75539832 501.10972056 -72.55078125 509.83203125 C-76.12147873 516.34385587 -79.58320257 522.90625833 -83 529.5 C-86.89098782 537.00883512 -90.86310617 544.46409469 -94.9375 551.875 C-99.23557246 559.69479152 -103.40450184 567.5722857 -107.5 575.5 C-113.04523111 586.23141847 -118.75370102 596.86464214 -124.59716797 607.43652344 C-125.61521844 609.29686628 -126.61741365 611.16591367 -127.60986328 613.04003906 C-128.4081958 614.54002441 -128.4081958 614.54002441 -129.22265625 616.0703125 C-129.70613525 616.98828613 -130.18961426 617.90625977 -130.68774414 618.85205078 C-132 621 -132 621 -134 622 C-130.75278743 604.72188397 -127.25330937 587.51500704 -123.51953125 570.3359375 C-122.99297395 567.90245513 -122.46668094 565.46891556 -121.94062805 563.0353241 C-120.81987862 557.85341434 -119.69733699 552.67189815 -118.57305908 547.49075317 C-116.92549982 539.89808176 -115.28143586 532.30465643 -113.63807249 524.7110759 C-110.6738741 511.01473721 -107.70602523 497.31919159 -104.7367363 483.62395573 C-101.90624263 470.56873562 -99.07821138 457.51298284 -96.25061798 444.45713425 C-92.80444587 428.54539522 -89.35746892 412.63383078 -85.90869141 396.72265625 C-85.64118324 395.4884878 -85.37367508 394.25431934 -85.09806061 392.98275185 C-84.82978203 391.74503218 -84.56150345 390.50731251 -84.28509521 389.23208618 C-76.89756517 355.14919434 -69.51871701 321.06442816 -62.14280272 286.97902107 C-61.3853868 283.47889032 -60.62794937 279.97876422 -59.87051392 276.4786377 C-54.94644358 253.72433133 -50.02275732 230.96994185 -45.09924316 208.21551514 C-44.94154231 207.48668782 -44.78384146 206.75786051 -44.62136179 206.00694752 C-44.46345162 205.27715278 -44.30554144 204.54735804 -44.14284611 203.7954483 C-43.98475818 203.06483216 -43.82667025 202.33421602 -43.66379178 201.58146 C-43.34442416 200.10547672 -43.02505667 198.62949342 -42.70568931 197.15351009 C-39.99668242 184.63362042 -37.28752861 172.11376253 -34.57827854 159.59392548 C-32.83749637 151.5494837 -31.09684852 143.50501289 -29.35643578 135.46049118 C-19.58605717 90.303708 -9.79202326 45.15210728 0 0 Z " fill="#701E72" transform="translate(810,150)"/>
<path d="M0 0 C23.68862458 20.3318104 38.48920249 48.62118818 41.4375 79.75 C43.4576865 112.03874348 35.40908672 142.65342349 14.4375 167.75 C13.60605469 168.74515625 12.77460937 169.7403125 11.91796875 170.765625 C-8.38403563 194.29620941 -37.70955632 208.26984907 -68.5625 210.75 C-100.5277313 212.56872376 -132.39816284 203.28911374 -156.5625 181.75 C-175.41122971 164.83128992 -189.01816924 143.68327694 -194.5625 118.75 C-194.77261719 117.85152344 -194.98273437 116.95304688 -195.19921875 116.02734375 C-202.05348562 84.57549504 -195.11921015 52.92893685 -178.5625 25.75 C-161.13183463 -1.35808023 -133.34152745 -19.2903599 -102.16015625 -26.28515625 C-65.85862759 -33.60589738 -28.3530043 -23.61515471 0 0 Z " fill="#701E72" transform="translate(979.5625,560.25)"/>
<path d="M0 0 C0.67215546 0.00270905 1.34431091 0.00541809 2.03683472 0.00820923 C13.05563364 0.0752806 23.17115413 1.12338894 33.6875 4.4375 C34.90824219 4.81132812 36.12898437 5.18515625 37.38671875 5.5703125 C67.37694517 15.53406209 92.00651328 36.45300186 106.6875 64.4375 C108.95729667 68.99909459 110.88731007 73.67196653 112.6875 78.4375 C113.06648437 79.43652344 113.44546875 80.43554688 113.8359375 81.46484375 C124.00528574 111.17004517 120.98114015 144.44958577 107.76953125 172.66796875 C93.41838667 201.57589272 67.55166513 223.25689421 37.20800781 233.62402344 C7.17317288 243.31755986 -26.51725591 240.48583051 -54.6171875 226.33203125 C-83.4653642 211.05805886 -103.8387124 186.67112533 -114.28515625 155.82421875 C-123.55299886 125.27205318 -121.08726903 91.34092706 -106.11669922 62.93505859 C-91.34879979 36.51814711 -68.0815954 15.91267934 -39.3125 6.125 C-38.30074707 5.77937012 -38.30074707 5.77937012 -37.26855469 5.42675781 C-24.95347577 1.49124925 -12.89159259 -0.10127893 0 0 Z " fill="#701E72" transform="translate(478.3125,149.5625)"/>
<path d="M0 0 C1.24132187 0.00222061 2.48264374 0.00444122 3.76158142 0.00672913 C4.44447739 0.0065831 5.12737335 0.00643707 5.83096313 0.00628662 C8.09815092 0.00698575 10.36525752 0.01477811 12.63243103 0.02259827 C14.20041865 0.02446245 15.76840685 0.02588635 17.33639526 0.02688599 C21.47103981 0.03071117 25.60564944 0.04054146 29.74028015 0.05158997 C33.95627876 0.06180407 38.172283 0.0663836 42.38829041 0.07142639 C50.66630125 0.08216373 58.94428368 0.09924015 67.22227478 0.12025452 C63.77299938 17.67470147 60.10259421 35.17346529 56.30430603 52.65541077 C55.73289973 55.29253468 55.16165334 57.92969276 54.59060669 60.56689453 C53.37511537 66.17879069 52.15821403 71.79037947 50.94029236 77.40174866 C49.16201053 85.59493409 47.38607133 93.78862605 45.6106627 101.98243451 C42.77247996 115.08092511 39.93273558 128.17907652 37.09190369 141.2769928 C33.57463201 157.49381565 30.05990923 173.71118951 26.54649353 189.92884827 C26.01469948 192.38352462 25.48290525 194.83820093 24.95111084 197.2928772 C24.16099865 200.93991852 23.37089021 204.58696066 22.58079624 208.23400593 C20.73284901 216.7639478 18.8845029 225.29380317 17.03599548 233.82362366 C11.37584996 259.94257947 5.71863494 286.06216702 0.06602478 312.18275452 C-0.08456154 312.87860956 -0.23514787 313.5744646 -0.39029741 314.29140615 C-3.14478051 327.01986575 -5.89900591 339.7483811 -8.65315664 352.47691262 C-10.62948157 361.61065104 -12.60587832 370.74437392 -14.58241272 379.87806702 C-14.80721353 380.91688766 -14.80721353 380.91688766 -15.03655577 381.97669458 C-19.4534463 402.38724484 -23.8733498 422.79714051 -28.29641128 443.20635438 C-28.72217371 445.17095521 -29.14792107 447.1355593 -29.57366371 449.10016441 C-32.32225064 461.78352899 -35.0711801 474.46681905 -37.82152653 487.14980221 C-42.8594503 510.38276586 -47.89050384 533.61712389 -52.88471985 556.85952759 C-53.57501346 560.07155476 -54.26575944 563.28348428 -54.9566803 566.49537659 C-55.4007728 568.55995163 -55.84486461 570.62452682 -56.28895569 572.68910217 C-56.50390057 573.68831066 -56.71884544 574.68751915 -56.9403038 575.71700668 C-58.18760023 581.51705475 -59.43144043 587.31783025 -60.67257977 593.1191988 C-61.4186422 596.60305189 -62.16766172 600.08626414 -62.91751289 603.56930351 C-63.26110117 605.16852804 -63.60336591 606.76803756 -63.94422722 608.36784554 C-64.40365772 610.52360684 -64.86756518 612.67835519 -65.33265686 614.832901 C-65.58954788 616.03204636 -65.8464389 617.23119171 -66.1111145 618.4666748 C-66.77772522 621.12025452 -66.77772522 621.12025452 -67.77772522 622.12025452 C-69.95578241 622.21454794 -72.13693802 622.2376799 -74.31703186 622.23377991 C-74.99992783 622.23392593 -75.68282379 622.23407196 -76.38641357 622.23422241 C-78.65360136 622.23352328 -80.92070796 622.22573092 -83.18788147 622.21791077 C-84.75586909 622.21604659 -86.32385729 622.21462268 -87.8918457 622.21362305 C-92.02649025 622.20979786 -96.16109988 622.19996758 -100.29573059 622.18891907 C-104.5117292 622.17870496 -108.72773344 622.17412543 -112.94374084 622.16908264 C-121.22175169 622.1583453 -129.49973412 622.14126888 -137.77772522 622.12025452 C-136.07264497 610.43488574 -133.43027842 598.94008257 -130.91444397 587.40931702 C-130.41434407 585.10682278 -129.91451439 582.80426984 -129.41493225 580.50166321 C-128.33693058 575.53560709 -127.25716035 570.56994007 -126.17601013 565.60456848 C-124.43264318 557.59757663 -122.69332156 549.58970959 -120.95472717 541.5816803 C-120.35243779 538.80771948 -119.75012231 536.03376433 -119.14779663 533.2598114 C-118.92179792 532.21897567 -118.92179792 532.21897567 -118.69123358 531.15711296 C-117.60582374 526.15851281 -116.51985356 521.16003459 -115.43365479 516.16160583 C-111.15411347 496.46743515 -106.88374418 476.77129543 -102.62147522 457.07337952 C-102.4746645 456.39490715 -102.32785378 455.71643478 -102.17659426 455.01740265 C-100.53893005 447.44895798 -98.90157436 439.88044658 -97.26435852 432.31190491 C-95.44941009 423.92175863 -93.63388824 415.53173647 -91.81825256 407.14173889 C-91.51269951 405.72977707 -91.20714671 404.3178152 -90.90159416 402.90585327 C-90.4424835 400.78429753 -89.98337283 398.66274179 -89.52426088 396.54118633 C-87.83749238 388.74660001 -86.15086435 380.95198329 -84.46424866 373.15736389 C-84.15715092 371.73812866 -83.85005316 370.31889343 -83.5429554 368.8996582 C-82.6212097 364.63985747 -81.69946716 360.38005606 -80.77772522 356.12025452 C-71.54924009 313.47109897 -62.32011553 270.82208201 -53.08809125 228.17369241 C-52.21829856 224.15557871 -51.34853118 220.13745954 -50.47878587 216.11933559 C-43.80799976 185.30109461 -37.13442836 154.48346006 -30.45066833 123.66802979 C-29.93370983 121.28459187 -29.41675223 118.90115376 -28.89979553 116.51771545 C-28.64408846 115.33878629 -28.38838139 114.15985712 -28.12492561 112.94520283 C-26.25869079 104.34013628 -24.39436597 95.73465704 -22.53065491 87.12904358 C-20.16901939 76.22457449 -17.80463553 65.3207055 -15.43685436 54.41756916 C-14.21114315 48.77311966 -12.98664156 43.12841472 -11.76530457 37.48301697 C-10.64498434 32.30477076 -9.52123255 27.127282 -8.39467239 21.95038986 C-7.98405874 20.0605397 -7.57473309 18.17040918 -7.16675949 16.27998734 C-6.61399149 13.71955532 -6.05670216 11.16015027 -5.4981842 8.60096741 C-5.33684274 7.84835097 -5.17550127 7.09573454 -5.00927067 6.32031155 C-3.65543433 0.15825269 -3.65543433 0.15825269 0 0 Z " fill="#701E72" transform="translate(722.7777252197266,148.87974548339844)"/>
<path d="M0 0 C0.00879936 1.32091644 0.00879936 1.32091644 0.01777649 2.66851807 C0.07567957 10.96735693 0.1477425 19.26592596 0.23571491 27.56450272 C0.28044306 31.83090578 0.31969365 36.09721281 0.34643555 40.36376953 C0.37244436 44.48123499 0.41282919 48.59833139 0.46318626 52.71556854 C0.47987146 54.28638875 0.49137546 55.85727282 0.49761391 57.42816925 C0.50723737 59.62861318 0.5352735 61.82810946 0.56762695 64.02832031 C0.57873001 65.28074524 0.58983307 66.53317017 0.60127258 67.82354736 C1.03259102 71.2596356 1.45138346 72.67792376 4 75 C8.40113859 76.53083493 13.30135709 76.14777557 17.91772461 76.14526367 C18.80614548 76.14862228 19.69456635 76.1519809 20.60990906 76.15544128 C23.54073492 76.16492432 26.47150351 76.16689296 29.40234375 76.16796875 C31.44348677 76.17118279 33.48462956 76.17454697 35.52577209 76.17805481 C39.80193618 76.18403918 44.07808007 76.18589538 48.35424805 76.18530273 C53.82966583 76.18520106 59.30495408 76.1988614 64.78034115 76.21607494 C68.99512831 76.22719995 73.20988418 76.2292218 77.42468452 76.22869301 C79.44326792 76.22987205 81.46185215 76.23428959 83.48042107 76.24202538 C86.30466643 76.25183676 89.12863085 76.2489428 91.95288086 76.24291992 C93.19914246 76.25134918 93.19914246 76.25134918 94.47058105 76.25994873 C99.01556771 76.2353541 102.76517775 75.86433956 107 74 C108.45205662 72.04935332 108.45205662 72.04935332 109.1875 69.6875 C109.50203125 68.88828125 109.8165625 68.0890625 110.140625 67.265625 C110.42421875 66.51796875 110.7078125 65.7703125 111 65 C112.4375 61.9375 112.4375 61.9375 114 60 C116.6875 59.6875 116.6875 59.6875 119 60 C119.25394531 60.59167969 119.50789062 61.18335938 119.76953125 61.79296875 C121.61781335 66.03640294 123.48318405 70.09893529 126 74 C129.84101165 72.48426446 131.63322272 70.23655204 134.125 67 C143.66692899 55.08430144 154.31672808 44.10312149 170.05859375 41.68359375 C175.47620849 41.35621352 179.64303861 42.95852374 184 46 C187.87453568 49.66854771 190.78770315 53.61166038 191.265625 58.98828125 C191.23722442 65.03050375 191.11666718 70.31145694 189 76 C197.72324568 76.36101667 197.72324568 76.36101667 206 74 C207.98155714 71.55455232 208.95301507 68.94530609 210 66 C210.5766186 64.66374907 211.15942747 63.33014272 211.75 62 C212.1625 61.01 212.575 60.02 213 59 C215.31 59 217.62 59 220 59 C220.433125 60.010625 220.86625 61.02125 221.3125 62.0625 C221.72435547 63.01382813 221.72435547 63.01382813 222.14453125 63.984375 C222.70263961 65.29937004 223.24266926 66.62222887 223.76171875 67.953125 C225.14978732 71.44900139 225.78264089 72.85509392 229 75 C236.80151055 76.47314858 244.86306836 76.03475332 252.75 75.6875 C253.83410156 75.65205078 254.91820312 75.61660156 256.03515625 75.58007812 C261.64386584 75.35066204 266.73805783 75.0356955 272 73 C272.33 72.34 272.66 71.68 273 71 C271.700625 71.165 270.40125 71.33 269.0625 71.5 C260.29383814 72.4483349 250.87556716 73.34330547 243.5625 67.5625 C239.76392748 63.76392748 239.79740112 60.75098986 239.6875 55.5625 C239.76794515 44.44957754 243.06411257 35.41743742 250.5625 27.1875 C254.59898314 23.56501513 258.32949249 23.7032864 263.51171875 23.80078125 C269.11800316 24.24963605 272.25147366 27.00719859 276.0625 30.875 C286.42599649 43.08133621 287.77308348 59.65347051 287 75 C286.05030352 85.44666124 282.18485573 96.02507946 274 103 C260.89220304 111.15982063 243.60185102 113.2893923 228.5 110.375 C224.16447831 108.67175934 221.27554496 106.25507281 218 103 C217.52691406 103.40992188 217.05382812 103.81984375 216.56640625 104.2421875 C208.73038193 110.6270962 200.94489082 111.7551048 191 111 C184.9536718 110.2374968 181.29033526 108.19056002 177 104 C175.98254918 102.679935 174.97874956 101.34900966 174 100 C173.56171875 100.38671875 173.1234375 100.7734375 172.671875 101.171875 C161.52018024 110.32895769 148.8867118 111.24373003 135 110 C128.44193098 108.87321187 122.82696867 106.12929799 117 103 C116.29875 103.763125 115.5975 104.52625 114.875 105.3125 C108.909119 110.8893018 103.88336422 111.43715083 96.07006836 111.37231445 C94.59315018 111.37779045 94.59315018 111.37779045 93.08639526 111.38337708 C89.83736816 111.39146934 86.58884215 111.37787622 83.33984375 111.36328125 C81.0702769 111.3627622 78.8007096 111.36328165 76.53114319 111.36479187 C71.77240287 111.36470219 67.01383208 111.35428577 62.25512695 111.33618164 C56.18515561 111.31358543 50.11543383 111.31293454 44.04543209 111.31969929 C39.35510583 111.32305918 34.66483536 111.31636982 29.97451973 111.30657005 C27.73844254 111.3027457 25.50235911 111.30155825 23.26627922 111.3031559 C-10.19337358 111.30715032 -10.19337358 111.30715032 -18 104 C-25.64740195 94.84272638 -25.32269322 84.08296457 -25.5 72.75 C-25.67330251 63.12958422 -25.97333669 53.56154717 -26.75 43.96875 C-26.87469097 42.32717438 -26.99904388 40.68557304 -27.12304688 39.04394531 C-27.30413901 36.65924407 -27.49715712 34.27897177 -27.73071289 31.89880371 C-28.93282182 19.6062916 -28.93282182 19.6062916 -26.76098633 15.86645508 C-24.93677956 14.24641364 -23.14546875 13.15586692 -21 12 C-19.62094842 11.02548776 -18.24992908 10.03952029 -16.88671875 9.04296875 C-15.48984804 8.08694052 -14.09008624 7.13512314 -12.6875 6.1875 C-11.97271484 5.69830078 -11.25792969 5.20910156 -10.52148438 4.70507812 C-3.6167985 0 -3.6167985 0 0 0 Z M255.0625 47.375 C253.81758355 48.95540186 253.81758355 48.95540186 254 51 C256.94229921 51.9807664 258.9908784 52.16488128 262.0625 52.1875 C262.94035156 52.20167969 263.81820313 52.21585938 264.72265625 52.23046875 C267.19925055 52.22229436 267.19925055 52.22229436 269 50 C266.06347338 47.15245903 264.49658835 46.05993308 260.375 45.5625 C257.06987606 45.72263459 257.06987606 45.72263459 255.0625 47.375 Z M143 75 C141.96614253 76.30725533 140.9547628 77.63390858 140 79 C148.6077722 81.79858603 159.80899778 79.36329953 168 76 C168.99 75.34 169.98 74.68 171 74 C170.97474816 71.08961458 170.97474816 71.08961458 170 68 C160.19200078 61.60347877 150.58710253 67.91565727 143 75 Z " fill="#701E72" transform="translate(556,844)"/>
<path d="M0 0 C0.07010174 6.33464821 -0.12518451 12.56512352 -0.6875 18.875 C-0.74099609 19.71546875 -0.79449219 20.5559375 -0.84960938 21.421875 C-0.92373047 22.22882812 -0.99785156 23.03578125 -1.07421875 23.8671875 C-1.16062622 24.95169189 -1.16062622 24.95169189 -1.2487793 26.05810547 C-2.39060851 29.00971728 -4.20790165 29.63137171 -7 31 C-9.00391579 31.80436028 -11.02976028 32.55544643 -13.0703125 33.26171875 C-14.21371094 33.65810547 -15.35710937 34.05449219 -16.53515625 34.46289062 C-18.31212891 35.06907227 -18.31212891 35.06907227 -20.125 35.6875 C-21.31738281 36.10322266 -22.50976562 36.51894531 -23.73828125 36.94726562 C-32.61076047 40 -32.61076047 40 -36 40 C-35.63390625 40.41507813 -35.2678125 40.83015625 -34.890625 41.2578125 C-34.34921875 41.87398437 -33.8078125 42.49015625 -33.25 43.125 C-32.61449219 43.84816406 -31.97898437 44.57132813 -31.32421875 45.31640625 C-29.5789329 47.33155142 -27.8554634 49.35839998 -26.14453125 51.40234375 C-16.02482624 64.34292716 -16.02482624 64.34292716 -2 72 C2.65301751 72.35572181 7.27450264 72.28286282 11.9375 72.1875 C13.19369141 72.17396484 14.44988281 72.16042969 15.74414062 72.14648438 C18.82987279 72.11128591 21.91471024 72.06204305 25 72 C22.50694119 67.32837374 20.11313334 63.75520099 16.25 60.0625 C15.05117187 58.90427734 15.05117187 58.90427734 13.828125 57.72265625 C13.22484375 57.15417969 12.6215625 56.58570313 12 56 C16.73222179 47.41809296 21.97168924 39.70967635 28 32 C34.0109296 34.36282762 36.3272658 40.50125317 38.98046875 46.05078125 C44.79394056 60.3041157 44.83348851 78.49953447 40 93 C37.48188086 98.56636862 34.52749339 102.28974517 29 105 C17.81220462 109.06828923 4.01604885 109.93643699 -7 105 C-12.62025089 101.67221987 -17.60727079 97.83200213 -22 93 C-22.4125 93.51949219 -22.825 94.03898438 -23.25 94.57421875 C-31.46064475 104.48930537 -40.41289151 108.29286424 -53.15625 109.56640625 C-97.36821408 113.25415117 -97.36821408 113.25415117 -112.4375 101.625 C-120.59033484 93.27331553 -122.34398647 84.3925237 -122.21875 73.04296875 C-121.61683691 64.66992774 -120.12151793 56.12151793 -114 50 C-111.5625 49.8125 -111.5625 49.8125 -109 50 C-106.31182282 52.68817718 -106.47050445 54.63616999 -106 58.375 C-105.36289024 63.98192943 -105.36289024 63.98192943 -103 69 C-94.18851641 75.75767914 -81.38231187 75.33407651 -70.875 75.25 C-69.70026123 75.24613281 -68.52552246 75.24226562 -67.31518555 75.23828125 C-58.09849792 75.14729592 -49.0993992 74.43742272 -40 73 C-44.20991494 67.27397422 -48.71070857 62.17425341 -53.78125 57.19921875 C-55.90735382 55.09183063 -57.97853501 52.95787057 -60 50.75 C-60.556875 50.14671875 -61.11375 49.5434375 -61.6875 48.921875 C-65.39804472 43.48857737 -63.5962858 36.99816549 -62.625 30.9375 C-62.50511719 29.94427734 -62.38523437 28.95105469 -62.26171875 27.92773438 C-62.10574219 26.97060547 -61.94976563 26.01347656 -61.7890625 25.02734375 C-61.66225098 24.15843506 -61.53543945 23.28952637 -61.40478516 22.39428711 C-57.81769549 16.28052479 -47.3499277 14.66717573 -40.92578125 12.6171875 C-39.99831589 12.31684601 -39.07085052 12.01650452 -38.11528015 11.70706177 C-35.18248422 10.75843263 -32.24757175 9.81656116 -29.3125 8.875 C-27.33253473 8.23613423 -25.35271564 7.59681521 -23.37304688 6.95703125 C-18.96207602 5.53185788 -14.54972272 4.11106338 -10.13589478 2.69476318 C-8.25775085 2.08384112 -6.388221 1.4465694 -4.52026367 0.80517578 C-2 0 -2 0 0 0 Z " fill="#701E72" transform="translate(1040,847)"/>
<path d="M0 0 C5.03103901 1.677013 6.66254577 6.45359033 9 11 C15.29092685 25.85687441 16.75027186 44.18312004 11.9140625 59.75390625 C9.49059497 65.70900809 6.03546885 70.05603221 0.18359375 72.875 C-7.37358155 75.95111049 -15.88922903 76.81383586 -24 76 C-26.296875 74.98828125 -26.296875 74.98828125 -28 74 C-27.938125 75.11375 -27.87625 76.2275 -27.8125 77.375 C-27.8600052 86.35348362 -31.24681559 94.18770664 -37 101 C-47.27520217 111.11746881 -60.90876381 112.26217371 -74.55371094 112.24658203 C-85.96143232 112.10947902 -95.85676485 110.25601936 -105 103 C-111.23433867 96.40350057 -113.91369144 89.56073713 -114.0546875 80.4765625 C-113.51804384 68.97372236 -111.72471715 56.69150412 -105 47 C-102.29120665 45.64560332 -99.99066732 45.93498549 -97 46 C-95.74976914 48.50046173 -95.96061511 50.043726 -96.078125 52.83203125 C-96.10390625 53.79560547 -96.1296875 54.75917969 -96.15625 55.75195312 C-96.21840794 57.78115095 -96.29636217 59.80993058 -96.390625 61.83789062 C-96.56643567 67.88704934 -96.56643567 67.88704934 -93.71875 73.08984375 C-87.61374629 77.37913515 -81.36952339 78.59480284 -74 79 C-73.29101562 79.04125 -72.58203125 79.0825 -71.8515625 79.125 C-62.2594995 79.40202709 -53.29417589 77.9150672 -45 73 C-44.34 72.34 -43.68 71.68 -43 71 C-43.20939969 66.4242291 -45.26398973 64.13805355 -48.3125 60.875 C-49.09238281 60.02679687 -49.87226563 59.17859375 -50.67578125 58.3046875 C-52.68938209 56.30800767 -54.68214549 54.62302856 -57 53 C-55.37317535 47.29676416 -52.66802013 42.31986097 -49.875 37.125 C-49.40707031 36.24585938 -48.93914062 35.36671875 -48.45703125 34.4609375 C-47.3087907 32.30505729 -46.15636097 30.15153223 -45 28 C-41.40009863 29.68782417 -38.98553169 31.7923496 -36.0625 34.5 C-26.84462028 42.1041395 -17.01837037 41.35941096 -5.60546875 40.2890625 C-4.31576172 40.14597656 -4.31576172 40.14597656 -3 40 C-6.03737419 34.84966986 -9.843957 31.15889429 -14.26953125 27.1484375 C-14.84058594 26.43945312 -15.41164063 25.73046875 -16 25 C-15.60237275 21.74200819 -14.18750837 19.47101493 -12.3828125 16.77734375 C-11.85816406 15.99166016 -11.33351563 15.20597656 -10.79296875 14.39648438 C-10.24253906 13.58501953 -9.69210937 12.77355469 -9.125 11.9375 C-8.31095703 10.71450195 -8.31095703 10.71450195 -7.48046875 9.46679688 C-5.17535081 6.03729989 -3.01784601 2.84534982 0 0 Z " fill="#701E72" transform="translate(299,879)"/>
<path d="M0 0 C2.56287996 0.37007103 3.75439082 0.74149634 5.5625 2.64453125 C15.49312998 17.62143245 17.32743933 36.44047071 14.46875 53.96875 C12.68185982 61.66014688 9.74986115 67.55122788 3 72 C-4.52968922 75.83587941 -15.11520264 77.14735043 -23.484375 75.515625 C-23.98453125 75.34546875 -24.4846875 75.1753125 -25 75 C-24.96648437 75.99515625 -24.93296875 76.9903125 -24.8984375 78.015625 C-25.00260164 82.10206425 -25.62599382 85.8096891 -26.625 89.75 C-26.8003125 90.44448242 -26.975625 91.13896484 -27.15625 91.85449219 C-29.23140161 99.54747716 -32.47956112 108.06599295 -39 113 C-42.16830953 113.58364889 -45.29456565 113.512719 -48.5078125 113.4609375 C-49.89055862 113.45956284 -49.89055862 113.45956284 -51.30123901 113.4581604 C-53.24628867 113.45212646 -55.19132912 113.43638666 -57.13623047 113.41162109 C-60.12111427 113.37504761 -63.104759 113.37060222 -66.08984375 113.37109375 C-67.97917744 113.36126504 -69.86850271 113.34960912 -71.7578125 113.3359375 C-73.10155441 113.33259903 -73.10155441 113.33259903 -74.47244263 113.32919312 C-75.30025238 113.31643341 -76.12806213 113.30367371 -76.98095703 113.29052734 C-78.0753862 113.27909195 -78.0753862 113.27909195 -79.19192505 113.26742554 C-81 113 -81 113 -83 111 C-83.625 108.1875 -83.625 108.1875 -83 105 C-80.34087117 102.97906209 -77.93461479 101.54476057 -75 100 C-72.74556193 98.73631377 -70.49546198 97.46689826 -68.25 96.1875 C-67.34942871 95.676427 -67.34942871 95.676427 -66.43066406 95.1550293 C-57.28401731 89.92610671 -48.68947748 84.23715527 -41 77 C-42.22976563 76.90203125 -43.45953125 76.8040625 -44.7265625 76.703125 C-46.35945712 76.55297377 -47.99226548 76.40188228 -49.625 76.25 C-50.83736328 76.1571875 -50.83736328 76.1571875 -52.07421875 76.0625 C-57.37516627 75.54533439 -60.78900542 74.5145859 -65 71 C-71.22958341 60.68896539 -69.38528658 49.11538208 -66.98046875 37.8203125 C-64.91719458 29.78094143 -61.53827815 22.35149021 -54.1796875 17.8984375 C-49.46032563 15.95318082 -43.82263491 16.25157408 -38.9375 17.546875 C-33.32799965 20.2013707 -30.44047275 25.51088557 -28 31 C-27.05915328 34.31322099 -26.42161294 37.58348137 -26 41 C-17.92970447 41.11547323 -10.02332397 40.90041311 -2 40 C-5.03737419 34.84966986 -8.843957 31.15889429 -13.26953125 27.1484375 C-13.84058594 26.43945312 -14.41164063 25.73046875 -15 25 C-14.60306442 22.04703989 -13.51775498 19.9764384 -11.85546875 17.5390625 C-11.42556641 16.90226563 -10.99566406 16.26546875 -10.55273438 15.609375 C-9.87694336 14.62710938 -9.87694336 14.62710938 -9.1875 13.625 C-8.74857422 12.97789062 -8.30964844 12.33078125 -7.85742188 11.6640625 C-6.99094017 10.38687104 -6.12233498 9.11111726 -5.25146484 7.83691406 C-3.48078285 5.23788727 -1.73977159 2.61979592 0 0 Z M-55 44 C-55 45.32 -55 46.64 -55 48 C-52.19842552 48.93385816 -50.34552197 49.16354595 -47.4375 49.1875 C-46.65246094 49.20167969 -45.86742187 49.21585938 -45.05859375 49.23046875 C-42.7756455 49.19167509 -42.7756455 49.19167509 -41 47 C-45.64910681 42.88221968 -49.30353548 40.41333715 -55 44 Z " fill="#701E72" transform="translate(406,879)"/>
<path d="M0 0 C0.01213028 1.2800013 0.01213028 1.2800013 0.02450562 2.58586121 C0.1024992 10.63416357 0.18980434 18.68229974 0.28752708 26.73038769 C0.33743806 30.86783188 0.38376848 35.00525118 0.421875 39.14282227 C0.4587936 43.13703047 0.50517124 47.13102781 0.55806351 51.12505531 C0.57657256 52.64760953 0.59169338 54.17020889 0.60334396 55.69283104 C0.62026645 57.8282358 0.64931496 59.9631613 0.68115234 62.09838867 C0.69447601 63.3130632 0.70779968 64.52773773 0.7215271 65.77922058 C0.99587678 68.95231139 1.54232764 71.18023935 3 74 C9.86786661 77.42696792 18.68315768 75.84866196 26 75 C24.59828464 71.88430595 22.91591092 69.5885044 20.625 67.0625 C17.97072546 64.1217509 15.45521558 61.1095792 13 58 C18.13480663 50.17488245 23.43120815 42.52379324 29 35 C35.0109296 37.36282762 37.3272658 43.50125317 39.98046875 49.05078125 C45.83565496 63.40639008 45.6650671 81.31182383 41.0703125 95.96484375 C38.28672669 102.34789396 34.51121068 106.41174866 28 109 C15.85585969 111.90756143 -1.8843241 113.48021157 -13.2421875 107.2890625 C-19.05466215 103.02658109 -22.0406126 97.91822126 -24 91 C-24.48242786 87.49178245 -24.60072075 84.00251848 -24.6953125 80.46484375 C-24.73308807 79.46852432 -24.77086365 78.4722049 -24.80978394 77.44569397 C-24.92747727 74.27659733 -25.02688903 71.10725752 -25.125 67.9375 C-25.2693312 63.77979921 -25.42012124 59.62233648 -25.5703125 55.46484375 C-25.60551498 54.46519592 -25.64071747 53.4655481 -25.67698669 52.43560791 C-26.14576245 37.5740828 -26.14576245 37.5740828 -28.1875 22.875 C-28.21051146 19.47850884 -27.71491322 17.73180093 -25.32568359 15.28613281 C-20.88129666 11.56938029 -16.09124317 8.40285536 -11.17089844 5.35546875 C-9.26696289 4.16668668 -7.43527942 2.91778744 -5.6015625 1.625 C-3 0 -3 0 0 0 Z " fill="#701E72" transform="translate(1118,844)"/>
<path d="M0 0 C6.34103243 0.1921525 11.15500098 5.2900009 15.5625 9.375 C16.366875 10.24125 17.17125 11.1075 18 12 C18.54398437 12.55042969 19.08796875 13.10085938 19.6484375 13.66796875 C28.94472305 23.5122886 33.4131078 35.45823167 33.3125 48.875 C33.30404053 50.06017212 33.30404053 50.06017212 33.29541016 51.26928711 C33.0895418 61.18460015 30.65424373 69.41656007 24 77 C16.78248017 83.01459986 8.77724814 84.34905051 -0.375 84.3125 C-1.17421875 84.32861328 -1.9734375 84.34472656 -2.796875 84.36132812 C-11.03028779 84.36798946 -18.49597185 82.51880546 -24.55859375 76.6953125 C-30.38008825 69.84835149 -29.74665467 60.55656439 -29.21582031 52.05175781 C-28.73083937 47.44114713 -27.62404227 42.85711658 -25 39 C-22.54296875 37.58984375 -22.54296875 37.58984375 -20 37 C-16.21731567 39.52178955 -15.66519017 41.79267857 -14.0625 45.90625 C-13.05366053 48.31881007 -13.05366053 48.31881007 -10 50 C-5.73474842 51.20126515 -1.45990281 51.14949807 2.9375 51.125 C3.62779297 51.12886719 4.31808594 51.13273438 5.02929688 51.13671875 C9.12408324 51.12895612 12.98358696 50.79196877 17 50 C12.98570226 44.40809886 8.24389254 40.51507495 2.5625 36.75 C1.94238037 36.33830566 1.32226074 35.92661133 0.68334961 35.50244141 C-3.72824969 32.65368015 -8.27176188 30.28295883 -13 28 C-11.26621585 22.10513389 -8.59391176 16.70697508 -5.9375 11.1875 C-5.47794922 10.22134766 -5.01839844 9.25519531 -4.54492188 8.25976562 C-1.13547633 1.13547633 -1.13547633 1.13547633 0 0 Z " fill="#701E72" transform="translate(487,870)"/>
<path d="M0 0 C0.48423511 2.3115374 0.96244112 4.62407371 1.4375 6.9375 C1.70433594 8.22527344 1.97117187 9.51304687 2.24609375 10.83984375 C3.76107985 18.77762377 4.19158985 26.71552316 4.38671875 34.78125 C4.41224319 35.79360718 4.43776764 36.80596436 4.46406555 37.84899902 C4.51580915 39.98358924 4.5652654 42.11823601 4.61254883 44.25292969 C4.68665277 47.46329582 4.7776754 50.67290066 4.86914062 53.8828125 C5.32898616 72.41643498 5.49714009 92.45659468 -4 109 C-4.99 109.99 -4.99 109.99 -6 111 C-8.4375 111 -8.4375 111 -11 110 C-14.27696228 104.82762252 -15.16848812 99.30010998 -16.25 93.375 C-16.45326904 92.28775635 -16.65653809 91.2005127 -16.8659668 90.08032227 C-18.82356038 79.3789552 -20.59211195 68.6440085 -22.33166504 57.90533447 C-22.65047872 55.93753616 -22.97117747 53.97004227 -23.29382324 52.00286865 C-23.75172865 49.1996969 -24.19958339 46.39509811 -24.64453125 43.58984375 C-24.78178116 42.75626846 -24.91903107 41.92269318 -25.06044006 41.06385803 C-27.27746573 26.83266211 -27.27746573 26.83266211 -24.05859375 22.21484375 C-23.19363281 21.46332031 -22.32867188 20.71179688 -21.4375 19.9375 C-20.52226563 19.10476563 -19.60703125 18.27203125 -18.6640625 17.4140625 C-17.78492188 16.61742187 -16.90578125 15.82078125 -16 15 C-14.74569615 13.6267108 -13.51339165 12.2327326 -12.3125 10.8125 C-3.01947556 0 -3.01947556 0 0 0 Z " fill="#701E72" transform="translate(877,844)"/>
<path d="M0 0 C3.81684226 1.55500981 6.19195732 4.03595495 9 7 C12.81684226 5.44499019 15.19195732 2.96404505 18 0 C21.34820898 1.46625856 23.69266359 3.33658447 26.3125 5.875 C27.03050781 6.55304687 27.74851562 7.23109375 28.48828125 7.9296875 C30 10 30 10 29.9375 12.02734375 C28.82305507 14.37232162 27.53467543 15.86405702 25.6875 17.6875 C25.09324219 18.28949219 24.49898437 18.89148438 23.88671875 19.51171875 C21.80824749 21.15125819 20.65416541 21.89652377 18 22 C16.078125 20.56640625 16.078125 20.56640625 14.25 18.5625 C13.32960938 17.57443359 13.32960938 17.57443359 12.390625 16.56640625 C11.93171875 16.04949219 11.4728125 15.53257812 11 15 C10.54109375 15.42152344 10.0821875 15.84304688 9.609375 16.27734375 C8.99578125 16.82519531 8.3821875 17.37304688 7.75 17.9375 C7.14671875 18.48277344 6.5434375 19.02804687 5.921875 19.58984375 C2.63711911 22 2.63711911 22 0 22 C-2.578125 19.91015625 -2.578125 19.91015625 -5.25 17.0625 C-6.14203125 16.12535156 -7.0340625 15.18820312 -7.953125 14.22265625 C-8.62859375 13.48917969 -9.3040625 12.75570312 -10 12 C-7.11954533 7.34695784 -3.96084779 3.78080926 0 0 Z " fill="#701E72" transform="translate(762,864)"/>
<path d="M0 0 C3.76488042 1.72154788 6.15063897 3.99234114 9 7 C12.81684226 5.44499019 15.19195732 2.96404505 18 0 C21.45201639 1.47721422 23.64961936 3.43794001 26.25 6.125 C26.95640625 6.84945312 27.6628125 7.57390625 28.390625 8.3203125 C28.92171875 8.87460937 29.4528125 9.42890625 30 10 C28.67811023 14.02828516 27.13767026 16.1286906 23.875 18.8125 C23.15054688 19.41707031 22.42609375 20.02164063 21.6796875 20.64453125 C21.12539063 21.09183594 20.57109375 21.53914062 20 22 C16.07699728 20.17495091 13.26212728 17.81729174 10 15 C6.04 18.465 6.04 18.465 2 22 C-1.66771845 20.16614077 -3.46834996 18.74937171 -6.25 15.875 C-6.95640625 15.15054688 -7.6628125 14.42609375 -8.390625 13.6796875 C-8.92171875 13.12539063 -9.4528125 12.57109375 -10 12 C-8.52278578 8.54798361 -6.56205999 6.35038064 -3.875 3.75 C-3.15054687 3.04359375 -2.42609375 2.3371875 -1.6796875 1.609375 C-1.12539063 1.07828125 -0.57109375 0.5471875 0 0 Z " fill="#701E72" transform="translate(289,965)"/>
<path d="M0 0 C2.26625012 1.05907926 3.86806633 2.30811104 5.72265625 3.984375 C6.64304687 4.80615234 6.64304687 4.80615234 7.58203125 5.64453125 C8.0409375 6.06605469 8.49984375 6.48757813 8.97265625 6.921875 C9.4315625 6.40496094 9.89046875 5.88804687 10.36328125 5.35546875 C10.976875 4.69675781 11.59046875 4.03804687 12.22265625 3.359375 C12.8259375 2.69808594 13.42921875 2.03679688 14.05078125 1.35546875 C15.97265625 -0.078125 15.97265625 -0.078125 17.91015625 -0.078125 C20.7532439 1.30034174 22.54260443 3.20814443 24.72265625 5.484375 C25.521875 6.31066406 26.32109375 7.13695312 27.14453125 7.98828125 C27.7478125 8.62636719 28.35109375 9.26445313 28.97265625 9.921875 C27.46916248 13.58973893 25.33536833 15.61097893 22.34765625 18.171875 C21.53039062 18.87828125 20.713125 19.5846875 19.87109375 20.3125 C18.93136719 21.10914063 18.93136719 21.10914063 17.97265625 21.921875 C17.51375 21.48875 17.05484375 21.055625 16.58203125 20.609375 C15.9684375 20.0525 15.35484375 19.495625 14.72265625 18.921875 C14.119375 18.365 13.51609375 17.808125 12.89453125 17.234375 C10.81000325 15.54590057 10.81000325 15.54590057 6.97265625 15.921875 C4.77500235 17.20827746 4.77500235 17.20827746 2.72265625 18.921875 C2.01625 19.47875 1.30984375 20.035625 0.58203125 20.609375 C0.0509375 21.0425 -0.48015625 21.475625 -1.02734375 21.921875 C-2.72951355 20.3543232 -4.41374929 18.76727716 -6.08984375 17.171875 C-7.49943359 15.84929688 -7.49943359 15.84929688 -8.9375 14.5 C-11.02734375 11.921875 -11.02734375 11.921875 -11.07421875 9.86328125 C-9.74306507 7.39468655 -8.18425488 5.60801673 -6.21484375 3.609375 C-5.18423828 2.53236328 -5.18423828 2.53236328 -4.1328125 1.43359375 C-2.02734375 -0.078125 -2.02734375 -0.078125 0 0 Z " fill="#701E72" transform="translate(808.02734375,838.078125)"/>
<path d="M0 0 C3.72145804 1.32000435 6.03850305 3.83375314 8.75 6.625 C9.54921875 7.44226563 10.3484375 8.25953125 11.171875 9.1015625 C11.77515625 9.72804688 12.3784375 10.35453125 13 11 C10.33754257 16.53603483 6.91752774 20.31185419 2 24 C-2.29718953 22.61085525 -4.70687757 20.61968015 -7.8125 17.375 C-8.60269531 16.55773437 -9.39289063 15.74046875 -10.20703125 14.8984375 C-10.79871094 14.27195312 -11.39039063 13.64546875 -12 13 C-10.53438126 9.60312324 -8.63352456 7.39277314 -6 4.8125 C-4.948125 3.77029297 -4.948125 3.77029297 -3.875 2.70703125 C-2 1 -2 1 0 0 Z " fill="#701E72" transform="translate(1144,964)"/>
<path d="M0 0 C3.58402695 1.53248049 6.02850134 3.6674601 8.8125 6.375 C9.62332031 7.14585937 10.43414062 7.91671875 11.26953125 8.7109375 C13 11 13 11 13.078125 12.9609375 C11.5089271 15.92876832 9.35033208 17.92879445 6.9375 20.25 C6.01839844 21.14203125 5.09929687 22.0340625 4.15234375 22.953125 C3.44207031 23.62859375 2.73179687 24.3040625 2 25 C-1.53503007 23.00921991 -4.46042925 20.88497465 -7.375 18.0625 C-8.08398438 17.39347656 -8.79296875 16.72445312 -9.5234375 16.03515625 C-11 14 -11 14 -11.04296875 12.07421875 C-9.52519508 9.05572504 -7.36451913 7.08485385 -4.9375 4.75 C-4.01839844 3.85796875 -3.09929687 2.9659375 -2.15234375 2.046875 C-1.44207031 1.37140625 -0.73179687 0.6959375 0 0 Z " fill="#701E72" transform="translate(223,887)"/>
<path d="M0 0 C2.63781667 0.96140205 4.19027187 2.32418397 6.2578125 4.21484375 C6.94101563 4.83230469 7.62421875 5.44976563 8.328125 6.0859375 C9.61742629 7.29430862 10.88332089 8.52785214 12.1328125 9.77734375 C11.99407598 14.03193041 8.97463925 16.23330789 6.0703125 19.02734375 C5.15121094 19.919375 4.23210937 20.81140625 3.28515625 21.73046875 C2.57488281 22.4059375 1.86460938 23.08140625 1.1328125 23.77734375 C-2.45121445 22.24486326 -4.89568884 20.10988365 -7.6796875 17.40234375 C-8.49050781 16.63148438 -9.30132813 15.860625 -10.13671875 15.06640625 C-11.8671875 12.77734375 -11.8671875 12.77734375 -11.84375 10.75 C-10.6547261 8.34817172 -9.22530057 6.57957715 -7.4296875 4.58984375 C-6.81222656 3.89503906 -6.19476562 3.20023438 -5.55859375 2.484375 C-3.64695546 0.55507724 -2.74960774 -0.32788209 0 0 Z " fill="#701E72" transform="translate(1062.8671875,846.22265625)"/>
<path d="M0 0 C3.43758412 1.39488596 5.33696653 3.42384433 7.8828125 6.10546875 C8.76582031 7.02457031 9.64882813 7.94367187 10.55859375 8.890625 C11.55439453 9.95603516 11.55439453 9.95603516 12.5703125 11.04296875 C8.76555828 15.60327699 4.82061629 19.89386267 0.5703125 24.04296875 C-3.11038637 22.50653023 -5.41743954 20.2614593 -8.1796875 17.41796875 C-8.97890625 16.60070312 -9.778125 15.7834375 -10.6015625 14.94140625 C-11.20484375 14.31492187 -11.808125 13.6884375 -12.4296875 13.04296875 C-11.09920911 9.15387807 -9.4793099 6.61217879 -6.6171875 3.66796875 C-5.61751953 2.60449219 -5.61751953 2.60449219 -4.59765625 1.51953125 C-2.4296875 0.04296875 -2.4296875 0.04296875 0 0 Z " fill="#701E72" transform="translate(401.4296875,845.95703125)"/>
</svg>
