<?xml version="1.0" encoding="UTF-8"?>
<svg version="1.1" xmlns="http://www.w3.org/2000/svg" width="479" height="400">
<path d="M0 0 C158.07 0 316.14 0 479 0 C479 132 479 264 479 400 C320.93 400 162.86 400 0 400 C0 268 0 136 0 0 Z " fill="#FEFDFE" transform="translate(0,0)"/>
<path d="M0 0 C6.18471563 -0.99762199 11.84415281 -1.47729077 17.6875 1.1171875 C24.61408488 7.87081531 28.49062457 17.36777118 32.6328125 25.9765625 C35.56837568 32.00434631 39.02151366 37.72239209 42.4666748 43.46862793 C43.5548431 45.29185833 44.62807068 47.12302768 45.69628906 48.95800781 C48.79045406 54.27007723 51.92429557 59.54540525 55.234375 64.7265625 C55.76047363 65.55518799 56.28657227 66.38381348 56.82861328 67.23754883 C57.78043889 68.72385631 58.74642699 70.2012432 59.72998047 71.66674805 C61.61181138 74.60522001 62.73933687 76.45762345 62.46118164 79.99682617 C61.66758176 83.19752044 60.59226771 85.65472876 59.01953125 88.546875 C58.46322021 89.57699707 57.90690918 90.60711914 57.33374023 91.66845703 C56.42603882 93.31370361 56.42603882 93.31370361 55.5 94.9921875 C54.87359619 96.14187012 54.24719238 97.29155273 53.60180664 98.47607422 C48.85957438 107.14813426 43.90169995 115.6886141 38.87915039 124.20117188 C33.61057504 133.1600384 28.66171718 142.27554917 23.75 151.43359375 C20.46460346 157.55628369 17.08650605 163.62550011 13.66894531 169.67529297 C12.10288783 172.46595171 10.70217673 175.0731573 9.6875 178.1171875 C15.17859117 178.98126784 20.49820294 179.45444495 25.6875 177.1171875 C30.54211888 172.5536794 33.25401524 166.03267235 36.16601562 160.14257812 C38.77856724 154.94765842 41.69585469 149.92478584 44.5625 144.8671875 C45.73805264 142.7571081 46.91252364 140.64642577 48.0859375 138.53515625 C51.71394671 132.04068219 55.43459102 125.60264634 59.1875 119.1796875 C59.75065918 118.21579102 60.31381836 117.25189453 60.89404297 116.25878906 C61.96389719 114.43304917 63.03809904 112.6098481 64.1171875 110.78955078 C65.20416145 108.93973473 66.27060029 107.07775543 67.3203125 105.20654297 C67.84367188 104.2888916 68.36703125 103.37124023 68.90625 102.42578125 C69.36966797 101.59747803 69.83308594 100.7691748 70.31054688 99.91577148 C70.76494141 99.32223877 71.21933594 98.72870605 71.6875 98.1171875 C72.6775 98.1171875 73.6675 98.1171875 74.6875 98.1171875 C76.19598909 100.16206242 77.46822765 102.13042875 78.734375 104.3203125 C79.10983459 104.95451111 79.48529419 105.58870972 79.87213135 106.24212646 C80.6642775 107.5873668 81.45073103 108.93597284 82.23193359 110.28759766 C83.43031335 112.35479061 84.65304595 114.40604423 85.87890625 116.45703125 C86.64474875 117.76473626 87.40912125 119.07330349 88.171875 120.3828125 C88.53947937 120.99650696 88.90708374 121.61020142 89.28582764 122.24249268 C91.73490265 126.53944781 91.73490265 126.53944781 91.50561523 129.33398438 C90.09900032 132.39990957 88.59283847 135.39528624 87 138.3671875 C86.60554687 139.10678711 86.21109375 139.84638672 85.8046875 140.60839844 C80.67933163 150.11523254 75.17431864 159.40302624 69.69091797 168.70605469 C67.91400795 171.73152224 66.1474373 174.76257296 64.38674927 177.79748535 C62.87939314 180.39549308 61.36853042 182.99145375 59.85742188 185.58728027 C59.13059161 186.83752126 58.40512243 188.08855471 57.68115234 189.3404541 C46.99393657 207.81075093 46.99393657 207.81075093 42.6875 212.1171875 C39.8668416 212.32955941 37.06859698 212.47636046 34.24316406 212.57983398 C32.91364464 212.63306068 32.91364464 212.63306068 31.55726624 212.68736267 C23.34115022 212.99934969 15.12236254 213.18880958 6.90184402 213.33918667 C1.37950311 213.44253392 -4.13479602 213.58713098 -9.65283203 213.83178711 C-45.2751644 215.37220274 -45.2751644 215.37220274 -53.54467773 210.02862549 C-58.2697204 205.01572645 -60.60784005 199.45819335 -62.44250488 192.89138794 C-63.59101221 189.22908056 -65.37370734 186.14769805 -67.35443115 182.87791443 C-68.3125 181.1171875 -68.3125 181.1171875 -68.3125 179.1171875 C-54.1225 179.1171875 -39.9325 179.1171875 -25.3125 179.1171875 C-24.6525 177.4671875 -23.9925 175.8171875 -23.3125 174.1171875 C-21.9072312 171.79692624 -20.4744513 169.51730352 -19 167.2421875 C-3.72938341 143.22131001 9.56253811 117.72566859 22.50439453 92.390625 C23.48215168 90.51178172 24.52751507 88.66829088 25.58984375 86.8359375 C26.98489805 83.3805717 26.55462748 81.72128063 25.6875 78.1171875 C24.30041241 75.16375197 24.30041241 75.16375197 22.46875 72.20703125 C22.13895142 71.65049362 21.80915283 71.09395599 21.46936035 70.52055359 C20.38400853 68.69331471 19.28579589 66.87417002 18.1875 65.0546875 C17.42219374 63.77125643 16.65788699 62.48722887 15.89453125 61.20263672 C14.30196298 58.52424904 12.70508318 55.8485012 11.10546875 53.17431641 C7.62089494 47.33933526 4.19911281 41.46769973 0.77218628 35.59875488 C-5.18790911 25.39735481 -11.18758793 15.22067493 -17.3125 5.1171875 C-15.75688142 3.29480464 -14.80385879 2.23401317 -12.4375 1.67138672 C-11.73625 1.63029785 -11.035 1.58920898 -10.3125 1.546875 C-6.77851909 1.28282554 -3.46422022 0.74322814 0 0 Z " fill="#AE0308" transform="translate(293.3125,0.8828125)"/>
<path d="M0 0 C1.56047445 0.00015913 3.12095416 0.00585397 4.68139648 0.01586914 C5.5012352 0.01728409 6.32107391 0.01869904 7.16575623 0.02015686 C9.79470406 0.0257725 12.42356797 0.0383276 15.05249023 0.05102539 C16.8304838 0.05603838 18.60847869 0.06060163 20.38647461 0.06469727 C24.75434569 0.07574701 29.12215371 0.09302208 33.48999023 0.11352539 C32.94404794 3.53904569 32.19841776 5.98477657 30.26733398 8.86352539 C29.81455078 9.54817871 29.36176758 10.23283203 28.89526367 10.93823242 C28.41089844 11.6560791 27.9265332 12.37392578 27.42749023 13.11352539 C26.43084707 14.63139395 25.43475879 16.14962699 24.43920898 17.66821289 C23.02623777 19.80534907 21.60857694 21.93839141 20.17211914 24.05981445 C19.01163582 25.77579417 17.87436041 27.50522227 16.73999023 29.23852539 C15.75772461 30.69645508 15.75772461 30.69645508 14.75561523 32.18383789 C13.07601072 36.0718113 13.41353723 38.02997695 14.48999023 42.11352539 C15.69955757 45.03463417 17.15627458 47.78144329 18.67749023 50.55102539 C19.11528809 51.36450439 19.55308594 52.1779834 20.00415039 53.01611328 C25.90082263 63.86611258 32.19196711 74.49343472 38.48999023 85.11352539 C39.00851563 85.99186035 39.52704102 86.87019531 40.0612793 87.77514648 C45.86876064 97.60624764 51.82821846 107.3356118 57.92749023 116.98852539 C58.79664063 118.37128662 58.79664063 118.37128662 59.68334961 119.78198242 C60.23700195 120.65193848 60.7906543 121.52189453 61.36108398 122.41821289 C61.84504639 123.18117676 62.32900879 123.94414062 62.82763672 124.73022461 C63.37621338 125.51671387 63.92479004 126.30320312 64.48999023 127.11352539 C65.50860138 128.64834564 65.50860138 128.64834564 66.54779053 130.21417236 C68.71013858 132.76873195 70.1383837 133.55722732 73.470047 133.87301636 C75.05549873 133.90797185 76.64188062 133.91027375 78.22753906 133.88647461 C79.09633698 133.89710434 79.96513489 133.90773407 80.86026001 133.91868591 C83.72310432 133.94672189 86.58410288 133.93268205 89.44702148 133.91821289 C91.43529367 133.92946354 93.42355258 133.9433444 95.41178894 133.95974731 C100.63813293 133.99580474 105.86389217 133.99615633 111.09033203 133.98907471 C116.42613199 133.98816222 121.76171232 134.0210143 127.09741211 134.05102539 C137.56166605 134.10490592 148.02561291 134.12106722 158.48999023 134.11352539 C158.18522474 135.55538801 157.87616892 136.99634423 157.56530762 138.43690491 C157.39366341 139.23943223 157.2220192 140.04195955 157.04517365 140.86880589 C156.37085784 143.5952019 155.33391126 145.85234252 153.95874023 148.29711914 C153.47791992 149.16143555 152.99709961 150.02575195 152.50170898 150.91625977 C152.0028418 151.78573242 151.50397461 152.65520508 150.98999023 153.55102539 C150.49112305 154.44756836 149.99225586 155.34411133 149.47827148 156.26782227 C145.80936147 162.79415416 145.80936147 162.79415416 143.48999023 165.11352539 C140.66146415 165.34371097 137.92851231 165.44906712 135.09643555 165.4675293 C134.2279599 165.48067169 133.35948425 165.49381409 132.46469116 165.50735474 C129.58249589 165.54686601 126.7005093 165.57015608 123.81811523 165.59008789 C122.83450768 165.59823895 121.85090012 165.60639 120.83748627 165.61478806 C115.63051692 165.65653065 110.4236533 165.68512356 105.21655273 165.70385742 C99.83788223 165.72598184 94.46086787 165.7947647 89.08278275 165.87420082 C84.94774303 165.92650087 80.81309864 165.94323787 76.67775726 165.95042038 C74.69534886 165.96016259 72.71295874 165.98342163 70.73087311 166.02049637 C67.95295832 166.06922303 65.1793346 166.06736856 62.40112305 166.0534668 C61.58427032 166.07908691 60.7674176 166.10470703 59.92581177 166.13110352 C56.36171755 166.06620083 54.31643085 165.90394841 51.67768097 163.38019943 C50.13495157 161.35049162 48.78702288 159.30675696 47.48999023 157.11352539 C46.8209668 156.07454102 46.15194336 155.03555664 45.46264648 153.96508789 C44.83229492 152.90032227 44.20194336 151.83555664 43.55249023 150.73852539 C42.99960327 149.8070166 42.99960327 149.8070166 42.43554688 148.85668945 C38.05862185 141.44756261 33.7917257 133.97359789 29.50097656 126.5144043 C22.27978075 113.9783152 14.91358959 101.53082447 7.48999023 89.11352539 C6.91603516 88.1515625 6.34208008 87.18959961 5.75073242 86.19848633 C4.21187624 83.62458249 2.66541736 81.05547159 1.11499023 78.48852539 C0.66865234 77.7421582 0.22231445 76.99579102 -0.23754883 76.22680664 C-2.27734538 72.57494662 -2.27734538 72.57494662 -5.51000977 70.11352539 C-6.551164 71.80955055 -7.56719354 73.52101476 -8.57250977 75.23852539 C-9.42522461 76.66551758 -9.42522461 76.66551758 -10.29516602 78.12133789 C-11.77285577 81.76092101 -11.41426478 83.32838044 -10.51000977 87.11352539 C-9.26379438 89.94841964 -9.26379438 89.94841964 -7.62329102 92.76196289 C-7.02178223 93.83736328 -6.42027344 94.91276367 -5.80053711 96.02075195 C-5.14778809 97.16511719 -4.49503906 98.30948242 -3.82250977 99.48852539 C-3.14175018 100.6962043 -2.46158306 101.90421736 -1.78198242 103.11254883 C3.16753905 111.88824664 8.23393885 120.59618937 13.3293457 129.2878418 C17.5308705 136.45500777 21.6910501 143.64426989 25.80249023 150.86352539 C26.3601709 151.83451172 26.91785156 152.80549805 27.49243164 153.8059082 C28.25885986 155.15700684 28.25885986 155.15700684 29.04077148 156.53540039 C29.49105713 157.32527344 29.94134277 158.11514648 30.40527344 158.92895508 C31.43328425 160.99932211 32.03294042 162.85561569 32.48999023 165.11352539 C27.49157723 165.36189849 22.49679289 165.54267798 17.49365234 165.6628418 C15.79477359 165.71294668 14.09632222 165.78105885 12.39892578 165.86791992 C-1.55270832 166.56365996 -1.55270832 166.56365996 -5.96069336 163.29785156 C-7.84834156 160.66743055 -9.16319615 158.05628804 -10.51000977 155.11352539 C-11.71535886 153.05483919 -12.93479583 151.00435365 -14.16625977 148.96118164 C-15.45300793 146.70258641 -16.73402182 144.44071699 -18.01000977 142.17602539 C-18.70447757 140.95085317 -19.39922614 139.72584007 -20.09423828 138.50097656 C-22.24190028 134.710241 -24.37754555 130.91282666 -26.51000977 127.11352539 C-26.85151062 126.50549072 -27.19301147 125.89745605 -27.54486084 125.27099609 C-31.68458935 117.89726734 -35.79195705 110.50629182 -39.86499023 103.09545898 C-41.39089245 100.32944984 -42.9346745 97.57424104 -44.48266602 94.82055664 C-45.32603532 93.29372147 -46.16855885 91.76641864 -47.01000977 90.23852539 C-47.39020264 89.57312744 -47.77039551 88.90772949 -48.16210938 88.22216797 C-49.55177314 85.66076728 -50.51000977 83.64656212 -50.51000977 80.70336914 C-49.00100719 76.79528824 -47.05683107 73.20188476 -45.01000977 69.55102539 C-44.52935059 68.68533936 -44.04869141 67.81965332 -43.5534668 66.92773438 C-38.65821025 58.20886906 -33.45088867 49.68016651 -28.22875977 41.1550293 C-21.93977817 30.88042713 -15.83479024 20.50382838 -9.77905273 10.09033203 C-9.432164 9.49492615 -9.08527527 8.89952026 -8.72787476 8.28607178 C-7.78853195 6.67318756 -6.85134567 5.05904794 -5.91430664 3.44482422 C-3.91554386 0.12664171 -3.91554386 0.12664171 0 0 Z " fill="#AD0207" transform="translate(167.510009765625,88.886474609375)"/>
<path d="M0 0 C1.90644035 -0.00472824 1.90644035 -0.00472824 3.85139465 -0.009552 C5.25989821 -0.00775708 6.66840145 -0.00570488 8.0769043 -0.00341797 C9.53297441 -0.00409281 10.98904441 -0.00506434 12.44511414 -0.00631714 C15.52299047 -0.0077982 18.60083795 -0.00563492 21.67871094 -0.00097656 C24.77866546 0.00349656 27.8785614 0.0036779 30.97851562 -0.00097656 C39.19952883 -0.01294299 47.41865927 0.00842557 55.63929939 0.09215927 C59.86678268 0.13018073 64.08839187 0.11054217 68.31537724 0.0376339 C71.50404747 -0.00745917 74.6926608 0.00842725 77.8815918 0.01220703 C79.59032219 -0.04279465 79.59032219 -0.04279465 81.33357239 -0.09890747 C88.90070828 -0.01053458 88.90070828 -0.01053458 92.28820801 3.24012756 C94.11169313 5.79342005 95.63463343 8.35153712 97.08862305 11.12939453 C97.67659668 12.11061279 98.26457031 13.09183105 98.87036133 14.1027832 C99.50820557 15.31285034 99.50820557 15.31285034 100.15893555 16.54736328 C100.90445679 17.94547241 100.90445679 17.94547241 101.66503906 19.37182617 C102.17607178 20.34369873 102.68710449 21.31557129 103.21362305 22.31689453 C107.58135084 30.50947947 112.04237892 38.63249384 116.65112305 46.69189453 C121.18913742 54.66068643 125.57994788 62.69520789 129.83862305 70.81689453 C130.35239502 71.79150635 130.86616699 72.76611816 131.39550781 73.77026367 C131.86657959 74.67639404 132.33765137 75.58252441 132.82299805 76.51611328 C133.23775391 77.31235107 133.65250977 78.10858887 134.07983398 78.92895508 C135.0444981 81.03314618 135.75053321 82.83991571 136.08862305 85.12939453 C134.7878418 87.76611328 134.7878418 87.76611328 132.77612305 90.81689453 C132.03553033 91.95862767 131.29737684 93.10194561 130.5612793 94.24658203 C130.16312012 94.86243164 129.76496094 95.47828125 129.35473633 96.11279297 C127.98114586 98.30057878 126.6836703 100.52212307 125.3972168 102.76220703 C124.95095947 103.53862549 124.50470215 104.31504395 124.04492188 105.11499023 C123.16376277 106.65511996 122.28722126 108.1979016 121.41552734 109.7434082 C120.36113185 111.57132117 119.23156361 113.3554998 118.08862305 115.12939453 C117.42862305 115.12939453 116.76862305 115.12939453 116.08862305 115.12939453 C115.76176514 114.49549805 115.43490723 113.86160156 115.09814453 113.20849609 C111.46062413 106.16499782 107.78995609 99.13956864 104.08862305 92.12939453 C103.7009375 91.39188965 103.31325195 90.65438477 102.91381836 89.89453125 C102.01075552 88.1924026 101.08248941 86.50370251 100.15112305 84.81689453 C99.66772461 83.93388672 99.18432617 83.05087891 98.6862793 82.14111328 C95.465002 78.08498173 91.18647385 77.9188635 86.27015305 77.3335762 C82.84677335 77.01316283 79.43009105 76.99011822 75.99536133 77 C75.2299704 76.99824768 74.46457947 76.99649536 73.67599487 76.99468994 C71.17028469 76.99032394 68.66464633 76.99319138 66.15893555 76.99658203 C64.40070584 76.99590735 62.64247622 76.99493595 60.88424683 76.99368286 C57.20773425 76.99221288 53.53124606 76.99433741 49.85473633 76.99902344 C45.16565566 77.00471185 40.47663235 77.00144288 35.78755379 76.99545097 C32.15851416 76.99181926 28.5294879 76.99299604 24.90044785 76.99557877 C23.17265694 76.99624126 21.44486479 76.99544355 19.71707535 76.99309921 C7.80829405 76.9533557 7.80829405 76.9533557 -4.05456543 77.90577698 C-6.55421279 78.20681185 -9.0212514 78.2278249 -11.53637695 78.19189453 C-12.37426758 78.18287109 -13.2121582 78.17384766 -14.07543945 78.16455078 C-14.68129883 78.15294922 -15.2871582 78.14134766 -15.91137695 78.12939453 C-16.18054932 78.84514648 -16.44972168 79.56089844 -16.72705078 80.29833984 C-17.92336073 83.15804096 -19.30989312 85.74332689 -20.8605957 88.42626953 C-21.75041138 89.96891479 -21.75041138 89.96891479 -22.65820312 91.54272461 C-23.29862549 92.64382568 -23.93904785 93.74492676 -24.59887695 94.87939453 C-25.27122255 96.04040908 -25.94350338 97.20146114 -26.61572266 98.36254883 C-31.8048567 107.30651385 -37.1169726 116.17447693 -42.46118164 125.02661133 C-48.44765217 134.96462878 -54.21199305 145.02454962 -59.91137695 155.12939453 C-64.91251106 154.09651669 -66.13358497 151.52219313 -68.8918457 147.36376953 C-71.27905282 143.5405442 -73.63413548 139.70668118 -75.91137695 135.81689453 C-76.32154053 135.13554443 -76.7317041 134.45419434 -77.15429688 133.75219727 C-79.97321866 128.80677377 -79.97321866 128.80677377 -79.69116211 125.71728516 C-78.82356591 122.83797402 -77.63821387 120.6458426 -76.05981445 118.08642578 C-75.46354248 117.10851074 -74.86727051 116.1305957 -74.25292969 115.12304688 C-73.60396729 114.0732666 -72.95500488 113.02348633 -72.28637695 111.94189453 C-70.90806504 109.68136377 -69.53142991 107.41990782 -68.1574707 105.15673828 C-67.8044136 104.5764386 -67.45135651 103.99613892 -67.08760071 103.39825439 C-63.40358589 97.32688462 -59.87386476 91.16917558 -56.34887695 85.00439453 C-51.35690219 76.31612225 -46.31753667 67.65892117 -41.16137695 59.06689453 C-40.57670654 58.07866699 -39.99203613 57.09043945 -39.38964844 56.07226562 C-38.8451001 55.1720166 -38.30055176 54.27176758 -37.73950195 53.34423828 C-37.26416016 52.55138428 -36.78881836 51.75853027 -36.29907227 50.94165039 C-34.91137695 49.12939453 -34.91137695 49.12939453 -31.91137695 48.12939453 C-30.41387269 48.04043954 -28.91269489 48.00741373 -27.41255188 48.00914001 C-26.4912851 48.00776535 -25.57001831 48.00639069 -24.62083435 48.00497437 C-23.61238968 48.00856964 -22.60394501 48.01216492 -21.56494141 48.01586914 C-20.50136414 48.01572311 -19.43778687 48.01557709 -18.34197998 48.01542664 C-14.81951878 48.01612441 -11.29711019 48.02391052 -7.7746582 48.03173828 C-5.33513925 48.03360294 -2.89561992 48.03502662 -0.45610046 48.036026 C5.9702355 48.0398474 12.39654893 48.04967449 18.82287598 48.06072998 C25.37825211 48.0709522 31.93363187 48.07552536 38.48901367 48.08056641 C51.35555976 48.09129707 64.2220902 48.10817725 77.08862305 48.12939453 C76.04779416 45.80477671 74.9832116 43.49721362 73.90112305 41.19189453 C73.60915039 40.53253906 73.31717773 39.87318359 73.01635742 39.19384766 C71.25841123 35.41561782 71.25841123 35.41561782 67.8964386 33.20082092 C66.96985947 33.17725021 66.04328033 33.1536795 65.08862305 33.12939453 C63.11849495 33.05107643 63.11849495 33.05107643 61.10856628 32.97117615 C59.52279089 32.950636 57.93694302 32.935282 56.35107422 32.92407227 C55.48227631 32.91417267 54.61347839 32.90427307 53.71835327 32.89407349 C50.85612685 32.86256943 47.99388386 32.83774502 45.1315918 32.81298828 C43.14333167 32.79240917 41.15507583 32.77141245 39.16682434 32.75001526 C33.94067864 32.69489345 28.7144941 32.64544062 23.48828125 32.59716797 C18.15255284 32.54688064 12.81688065 32.49123236 7.48120117 32.43603516 C-2.98294349 32.32857459 -13.44713701 32.22710284 -23.91137695 32.12939453 C-22.50553505 27.73587365 -20.8640167 24.06188414 -18.4699707 20.10986328 C-17.80416992 19.00578125 -17.13836914 17.90169922 -16.45239258 16.76416016 C-15.9347937 15.91591675 -15.9347937 15.91591675 -15.40673828 15.05053711 C-14.34316195 13.30752869 -13.28770294 11.55981156 -12.23364258 9.81103516 C-6.29672467 0.00446755 -6.29672467 0.00446755 0 0 Z " fill="#AD0207" transform="translate(173.911376953125,-0.12939453125)"/>
<path d="M0 0 C9.67208807 5.49115502 16.58034772 13.77213484 19.56640625 24.45703125 C20.692472 36.2414403 19.06077476 46.08907061 11.56640625 55.45703125 C5.42420991 61.82308896 -2.41590467 67.05482067 -11.47265625 67.66015625 C-23.69029815 67.81986399 -31.42199344 65.94240672 -40.43359375 57.45703125 C-48.63570952 48.74625713 -51.058512 40.79270839 -50.7890625 28.8984375 C-49.73171391 18.66190884 -44.32208773 10.59576822 -36.59375 4.06640625 C-26.01447929 -3.81543739 -12.16364682 -5.13012228 0 0 Z " fill="#43F2C6" transform="translate(254.43359375,95.54296875)"/>
<path d="M0 0 C0.37808153 7.02601506 -1.66634851 12.46663707 -6 18 C-9.86368438 20.02976967 -13.70535779 20.44679185 -18 21 C-20.07085838 21.39459265 -22.13246772 21.82434146 -24.19555664 22.25756836 C-27.12416443 22.87043566 -30.06202085 23.43407779 -33 24 C-31.73017321 26.73276089 -30.58180718 28.48253018 -28.5625 30.8125 C-24.78887061 35.29158533 -22.64051853 39.55500859 -23.125 45.5 C-23.66966928 49.92337475 -25.10563085 52.57980531 -27 57 C-7.2 57 12.6 57 33 57 C27.25682176 71.3579456 27.25682176 71.3579456 21 75 C13.18250946 77.03793773 4.9196931 76.53180429 -3.08813477 76.25537109 C-6.95214382 76.12450404 -10.80779788 76.09138258 -14.67382812 76.07421875 C-17.1250926 76.03690453 -19.57628137 75.9941295 -22.02734375 75.9453125 C-23.18354721 75.93033722 -24.33975067 75.91536194 -25.5309906 75.89993286 C-26.59962845 75.85835052 -27.6682663 75.81676819 -28.76928711 75.77392578 C-29.70953232 75.74581818 -30.64977753 75.71771057 -31.61851501 75.68875122 C-34 75 -34 75 -35.70191956 72.45162964 C-36.1302861 71.64259186 -36.55865265 70.83355408 -37 70 C-37.66 70 -38.32 70 -39 70 C-39.35835938 70.81339844 -39.71671875 71.62679687 -40.0859375 72.46484375 C-42 75 -42 75 -45.9140625 75.62890625 C-47.48449457 75.63960424 -49.05543503 75.6157647 -50.625 75.5625 C-51.43880127 75.54445313 -52.25260254 75.52640625 -53.09106445 75.5078125 C-61.61192628 75.16626077 -67.04946924 73.39332982 -72.9375 67.0625 C-75.24491565 64.20493664 -76.99263025 61.58175912 -78 58 C-81.96742285 59.27460191 -83.04270353 61.72334326 -85.09667969 65.15576172 C-87.57597337 68.97508618 -89.92329654 71.841468 -94 74 C-103.79839477 75.83429016 -114.13358489 74.85508931 -124 74 C-122.67906565 71.6587378 -121.34555562 69.32702677 -120 67 C-119.46503906 66.06414062 -118.93007812 65.12828125 -118.37890625 64.1640625 C-115.70565715 60.42726269 -113.4101212 57.40771971 -108.65917969 56.60400391 C-104.97006307 56.39829362 -101.30080832 56.42953123 -97.60742188 56.46362305 C-92.06947092 56.43625391 -92.06947092 56.43625391 -87.0703125 54.25 C-85.05999653 51.93461662 -83.52979529 49.65330348 -82 47 C-80.84831985 45.46778658 -79.68256166 43.9460069 -78.5 42.4375 C-77.66243397 41.29475698 -76.8273591 40.15015451 -76 39 C-71.125 39.875 -71.125 39.875 -70 41 C-69.87625 42.258125 -69.7525 43.51625 -69.625 44.8125 C-69.23536127 48.38312381 -68.41652165 50.26827987 -66 53 C-66 53.66 -66 54.32 -66 55 C-65.21625 55.309375 -64.4325 55.61875 -63.625 55.9375 C-61 57 -61 57 -59 58 C-49.48015011 58.74558243 -49.48015011 58.74558243 -41 55 C-38.47276515 52.05155934 -37.80726682 49.72776772 -37.6875 45.9375 C-37.92332801 41.57458777 -37.92332801 41.57458777 -40 38 C-42.3430809 36.87914688 -42.3430809 36.87914688 -45 36 C-45.804375 35.505 -46.60875 35.01 -47.4375 34.5 C-50.21409071 32.87467861 -52.92797226 31.92875257 -56 31 C-54.69733884 23.64135027 -53.18089778 16.70086682 -47 12 C-39.00944335 8.59032091 -30.38102071 6.95411314 -21.89230347 5.25257874 C-16.05603432 4.07171893 -10.40358853 2.47213622 -4.69970703 0.75634766 C-2 0 -2 0 0 0 Z " fill="#AF070C" transform="translate(166,306)"/>
<path d="M0 0 C-2.08554715 6.88333296 -5.06895257 12.71129944 -10 18 C-14.19977565 20.15942073 -18.3906343 21.07920382 -23 22 C-25.10791522 22.56963899 -27.21247556 23.15192603 -29.3125 23.75 C-30.87440673 24.16888511 -32.43667114 24.58645409 -34 25 C-33.32135811 28.96326862 -32.04460235 31.99111612 -30.16796875 35.5546875 C-28.26989729 39.52857624 -26.88570095 43.69481191 -25.44140625 47.8515625 C-23.10027962 53.14387989 -23.10027962 53.14387989 -19 57 C-14.89609129 57.87252914 -10.87157893 57.8847816 -6.6875 57.875 C-5.56537109 57.895625 -4.44324219 57.91625 -3.28710938 57.9375 C-0.52399707 57.9845317 2.2365698 58.00444741 5 58 C3.45950493 62.04055922 1.6095846 65.24005101 -0.9375 68.75 C-1.62714844 69.71421875 -2.31679688 70.6784375 -3.02734375 71.671875 C-5.21601492 74.25494039 -6.59927561 74.79948731 -9.91015625 75.2734375 C-17.66252183 75.63924785 -23.60325761 72.97834301 -29.41015625 67.88671875 C-31.33753456 65.97293747 -33.19644641 64.03025725 -35 62 C-35.680625 62.680625 -36.36125 63.36125 -37.0625 64.0625 C-37.53239853 64.51463364 -38.00229706 64.96676727 -38.48643494 65.43260193 C-40.04305071 66.97298538 -40.04305071 66.97298538 -41.30958557 68.79408264 C-43.91577288 72.0683802 -45.88960473 73.77709698 -50.05978394 74.61422729 C-53.87331933 74.80983138 -57.6509991 74.78836032 -61.46484375 74.68359375 C-62.8672894 74.67051999 -64.26976727 74.66056421 -65.67225647 74.65357971 C-69.34410584 74.62699165 -73.01398278 74.55835769 -76.68505859 74.48065186 C-80.43885621 74.4087373 -84.19297608 74.37700864 -87.94726562 74.34179688 C-95.29907139 74.26697042 -102.6492582 74.14767788 -110 74 C-107.33554594 67.11158928 -103.8836131 61.21512438 -97 58 C-88.03913305 56.10100182 -78.59883235 56.8211 -69.5 57.0625 C-65.75283754 57.12378312 -62.00649602 57.16937232 -58.25891113 57.19371033 C-55.93591336 57.21270418 -53.61296432 57.25518776 -51.29089355 57.32350159 C-49.72280945 57.34718056 -49.72280945 57.34718056 -48.12304688 57.37133789 C-47.20358276 57.3956337 -46.28411865 57.4199295 -45.33679199 57.44496155 C-42.85808104 57.2071272 -42.85808104 57.2071272 -41.24230957 55.16429138 C-39.45465452 52.04992561 -38.86161509 49.53361694 -38.875 46 C-38.87242187 45.319375 -38.86984375 44.63875 -38.8671875 43.9375 C-38.93368874 41.78125219 -38.93368874 41.78125219 -40 39 C-42.30060765 37.90727687 -42.30060765 37.90727687 -45 37 C-47.54998117 35.73876124 -50.07295321 34.43207206 -52.59765625 33.12109375 C-54.7482449 32.11748571 -56.68410504 31.47601536 -59 31 C-57.30737035 23.08746619 -54.79176401 15.83163167 -48 11 C-38.68750374 7.00287984 -28.06102733 5.74314143 -18.12724304 4.1053772 C-12.11607955 3.09829812 -5.94820603 0 0 0 Z " fill="#AF060B" transform="translate(430,306)"/>
<path d="M0 0 C-0.42036054 5.88504763 -1.32973708 11.21357493 -5 16 C-9.28206343 19.35063649 -13.25794853 20.9075234 -18.5 22.25 C-20.40265625 22.75273437 -20.40265625 22.75273437 -22.34375 23.265625 C-25.68909282 23.93755283 -28.60297829 24.14678489 -32 24 C-31.36771484 24.92232422 -31.36771484 24.92232422 -30.72265625 25.86328125 C-30.17480469 26.67152344 -29.62695312 27.47976563 -29.0625 28.3125 C-28.24458984 29.51326172 -28.24458984 29.51326172 -27.41015625 30.73828125 C-23.77871834 36.56266505 -24.40294932 43.38268826 -25 50 C-27.33048729 58.50152252 -33.52465165 64.34953679 -40 70 C-40.54140625 70.50015625 -41.0828125 71.0003125 -41.640625 71.515625 C-47.43037014 75.84269768 -56.19573899 74.78537436 -63 74 C-70.22062883 71.65085988 -74.77790742 65.28759475 -78.1640625 58.75390625 C-78.43992187 58.17511719 -78.71578125 57.59632813 -79 57 C-79.75925781 57.97582031 -80.51851563 58.95164062 -81.30078125 59.95703125 C-82.30458124 61.2422705 -83.30849338 62.52742216 -84.3125 63.8125 C-84.81201172 64.45509766 -85.31152344 65.09769531 -85.82617188 65.75976562 C-86.31279297 66.38173828 -86.79941406 67.00371094 -87.30078125 67.64453125 C-87.96847534 68.50075073 -87.96847534 68.50075073 -88.6496582 69.37426758 C-89.095271 69.91075928 -89.54088379 70.44725098 -90 71 C-90.40476562 71.55816406 -90.80953125 72.11632812 -91.2265625 72.69140625 C-94.04428576 74.77056328 -96.62924582 74.33515209 -100.07421875 74.29296875 C-100.7580513 74.28872391 -101.44188385 74.28447906 -102.1464386 74.28010559 C-104.32719561 74.26333353 -106.50702309 74.22568657 -108.6875 74.1875 C-110.16730435 74.17245114 -111.6471232 74.15876308 -113.12695312 74.14648438 C-116.75160336 74.11343569 -120.37571094 74.06166446 -124 74 C-123.02593284 72.28647971 -122.05043898 70.57374629 -121.06591797 68.86621094 C-120.2198092 67.38484231 -119.40337906 65.88652916 -118.59765625 64.3828125 C-116.59408586 61.43608556 -115.10112419 59.82657839 -112 58 C-108.59756563 57.66215899 -105.22455823 57.86297798 -101.8125 58 C-94.88717142 58.25100806 -94.88717142 58.25100806 -88.796875 55.35595703 C-84.93062726 51.26043623 -81.89231511 46.64223934 -79.0871582 41.77172852 C-78 40 -78 40 -76 38 C-73.375 38.375 -73.375 38.375 -71 39 C-70.74605469 39.80824219 -70.49210937 40.61648438 -70.23046875 41.44921875 C-69.88628906 42.51785156 -69.54210937 43.58648437 -69.1875 44.6875 C-68.85105469 45.74324219 -68.51460938 46.79898438 -68.16796875 47.88671875 C-66.76269599 51.63254614 -65.52853891 54.87477846 -62.23828125 57.296875 C-55.3272259 59.46788715 -45.60306628 59.08143093 -39 56 C-36.49875428 53.17601289 -36.04286349 51.29468649 -35.5 47.5625 C-36.1154572 43.17736748 -37.67128718 40.77258404 -41 38 C-45.96898504 34.86392415 -51.51825062 33.0334598 -57 31 C-55.52430274 27.8525276 -54.04386446 24.70730861 -52.5625 21.5625 C-52.14162109 20.66466797 -51.72074219 19.76683594 -51.28710938 18.84179688 C-50.88427734 17.98779297 -50.48144531 17.13378906 -50.06640625 16.25390625 C-49.69459229 15.46314697 -49.32277832 14.6723877 -48.93969727 13.85766602 C-48 12 -48 12 -47 11 C-45.09894669 10.66746136 -43.18930153 10.38377813 -41.27734375 10.12109375 C-34.2865993 9.08885843 -27.44408233 7.65735592 -20.5625 6.0625 C-18.86577148 5.68448242 -18.86577148 5.68448242 -17.13476562 5.29882812 C-11.98529996 4.11375392 -4.97069083 0 0 0 Z " fill="#AE0409" transform="translate(357,306)"/>
<path d="M0 0 C0.79921875 0.00902344 1.5984375 0.01804687 2.421875 0.02734375 C3.02515625 0.03894531 3.6284375 0.05054688 4.25 0.0625 C1.84472668 5.76114756 -3.26567015 8.92384882 -8.75 11.4375 C-9.41 11.64375 -10.07 11.85 -10.75 12.0625 C-10.29109375 12.55878906 -9.8321875 13.05507813 -9.359375 13.56640625 C0.64180749 24.63914401 0.64180749 24.63914401 0.5 31.375 C-1.20222067 41.31866533 -11.68406222 49.5613119 -18.75 56.0625 C-24.36158276 58.86829138 -33.97187411 57.90467401 -39.85546875 56.12109375 C-44.59788712 53.8323926 -48.3246322 51.11066194 -51.75 47.0625 C-52.27722656 46.45921875 -52.80445313 45.8559375 -53.34765625 45.234375 C-55.96468354 41.1812631 -55.43175074 36.69715409 -54.75 32.0625 C-52.95378862 27.45841795 -50.53111662 23.3063534 -46.75 20.0625 C-46.09 20.0625 -45.43 20.0625 -44.75 20.0625 C-44.85699219 20.72636719 -44.96398438 21.39023437 -45.07421875 22.07421875 C-45.59699457 25.92477185 -46.02470599 29.11159463 -44.9375 32.875 C-39.55123817 38.26126183 -33.55553575 40.38294622 -26 40.625 C-20.02217442 40.39942168 -16.9688032 39.2813032 -12.75 35.0625 C-12.24904977 32.18943772 -12.24904977 32.18943772 -12.75 29.0625 C-16.20291674 25.14919436 -20.71935619 23.80742386 -25.54296875 22.1875 C-28.15926175 20.85388516 -28.74150609 19.7668412 -29.75 17.0625 C-22.21727003 7.43734504 -12.74317935 -0.1873997 0 0 Z " fill="#AF060B" transform="translate(54.75,323.9375)"/>
<path d="M0 0 C8.27260841 2.3861508 14.14280067 6.58789308 18.48046875 14.00390625 C20.78404906 20.91464718 19.6371658 26.98111988 16.734375 33.53515625 C12.38423106 42.09992563 6.25177714 49.23259786 -0.51953125 56.00390625 C-3.04047201 56.09238368 -5.53384018 56.11917926 -8.0546875 56.1015625 C-9.18456337 56.09944008 -9.18456337 56.09944008 -10.33726501 56.09727478 C-12.75222685 56.09166001 -15.16709726 56.07910508 -17.58203125 56.06640625 C-19.21549346 56.06139315 -20.84895711 56.05682991 -22.48242188 56.05273438 C-26.4948271 56.04168579 -30.50716366 56.02441131 -34.51953125 56.00390625 C-32.86968219 51.51131299 -30.76501249 48.80525553 -27.45703125 45.31640625 C-24.09994219 41.93469941 -24.09994219 41.93469941 -21.51953125 38.00390625 C-9.14453125 37.50890625 -9.14453125 37.50890625 3.48046875 37.00390625 C6.62764448 31.06732847 6.62764448 31.06732847 6.48046875 25.00390625 C4.32507187 20.13488022 1.15019653 18.41682684 -3.51953125 16.31640625 C-10.34397187 13.12094584 -10.34397187 13.12094584 -13.51953125 11.00390625 C-12.02401394 9.12322552 -10.50378945 7.27916093 -8.95703125 5.44140625 C-8.53873047 4.90837891 -8.12042969 4.37535156 -7.68945312 3.82617188 C-5.11474855 0.82557632 -4.01178321 0.00445259 0 0 Z " fill="#B0080D" transform="translate(226.51953125,324.99609375)"/>
<path d="M0 0 C0 17.82 0 35.64 0 54 C8.91 54 17.82 54 27 54 C24.74077188 60.77768435 22.54825854 66.31967079 17 71 C9.53235782 72.78466779 1.61859495 71.88105016 -5.1953125 68.28125 C-8.67276317 65.81241057 -11.08502703 62.82994593 -13 59 C-13.14505294 57.48175187 -13.23163853 55.95771035 -13.28808594 54.43359375 C-13.32351501 53.48500488 -13.35894409 52.53641602 -13.39544678 51.55908203 C-13.51979399 47.19421311 -13.6100987 42.82945496 -13.6796875 38.46337891 C-13.72628279 36.16823745 -13.79438756 33.87342446 -13.88476562 31.57958984 C-14.66282914 11.48058349 -14.66282914 11.48058349 -10.56835938 6.20703125 C-7.69740231 3.27832125 -4.27172239 0 0 0 Z " fill="#AE0308" transform="translate(452,309)"/>
<path d="M0 0 C3.36591866 1.44253657 5.51047079 3.33264727 8 6 C11.36591866 4.55746343 13.51047079 2.66735273 16 0 C19.81684226 1.55500981 22.19195732 4.03595495 25 7 C23.44499019 10.81684226 20.96404505 13.19195732 18 16 C14.63408134 14.55746343 12.48952921 12.66735273 10 10 C6.63408134 11.44253657 4.48952921 13.33264727 2 16 C-1.81684226 14.44499019 -4.19195732 11.96404505 -7 9 C-5.44499019 5.18315774 -2.96404505 2.80804268 0 0 Z " fill="#B10C11" transform="translate(163,340)"/>
<path d="M0 0 C-0.3125 1.875 -0.3125 1.875 -1 4 C-4.33721047 6.22480698 -7.56690469 7.1772418 -11.375 8.25 C-12.4734021 8.56553833 -12.4734021 8.56553833 -13.59399414 8.88745117 C-15.19338645 9.34625629 -16.79343568 9.80277589 -18.39404297 10.25732422 C-21.17290787 11.04927729 -23.94792762 11.85383682 -26.72265625 12.66015625 C-28.6275189 13.21123234 -30.53246553 13.7620182 -32.4375 14.3125 C-33.35515137 14.57901367 -34.27280273 14.84552734 -35.21826172 15.12011719 C-36.07307129 15.36536133 -36.92788086 15.61060547 -37.80859375 15.86328125 C-38.95026001 16.19259644 -38.95026001 16.19259644 -40.11499023 16.52856445 C-42 17 -42 17 -44 17 C-43.3359375 14.62109375 -43.3359375 14.62109375 -42 12 C-39.6640625 10.84765625 -39.6640625 10.84765625 -36.625 10.0625 C-34.89443359 9.58876953 -34.89443359 9.58876953 -33.12890625 9.10546875 C-32.48066895 8.93450684 -31.83243164 8.76354492 -31.16455078 8.58740234 C-26.93766856 7.44033731 -22.75455268 6.14228446 -18.5625 4.875 C-17.71059082 4.62113525 -16.85868164 4.36727051 -15.98095703 4.10571289 C-12.49241221 3.06561353 -9.03090812 2.01069216 -5.58984375 0.8203125 C-3 0 -3 0 0 0 Z " fill="#B51A1E" transform="translate(167,299)"/>
<path d="M0 0 C-0.0859375 1.84375 -0.0859375 1.84375 -1 4 C-3.8515625 5.34375 -3.8515625 5.34375 -7.625 6.5 C-8.29362061 6.70866699 -8.96224121 6.91733398 -9.65112305 7.13232422 C-15.56499135 8.94888968 -21.54213541 10.53833016 -27.53125 12.0859375 C-31.43755514 13.11530169 -35.29197732 14.27117544 -39.14453125 15.484375 C-41 16 -41 16 -43 16 C-42.80126953 14.125 -42.80126953 14.125 -42 12 C-39.92138672 10.875 -39.92138672 10.875 -37.1796875 10 C-36.17574951 9.67193359 -35.17181152 9.34386719 -34.13745117 9.00585938 C-33.06084229 8.67392578 -31.9842334 8.34199219 -30.875 8 C-29.78872314 7.65259766 -28.70244629 7.30519531 -27.58325195 6.94726562 C-5.62539576 0 -5.62539576 0 0 0 Z " fill="#B4151A" transform="translate(356,299)"/>
<path d="M0 0 C3.81684226 1.55500981 6.19195732 4.03595495 9 7 C7.44499019 10.81684226 4.96404505 13.19195732 2 16 C-1.81684226 14.44499019 -4.19195732 11.96404505 -7 9 C-5.44499019 5.18315774 -2.96404505 2.80804268 0 0 Z " fill="#AF080D" transform="translate(458,384)"/>
<path d="M0 0 C3.81684226 1.55500981 6.19195732 4.03595495 9 7 C7.44499019 10.81684226 4.96404505 13.19195732 2 16 C-1.81684226 14.44499019 -4.19195732 11.96404505 -7 9 C-5.44499019 5.18315774 -2.96404505 2.80804268 0 0 Z " fill="#B0090E" transform="translate(423,337)"/>
<path d="M0 0 C3.81684226 1.55500981 6.19195732 4.03595495 9 7 C7.44499019 10.81684226 4.96404505 13.19195732 2 16 C-1.81684226 14.44499019 -4.19195732 11.96404505 -7 9 C-5.44499019 5.18315774 -2.96404505 2.80804268 0 0 Z " fill="#B00A0F" transform="translate(171,327)"/>
<path d="M0 0 C3.36591866 1.44253657 5.51047079 3.33264727 8 6 C6.44499019 9.81684226 3.96404505 12.19195732 1 15 C-2.36591866 13.55746343 -4.51047079 11.66735273 -7 9 C-5.44499019 5.18315774 -2.96404505 2.80804268 0 0 Z " fill="#AE0308" transform="translate(180,341)"/>
<path d="M0 0 C0 0.99 0 1.98 0 3 C-11.60344257 6.3113918 -23.23136615 9.33343613 -35 12 C-35 11.34 -35 10.68 -35 10 C-34.42668945 9.83918945 -33.85337891 9.67837891 -33.26269531 9.51269531 C-18.5755592 5.40081554 -18.5755592 5.40081554 -4.08203125 0.6640625 C-2 0 -2 0 0 0 Z " fill="#EEC9CA" transform="translate(160,305)"/>
</svg>
