<?xml version="1.0" encoding="UTF-8"?>
<svg version="1.1" xmlns="http://www.w3.org/2000/svg" width="498" height="528">
<path d="M0 0 C0.63550781 0.44085938 1.27101563 0.88171875 1.92578125 1.3359375 C10.95460917 8.26271014 15.86704078 19.05754058 18 30 C19.4001427 42.86110456 16.7590759 54.47940025 8.828125 64.79296875 C8.22484375 65.52128906 7.6215625 66.24960938 7 67 C6.49984375 67.63550781 5.9996875 68.27101563 5.484375 68.92578125 C-0.78648484 76.06759385 -11.42623981 81.46166423 -20.89599609 82.13476562 C-30.55554982 82.60134694 -39.24541973 82.58120117 -48 78 C-48.93328125 77.51402344 -49.8665625 77.02804688 -50.828125 76.52734375 C-61.46177813 70.38248682 -67.88961844 61.4843708 -72 50 C-75.20417423 37.79949041 -73.63949233 24.23329598 -67.4921875 13.32421875 C-60.15219686 2.07525634 -50.46081919 -4.98202155 -37.4375 -8.3125 C-23.99341632 -10.78716319 -11.0920989 -7.97060558 0 0 Z " fill="#015BAA" transform="translate(260,20)"/>
<path d="M0 0 C8.26831296 4.74616152 13.83949967 11.96363423 16.5234375 21.109375 C18.74921355 30.89179813 17.84014261 39.88222884 12.8984375 48.671875 C7.67927138 56.82287293 0.6914461 61.44920547 -8.4140625 64.484375 C-20.63684683 65.28009522 -30.23384916 64.87593527 -40.1640625 56.984375 C-46.49011582 51.01724669 -50.86339196 42.55980568 -51.65234375 33.85546875 C-51.9211539 23.23039386 -49.32925657 14.72010788 -42.47265625 6.4921875 C-30.76670101 -4.92500604 -14.59829758 -6.62443756 0 0 Z " fill="#015BAA" transform="translate(328.4140625,82.515625)"/>
<path d="M0 0 C7.11378631 4.48941196 12.0140997 11.89723114 14.375 19.9375 C16.34879965 30.17658567 14.95918052 39.22956705 9.6796875 48.2578125 C4.801651 55.26832397 -2.41995921 61.4341102 -11 63 C-22.87920724 63.9555271 -32.70454571 63.52532597 -42.3125 55.75 C-50.09634884 48.42217463 -53.39123207 39.93995444 -54.3125 29.4375 C-54.18077691 20.87549891 -51.08746059 11.16862673 -45 5 C-32.1445745 -6.84884856 -15.26403885 -8.69266261 0 0 Z " fill="#015BAA" transform="translate(173,84)"/>
<path d="M0 0 C8.35621221 6.11372588 14.7980347 13.51679669 16.484375 24.015625 C17.43621658 35.60569599 16.05347867 43.53266418 9 53 C2.9908522 59.75706748 -3.99823116 63.7128349 -13.06640625 64.37890625 C-24.34975901 64.85365106 -32.43427986 63.23012372 -41.3125 55.875 C-48.8222654 48.71946882 -52.04952203 40.64498193 -52.3125 30.375 C-52.1860441 20.06884427 -48.39167989 11.22304841 -41 4 C-28.94841964 -5.0289975 -13.53870944 -7.49035108 0 0 Z " fill="#015BAA" transform="translate(250,128)"/>
<path d="M0 0 C1.15162854 4.17897 0.79295975 6.79293988 -0.65625 10.87890625 C-3.22725161 14.93720239 -7.57755346 15.75897237 -12 17 C-13.19625 17.4125 -14.3925 17.825 -15.625 18.25 C-16.40875 18.4975 -17.1925 18.745 -18 19 C-13.40266111 26.02682693 -7.17008487 33.27663838 1 36 C7.24365499 36.38741294 13.18314467 36.58526903 19 34 C15.28400809 33.79913557 14.22791555 33.8480563 11 36 C8.3125 36.125 8.3125 36.125 6 36 C5.49462568 30.69356959 6.69344249 28.13319688 10 24 C12.61290937 21.20045424 13.78076942 21.01489465 17.6796875 20.75 C21.98438705 20.81330441 25.49431963 22.10241331 29.375 23.875 C35.17655708 26.37249869 40.70605661 28.14106184 47 29 C46.4025696 30.69271945 45.71573527 32.35380887 45 34 C44.566875 35.010625 44.13375 36.02125 43.6875 37.0625 C40.07247453 41.01380691 36.55448817 41.62911803 31.46875 42.9921875 C27.19371761 44.23425772 23.33550958 46.00846678 19.33984375 47.94921875 C12.45217594 51.04234503 2.77532025 51.54833819 -4.43359375 49.2109375 C-7.35803339 47.56318871 -9.70156126 45.4194092 -12 43 C-12.66 43 -13.32 43 -14 43 C-15.175625 44.175625 -15.175625 44.175625 -16.375 45.375 C-19.66705139 48.66705139 -21.45527156 49.8862185 -26.12890625 50.23046875 C-27.82853516 50.20919922 -27.82853516 50.20919922 -29.5625 50.1875 C-31.26599609 50.17783203 -31.26599609 50.17783203 -33.00390625 50.16796875 C-36 50 -36 50 -39 49 C-39.99 49.495 -39.99 49.495 -41 50 C-46.12944859 50.30867478 -50.97827644 50.09850203 -56 49 C-56.99 49.495 -56.99 49.495 -58 50 C-59.953125 50.203125 -59.953125 50.203125 -62.25 50.25 C-62.99765625 50.27578125 -63.7453125 50.3015625 -64.515625 50.328125 C-67 50 -67 50 -69.796875 48.37109375 C-74.01876317 46.56391967 -76.80613898 47.53279789 -81 48.8125 C-91.37401897 51.59865866 -103.14572013 53.44908273 -113 48 C-116.64680772 45.09743875 -117.73519611 43.72358962 -118.4375 39.15234375 C-118.61947068 34.56327074 -118.66971519 30.30750156 -116.3125 26.25 C-114 24 -114 24 -111.35546875 23.859375 C-110.57816406 23.90578125 -109.80085937 23.9521875 -109 24 C-108.99742187 24.68707031 -108.99484375 25.37414062 -108.9921875 26.08203125 C-108.87448983 28.82438695 -108.63665341 31.32863672 -108 34 C-103.91826485 37.65207881 -99.11585824 37.38643307 -93.875 37.22265625 C-85.2477203 36.55451095 -78.57866233 34.79374878 -71.8125 29.1875 C-70 28 -70 28 -67.75 28.3125 C-67.1725 28.539375 -66.595 28.76625 -66 29 C-66 31.64 -66 34.28 -66 37 C-63.69 37 -61.38 37 -59 37 C-58.9175 35.948125 -58.835 34.89625 -58.75 33.8125 C-57.90994391 29.5422149 -57.3105867 27.81399869 -54 25 C-49.91925943 23.7643365 -46.37609204 23.55197003 -42.3125 24.875 C-39.937902 27.05706303 -38.92735895 28.89501293 -37.375 31.6875 C-35.99001925 34.14728399 -35.99001925 34.14728399 -34 36 C-30.22414597 36.7822902 -26.79921378 36.54757352 -23 36 C-22.67917451 32.94720524 -22.67917451 32.94720524 -24.6796875 30.9921875 C-25.76636719 29.94417969 -25.76636719 29.94417969 -26.875 28.875 C-27.59429687 28.17117188 -28.31359375 27.46734375 -29.0546875 26.7421875 C-30.88833247 24.94601284 -30.88833247 24.94601284 -33 24 C-32.63794238 13.68135772 -32.63794238 13.68135772 -29.37890625 10.3359375 C-26.64082514 8.90100729 -23.94545446 7.95913589 -21 7 C-19.2221517 6.38687775 -17.44485756 5.77214743 -15.66796875 5.15625 C-10.46489723 3.37510182 -5.24020973 1.66839137 0 0 Z M-47 33 C-46.67 34.98 -46.34 36.96 -46 39 C-45.34 39 -44.68 39 -44 39 C-44.57344937 36.13275314 -44.8614515 35.1385485 -47 33 Z " fill="#015BAA" transform="translate(319,329)"/>
<path d="M0 0 C-0.5859375 5.6640625 -0.5859375 5.6640625 -1 8 C-1.1753125 9.0209375 -1.350625 10.041875 -1.53125 11.09375 C-3.15670513 14.31007611 -3.49429107 14.52553589 -6.6953125 15.6796875 C-8.16484029 16.10333515 -9.64204424 16.50105952 -11.125 16.875 C-11.87910156 17.08640625 -12.63320313 17.2978125 -13.41015625 17.515625 C-15.2673446 18.03281669 -17.1330006 18.5194284 -19 19 C-18.566875 19.48210937 -18.13375 19.96421875 -17.6875 20.4609375 C-17.130625 21.09257812 -16.57375 21.72421875 -16 22.375 C-15.443125 23.00148438 -14.88625 23.62796875 -14.3125 24.2734375 C-13 26 -13 26 -13 28 C-12.41605469 28.26683594 -11.83210938 28.53367187 -11.23046875 28.80859375 C-8.96447196 30.01897732 -7.26193678 31.39914409 -5.3125 33.0625 C-1.04165791 36.36818004 2.68522973 36.97539458 8 37 C7.484375 36.2575 6.96875 35.515 6.4375 34.75 C5 32 5 32 5.2578125 30.09375 C6.08236212 27.76765213 7.13127037 25.84306826 8.4375 23.75 C8.86933594 23.04359375 9.30117188 22.3371875 9.74609375 21.609375 C10.36677734 20.81273437 10.36677734 20.81273437 11 20 C11.66 20 12.32 20 13 20 C16.98114841 26.68264197 19.22007494 32.16440759 18 40 C16.7372432 43.78827039 15.4100698 45.60044481 12.5625 48.375 C6.94078443 50.93929131 0.66262734 51.31726071 -5.2265625 49.19921875 C-8.18824897 47.56714046 -10.80735327 45.57958438 -13 43 C-15.47022486 44.09787772 -17.21196977 45.18841757 -19.25 47 C-25.35227273 51.43801653 -32.72586499 51.34005354 -40 51.3125 C-41.27617187 51.33666992 -41.27617187 51.33666992 -42.578125 51.36132812 C-49.63141663 51.36673709 -55.05868471 50.06517882 -60.9375 45.9375 C-63.86374797 41.7698135 -64.29024585 38.03615766 -64 33 C-63.06735159 29.38846785 -61.66684969 26.66684969 -59 24 C-56.375 23.875 -56.375 23.875 -54 24 C-54.03480469 24.69867188 -54.06960938 25.39734375 -54.10546875 26.1171875 C-54.13253906 27.02726562 -54.15960938 27.93734375 -54.1875 28.875 C-54.22230469 29.77992188 -54.25710938 30.68484375 -54.29296875 31.6171875 C-54.19628906 32.40351563 -54.09960938 33.18984375 -54 34 C-48.82097088 37.45268608 -43.63479297 37.156654 -37.5625 37.125 C-36.82451172 37.12886719 -36.08652344 37.13273437 -35.32617188 37.13671875 C-31.10791289 37.12921962 -27.1547558 36.82963428 -23 36 C-24.79111911 32.52312172 -26.7933154 30.24188155 -29.6875 27.6875 C-32.33467189 25.12409937 -33.49229496 23.60288771 -33.5625 19.875 C-32.66407982 13.68588322 -32.66407982 13.68588322 -31 11 C-27.98253474 9.2327789 -24.77742798 8.0732504 -21.5 6.875 C-20.63890625 6.54113281 -19.7778125 6.20726562 -18.890625 5.86328125 C-3.53112745 0 -3.53112745 0 0 0 Z " fill="#015BAA" transform="translate(435,329)"/>
<path d="M0 0 C5.21124298 4.67420649 8.48207214 9.20711202 9.24609375 16.27734375 C9.61779168 23.58740305 8.11594846 29.52604895 3.1640625 35.046875 C-3.06834539 40.8255827 -8.66336503 42.57431555 -17.12109375 42.3671875 C-23.09013065 41.60587207 -27.96789215 39.35840159 -31.921875 34.76953125 C-36.83724704 27.59542872 -37.7581484 21.63629922 -37 13 C-35.22730962 6.29313321 -30.53998876 1.90612488 -25 -2 C-16.9546304 -6.0226848 -7.38364072 -4.89508033 0 0 Z " fill="#015BAA" transform="translate(179,173)"/>
<path d="M0 0 C5.67842546 3.34579426 9.37558273 8.06990094 11.8828125 14.109375 C12.76916041 20.99254528 12.9628346 28.33076185 9.28515625 34.4296875 C4.87072323 39.71716995 -1.04968032 43.62688449 -7.94921875 44.4453125 C-15.64415461 44.54616356 -20.97107863 43.75492859 -26.83203125 38.6015625 C-31.54823625 33.64320516 -33.86719358 28.22832238 -34.28125 21.40625 C-34.02555482 14.36479799 -31.94101294 9.26445025 -27.1171875 4.109375 C-19.0722376 -2.23551002 -9.63204715 -4.13359108 0 0 Z " fill="#015BAA" transform="translate(243.1171875,215.890625)"/>
<path d="M0 0 C4.92269131 4.4999411 8.46392442 9.01046909 9.37109375 15.76171875 C9.53947171 23.18025346 8.622268 29.01761636 4 35 C-3.25319141 41.23698245 -9.60218106 42.65836369 -19 42 C-25.57570638 40.94649775 -29.23060491 37.30282107 -33.3671875 32.2578125 C-37.41184169 26.66496532 -37.79033438 20.7077097 -37 14 C-35.14192232 6.77936901 -31.07107696 2.17386541 -25 -2 C-16.9621337 -6.01893315 -7.37454985 -4.90270999 0 0 Z " fill="#015BAA" transform="translate(314,173)"/>
<path d="M0 0 C2.97 0 5.94 0 9 0 C9.33 7.26 9.66 14.52 10 22 C11.98 19.36 13.96 16.72 16 14 C18.7734375 13.21875 18.7734375 13.21875 21.375 13.5 C22.24898437 13.5721875 23.12296875 13.644375 24.0234375 13.71875 C24.67570312 13.8115625 25.32796875 13.904375 26 14 C23.37288552 18.94515667 19.73354706 22.87775489 16 27 C18.31400963 33.37891187 18.31400963 33.37891187 26 43 C26.33 33.76 26.66 24.52 27 15 C35.04516602 12.31827799 41.71793994 12.55063949 50 14 C50.99 13.67 51.98 13.34 53 13 C58.35480837 12.65452849 61.6384043 12.53637989 66 16 C68.36008817 19.54013225 68.23463644 21.01121955 68.1953125 25.19921875 C68.18886719 26.40771484 68.18242187 27.61621094 68.17578125 28.86132812 C68.15902344 30.12396484 68.14226562 31.38660156 68.125 32.6875 C68.11597656 33.96173828 68.10695313 35.23597656 68.09765625 36.54882812 C68.07405641 39.69940627 68.04113194 42.84960983 68 46 C65.36 46 62.72 46 60 46 C59.97494385 45.27820557 59.9498877 44.55641113 59.92407227 43.81274414 C59.80848698 40.562465 59.68559226 37.31250312 59.5625 34.0625 C59.52318359 32.92619141 59.48386719 31.78988281 59.44335938 30.61914062 C59.40146484 29.53955078 59.35957031 28.45996094 59.31640625 27.34765625 C59.26141968 25.84730835 59.26141968 25.84730835 59.20532227 24.31665039 C59.25328159 22.03930812 59.25328159 22.03930812 58 21 C56.35 21 54.7 21 53 21 C52.67 29.25 52.34 37.5 52 46 C49.03 46 46.06 46 43 46 C42.505 33.625 42.505 33.625 42 21 C40.02 20.67 38.04 20.34 36 20 C36 28.58 36 37.16 36 46 C18.52642706 47.205074 18.52642706 47.205074 14.1796875 43.7734375 C12.47183368 41.23666718 11.1213769 38.84149803 10 36 C9.67 39.3 9.34 42.6 9 46 C6.03 46 3.06 46 0 46 C0 30.82 0 15.64 0 0 Z " fill="#015BAA" transform="translate(198,413)"/>
<path d="M0 0 C3.64239044 10.92717133 2.07693555 24.69047347 2 36 C9.92 35.67 17.84 35.34 26 35 C26.99 32.69 27.98 30.38 29 28 C30.98 28 32.96 28 35 28 C35.99 30.31 36.98 32.62 38 35 C41.3 35 44.6 35 48 35 C47.01 33.68 46.02 32.36 45 31 C45.99294402 26.8075697 48.55857828 23.49937113 51 20 C54.15590375 20.97941841 55.00827269 22.01359085 56.75 24.875 C58.84968485 30.40842361 59.38168171 37.47129328 57.203125 43.03515625 C55.47748293 45.7364498 53.67033378 47.21977748 51 49 C44.40139598 50.43871202 39.05230604 50.23273117 32.875 47.49609375 C32.25625 47.33238281 31.6375 47.16867187 31 47 C30.01 47.66 29.02 48.32 28 49 C23.62193677 50.24636755 19.20315999 50.14882934 14.6875 50.125 C13.6056543 50.13080078 13.6056543 50.13080078 12.50195312 50.13671875 C-0.62317716 50.11317592 -0.62317716 50.11317592 -4.9375 46.625 C-7.98324545 42.7485967 -8.19830459 39.59215478 -8.53515625 34.79296875 C-8.62216797 33.56642578 -8.70917969 32.33988281 -8.79882812 31.07617188 C-8.9293457 29.1512793 -8.9293457 29.1512793 -9.0625 27.1875 C-9.15337891 25.91583984 -9.24425781 24.64417969 -9.33789062 23.33398438 C-10.43746259 7.55140633 -10.43746259 7.55140633 -8.3203125 4.8828125 C-7.59585938 4.30273438 -6.87140625 3.72265625 -6.125 3.125 C-5.40570313 2.52945312 -4.68640625 1.93390625 -3.9453125 1.3203125 C-2 0 -2 0 0 0 Z " fill="#015BAA" transform="translate(67,330)"/>
<path d="M0 0 C0.66 0 1.32 0 2 0 C5.88470559 6.51628034 7.78604288 11.21235298 7 19 C5.77275191 23.09082695 4.58044413 25.41955587 1.5625 28.4375 C-3.6042887 30.70363539 -8.44050027 30.32385435 -14 30 C-14.04125 31.134375 -14.0825 32.26875 -14.125 33.4375 C-14.77121721 38.83871844 -17.59133937 42.86801616 -21 47 C-25.47248501 49.23624251 -31.78239701 48.59505104 -36.50390625 47.328125 C-38.36423206 46.62259893 -40.18754931 45.82073239 -42 45 C-41 42 -41 42 -38.234375 40.38671875 C-37.08453125 39.82597656 -35.9346875 39.26523437 -34.75 38.6875 C-29.6857651 36.12821465 -26.14676744 33.77842463 -23 29 C-23.639375 27.9275 -24.27875 26.855 -24.9375 25.75 C-26.46274889 23.19151799 -27.69252778 20.98687297 -28 18 C-27.00390625 15.203125 -27.00390625 15.203125 -25.5625 12.25 C-25.08941406 11.26515625 -24.61632812 10.2803125 -24.12890625 9.265625 C-23.75636719 8.51796875 -23.38382813 7.7703125 -23 7 C-18 12 -18 12 -16.375 14.25 C-12.43541664 17.1528509 -7.77591577 16.83531325 -3 17 C-3.515625 16.2575 -4.03125 15.515 -4.5625 14.75 C-6 12 -6 12 -5.7421875 10.09375 C-4.91763788 7.76765213 -3.86872963 5.84306826 -2.5625 3.75 C-2.13066406 3.04359375 -1.69882813 2.3371875 -1.25390625 1.609375 C-0.63322266 0.81273437 -0.63322266 0.81273437 0 0 Z " fill="#015BAA" transform="translate(171,349)"/>
<path d="M0 0 C6.05377429 5.2129723 9.51707545 12.37207155 10.203125 20.3671875 C10.30247672 25.68250434 10.14237382 29.49593086 7 34 C0.76102556 40.10033057 -5.04536323 41.36015979 -13.4375 41.375 C-14.16259766 41.39949219 -14.88769531 41.42398438 -15.63476562 41.44921875 C-21.20363399 41.4792396 -24.41667092 40.17352026 -29 37 C-32.85742345 31.89824641 -32.66899782 26.13693997 -32 20 C-30.86762343 15.80943635 -28.78891908 12.32014176 -26 9 C-24.35 9.33 -22.7 9.66 -21 10 C-21.33 14.95 -21.66 19.9 -22 25 C-18.23688303 27.50874465 -16.11237925 27.26763214 -11.625 27.25 C-9.66433594 27.25773437 -9.66433594 27.25773437 -7.6640625 27.265625 C-4.28118782 27.02038462 -2.02156916 26.46995257 1 25 C0.66863285 21.35496139 -0.39046627 19.34792985 -2.625 16.5625 C-4.53721499 13.99625205 -4.99339627 13.31697895 -5.0625 10 C-3.76111641 6.32550517 -2.0541563 3.31315532 0 0 Z " fill="#015BAA" transform="translate(48,357)"/>
<path d="M0 0 C3.3789182 1.19187868 3.85431039 1.90768261 6 5 C7.4765959 9.69747469 7.40874719 12.98701784 5.5625 17.5625 C5.046875 18.366875 4.53125 19.17125 4 20 C4.66 20.825 5.32 21.65 6 22.5 C8.4901476 26.27079494 8.86065588 29.59133419 8 34 C6.25015789 37.63428747 4.99926252 39.46381035 1.4375 41.375 C-5.97237288 42.72224961 -11.82934266 42.39021911 -19 40 C-19 27.46 -19 14.92 -19 2 C-12.88579048 -1.05710476 -6.67090021 -0.68159198 0 0 Z M-10 6 C-10 9.63 -10 13.26 -10 17 C-5.52116304 16.55296014 -5.52116304 16.55296014 -2 14 C-2.32326553 10.40320934 -2.32326553 10.40320934 -3 7 C-5.31 6.67 -7.62 6.34 -10 6 Z M-10 23 C-10 26.96 -10 30.92 -10 35 C-4.49305843 35.51449576 -4.49305843 35.51449576 -2.125 33.875 C-0.45336375 31.08893958 -0.53623376 29.18011138 -1 26 C-2.59616005 23.99034226 -2.59616005 23.99034226 -5 23 C-6.65 23 -8.3 23 -10 23 Z " fill="#015BAA" transform="translate(30,418)"/>
<path d="M0 0 C1.65825838 3.31651676 1.38979376 7.03442608 1.5625 10.6875 C1.6049585 11.53223877 1.64741699 12.37697754 1.69116211 13.24731445 C2.04582331 20.83649334 2.10219047 28.40384146 2 36 C6.95 35.505 6.95 35.505 12 35 C11.01 33.68 10.02 32.36 9 31 C9.8694352 26.45961619 11.79439441 23.30274515 15 20 C15.99 20 16.98 20 18 20 C22.11862316 26.69276263 22.88957164 32.19153784 22 40 C20.7221125 44.04664376 19.93215726 45.43254076 16.32421875 47.62890625 C12.61493201 49.15882358 9.93532399 49.40110114 5.9375 49.375 C4.15666016 49.38660156 4.15666016 49.38660156 2.33984375 49.3984375 C-1.29042956 48.96535226 -3.14257706 48.25130292 -6 46 C-8.00513955 42.8024827 -8.36050469 40.00495221 -8.6328125 36.2734375 C-8.71660156 35.15839844 -8.80039062 34.04335938 -8.88671875 32.89453125 C-8.96535156 31.73308594 -9.04398437 30.57164062 -9.125 29.375 C-9.21136719 28.23675781 -9.29773438 27.09851563 -9.38671875 25.92578125 C-9.62596126 22.61815867 -9.82505014 19.31160531 -10 16 C-10.05615479 15.03046387 -10.11230957 14.06092773 -10.17016602 13.06201172 C-10.20037842 12.1804541 -10.23059082 11.29889648 -10.26171875 10.390625 C-10.29225342 9.62524414 -10.32278809 8.85986328 -10.35424805 8.07128906 C-9.76716461 4.63861096 -7.49922252 2.99102422 -4.82421875 0.9609375 C-3 0 -3 0 0 0 Z " fill="#015BAA" transform="translate(463,330)"/>
<path d="M0 0 C2.97 0 5.94 0 9 0 C9 5.61 9 11.22 9 17 C12.3 17 15.6 17 19 17 C19 11.39 19 5.78 19 0 C21.97 0 24.94 0 28 0 C28 13.53 28 27.06 28 41 C25.03 41 22.06 41 19 41 C19 35.39 19 29.78 19 24 C15.7 24 12.4 24 9 24 C9 29.61 9 35.22 9 41 C6.03 41 3.06 41 0 41 C0 27.47 0 13.94 0 0 Z " fill="#015BAA" transform="translate(138,418)"/>
<path d="M0 0 C2.97 0 5.94 0 9 0 C9.33 6.93 9.66 13.86 10 21 C12.97 17.535 12.97 17.535 16 14 C18.7734375 13.31640625 18.7734375 13.31640625 21.375 13.5625 C22.68597656 13.65724609 22.68597656 13.65724609 24.0234375 13.75390625 C24.67570312 13.83511719 25.32796875 13.91632813 26 14 C23.02480663 18.69165109 19.68606635 22.84703191 16 27 C17.51275921 31.42191154 19.919789 34.98806595 22.625 38.75 C27 44.88305215 27 44.88305215 27 46 C23.48733728 46.63609586 20.48566369 46.86003313 17 46 C14.02234215 43.01710901 11.99378324 39.6970815 10 36 C9.67 39.3 9.34 42.6 9 46 C6.03 46 3.06 46 0 46 C0 30.82 0 15.64 0 0 Z " fill="#015BAA" transform="translate(97,413)"/>
<path d="M0 0 C2.23996591 1.4535372 3.72537773 2.77106796 4.92578125 5.171875 C5.01105753 7.20420134 5.0329426 9.23934506 5.0234375 11.2734375 C5.02021484 12.48515625 5.01699219 13.696875 5.01367188 14.9453125 C5.00529297 16.21632813 4.99691406 17.48734375 4.98828125 18.796875 C4.98376953 20.075625 4.97925781 21.354375 4.97460938 22.671875 C4.96279328 25.83858792 4.9463194 29.00520856 4.92578125 32.171875 C2.28578125 32.171875 -0.35421875 32.171875 -3.07421875 32.171875 C-3.0992749 31.48561035 -3.12433105 30.7993457 -3.15014648 30.09228516 C-3.26593302 26.99361683 -3.3887376 23.89526577 -3.51171875 20.796875 C-3.55103516 19.71664063 -3.59035156 18.63640625 -3.63085938 17.5234375 C-3.67275391 16.4921875 -3.71464844 15.4609375 -3.7578125 14.3984375 C-3.79447021 13.44533691 -3.83112793 12.49223633 -3.86889648 11.51025391 C-3.9318534 9.15055151 -3.9318534 9.15055151 -5.07421875 7.171875 C-8.04421875 6.676875 -8.04421875 6.676875 -11.07421875 6.171875 C-11.07421875 14.751875 -11.07421875 23.331875 -11.07421875 32.171875 C-14.04421875 32.171875 -17.01421875 32.171875 -20.07421875 32.171875 C-20.07421875 21.941875 -20.07421875 11.711875 -20.07421875 1.171875 C-13.65708037 -0.96717113 -6.57335976 -2.62439222 0 0 Z " fill="#015BAA" transform="translate(475.07421875,426.828125)"/>
<path d="M0 0 C3.20332688 2.7322494 4.9465685 5.36087338 5.46557617 9.58325195 C5.44986572 10.56253662 5.43415527 11.54182129 5.41796875 12.55078125 C5.40830078 13.61748047 5.39863281 14.68417969 5.38867188 15.78320312 C5.36353516 16.88599609 5.33839844 17.98878906 5.3125 19.125 C5.29219727 20.80819336 5.29219727 20.80819336 5.27148438 22.52539062 C5.2362138 25.28825229 5.18692235 28.05012829 5.125 30.8125 C-1.63806487 33.67453619 -8.48604978 33.92267335 -15.5 31.625 C-18.37731989 29.42915061 -19.16488215 28.36308926 -19.875 24.8125 C-19.93118827 20.78299842 -19.76376267 17.91628589 -17.1796875 14.70703125 C-14.57389755 12.56498358 -12.31586916 11.62612305 -9.125 10.5625 C-8.14015625 10.22734375 -7.1553125 9.8921875 -6.140625 9.546875 C-5.39296875 9.30453125 -4.6453125 9.0621875 -3.875 8.8125 C-4.205 8.1525 -4.535 7.4925 -4.875 6.8125 C-9.03638263 6.73090426 -12.8222484 6.83001476 -16.875 7.8125 C-17.205 5.5025 -17.535 3.1925 -17.875 0.8125 C-11.9555751 -1.61598201 -5.99807649 -2.47746638 0 0 Z M-10.875 18.8125 C-12.19551497 20.67509537 -12.19551497 20.67509537 -11.875 22.8125 C-10.33452223 25.18669918 -10.33452223 25.18669918 -7.875 26.8125 C-6.225 26.8125 -4.575 26.8125 -2.875 26.8125 C-2.875 23.1825 -2.875 19.5525 -2.875 15.8125 C-6.067325 15.8125 -8.17484011 17.20389411 -10.875 18.8125 Z " fill="#015BAA" transform="translate(59.875,427.1875)"/>
<path d="M0 0 C3.4269093 1.68230093 5.34530541 2.95844043 7.375 6.1875 C8.26419544 10.1888795 8.12228718 13.90337945 8 18 C0.08 19.485 0.08 19.485 -8 21 C-7.67 22.32 -7.34 23.64 -7 25 C-2.34462607 25.83796731 1.37078475 26.0161692 6 25 C6.66 27.31 7.32 29.62 8 32 C2.68060517 34.23974519 -2.31368358 34.60958836 -8 34 C-12.17239687 32.27661869 -14.46956638 29.7052778 -17 26 C-19.01004816 19.75687027 -19.06066225 12.48390167 -16.3125 6.5 C-12.48645034 0.01697141 -7.15269951 -1.13335027 0 0 Z M-8.8125 9.375 C-10.13738929 11.82351803 -10.13738929 11.82351803 -10 14 C-6.7 13.67 -3.4 13.34 0 13 C-0.37904208 9.70924004 -0.37904208 9.70924004 -2 7 C-5.60532051 6.43073887 -6.53456959 6.39012567 -8.8125 9.375 Z " fill="#015BAA" transform="translate(187,426)"/>
<path d="M0 0 C3.5787156 3.01954129 4.37846255 5.69548545 4.83984375 10.2421875 C5.32807367 17.69662489 5.5763815 24.60245088 3 31.6875 C-3.0997848 33.46302421 -9.57672804 33.53777086 -15.5625 31.4375 C-18.18455316 29.5550003 -19.1429115 28.7730186 -20 25.6875 C-20.32486138 22.11402482 -20.23726888 19.4162544 -19.125 16 C-15.83346115 12.41803125 -11.61070918 11.04492918 -7 9.6875 C-6.01 9.6875 -5.02 9.6875 -4 9.6875 C-4.33 8.3675 -4.66 7.0475 -5 5.6875 C-10.94 6.1825 -10.94 6.1825 -17 6.6875 C-17.33 4.7075 -17.66 2.7275 -18 0.6875 C-12.44547671 -2.27491242 -5.7278563 -2.50593713 0 0 Z M-11 18.6875 C-11.98333671 21.18425668 -11.98333671 21.18425668 -12 23.6875 C-11.67 24.3475 -11.34 25.0075 -11 25.6875 C-8.67843403 26.09479228 -6.3431213 26.43188677 -4 26.6875 C-4 23.0575 -4 19.4275 -4 15.6875 C-7.0328771 15.6875 -8.59858534 16.90183269 -11 18.6875 Z " fill="#015BAA" transform="translate(447,427.3125)"/>
<path d="M0 0 C2.64946117 1.90217725 3.30409018 2.7571802 4.4375 5.75 C4.66455078 8.59082031 4.66455078 8.59082031 4.6328125 11.828125 C4.62636719 12.98828125 4.61992187 14.1484375 4.61328125 15.34375 C4.59652344 16.5503125 4.57976562 17.756875 4.5625 19 C4.55347656 20.22203125 4.54445313 21.4440625 4.53515625 22.703125 C4.51159513 25.71894782 4.47869706 28.73437492 4.4375 31.75 C1.4675 31.75 -1.5025 31.75 -4.5625 31.75 C-4.5625 23.5 -4.5625 15.25 -4.5625 6.75 C-7.2025 6.42 -9.8425 6.09 -12.5625 5.75 C-12.5625 14.33 -12.5625 22.91 -12.5625 31.75 C-15.2025 31.75 -17.8425 31.75 -20.5625 31.75 C-20.5625 21.52 -20.5625 11.29 -20.5625 0.75 C-13.38280619 -1.64323127 -7.23889217 -2.53996216 0 0 Z " fill="#015BAA" transform="translate(407.5625,427.25)"/>
<path d="M0 0 C0.92941406 -0.00644531 1.85882813 -0.01289063 2.81640625 -0.01953125 C4.20666016 -0.04080078 4.20666016 -0.04080078 5.625 -0.0625 C9.50833632 0.26248843 12.2568727 1.00740106 15.00683594 3.85180664 C16.80322005 6.88424366 16.72155455 8.9541554 16.671875 12.46484375 C16.66220703 13.67011719 16.65253906 14.87539063 16.64257812 16.1171875 C16.61744141 17.37144531 16.59230469 18.62570312 16.56640625 19.91796875 C16.54610352 21.82255859 16.54610352 21.82255859 16.52539062 23.765625 C16.49003865 26.90016719 16.44068873 30.0338542 16.37890625 33.16796875 C13.73890625 33.16796875 11.09890625 33.16796875 8.37890625 33.16796875 C7.88390625 21.28796875 7.88390625 21.28796875 7.37890625 9.16796875 C5.06890625 8.50796875 2.75890625 7.84796875 0.37890625 7.16796875 C0.37890625 15.74796875 0.37890625 24.32796875 0.37890625 33.16796875 C-2.59109375 33.16796875 -5.56109375 33.16796875 -8.62109375 33.16796875 C-8.6793801 28.95969402 -8.71478675 24.75152386 -8.74609375 20.54296875 C-8.76285156 19.35316406 -8.77960938 18.16335938 -8.796875 16.9375 C-8.80332031 15.78378906 -8.80976562 14.63007813 -8.81640625 13.44140625 C-8.82687988 12.38356934 -8.83735352 11.32573242 -8.84814453 10.23583984 C-8.60162116 6.90485849 -7.89424574 4.25061946 -6.62109375 1.16796875 C-4.36583442 0.077351 -2.49842673 0.16010782 0 0 Z " fill="#015BAA" transform="translate(76.62109375,425.83203125)"/>
<path d="M0 0 C2 1.6875 2 1.6875 4 4.6875 C4.22705078 7.41479492 4.22705078 7.41479492 4.1953125 10.66796875 C4.18886719 11.83134766 4.18242187 12.99472656 4.17578125 14.19335938 C4.15902344 15.40830078 4.14226562 16.62324219 4.125 17.875 C4.11597656 19.10154297 4.10695313 20.32808594 4.09765625 21.59179688 C4.07406017 24.62389295 4.04113841 27.65559938 4 30.6875 C0.14190693 32.32174073 -2.78842789 32.98388429 -7 33 C-8.010625 33.01675781 -9.02125 33.03351563 -10.0625 33.05078125 C-13.44639709 32.63229398 -15.27465492 31.7078513 -18 29.6875 C-20.69959583 25.63810626 -20.64419763 22.43950327 -20 17.6875 C-17.94873538 13.58497077 -15.61131568 12.35011075 -11.4375 10.875 C-8.74164748 10.05215126 -6.84764465 9.6875 -4 9.6875 C-4.33 8.3675 -4.66 7.0475 -5 5.6875 C-10.94 6.1825 -10.94 6.1825 -17 6.6875 C-17.66 4.7075 -18.32 2.7275 -19 0.6875 C-12.87618617 -1.89094793 -6.17108633 -2.69985027 0 0 Z M-11 18.6875 C-12.26472065 19.74179686 -12.26472065 19.74179686 -12.25 22.125 C-12.1675 22.970625 -12.085 23.81625 -12 24.6875 C-8.90754997 27.14975016 -8.90754997 27.14975016 -4 26.6875 C-4 23.0575 -4 19.4275 -4 15.6875 C-6.90862304 15.6875 -8.59201622 17.14392066 -11 18.6875 Z " fill="#015BAA" transform="translate(379,427.3125)"/>
<path d="M0 0 C2 1.6875 2 1.6875 4 4.6875 C4.22705078 7.41479492 4.22705078 7.41479492 4.1953125 10.66796875 C4.18886719 11.83134766 4.18242187 12.99472656 4.17578125 14.19335938 C4.15902344 15.40830078 4.14226562 16.62324219 4.125 17.875 C4.11597656 19.10154297 4.10695313 20.32808594 4.09765625 21.59179688 C4.07406017 24.62389295 4.04113841 27.65559938 4 30.6875 C-2.53854931 33.4383039 -8.83652222 33.85299181 -15.5625 31.375 C-18 29.6875 -18 29.6875 -20 26.6875 C-20.33834017 22.49208195 -20.43391951 19.77229877 -18.875 15.875 C-14.84060144 11.16820168 -9.96438711 10.28393871 -4 9.6875 C-4.33 8.3675 -4.66 7.0475 -5 5.6875 C-10.94 6.1825 -10.94 6.1825 -17 6.6875 C-17.33 4.7075 -17.66 2.7275 -18 0.6875 C-12.44547671 -2.27491242 -5.7278563 -2.50593713 0 0 Z M-11 18.6875 C-11.89207179 21.7832107 -11.89207179 21.7832107 -12 24.6875 C-8.91190305 26.45212683 -7.76687864 26.6875 -4 26.6875 C-4 23.0575 -4 19.4275 -4 15.6875 C-7.07258075 15.6875 -8.59196729 16.83516715 -11 18.6875 Z " fill="#015BAA" transform="translate(289,427.3125)"/>
<path d="M0 0 C1.32 0.66 2.64 1.32 4 2 C4.07444911 7.56841139 4.12874318 13.13652964 4.16479492 18.70532227 C4.17983246 20.59762625 4.20026785 22.48989566 4.22631836 24.38208008 C4.26292399 27.11027586 4.2797769 29.83800871 4.29296875 32.56640625 C4.30845261 33.40522842 4.32393646 34.2440506 4.33988953 35.10829163 C4.34141746 40.50478126 3.53472965 44.21132143 1 49 C0.34 49.66 -0.32 50.32 -1 51 C-1.99 51 -2.98 51 -4 51 C-5.55920522 42.5573342 -6.51988045 34.18595362 -7.125 25.625 C-7.21136719 24.48933594 -7.29773438 23.35367187 -7.38671875 22.18359375 C-8.46645367 7.56432565 -8.46645367 7.56432565 -6.25 4.8828125 C-5.5075 4.30273438 -4.765 3.72265625 -4 3.125 C-3.2575 2.52945312 -2.515 1.93390625 -1.75 1.3203125 C-1.1725 0.88460938 -0.595 0.44890625 0 0 Z " fill="#015BAA" transform="translate(135,329)"/>
<path d="M0 0 C1.32 0.66 2.64 1.32 4 2 C4.07444911 7.56841139 4.12874318 13.13652964 4.16479492 18.70532227 C4.17983246 20.59762625 4.20026785 22.48989566 4.22631836 24.38208008 C4.26292399 27.11027586 4.2797769 29.83800871 4.29296875 32.56640625 C4.30845261 33.40522842 4.32393646 34.2440506 4.33988953 35.10829163 C4.34180956 41.88965463 2.80101072 46.29848392 -1 52 C-1.66 52 -2.32 52 -3 52 C-5.88253918 44.51022246 -6.09973531 36.66143024 -6.75341797 28.73535156 C-6.99526415 26.0525351 -7.30599557 23.38505718 -7.62890625 20.7109375 C-8.93138654 8.48261531 -8.93138654 8.48261531 -6.27734375 4.2578125 C-4.2582817 2.48445641 -2.41344101 1.16711261 0 0 Z " fill="#015BAA" transform="translate(188,330)"/>
<path d="M0 0 C2.70552388 2.19823815 4.44778333 3.89556667 6 7 C6.44985722 12.96060819 5.47702662 16.066679 1.6640625 20.58203125 C-1.39617589 23.18969917 -5.10231228 23.21986956 -9 23 C-13.37708765 20.89251335 -16.26716322 18.58692088 -18 14 C-18.29681245 9.06212015 -17.72559219 5.91653751 -14.625 2 C-9.88624783 -1.61047784 -5.58708636 -1.46048398 0 0 Z " fill="#015BAA" transform="translate(182,260)"/>
<path d="M0 0 C3.44087516 3.01076576 4.74772504 5.11703763 6 9.5 C6 13.65542661 5.35310932 15.58419615 3 19 C0.3498368 21.46086583 -1.55602797 22.87266561 -5.21484375 23.1953125 C-9.53844687 22.95071598 -11.57097126 22.34858585 -15 19.5625 C-18.21647569 15.44139052 -18.53345377 12.13696224 -18 7 C-16.62821625 3.57054063 -15.37849231 2.27035165 -12.375 0.125 C-7.94753914 -1.35082029 -4.45254176 -1.4677808 0 0 Z " fill="#015BAA" transform="translate(295,260)"/>
<path d="M0 0 C3.07061968 1.71368609 5.40450726 3.80901452 7 7 C7.53118173 10.79415519 7.85089348 14.46331178 5.953125 17.890625 C3.62635714 20.71012017 1.72989041 22.82327249 -1.98828125 23.203125 C-6.80729265 23.30031515 -10.1573109 23.26046348 -14 20 C-16.56124548 15.77033757 -16.55941772 11.8195988 -16 7 C-12.99727833 -0.05639591 -7.11866001 -1.2439181 0 0 Z " fill="#015BAA" transform="translate(237,282)"/>
<path d="M0 0 C0 2.97 0 5.94 0 9 C1.65 9 3.3 9 5 9 C5 10.98 5 12.96 5 15 C3.35 15 1.7 15 0 15 C0 21.27 0 27.54 0 34 C1.65 34.33 3.3 34.66 5 35 C5 37.31 5 39.62 5 42 C-4.14634146 42.30487805 -4.14634146 42.30487805 -7 40 C-9.73040538 35.1632819 -9.22384199 30.06678509 -9.125 24.6875 C-9.11597656 23.75615234 -9.10695313 22.82480469 -9.09765625 21.86523438 C-9.07418263 19.5765564 -9.04134729 17.28841328 -9 15 C-9.99 15 -10.98 15 -12 15 C-12 13.02 -12 11.04 -12 9 C-11.01 9 -10.02 9 -9 9 C-9 6.69 -9 4.38 -9 2 C-5.62902617 0.50178941 -3.79557881 0 0 0 Z " fill="#015BAA" transform="translate(308,418)"/>
<path d="M0 0 C2.97 0 5.94 0 9 0 C9 13.53 9 27.06 9 41 C6.03 41 3.06 41 0 41 C0 27.47 0 13.94 0 0 Z " fill="#015BAA" transform="translate(330,418)"/>
<path d="M0 0 C1.46373047 0.02707031 1.46373047 0.02707031 2.95703125 0.0546875 C3.69308594 0.07789063 4.42914063 0.10109375 5.1875 0.125 C4.8575 2.435 4.5275 4.745 4.1875 7.125 C1.8775 7.125 -0.4325 7.125 -2.8125 7.125 C-2.8125 15.705 -2.8125 24.285 -2.8125 33.125 C-5.4525 33.125 -8.0925 33.125 -10.8125 33.125 C-10.8125 22.895 -10.8125 12.665 -10.8125 2.125 C-6.3670917 0.34683668 -4.53134603 -0.10918906 0 0 Z " fill="#015BAA" transform="translate(353.8125,425.875)"/>
<path d="M0 0 C2.64 0 5.28 0 8 0 C8 10.56 8 21.12 8 32 C5.36 32 2.72 32 0 32 C0 21.44 0 10.88 0 0 Z " fill="#015BAA" transform="translate(416,427)"/>
<path d="M0 0 C0.9075 0.391875 1.815 0.78375 2.75 1.1875 C3.41 0.5275 4.07 -0.1325 4.75 -0.8125 C8.53903708 -0.55989753 10.29186593 1.46599443 12.75 4.1875 C11.4751791 7.03133123 10.29862922 9.32504018 7.75 11.1875 C5.8125 10.875 5.8125 10.875 3.75 10.1875 C0.01463508 9.92968222 0.01463508 9.92968222 -2.1875 11 C-2.868125 11.061875 -3.54875 11.12375 -4.25 11.1875 C-7 8.75 -7 8.75 -9.25 6.1875 C-7.29453702 1.4617978 -5.34722358 -1.33680589 0 0 Z " fill="#015BAA" transform="translate(84.25,384.8125)"/>
<path d="M0 0 C0.8971875 0.495 0.8971875 0.495 1.8125 1 C4.05386471 2.20787988 4.05386471 2.20787988 7 2 C8.32 1.34 9.64 0.68 11 0 C12.98 2.31 14.96 4.62 17 7 C14.8125 9.5625 14.8125 9.5625 12 12 C9.375 11.8125 9.375 11.8125 7 11 C3.89448334 11 2.64738916 11.5393715 0 13 C-2.5625 10.75 -2.5625 10.75 -5 8 C-5.09328009 4.92175717 -4.0196554 4.02144226 -1.9375 1.75 C-1.298125 1.1725 -0.65875 0.595 0 0 Z " fill="#015BAA" transform="translate(222,342)"/>
<path d="M0 0 C0.66 0.99 1.32 1.98 2 3 C2.86625 2.505 2.86625 2.505 3.75 2 C6 1 6 1 10 1 C12.3125 2.75 12.3125 2.75 14 5 C14 8.03822316 12.99700998 9.00326184 10.9375 11.25 C10.298125 11.8275 9.65875 12.405 9 13 C8.401875 12.67 7.80375 12.34 7.1875 12 C4.94613529 10.79212012 4.94613529 10.79212012 2 11 C-0.15028304 11.94978897 -0.15028304 11.94978897 -2 13 C-4.5625 10.75 -4.5625 10.75 -7 8 C-7.09132052 4.98642286 -6.02815944 4.03270128 -4.0625 1.75 C-2 0 -2 0 0 0 Z " fill="#015BAA" transform="translate(164,383)"/>
<path d="M0 0 C2.64 1.98 5.28 3.96 8 6 C4 12.57142857 4 12.57142857 0 14 C-1.98 12.02 -3.96 10.04 -6 8 C-4.55746343 4.63408134 -2.66735273 2.48952921 0 0 Z " fill="#015BAA" transform="translate(115,331)"/>
<path d="M0 0 C3.37503669 1.1858237 5.64722731 2.27573689 8 5 C5.89285714 10.99725275 5.89285714 10.99725275 3 13 C0.13601867 12.90761351 -1.05037647 11.96051574 -3.3125 10.1875 C-5 8 -5 8 -5 6 C-3.7407491 3.48149821 -2.07803895 1.8769384 0 0 Z " fill="#015BAA" transform="translate(442,331)"/>
<path d="M0 0 C2.71125323 1.23238783 4.24429416 2.5805665 6.0625 4.9375 C6.0625 7.97572316 5.05950998 8.94076184 3 11.1875 C2.360625 11.765 1.72125 12.3425 1.0625 12.9375 C-2.30341866 11.49496343 -4.44797079 9.60485273 -6.9375 6.9375 C-3.77302632 -0.12171053 -3.77302632 -0.12171053 0 0 Z " fill="#015BAA" transform="translate(470.9375,384.0625)"/>
<path d="M0 0 C3.36591866 1.44253657 5.51047079 3.33264727 8 6 C6.62845496 8.95409701 5.01136276 11.44008376 3 14 C-0.36591866 12.55746343 -2.51047079 10.66735273 -5 8 C-3.62845496 5.04590299 -2.01136276 2.55991624 0 0 Z " fill="#015BAA" transform="translate(32,348)"/>
<path d="M0 0 C1.010625 0.0825 2.02125 0.165 3.0625 0.25 C5.0625 3.25 5.0625 3.25 4.75 5.875 C4.0625 8.25 4.0625 8.25 3.0625 9.25 C0.125 9.4375 0.125 9.4375 -2.9375 9.25 C-3.5975 8.59 -4.2575 7.93 -4.9375 7.25 C-4.23447766 0.36038108 -4.23447766 0.36038108 0 0 Z " fill="#015BAA" transform="translate(419.9375,414.75)"/>
</svg>
