<?xml version="1.0" encoding="UTF-8"?>
<svg version="1.1" xmlns="http://www.w3.org/2000/svg" width="658" height="501">
<path d="M0 0 C11.4610202 8.52588088 18.06946085 20.03880307 21.125 33.90625 C21.186875 34.999375 21.24875 36.0925 21.3125 37.21875 C21.374375 37.90453125 21.43625 38.5903125 21.5 39.296875 C22.22576405 52.99567135 17.49238564 65.91781803 8.75 76.24609375 C-1.90523401 88.00265333 -15.25835667 94.2249784 -31.15625 95.49609375 C-45.97333307 95.90585822 -59.93006227 92.14705413 -71.4375 82.53125 C-82.29310155 72.18789099 -88.48285336 60.1673197 -89.6875 45.21875 C-90.00708027 29.68359815 -84.56288591 16.57138674 -74.1875 5.15625 C-53.54606595 -14.42965618 -23.32266394 -15.4580447 0 0 Z " fill="#FF0087" transform="translate(354.6875,108.78125)"/>
<path d="M0 0 C10.49298547 3.9858938 18.39056095 21.29712042 23 31 C29.85825126 46.46825593 35.45016092 62.95498839 36 80 C36.0515625 81.2478125 36.103125 82.495625 36.15625 83.78125 C36.94973612 111.70801061 28.83528252 136.29034392 10.0703125 157.14453125 C-9.39754113 177.58968677 -36.48394885 185.03550451 -63.875 185.96484375 C-90.04150268 186.43280643 -116.07716851 178.02224066 -138 164 C-139.10085937 163.3090625 -140.20171875 162.618125 -141.3359375 161.90625 C-148.91940931 156.93405261 -155.37784219 150.99986561 -161.8125 144.625 C-162.60817383 143.83947754 -163.40384766 143.05395508 -164.22363281 142.24462891 C-164.9606543 141.49616699 -165.69767578 140.74770508 -166.45703125 139.9765625 C-167.11678955 139.30705566 -167.77654785 138.63754883 -168.45629883 137.94775391 C-170.06300056 135.92050949 -170.59771684 134.52934214 -171 132 C-169.33333333 132.83333333 -167.66666667 133.66666667 -166 134.5 C-164.89914063 135.0465625 -163.79828125 135.593125 -162.6640625 136.15625 C-160.18253929 137.39500065 -157.72359151 138.66913633 -155.2734375 139.96875 C-127.58163431 154.50624455 -94.72378481 160.6675043 -64.15283203 151.68457031 C-46.3438048 146.02155009 -31.1394996 137.29118213 -18 124 C-17.19949219 123.20980469 -16.39898437 122.41960937 -15.57421875 121.60546875 C-5.06834772 110.6641212 1.58167791 97.38935429 6 83 C6.21027832 82.33226562 6.42055664 81.66453125 6.63720703 80.9765625 C14.29400359 55.66002853 10.34901919 29.48437746 1.171875 5.24609375 C0 2 0 2 0 0 Z " fill="#5613A2" transform="translate(381,107)"/>
<path d="M0 0 C20.67773313 16.36286741 33.02050757 40.8526011 36.1953125 66.90625 C36.48200576 71.63939979 36.52948948 76.35277384 36.5078125 81.09375 C36.50044067 83.00740356 36.50044067 83.00740356 36.49291992 84.9597168 C36.11071078 115.82849538 24.50308036 146.54644766 4.1953125 169.90625 C3.47472656 170.74800781 2.75414062 171.58976563 2.01171875 172.45703125 C-10.57151786 186.82852679 -10.57151786 186.82852679 -16.8046875 188.90625 C-15.55561458 185.6421396 -14.16464016 182.60578087 -12.44921875 179.5625 C4.76160973 148.37855385 11.59306385 114.98429192 2.1640625 80.08984375 C-6.40532713 52.32617938 -23.77938108 30.68976996 -49.359375 16.97265625 C-74.62515384 4.03906511 -104.39828927 2.43368509 -131.39941406 10.70068359 C-134.52985269 11.75249634 -137.62977447 12.8553838 -140.70361328 14.06298828 C-142.38670853 14.72323112 -144.09402373 15.3211349 -145.8046875 15.90625 C-146.4646875 15.57625 -147.1246875 15.24625 -147.8046875 14.90625 C-112.49750097 -24.70669099 -41.96610369 -31.32845624 0 0 Z " fill="#5613A2" transform="translate(424.8046875,74.09375)"/>
<path d="M0 0 C0.80179688 0.68835938 1.60359375 1.37671875 2.4296875 2.0859375 C3.33460938 2.85679688 4.23953125 3.62765625 5.171875 4.421875 C11.69633877 10.15111327 17.13796923 16.21323674 22.4296875 23.0859375 C21.4396875 23.4159375 20.4496875 23.7459375 19.4296875 24.0859375 C17.00421548 22.68219557 14.73853999 21.2250715 12.4296875 19.6484375 C-13.93294137 2.515144 -47.37763953 -4.39496105 -78.39477539 1.53295898 C-105.40378914 7.47788666 -129.45247736 22.74869685 -144.5703125 46.0859375 C-159.96276221 71.28596578 -164.52306001 100.98324938 -158.15332031 129.80664062 C-156.89778901 134.7152002 -155.23777823 139.5068606 -153.46435547 144.25048828 C-152.08994017 147.99912689 -151.34277069 150.27171453 -152.5703125 154.0859375 C-176.22654279 125.1448047 -188.55105314 91.32632501 -185.36376953 53.64404297 C-182.5595417 28.20455454 -170.26571171 5.51859586 -150.5703125 -10.9140625 C-105.62279568 -44.0235502 -41.23891418 -34.20801734 0 0 Z " fill="#5613A2" transform="translate(410.5703125,40.9140625)"/>
<path d="M0 0 C0.99 0.33 1.98 0.66 3 1 C2.5153125 1.72960938 2.030625 2.45921875 1.53125 3.2109375 C-6.99314836 16.48932726 -13.38144941 30.59930885 -17 46 C-17.29777344 47.14597656 -17.59554687 48.29195312 -17.90234375 49.47265625 C-22.18386513 68.23637439 -21.66479699 88.61384707 -16 107 C-15.45666016 108.82144531 -15.45666016 108.82144531 -14.90234375 110.6796875 C-9.98061818 125.66175381 -2.1895111 138.08397567 8 150 C8.89138672 151.04607422 8.89138672 151.04607422 9.80078125 152.11328125 C22.51047305 165.83217935 41.24817917 174.29423715 59 179 C59.845625 179.23460937 60.69125 179.46921875 61.5625 179.7109375 C82.8957536 184.82202951 104.6469644 181.04265174 125 174 C126.99661005 173.38472309 128.99617008 172.77884002 131 172.1875 C131.78375 171.95417969 132.5675 171.72085938 133.375 171.48046875 C133.91125 171.32191406 134.4475 171.16335937 135 171 C119.93804574 191.22605287 90.06201699 202.06643672 66 206 C38.26125239 209.96092231 10.7176355 205.21067026 -12.1875 188.6875 C-33.68783622 171.87711886 -46.26089889 148.66225923 -49.62109375 121.5703125 C-52.97955276 86.76100686 -44.61827024 51.84402652 -23 24 C-22.27039063 23.04996094 -21.54078125 22.09992187 -20.7890625 21.12109375 C-7.83650414 4.78269119 -7.83650414 4.78269119 0 0 Z " fill="#5613A2" transform="translate(230,41)"/>
<path d="M0 0 C0.66 0 1.32 0 2 0 C1.81824219 0.97271851 1.81824219 0.97271851 1.6328125 1.96508789 C-3.48326155 22.09242912 -3.48326155 22.09242912 -0.47265625 41.390625 C0.01332031 41.92171875 0.49929688 42.4528125 1 43 C4.2985139 42.27731765 4.2985139 42.27731765 5.6875 38.9375 C6.120625 37.968125 6.55375 36.99875 7 36 C7.33 36 7.66 36 8 36 C8.74486684 43.77972031 7.36345901 49.45481148 3 56 C0.12529507 57.43735246 -1.81894588 57.38172649 -5 57 C-8.86126389 53.4546577 -9.49260319 50.51375203 -9.70703125 45.51757812 C-9.72121094 44.74865234 -9.73539062 43.97972656 -9.75 43.1875 C-9.77964844 42.39923828 -9.80929687 41.61097656 -9.83984375 40.79882812 C-9.91011293 38.86642554 -9.95737134 36.93320985 -10 35 C-10.42410156 35.50789063 -10.84820312 36.01578125 -11.28515625 36.5390625 C-21.97065987 49.07985136 -33.63015715 55.11753096 -50 58 C-51.11568359 58.19722656 -51.11568359 58.19722656 -52.25390625 58.3984375 C-62.3671309 59.81851079 -74.27543515 60.29646266 -84 57 C-87.88386624 52.89032759 -88.0167165 48.44957946 -88 43 C-87.6150777 40.39003901 -87.00078935 38.47563682 -86 36 C-85.01 35.505 -85.01 35.505 -84 35 C-83.07226562 37.63671875 -83.07226562 37.63671875 -82.14453125 40.2734375 C-80.507941 42.74228696 -78.7842351 43.07930687 -76 44 C-57.30497781 46.1077287 -34.34194502 44.17636037 -18.41015625 33.21875 C-12.98778651 28.78945608 -10.2778132 24.53503612 -8 18 C-7.15114511 15.74799066 -6.29668982 13.49808664 -5.4375 11.25 C-5.04433594 10.18265625 -4.65117187 9.1153125 -4.24609375 8.015625 C-3.04930761 5.1193275 -1.79397476 2.56961902 0 0 Z " fill="#5613A2" transform="translate(468,318)"/>
<path d="M0 0 C0.99 0.33 1.98 0.66 3 1 C3 2.98 3 4.96 3 7 C3.99 7.495 3.99 7.495 5 8 C5.33 6.68 5.66 5.36 6 4 C9.875 4.875 9.875 4.875 11 6 C11.58046897 11.05293483 11.54901225 14.93983841 9.1875 19.5 C6.36585706 22.72473479 4.87606557 23.92035768 0.5625 24.3125 C-3.10495017 23.99079384 -4.3990807 23.49688253 -7 21 C-7.7425 21.61875 -8.485 22.2375 -9.25 22.875 C-12 25 -12 25 -14.05078125 25.61328125 C-17.28872841 27.91683083 -17.29064506 31.61015128 -17.9375 35.3125 C-21.06840218 50.96856778 -26.42228822 65.49307332 -40 75 C-46.95700491 79.06755367 -54.2637519 80.97567737 -62.25 79.3125 C-66.75106326 77.73712786 -69.7415888 76.48130273 -71.96875 72.08984375 C-77.24442165 58.24120568 -72.01733405 44.82174126 -66.5 31.93359375 C-65.19267396 29.37681809 -64.26205118 27.72727278 -62 26 C-61.34 26 -60.68 26 -60 26 C-60.95612509 30.93997963 -62.06925354 35.37566821 -64.0625 40 C-66.52126385 45.95279668 -67.95509882 51.13470354 -65.875 57.375 C-63.06480735 61.30926972 -60.53467357 62.56152184 -55.9375 63.875 C-49.14188885 64.09073369 -42.48502575 62.73951803 -36.875 58.8125 C-36.25625 58.214375 -35.6375 57.61625 -35 57 C-34.34 57 -33.68 57 -33 57 C-32.7215625 56.41863281 -32.443125 55.83726562 -32.15625 55.23828125 C-30.71227952 52.44302758 -28.97961949 49.89669346 -27.21875 47.29296875 C-23.78658416 40.83565674 -23.64485132 34.24882086 -23.43359375 27.140625 C-23.10887007 19.26254604 -23.10887007 19.26254604 -21 16 C-18.390625 15.171875 -18.390625 15.171875 -15.25 14.75 C-10.61762392 13.79912935 -10.61762392 13.79912935 -6.98046875 10.95703125 C-5.51843653 8.68810529 -4.25415777 6.38828064 -3 4 C-2.02342393 2.64941607 -1.02983441 1.31042698 0 0 Z " fill="#5613A2" transform="translate(201,323)"/>
<path d="M0 0 C0.33 0 0.66 0 1 0 C1.5136827 21.12662805 -1.49670004 43.85752626 -16.375 59.875 C-21.59071585 64.75081526 -27.76511226 68.54781952 -35 69 C-35.69996094 69.05027344 -36.39992188 69.10054688 -37.12109375 69.15234375 C-43.7813934 69.4331321 -48.41700622 67.9515953 -53.8125 63.875 C-58.30683774 57.96815612 -58.46708191 51.27176147 -57.6015625 44.0859375 C-55.6423423 34.03539233 -52.03112313 23.33811012 -46 15 C-45.01 14.67 -44.02 14.34 -43 14 C-43.40677676 19.9660592 -45.43739955 24.78120422 -47.84375 30.23046875 C-49.88617142 35.12262006 -50.58083764 39.68797577 -50 45 C-48.68324753 48.18792704 -47.87011569 49.56570675 -44.77734375 51.109375 C-38.20194558 53.2179415 -30.51867271 53.01156607 -24.125 50.375 C-17.21883167 46.73218593 -12.26533442 42.32158807 -8.91796875 35.171875 C-7.52589363 30.36181119 -7.50408462 25.60915067 -7.37695312 20.62744141 C-7.11490837 12.6367563 -5.12544898 6.2457657 0 0 Z " fill="#5613A2" transform="translate(295,332)"/>
<path d="M0 0 C-1.74618709 6.78750463 -4.23941856 11.25871433 -9.125 16.25 C-9.73827148 16.8905835 -10.35154297 17.53116699 -10.98339844 18.19116211 C-17.34870596 24.65627689 -24.4393552 30.00020754 -31.75292969 35.33349609 C-34.90307143 37.66974854 -37.97210693 40.10373135 -41.04785156 42.53662109 C-56.97627491 55.11960765 -56.97627491 55.11960765 -63 58 C-63.66 57.67 -64.32 57.34 -65 57 C-60.53299164 48.24466362 -53.86818173 42.65567008 -46.0625 36.875 C-34.85459566 28.4331765 -23.98741551 19.60553407 -13.3125 10.5 C-12.74829346 10.01974365 -12.18408691 9.5394873 -11.6027832 9.04467773 C-9.03273712 6.83450806 -6.59681522 4.58601056 -4.23046875 2.15625 C-2 0 -2 0 0 0 Z " fill="#5613A2" transform="translate(535,258)"/>
<path d="M0 0 C0.99 2.97 1.98 5.94 3 9 C3.99 6.36 4.98 3.72 6 1 C10.455 0.505 10.455 0.505 15 0 C16.14654482 2.29308963 16.19729117 3.79909656 16.31640625 6.3515625 C16.35830078 7.20234375 16.40019531 8.053125 16.44335938 8.9296875 C16.48267578 9.81914062 16.52199219 10.70859375 16.5625 11.625 C16.60568359 12.5221875 16.64886719 13.419375 16.69335938 14.34375 C16.79956861 16.56234283 16.90161194 18.7810488 17 21 C14.69 20.67 12.38 20.34 10 20 C9.67 17.36 9.34 14.72 9 12 C8.525625 13.134375 8.05125 14.26875 7.5625 15.4375 C6 19 6 19 5 20 C3.33382885 20.04063832 1.66611905 20.042721 0 20 C-0.99 17.69 -1.98 15.38 -3 13 C-3.33 15.31 -3.66 17.62 -4 20 C-6.31 20.33 -8.62 20.66 -11 21 C-10.85919445 18.22882696 -10.71256882 15.45817359 -10.5625 12.6875 C-10.52318359 11.90181641 -10.48386719 11.11613281 -10.44335938 10.30664062 C-10.40146484 9.54931641 -10.35957031 8.79199219 -10.31640625 8.01171875 C-10.27974854 7.31522217 -10.24309082 6.61872559 -10.20532227 5.90112305 C-10 4 -10 4 -9 1 C-6.04335481 -0.4783226 -3.25770263 -0.06032783 0 0 Z " fill="#5613A2" transform="translate(309,416)"/>
<path d="M0 0 C0.33 0 0.66 0 1 0 C0.60797133 6.32404152 0.18851114 12.62437198 -0.58203125 18.9140625 C-0.73115967 20.16352661 -0.73115967 20.16352661 -0.88330078 21.43823242 C-1.08223706 23.07267115 -1.29239865 24.70579271 -1.51513672 26.3371582 C-2.13181115 31.47593115 -1.7490954 35.11683774 0 40 C1.32 40.33 2.64 40.66 4 41 C4.639375 40.01 5.27875 39.02 5.9375 38 C6.618125 37.01 7.29875 36.02 8 35 C8.33 35 8.66 35 9 35 C9.5847137 41.57802914 7.71495253 47.02512272 5 53 C3 55 3 55 -0.9375 55.375 C-4.69369994 55.28653877 -4.69369994 55.28653877 -6.9375 53.1875 C-10.99665967 44.83040656 -8.96499098 34.48416259 -7.8125 25.5625 C-7.68375488 24.56130127 -7.55500977 23.56010254 -7.42236328 22.52856445 C-6.36042917 15.04211144 -4.61395637 8.69491917 -1 2 C-0.67 1.34 -0.34 0.68 0 0 Z " fill="#5613A2" transform="translate(491,319)"/>
<path d="M0 0 C0.66 0 1.32 0 2 0 C1.07415528 6.74346602 -0.19078823 12.92296288 -5 18 C-7.08203125 19.078125 -7.08203125 19.078125 -9.375 20.0625 C-14.77163128 22.6532416 -16.44697868 27.18607776 -18.52880859 32.48071289 C-20.32264202 36.97784074 -22.29836233 39.87095941 -26 43 C-31.35302612 45.16179901 -36.32685681 45.23155686 -42 45 C-40.48801707 40.51583146 -36.88019779 38.55959181 -33.125 36.0625 C-26.25689721 31.48140463 -22.42994302 27.52354866 -19.4375 19.625 C-16.63388769 13.28111195 -13.56347158 10.7613976 -7.5625 7.5 C-4.13685697 5.49474554 -2.36864575 3.13272502 0 0 Z " fill="#5613A2" transform="translate(350,336)"/>
<path d="M0 0 C1.04671875 -0.01417969 2.0934375 -0.02835937 3.171875 -0.04296875 C6.27080677 0.18905787 8.45276014 0.87694133 11.25 2.1875 C11.21744792 4.23828125 11.18489583 6.2890625 11.15234375 8.33984375 C11.04438816 10.20482141 11.04438816 10.20482141 12.25 11.1875 C12.625 14.0625 12.625 14.0625 12.25 17.1875 C8.25565246 20.44187389 4.97091522 20.51612379 -0.0625 20.375 C-1.94388672 20.33439453 -1.94388672 20.33439453 -3.86328125 20.29296875 C-4.81589844 20.25816406 -5.76851563 20.22335937 -6.75 20.1875 C-6.77888514 17.04168577 -6.79675923 13.89590531 -6.8125 10.75 C-6.82087891 9.85216797 -6.82925781 8.95433594 -6.83789062 8.02929688 C-6.84111328 7.17529297 -6.84433594 6.32128906 -6.84765625 5.44140625 C-6.85551147 4.25526733 -6.85551147 4.25526733 -6.86352539 3.04516602 C-6.61453495 -1.02917428 -3.36759186 0.0205341 0 0 Z " fill="#5816A3" transform="translate(399.75,415.8125)"/>
<path d="M0 0 C7 0 7 0 8.99609375 1.75 C9.70958984 2.86375 9.70958984 2.86375 10.4375 4 C11.17806641 5.11375 11.17806641 5.11375 11.93359375 6.25 C12.28550781 6.8275 12.63742187 7.405 13 8 C13.33 5.36 13.66 2.72 14 0 C15.98 0 17.96 0 20 0 C20 6.6 20 13.2 20 20 C13 20 13 20 11.00390625 18.03125 C10.52824219 17.1959375 10.05257813 16.360625 9.5625 15.5 C9.06878906 14.6646875 8.57507813 13.829375 8.06640625 12.96875 C7.71449219 12.3190625 7.36257813 11.669375 7 11 C6.67 13.97 6.34 16.94 6 20 C4.02 20 2.04 20 0 20 C0 13.4 0 6.8 0 0 Z " fill="#5613A2" transform="translate(449,416)"/>
<path d="M0 0 C7 0 7 0 8.99609375 1.75 C9.70958984 2.86375 9.70958984 2.86375 10.4375 4 C11.17806641 5.11375 11.17806641 5.11375 11.93359375 6.25 C12.28550781 6.8275 12.63742187 7.405 13 8 C13.33 5.36 13.66 2.72 14 0 C15.98 0 17.96 0 20 0 C20 6.6 20 13.2 20 20 C13 20 13 20 11.00390625 18.03125 C10.52824219 17.1959375 10.05257813 16.360625 9.5625 15.5 C9.06878906 14.6646875 8.57507813 13.829375 8.06640625 12.96875 C7.71449219 12.3190625 7.36257813 11.669375 7 11 C6.67 13.97 6.34 16.94 6 20 C4.02 20 2.04 20 0 20 C0 13.4 0 6.8 0 0 Z " fill="#5613A2" transform="translate(351,416)"/>
<path d="M0 0 C1.2375 0.7425 1.2375 0.7425 2.5 1.5 C2.57427838 4.84252724 2.56546953 7.3035914 1.5 10.5 C2.14438717 12.17540664 2.81246699 13.84183216 3.5 15.5 C3.5 16.82 3.5 18.14 3.5 19.5 C0.125 19.25 0.125 19.25 -3.5 18.5 C-5.44241961 15.9664092 -5.5 14.71812786 -5.5 11.5 C-6.49 11.5 -7.48 11.5 -8.5 11.5 C-8.5 14.14 -8.5 16.78 -8.5 19.5 C-10.81 19.17 -13.12 18.84 -15.5 18.5 C-15.5 12.23 -15.5 5.96 -15.5 -0.5 C-9.74352389 -1.93911903 -5.42796574 -2.32627103 0 0 Z " fill="#5714A2" transform="translate(164.5,417.5)"/>
<path d="M0 0 C8 0 8 0 9.875 1.53125 C10.431875 2.50578125 10.431875 2.50578125 11 3.5 C11.391875 4.1496875 11.78375 4.799375 12.1875 5.46875 C12.455625 5.9740625 12.72375 6.479375 13 7 C13.33 4.69 13.66 2.38 14 0 C15.98 0 17.96 0 20 0 C20 6.27 20 12.54 20 19 C18.02 19.33 16.04 19.66 14 20 C11.3513141 16.80331012 9.06007659 13.60513403 7 10 C6.67 13.3 6.34 16.6 6 20 C4.02 19.67 2.04 19.34 0 19 C0 12.73 0 6.46 0 0 Z " fill="#5613A2" transform="translate(204,417)"/>
<path d="M0 0 C3.74139138 6.81731788 6.22962267 13.4291181 8 21 C5.36 20.67 2.72 20.34 0 20 C-0.33 18.68 -0.66 17.36 -1 16 C-2.98 16 -4.96 16 -7 16 C-7.33 17.32 -7.66 18.64 -8 20 C-10.31 20.33 -12.62 20.66 -15 21 C-13.66192764 14.19813219 -12.126516 7.23077922 -9 1 C-5.8035914 -0.06546953 -3.34252724 -0.07427838 0 0 Z " fill="#5D1DA6" transform="translate(284,416)"/>
<path d="M0 0 C1.98 0 3.96 0 6 0 C6.66 1.32 7.32 2.64 8 4 C8.515625 3.34 9.03125 2.68 9.5625 2 C12.79995755 -0.65637543 14.92552281 -0.31342132 19 0 C17.74433095 3.47723736 16.26656844 6.09382458 14 9 C14.433125 9.62648438 14.86625 10.25296875 15.3125 10.8984375 C15.869375 11.71570313 16.42625 12.53296875 17 13.375 C17.556875 14.18710937 18.11375 14.99921875 18.6875 15.8359375 C20 18 20 18 20 20 C14.71502591 20.52849741 14.71502591 20.52849741 12 20 C9.5 17 9.5 17 8 14 C7.34 15.98 6.68 17.96 6 20 C4.02 20 2.04 20 0 20 C0 13.4 0 6.8 0 0 Z " fill="#5613A2" transform="translate(479,416)"/>
<path d="M0 0 C2.97 0 5.94 0 9 0 C11.87884807 6.59278183 14.50865808 12.95001999 16 20 C13.36 20 10.72 20 8 20 C8 18.68 8 17.36 8 16 C5.03 15.505 5.03 15.505 2 15 C1.67 16.65 1.34 18.3 1 20 C-2.96 20.495 -2.96 20.495 -7 21 C-4.96192707 13.8821847 -2.59655258 6.93292719 0 0 Z " fill="#5C1CA5" transform="translate(425,416)"/>
<path d="M0 0 C3.3 0 6.6 0 10 0 C11.00816056 2.58041096 12.0067111 5.16386944 13 7.75 C13.42925781 8.84441406 13.42925781 8.84441406 13.8671875 9.9609375 C14.13789063 10.66992188 14.40859375 11.37890625 14.6875 12.109375 C14.93886719 12.75874023 15.19023437 13.40810547 15.44921875 14.07714844 C16 16 16 16 16 20 C13.36 19.67 10.72 19.34 8 19 C7.67 18.01 7.34 17.02 7 16 C5.35 15.67 3.7 15.34 2 15 C1.67 16.32 1.34 17.64 1 19 C-1.31 19.33 -3.62 19.66 -6 20 C-4.63125844 13.04223041 -2.5466871 6.61396893 0 0 Z " fill="#5D1DA6" transform="translate(180,417)"/>
<path d="M0 0 C0.33 0 0.66 0 1 0 C1.07539006 4.034335 1.12917203 8.06838507 1.16479492 12.10327148 C1.17967888 13.46955526 1.19999286 14.83579308 1.22631836 16.2019043 C1.45724948 28.51370245 0.47951767 40.26829886 -6 51 C-6.99 51.66 -7.98 52.32 -9 53 C-8.85688704 51.14562138 -8.71036549 49.29150571 -8.5625 47.4375 C-8.48128906 46.40496094 -8.40007812 45.37242187 -8.31640625 44.30859375 C-8.10279007 42.07485424 -7.82225381 39.84665444 -7.48046875 37.62890625 C-7.13048738 34.98555102 -6.91889985 32.55340934 -6.859375 29.90625 C-6.32693016 6.32693016 -6.32693016 6.32693016 0 0 Z " fill="#5613A2" transform="translate(311,324)"/>
<path d="M0 0 C0.66 0 1.32 0 2 0 C-0.4876915 26.17645536 -0.4876915 26.17645536 -9 35 C-14.42817495 38.1732547 -19.76602333 39.54208493 -26 39 C-23.9109033 35.05317236 -21.79743728 32.84516229 -18.1875 30.25 C-9.9943866 23.83126727 -6.57473622 16.81444544 -3.6472168 7.05249023 C-2.18269791 2.18269791 -2.18269791 2.18269791 0 0 Z " fill="#5613A2" transform="translate(225,339)"/>
<path d="M0 0 C0.33 0 0.66 0 1 0 C1.07526343 4.05264618 1.12911541 8.1050108 1.16479492 12.15820312 C1.17969923 13.53132226 1.20002997 14.90439539 1.22631836 16.27734375 C1.43317103 27.37438093 0.71440953 37.82216628 -4.6875 47.75 C-5.12449219 48.56984375 -5.56148438 49.3896875 -6.01171875 50.234375 C-6.50091797 51.10835938 -6.50091797 51.10835938 -7 52 C-7.66 52 -8.32 52 -9 52 C-8.86722656 50.92105469 -8.73445313 49.84210938 -8.59765625 48.73046875 C-8.41786298 47.21631234 -8.2396032 45.70197341 -8.0625 44.1875 C-7.92001831 42.97755371 -7.92001831 42.97755371 -7.7746582 41.74316406 C-7.21144934 36.70203098 -6.89107873 31.71466567 -6.75561523 26.64526367 C-6.17344865 6.17344865 -6.17344865 6.17344865 0 0 Z " fill="#5613A2" transform="translate(366,324)"/>
<path d="M0 0 C5.94 0 11.88 0 18 0 C18.33 0.99 18.66 1.98 19 3 C16.68287538 6.94769379 13.90646395 10.47072234 11 14 C13.64 14.33 16.28 14.66 19 15 C18.67 16.65 18.34 18.3 18 20 C11.73 20 5.46 20 -1 20 C0.65554702 15.03335895 1.51394481 12.92740079 4.625 9.125 C5.25664062 8.34382813 5.88828125 7.56265625 6.5390625 6.7578125 C7.02117187 6.17773438 7.50328125 5.59765625 8 5 C5.36 5 2.72 5 0 5 C0 3.35 0 1.7 0 0 Z " fill="#5613A2" transform="translate(245,416)"/>
<path d="M0 0 C2.70313576 -0.21917317 4.43958382 -0.32851983 6.8125 1.0625 C8.68147675 4.11188311 8.36192054 6.50143481 8 10 C6.5 12.9375 6.5 12.9375 5 15 C1.62537285 14.45276317 -0.08235 13.9451 -3 12 C-3.268125 12.639375 -3.53625 13.27875 -3.8125 13.9375 C-5 16 -5 16 -8 17 C-10.75 15.5 -10.75 15.5 -13 13 C-13 8.16930351 -11.7402431 4.93165314 -9 1 C-6.03824877 1.61277612 -4.61941217 2.25372522 -2 4 C-1.34 2.68 -0.68 1.36 0 0 Z " fill="#5613A2" transform="translate(347,382)"/>
<path d="M0 0 C2.23288365 0.38497994 3.83656302 0.89493337 5.75 2.125 C7.76327172 5.14490758 7.42622232 7.46844367 7 11 C5 13.9375 5 13.9375 3 16 C-1.75 14.125 -1.75 14.125 -4 13 C-4.33 14.32 -4.66 15.64 -5 17 C-11.75 16.25 -11.75 16.25 -14 14 C-13.75704021 8.77636459 -11.68742135 5.33455057 -9 1 C-6.03 2.98 -6.03 2.98 -3 5 C-2.01 3.35 -1.02 1.7 0 0 Z " fill="#5613A2" transform="translate(190,379)"/>
<path d="M0 0 C4.28823264 0.85214879 6.24486941 2.55608676 9 6 C9.96444944 10.34002247 8.74401246 12.73969982 6.5 16.375 C5.6794958 17.59208124 4.85028164 18.80353227 4 20 C0.10674077 18.70224692 -2.56532028 17.37109499 -5 14 C-5 8.77609503 -2.4464213 4.48320927 0 0 Z " fill="#5613A2" transform="translate(266,348)"/>
<path d="M0 0 C3.35188425 1.61256616 5.71707744 2.98328091 8 6 C8.66490547 11.12927079 7.94927752 14.72863256 5 19 C2.6875 20.1875 2.6875 20.1875 0 20 C-3.375 17.9375 -3.375 17.9375 -6 15 C-6.37850562 9.44858425 -2.78109892 4.61806094 0 0 Z " fill="#5613A2" transform="translate(155,349)"/>
<path d="M0 0 C4.875 2.875 4.875 2.875 6 4 C6.44288225 11.82425308 6.44288225 11.82425308 4 15 C2.1875 16 2.1875 16 0 16 C-2.75 14.0625 -2.75 14.0625 -5 12 C-4.52389341 7.00088076 -2.96837781 4.02167317 0 0 Z " fill="#5613A2" transform="translate(485,381)"/>
<path d="M0 0 C1.98 0 3.96 0 6 0 C6.94870788 6.85988773 6.94870788 13.14011227 6 20 C4.02 20 2.04 20 0 20 C0 13.4 0 6.8 0 0 Z " fill="#5613A2" transform="translate(133,417)"/>
<path d="M0 0 C3.35780531 1.38943668 5.42053448 2.66557278 7 6 C6.61169322 9.99401255 5.86439479 13.13560521 3 16 C-0.01305957 15.61121812 -1.39685311 14.73543126 -4 13 C-4.89178672 7.52188156 -2.85528422 4.4613816 0 0 Z " fill="#5613A2" transform="translate(223,312)"/>
<path d="M0 0 C2.97 0.495 2.97 0.495 6 1 C6 7.27 6 13.54 6 20 C4.02 20 2.04 20 0 20 C0 13.4 0 6.8 0 0 Z " fill="#5613A2" transform="translate(335,416)"/>
<path d="M0 0 C2.4375 1.0625 2.4375 1.0625 5 3 C6.0625 6.375 6.0625 6.375 6 10 C4.0625 12.9375 4.0625 12.9375 2 15 C-0.49361571 13.79618552 -2.68143083 12.54571278 -5 11 C-4.46884894 6.48521602 -2.63379708 3.65333143 0 0 Z " fill="#5613A2" transform="translate(476,321)"/>
<path d="M0 0 C2.475 0.495 2.475 0.495 5 1 C4.67 2.32 4.34 3.64 4 5 C2.68 5 1.36 5 0 5 C0 3.35 0 1.7 0 0 Z " fill="#E5DBF1" transform="translate(155,420)"/>
<path d="M0 0 C1.65 0 3.3 0 5 0 C5 0.99 5 1.98 5 3 C3.35 3.66 1.7 4.32 0 5 C0 3.35 0 1.7 0 0 Z " fill="#F4F0F9" transform="translate(400,428)"/>
<path d="M0 0 C1.65 0 3.3 0 5 0 C5 0.99 5 1.98 5 3 C3.35 3.33 1.7 3.66 0 4 C0 2.68 0 1.36 0 0 Z " fill="#DACBEB" transform="translate(399,420)"/>
</svg>
