<?xml version="1.0" encoding="UTF-8"?>
<svg version="1.1" xmlns="http://www.w3.org/2000/svg" width="485" height="565">
<path d="M0 0 C2.36796037 1.10284067 3.80703605 2.38155199 5.65168476 4.23447323 C6.36516071 4.94382519 7.07863667 5.65317715 7.8137331 6.38402462 C8.58630955 7.16738689 9.35888599 7.95074917 10.15487385 8.75784969 C10.97647999 9.57901775 11.79808613 10.40018581 12.64458942 11.24623775 C15.36555422 13.96929647 18.07572814 16.70283994 20.78597736 19.43656063 C22.67335165 21.32953121 24.56130666 23.22190401 26.45005512 25.11350155 C30.91949713 29.59227239 35.38124116 34.0786314 39.84027106 38.56776595 C44.89663146 43.65753491 49.96139587 48.7389047 55.02694499 53.8195262 C63.69305807 62.5117078 72.35284981 71.21015208 81.00550556 79.91573238 C81.72180134 80.63636364 82.43809711 81.3569949 83.17609882 82.09946346 C84.16737435 83.09757927 84.16737435 83.09757927 85.17867565 84.11585903 C86.72956265 85.67223721 88.28944583 87.21880575 89.85203266 88.76340389 C91.97738361 90.92093563 91.97738361 90.92093563 94.28988361 93.79593563 C96.23860516 96.18320408 98.32650188 98.15857949 100.6744051 100.15360165 C104.79152927 103.71755102 108.66937646 107.4678978 112.51253986 111.32327938 C113.19489201 112.0046748 113.87724415 112.68607021 114.58027363 113.38811398 C116.01082798 114.81799304 117.44014129 116.24911474 118.86825275 117.68143368 C121.03437435 119.85291274 123.20578535 122.01899888 125.37777424 124.18460751 C126.77718349 125.58467765 128.17628245 126.98505801 129.57503986 128.38577938 C130.21377537 129.02249065 130.85251087 129.65920193 131.510602 130.31520748 C135.32313738 134.14730571 138.94893464 138.09360154 142.47482014 142.19132137 C144.37235134 144.37558651 146.36538811 146.44168869 148.41488361 148.48343563 C149.09421955 149.16534969 149.77355549 149.84726376 150.47347736 150.54984188 C152.41661702 152.38991329 154.38054987 154.12466817 156.41488361 155.85843563 C162.11555213 160.81585664 167.40222023 166.19656025 172.73202229 171.54520321 C174.53600446 173.35454496 176.34527026 175.15847882 178.15511799 176.96195126 C192.57698515 191.37042695 192.57698515 191.37042695 194.97738361 194.92093563 C194.97738361 197.92093563 194.97738361 197.92093563 193.47646523 199.79099751 C192.76764796 200.49704939 192.0588307 201.20310127 191.32853413 201.93054867 C190.11511341 203.15015537 190.11511341 203.15015537 188.87717915 204.3944006 C187.97801273 205.28278118 187.07884632 206.17116177 186.15243244 207.08646297 C185.20424798 208.03380145 184.25672316 208.98180055 183.30981159 209.93041134 C180.73152334 212.50956271 178.14406651 215.07933745 175.55491948 217.64758158 C172.84661344 220.33714752 170.14678716 223.03519786 167.44605732 225.73236752 C162.32268129 230.84640539 157.19170777 235.95275008 152.05798119 241.05639517 C146.23548688 246.84549603 140.42138002 252.64298853 134.60802519 258.44126487 C124.66364286 268.3595676 114.71294146 278.27149223 104.7552309 288.17641354 C97.82244826 295.07267705 90.91938841 301.99647499 84.04378986 308.94974422 C74.98892454 318.10266114 65.91888943 327.24039352 56.83985615 336.36933613 C51.34723525 341.89297108 45.86043136 347.42216816 40.3865633 352.96439266 C35.60076013 357.80992714 30.80456378 362.64488372 25.99550629 367.46734393 C23.45290248 370.01777304 20.91585603 372.57322799 18.39123249 375.14146709 C15.58065285 378.00022327 12.7471432 380.83512036 9.91097736 383.66849422 C9.07654102 384.52450222 8.24210468 385.38051022 7.38238239 386.26245785 C6.6086327 387.02795956 5.834883 387.79346127 5.03768635 388.58216 C4.37034977 389.25502733 3.70301319 389.92789467 3.01545429 390.62115192 C0.97738361 391.92093563 0.97738361 391.92093563 -1.52456856 391.85094166 C-4.41316111 390.77553851 -5.87988199 389.55926138 -8.05168438 387.37961483 C-8.81846508 386.61977795 -9.58524578 385.85994106 -10.37526226 385.07707882 C-11.20191891 384.23761211 -12.02857555 383.39814541 -12.8802824 382.53324032 C-13.76216228 381.65355083 -14.64404217 380.77386135 -15.55264568 379.86751461 C-17.9670051 377.45507051 -20.37211296 375.03405985 -22.77340722 372.60865211 C-25.29107718 370.06966641 -27.81971119 367.54164589 -30.34706402 365.01230526 C-34.59120115 360.76172095 -38.82786915 356.5038115 -43.05948162 352.24075985 C-48.48354473 346.77645022 -53.91896582 341.32359253 -59.35837173 335.87456036 C-64.04191888 331.18269439 -68.72099931 326.48638142 -73.39895415 321.78894043 C-74.4012017 320.78264984 -75.40360086 319.77651023 -76.40615106 318.77052116 C-79.70592093 315.45941927 -83.00121903 312.14392203 -86.2943449 308.82620907 C-87.12302578 307.99483929 -87.95170666 307.16346951 -88.80549908 306.3069067 C-94.61446112 300.44353756 -94.61446112 300.44353756 -97.06813335 297.30185604 C-99.39791795 294.46374918 -102.03241031 292.24089008 -104.81620884 289.85703754 C-108.77600784 286.38235109 -112.47472417 282.64216826 -116.2084074 278.92801571 C-117.08900326 278.05559734 -117.96959911 277.18317898 -118.87687969 276.28432369 C-121.7631122 273.42272515 -124.64543213 270.55723973 -127.52652264 267.69046688 C-128.52332825 266.69902937 -129.52013856 265.70759657 -130.51695347 264.7161684 C-134.65851029 260.59616926 -138.79865878 256.47476351 -142.93510818 252.34963608 C-148.84854 246.45250594 -154.77036253 240.56409185 -160.70392758 234.68721753 C-164.88770731 230.5420544 -169.06193692 226.38742862 -173.2291016 222.22556323 C-175.71503219 219.74328986 -178.20499235 217.26539577 -180.70523548 214.79753208 C-183.48436634 212.05389636 -186.24365916 209.29083925 -189.00137615 206.52567196 C-189.83396954 205.70948391 -190.66656292 204.89329586 -191.52438641 204.05237484 C-192.26872433 203.29971844 -193.01306225 202.54706203 -193.77995586 201.77159786 C-194.43417806 201.12068582 -195.08840025 200.46977377 -195.76244736 199.79913712 C-197.02261639 197.92093563 -197.02261639 197.92093563 -196.95974064 195.93811607 C-195.76774657 193.37232278 -194.27446167 191.79808211 -192.27128887 189.79538631 C-191.46504574 188.98212887 -190.6588026 188.16887142 -189.82812786 187.33096981 C-188.93719433 186.44768002 -188.0462608 185.56439022 -187.12832928 184.65433407 C-186.18499533 183.70857194 -185.24230772 182.76216476 -184.30021954 181.81516171 C-181.74100183 179.24653695 -179.17246559 176.68742166 -176.60189271 174.13016701 C-173.91544997 171.4550339 -171.23671785 168.77219964 -168.55690289 166.09043026 C-164.05693426 161.58957874 -159.55102114 157.09474703 -155.04141521 152.60355282 C-149.82215664 147.40548106 -144.61180329 142.19861428 -139.4062472 136.98682284 C-134.40316456 131.97805368 -129.3944437 126.97496169 -124.38290501 121.9746542 C-122.24761525 119.84401792 -120.11423253 117.71149836 -117.98231983 115.57748318 C-115.00947909 112.60241608 -112.02839113 109.63575184 -109.04629803 106.66995907 C-108.15738873 105.77857235 -107.26847942 104.88718563 -106.35263348 103.96878719 C-105.54357052 103.16680904 -104.73450756 102.36483089 -103.90092754 101.53855038 C-103.19613294 100.83580864 -102.49133833 100.1330669 -101.76518631 99.40902996 C-100.02261639 97.92093563 -100.02261639 97.92093563 -98.02261639 97.92093563 C-97.77062418 97.34459786 -97.51863197 96.7682601 -97.25900364 96.17445755 C-95.86441325 93.63258404 -94.28324675 91.92125697 -92.24042034 89.86458492 C-91.45252117 89.06671062 -90.664622 88.26883633 -89.8528471 87.44678402 C-88.98735241 86.58062466 -88.12185772 85.71446529 -87.23013592 84.82205868 C-86.3194334 83.90303265 -85.40873089 82.98400661 -84.47043133 82.03713131 C-81.97534558 79.52012793 -79.47374235 77.009703 -76.97022009 74.50109363 C-75.40696749 72.93419658 -73.8450208 71.36600959 -72.28350735 69.79737949 C-66.83783548 64.32723014 -61.38648202 58.86280984 -55.93033123 53.40311337 C-50.84016836 48.30930858 -45.7633079 43.20250151 -40.69227803 38.08965558 C-36.33926674 33.70200878 -31.97674121 29.32397614 -27.60672748 24.95326358 C-24.99609411 22.34183559 -22.38962885 19.72654585 -19.79282284 17.10136127 C-16.90025568 14.1778911 -13.98822313 11.27460842 -11.07388592 8.37283993 C-9.78171658 7.05841915 -9.78171658 7.05841915 -8.4634428 5.71744442 C-7.66990398 4.93366924 -6.87636517 4.14989407 -6.05877972 3.34236813 C-5.3718762 2.65345328 -4.68497269 1.96453844 -3.97725391 1.25474739 C-2.02261639 -0.07906437 -2.02261639 -0.07906437 0 0 Z M-99.02261639 98.92093563 C-99.02261639 163.27093563 -99.02261639 227.62093563 -99.02261639 293.92093563 C-34.34261639 293.92093563 30.33738361 293.92093563 96.97738361 293.92093563 C96.97738361 229.57093563 96.97738361 165.22093563 96.97738361 98.92093563 C32.29738361 98.92093563 -32.38261639 98.92093563 -99.02261639 98.92093563 Z " fill="#157215" transform="translate(243.02261638641357,0.07906436920166016)"/>
<path d="M0 0 C1.51803756 1.31276036 3.01935951 2.64520056 4.5 4 C5.18191406 4.59039062 5.86382812 5.18078125 6.56640625 5.7890625 C20.11900471 18.25427047 29.15133905 37.78028948 29.93359375 56.11328125 C29.9569322 58.17955611 29.95780848 60.24619314 29.9375 62.3125 C29.92614014 63.94880371 29.92614014 63.94880371 29.91455078 65.61816406 C29.6342027 79.41456387 25.69441658 90.75570323 19.5 103 C18.84 103 18.18 103 17.5 103 C17.43296875 103.53367187 17.3659375 104.06734375 17.296875 104.6171875 C13.44788454 116.12642367 -0.60375217 126.08705546 -10.6875 131.80859375 C-13.91187269 133.39312004 -17.13674776 134.73828755 -20.5 136 C-22.10294922 136.61875 -22.10294922 136.61875 -23.73828125 137.25 C-43.89219362 143.82341649 -66.50458816 141.38287563 -85.1875 131.9375 C-93.07423607 127.70411965 -99.33263579 122.43551048 -105.5 116 C-106.18578125 115.29875 -106.8715625 114.5975 -107.578125 113.875 C-122.02626829 98.29613246 -127.46600643 77.78035269 -126.83984375 56.9609375 C-125.75299345 36.87161204 -115.73287942 17.66585657 -101.375 3.8125 C-72.74582426 -21.09962806 -30.16450057 -23.39475769 0 0 Z " fill="#AA7346" transform="translate(290.5,134)"/>
<path d="M0 0 C0.66 0 1.32 0 2 0 C1.45230887 5.67292707 0.62032735 11.16832841 -0.51147461 16.75195312 C-4.82063216 35.89206863 -4.82063216 35.89206863 0 54 C1.88730393 55.19108371 1.88730393 55.19108371 4 55 C5.9830506 54.04874049 5.9830506 54.04874049 7.75 52.5625 C8.67039062 51.85287109 8.67039062 51.85287109 9.609375 51.12890625 C10.06828125 50.75636719 10.5271875 50.38382812 11 50 C10.65499489 59.07363429 9.20820505 66.77867757 3.625 74.125 C1 76 1 76 -1.9375 76.625 C-6.25361874 75.74415944 -7.91811519 74.15355655 -11 71 C-12.22488348 67.68364266 -12.11484419 64.42821538 -12.09765625 60.921875 C-12.09282227 59.18164062 -12.09282227 59.18164062 -12.08789062 57.40625 C-12.07532227 55.59640625 -12.07532227 55.59640625 -12.0625 53.75 C-12.05798828 52.52796875 -12.05347656 51.3059375 -12.04882812 50.046875 C-12.03704815 47.03120054 -12.02059853 44.01562502 -12 41 C-12.4125 41.56847656 -12.825 42.13695312 -13.25 42.72265625 C-19.86469793 51.56686174 -26.65778517 57.42502351 -36.6875 62.0625 C-37.59814209 62.48732666 -38.50878418 62.91215332 -39.44702148 63.34985352 C-58.5680549 71.98150291 -79.18246252 76.18198205 -100.125 76.3125 C-100.96546875 76.31813965 -101.8059375 76.3237793 -102.671875 76.32958984 C-111.10952439 76.23081577 -121.1304021 75.40980835 -128 70 C-131.53569627 63.22324881 -131.01703776 53.37385026 -129.32421875 46.09375 C-128.6357665 44.03165605 -127.83122594 42.00879601 -127 40 C-124.9896084 42.0103916 -124.35171346 43.31399941 -123.25 45.875 C-121.13027817 50.08394406 -119.4288383 52.01465869 -115 54 C-97.4218389 58.55827128 -76.50533967 57.43497927 -59 53 C-58.07832031 52.76893555 -57.15664063 52.53787109 -56.20703125 52.29980469 C-31.7248104 46.68816028 -31.7248104 46.68816028 -12.62890625 31.80078125 C-9.84274198 25.29973128 -7.40106279 18.71582036 -5.14282227 12.01489258 C-3.71727966 7.8231824 -2.08229869 3.92433214 0 0 Z " fill="#040605" transform="translate(393,439)"/>
<path d="M0 0 C0.33 0 0.66 0 1 0 C0.16155944 11.73816786 -5.95169063 18.71026075 -13.42626953 27.20849609 C-15.01103303 29.01255978 -16.58336836 30.82672731 -18.15234375 32.64453125 C-22.01719638 37.12058356 -25.89758753 41.58306247 -29.77880859 46.04492188 C-31.54080304 48.07095193 -33.30166455 50.09796266 -35.0625 52.125 C-35.8666333 53.04804932 -35.8666333 53.04804932 -36.68701172 53.98974609 C-39.53539652 57.26923779 -42.31320497 60.58512862 -45 64 C-44.39671875 64.17015625 -43.7934375 64.3403125 -43.171875 64.515625 C-41.97304687 64.87914062 -41.97304687 64.87914062 -40.75 65.25 C-39.96109375 65.48203125 -39.1721875 65.7140625 -38.359375 65.953125 C-35.40230057 67.26520438 -33.92392521 68.37843524 -32 71 C-31.5915707 73.69383148 -31.42761616 75.8805214 -31.5 78.5625 C-31.51208496 79.27486816 -31.52416992 79.98723633 -31.53662109 80.72119141 C-31.96458871 92.22444224 -37.22541088 103.26454112 -45.1875 111.5625 C-49.49483106 115.29552025 -53.13590332 115.35735817 -58.62109375 115.26953125 C-61 115 -61 115 -63.5 113.5 C-69.17494893 104.04175179 -67.12215429 92.28761788 -65.6796875 81.90234375 C-65.53854523 80.86920547 -65.39740295 79.8360672 -65.25198364 78.7716217 C-64.95139317 76.59535038 -64.64696037 74.41960662 -64.33886719 72.24438477 C-63.87998269 68.9730213 -63.4474004 65.69886425 -63.015625 62.42382812 C-61.68236399 52.71297672 -60.18183035 43.28433005 -56.9453125 34.00390625 C-56.69949432 33.29733383 -56.45367615 32.59076141 -56.20040894 31.86277771 C-55.46923828 29.93969727 -55.46923828 29.93969727 -54 27 C-53.01 26.67 -52.02 26.34 -51 26 C-51.53320692 34.06826258 -52.30597381 42.06741712 -53.33935547 50.08569336 C-53.83926581 54.0854486 -54.09460728 57.96972985 -54 62 C-47.84579474 55.40867362 -41.90328481 48.74347506 -36.24609375 41.71484375 C-33.9116941 38.89326505 -31.48009402 36.19409288 -29 33.5 C-25.70668301 29.92207537 -22.55348679 26.28460334 -19.5 22.5 C-15.58682697 17.65016322 -11.45965222 13.04338997 -7.23828125 8.4609375 C-5.41012182 6.45091927 -3.65272617 4.41822435 -1.9375 2.3125 C-0.9784375 1.1678125 -0.9784375 1.1678125 0 0 Z M-56.0625 84.125 C-57.55466283 87.10932566 -57.01841755 88.88109626 -56 92 C-54.04913936 94.610911 -54.04913936 94.610911 -51 96 C-47.35754001 96.22720998 -44.14509936 95.7156871 -41 93.75 C-39.60596778 91.31044362 -39.58538306 89.76411292 -40 87 C-41.87860833 84.4951889 -42.96101874 84.01299375 -46 83 C-49.59185814 82.62343423 -52.8420405 82.36838572 -56.0625 84.125 Z " fill="#040605" transform="translate(273,402)"/>
<path d="M0 0 C0.33 0 0.66 0 1 0 C1.70156038 8.20046132 0.66881799 14.12433635 -4 21 C-6.5625 23.625 -6.5625 23.625 -9 25 C-10.32 25 -11.64 25 -13 25 C-13.10441406 26.11761719 -13.20882812 27.23523438 -13.31640625 28.38671875 C-15.98971984 49.49060679 -27.59119237 73.565111 -43.875 87.3125 C-53.24327489 94.3707893 -62.83760327 98.51043993 -74.8046875 97.84375 C-80.38590959 96.96161155 -85.07481079 95.16529386 -89 91 C-95.32177778 81.30532249 -95.75083694 68.60578042 -93.48730469 57.47998047 C-91.29729147 49.23377627 -88.41528278 40.73217853 -83 34 C-82.34 34 -81.68 34 -81 34 C-81.41292259 37.9227646 -82.42572198 41.11115102 -84 44.6875 C-86.74351173 51.3704132 -88.16160761 58.33199256 -85.9375 65.375 C-83.7944461 70.15038951 -80.41407538 72.83003855 -75.7109375 75.109375 C-65.99883559 78.30009436 -55.14514343 75.86956134 -46 72 C-35.4064606 66.55005127 -28.89703163 58.14665664 -25 47 C-22.56686582 38.46375426 -21.61932025 30.10009303 -21.30859375 21.27734375 C-21.01125958 18.11957959 -20.34252444 15.85219048 -19 13 C-18.32453125 12.93941406 -17.6490625 12.87882812 -16.953125 12.81640625 C-16.06109375 12.73261719 -15.1690625 12.64882813 -14.25 12.5625 C-13.36828125 12.48128906 -12.4865625 12.40007812 -11.578125 12.31640625 C-9.28073783 12.03445419 -7.18715233 11.75690216 -5 11 C-3.84979475 8.75256244 -3.84979475 8.75256244 -3 6 C-2.01517978 3.99248185 -1.01847486 1.99065541 0 0 Z " fill="#040605" transform="translate(94,437)"/>
<path d="M0 0 C4.11140375 0.75515579 5.47963822 2.33392278 8.0625 5.5625 C11.56723593 12.47359331 11.3225455 22.13182837 9.22265625 29.515625 C8.03026691 32.06902439 6.69322792 34.26575696 5.0625 36.5625 C4.56234375 37.30628906 4.0621875 38.05007813 3.546875 38.81640625 C-0.07767548 43.51036238 -3.87390129 46.16695153 -9.06445312 48.8371582 C-18.96357028 53.95765071 -23.17705677 59.4496254 -27.859375 69.48828125 C-31.00571043 76.15128777 -36.54004042 80.98427064 -43.484375 83.4765625 C-49.1250087 85.14382163 -54.06941921 85.89465552 -59.9375 85.5625 C-58.43493249 81.69016887 -56.25035815 80.08094354 -52.875 77.75 C-48.43427166 74.6321658 -44.1388395 71.40656726 -39.91015625 68.0078125 C-37.9375 66.5625 -37.9375 66.5625 -35.80859375 65.6171875 C-33.41687559 64.26903739 -33.07459025 63.03154699 -31.9375 60.5625 C-30.56196748 57.76010645 -29.16329775 54.9710509 -27.75 52.1875 C-27.38841797 51.445 -27.02683594 50.7025 -26.65429688 49.9375 C-22.75463242 42.33953069 -17.59211387 38.00478874 -9.875 34.375 C-8.89402344 33.90707031 -7.91304687 33.43914062 -6.90234375 32.95703125 C-4.81983701 31.97751227 -2.72771172 31.01830952 -0.62890625 30.07421875 C2.35932686 28.79247666 2.35932686 28.79247666 3.0625 25.5625 C2.24265625 25.60890625 1.4228125 25.6553125 0.578125 25.703125 C-0.49953125 25.73921875 -1.5771875 25.7753125 -2.6875 25.8125 C-4.28851563 25.88210938 -4.28851563 25.88210938 -5.921875 25.953125 C-8.9375 25.5625 -8.9375 25.5625 -11.328125 23.921875 C-13.43145133 20.83835776 -13.43756936 19.23893586 -12.9375 15.5625 C-11.765625 12.7109375 -11.765625 12.7109375 -10.1875 9.9375 C-9.42179687 8.55691406 -9.42179687 8.55691406 -8.640625 7.1484375 C-6.20762374 3.45429338 -4.44826846 0.85179609 0 0 Z " fill="#040605" transform="translate(128.9375,442.4375)"/>
<path d="M0 0 C-1.3230513 10.16755866 -10.88066371 17.03756069 -18.5 22.9375 C-25.77349863 28.47598732 -33.21517027 33.77743864 -40.71484375 39.00390625 C-56.79603502 50.21380125 -72.60912529 61.85830995 -88 74 C-88.66 73.67 -89.32 73.34 -90 73 C-84.40125194 58.44325505 -69.63622493 49.40205947 -57.44042969 40.73486328 C-54.35390332 38.54069998 -51.28525655 36.32234929 -48.21679688 34.10302734 C-46.73722179 33.03310553 -45.25674994 31.96442275 -43.77539062 30.89697266 C-38.28621494 26.94069123 -32.82309608 22.95014647 -27.375 18.9375 C-26.5919751 18.36112793 -25.8089502 17.78475586 -25.00219727 17.19091797 C-21.08734241 14.30226351 -17.18968276 11.39342956 -13.31640625 8.44921875 C-12.57793457 7.88920166 -11.83946289 7.32918457 -11.07861328 6.75219727 C-9.6817528 5.69061515 -8.28803595 4.62488003 -6.89794922 3.55444336 C-2.22095368 0 -2.22095368 0 0 0 Z " fill="#040605" transform="translate(485,363)"/>
<path d="M0 0 C0.66 0 1.32 0 2 0 C2.36803973 7.54953299 0.94573237 14.59815929 -0.4375 22 C-4.51787841 40.61103296 -4.51787841 40.61103296 -2 59 C0.80045046 59.85650653 0.80045046 59.85650653 4 60 C6.27144074 58.14567913 6.27144074 58.14567913 8 56 C8.66 56 9.32 56 10 56 C9.0948646 65.49716697 7.98824479 74.01175521 1 81 C-6.07874016 81.68503937 -6.07874016 81.68503937 -9.4375 79.1875 C-16.87902106 68.76937051 -11.61850288 48.51010625 -9.75 36.625 C-9.59636993 35.6284288 -9.59636993 35.6284288 -9.43963623 34.61172485 C-7.60558052 22.88328785 -5.64841871 10.56017443 0 0 Z " fill="#040605" transform="translate(424,433)"/>
<path d="M0 0 C-1.20088478 8.57131509 -8.27333039 14.78489045 -14.59375 20.20703125 C-20.70123002 24.75789704 -27.49595161 28.28780362 -35.23046875 27.95703125 C-47.62743356 27.48324358 -47.62743356 27.48324358 -59 32 C-58.70445983 26.08919655 -56.00842564 22.15128358 -52 18 C-46.83209465 13.60805641 -42.77843996 13.49333845 -36.3125 13.5 C-23.18201123 13.16143225 -14.1679098 9.45939289 -3.87109375 1.31640625 C-2 0 -2 0 0 0 Z " fill="#040605" transform="translate(209,384)"/>
<path d="M0 0 C3.01657791 0.14030595 5.23841273 0.29351465 7.51171875 2.40234375 C8.73256066 3.88904235 9.87246522 5.44134898 11 7 C12.65 4.69 14.3 2.38 16 0 C19.28902165 0.29900197 21.56404634 0.72466085 24.375 2.5 C26.83554414 6.28545253 26.86517529 9.61692189 26 14 C24.61478971 16.8998347 22.94689183 19.44818106 21 22 C16.38486888 20.68139111 12.90102388 18.78644563 9 16 C7.35 17.98 5.7 19.96 4 22 C2.72549553 21.40361667 1.45553123 20.79752584 0.1875 20.1875 C-0.52019531 19.85105469 -1.22789063 19.51460937 -1.95703125 19.16796875 C-4.11889576 17.93202709 -5.56437428 17.04612436 -7 15 C-6.79127731 10.94000712 -5.06373748 8.08043214 -2.9375 4.6875 C-2.38964844 3.80449219 -1.84179688 2.92148437 -1.27734375 2.01171875 C-0.64505859 1.01591797 -0.64505859 1.01591797 0 0 Z " fill="#050605" transform="translate(61,543)"/>
<path d="M0 0 C0.66 0 1.32 0 2 0 C-2.46228397 58.75474076 -2.46228397 58.75474076 -11 69 C-11.99 69.495 -11.99 69.495 -13 70 C-12.43047762 63.15078685 -11.82399721 56.30552374 -11.19335938 49.46166992 C-10.9836118 47.13980929 -10.78191348 44.81720532 -10.58886719 42.49389648 C-9.45940243 28.97234027 -8.03167523 17.25282168 -2 5 C-1.31882961 3.33920828 -0.64660362 1.67455247 0 0 Z " fill="#040605" transform="translate(167,434)"/>
<path d="M0 0 C0.33 0 0.66 0 1 0 C1.34322734 5.87386787 0.18837882 10.41591611 -1.75 15.9375 C-2.12898438 17.07735352 -2.12898438 17.07735352 -2.515625 18.24023438 C-5.84007521 27.97256235 -10.27366678 38.29472556 -19.1875 44.0625 C-24.49019966 45.36644254 -29.56896698 45.24078472 -35 45 C-33.50750569 41.03447733 -31.33649628 39.68402034 -27.75 37.5625 C-15.23775986 29.82380981 -9.74379582 20.28252782 -4 7 C-1.32342007 1.32342007 -1.32342007 1.32342007 0 0 Z " fill="#040605" transform="translate(193,482)"/>
<path d="M0 0 C3.32739873 0.30249079 5.5627594 0.71234171 8.375 2.5625 C10.23671937 5.35507906 10.61739795 7.48018656 10.47265625 10.828125 C9.61889478 14.75119424 7.3682911 17.81972338 5 21 C0.24518354 20.42365861 -2.97048212 18.44931479 -7 16 C-6.71601983 9.32646591 -3.92194468 5.28922815 0 0 Z " fill="#040605" transform="translate(421,529)"/>
<path d="M0 0 C3.28902165 0.29900197 5.56404634 0.72466085 8.375 2.5 C10.43738541 5.67290064 10.67556035 7.86418667 10.5390625 11.60546875 C9.58111965 15.86067864 6.89236429 18.84078067 4 22 C2.53936857 21.21258141 1.08156827 20.4199095 -0.375 19.625 C-1.18710937 19.18414062 -1.99921875 18.74328125 -2.8359375 18.2890625 C-5 17 -5 17 -7 15 C-6.67459897 10.93594878 -5.07616254 8.10025938 -2.9375 4.6875 C-2.38964844 3.80449219 -1.84179688 2.92148437 -1.27734375 2.01171875 C-0.64505859 1.01591797 -0.64505859 1.01591797 0 0 Z " fill="#040605" transform="translate(42,458)"/>
<path d="M0 0 C3.37514756 1.27364059 6.19991083 2.34992755 9 4.625 C10.62814841 8.49185248 10.1614636 12.02078448 9 16 C7.52950281 18.36725941 5.99024815 20.00975185 4 22 C-0.19360449 21.32902328 -3.40334352 19.1441606 -7 17 C-6.70368676 10.18479548 -3.69535803 5.61649218 0 0 Z " fill="#040605" transform="translate(127,402)"/>
<path d="M0 0 C4.18518142 0.49920333 5.69712752 0.729348 8.9375 3.625 C11 7 11 7 11.0625 10.5 C9.49976702 15.64782628 7.49644597 19.00236935 3 22 C1.51180543 21.0980639 0.03467187 20.17785871 -1.4375 19.25 C-2.26121094 18.73953125 -3.08492188 18.2290625 -3.93359375 17.703125 C-6 16 -6 16 -7 14.1875 C-7 10.75797701 -5.34471877 8.62656363 -3.5625 5.75 C-2.90378906 4.67234375 -2.24507813 3.5946875 -1.56640625 2.484375 C-1.04949219 1.66453125 -0.53257812 0.8446875 0 0 Z " fill="#040605" transform="translate(404,437)"/>
</svg>
