<?xml version="1.0" encoding="UTF-8"?>
<svg version="1.1" xmlns="http://www.w3.org/2000/svg" width="333" height="404">
<path d="M0 0 C109.89 0 219.78 0 333 0 C333 133.32 333 266.64 333 404 C223.11 404 113.22 404 0 404 C0 270.68 0 137.36 0 0 Z " fill="#DDD95F" transform="translate(0,0)"/>
<path d="M0 0 C49.17 0 98.34 0 149 0 C149 6.93 149 13.86 149 21 C141.74 21 134.48 21 127 21 C127 35.85 127 50.7 127 66 C105.75 65.6875 105.75 65.6875 99.12011719 65.48706055 C88.41333147 65.20928629 88.41333147 65.20928629 79.1003418 69.76538086 C76.48386645 72.39375537 74.30492954 75.24312822 72.21818542 78.30223083 C70.16373834 81.16548699 67.73554006 83.63221811 65.3125 86.1875 C62.30811349 89.35610501 62.30811349 89.35610501 60 93 C60.73863281 92.80277344 61.47726563 92.60554688 62.23828125 92.40234375 C66.055628 91.82513376 68.30079893 91.77684282 72 93 C75.69870898 96.70857221 83 105.53016911 83 111 C80.36 111 77.72 111 75 111 C75 115.62 75 120.24 75 125 C69.72 125 64.44 125 59 125 C59.2475 127.413125 59.2475 127.413125 59.5 129.875 C59.99749111 135.27733304 60.07859006 140.57728582 60 146 C54.72 146 49.44 146 44 146 C44 154.91 44 163.82 44 173 C41.03 173.99 38.06 174.98 35 176 C32.32687466 178.21812528 30.47878052 179.86209114 29.12890625 183.0703125 C28 185 28 185 26.1171875 185.87109375 C25.00730469 186.15146484 25.00730469 186.15146484 23.875 186.4375 C15.59809327 188.96175727 10.57222475 192.34053125 6.3203125 200.01953125 C3.89610397 205.49193098 2.42079611 211.19980882 1 217 C0.67 217 0.34 217 0 217 C0 145.39 0 73.78 0 0 Z " fill="#FFFFFF" transform="translate(0,0)"/>
<path d="M0 0 C49.5 0 99 0 150 0 C150 71.61 150 143.22 150 217 C148.23710659 213.47421318 146.77974718 209.96654846 145.3125 206.3125 C141.54774657 197.34012951 137.14115522 189.98886773 128 186 C126.96875 185.9175 125.9375 185.835 124.875 185.75 C122 185 122 185 120.69140625 183.23828125 C119.8560368 181.7887461 119.02917385 180.33427501 118.2109375 178.875 C116.52029741 176.2572347 115.00697546 175.66006778 112 175 C110.02 174.67 108.04 174.34 106 174 C106 164.76 106 155.52 106 146 C100.72 146 95.44 146 90 146 C90 139.07 90 132.14 90 125 C85.05 125 80.1 125 75 125 C75 119.72 75 114.44 75 109 C72.36 109 69.72 109 67 109 C67.70576172 107.89591797 67.70576172 107.89591797 68.42578125 106.76953125 C69.04839844 105.79371094 69.67101562 104.81789063 70.3125 103.8125 C70.92738281 102.84957031 71.54226562 101.88664062 72.17578125 100.89453125 C74.03115799 98.07502404 74.03115799 98.07502404 75.34375 95.1875 C77 93 77 93 79.91796875 92.29296875 C80.99691406 92.25816406 82.07585937 92.22335938 83.1875 92.1875 C84.81751953 92.11595703 84.81751953 92.11595703 86.48046875 92.04296875 C87.31191406 92.02878906 88.14335937 92.01460938 89 92 C77.97438363 78.0823912 77.97438363 78.0823912 66 65 C64.65016252 64.87814857 63.29425299 64.82233169 61.93920898 64.79467773 C61.06631226 64.77449585 60.19341553 64.75431396 59.29406738 64.73352051 C58.37073608 64.71704468 57.44740479 64.70056885 56.49609375 64.68359375 C55.22965027 64.65561707 55.22965027 64.65561707 53.93762207 64.6270752 C50.77102542 64.55855993 47.60424936 64.49855045 44.4375 64.4375 C37.363125 64.293125 30.28875 64.14875 23 64 C23 49.81 23 35.62 23 21 C15.41 21 7.82 21 0 21 C0 14.07 0 7.14 0 0 Z " fill="#FFFFFF" transform="translate(183,0)"/>
<path d="M0 0 C5.24693388 -0.09955505 10.49330697 -0.1717896 15.7409668 -0.21972656 C17.52263986 -0.23972905 19.30424823 -0.26694023 21.08569336 -0.30175781 C23.66015673 -0.35078148 26.23374557 -0.37308216 28.80859375 -0.390625 C29.98572182 -0.42159271 29.98572182 -0.42159271 31.18663025 -0.45318604 C37.86445561 -0.4558403 40.24843712 0.99930539 47 4 C47 64.06 47 124.12 47 186 C-1.84 186 -50.68 186 -101 186 C-101 178.08 -101 170.16 -101 162 C-96.38 162 -91.76 162 -87 162 C-87 151.77 -87 141.54 -87 131 C-65.22 131 -43.44 131 -21 131 C-21 105.26 -21 79.52 -21 53 C-16.05 53 -11.1 53 -6 53 C-6 50.69 -6 48.38 -6 46 C0.27 46 6.54 46 13 46 C13 42.7 13 39.4 13 36 C16.96 36 20.92 36 25 36 C25 30.39 25 24.78 25 19 C21.04 19 17.08 19 13 19 C13 14.71 13 10.42 13 6 C8.05 6 3.1 6 -2 6 C-1.34 4.02 -0.68 2.04 0 0 Z " fill="#FFFFFF" transform="translate(286,218)"/>
<path d="M0 0 C0.76837189 0.0028299 1.53674377 0.00565979 2.32839966 0.00857544 C4.76336771 0.01969939 7.19795712 0.0447889 9.6328125 0.0703125 C11.29166132 0.08035239 12.95051596 0.08947647 14.609375 0.09765625 C18.65899829 0.11961313 22.70834137 0.15408844 26.7578125 0.1953125 C27.7478125 2.5053125 28.7378125 4.8153125 29.7578125 7.1953125 C24.1478125 7.1953125 18.5378125 7.1953125 12.7578125 7.1953125 C12.7578125 11.4853125 12.7578125 15.7753125 12.7578125 20.1953125 C8.7978125 20.1953125 4.8378125 20.1953125 0.7578125 20.1953125 C0.7578125 25.8053125 0.7578125 31.4153125 0.7578125 37.1953125 C4.7178125 37.1953125 8.6778125 37.1953125 12.7578125 37.1953125 C12.7578125 40.4953125 12.7578125 43.7953125 12.7578125 47.1953125 C19.3578125 47.1953125 25.9578125 47.1953125 32.7578125 47.1953125 C32.7578125 49.5053125 32.7578125 51.8153125 32.7578125 54.1953125 C37.7078125 54.1953125 42.6578125 54.1953125 47.7578125 54.1953125 C47.7578125 79.9353125 47.7578125 105.6753125 47.7578125 132.1953125 C69.5378125 132.1953125 91.3178125 132.1953125 113.7578125 132.1953125 C113.7578125 142.4253125 113.7578125 152.6553125 113.7578125 163.1953125 C118.3778125 163.1953125 122.9978125 163.1953125 127.7578125 163.1953125 C127.7578125 171.1153125 127.7578125 179.0353125 127.7578125 187.1953125 C78.9178125 187.1953125 30.0778125 187.1953125 -20.2421875 187.1953125 C-20.48400571 141.96635188 -20.48400571 141.96635188 -20.53515625 123.05078125 C-20.57079415 109.97658206 -20.6127475 96.90261442 -20.69482422 83.82861328 C-20.75456517 74.30795092 -20.79332215 64.78747594 -20.80671847 55.26663136 C-20.81455123 50.22374993 -20.83300122 45.18140462 -20.87656784 40.13869476 C-20.9172251 35.39439787 -20.92987056 30.65085905 -20.92083359 25.9064045 C-20.92248733 24.16325578 -20.93446352 22.4200823 -20.95742035 20.67708397 C-20.98720238 18.2997157 -20.98012855 15.92522293 -20.9637146 13.54779053 C-20.98119165 12.85518025 -20.9986687 12.16256998 -21.01667535 11.44897151 C-20.98047447 9.51424789 -20.98047447 9.51424789 -20.2421875 6.1953125 C-13.99857504 1.00637466 -7.92708912 -0.11138894 0 0 Z " fill="#FFFFFF" transform="translate(20.2421875,216.8046875)"/>
<path d="M0 0 C40.26 0 80.52 0 122 0 C117.64618691 8.70762618 108.34452619 14.38964162 100.56640625 19.95703125 C98.22113663 21.82396582 96.64602201 23.51701765 95 26 C109.76648352 16.41771998 109.76648352 16.41771998 120.76757812 3.43066406 C122.63040106 0.82965464 123.57159239 0.09706602 126.73066711 -0.61869812 C130.30345533 -0.81197898 133.81800962 -0.78619557 137.39453125 -0.68359375 C139.12672913 -0.67301941 139.12672913 -0.67301941 140.8939209 -0.66223145 C145.20061013 -0.62565389 149.50660477 -0.527923 153.8125 -0.4375 C163.444375 -0.293125 173.07625 -0.14875 183 0 C183 24.09 183 48.18 183 73 C122.61 73 62.22 73 0 73 C0 48.91 0 24.82 0 0 Z " fill="#18260F" transform="translate(75,267)"/>
<path d="M0 0 C0.8646991 -0.01929062 1.72939819 -0.03858124 2.62030029 -0.05845642 C6.58894939 -0.1160349 10.55741195 -0.16549544 14.52636719 -0.19628906 C16.61963402 -0.21786412 18.71281075 -0.25196101 20.80566406 -0.29882812 C23.82039771 -0.36576398 26.83326128 -0.39327942 29.84863281 -0.41235352 C31.24888702 -0.4540995 31.24888702 -0.4540995 32.6774292 -0.49668884 C39.01735547 -0.47663868 39.01735547 -0.47663868 41.66174316 1.5163269 C43.51051182 3.64519364 44.92675781 5.30852474 44.92675781 8.20874023 C44.15023865 8.17166458 43.37371948 8.13458893 42.57366943 8.09638977 C36.20660975 8.14351032 36.20660975 8.14351032 30.62805176 10.8946228 C28.50811379 13.35544975 26.84468785 15.8294235 25.19238281 18.62670898 C24.2873703 20.14436104 24.2873703 20.14436104 23.36407471 21.69267273 C15.68780207 36.27459526 17.87366704 52.86429059 18.8102417 68.79119873 C20.50042049 97.72335734 20.50042049 97.72335734 14.15136719 106.07348633 C10.52744707 110.01010624 6.57926815 113.34520679 2.25842285 116.49032593 C-1.73113163 119.43058852 -5.56552784 122.70102589 -9.07324219 126.20874023 C-9.19654307 128.01841763 -9.25114402 129.83281861 -9.27856445 131.64648438 C-9.29850967 132.80761246 -9.3184549 133.96874054 -9.33900452 135.16505432 C-9.36407326 137.06033119 -9.36407326 137.06033119 -9.38964844 138.99389648 C-9.41042953 140.27985214 -9.43121063 141.5658078 -9.45262146 142.89073181 C-9.50790395 146.31509927 -9.5572858 149.73952773 -9.60546875 153.16400146 C-9.65563883 156.65618327 -9.71129454 160.14827725 -9.76660156 163.64038086 C-9.87477983 170.49643383 -9.97375416 177.35253352 -10.07324219 184.20874023 C-18.98324219 184.20874023 -27.89324219 184.20874023 -37.07324219 184.20874023 C-37.2833765 176.38006982 -37.48355778 168.56167302 -37.59074402 160.73262787 C-37.64343404 157.08679418 -37.71374034 153.44330694 -37.82763672 149.79882812 C-37.93677663 146.28431297 -37.99617548 142.77206285 -38.02201462 139.25598335 C-38.04932929 137.27063756 -38.12732852 135.2861971 -38.20620728 133.30223083 C-38.21164761 124.50952764 -38.21164761 124.50952764 -35.16717529 121.03079224 C-31.61646863 118.49632352 -28.02520015 116.60319182 -23.99687195 114.934021 C-20.62824723 113.32379847 -18.51060952 112.05834001 -16.07324219 109.20874023 C-14.38374597 103.80160656 -14.83190413 97.94444881 -15.03066826 92.35117149 C-15.13344081 89.42476072 -15.16704827 86.50446187 -15.18360901 83.57637024 C-15.23131804 77.34797608 -15.36595836 71.12302712 -15.51074219 64.89624023 C-15.67449125 57.7107023 -15.80095396 50.5276758 -15.84587288 43.34034157 C-15.88085894 40.48762205 -15.97686532 37.6415273 -16.07652283 34.79045105 C-16.32090537 21.26988994 -12.69346171 12.31753507 -5.07324219 1.20874023 C-3.54314599 -0.32135597 -2.13376589 0.04432109 0 0 Z " fill="#18260F" transform="translate(207.0732421875,74.791259765625)"/>
<path d="M0 0 C0.79275833 0.00888245 1.58551666 0.01776489 2.40229797 0.0269165 C3.30300522 0.02721863 4.20371246 0.02752075 5.13171387 0.02783203 C6.10055008 0.04847717 7.06938629 0.06912231 8.06758118 0.09039307 C9.06215836 0.09605286 10.05673553 0.10171265 11.08145142 0.10754395 C14.26090954 0.12995087 17.43924442 0.18015602 20.61836243 0.23101807 C22.77264304 0.25107745 24.9269413 0.26932919 27.08125305 0.28570557 C32.36486375 0.32642704 37.64772128 0.40147265 42.93086243 0.48101807 C51.27372607 12.74477611 54.30984414 22.04336428 53.53148842 36.83963966 C53.38358266 39.77356449 53.31288197 42.70104678 53.26135254 45.63816833 C53.10481663 53.96647676 52.83657271 62.28806383 52.46870422 70.60968018 C50.13773396 92.33937371 50.13773396 92.33937371 56.02781677 112.18319702 C59.61392657 114.78562876 63.2654386 116.36804783 67.37983704 117.96356201 C70.33689298 119.23749851 72.54490302 120.30765011 74.93086243 122.48101807 C78.35509104 131.65622648 77.00570102 142.49039013 76.37281799 152.11450195 C76.15588193 155.76600324 76.06166235 159.4206023 75.95625305 163.07672119 C75.7326114 170.21975088 75.36428387 177.3471869 74.93086243 184.48101807 C66.35086243 184.48101807 57.77086243 184.48101807 48.93086243 184.48101807 C49.03269836 180.540354 49.1345343 176.59968994 49.23945618 172.53961182 C49.28697937 168.67692212 49.30849207 164.81488817 49.32759094 160.95196533 C49.34612074 158.28609129 49.40786938 155.63148184 49.48970032 152.96563721 C50.47795177 135.34227937 50.47795177 135.34227937 42.69271851 120.31123352 C40.14068142 117.94562314 37.51977354 115.78329038 34.69412231 113.75294495 C32.39354717 112.0934259 30.3284467 110.21309894 28.24336243 108.29351807 C27.68262024 107.82558838 27.12187805 107.35765869 26.54414368 106.87554932 C26.01176086 106.415354 25.47937805 105.95515869 24.93086243 105.48101807 C24.24426544 104.9228389 23.55766846 104.36465973 22.8502655 103.78956604 C20.31326955 100.73821276 20.49112458 99.08021822 20.60713196 95.14971924 C20.63260101 93.86284714 20.65807007 92.57597504 20.68431091 91.25010681 C20.70620609 90.56293768 20.72810127 89.87576855 20.75065994 89.16777611 C20.81470251 86.98902798 20.84463746 84.8122842 20.86418152 82.63270569 C20.92130579 76.4365761 21.0007758 70.24266741 21.1945343 64.0491333 C21.81449737 43.28337961 20.66254983 29.20622214 7.19816589 12.26100159 C5.93086243 10.48101807 5.93086243 10.48101807 5.93086243 8.48101807 C1.64086243 8.48101807 -2.64913757 8.48101807 -7.06913757 8.48101807 C-3.20066184 0.74406661 -3.20066184 0.74406661 0 0 Z " fill="#16240E" transform="translate(87.06913757324219,74.51898193359375)"/>
<path d="M0 0 C6.6 0 13.2 0 20 0 C20 7.59 20 15.18 20 23 C27.59 23 35.18 23 43 23 C43.25546279 28.81887475 43.47324067 34.61768192 43.60424805 40.43774414 C43.65892343 42.40782165 43.73350023 44.37746699 43.82983398 46.34594727 C43.96626724 49.20958652 44.02626723 52.06725295 44.07421875 54.93359375 C44.13099289 55.78642441 44.18776703 56.63925507 44.2462616 57.51792908 C44.25308734 64.5800122 41.48300915 68.41563311 37.48071289 73.90673828 C31.19295482 82.79123867 30.62002725 90.12472136 31.11025238 100.78899956 C31.23794976 103.63835878 31.28900342 106.4808329 31.32208252 109.33277893 C31.41684117 116.39468033 31.61727253 123.45227253 31.85235596 130.51080322 C32.05223298 136.51487022 32.19270968 142.51394011 32.24701691 148.52116585 C32.29589137 151.31486878 32.4314873 154.09561449 32.56976318 156.88609314 C32.85188179 168.77597455 32.85188179 168.77597455 29.49623108 172.80595779 C25.51066905 176.31123016 19.4736503 181 14 181 C13.89170686 178.10315842 13.81256046 175.21038981 13.75 172.3125 C13.71648437 171.49587891 13.68296875 170.67925781 13.6484375 169.83789062 C13.63554687 169.04189453 13.62265625 168.24589844 13.609375 167.42578125 C13.58842773 166.69786377 13.56748047 165.96994629 13.54589844 165.2199707 C14 163 14 163 15.9942627 161.1081543 C19.09315598 156.30601074 18.57057986 151.65039022 18.54589844 146.04956055 C18.55623611 144.83938766 18.56657379 143.62921478 18.57722473 142.38237 C18.60163384 139.07258399 18.60849027 135.76363966 18.60750484 132.45382285 C18.61063707 128.99173879 18.63626164 125.5298224 18.65948486 122.06782532 C18.70002491 115.51604009 18.7203808 108.96435433 18.73345876 102.41246301 C18.74933563 94.95169853 18.78775408 87.49110319 18.82805204 80.03043687 C18.91042362 64.68700405 18.96373319 49.3436149 19 34 C13.06 34 7.12 34 1 34 C0.99170483 50.0814536 1.01504832 66.16240782 1.0802784 82.24371624 C1.10977052 89.7106475 1.12809992 97.17729412 1.12011719 104.64428711 C1.11318743 111.15286471 1.12723622 117.6610018 1.16643608 124.16947109 C1.1864599 127.6155503 1.19600511 131.06093783 1.18042374 134.50705528 C1.16341887 138.35496702 1.19325291 142.20174304 1.22705078 146.04956055 C1.21482986 147.19107574 1.20260895 148.33259094 1.1900177 149.50869751 C1.10729824 154.98933457 1.10729824 154.98933457 3.36319542 159.7676363 C5.16434729 161.29265474 5.16434729 161.29265474 8 163 C8.68115234 165.2199707 8.68115234 165.2199707 8.5859375 167.42578125 C8.56660156 168.22177734 8.54726562 169.01777344 8.52734375 169.83789062 C8.47707031 170.65451172 8.42679688 171.47113281 8.375 172.3125 C8.34792969 173.14845703 8.32085937 173.98441406 8.29296875 174.84570312 C8.22259563 176.89825247 8.11498322 178.94946591 8 181 C6.32970849 180.34246787 4.66406709 179.67312923 3 179 C1.91320953 178.58391479 0.82641907 178.16782959 -0.29330444 177.73913574 C-9.03953314 173.56332423 -9.03953314 173.56332423 -10.70954132 169.10635376 C-11.62357883 164.2163983 -11.43964812 159.29631022 -11.22346878 154.34596252 C-11.0994518 151.48251571 -11.05690753 148.62752957 -11.0340271 145.76159668 C-10.9703862 139.67189122 -10.80236165 133.58729227 -10.625 127.5 C-10.42795241 120.4660573 -10.27537417 113.43501855 -10.21036911 106.39854431 C-10.16523117 103.60361405 -10.05218455 100.81721626 -9.9347229 98.02453613 C-9.68432518 87.23188155 -11.34997376 80.99274353 -18.02894497 72.43877411 C-22.29686759 66.94992882 -23.52729214 62.8340726 -23.07421875 55.8125 C-23.05865433 54.85851318 -23.0430899 53.90452637 -23.02705383 52.92163086 C-22.96660126 49.94348816 -22.82893711 46.97527396 -22.6875 44 C-22.63217828 41.95325873 -22.58201397 39.90637131 -22.53710938 37.859375 C-22.42675778 32.8995723 -22.21167929 27.96056509 -22 23 C-14.74 23 -7.48 23 0 23 C0 15.41 0 7.82 0 0 Z " fill="#192610" transform="translate(156,7)"/>
<path d="M0 0 C1.88753494 -0.03816582 1.88753494 -0.03816582 3.8132019 -0.07710266 C5.17901593 -0.07810864 6.54483224 -0.0773479 7.91064453 -0.07495117 C9.32163308 -0.08594934 10.73261389 -0.09798465 12.14358521 -0.11100769 C15.09758399 -0.13188443 18.05083865 -0.13321159 21.00488281 -0.12207031 C24.7775541 -0.11038864 28.54685195 -0.15786238 32.31890678 -0.22153187 C35.23257883 -0.26226482 38.1454467 -0.26588324 41.0593605 -0.25913048 C42.44919735 -0.26132686 43.8390769 -0.27611028 45.22863388 -0.30408669 C56.09026767 -0.49769048 56.09026767 -0.49769048 59.84465027 2.33862305 C61.58276367 4.39648438 61.58276367 4.39648438 63.12451172 6.59901428 C64.76526342 8.82597343 66.30455985 10.02392299 68.6003418 11.54077148 C73.97963858 15.33173634 78.71793141 19.08994153 80.45526123 25.67834473 C81.54150626 34.13074265 81.03699118 42.58552682 80.60595703 51.06958008 C80.53060165 53.65532317 80.46218061 56.24127815 80.40087891 58.82739258 C80.23671799 65.12112893 79.9867748 71.40685377 79.66845703 77.69458008 C76.13028698 77.9026879 72.59369757 78.02843222 69.05126953 78.13989258 C68.05329346 78.19959229 67.05531738 78.25929199 66.02709961 78.32080078 C58.76343376 78.49224134 58.76343376 78.49224134 55.68338013 76.24850464 C52.87177042 73.06319763 50.73858656 69.51014131 48.89501953 65.68676758 C46.39424444 60.85461932 43.55744657 56.38275796 40.50439453 51.88989258 C40.04640472 51.21578339 39.58841492 50.54167419 39.11654663 49.84713745 C38.1843682 48.47871638 37.25116856 47.11099042 36.31695557 45.74395752 C34.06748401 42.44755345 31.83858498 39.13788698 29.62158203 35.81958008 C29.22224457 35.23073029 28.8229071 34.64188049 28.41146851 34.03518677 C25.66845703 29.92307216 25.66845703 29.92307216 25.66845703 27.69458008 C6.19845703 27.69458008 -13.27154297 27.69458008 -33.33154297 27.69458008 C-32.312732 21.58171424 -31.04299006 18.27864375 -26.58544922 14.03051758 C-23.6081473 12.2658083 -21.51517429 12.39511384 -18.08154297 12.50708008 C-16.46505859 12.54768555 -16.46505859 12.54768555 -14.81591797 12.58911133 C-13.99607422 12.62391602 -13.17623047 12.6587207 -12.33154297 12.69458008 C-12.26966797 11.64270508 -12.20779297 10.59083008 -12.14404297 9.50708008 C-10.67219186 2.60070182 -6.86341516 0.08093045 0 0 Z " fill="#17240E" transform="translate(48.33154296875,181.305419921875)"/>
<path d="M0 0 C2.9359152 0.14893338 5.86923585 0.18978872 8.80837345 0.22769547 C12.33963336 0.27784952 15.86835804 0.38599797 19.39801025 0.50097656 C20.7031105 0.53902405 22.00821075 0.57707153 23.3528595 0.61627197 C32.01163426 1.1211963 32.01163426 1.1211963 35.05862427 3.16638184 C37.40145088 5.80565109 38.10088236 7.73105777 38.425354 11.23535156 C38.322229 12.10160156 38.219104 12.96785156 38.112854 13.86035156 C38.99328369 13.80234375 39.87371338 13.74433594 40.78082275 13.68457031 C50.32519442 13.31381226 50.32519442 13.31381226 54.175354 15.98535156 C54.814729 16.93410156 55.454104 17.88285156 56.112854 18.86035156 C56.875979 19.87097656 57.639104 20.88160156 58.425354 21.92285156 C60.112854 24.86035156 60.112854 24.86035156 60.112854 28.86035156 C59.42255096 28.79959946 58.73224792 28.73884735 58.02102661 28.67625427 C25.95812045 24.69440267 25.95812045 24.69440267 -3.67962646 32.88867188 C-12.74173811 41.44574448 -17.24848442 53.86009773 -21.82824707 65.18817139 C-26.274595 75.72291388 -26.274595 75.72291388 -30.887146 78.86035156 C-38.05790451 80.74053929 -45.62650518 79.85104514 -52.887146 78.86035156 C-53.45385043 71.43408193 -53.83355835 64.01349075 -54.09564209 56.5703125 C-54.2050264 54.0509449 -54.35423883 51.53293191 -54.54681396 49.01855469 C-55.5377467 35.72839802 -55.1313408 24.89839867 -46.59992981 14.10189819 C-33.51477685 -0.4699872 -18.4254104 -1.10042889 0 0 Z " fill="#17250F" transform="translate(257.88714599609375,180.1396484375)"/>
<path d="M0 0 C4.95 0 9.9 0 15 0 C15 4.62 15 9.24 15 14 C20.94 14 26.88 14 33 14 C33 9.38 33 4.76 33 0 C37.95 0 42.9 0 48 0 C48 7.59 48 15.18 48 23 C43.38 23 38.76 23 34 23 C34 30.92 34 38.84 34 47 C27.4 47 20.8 47 14 47 C14 39.41 14 31.82 14 24 C10.8134375 24.0309375 10.8134375 24.0309375 7.5625 24.0625 C5.37500389 24.08373783 3.18639453 24.07258946 1 24 C0 23 0 23 -0.11352539 20.77514648 C-0.10828857 19.81680908 -0.10305176 18.85847168 -0.09765625 17.87109375 C-0.09443359 16.83662109 -0.09121094 15.80214844 -0.08789062 14.73632812 C-0.07951172 13.64771484 -0.07113281 12.55910156 -0.0625 11.4375 C-0.05798828 10.34501953 -0.05347656 9.25253906 -0.04882812 8.12695312 C-0.0369984 5.41794568 -0.01906231 2.7089662 0 0 Z " fill="#1A2811" transform="translate(142,348)"/>
<path d="M0 0 C3.06753695 -0.42560722 5.03389654 -0.65510759 8 0 C14.8764352 5.25638968 19.2083811 15.35302529 20.61889648 23.63305664 C21.40303516 32.46348259 21.16382841 41.26824152 20.82397461 50.11413574 C20.69905113 53.72104346 20.64596321 57.32903237 20.5859375 60.9375 C20.45895768 67.96088133 20.25543722 74.98001382 20 82 C17.36 82 14.72 82 12 82 C12.00745743 81.27131714 12.01491486 80.54263428 12.02259827 79.79187012 C12.08548833 72.85053574 12.10393714 65.91027497 12.07515812 58.96875763 C12.06186416 55.40158067 12.06445418 51.83603408 12.10620117 48.26904297 C12.28660132 31.84125483 12.08316897 18.65875259 2 5 C0.71508789 2.10351562 0.71508789 2.10351562 0 0 Z " fill="#1D2914" transform="translate(82,92)"/>
<path d="M0 0 C1.134375 0.020625 2.26875 0.04125 3.4375 0.0625 C2.70931945 3.73228898 1.08575554 5.87097294 -1.15042114 8.85121155 C-10.03896157 21.43859402 -8.93315352 35.77871918 -8.71270752 50.50708008 C-8.67024916 54.07440489 -8.68550869 57.64148824 -8.6953125 61.20898438 C-8.70621096 68.16093579 -8.65510661 75.1111743 -8.5625 82.0625 C-10.8725 82.0625 -13.1825 82.0625 -15.5625 82.0625 C-15.95426819 76.35387781 -16.21124761 70.64865361 -16.41162109 64.93017578 C-16.52180295 62.10574068 -16.65268638 59.28660173 -16.80322266 56.46435547 C-18.8086164 17.51851379 -18.8086164 17.51851379 -5.77758789 2.37719727 C-3.63951478 0.06385114 -3.63951478 0.06385114 0 0 Z " fill="#1E2B13" transform="translate(246.5625,91.9375)"/>
<path d="M0 0 C1.51400391 0.01740234 1.51400391 0.01740234 3.05859375 0.03515625 C4.07050781 0.04417969 5.08242188 0.05320313 6.125 0.0625 C6.90746094 0.07410156 7.68992187 0.08570313 8.49609375 0.09765625 C6.78802384 5.15111752 3.92189372 9.39123186 1.05859375 13.84765625 C0.53160889 14.67442871 0.00462402 15.50120117 -0.53833008 16.35302734 C-2.18847053 18.93784554 -3.84535464 21.51822845 -5.50390625 24.09765625 C-6.30731445 25.3501416 -6.30731445 25.3501416 -7.12695312 26.62792969 C-8.6458499 28.99451731 -10.16759273 31.35923191 -11.69140625 33.72265625 C-12.16054443 34.4506543 -12.62968262 35.17865234 -13.11303711 35.92871094 C-16.38311133 40.97686133 -16.38311133 40.97686133 -17.50390625 42.09765625 C-19.52354824 42.17009678 -21.54557749 42.18142813 -23.56640625 42.16015625 C-24.67113281 42.15113281 -25.77585938 42.14210938 -26.9140625 42.1328125 C-28.19603516 42.11541016 -28.19603516 42.11541016 -29.50390625 42.09765625 C-27.84072892 37.12346158 -25.00131153 33.08111329 -22.09375 28.76953125 C-21.56624649 27.97992004 -21.03874298 27.19030884 -20.49525452 26.37677002 C-19.38366691 24.7145864 -18.26988576 23.05386788 -17.15405273 21.39453125 C-15.43993804 18.84547288 -13.73208574 16.29231185 -12.02539062 13.73828125 C-10.94436904 12.12345779 -9.86300092 10.50886623 -8.78125 8.89453125 C-8.01094704 7.744617 -8.01094704 7.744617 -7.2250824 6.57147217 C-6.75111526 5.86693909 -6.27714813 5.16240601 -5.78881836 4.43652344 C-5.37071396 3.81428894 -4.95260956 3.19205444 -4.52183533 2.55096436 C-2.81189775 0.1096684 -2.81189775 0.1096684 0 0 Z " fill="#1B2813" transform="translate(266.50390625,216.90234375)"/>
<path d="M0 0 C3.8674242 -0.70381433 7.14157764 -0.81895817 11 0 C12.96679688 1.92407227 12.96679688 1.92407227 14.71875 4.56640625 C15.39550781 5.56534912 16.07226562 6.56429199 16.76953125 7.59350586 C17.12805176 8.14166962 17.48657227 8.68983337 17.85595703 9.25460815 C19.0550681 11.08401381 20.28025076 12.89365032 21.51171875 14.70141602 C23.74336388 17.98564028 25.95072645 21.28527624 28.1484375 24.59228516 C29.5225549 26.65892198 30.90169853 28.7221439 32.28125 30.78515625 C33.1565468 32.09876062 34.03155805 33.4125553 34.90625 34.7265625 C35.31862915 35.34310699 35.7310083 35.95965149 36.15588379 36.59487915 C39 40.88498637 39 40.88498637 39 42 C36.98680982 42.27246183 34.96274695 42.46517217 32.9375 42.625 C31.81214844 42.74101562 30.68679687 42.85703125 29.52734375 42.9765625 C23.80197468 41.39146586 21.96194185 36.89994294 19 32 C18.37552979 31.01789551 17.75105957 30.03579102 17.10766602 29.02392578 C15.15198465 25.94693437 13.22879444 22.85165114 11.3125 19.75 C10.01774983 17.66094819 8.72220128 15.57239095 7.42578125 13.484375 C6.83104004 12.52466797 6.23629883 11.56496094 5.62353516 10.57617188 C4.30326273 8.48120726 2.94807447 6.42880034 1.54296875 4.390625 C0 2 0 2 0 0 Z " fill="#1B2712" transform="translate(58,217)"/>
<path d="M0 0 C0 4.52306868 -2.61951648 6.36539536 -5.58984375 9.59765625 C-9.44442763 13.43974553 -13.66533613 16.72061639 -18 20 C-19.66906758 21.26767842 -21.33586422 22.53835431 -23 23.8125 C-23.721875 24.35519531 -24.44375 24.89789063 -25.1875 25.45703125 C-29.73862711 29.33137438 -30.69641023 34.76856986 -31.23046875 40.453125 C-31.36950336 43.74554438 -31.36950336 43.74554438 -31 47 C-30.01 47.66 -29.02 48.32 -28 49 C-27.67 48.01 -27.34 47.02 -27 46 C-26.67 46.99 -26.34 47.98 -26 49 C-27.9375 52.1875 -27.9375 52.1875 -30 55 C-31.9375 54.5 -31.9375 54.5 -34 53 C-34.68790422 50.30341548 -34.81946464 47.7982981 -35 45 C-35.47308594 45.47050781 -35.94617188 45.94101562 -36.43359375 46.42578125 C-43.9812737 53.53207641 -52.30155415 56.11640189 -62.625 56.1875 C-63.56601563 56.20167969 -64.50703125 56.21585937 -65.4765625 56.23046875 C-68 56 -68 56 -71 54 C-71.29296875 51.8359375 -71.29296875 51.8359375 -71.1875 49.375 C-71.16042969 48.55773437 -71.13335937 47.74046875 -71.10546875 46.8984375 C-71.07066406 46.27195312 -71.03585938 45.64546875 -71 45 C-70.34 45.99 -69.68 46.98 -69 48 C-60.73612759 51.01141113 -51.00967265 48.71612276 -43 46 C-39.1359055 44.15525547 -36.1274934 41.74844076 -34 38 C-33.2492825 35.81874859 -32.5653086 33.6349979 -31.94140625 31.4140625 C-29.71245718 25.69833419 -26.15620107 21.97628394 -21.4375 18.1875 C-20.91736328 17.7651709 -20.39722656 17.3428418 -19.86132812 16.90771484 C-18.24651052 15.59799428 -16.62351717 14.2989118 -15 13 C-12.99791128 11.37757412 -10.99778347 9.75272425 -9 8.125 C-7.700625 7.07699219 -7.700625 7.07699219 -6.375 6.0078125 C-4.12451913 4.10526782 -2.04931207 2.11572496 0 0 Z " fill="#E3F4A9" transform="translate(244,270)"/>
<path d="M0 0 C0.33 0 0.66 0 1 0 C1 16.5 1 33 1 50 C50.17 50 99.34 50 150 50 C150 49.34 150 48.68 150 48 C149.34 48 148.68 48 148 48 C148.33 46.02 148.66 44.04 149 42 C149.99 42 150.98 42 152 42 C152.33 42.33 152.66 42.66 153 43 C152.67 45.64 152.34 48.28 152 51 C101.84 51 51.68 51 0 51 C0 34.17 0 17.34 0 0 Z " fill="#242D1F" transform="translate(75,289)"/>
<path d="M0 0 C-0.0625 2.3125 -0.0625 2.3125 -1 5 C-3.31808364 6.03485877 -5.65175298 7.0355414 -8 8 C-9.22292585 9.96323357 -9.22292585 9.96323357 -9 12 C-8.34 12.66 -7.68 13.32 -7 14 C-6.66494571 20.20967277 -7.83880428 25.27648054 -12 30 C-15.09772093 32.55898686 -17.16726945 33.8501085 -21.125 34.5625 C-24 34 -24 34 -26.375 31.9375 C-28.4686715 28.15278614 -28.56382445 26.29916143 -28 22 C-26.84121343 18.58357753 -25.48190238 15.2879709 -24 12 C-23 15 -23 15 -23.9375 17.3125 C-25.14926993 20.37756511 -25.15192141 22.73368961 -25 26 C-18.17666817 26.54859003 -18.17666817 26.54859003 -11.9375 24.1875 C-9.80456149 22.06749463 -9.80456149 22.06749463 -9 19 C-10.32 18.67 -11.64 18.34 -13 18 C-13.58249212 14.08898149 -13.62884704 12.0379357 -11.546875 8.6015625 C-4.9217233 0 -4.9217233 0 0 0 Z " fill="#DEEFA5" transform="translate(114,292)"/>
<path d="M0 0 C0.33 0 0.66 0 1 0 C1.4248796 13.05324561 1.4248796 13.05324561 -1 18 C-3.80418435 20.36288841 -6.81651367 22.19345413 -10 24 C-13.74113066 26.19862504 -13.74113066 26.19862504 -17 29 C-19.5625 28.75 -19.5625 28.75 -22 28 C-24.96144685 22.0771063 -22.85369622 13.05311915 -21 7 C-20.34 6.34 -19.68 5.68 -19 5 C-19 10.28 -19 15.56 -19 21 C-17.35 21.33 -15.7 21.66 -14 22 C-13.34 21.34 -12.68 20.68 -12 20 C-9.68191636 18.96514123 -7.34824702 17.9644586 -5 17 C-4.34 16.67 -3.68 16.34 -3 16 C-2.60608782 13.31727082 -2.60608782 13.31727082 -2.5 10.1875 C-2.308284 6.25252912 -2.04526982 3.40603401 0 0 Z " fill="#DBEDA3" transform="translate(167,296)"/>
<path d="M0 0 C2.64 0 5.28 0 8 0 C8 5.94 8 11.88 8 18 C5.36 18 2.72 18 0 18 C0 12.06 0 6.12 0 0 Z " fill="#243018" transform="translate(244,156)"/>
<path d="M0 0 C2.64 0 5.28 0 8 0 C8 5.94 8 11.88 8 18 C5.36 18 2.72 18 0 18 C0 12.06 0 6.12 0 0 Z " fill="#1E2A15" transform="translate(80,156)"/>
<path d="M0 0 C0.99386719 0.02707031 1.98773438 0.05414063 3.01171875 0.08203125 C4.15060547 0.13423828 4.15060547 0.13423828 5.3125 0.1875 C5.3125 2.8275 5.3125 5.4675 5.3125 8.1875 C0.0325 8.1875 -5.2475 8.1875 -10.6875 8.1875 C-8.05009635 1.59399088 -7.15255424 -0.25244309 0 0 Z " fill="#222E18" transform="translate(274.6875,240.8125)"/>
<path d="M0 0 C9.66803489 -0.91431503 9.66803489 -0.91431503 12.84375 1.265625 C14.63984461 3.41676157 16 5.12480787 16 8 C10.72 8 5.44 8 0 8 C0 5.36 0 2.72 0 0 Z " fill="#263118" transform="translate(53,241)"/>
<path d="M0 0 C0 4.52306868 -2.61951648 6.36539536 -5.58984375 9.59765625 C-9.44442763 13.43974553 -13.66533613 16.72061639 -18 20 C-19.66906758 21.26767842 -21.33586422 22.53835431 -23 23.8125 C-23.721875 24.35519531 -24.44375 24.89789063 -25.1875 25.45703125 C-28.47037995 28.25172431 -29.33276504 30.88538444 -30 35 C-31.485 35.495 -31.485 35.495 -33 36 C-32.25226338 28.02414271 -27.26502362 22.98231221 -21.375 18.0625 C-19.79173553 16.7846093 -18.20004989 15.51878354 -16.60058594 14.26123047 C-14.04272101 12.24568285 -11.52263152 10.18436005 -9 8.125 C-7.700625 7.07699219 -7.700625 7.07699219 -6.375 6.0078125 C-4.12451913 4.10526782 -2.04931207 2.11572496 0 0 Z " fill="#DAEBA2" transform="translate(244,270)"/>
<path d="M0 0 C0 4.27574202 -2.0205958 5.77415437 -4.81689453 8.8515625 C-8.5348729 12.51049894 -12.68984354 15.48949368 -16.9375 18.5 C-17.81212891 19.13164062 -18.68675781 19.76328125 -19.58789062 20.4140625 C-21.71923306 21.95142426 -23.8564443 23.47973864 -26 25 C-26 22 -26 22 -24.34765625 20.203125 C-23.59355469 19.55859375 -22.83945313 18.9140625 -22.0625 18.25 C-21.24007812 17.54488281 -20.41765625 16.83976562 -19.5703125 16.11328125 C-16.50150503 13.59014319 -13.37534805 11.15409517 -10.21875 8.7421875 C-6.68831348 5.97004896 -3.34137602 2.99540248 0 0 Z " fill="#DBECA2" transform="translate(196,269)"/>
<path d="M0 0 C1.13480527 3.60993172 1.10015767 6.9842327 1.0625 10.75 C1.05347656 11.92046875 1.04445312 13.0909375 1.03515625 14.296875 C1.02355469 15.18890625 1.01195312 16.0809375 1 17 C1.99 17.33 2.98 17.66 4 18 C4.33 17.34 4.66 16.68 5 16 C4.45276317 19.37462715 3.9451 21.08235 2 24 C-1.875 23.125 -1.875 23.125 -3 22 C-2.96141331 19.23363142 -2.85395845 16.50910589 -2.6875 13.75 C-2.65205078 12.98558594 -2.61660156 12.22117187 -2.58007812 11.43359375 C-2.33743728 7.23989072 -1.87928054 3.83526641 0 0 Z " fill="#DCEDA3" transform="translate(224,301)"/>
<path d="M0 0 C2.125 0.375 2.125 0.375 4 1 C4.44898775 5.60212441 3.72347233 8.64694778 1.35546875 12.51953125 C-1.02886081 15.12374134 -3.59182588 15.41012371 -7 16 C-5.37660195 14.29115995 -3.70680947 12.62553283 -2 11 C-1.34 11 -0.68 11 0 11 C0 10.01 0 9.02 0 8 C-0.99 8 -1.98 8 -3 8 C-2.25 2.25 -2.25 2.25 0 0 Z " fill="#DBECA3" transform="translate(138,309)"/>
<path d="M0 0 C0.33 0 0.66 0 1 0 C1.41500844 12.74998164 1.41500844 12.74998164 -1 18 C-3.22002952 20.01494596 -5.42017382 21.42343955 -8 23 C-8.33 22.34 -8.66 21.68 -9 21 C-9.99 20.67 -10.98 20.34 -12 20 C-10.88625 19.525625 -9.7725 19.05125 -8.625 18.5625 C-6.73289006 17.74693537 -4.84287291 16.92143645 -3 16 C-2.60608782 13.31727082 -2.60608782 13.31727082 -2.5 10.1875 C-2.308284 6.25252912 -2.04526982 3.40603401 0 0 Z " fill="#C8DB94" transform="translate(167,296)"/>
<path d="M0 0 C2.475 0.99 2.475 0.99 5 2 C5.33 1.34 5.66 0.68 6 0 C7.32 0.66 8.64 1.32 10 2 C9.34 3.65 8.68 5.3 8 7 C7.4225 6.79375 6.845 6.5875 6.25 6.375 C3.48032433 5.91338739 2.35438733 6.57055055 0 8 C-1.125 6.25 -1.125 6.25 -2 4 C-1.125 1.75 -1.125 1.75 0 0 Z " fill="#DEEFA5" transform="translate(151,286)"/>
<path d="M0 0 C0.66 0 1.32 0 2 0 C0.3376174 11.26482946 0.3376174 11.26482946 -4 15 C-7.25 15.8125 -7.25 15.8125 -10 16 C-9.236875 15.2575 -8.47375 14.515 -7.6875 13.75 C-3.3070336 9.26766229 -1.54051718 6.16206874 0 0 Z " fill="#D3E59D" transform="translate(129,309)"/>
<path d="M0 0 C1.31576747 3.94730241 0.44585833 6.00144628 -0.91015625 9.83203125 C-2.57041791 13.13470229 -4.69720493 14.48621893 -8 16 C-8.99 15.67 -9.98 15.34 -11 15 C-10.54109375 14.67128906 -10.0821875 14.34257812 -9.609375 14.00390625 C-4.48394039 10.03061766 -2.17031136 6.06608765 0 0 Z " fill="#D3E59D" transform="translate(118,310)"/>
<path d="M0 0 C-0.0625 2.3125 -0.0625 2.3125 -1 5 C-3.30368736 6.06652192 -5.64018187 7.06421005 -8 8 C-9.92336969 10.02946853 -9.92336969 10.02946853 -11 12 C-10.49572053 7.58755464 -8.98672249 5.25025683 -6 2 C-3 0 -3 0 0 0 Z " fill="#CADC96" transform="translate(114,292)"/>
<path d="M0 0 C0 0.99 0 1.98 0 3 C-1.51042947 4.18207524 -3.02192691 5.36286189 -4.54296875 6.53125 C-6.88178543 8.88887754 -7.21285621 11.85142485 -8 15 C-8.99 15.33 -9.98 15.66 -11 16 C-10.52467286 10.92984384 -6.03260299 0 0 0 Z " fill="#D6E89F" transform="translate(222,290)"/>
<path d="M0 0 C0.33 0 0.66 0 1 0 C1 1.65 1 3.3 1 5 C0.21496094 4.99097656 -0.57007812 4.98195312 -1.37890625 4.97265625 C-7.17068545 5.13610523 -11.06518696 5.28277368 -15.25 9.5625 C-16.19713661 10.68327832 -17.12598475 11.82131041 -18 13 C-18.33 12.34 -18.66 11.68 -19 11 C-14.25 5.125 -14.25 5.125 -12 4 C-9.95944995 3.92934383 -7.91665743 3.91578024 -5.875 3.9375 C-4.77929688 3.94652344 -3.68359375 3.95554688 -2.5546875 3.96484375 C-1.71164063 3.97644531 -0.86859375 3.98804688 0 4 C0 2.68 0 1.36 0 0 Z " fill="#3A3F23" transform="translate(36,190)"/>
<path d="M0 0 C1.32 0.66 2.64 1.32 4 2 C3.67 3.65 3.34 5.3 3 7 C2.01 7.33 1.02 7.66 0 8 C0 7.34 0 6.68 0 6 C-0.66 6 -1.32 6 -2 6 C-1.34 4.02 -0.68 2.04 0 0 Z " fill="#DDEEA4" transform="translate(119,294)"/>
<path d="M0 0 C1.32 0.66 2.64 1.32 4 2 C3.67 3.32 3.34 4.64 3 6 C1.68 6.33 0.36 6.66 -1 7 C-1.625 5.1875 -1.625 5.1875 -2 3 C-1.34 2.01 -0.68 1.02 0 0 Z " fill="#DDEEA4" transform="translate(154,279)"/>
<path d="M0 0 C0.99 0.66 1.98 1.32 3 2 C3.1875 4.625 3.1875 4.625 3 7 C2.01 7.33 1.02 7.66 0 8 C-0.66 7.67 -1.32 7.34 -2 7 C-1.125 1.125 -1.125 1.125 0 0 Z " fill="#DDEFA5" transform="translate(225,330)"/>
<path d="M0 0 C1.32 0.33 2.64 0.66 4 1 C3.67 2.65 3.34 4.3 3 6 C1.68 6 0.36 6 -1 6 C-1.33 5.01 -1.66 4.02 -2 3 C-1.34 2.01 -0.68 1.02 0 0 Z " fill="#DCEDA3" transform="translate(213,286)"/>
<path d="M0 0 C1.32 0.66 2.64 1.32 4 2 C3.34 3.65 2.68 5.3 2 7 C0.68 6.67 -0.64 6.34 -2 6 C-1.34 4.02 -0.68 2.04 0 0 Z " fill="#E6F7AB" transform="translate(157,286)"/>
<path d="M0 0 C0.33 0.66 0.66 1.32 1 2 C-1.83430453 5.2542015 -3.68607774 6.5206753 -8 7 C-5.42215154 4.35247996 -3.08351902 2.05567935 0 0 Z " fill="#E1F3A8" transform="translate(139,318)"/>
<path d="M0 0 C0.99 0 1.98 0 3 0 C2.67 1.65 2.34 3.3 2 5 C0.35 5 -1.3 5 -3 5 C-1.6875 2.5 -1.6875 2.5 0 0 Z " fill="#E4F5AA" transform="translate(111,292)"/>
<path d="M0 0 C0.66 0.33 1.32 0.66 2 1 C1.1875 4.4375 1.1875 4.4375 0 8 C-0.99 8.33 -1.98 8.66 -3 9 C-2.44271087 5.65626525 -1.64826111 2.96687001 0 0 Z " fill="#AABD7D" transform="translate(214,297)"/>
</svg>
