<?xml version="1.0" encoding="UTF-8"?>
<svg version="1.1" xmlns="http://www.w3.org/2000/svg" width="914" height="780">
<path d="M0 0 C0.29132813 0.75023437 0.58265625 1.50046875 0.8828125 2.2734375 C6.30932407 15.82265192 13.2896145 26.98567865 25 36 C23.56973318 39.85515715 21.77462489 43.27474892 19.68359375 46.8125 C19.19129021 47.64895302 19.19129021 47.64895302 18.68904114 48.50230408 C17.60839822 50.33678048 16.52293929 52.16835821 15.4375 54 C14.67444051 55.2934864 13.91175141 56.58719137 13.14941406 57.88110352 C11.56243801 60.57407293 9.97386386 63.26609026 8.38427734 65.95751953 C5.01395889 71.66749528 1.66680405 77.39101507 -1.68222046 83.11349487 C-9.59718009 96.63400767 -17.56206133 110.12477322 -25.54296875 123.60644531 C-31.79519616 134.16987487 -38.02717173 144.74481966 -44.22940063 155.337677 C-52.0951882 168.77163809 -60.01214073 182.17432064 -67.95898438 195.56054688 C-70.12536183 199.21125568 -72.28962267 202.86321192 -74.453125 206.515625 C-74.81993881 207.13484833 -75.18675262 207.75407166 -75.56468201 208.39205933 C-76.9938715 210.80473548 -78.42302813 213.21743109 -79.8520813 215.63018799 C-80.82443034 217.27176737 -81.79697687 218.91322976 -82.76953125 220.5546875 C-83.32229736 221.48780762 -83.87506348 222.42092773 -84.44458008 223.38232422 C-84.95786865 224.24615723 -85.47115723 225.10999023 -86 226 C-86.77609619 227.38409058 -86.77609619 227.38409058 -87.56787109 228.79614258 C-89 231 -89 231 -91.14453125 231.70703125 C-92.02496094 231.74183594 -92.90539062 231.77664063 -93.8125 231.8125 C-94.87597656 231.85761719 -95.93945312 231.90273438 -97.03515625 231.94921875 C-98.99775391 231.97435547 -98.99775391 231.97435547 -101 232 C-102.21598877 232.02054443 -102.21598877 232.02054443 -103.45654297 232.04150391 C-115.34772671 232.2223667 -127.1445908 231.95115031 -139 231 C-137.3295576 225.85544733 -134.25553719 221.76237808 -131.1875 217.375 C-129.99984265 215.65896306 -128.81234698 213.94281421 -127.625 212.2265625 C-126.71621094 210.91800293 -126.71621094 210.91800293 -125.7890625 209.58300781 C-123.59464982 206.41476462 -121.42274455 203.2315805 -119.25268555 200.04663086 C-113.15833222 191.10425343 -106.98837664 182.21545944 -100.80151367 173.33691406 C-96.57956616 167.27666342 -92.37964373 161.20223923 -88.20458984 155.10961914 C-84.99275499 150.42869126 -81.74972409 145.77016775 -78.5 141.11547852 C-68.53218077 126.83419259 -58.75091213 112.42988029 -49 98 C-53.48322032 101.39895331 -57.37233908 105.24423533 -61.32543945 109.2277832 C-62.04483704 109.94864105 -62.76423462 110.6694989 -63.50543213 111.41220093 C-65.06267683 112.97324204 -66.61876547 114.5354371 -68.1738224 116.09865761 C-70.63980684 118.57744455 -73.10893546 121.05306037 -75.5789032 123.52787781 C-81.7144935 129.67681701 -87.8446645 135.83114994 -93.97497559 141.98535156 C-99.15502576 147.18518657 -104.33715317 152.38293465 -109.52202415 157.57796288 C-111.94573274 160.00811955 -114.36639034 162.44128702 -116.78694153 164.87458801 C-118.28660354 166.37788586 -119.78640799 167.88104163 -121.28637695 169.3840332 C-121.95106491 170.05388748 -122.61575287 170.72374176 -123.30058289 171.41389465 C-127.135023 175.24876057 -131.08907124 178.8768191 -135.19321918 182.42102146 C-137.47374938 184.41401818 -139.63364062 186.50657775 -141.77612305 188.64672852 C-142.62027267 189.48772598 -143.4644223 190.32872345 -144.33415222 191.19520569 C-145.65954765 192.52363747 -145.65954765 192.52363747 -147.01171875 193.87890625 C-147.94297073 194.80920151 -148.87422272 195.73949677 -149.83369446 196.69798279 C-151.79090199 198.65372736 -153.74631854 200.61123988 -155.70043945 202.57006836 C-158.191627 205.06696824 -160.68730014 207.55932888 -163.18432903 210.05038548 C-165.58756684 212.44912203 -167.98696732 214.8516818 -170.38671875 217.25390625 C-171.2763884 218.14155167 -172.16605804 219.02919708 -173.08268738 219.94374084 C-178.23681154 225.11516448 -178.23681154 225.11516448 -183.03833008 230.60913086 C-183.68568115 231.39811768 -184.33303223 232.18710449 -185 233 C-185.33 233 -185.66 233 -186 233 C-186.69811148 217.04741006 -187.24519218 201.12392318 -187.01074219 185.15527344 C-186.99903521 181.71661442 -187.09668609 178.28873886 -187.1953125 174.8515625 C-187.48962558 156.13501129 -187.48962558 156.13501129 -183.71875 151.42578125 C-180.62462131 148.83241286 -177.53223597 146.94633411 -174 145 C-171.84291261 143.38086595 -169.72919787 141.74566516 -167.625 140.0625 C-166.52945462 139.22250018 -165.43177522 138.38527664 -164.33203125 137.55078125 C-160.96666785 134.98260742 -157.63684149 132.37095078 -154.3125 129.75 C-148.89138887 125.47875198 -143.45050829 121.23366665 -138 117 C-130.31198784 111.02691252 -122.64878681 105.0231957 -115 99 C-85.71922557 75.9422473 -85.71922557 75.9422473 -71 65 C-83.88462204 71.0260449 -96.64906165 77.26441689 -109.3561573 83.65577888 C-112.42773178 85.20042496 -115.50082729 86.74200736 -118.57432556 88.28282166 C-127.29559032 92.65555424 -136.01443206 97.03310269 -144.73168945 101.41381836 C-150.10110197 104.111869 -155.47242719 106.80607843 -160.8449688 109.49789238 C-162.88436503 110.52069773 -164.92300066 111.5450211 -166.96086311 112.57087898 C-169.78730361 113.99364485 -172.61612786 115.41155768 -175.44555664 116.82836914 C-176.28748566 117.25371445 -177.12941467 117.67905975 -177.99685669 118.11729431 C-178.76307846 118.49975311 -179.52930023 118.88221191 -180.31874084 119.27626038 C-180.98540803 119.61116517 -181.65207521 119.94606997 -182.33894444 120.29112339 C-184 121 -184 121 -186 121 C-187.04035783 110.81935555 -187.19673005 100.71769016 -187.02832031 90.49365234 C-187.00107212 88.09440199 -187.02518813 85.6998935 -187.0546875 83.30078125 C-187.03913739 81.86715594 -187.02104975 80.43355511 -187 79 C-187 77.741875 -187 76.48375 -187 75.1875 C-186 72 -186 72 -184.43359375 70.92330933 C-183.44552734 70.46409592 -183.44552734 70.46409592 -182.4375 69.99560547 C-181.71175781 69.65744812 -180.98601562 69.31929077 -180.23828125 68.97088623 C-176.86021845 67.50560359 -173.45203764 66.16314174 -170 64.8828125 C-168.40477574 64.28176328 -166.80956142 63.68068767 -165.21435547 63.07958984 C-163.94757965 62.60498322 -163.94757965 62.60498322 -162.6552124 62.12078857 C-144.66269946 55.37302753 -126.75463313 48.41562334 -108.875 41.375 C-107.71116791 40.91689941 -106.54733582 40.45879883 -105.34823608 39.98681641 C-99.35805395 37.62871954 -93.36850889 35.26901053 -87.37939453 32.90820312 C-76.0687083 28.44998468 -64.75498788 23.99948987 -53.44024658 19.55157471 C-49.93029672 18.17132237 -46.42092938 16.78959743 -42.91162109 15.40771484 C-36.61160598 12.9285556 -30.30739717 10.4603133 -24 8 C-22.97614197 7.59986694 -21.95228394 7.19973389 -20.8973999 6.78747559 C-17.95856256 5.64154036 -15.01695892 4.50305701 -12.07421875 3.3671875 C-11.19683548 3.02446808 -10.31945221 2.68174866 -9.41548157 2.3286438 C-8.61152451 2.02022552 -7.80756744 1.71180725 -6.97924805 1.39404297 C-6.27946335 1.12332977 -5.57967865 0.85261658 -4.85868835 0.57369995 C-3 0 -3 0 0 0 Z " fill="#F29200" transform="translate(463,200)"/>
<path d="M0 0 C1.05058594 0.40992188 2.10117187 0.81984375 3.18359375 1.2421875 C4.60143554 1.78678898 6.01941159 2.33104102 7.4375 2.875 C8.12521484 3.14441406 8.81292969 3.41382813 9.52148438 3.69140625 C10.21435547 3.95566406 10.90722656 4.21992188 11.62109375 4.4921875 C12.55586548 4.85352783 12.55586548 4.85352783 13.50952148 5.22216797 C21.61984142 7.75520192 29.07591712 8.2580025 37.5625 8.125 C38.66658203 8.11597656 39.77066406 8.10695312 40.90820312 8.09765625 C43.6057017 8.07430128 46.30273077 8.04155054 49 8 C49.31412842 9.25240479 49.62825684 10.50480957 49.9519043 11.79516602 C57.38967479 41.40387899 65.06895568 70.94052473 72.94086456 100.436409 C85.29851182 146.74296122 85.29851182 146.74296122 90.53997803 167.17602539 C91.04946312 169.1621196 91.56053625 171.14780721 92.07330322 173.13305664 C92.75848838 175.78923347 93.43717583 178.44696844 94.11328125 181.10546875 C94.30903244 181.86184128 94.50478363 182.61821381 94.70646667 183.39750671 C95.54898474 186.74625965 96 189.51725058 96 193 C90.92798214 193.02471188 85.85599929 193.04286564 80.78393555 193.05493164 C79.0583434 193.05996158 77.33275552 193.06678626 75.60717773 193.07543945 C73.1274307 193.08756361 70.64774 193.09324169 68.16796875 193.09765625 C67.01001045 193.10539818 67.01001045 193.10539818 65.82865906 193.11329651 C62.6169772 193.11363318 60.06979734 193.02326578 57 192 C56.30238342 190.33387756 56.30238342 190.33387756 55.84008789 188.12524414 C55.6583905 187.28938782 55.47669312 186.45353149 55.28948975 185.59234619 C55.00890717 184.20278717 55.00890717 184.20278717 54.72265625 182.78515625 C54.51505676 181.81084656 54.30745728 180.83653687 54.09356689 179.83270264 C53.40370489 176.57852954 52.73308219 173.32069611 52.0625 170.0625 C51.58661263 167.79819354 51.10962534 165.53411801 50.6315918 163.27026367 C49.34395419 157.15288776 48.0740284 151.0319655 46.80883789 144.90991211 C45.98031042 140.90482082 45.14808515 136.90051539 44.31445312 132.89648438 C40.8534106 116.26901896 37.41513037 99.63696361 34 83 C33.19668126 96.62814637 32.8718556 110.24630455 32.71875 123.89453125 C32.70920288 124.73600582 32.69965576 125.57748039 32.68981934 126.44445419 C32.61147445 133.46508316 32.54185648 140.48579421 32.47393799 147.50653076 C32.42273681 152.78192344 32.36793557 158.05725345 32.30812073 163.33255577 C32.28189053 165.77245011 32.26089941 168.21235217 32.2401123 170.65229797 C32.03335366 190.96664634 32.03335366 190.96664634 30 193 C27.1883662 193.08861992 24.40141745 193.11522355 21.58984375 193.09765625 C20.74780899 193.0962413 19.90577423 193.09482635 19.03822327 193.09336853 C16.33794665 193.08775263 13.63775172 193.07519748 10.9375 193.0625 C9.11132932 193.05748705 7.28515734 193.05292379 5.45898438 193.04882812 C0.97262458 193.03777804 -3.51367384 193.02050279 -8 193 C-8.19498965 181.10260099 -7.59737269 169.38485067 -6.6875 157.52734375 C-6.55239294 155.70614381 -6.41788328 153.88489947 -6.28393555 152.06361389 C-5.93381498 147.31994064 -5.5771884 142.57678216 -5.21862793 137.83374023 C-4.64341812 130.21373575 -4.0770592 122.5930746 -3.51309204 114.97223091 C-3.31620124 112.32706864 -3.11572373 109.68219646 -2.91479492 107.03733826 C-2.79334902 105.41153761 -2.67200565 103.78572929 -2.55078125 102.15991211 C-2.49467682 101.43410446 -2.43857239 100.70829681 -2.38076782 99.960495 C-2.06102758 95.62292176 -1.94997601 91.34501371 -2 87 C-2.22835541 87.79924393 -2.45671082 88.59848785 -2.69198608 89.42195129 C-12.70068359 124.45239258 -12.70068359 124.45239258 -13.35674667 126.7485218 C-13.79444591 128.28053032 -14.23208039 129.81255734 -14.66965103 131.34460258 C-15.76976824 135.19608261 -16.87101335 139.04723334 -17.97454834 142.8977356 C-20.04265799 150.11820678 -22.10049612 157.34109267 -24.12016106 164.57528782 C-25.03593621 167.85351691 -25.95733516 171.1301533 -26.87916946 174.40668297 C-27.31682453 175.96859267 -27.75162736 177.53130456 -28.18348312 179.09482765 C-28.77885693 181.24975096 -29.38370561 183.40179944 -29.99072266 185.5534668 C-30.33156891 186.77784958 -30.67241516 188.00223236 -31.02359009 189.26371765 C-32 192 -32 192 -34 193 C-35.48100811 193.08963847 -36.96599424 193.11757925 -38.44970703 193.11352539 C-39.37051056 193.11344986 -40.29131409 193.11337433 -41.24002075 193.11329651 C-42.73382767 193.10555458 -42.73382767 193.10555458 -44.2578125 193.09765625 C-45.27600067 193.0962413 -46.29418884 193.09482635 -47.3432312 193.09336853 C-50.60385035 193.087759 -53.86440151 193.07520488 -57.125 193.0625 C-59.33203026 193.05748623 -61.53906159 193.05292311 -63.74609375 193.04882812 C-69.16408581 193.03778648 -74.58203805 193.02103905 -80 193 C-79.40856731 188.62715579 -78.32446961 184.90046845 -76.65625 180.8203125 C-76.16116943 179.6034375 -75.66608887 178.3865625 -75.15600586 177.1328125 C-74.60431857 175.79674503 -74.05230538 174.46081208 -73.5 173.125 C-72.91718094 171.7032144 -72.3345859 170.28133696 -71.75219727 168.859375 C-66.54125294 156.1739111 -61.16515579 143.55843087 -55.77978516 130.94628906 C-50.65755832 118.94346751 -45.61609115 106.90889137 -40.61264038 94.85610962 C-32.70318253 75.80456504 -24.70220792 56.79343728 -16.625 37.8125 C-15.88911652 36.08057404 -15.88911652 36.08057404 -15.1383667 34.31365967 C-5.14110107 10.79417347 -5.14110107 10.79417347 0 0 Z " fill="#F29200" transform="translate(490,238)"/>
<path d="M0 0 C5.95903843 -0.07456924 11.91780075 -0.12879953 17.87719727 -0.16479492 C19.90133399 -0.17981245 21.92543855 -0.20023261 23.94946289 -0.22631836 C26.87133761 -0.26301267 29.79277935 -0.27979708 32.71484375 -0.29296875 C33.60896469 -0.30845261 34.50308563 -0.32393646 35.42430115 -0.33988953 C44.32951829 -0.3422353 51.5587401 2.61514997 59.515625 6.3359375 C60.20045959 6.65128448 60.88529419 6.96663147 61.59088135 7.29153442 C63.05346248 7.96553182 64.51509377 8.64159373 65.97583008 9.31958008 C69.89098794 11.13656638 73.81326028 12.93810232 77.734375 14.7421875 C78.52457031 15.10628723 79.31476563 15.47038696 80.12890625 15.84552002 C87.2300874 19.11472849 94.36000523 22.31638339 101.5 25.5 C112.10840772 30.23779277 122.68651347 35.03807333 133.25 39.875 C133.976427 40.20760834 134.702854 40.54021667 135.45129395 40.88290405 C136.91872474 41.55482796 138.3861523 42.22675893 139.85357666 42.8986969 C140.58252136 43.23247849 141.31146606 43.56626007 142.0625 43.91015625 C142.7928949 44.24462265 143.52328979 44.57908905 144.27581787 44.9236908 C151.87147786 48.40089227 159.47287219 51.86545295 167.07702637 55.32403564 C168.50855897 55.97522576 169.93995881 56.62670781 171.37121582 57.27850342 C173.35650097 58.18253716 175.34224508 59.08555492 177.328125 59.98828125 C178.4512207 60.49915283 179.57431641 61.01002441 180.73144531 61.53637695 C184.13933202 63.06239136 187.56420055 64.53812556 191 66 C190.566875 67.19625 190.13375 68.3925 189.6875 69.625 C185.3984634 82.73603604 184.44491989 95.32215941 184 109 C166.03010645 114.26601838 147.93498113 119.04619119 129.83337021 123.83310318 C121.98423927 125.90959266 114.13666094 127.99194662 106.2890625 130.07421875 C105.39064573 130.3125411 104.49222897 130.55086346 103.56658745 130.7964077 C89.25333217 134.59408863 74.94864225 138.42301914 60.6484375 142.26953125 C58.73766624 142.7833166 56.82689455 143.29710039 54.91612244 143.81088257 C46.60453965 146.04620441 38.29349003 148.28347456 29.98378754 150.52577686 C26.57511652 151.44507095 23.16592115 152.36240869 19.75659561 153.27927208 C18.16837133 153.70690528 16.58039226 154.13545032 14.99267197 154.56495094 C12.82929145 155.15012717 10.66512148 155.73228785 8.50073242 156.3137207 C7.28673264 156.64120804 6.07273285 156.96869537 4.82194519 157.30610657 C2 158 2 158 0 158 C-0.02527062 151.60962769 -0.04283317 145.21926817 -0.05493164 138.82885742 C-0.05997308 136.65307127 -0.06680607 134.47728853 -0.07543945 132.30151367 C-0.08751338 129.18146933 -0.09323005 126.06146962 -0.09765625 122.94140625 C-0.10281754 121.96224747 -0.10797882 120.98308868 -0.11329651 119.97425842 C-0.11337204 119.07340012 -0.11344757 118.17254181 -0.11352539 117.24438477 C-0.115746 116.44718521 -0.11796661 115.64998566 -0.12025452 114.82862854 C0 113 0 113 1 112 C3.9932746 111.52016328 6.97708855 111.09759315 9.98266602 110.70898438 C10.92581161 110.58364822 11.86895721 110.45831207 12.84068298 110.32917786 C15.97790236 109.9133096 19.11588435 109.50351508 22.25390625 109.09375 C24.43054414 108.80647455 26.60713354 108.51883141 28.78367615 108.23083496 C34.53243558 107.47121651 40.28186238 106.71676756 46.03143311 105.96331787 C51.85796746 105.19880743 57.68382915 104.42920699 63.50976562 103.66015625 C72.04336625 102.53455637 80.57718068 101.4106038 89.11157227 100.29101562 C89.99761139 100.17462234 90.88365051 100.05822906 91.79653931 99.93830872 C96.86225004 99.27445001 101.9297935 98.62862591 107 98 C98.16684235 97.39325832 89.33349742 96.7892746 80.5 96.1875 C79.84033108 96.14255905 79.18066216 96.0976181 78.50100327 96.05131531 C52.33998856 94.27007443 26.17284195 92.59839772 0 91 C-1.05271658 78.16716905 -1.25221018 65.82662248 0 53 C11.8829391 53.63271988 23.5991255 55.15143134 35.38671875 56.72265625 C37.42213067 56.99068489 39.45759824 57.25829119 41.49311829 57.52549744 C46.80725868 58.2239747 52.12078389 58.92701606 57.43414307 59.63140869 C65.97540244 60.76318204 74.51744017 61.88903909 83.05976295 63.01275444 C86.03754427 63.40532138 89.0149644 63.8005448 91.99235535 64.19606018 C93.8069855 64.43556026 95.62162624 64.67498018 97.4362793 64.91430664 C98.67751053 65.08026337 98.67751053 65.08026337 99.94381714 65.24957275 C102.98607969 65.64902217 105.92783724 66 109 66 C96.98574592 62.54860215 84.97146051 59.09731336 72.95713615 55.64616013 C67.3771707 54.04329351 61.79721565 52.44039069 56.21728516 50.83740234 C50.82267865 49.2876549 45.42804379 47.73800618 40.03339005 46.18842316 C37.98512914 45.60005388 35.9368781 45.01165026 33.88863754 44.42321014 C31.93410958 43.86169725 29.97955789 43.3002669 28.02498055 42.73892593 C26.18558425 42.21050773 24.34629964 41.68170055 22.50713921 41.15246201 C18.52895057 40.00850756 14.54947436 38.87044027 10.56304932 37.75549316 C9.90091494 37.56947163 9.23878056 37.38345009 8.5565815 37.19179153 C6.83484323 36.70902721 5.11206235 36.22998544 3.38919067 35.75128174 C1 35 1 35 0 34 C-0.89165284 29.05195464 -1.13492351 24.27129713 -1.125 19.25 C-1.12757813 17.95578125 -1.13015625 16.6615625 -1.1328125 15.328125 C-1.04654774 10.19660439 -0.51690379 5.10310026 0 0 Z " fill="#F29200" transform="translate(277,89)"/>
<path d="M0 0 C5.35538581 1.57511347 9.78740154 4.04241975 14.45141602 7.01733398 C18.42061928 9.5251814 22.37881765 11.67886896 26.6484375 13.640625 C38.23001017 19.3011721 38.23001017 19.3011721 42 24 C44.45940456 31.76354625 43.31922295 40.09529339 42 48 C38.70859203 47.43768657 35.98184061 46.67362568 33.01171875 45.15234375 C32.30595703 44.79462891 31.60019531 44.43691406 30.87304688 44.06835938 C30.15181641 43.69517578 29.43058594 43.32199219 28.6875 42.9375 C27.57665039 42.37192383 27.57665039 42.37192383 26.44335938 41.79492188 C24.62612478 40.86871843 22.81267596 39.93509371 21 39 C25.1534251 45.5340468 29.74006561 51.62368491 34.53515625 57.69140625 C35.13541626 58.50085693 35.13541626 58.50085693 35.74780273 59.32666016 C36.59642245 60.46069009 37.48626581 61.56479896 38.41040039 62.63818359 C43.43096021 69.17638032 42.55608406 76.67221931 42.3125 84.5 C42.28737733 85.90881444 42.26457117 87.3176722 42.24414062 88.7265625 C42.18548316 92.15215841 42.10343481 95.5755123 42 99 C32.54769014 94.43921697 25.09848186 86.31087804 17.85986328 78.87402344 C17.30024902 78.30071289 16.74063477 77.72740234 16.1640625 77.13671875 C15.67373535 76.62842529 15.1834082 76.12013184 14.67822266 75.59643555 C12.56254623 73.58386526 10.29733537 71.80010721 8 70 C12.13991946 78.61149796 16.74988593 86.82395321 21.6875 95 C26.73780265 103.42671352 31.70594335 111.88871127 36.4375 120.5 C37.11848755 121.73556641 37.11848755 121.73556641 37.81323242 122.99609375 C40.96892351 128.78657965 42.14753536 133.07962959 42.12939453 139.72851562 C42.13202301 140.90700325 42.13202301 140.90700325 42.13470459 142.10929871 C42.13910858 144.70830489 42.13619021 147.30724311 42.1328125 149.90625 C42.13348596 151.71081556 42.13445633 153.51538104 42.13571167 155.31994629 C42.13718667 159.10279199 42.1350404 162.88561408 42.13037109 166.66845703 C42.12467393 171.52091602 42.12795398 176.37331971 42.13394356 181.22577667 C42.13755448 184.95233579 42.13640813 188.67888177 42.13381577 192.40544128 C42.13314797 194.19483954 42.13396979 195.98423899 42.13629532 197.77363586 C42.13883051 200.27295093 42.13496895 202.77217602 42.12939453 205.27148438 C42.13141876 206.01339523 42.13344299 206.75530609 42.13552856 207.5196991 C42.12268802 210.62227187 41.98910939 213.03267182 41 216 C40.34 216 39.68 216 39 216 C38.57404541 214.97269775 38.14809082 213.94539551 37.70922852 212.88696289 C37.42304657 212.19676056 37.13686462 211.50655823 36.8420105 210.79544067 C36.1869168 209.21550636 35.5318266 207.6355706 34.8767395 206.05563354 C32.99513678 201.51760572 31.11346684 196.97960579 29.23168945 192.44165039 C25.41618711 183.24028149 21.60135655 174.03863616 17.7890625 164.8359375 C6.89560076 138.54218564 -4.03743568 112.26501657 -15 86 C-15.42420227 84.98363464 -15.84840454 83.96726929 -16.28546143 82.92010498 C-18.79501048 76.9081412 -21.30615976 70.89684928 -23.81936646 64.88641357 C-24.59660105 63.02737498 -25.37352575 61.16820679 -26.15011597 59.30889893 C-27.22406597 56.73806039 -28.2993467 54.1677825 -29.375 51.59765625 C-29.68454117 50.85603745 -29.99408234 50.11441864 -30.31300354 49.35032654 C-30.60932175 48.64311966 -30.90563995 47.93591278 -31.2109375 47.20727539 C-31.63971191 46.18018967 -31.63971191 46.18018967 -32.07714844 45.13235474 C-32.74038679 43.59986619 -33.43504363 42.08083404 -34.14941406 40.57150269 C-34.52549805 39.77245514 -34.90158203 38.97340759 -35.2890625 38.15014648 C-35.8142749 37.06575539 -35.8142749 37.06575539 -36.35009766 35.9594574 C-37 34 -37 34 -36 31 C-33.37413932 29.52572873 -30.76787005 28.18541362 -28.0625 26.875 C-15.27937023 20.35049907 -7.6238594 11.9145822 0 0 Z " fill="#F29200" transform="translate(578,213)"/>
<path d="M0 0 C7.54552584 -0.28076079 15.09049739 -0.49259546 22.64009094 -0.62174606 C26.14803298 -0.68381098 29.6523489 -0.76761874 33.15820312 -0.90527344 C60.99127612 -1.96948887 60.99127612 -1.96948887 71.18676758 7.32989502 C72.24887298 8.36669887 73.3002752 9.41460886 74.33935547 10.4744873 C77.23388036 13.13347566 80.60456205 15.04788235 84 17 C83.49210937 16.5153125 82.98421875 16.030625 82.4609375 15.53125 C77.82707254 11.01887213 73.56617159 6.41679851 70 1 C70 0.67 70 0.34 70 0 C74.14402667 -0.19906641 78.28546488 -0.3435041 82.43286133 -0.43945312 C83.84058131 -0.47947543 85.24797305 -0.53391768 86.65454102 -0.60351562 C98.37442467 -1.16852951 98.37442467 -1.16852951 102.52685547 1.81640625 C104.26203373 3.79946712 105.69591408 5.71454836 107 8 C106.505 4.04 106.505 4.04 106 0 C113.26 0 120.52 0 128 0 C131.94999179 7.60765567 135.27713506 15.32255215 138.375 23.3125 C139.06916016 25.04209961 139.06916016 25.04209961 139.77734375 26.80664062 C140.20917969 27.91845703 140.64101563 29.03027344 141.0859375 30.17578125 C141.6744751 31.67492065 141.6744751 31.67492065 142.27490234 33.2043457 C143.07226917 36.2786378 143.01097044 38.00647713 142 41 C139.8828125 42.44921875 139.8828125 42.44921875 137.125 43.6875 C127.00159928 48.81493673 119.49842101 56.81793072 113 66 C104.09386923 61.40420816 95.3882539 56.5189923 86.75 51.4375 C77.92276386 46.24550516 69.02751827 41.19920194 60.0625 36.25 C50.79119485 31.12597383 41.59207761 25.9175692 32.49902344 20.484375 C29.97752337 18.98664928 27.44869819 17.50175346 24.91790771 16.01979065 C22.43822938 14.56723619 19.96083285 13.11081483 17.48364258 11.65402222 C16.25354724 10.93162599 15.02260112 10.21067636 13.79077148 9.49124146 C12.05851058 8.47893748 10.32996497 7.4602841 8.6015625 6.44140625 C7.59432129 5.85045166 6.58708008 5.25949707 5.54931641 4.65063477 C3.35325089 3.22872336 1.79239089 1.86748355 0 0 Z " fill="#F29200" transform="translate(356,88)"/>
<path d="M0 0 C-0.4228042 5.63738937 -2.23118422 9.84548819 -6 14 C-8.30712891 15.28930664 -8.30712891 15.28930664 -10.9765625 16.41015625 C-11.95512207 16.83256592 -12.93368164 17.25497559 -13.94189453 17.69018555 C-14.95106934 18.12242432 -15.96024414 18.55466309 -17 19 C-34.60678629 26.90848208 -34.60678629 26.90848208 -51 37 C-51.79921875 37.556875 -52.5984375 38.11375 -53.421875 38.6875 C-56.30440754 40.72917566 -56.30440754 40.72917566 -59 43 C-59 43.66 -59 44.32 -59 45 C-58.32122803 45.31114746 -57.64245605 45.62229492 -56.94311523 45.94287109 C-38.38025272 54.50551186 -22.57043564 63.94349064 -6.67431641 76.6640625 C-3.96862169 78.82293702 -1.24349569 80.95159826 1.5 83.0625 C2.4178125 83.77535156 3.335625 84.48820313 4.28125 85.22265625 C9.41833764 88.58095349 13.56103565 89.28965022 19.625 88.75 C20.73101563 88.66234375 21.83703125 88.5746875 22.9765625 88.484375 C25.75708322 88.0389169 27.60208298 87.42705305 30 86 C29.54367187 85.40832031 29.08734375 84.81664062 28.6171875 84.20703125 C27.75480469 83.02173828 27.75480469 83.02173828 26.875 81.8125 C26.29492188 81.03519531 25.71484375 80.25789062 25.1171875 79.45703125 C24 77 24 77 24.6640625 74.4375 C25.85717172 72.26059896 27.05736893 70.20630385 28.5 68.1875 C28.9228125 67.58292969 29.345625 66.97835937 29.78125 66.35546875 C30.1834375 65.90816406 30.585625 65.46085938 31 65 C31.66 65 32.32 65 33 65 C33.6509259 66.24735567 34.29551669 67.49801832 34.9375 68.75 C35.47697266 69.79414062 35.47697266 69.79414062 36.02734375 70.859375 C38.92908783 77.24554268 38.77906912 84.09477456 36.8125 90.75 C35.01024896 95.51724468 32.75370211 98.60335848 28.09765625 100.96484375 C20.45901644 103.96228469 11.94625712 104.28002899 4.125 101.75 C-2.59086184 98.72085526 -7.85251329 93.42214096 -13.26611328 88.53955078 C-15.90605488 86.19549675 -18.63440704 83.97562955 -21.375 81.75 C-22.26960937 81.02296875 -23.16421875 80.2959375 -24.0859375 79.546875 C-24.71757813 79.03640625 -25.34921875 78.5259375 -26 78 C-26.12955078 79.10408203 -26.12955078 79.10408203 -26.26171875 80.23046875 C-27.41044357 88.20830994 -27.41044357 88.20830994 -30.1875 91.9375 C-52.26837565 108.13014215 -90.7790764 109.0444825 -116.9375 105.25 C-125.53953581 103.41843584 -132.08667048 100.56301795 -137 93 C-139.47705188 85.56884437 -138.65142316 78.46940559 -135.375 71.4375 C-133.01588748 66.73799808 -130.85122815 65.01794785 -126 63 C-126.44991531 66.14940719 -126.99807294 68.9945589 -128.0625 72 C-129.4448777 76.42360863 -129.79291205 79.4141759 -127.6875 83.625 C-116.0345582 93.92294857 -95.2216552 92.4180923 -80.71240234 91.66040039 C-56.76464215 90.95976738 -56.76464215 90.95976738 -36 81 C-35.24657483 78.67484501 -35.24657483 78.67484501 -36 76 C-41.39022036 69.99574459 -48.9611555 66.33110048 -55.88085938 62.41210938 C-61.19446072 59.32614856 -65.1748085 56.650383 -68 51 C-69.08591885 39.62887828 -69.08591885 39.62887828 -66.125 35.1875 C-65.09375 34.465625 -64.0625 33.74375 -63 33 C-62.3296875 32.42378906 -61.659375 31.84757812 -60.96875 31.25390625 C-46.71663528 19.06834816 -19.37595487 0 0 0 Z " fill="#163D8A" transform="translate(688,464)"/>
<path d="M0 0 C3.1199996 0.20754632 6.22249174 0.47478114 9.33203125 0.80078125 C7.77716871 6.80373158 4.54290262 11.53652698 1.20703125 16.67578125 C0.64371094 17.55492188 0.08039062 18.4340625 -0.5 19.33984375 C-1.88357459 21.4972821 -3.27299602 23.65070234 -4.66796875 25.80078125 C-1.6894361 23.49758426 0.98109476 21.2529692 3.39453125 18.36328125 C6.72044213 14.50376269 10.05901285 10.6594765 13.45703125 6.86328125 C14.21125366 5.99328491 14.21125366 5.99328491 14.98071289 5.10571289 C17.06613671 2.7945597 18.75696804 1.01229875 21.7109375 -0.07421875 C25.1925142 -0.24025519 28.66025676 -0.30506379 32.14453125 -0.26171875 C32.83740234 -0.25720703 33.53027344 -0.25269531 34.24414062 -0.24804688 C35.94014193 -0.23635031 37.63609828 -0.21841799 39.33203125 -0.19921875 C40.84189296 15.35235686 40.84189296 15.35235686 37.59765625 20.61328125 C34.97264156 22.94662764 32.25804508 24.85738401 29.33203125 26.80078125 C27.47345708 28.22066678 25.64478285 29.6739361 23.81689453 31.13305664 C22.03741122 32.54930859 20.23731985 33.93517155 18.43359375 35.3203125 C15.8699901 37.37054968 13.62124388 39.46236819 11.33203125 41.80078125 C12.03811523 41.44250244 12.74419922 41.08422363 13.47167969 40.71508789 C16.67302533 39.09362369 19.8774758 37.47839186 23.08203125 35.86328125 C24.19320312 35.29931641 25.304375 34.73535156 26.44921875 34.15429688 C28.05410156 33.34702148 28.05410156 33.34702148 29.69140625 32.5234375 C30.67592773 32.02593994 31.66044922 31.52844238 32.67480469 31.01586914 C35.33203125 29.80078125 35.33203125 29.80078125 39.33203125 28.80078125 C39.33203125 37.71078125 39.33203125 46.62078125 39.33203125 55.80078125 C34.94159901 57.47894764 30.55002183 59.15311205 26.15454102 60.81787109 C24.66313806 61.38401455 23.17255733 61.95232938 21.68286133 62.52294922 C6.44950434 68.35482776 6.44950434 68.35482776 -1.66796875 69.80078125 C-2.08046875 69.11113281 -2.49296875 68.42148438 -2.91796875 67.7109375 C-11.1279466 54.35139765 -20.3833489 45.41403118 -34.66796875 38.80078125 C-31.84818794 30.77525125 -27.95887571 23.3999604 -23.8828125 15.9609375 C-22.49927307 13.4229983 -21.31135724 10.96558405 -20.171875 8.296875 C-18.89486559 5.39044706 -17.81619785 3.13911912 -15.66796875 0.80078125 C-10.49796568 -1.04788652 -5.3877127 -0.29262337 0 0 Z " fill="#F29200" transform="translate(580.66796875,89.19921875)"/>
<path d="M0 0 C0.06850662 0.864188 0.06850662 0.864188 0.13839722 1.74583435 C0.62145007 7.83127545 1.10905777 13.91634025 1.59912109 20.0012207 C1.78058956 22.26154694 1.96095909 24.52196172 2.14013672 26.7824707 C2.72784873 34.19125362 3.34183623 41.59712599 4 49 C4.07931763 49.9001886 4.15863525 50.8003772 4.24035645 51.72784424 C4.45888572 54.12394739 4.69727378 56.51695096 4.9453125 58.91015625 C5.07695801 60.22250244 5.20860352 61.53484863 5.34423828 62.88696289 C6.01317954 66.06256603 6.37032573 67.184725 9 69 C12.78071294 70.26023765 16.36198354 70.22005587 20.3046875 70.2734375 C21.1323613 70.2857843 21.9600351 70.2981311 22.81278992 70.31085205 C25.50022984 70.3432019 28.1873991 70.36193413 30.875 70.375 C31.78305389 70.37989441 32.69110779 70.38478882 33.62667847 70.38983154 C47.38671005 70.42065455 59.87099795 69.37521044 73 65 C75.3281165 64.31348299 77.66334557 63.6570881 80 63 C68.68167726 57.81243541 59.26334998 57.44274921 47 59 C47.4770795 53.99066523 48.85582479 50.93021901 52 47 C57.29608566 43.1603379 61.55081947 42.79239398 68 43 C71.11328125 43.6640625 71.11328125 43.6640625 74.3125 44.625 C75.51648438 44.98464844 76.72046875 45.34429688 77.9609375 45.71484375 C80.87510477 46.6277943 83.77122785 47.58806977 86.6640625 48.56640625 C87.45643311 48.83437012 88.24880371 49.10233398 89.06518555 49.37841797 C90.61074434 49.90553352 92.15402615 50.43938859 93.69458008 50.98095703 C101.69367229 53.73555188 109.53862188 54.21230754 117.9375 54.5625 C119.3925293 54.62727539 119.3925293 54.62727539 120.87695312 54.69335938 C123.25118601 54.79862093 125.62550921 54.90075707 128 55 C127.49202991 59.3177458 126.80317221 63.03302114 125 67 C123.741875 67.03738281 122.48375 67.07476563 121.1875 67.11328125 C104.12292004 67.72015599 89.64326321 70.22602886 74.00439453 77.12890625 C70.948283 78.45706775 67.85692118 79.67006101 64.75 80.875 C63.75484375 81.26429688 62.7596875 81.65359375 61.734375 82.0546875 C57.54829266 83.50187596 53.63468935 84.12366412 49.21313477 84.16113281 C47.83128746 84.17554413 47.83128746 84.17554413 46.42152405 84.19024658 C44.94636574 84.1966214 44.94636574 84.1966214 43.44140625 84.203125 C42.41949692 84.20882507 41.39758759 84.21452515 40.3447113 84.22039795 C38.1870934 84.22982728 36.02946123 84.2363737 33.87182617 84.24023438 C30.57770688 84.24995513 27.28420779 84.28100462 23.99023438 84.3125 C21.89062869 84.31902919 19.79101856 84.32427999 17.69140625 84.328125 C16.21928429 84.3466452 16.21928429 84.3466452 14.71742249 84.36553955 C9.40287036 84.34828536 5.55112377 84.06911189 1 81 C-3.18050197 75.44989962 -3.87959492 70.17421241 -4.5625 63.375 C-4.67762939 62.34463623 -4.79275879 61.31427246 -4.91137695 60.25268555 C-5.15757618 58.02228326 -5.39614694 55.79102853 -5.62792969 53.55908203 C-6.01587416 49.84815389 -6.43209688 46.14108275 -6.8515625 42.43359375 C-7.13153201 39.89337471 -7.410201 37.35301195 -7.6875 34.8125 C-7.81906494 33.63284668 -7.95062988 32.45319336 -8.08618164 31.23779297 C-10.29201117 10.16448141 -10.29201117 10.16448141 -7.4128418 5.34106445 C-2.97880767 0 -2.97880767 0 0 0 Z " fill="#163D8A" transform="translate(411,483)"/>
<path d="M0 0 C1.12330977 9.38491097 2.11552876 18.76196942 2.78125 28.19140625 C2.84143311 29.04237885 2.90161621 29.89335144 2.96362305 30.77011108 C3.20678768 34.2530507 3.44489422 37.73629283 3.67724609 41.2199707 C3.85183066 43.81506272 4.0348148 46.40946255 4.21875 49.00390625 C4.26777466 49.77593887 4.31679932 50.5479715 4.36730957 51.34339905 C4.69100603 61.01098995 4.69100603 61.01098995 9.12207031 69.03979492 C12.80105122 70.26726624 16.21281356 70.41142682 20.046875 70.36328125 C20.81751282 70.36377975 21.58815063 70.36427826 22.38214111 70.36479187 C24.00934431 70.36245778 25.63655155 70.35276848 27.26367188 70.33618164 C29.7282013 70.31270763 32.19163795 70.31561117 34.65625 70.32226562 C47.60446551 70.90334643 47.60446551 70.90334643 59.0859375 66.2734375 C59.51132812 65.64695312 59.93671875 65.02046875 60.375 64.375 C61.7109375 62.4609375 61.7109375 62.4609375 63 61 C63.99 61 64.98 61 66 61 C67.2109375 62.71484375 67.2109375 62.71484375 68.375 64.9375 C70.19977645 68.17208976 70.19977645 68.17208976 73.3125 70 C74.199375 70 75.08625 70 76 70 C77.299375 70.0825 78.59875 70.165 79.9375 70.25 C84.08332342 70.13354429 86.5834974 69.54420406 90 67 C92.58152699 63.47511413 94.79266066 59.76704855 97 56 C102.75965665 46.74678112 102.75965665 46.74678112 108 45 C112.35886385 44.50654371 114.44404122 44.66856304 118.25 46.9375 C123.56180336 52.03626312 124.19019783 58.69789929 124.4375 65.75 C124.50869371 69.67989282 124.35606404 71.46476998 122.16015625 74.765625 C120 77 120 77 117 79 C109.26034916 77.8765023 102.21875051 74.92320345 95 72 C94.70738281 72.76957031 94.41476562 73.53914062 94.11328125 74.33203125 C92.47897119 78.24864096 90.59814076 81.20916746 86.7265625 83.125 C78.88276187 85.64220822 71.33862472 84.21869505 64 81 C61.41585574 80.03093173 61.41585574 80.03093173 59 80 C56.41055254 81.33700035 56.41055254 81.33700035 54 83 C51.19832417 83.87803222 48.63686515 84.13773819 45.7097168 84.17700195 C44.87172043 84.18983719 44.03372406 84.20267242 43.17033386 84.21589661 C42.27236588 84.22328354 41.37439789 84.23067047 40.44921875 84.23828125 C39.51705032 84.246353 38.5848819 84.25442474 37.62446594 84.26274109 C35.65338996 84.27655639 33.68229031 84.28728994 31.71118164 84.29516602 C29.70069342 84.30669162 27.69023592 84.32715255 25.67993164 84.35668945 C22.76948322 84.3994445 19.85994255 84.41554552 16.94921875 84.42578125 C16.05732346 84.44328934 15.16542816 84.46079742 14.24650574 84.47883606 C8.32184663 84.45838302 4.83174522 83.49662143 0 80 C-3.29709095 74.48156388 -3.81149262 68.68762462 -4.5 62.375 C-4.61964111 61.34608643 -4.73928223 60.31717285 -4.86254883 59.25708008 C-5.25446203 55.83936266 -5.62791244 52.41992928 -6 49 C-6.13970215 47.75428223 -6.2794043 46.50856445 -6.42333984 45.22509766 C-6.85358205 41.38014216 -7.27287128 37.53416861 -7.6875 33.6875 C-7.81898438 32.49108887 -7.95046875 31.29467773 -8.0859375 30.06201172 C-10.06542179 11.05736621 -10.06542179 11.05736621 -7.1875 5.5 C-6.465625 4.675 -5.74375 3.85 -5 3 C-4.46375 2.38125 -3.9275 1.7625 -3.375 1.125 C-2 0 -2 0 0 0 Z M106 56 C105.34 57.32 104.68 58.64 104 60 C105.28913487 60.67154933 106.58140204 61.33708859 107.875 62 C108.59429687 62.37125 109.31359375 62.7425 110.0546875 63.125 C111.94848977 64.13673746 111.94848977 64.13673746 114 64 C112.73053486 59.17557816 112.73053486 59.17557816 109 56 C108.01 56 107.02 56 106 56 Z " fill="#163D8A" transform="translate(204,483)"/>
<path d="M0 0 C0 5.94 0 11.88 0 18 C-7.92 20.475 -7.92 20.475 -16 23 C-10.72 24.32 -5.44 25.64 0 27 C0 32.94 0 38.88 0 45 C-3.63 45.33 -7.26 45.66 -11 46 C-7.37 47.65 -3.74 49.3 0 51 C0 58.92 0 66.84 0 75 C-13.50590231 70.06515108 -26.75369391 64.59118882 -40 59 C-39.71125 57.87464844 -39.4225 56.74929687 -39.125 55.58984375 C-35.63337143 41.41199814 -34.71043454 29.30245891 -38.44140625 14.92578125 C-38.99486253 12.02690886 -38.80826715 10.74574733 -38 8 C-33.23247273 6.85494075 -28.46358897 5.71578024 -23.69335938 4.58203125 C-22.07122923 4.19562455 -20.44947958 3.80761687 -18.828125 3.41796875 C-16.49577769 2.85774807 -14.1621167 2.3033243 -11.828125 1.75 C-10.74352997 1.48751465 -10.74352997 1.48751465 -9.63702393 1.21972656 C-6.29294998 0.43253625 -3.46086636 0 0 0 Z " fill="#F29200" transform="translate(620,152)"/>
<path d="M0 0 C0.70189453 0.00451172 1.40378906 0.00902344 2.12695312 0.01367188 C3.85550538 0.02543073 5.58401365 0.04336546 7.3125 0.0625 C7.8075 4.0225 7.8075 4.0225 8.3125 8.0625 C8.9725 5.7525 9.6325 3.4425 10.3125 1.0625 C17.5725 1.0625 24.8325 1.0625 32.3125 1.0625 C28.9375 12.3125 28.9375 12.3125 26.83203125 17.7265625 C26.39052734 18.86738281 25.94902344 20.00820312 25.49414062 21.18359375 C25.04232422 22.33988281 24.59050781 23.49617188 24.125 24.6875 C23.42987305 26.47994141 23.42987305 26.47994141 22.72070312 28.30859375 C21.58801405 31.22789549 20.45188352 34.14580604 19.3125 37.0625 C11.703125 36.1328125 11.703125 36.1328125 8.1875 35.5 C-0.7976986 34.48554209 -9.54489765 34.69086666 -18.3828125 36.625 C-20.6875 37.0625 -20.6875 37.0625 -24.6875 37.0625 C-26.96480072 29.41900662 -29.07632061 21.75463264 -30.9375 14 C-31.11249023 13.28658447 -31.28748047 12.57316895 -31.46777344 11.83813477 C-32.35714027 8.06190466 -32.6875 4.9956397 -32.6875 1.0625 C-26.0875 1.0625 -19.4875 1.0625 -12.6875 1.0625 C-12.3575 2.0525 -12.0275 3.0425 -11.6875 4.0625 C-11.3575 3.0725 -11.0275 2.0825 -10.6875 1.0625 C-7.06882441 -0.1437252 -3.76243749 -0.04566918 0 0 Z " fill="#F29200" transform="translate(525.6875,88.9375)"/>
<path d="M0 0 C6.6 0 13.2 0 20 0 C21.03640625 2.289375 22.0728125 4.57875 23.140625 6.9375 C24.1563679 9.17839086 25.17264143 11.41904034 26.18896484 13.65966797 C26.88971421 15.20531533 27.58992017 16.7512092 28.28955078 18.29736328 C29.30094525 20.53224208 30.31435434 22.76619824 31.328125 25 C31.63558655 25.68054443 31.9430481 26.36108887 32.25982666 27.06225586 C34.39779382 31.76621423 36.66760422 36.38924077 39 41 C41.96821354 37.44626331 43.80298211 33.45127955 45.72265625 29.27734375 C46.06880478 28.53545303 46.41495331 27.79356232 46.77159119 27.02919006 C47.87295022 24.66730655 48.96814111 22.30263412 50.0625 19.9375 C51.1611841 17.56916125 52.26121499 15.20147425 53.36412048 12.83509827 C54.04902025 11.36500103 54.73138147 9.89371782 55.41090393 8.42112732 C56.7905286 5.45494435 58.18129577 2.72805634 60 0 C61.87939453 -0.34057617 61.87939453 -0.34057617 64.1328125 -0.29296875 C64.93847656 -0.28330078 65.74414062 -0.27363281 66.57421875 -0.26367188 C67.83685547 -0.2259668 67.83685547 -0.2259668 69.125 -0.1875 C69.97449219 -0.17396484 70.82398438 -0.16042969 71.69921875 -0.14648438 C73.79974837 -0.11108219 75.89995293 -0.05727401 78 0 C77.67 0.66 77.34 1.32 77 2 C74.69 2.66 72.38 3.32 70 4 C70 21.16 70 38.32 70 56 C72.64 56.33 75.28 56.66 78 57 C78 57.66 78 58.32 78 59 C73.1414954 60.2596123 68.35555337 60.14763888 63.375 60.125 C62.08722656 60.13080078 62.08722656 60.13080078 60.7734375 60.13671875 C59.9484375 60.13542969 59.1234375 60.13414062 58.2734375 60.1328125 C57.52497559 60.13168457 56.77651367 60.13055664 56.00537109 60.12939453 C54 60 54 60 51 59 C51 58.34 51 57.68 51 57 C53.31 56.34 55.62 55.68 58 55 C58.71109686 47.698559 59.10566634 40.45809447 59.125 33.125 C59.12951172 32.4244751 59.13402344 31.7239502 59.13867188 31.00219727 C59.12607183 26.57905788 58.66004498 22.36730856 58 18 C57.60731934 18.8156543 57.21463867 19.63130859 56.81005859 20.47167969 C55.32346435 23.5584487 53.83606077 26.64482517 52.34814453 29.73095703 C51.70980957 31.05534994 51.07177826 32.37988926 50.43408203 33.70458984 C46.3577832 42.17173656 42.23094138 50.608731 38 59 C37.01 59 36.02 59 35 59 C33.09700035 54.9292992 31.19477493 50.85823772 29.29321289 46.78686523 C28.64855984 45.40688724 28.00370892 44.02700165 27.35864258 42.6472168 C23.52728145 34.4516168 19.72016654 26.24689383 16 18 C15.67 18 15.34 18 15 18 C14.97516899 22.44742458 14.95707817 26.89481178 14.94506836 31.34228516 C14.94005838 32.85336002 14.93324856 34.36443009 14.92456055 35.87548828 C14.91234824 38.05502512 14.90673822 40.23449753 14.90234375 42.4140625 C14.89710693 43.7232666 14.89187012 45.0324707 14.88647461 46.38134766 C14.99027883 49.69013513 15.36567632 52.75595018 16 56 C19.465 56.495 19.465 56.495 23 57 C23 57.66 23 58.32 23 59 C17.89701229 60.10048457 13.27918151 59.94251169 8.125 59.5625 C6.949375 59.48418945 6.949375 59.48418945 5.75 59.40429688 C3.8329088 59.27571149 1.91638497 59.13871383 0 59 C1 57 1 57 8 54 C8 37.83 8 21.66 8 5 C5.36 3.68 2.72 2.36 0 1 C0 0.67 0 0.34 0 0 Z " fill="#163D8A" transform="translate(109,616)"/>
<path d="M0 0 C0.66 0.33 1.32 0.66 2 1 C2.54663086 3.6328125 2.54663086 3.6328125 2.96484375 7.125 C3.12533203 8.38957031 3.28582031 9.65414062 3.45117188 10.95703125 C3.61434525 12.30455909 3.77644724 13.65221707 3.9375 15 C5.02390628 27.3693219 5.02390628 27.3693219 9 39 C12.53765991 41.35843994 14.05865813 41.25725189 18.25 41.265625 C19.49910156 41.26820313 20.74820313 41.27078125 22.03515625 41.2734375 C23.34355469 41.26570312 24.65195313 41.25796875 26 41.25 C27.91619141 41.26160156 27.91619141 41.26160156 29.87109375 41.2734375 C37.46643289 41.25788921 44.5894124 40.69087732 52 39 C51.47148437 38.33613281 50.94296875 37.67226563 50.3984375 36.98828125 C49.73070312 36.10527344 49.06296875 35.22226562 48.375 34.3125 C47.70210938 33.44238281 47.02921875 32.57226562 46.3359375 31.67578125 C45 29 45 29 45.625 26.40625 C47.53683376 23.06054092 49.69701858 20.09084348 52 17 C55 18 55 18 56.16796875 19.8984375 C59.64531026 28.34531305 60.44361721 35.73427217 57.3125 44.4375 C55.51035299 48.39971172 53.9167571 50.86358704 50 53 C42.5144019 55.18358874 35.38067707 55.33856868 27.62695312 55.31567383 C25.37321286 55.31249748 23.1207677 55.33608685 20.8671875 55.36132812 C19.41927247 55.36360016 17.97135395 55.36430506 16.5234375 55.36328125 C15.22325684 55.36626221 13.92307617 55.36924316 12.58349609 55.37231445 C8.71844183 54.97074695 6.30291289 54.0086362 3 52 C0.4208905 48.70370497 -0.90398757 45.15214913 -1.25 41 C-1.12625 40.01 -1.12625 40.01 -1 39 C-1.928125 39.825 -2.85625 40.65 -3.8125 41.5 C-8.65914387 44.93955372 -13.26300494 44.75034268 -19 44 C-22.41526632 43.19855084 -25.70497722 42.20078921 -29 41 C-28.80270187 33.25156441 -26.78608376 27.99328237 -21.4296875 22.34375 C-18.25461638 19.44926656 -15.12115044 17.53509453 -11.25 15.6875 C-8.56574467 14.28859874 -7.27840522 13.55086585 -5.90234375 10.828125 C-5.43387185 9.26143209 -5.00381295 7.68262172 -4.6171875 6.09375 C-3.78787084 3.28037195 -2.26679564 1.79780343 0 0 Z M-8.875 22.8125 C-9.92300781 23.31716797 -9.92300781 23.31716797 -10.9921875 23.83203125 C-13.01887879 25.01098202 -14.42736336 26.27405601 -16 28 C-15.67 28.99 -15.34 29.98 -15 31 C-10.83861737 31.08159574 -7.0527516 30.98248524 -3 30 C-3.33 27.03 -3.66 24.06 -4 21 C-5.78914226 21 -7.29337334 22.03906718 -8.875 22.8125 Z " fill="#163D8A" transform="translate(138,512)"/>
<path d="M0 0 C5.22859225 -0.12459983 10.45630019 -0.21480498 15.68603516 -0.2746582 C17.46092809 -0.29963627 19.23571993 -0.33363126 21.01025391 -0.37719727 C40.89099171 -0.85267918 40.89099171 -0.85267918 48 5 C51.17591406 8.95238298 52.3219505 12.48591854 52.0625 17.5625 C51.27955161 22.36014118 49.06764916 25.30308948 46 29 C46.928125 29.53625 47.85625 30.0725 48.8125 30.625 C52.37467318 33.27916825 53.55718182 34.83185858 55 39 C55.75251332 44.83197821 54.8556287 48.13151288 51.875 53.140625 C46.99553153 57.97943123 41.41289494 59.45560328 34.69006348 59.45318604 C33.37395081 59.42221832 33.37395081 59.42221832 32.03125 59.390625 C31.11033569 59.38496521 30.18942139 59.37930542 29.24060059 59.37347412 C26.32651693 59.35125236 23.41370603 59.30108383 20.5 59.25 C18.51303871 59.2299166 16.52605796 59.21166906 14.5390625 59.1953125 C9.69222501 59.1514343 4.84632758 59.08250689 0 59 C0 58.34 0 57.68 0 57 C1.134375 56.690625 2.26875 56.38125 3.4375 56.0625 C6.78775099 55.37075469 6.78775099 55.37075469 8 54 C8.09319449 52.4651703 8.117458 50.92607918 8.11352539 49.38842773 C8.11344986 48.40748642 8.11337433 47.4265451 8.11329651 46.4158783 C8.10813522 45.3492244 8.10297394 44.2825705 8.09765625 43.18359375 C8.0962413 42.0974025 8.09482635 41.01121124 8.09336853 39.8921051 C8.08775048 36.40720925 8.07519492 32.92237658 8.0625 29.4375 C8.05748733 27.08138113 8.05292402 24.72526126 8.04882812 22.36914062 C8.03777519 16.57940536 8.02101951 10.78970719 8 5 C5.36 3.68 2.72 2.36 0 1 C0 0.67 0 0.34 0 0 Z M19 5 C19 11.93 19 18.86 19 26 C24.97725823 27.99241941 31.23896056 27.43736284 37 25 C39.44544565 22.43228207 40.84683428 20.59729962 41.19140625 17.00390625 C40.94549118 13.06181321 40.21208919 11.26367845 37.6875 8.125 C33.65468824 4.93626512 31.05057015 3.72752795 25.875 3.8125 C25.00617187 3.81894531 24.13734375 3.82539062 23.2421875 3.83203125 C20.9635455 3.8602493 20.9635455 3.8602493 19 5 Z M19 31 C19 38.59 19 46.18 19 54 C23.44651014 56.22325507 29.1762713 55.51722965 34 55 C37.76351239 53.48555357 41.1445856 51.7108288 43 48 C43.52954417 43.58134453 43.58712449 40.08030907 41.4375 36.125 C34.44064656 30.02517905 27.97059561 30.7225589 19 31 Z " fill="#163D8A" transform="translate(592,616)"/>
<path d="M0 0 C0.66 0.33 1.32 0.66 2 1 C2.42996139 3.91418273 2.71724599 6.75404479 2.9375 9.6875 C3.01613281 10.62343994 3.09476563 11.55937988 3.17578125 12.52368164 C3.66110284 18.39120127 4.09548667 24.26258687 4.53285217 30.13383484 C4.78804865 33.54629524 5.04796256 36.95839256 5.30764771 40.37051392 C5.49781139 42.90829253 5.67876332 45.44661629 5.85913086 47.98510742 C5.97866436 49.58254498 6.09852371 51.17995819 6.21875 52.77734375 C6.26769913 53.50270325 6.31664825 54.22806274 6.36708069 54.97540283 C6.72087229 59.5353243 7.34859284 63.72278832 9 68 C11.78669657 70.17087057 14.35368557 70.25622182 17.81640625 70.265625 C18.74114746 70.26949219 19.66588867 70.27335938 20.61865234 70.27734375 C21.59012207 70.26832031 22.5615918 70.25929688 23.5625 70.25 C24.54943848 70.24613281 25.53637695 70.24226562 26.55322266 70.23828125 C33.18854143 70.15943277 39.5614682 69.72515685 46 68 C45.38125 66.948125 44.7625 65.89625 44.125 64.8125 C43.38733303 63.55846615 42.68130413 62.28552641 42 61 C41.57074219 60.19433594 41.14148438 59.38867188 40.69921875 58.55859375 C40 56 40 56 41.01171875 53.578125 C41.56472656 52.80984375 42.11773438 52.0415625 42.6875 51.25 C43.49767578 50.08210937 43.49767578 50.08210937 44.32421875 48.890625 C46 47 46 47 49 46 C53.35414967 54.20200286 55.2186325 62.13480281 53 71.3125 C51.2749468 76.24458392 48.59159801 79.48312405 44 82 C37.18635891 84.71240705 30.18205868 84.33118117 22.9375 84.3125 C21.68388672 84.32861328 20.43027344 84.34472656 19.13867188 84.36132812 C17.92630859 84.36197266 16.71394531 84.36261719 15.46484375 84.36328125 C13.81923462 84.36775269 13.81923462 84.36775269 12.14038086 84.37231445 C8.50133541 83.94087977 6.12440599 82.89181403 3 81 C-5.01787898 70.75493241 -4.00376677 52.76239277 -5.34204102 40.26831055 C-5.68944149 37.04448325 -6.04873552 33.82211064 -6.40820312 30.59960938 C-6.63093872 28.53653706 -6.85296929 26.47338847 -7.07421875 24.41015625 C-7.18247482 23.45383804 -7.2907309 22.49751984 -7.40226746 21.51222229 C-8.57592671 10.25996204 -8.57592671 10.25996204 -5.37109375 5.6640625 C-4.73300781 4.99117188 -4.09492187 4.31828125 -3.4375 3.625 C-2.79683594 2.93664062 -2.15617188 2.24828125 -1.49609375 1.5390625 C-0.75552734 0.77722656 -0.75552734 0.77722656 0 0 Z " fill="#163D8A" transform="translate(734,483)"/>
<path d="M0 0 C5.88770986 5.34001592 7.61383978 11.75223753 8.3203125 19.5234375 C8.77420675 34.19935154 4.63520803 46.64618416 -5.32421875 57.54296875 C-12.17459356 64.13524466 -18.89017247 68.05397425 -28.5 68.5 C-36.14868846 68.19665258 -43.5264844 65.4735156 -49 60 C-49 59.34 -49 58.68 -49 58 C-48.42668945 58.00112793 -47.85337891 58.00225586 -47.26269531 58.00341797 C-35.66440175 57.94991601 -25.83490886 57.85011103 -16 51 C-15.09894531 50.39800781 -14.19789063 49.79601562 -13.26953125 49.17578125 C-7.12191333 44.69900778 -3.40886651 39.7623043 0 33 C-1.010625 33.350625 -2.02125 33.70125 -3.0625 34.0625 C-7.01099318 35.16329204 -9.99604766 35.11220898 -14 34 C-18.14966673 30.48180429 -19.85048365 28.54500232 -20.375 23.125 C-20.29417965 15.98971809 -17.4080629 8.09254739 -12.4375 2.875 C-7.98428927 -0.55054671 -5.62289734 -1.83604811 0 0 Z M-9 13 C-11.28728734 14.83883881 -11.28728734 14.83883881 -11.125 17.625 C-11.08375 18.40875 -11.0425 19.1925 -11 20 C-6.38492226 21.04214691 -6.38492226 21.04214691 -2 20 C-2.55774272 16.76509224 -3.37211508 15.02144994 -6 13 C-6.99 13 -7.98 13 -9 13 Z " fill="#163D8A" transform="translate(391,527)"/>
<path d="M0 0 C15.18 0 30.36 0 46 0 C46.75372099 3.76860494 47.11244419 6.56668585 47.0625 10.3125 C47.05347656 11.19550781 47.04445313 12.07851563 47.03515625 12.98828125 C47.02355469 13.65214844 47.01195312 14.31601562 47 15 C42.92645356 13.64215119 42.40099655 11.47808866 40.4765625 7.8125 C39.1316831 5.83111677 39.1316831 5.83111677 36.85546875 5.28515625 C33.13507059 4.91362538 29.420589 4.64123382 25.6875 4.4375 C23.150625 4.293125 20.61375 4.14875 18 4 C18 11.26 18 18.52 18 26 C21.58875 25.87625 21.58875 25.87625 25.25 25.75 C25.99668945 25.73420898 26.74337891 25.71841797 27.51269531 25.70214844 C30.88995612 25.52956114 32.73373502 25.21093719 35.40625 23.09375 C36.9057373 21.12383531 38.02621523 19.27216446 39 17 C39.33 17 39.66 17 40 17 C41.23402862 21.77092956 41.11265112 26.42469446 41.0625 31.3125 C41.05798828 32.14845703 41.05347656 32.98441406 41.04882812 33.84570312 C41.03710548 35.89716649 41.01917203 37.94859273 41 40 C40.34 40 39.68 40 39 40 C38.86207031 39.43410156 38.72414063 38.86820313 38.58203125 38.28515625 C37.67604775 35.66838157 36.90908228 34.02920431 35 32 C30.66152105 30.91678339 26.45347777 30.91003075 22 31 C20.68 31 19.36 31 18 31 C18.13816959 34.64616671 18.28681534 38.29183074 18.4375 41.9375 C18.47681641 42.97841797 18.51613281 44.01933594 18.55664062 45.09179688 C18.59853516 46.08115234 18.64042969 47.07050781 18.68359375 48.08984375 C18.72025146 49.00628662 18.75690918 49.92272949 18.79467773 50.86694336 C18.77003864 52.9820728 18.77003864 52.9820728 20 54 C22.59595152 54.12742684 25.15352058 54.18521437 27.75 54.1875 C28.82507813 54.20586914 28.82507813 54.20586914 29.921875 54.22460938 C34.05611033 54.23600892 37.38641806 54.08132105 41 52 C42.9711324 49.89272397 42.9711324 49.89272397 44.625 47.4375 C47.6901605 43.10327983 47.6901605 43.10327983 51 42 C50.49803974 48.90195362 49.01768333 52.2102125 46 59 C30.82 59 15.64 59 0 59 C0.33 58.34 0.66 57.68 1 57 C3.31 56.34 5.62 55.68 8 55 C8 38.17 8 21.34 8 4 C5.69 3.34 3.38 2.68 1 2 C0.67 1.34 0.34 0.68 0 0 Z " fill="#163D8A" transform="translate(406,616)"/>
<path d="M0 0 C2.19902826 3.29854238 2.26409793 4.36420456 2.31884766 8.20581055 C2.33871735 9.26668381 2.35858704 10.32755707 2.37905884 11.420578 C2.39061005 12.56440445 2.40216125 13.7082309 2.4140625 14.88671875 C2.43342865 16.05886429 2.4527948 17.23100983 2.4727478 18.43867493 C2.53260197 22.1882089 2.57895283 25.93777348 2.625 29.6875 C2.66317436 32.22722705 2.70222576 34.76694107 2.7421875 37.30664062 C2.83830835 43.53764497 2.92333885 49.76872751 3 56 C4.98 56.66 6.96 57.32 9 58 C5.53019178 62.37497558 1.2614288 63.72097863 -4 65 C-4.99 65 -5.98 65 -7 65 C-7.495 63.515 -7.495 63.515 -8 62 C-8.969375 62.515625 -9.93875 63.03125 -10.9375 63.5625 C-15.43473923 65.46517813 -19.34104811 65.38325894 -24 64 C-28.61272144 61.48851826 -31.05739125 57.80540058 -33 53 C-35.18334593 45.48806853 -34.40674017 38.01839704 -31 31 C-27.67239015 25.79682823 -24.08510758 22.62269536 -18 21 C-14.57316965 21.06522517 -11.40441469 21.48700601 -8 22 C-7.67 17.38 -7.34 12.76 -7 8 C-8.98 8 -10.96 8 -13 8 C-13 7.34 -13 6.68 -13 6 C-11.3970947 5.18501438 -9.79262722 4.37310073 -8.1875 3.5625 C-7.29417969 3.11003906 -6.40085937 2.65757812 -5.48046875 2.19140625 C-3 1 -3 1 0 0 Z M-22 30 C-24.95676912 36.01656156 -25.16647735 43.04028228 -23.27734375 49.453125 C-21.79396964 52.69612912 -20.33000621 54.71341566 -17.625 57.0625 C-14.31406203 58.24497784 -12.35275259 57.96857297 -9 57 C-5.43636841 53.43636841 -6.58780875 48.01022306 -6.5625 43.1875 C-6.52962891 42.09373047 -6.49675781 40.99996094 -6.46289062 39.87304688 C-6.22692782 33.26553824 -6.22692782 33.26553824 -9.37109375 27.7734375 C-11.83841945 25.87717576 -11.83841945 25.87717576 -14.5 25.4375 C-17.89125461 26.20053229 -19.55178221 27.55178221 -22 30 Z " fill="#163D8A" transform="translate(301,612)"/>
<path d="M0 0 C0.33 18.81 0.66 37.62 1 57 C2.98 57 4.96 57 7 57 C3.66885915 61.02512852 -0.06100148 62.66129814 -5 64 C-5.99 64 -6.98 64 -8 64 C-8 62.68 -8 61.36 -8 60 C-8.639375 60.474375 -9.27875 60.94875 -9.9375 61.4375 C-14.57808863 63.80514726 -19.10667207 64.81502195 -24.21875 63.375 C-28.98670678 61.24009398 -31.6590277 58.77198199 -34 54 C-36.85239177 45.73897467 -36.42212837 38.58778879 -32.75 30.6875 C-30.05607196 25.70875047 -27.37520147 23.13361888 -22.25 20.6875 C-17.53094174 19.68923768 -12.38560473 19.80719763 -8 22 C-8.14076315 20.0412957 -8.2877676 18.08303907 -8.4375 16.125 C-8.51871094 15.03445313 -8.59992188 13.94390625 -8.68359375 12.8203125 C-8.83001703 10.05271029 -8.83001703 10.05271029 -10 8 C-11.64363134 7.27840576 -13.31050386 6.60648579 -15 6 C-12.86285601 3.62317631 -11.06221946 2.40068998 -8.0625 1.3125 C-7.39347656 1.06113281 -6.72445312 0.80976562 -6.03515625 0.55078125 C-4 0 -4 0 0 0 Z M-23.80078125 30.17578125 C-26.77492206 34.69996288 -26.55547518 39.7924202 -26 45 C-24.38405009 50.1552315 -21.83430991 54.35263981 -17 57 C-13.81423282 56.93628466 -11.88548146 56.68494826 -9.34521484 54.7199707 C-7.63285131 52.53056942 -7.61346908 51.30160891 -7.6015625 48.54296875 C-7.59769531 47.67736328 -7.59382813 46.81175781 -7.58984375 45.91992188 C-7.60144531 45.01822266 -7.61304688 44.11652344 -7.625 43.1875 C-7.61339844 42.29740234 -7.60179687 41.40730469 -7.58984375 40.49023438 C-7.61765501 34.23733499 -8.39645477 29.60354523 -13 25 C-18.63317347 23.84775997 -20.50725117 26.05238532 -23.80078125 30.17578125 Z " fill="#163D8A" transform="translate(256,613)"/>
<path d="M0 0 C2.36216904 3.69658734 2.34403649 7.35860687 2.4140625 11.609375 C2.43342865 12.33618469 2.4527948 13.06299438 2.4727478 13.81182861 C2.53234271 16.12443448 2.57884758 18.43709067 2.625 20.75 C2.66319836 22.32163582 2.70225117 23.89325113 2.7421875 25.46484375 C2.83802743 29.30972842 2.92213195 33.15471107 3 37 C4.68424496 35.64658887 6.34693845 34.26632681 8 32.875 C8.928125 32.10929688 9.85625 31.34359375 10.8125 30.5546875 C13.30705983 28.13782421 13.30705983 28.13782421 13.3125 24.6953125 C13.209375 23.80585937 13.10625 22.91640625 13 22 C15.22909871 21.97285265 17.45829367 21.95353746 19.6875 21.9375 C20.92886719 21.92589844 22.17023437 21.91429687 23.44921875 21.90234375 C26.46235454 21.98521327 29.08275339 22.29160551 32 23 C29.91646889 25.08353111 28.76108777 25.55235955 26.0625 26.5625 C19.84459116 29.2056176 15.04193131 33.58948812 10 38 C13.84914178 43.35089028 17.97041489 48.29029616 22.4609375 53.1171875 C24 55 24 55 24 57 C24.721875 57.268125 25.44375 57.53625 26.1875 57.8125 C28.98471974 58.99354833 31.46419975 60.33361698 34 62 C34 62.33 34 62.66 34 63 C26.74 63 19.48 63 12 63 C12.33 61.35 12.66 59.7 13 58 C11.45492444 55.29289813 11.45492444 55.29289813 9.1875 52.8125 C8.45917969 51.95269531 7.73085938 51.09289062 6.98046875 50.20703125 C5.69110719 48.77016876 4.36510568 47.36510568 3 46 C2.86503749 48.10241603 2.76802693 50.2072961 2.6875 52.3125 C2.62949219 53.48425781 2.57148437 54.65601563 2.51171875 55.86328125 C2.660191 59.20099769 2.660191 59.20099769 5.51953125 60.91796875 C6.33808594 61.27503906 7.15664063 61.63210938 8 62 C1.77340199 65.76873037 -7.15307959 64.52153787 -14 63 C-14 62.34 -14 61.68 -14 61 C-11.03 60.505 -11.03 60.505 -8 60 C-8 42.84 -8 25.68 -8 8 C-9.98 8 -11.96 8 -14 8 C-14 7.34 -14 6.68 -14 6 C-12.23002526 5.18563132 -10.45898848 4.3735706 -8.6875 3.5625 C-7.70136719 3.11003906 -6.71523438 2.65757812 -5.69921875 2.19140625 C-3 1 -3 1 0 0 Z " fill="#163D8A" transform="translate(755,612)"/>
<path d="M0 0 C6.60494433 3.48594284 9.45017013 8.07903321 12 15 C14.70237662 26.30084769 12.5801958 37.78738294 6.640625 47.734375 C0.58773405 56.09312917 -6.22557819 61.7418594 -16 65 C-24.77366616 65.61569587 -33.13002358 63.66773055 -40 58 C-41.15625 55.87109375 -41.15625 55.87109375 -42 54 C-40.98421875 54.13019531 -39.9684375 54.26039063 -38.921875 54.39453125 C-27.03632666 55.68180615 -18.83770969 53.83140727 -9.0625 46.5 C-5.85967106 43.83580233 -2.86232789 41.03070012 0 38 C0.5775 37.566875 1.155 37.13375 1.75 36.6875 C3.97177985 33.6880972 4.42505583 30.60672373 4 27 C2.38759605 23.68131926 0.29315704 20.87876039 -2 18 C-2.78375 16.989375 -3.5675 15.97875 -4.375 14.9375 C-4.91125 14.298125 -5.4475 13.65875 -6 13 C-5.37935063 11.39414507 -4.7533082 9.79037383 -4.125 8.1875 C-3.60292969 6.84751953 -3.60292969 6.84751953 -3.0703125 5.48046875 C-2 3 -2 3 0 0 Z " fill="#163D8A" transform="translate(342,528)"/>
<path d="M0 0 C0.33 1.65 0.66 3.3 1 5 C1.804375 4.360625 2.60875 3.72125 3.4375 3.0625 C7.36339725 0.45763926 11.32389946 -0.23294228 16 0 C19.670261 1.56181319 20.7727373 2.65910596 23 6 C24.00245705 9.7894413 24.18677302 13.48701546 24.31640625 17.39453125 C24.35830078 18.59658203 24.40019531 19.79863281 24.44335938 21.03710938 C24.48267578 22.28298828 24.52199219 23.52886719 24.5625 24.8125 C24.62727539 26.71032227 24.62727539 26.71032227 24.69335938 28.64648438 C24.7992447 31.76421889 24.90132405 34.88203035 25 38 C26.65 38.66 28.3 39.32 30 40 C30 40.66 30 41.32 30 42 C25.65507229 43.13896163 21.61379215 42.93100471 17.1875 42.5625 C16.49462891 42.51029297 15.80175781 42.45808594 15.08789062 42.40429688 C13.39145563 42.27560181 11.69565137 42.13863816 10 42 C10.65049316 41.46769775 11.30098633 40.93539551 11.97119141 40.38696289 C14.56286206 37.33777348 14.49074893 35.76679118 14.4609375 31.80859375 C14.45513672 30.02098633 14.45513672 30.02098633 14.44921875 28.19726562 C14.42472656 26.95654297 14.40023437 25.71582031 14.375 24.4375 C14.37371094 23.19291016 14.37242187 21.94832031 14.37109375 20.66601562 C14.5629979 13.95362026 14.5629979 13.95362026 12 8 C5.85831554 8.55647406 5.85831554 8.55647406 1 12 C0.35596812 14.89377727 0.35596812 14.89377727 0.390625 18.19921875 C0.35839844 19.40771484 0.32617188 20.61621094 0.29296875 21.86132812 C0.27169922 23.7552832 0.27169922 23.7552832 0.25 25.6875 C0.20552734 27.59885742 0.20552734 27.59885742 0.16015625 29.54882812 C0.08935951 32.69928292 0.03670953 35.8489934 0 39 C3.465 39.495 3.465 39.495 7 40 C7 40.66 7 41.32 7 42 C-0.24990761 43.07406039 -7.855846 44.06459496 -15 42 C-15 41.34 -15 40.68 -15 40 C-12.525 39.505 -12.525 39.505 -10 39 C-9.67 28.77 -9.34 18.54 -9 8 C-11.31 7.67 -13.62 7.34 -16 7 C-13.62916021 4.27821353 -11.3466216 3.11230393 -8 1.8125 C-6.700625 1.29623047 -6.700625 1.29623047 -5.375 0.76953125 C-3 0 -3 0 0 0 Z " fill="#163D8A" transform="translate(710,633)"/>
<path d="M0 0 C3.78088873 2.26853324 4.48324145 3.83582417 6.125 7.875 C6.55737305 11.03466797 6.55737305 11.03466797 6.63671875 14.3671875 C6.68989258 16.16542969 6.68989258 16.16542969 6.74414062 18 C6.76669922 19.2375 6.78925781 20.475 6.8125 21.75 C6.86374023 23.64105469 6.86374023 23.64105469 6.91601562 25.5703125 C6.99825167 28.67178616 7.06748468 31.77298569 7.125 34.875 C10.095 34.38 10.095 34.38 13.125 33.875 C12.13887981 37.42503269 11.20532022 38.80895893 8.3125 41.1875 C5.09018752 42.89343014 3.66525762 43.62031739 0.125 42.875 C-2.1875 40.875 -2.1875 40.875 -3.875 38.875 C-4.38289062 39.16375 -4.89078125 39.4525 -5.4140625 39.75 C-12.98300931 43.83212861 -12.98300931 43.83212861 -17.875 42.875 C-21.39566118 40.81574535 -23.30955006 39.61218786 -24.578125 35.71484375 C-25.12191515 32.174297 -25.1227287 29.58515562 -23.9375 26.1875 C-18.31503543 19.88352458 -11.76808538 16.6246404 -3.875 13.875 C-3.45774322 10.50099422 -3.45774322 10.50099422 -3.875 6.875 C-5.96421756 4.70479708 -5.96421756 4.70479708 -8.875 3.875 C-10.525 4.205 -12.175 4.535 -13.875 4.875 C-14.535 8.175 -15.195 11.475 -15.875 14.875 C-17.87454746 14.91754356 -19.87541636 14.91580783 -21.875 14.875 C-22.875 13.875 -22.875 13.875 -23.375 10.1875 C-23.36006108 7.41881929 -23.16119787 6.23409009 -21.41796875 4.046875 C-15.11864771 -1.41695715 -7.98217927 -2.88717122 0 0 Z M-8.8125 21.1875 C-9.70839844 21.61675781 -10.60429688 22.04601562 -11.52734375 22.48828125 C-14.14032738 23.80250653 -14.14032738 23.80250653 -15.875 26.875 C-15.64287034 31.91501408 -15.64287034 31.91501408 -12.875 35.875 C-8.67828603 35.60130126 -5.8350496 34.91127405 -2.875 31.875 C-2.39033634 28.67697224 -2.39033634 28.67697224 -2.625 25.1875 C-2.66109375 24.00800781 -2.6971875 22.82851563 -2.734375 21.61328125 C-2.78078125 20.70964844 -2.8271875 19.80601562 -2.875 18.875 C-4.95221409 18.875 -6.99528132 20.30365906 -8.8125 21.1875 Z " fill="#163D8A" transform="translate(680.875,634.125)"/>
<path d="M0 0 C3.08087432 4.62131149 3.11143865 9.38965553 3.31640625 14.8359375 C3.35830078 15.89941406 3.40019531 16.96289062 3.44335938 18.05859375 C3.48267578 19.15300781 3.52199219 20.24742187 3.5625 21.375 C3.60568359 22.49261719 3.64886719 23.61023438 3.69335938 24.76171875 C3.79897411 27.50770199 3.9010797 30.25376881 4 33 C5.98 32.34 7.96 31.68 10 31 C8.68997074 34.93008778 7.33292638 37.47778544 4 40 C0.25 40.75 0.25 40.75 -3 41 C-3.99 39.68 -4.98 38.36 -6 37 C-6.556875 37.28875 -7.11375 37.5775 -7.6875 37.875 C-12.26481729 40.101803 -15.81478041 41.74074566 -21 41 C-24.42639416 38.92822679 -26.70644365 36.88066905 -28 33 C-28.5458077 27.21443837 -27.62909271 24.50709901 -24 20 C-21.60927038 18.51311682 -19.47248356 17.32732127 -16.9375 16.1875 C-16.31294922 15.88908203 -15.68839844 15.59066406 -15.04492188 15.28320312 C-12.39549585 14.03059296 -9.78193768 12.92731256 -7 12 C-6.76571687 7.2102679 -6.76571687 7.2102679 -9 3 C-12.58357241 2.74984127 -12.58357241 2.74984127 -16 3 C-16.66 5.97 -17.32 8.94 -18 12 C-20.3260857 12.38063221 -22.66055264 12.71269945 -25 13 C-26 12 -26 12 -26.375 8.25 C-26.33098076 4.74103785 -26.06643112 4.08730947 -23.8125 1.125 C-16.29024396 -4.55848234 -8.13343528 -4.48168883 0 0 Z M-12.5 19.3125 C-13.2940625 19.74175781 -14.088125 20.17101562 -14.90625 20.61328125 C-17.2688318 21.9835631 -17.2688318 21.9835631 -19 25 C-19.32787294 28.14758022 -19.48302295 30.16812713 -17.875 32.9375 C-15.93252765 34.25685987 -15.93252765 34.25685987 -13.0625 33.875 C-9.86504167 32.96144048 -8.31301538 32.36254462 -6 30 C-5.51533634 26.80197224 -5.51533634 26.80197224 -5.75 23.3125 C-5.78609375 22.13300781 -5.8221875 20.95351563 -5.859375 19.73828125 C-5.90578125 18.83464844 -5.9521875 17.93101562 -6 17 C-8.68191633 17 -10.157044 18.0231135 -12.5 19.3125 Z " fill="#163D8A" transform="translate(492,636)"/>
<path d="M0 0 C2.3125 1.5 2.3125 1.5 4 4 C4.66 7.63 5.32 11.26 6 15 C-2.91 15 -11.82 15 -21 15 C-18.96075697 23.8438662 -18.96075697 23.8438662 -13.25 30.375 C-9.79661928 31.33427242 -6.54665914 31.60088027 -3 31 C-0.66666667 29.33333333 -0.66666667 29.33333333 1 27 C3 25 3 25 5 23 C5.7974855 25.31995782 6.11434828 26.61982909 5.3984375 29 C2.68751874 34.29767331 -0.03538863 37.22123318 -5.1875 40.3125 C-10.48908921 41.60844403 -15.5320631 41.43755247 -20.3203125 38.6484375 C-26.10788048 33.97139917 -28.51835414 29.46284519 -29.30859375 22.140625 C-29.66284556 13.68152124 -27.94670881 7.64461352 -22.625 1.0625 C-15.47576297 -4.55475766 -7.80796663 -4.1249635 0 0 Z M-18.9375 4.8125 C-21.27162564 7.78702081 -21.27162564 7.78702081 -21 11 C-15.72 11 -10.44 11 -5 11 C-5.53832008 5.509845 -5.53832008 5.509845 -7.125 3.125 C-11.53127483 0.4812351 -15.63283225 1.02766685 -18.9375 4.8125 Z " fill="#163D8A" transform="translate(370,636)"/>
<path d="M0 0 C1.11761719 0.07831055 1.11761719 0.07831055 2.2578125 0.15820312 C4.08894861 0.2873217 5.91953813 0.42415114 7.75 0.5625 C7.77705729 2.33324917 7.79642195 4.10411711 7.8125 5.875 C7.82410156 6.86113281 7.83570313 7.84726562 7.84765625 8.86328125 C7.75 11.5625 7.75 11.5625 6.75 14.5625 C6.09 14.5625 5.43 14.5625 4.75 14.5625 C3.671875 12.8828125 3.671875 12.8828125 2.5 10.6875 C0.65643681 7.61489469 -0.01709467 6.68132925 -3.3125 5 C-6.07863414 4.58802257 -7.6668789 4.56899189 -10.25 5.5625 C-10.25 7.8725 -10.25 10.1825 -10.25 12.5625 C-9.18458984 12.97048828 -9.18458984 12.97048828 -8.09765625 13.38671875 C-0.390406 16.56899903 6.88155979 19.82561957 10.75 27.5625 C11.19196991 31.45183523 10.90595304 33.27844267 9 36.75 C5.80260017 40.74674979 3.83729395 42.57003007 -1.25 43.3125 C-6.97065371 43.79956734 -12.55368096 43.15177438 -18.25 42.5625 C-18.25 37.6125 -18.25 32.6625 -18.25 27.5625 C-14.22449681 28.9043344 -13.36714364 30.9852573 -11.25 34.5625 C-11.25 35.2225 -11.25 35.8825 -11.25 36.5625 C-7.69646071 37.7470131 -4.97986522 37.82891894 -1.25 37.5625 C0.69369738 36.20820159 0.69369738 36.20820159 1.75 34.5625 C0.79260754 30.77254642 -0.10246671 29.66231806 -3.40234375 27.4296875 C-4.65606362 26.75064428 -5.91818181 26.08691861 -7.1875 25.4375 C-16.61415056 20.47004833 -16.61415056 20.47004833 -18.25 15.5625 C-18.70076779 9.47713479 -17.62262078 6.45090791 -13.8125 1.8125 C-9.82069358 -1.38094513 -4.79342639 -0.36839938 0 0 Z " fill="#163D8A" transform="translate(525.25,633.4375)"/>
<path d="M0 0 C0.33 19.47 0.66 38.94 1 59 C2.98 59.66 4.96 60.32 7 61 C7 61.33 7 61.66 7 62 C-0.26 62 -7.52 62 -15 62 C-14 60 -14 60 -12 59.0625 C-9.65391779 58.1108154 -9.65391779 58.1108154 -9 55 C-8.90920968 53.59414642 -8.87210959 52.18441612 -8.87060547 50.77563477 C-8.86587723 49.5040023 -8.86587723 49.5040023 -8.86105347 48.2066803 C-8.8630777 47.29413986 -8.86510193 46.38159943 -8.8671875 45.44140625 C-8.86623077 44.50070786 -8.86527405 43.56000946 -8.86428833 42.59080505 C-8.86360778 40.60114475 -8.86545334 38.61148221 -8.86962891 36.62182617 C-8.87497294 33.57791138 -8.86968274 30.53414454 -8.86328125 27.49023438 C-8.86394217 25.55729134 -8.86522362 23.6243484 -8.8671875 21.69140625 C-8.86516327 20.78089005 -8.86313904 19.87037384 -8.86105347 18.93226624 C-8.86420563 18.0813591 -8.86735779 17.23045197 -8.87060547 16.35375977 C-8.87140106 15.60780045 -8.87219666 14.86184113 -8.87301636 14.09327698 C-9.0058791 11.90308536 -9.25378092 10.06677923 -10 8 C-12.49034386 6.70339566 -12.49034386 6.70339566 -15 6 C-15 5.34 -15 4.68 -15 4 C-13.25307205 3.32532438 -11.50231475 2.66055844 -9.75 2 C-8.77546875 1.62875 -7.8009375 1.2575 -6.796875 0.875 C-4 0 -4 0 0 0 Z " fill="#163D8A" transform="translate(328,613)"/>
<path d="M0 0 C0.33 0 0.66 0 1 0 C1 4.29 1 8.58 1 13 C4.3 13.33 7.6 13.66 11 14 C11 15.32 11 16.64 11 18 C7.7 18 4.4 18 1 18 C1.14124983 21.70855946 1.28783083 25.41677877 1.4375 29.125 C1.47681641 30.17171875 1.51613281 31.2184375 1.55664062 32.296875 C1.76131096 37.27193842 1.99276207 42.10770149 3 47 C6.37705625 46.46274105 9.696686 45.88935377 13 45 C12.13084629 48.47661483 11.28170139 50.68515727 8.875 53.375 C4.84220068 55.65440831 2.60779404 55.51197712 -2 55 C-5.23613354 53.25746655 -5.82395315 52.52814056 -7 49 C-7.08397157 46.64319787 -7.10728187 44.28405919 -7.09765625 41.92578125 C-7.0962413 41.2419487 -7.09482635 40.55811615 -7.09336853 39.8535614 C-7.08777876 37.67316278 -7.07522822 35.49286749 -7.0625 33.3125 C-7.05748367 31.83268378 -7.052921 30.35286594 -7.04882812 28.87304688 C-7.03781271 25.24866443 -7.02055512 21.6243423 -7 18 C-9.31 18 -11.62 18 -14 18 C-12.66613539 14.92488356 -11.35187553 13.25862013 -8.6875 11.25 C-5.22191775 8.42833596 -3.1336243 5.40846152 -0.9453125 1.5390625 C-0.63335938 1.03117188 -0.32140625 0.52328125 0 0 Z " fill="#163D8A" transform="translate(553,621)"/>
<path d="M0 0 C0 12.87 0 25.74 0 39 C1.98 39.33 3.96 39.66 6 40 C6 40.66 6 41.32 6 42 C3.43788925 42.19569589 0.87567609 42.38180612 -1.6875 42.5625 C-2.7693457 42.64661133 -2.7693457 42.64661133 -3.87304688 42.73242188 C-7.77314064 42.99955159 -11.21111028 43.00887596 -15 42 C-15 41.34 -15 40.68 -15 40 C-12.525 39.505 -12.525 39.505 -10 39 C-10 29.1 -10 19.2 -10 9 C-11.65 8.67 -13.3 8.34 -15 8 C-14.8359375 6.140625 -14.8359375 6.140625 -14 4 C-11.6015625 2.734375 -11.6015625 2.734375 -8.625 1.75 C-7.64789063 1.41484375 -6.67078125 1.0796875 -5.6640625 0.734375 C-3 0 -3 0 0 0 Z " fill="#163D8A" transform="translate(208,633)"/>
<path d="M0 0 C1.62974564 0.76074843 3.25366648 1.53398433 4.875 2.3125 C6.23238281 2.95638672 6.23238281 2.95638672 7.6171875 3.61328125 C10 5 10 5 12 8 C9.03 12.455 9.03 12.455 6 17 C2.27566618 15.7874262 -1.37802806 14.49140021 -5 13 C-6.98 15.97 -6.98 15.97 -9 19 C-10.63197842 18.26530861 -12.25541307 17.51161878 -13.875 16.75 C-14.77992188 16.33234375 -15.68484375 15.9146875 -16.6171875 15.484375 C-19 14 -19 14 -21 10 C-19.02 7.03 -17.04 4.06 -15 1 C-10 3 -10 3 -7 5 C-6.01 5 -5.02 5 -4 5 C-1.79857668 2.5609294 -1.79857668 2.5609294 0 0 Z " fill="#163D8A" transform="translate(238,570)"/>
<path d="M0 0 C3.21852831 0.63065757 5.50801069 1.78020695 8.25 3.5625 C8.95640625 4.01753906 9.6628125 4.47257813 10.390625 4.94140625 C11.18726563 5.46541016 11.18726563 5.46541016 12 6 C10.44298069 10.67105792 7.91552627 14.08705685 5 18 C0.38486888 16.68139111 -3.09897612 14.78644563 -7 12 C-6.67566492 6.64847115 -3.50295176 3.71719957 0 0 Z " fill="#163D8A" transform="translate(759,572)"/>
<path d="M0 0 C4.30764815 1.56641751 8.06171464 3.68336156 12 6 C11.54300722 11.02692063 9.00758252 14.14896261 6 18 C0.84535266 17.51675181 -2.81550319 14.81389239 -7 12 C-5.44298069 7.32894208 -2.91552627 3.91294315 0 0 Z " fill="#163D8A" transform="translate(162,520)"/>
<path d="M0 0 C4.48861684 0.2493676 7.53686377 2.24523254 11 5 C11.88671875 6.83984375 11.88671875 6.83984375 12 9 C10.56640625 11.359375 10.56640625 11.359375 8.5625 13.75 C7.57443359 14.94882812 7.57443359 14.94882812 6.56640625 16.171875 C6.04949219 16.77515625 5.53257812 17.3784375 5 18 C0.33790798 16.27687791 -3.03332953 13.95555839 -7 11 C-6.21258141 9.53936857 -5.4199095 8.08156827 -4.625 6.625 C-4.18414062 5.81289063 -3.74328125 5.00078125 -3.2890625 4.1640625 C-2 2 -2 2 0 0 Z " fill="#163D8A" transform="translate(469,505)"/>
<path d="M0 0 C4.30764815 1.56641751 8.06171464 3.68336156 12 6 C11.38801624 9.43950364 10.07941153 11.51564485 7.9375 14.25 C7.38964844 14.95640625 6.84179688 15.6628125 6.27734375 16.390625 C5.85582031 16.92171875 5.43429687 17.4528125 5 18 C0.38486888 16.68139111 -3.09897612 14.78644563 -7 12 C-5.44298069 7.32894208 -2.91552627 3.91294315 0 0 Z " fill="#163D8A" transform="translate(697,516)"/>
<path d="M0 0 C3 -0.3125 3 -0.3125 6 0 C8 2 8 2 8.25 5 C8 8 8 8 6 10 C2.375 9.625 2.375 9.625 -1 9 C-1.625 6.1875 -1.625 6.1875 -2 3 C-1.34 2.01 -0.68 1.02 0 0 Z " fill="#163D8A" transform="translate(200,613)"/>
</svg>
