<?xml version="1.0" encoding="UTF-8"?>
<svg version="1.1" xmlns="http://www.w3.org/2000/svg" width="288" height="300">
<path d="M0 0 C9.19614168 7.46838173 13.61714128 16.41508765 15.19140625 28.1328125 C15.63157669 37.8733584 12.82340741 48.08225308 6.50390625 55.60546875 C-1.56862667 63.75257472 -11.28522583 68.38161373 -22.75 68.625 C-33.90711821 68.54373067 -42.61038477 64.689439 -50.75 57.125 C-57.98374798 49.60318241 -60.89125135 41.36321781 -61.32421875 31.05859375 C-61.10602522 20.78053023 -57.92609707 11.97140312 -51.296875 4.0546875 C-37.09229873 -9.28375607 -15.93357844 -10.87481874 0 0 Z " fill="#FDC905" transform="translate(180.1875,88.6875)"/>
<path d="M0 0 C1.08081055 2.0378418 1.08081055 2.0378418 1.88671875 4.69921875 C2.18513672 5.66150391 2.48355469 6.62378906 2.79101562 7.61523438 C3.08685547 8.62908203 3.38269531 9.64292969 3.6875 10.6875 C3.99494141 11.68201172 4.30238281 12.67652344 4.61914062 13.70117188 C7.54126491 23.31157188 7.54126491 23.31157188 8 28 C6.21785231 29.78214769 3.71905201 29.55011885 1.32470703 29.89990234 C-25.12316124 33.77863451 -51.94933657 44.26029699 -68.875 65.8125 C-83.03420391 85.94714776 -87.8072145 109.51184402 -84.63525391 133.79199219 C-83.55588816 139.914898 -82.25094898 146.06885483 -79.8046875 151.80078125 C-79 154 -79 154 -80 157 C-84.6969875 148.33236328 -88.36569487 139.50681274 -91 130 C-91.39384888 128.58098389 -91.39384888 128.58098389 -91.7956543 127.13330078 C-93.89132632 118.93122037 -94.5074291 111.19845071 -94.4375 102.75 C-94.43137695 101.48309326 -94.42525391 100.21618652 -94.41894531 98.91088867 C-94.25595344 89.0994047 -93.09126841 80.29534716 -90 71 C-89.72285156 70.10410156 -89.44570312 69.20820312 -89.16015625 68.28515625 C-84.87132328 56.09064039 -77.03294242 45.08607738 -68 36 C-67.13375 35.113125 -66.2675 34.22625 -65.375 33.3125 C-64.59125 32.549375 -63.8075 31.78625 -63 31 C-62.55011719 30.505 -62.10023437 30.01 -61.63671875 29.5 C-50.73395695 17.81267222 -17.14469384 -7.18171217 0 0 Z " fill="#940509" transform="translate(186,1)"/>
<path d="M0 0 C3.67670584 1.51052023 5.71874462 3.6488615 8.3125 6.625 C9.1065625 7.52476562 9.900625 8.42453125 10.71875 9.3515625 C12.06706799 10.91690428 13.40497557 12.49149307 14.71875 14.0859375 C28.47045899 30.60147036 49.65661944 43.63876061 71.109375 46.75390625 C94.26071289 48.72489853 118.33622389 43.05423127 136.87548828 28.53076172 C142.22609848 24.00885587 147.17889066 19.11687473 151.6875 13.75 C152.8321875 12.38875 152.8321875 12.38875 154 11 C154.66 11 155.32 11 156 11 C149.37725121 29.68208239 127.21600577 46.75057224 110 55 C107.27841918 56.20484941 104.53076819 57.31441719 101.75 58.375 C100.81281128 58.73307739 100.81281128 58.73307739 99.85668945 59.09838867 C73.72467782 68.520088 43.62274207 63.4870092 19 52 C9.80746853 47.62360119 1.65579229 42.79101841 -6 36 C-6.89976563 35.20851562 -7.79953125 34.41703125 -8.7265625 33.6015625 C-11.17297167 31.42305981 -13.60158983 29.23118157 -16 27 C-16.59039062 26.46761719 -17.18078125 25.93523437 -17.7890625 25.38671875 C-19 24 -19 24 -18.9375 21.625 C-17.80825638 18.46311786 -16.29585645 16.43499927 -14 14 C-13.34 14 -12.68 14 -12 14 C-11.66355469 13.17242187 -11.66355469 13.17242187 -11.3203125 12.328125 C-9.59614817 9.28788256 -7.37484178 7.18574327 -4.875 4.75 C-3.96492188 3.85796875 -3.05484375 2.9659375 -2.1171875 2.046875 C-1.41851562 1.37140625 -0.71984375 0.6959375 0 0 Z " fill="#940509" transform="translate(56,133)"/>
<path d="M0 0 C5.75818807 -0.26907421 10.64504304 0.66902628 16.1875 2.1875 C17.02756592 2.41526123 17.86763184 2.64302246 18.7331543 2.87768555 C35.21094618 7.47183012 49.80680891 14.90024333 62 27 C62.886875 27.845625 63.77375 28.69125 64.6875 29.5625 C65.450625 30.366875 66.21375 31.17125 67 32 C67.52980469 32.5465625 68.05960937 33.093125 68.60546875 33.65625 C87.06448852 53.54146335 93.6543846 83.78310026 93.18359375 110.23046875 C92.54028889 123.43874942 89.81721117 135.41194485 86 148 C79.49524727 148.42758514 73.91141992 146.84835227 67.6875 145.0625 C66.68654297 144.78470703 65.68558594 144.50691406 64.65429688 144.22070312 C57.34509409 142.17254704 57.34509409 142.17254704 55 141 C56.59524531 136.0370146 58.3146782 131.16173689 60.20581055 126.30273438 C69.0389208 103.47187332 71.87149512 78.052745 62.75 54.8125 C51.76476593 30.57369445 33.29118126 14.15716865 8.57421875 4.6875 C6.70571129 4.0283119 4.82910324 3.39109999 2.94140625 2.7890625 C1 2 1 2 0 0 Z " fill="#940509" transform="translate(159,57)"/>
<path d="M0 0 C9.19614168 7.46838173 13.61714128 16.41508765 15.19140625 28.1328125 C15.63157669 37.8733584 12.82340741 48.08225308 6.50390625 55.60546875 C-1.56862667 63.75257472 -11.28522583 68.38161373 -22.75 68.625 C-33.90711821 68.54373067 -42.61038477 64.689439 -50.75 57.125 C-57.98374798 49.60318241 -60.89125135 41.36321781 -61.32421875 31.05859375 C-61.10602522 20.78053023 -57.92609707 11.97140312 -51.296875 4.0546875 C-37.09229873 -9.28375607 -15.93357844 -10.87481874 0 0 Z M-40.1875 0.3125 C-40.88359375 0.74820313 -41.5796875 1.18390625 -42.296875 1.6328125 C-51.33344995 7.84970429 -55.6510638 15.73685077 -58.1875 26.3125 C-59.61170504 35.30579474 -55.85477374 44.4344681 -51.1171875 51.91796875 C-46.08731434 58.15949151 -38.21308186 63.85459007 -30.1875 65.3125 C-19.69863182 66.39283975 -10.72297366 64.62317511 -1.9375 58.6875 C6.10820597 52.11215919 10.82213656 43.31910019 12.08984375 33.0703125 C12.50825028 23.66453377 9.79745537 15.44078127 3.6875 8.3125 C2.759375 7.3225 2.759375 7.3225 1.8125 6.3125 C1.27625 5.735 0.74 5.1575 0.1875 4.5625 C-6.55302918 -1.91877806 -14.6502395 -3.91208135 -23.8125 -4.1875 C-30.1405459 -3.99515818 -34.84056949 -3.07669611 -40.1875 0.3125 Z " fill="#960A08" transform="translate(180.1875,88.6875)"/>
<path d="M0 0 C0.3125 2.8125 0.3125 2.8125 0 6 C-2.45910293 7.96728234 -4.72518256 8.90413345 -7.6875 9.9375 C-10.15537163 10.81292798 -10.15537163 10.81292798 -11.3125 13.125 C-11.539375 13.74375 -11.76625 14.3625 -12 15 C-10.9790625 15.6496875 -10.9790625 15.6496875 -9.9375 16.3125 C-7.23496047 20.06118387 -7.73234072 22.63740765 -8.32421875 27.109375 C-9.89905595 33.84567287 -13.13716736 39.19708153 -19 43 C-22.4974771 44.74873855 -26.18376722 44.54611607 -30 44 C-33.0625 42.1875 -33.0625 42.1875 -35 39 C-36.94818587 29.42007777 -32.90565384 20.42879122 -28.45703125 12.1171875 C-27.97621094 11.41851562 -27.49539062 10.71984375 -27 10 C-26.34 10 -25.68 10 -25 10 C-25.96913711 14.17474448 -26.98884374 18.10005523 -28.625 22.0625 C-30.12981917 25.88126222 -30.25491822 28.92130843 -30 33 C-26.53984865 34.73007568 -22.78327445 34.4835273 -19 34 C-15.50109996 31.88608123 -14.29421314 30.88263941 -13 27 C-13.66 26.67 -14.32 26.34 -15 26 C-17 24 -17 24 -17.625 20.375 C-17.22103618 13.03632393 -11.9835623 7.67843697 -6.8125 2.9375 C-3.43537415 0 -3.43537415 0 0 0 Z " fill="#940509" transform="translate(80,255)"/>
<path d="M0 0 C0.33 0 0.66 0 1 0 C1.05407567 2.58361518 1.093707 5.16609255 1.125 7.75 C1.14175781 8.47960937 1.15851563 9.20921875 1.17578125 9.9609375 C1.21153548 13.89390239 0.98628258 16.60178161 -1 20 C-0.67127077 23.02430888 -0.06745506 25.77687941 0.8125 28.6875 C1.17366525 35.06808601 -1.55051525 41.57044941 -5.5 46.5625 C-8.91846208 49.89550053 -11.65353846 51.30101373 -16.4375 51.5 C-20.15451916 51.3834598 -20.92866064 51.0538685 -24.0625 48.6875 C-27.11548457 44.13461709 -26.84759437 39.23786832 -26 34 C-24.27691059 28.33027565 -22.29545943 22.94318914 -19 18 C-18.34 18 -17.68 18 -17 18 C-17.4268256 21.49996994 -18.07125886 24.15391914 -19.5625 27.375 C-21.28986697 31.73096887 -21.39308462 34.36160148 -21 39 C-19.02630257 41.40432559 -19.02630257 41.40432559 -15.25 41.3125 C-11.21710951 41.20231174 -8.38019423 40.30842533 -5 38 C-3.67948503 36.13740463 -3.67948503 36.13740463 -4 34 C-4.66 33.401875 -5.32 32.80375 -6 32.1875 C-8 30 -8 30 -7.9375 26.625 C-7 23 -7 23 -5.5 20.25 C-3.67526819 16.29641441 -3.59220463 12.93799992 -3.31640625 8.63671875 C-2.89931401 5.16095007 -1.83279565 2.9484104 0 0 Z " fill="#940509" transform="translate(195,248)"/>
<path d="M0 0 C0.66 0 1.32 0 2 0 C0.91999105 9.18007611 -6.78280574 15.05468194 -13 21.1875 C-13.90234375 22.08919922 -14.8046875 22.99089844 -15.734375 23.91992188 C-23.02585614 31.16286505 -23.02585614 31.16286505 -27 34 C-26.649375 34.639375 -26.29875 35.27875 -25.9375 35.9375 C-24.16037113 41.74278763 -24.96159528 45.96103675 -27.71484375 51.3671875 C-33.63543934 61.51194911 -33.63543934 61.51194911 -38 64 C-40.359375 64.51171875 -40.359375 64.51171875 -42.75 64.6875 C-43.54921875 64.75324219 -44.3484375 64.81898438 -45.171875 64.88671875 C-46.07679687 64.94279297 -46.07679687 64.94279297 -47 65 C-44.17493137 62.0702992 -41.21203935 59.49825283 -38 57 C-38.66 56.01 -39.32 55.02 -40 54 C-39.81557057 50.55731738 -39.59524457 47.95239131 -37.75 45 C-36 44 -36 44 -33.4375 44.25 C-31 45 -31 45 -29 46 C-29.515625 45.319375 -30.03125 44.63875 -30.5625 43.9375 C-32.50305939 39.97200907 -32.20281985 38.24524654 -31 34 C-27.68181337 26.67660132 -21.60442199 21.61485929 -15.76245117 16.32543945 C-10.7654534 11.79118379 -6.25310646 7.02622426 -1.85546875 1.9140625 C-1.24316406 1.28242188 -0.63085938 0.65078125 0 0 Z " fill="#960A08" transform="translate(69,217)"/>
<path d="M0 0 C0.33 0 0.66 0 1 0 C0.9592334 0.59014893 0.9184668 1.18029785 0.87646484 1.78833008 C0.69806797 4.4624414 0.53635493 7.13730859 0.375 9.8125 C0.31054688 10.74126953 0.24609375 11.67003906 0.1796875 12.62695312 C0.10234375 13.9659668 0.10234375 13.9659668 0.0234375 15.33203125 C-0.05511475 16.56530151 -0.05511475 16.56530151 -0.13525391 17.82348633 C-0.16433583 20.29735791 -0.16433583 20.29735791 2 23 C4.60559028 22.51748328 6.26952729 21.83565409 8.5625 20.4375 C11 19 11 19 14 19 C13.979375 17.88625 13.95875 16.7725 13.9375 15.625 C14 12 14 12 15 10 C15.99 10.33 16.98 10.66 18 11 C18 11.66 18 12.32 18 13 C20.00803829 11.18320345 21.12335991 9.75888745 22.375 7.3125 C22.91125 6.549375 23.4475 5.78625 24 5 C26.6875 4.6875 26.6875 4.6875 29 5 C30.3125 7 30.3125 7 31 10 C28.98157222 15.03627126 26.01876327 18.79664052 21 21 C19.576875 21.4640625 19.576875 21.4640625 18.125 21.9375 C13.13118388 23.63539748 9.14202434 25.47730088 5.9375 29.75 C4 32 4 32 0.875 32.5 C-0.07375 32.335 -1.0225 32.17 -2 32 C-4.51015234 28.23477148 -4.30339547 25.23375664 -4.25 20.875 C-4.24468262 20.11106934 -4.23936523 19.34713867 -4.23388672 18.56005859 C-4.12163162 11.88301168 -3.80759802 5.71139703 0 0 Z M24 9 C24 9.99 24 10.98 24 12 C25.65 11.34 27.3 10.68 29 10 C29 9.67 29 9.34 29 9 C27.35 9 25.7 9 24 9 Z " fill="#940509" transform="translate(103,250)"/>
<path d="M0 0 C0.556875 0.226875 1.11375 0.45375 1.6875 0.6875 C-3.19168668 5.70609202 -7.79905288 9.63645342 -14.125 12.6875 C-15.17300781 13.19925781 -16.22101563 13.71101563 -17.30078125 14.23828125 C-18.29464844 14.71652344 -19.28851563 15.19476563 -20.3125 15.6875 C-25.57839764 18.09498662 -25.57839764 18.09498662 -30.25 21.4375 C-33.17733053 23.21163971 -35.69062005 22.84875018 -39.05078125 22.7265625 C-41.88809553 22.6775588 -44.53878271 23.11853235 -47.3125 23.6875 C-46.2018359 19.80017564 -44.47022292 17.18812379 -41.265625 14.67578125 C-38.06098343 13.05423262 -34.81359807 13.15518512 -31.2734375 13 C-27.06003893 12.55531414 -23.43584057 11.1030792 -19.52734375 9.52734375 C-17.3125 8.6875 -17.3125 8.6875 -15.3125 8.6875 C-15.168125 7.90375 -15.02375 7.12 -14.875 6.3125 C-14.3125 3.6875 -14.3125 3.6875 -13.3125 1.6875 C-12.425625 1.914375 -11.53875 2.14125 -10.625 2.375 C-6.08679753 2.80313231 -4.1996168 -0.56751578 0 0 Z " fill="#940509" transform="translate(259.3125,259.3125)"/>
<path d="M0 0 C1.5 1.0625 1.5 1.0625 3 3 C3.1875 6.6875 3.1875 6.6875 3 10 C2.37351562 10.15855469 1.74703125 10.31710937 1.1015625 10.48046875 C-3.87607248 11.67409112 -3.87607248 11.67409112 -7.25 15.125 C-7.4975 16.07375 -7.745 17.0225 -8 18 C-11.89781578 26.96339822 -11.89781578 26.96339822 -16.4375 29.0625 C-19.81983118 29.95258715 -22.52492578 30.25427372 -26 30 C-25.29875 29.443125 -24.5975 28.88625 -23.875 28.3125 C-20.88655739 25.90875268 -17.94059762 23.46189568 -15 21 C-15.99 20.67 -16.98 20.34 -18 20 C-18.32613618 15.32538149 -17.70582788 12.83325617 -15 9 C-12.69 9.33 -10.38 9.66 -8 10 C-7.59007812 9.44570313 -7.18015625 8.89140625 -6.7578125 8.3203125 C-6.21898437 7.59585937 -5.68015625 6.87140625 -5.125 6.125 C-4.59132813 5.40570313 -4.05765625 4.68640625 -3.5078125 3.9453125 C-2 2 -2 2 0 0 Z " fill="#940509" transform="translate(285,252)"/>
<path d="M0 0 C1.65 0.33 3.3 0.66 5 1 C5.103125 2.11375 5.20625 3.2275 5.3125 4.375 C5.6528125 6.169375 5.6528125 6.169375 6 8 C6.99 8.66 7.98 9.32 9 10 C9.43132515 14.05445642 9.30019361 15.54970958 7 19 C4.83125748 18.49396008 3.00032373 18.00016187 1 17 C0.01 17.99 -0.98 18.98 -2 20 C-3.32 19.01 -4.64 18.02 -6 17 C-5.48617216 13.23192916 -4.81482662 10.32718213 -3 7 C-1.97244219 4.67792082 -0.98945418 2.33870987 0 0 Z M1 10 C1.66 10.66 2.32 11.32 3 12 C3 11.34 3 10.68 3 10 C2.34 10 1.68 10 1 10 Z " fill="#940509" transform="translate(19,233)"/>
<path d="M0 0 C0.33 0 0.66 0 1 0 C1.10395113 6.23706806 0.76306905 12.2903325 0.12109375 18.49609375 C-0.20485067 20.99854638 -0.20485067 20.99854638 1 23 C2.32 22.34 3.64 21.68 5 21 C6 22 6 22 6.3125 25.3125 C6 29 6 29 4.3125 31.5 C2 33 2 33 -0.625 32.9375 C-3 32 -3 32 -5 29 C-5.63423958 19.16928648 -4.52212234 8.83869366 0 0 Z " fill="#940509" transform="translate(204,249)"/>
<path d="M0 0 C2.5625 -0.25 2.5625 -0.25 5 0 C6.53123685 1.53123685 6.24307107 2.93212824 6.3125 5.0625 C6.26481101 10.03805151 4.90142386 13.95353261 2 18 C-1.4352048 20.29013653 -2.985331 20.17842973 -7 20 C-6.57847656 19.51789063 -6.15695313 19.03578125 -5.72265625 18.5390625 C-4.90087891 17.59160156 -4.90087891 17.59160156 -4.0625 16.625 C-3.51722656 15.99851562 -2.97195312 15.37203125 -2.41015625 14.7265625 C-0.93041376 13.04367666 -0.93041376 13.04367666 0 11 C-0.99 10.67 -1.98 10.34 -3 10 C-2.25 3.375 -2.25 3.375 0 0 Z " fill="#940509" transform="translate(157,261)"/>
<path d="M0 0 C0.66 0.33 1.32 0.66 2 1 C0.49871388 5.41554742 -0.73086778 8.05014486 -4.4375 10.9375 C-7.87870186 13.62525977 -9.43112062 16.2568785 -11.078125 20.265625 C-12 22 -12 22 -15 24 C-17.33199388 24.07905064 -19.66832622 24.08798769 -22 24 C-22 23.01 -22 22.02 -22 21 C-20.20703125 19.7109375 -20.20703125 19.7109375 -17.8125 18.375 C-13.29193578 15.54436633 -11.59673763 12.91235718 -9.328125 8.19140625 C-7.06782721 4.46191489 -3.63201872 2.29817562 0 0 Z " fill="#940509" transform="translate(22,258)"/>
<path d="M0 0 C0.61875 0.33 1.2375 0.66 1.875 1 C3.91018344 2.14193235 3.91018344 2.14193235 6 2 C6.66 1.34 7.32 0.68 8 0 C9.32 0.33 10.64 0.66 12 1 C12 3.97 12 6.94 12 10 C10.14375 9.9690625 10.14375 9.9690625 8.25 9.9375 C5.81051553 9.92029023 4.03926876 9.9883255 1.6875 10.6875 C0 11 0 11 -1.8125 9.875 C-3 8 -3 8 -2.8125 5.5 C-2 3 -2 3 0 0 Z " fill="#940509" transform="translate(113,237)"/>
<path d="M0 0 C0.66 0 1.32 0 2 0 C0.24046089 21.46174681 0.24046089 21.46174681 -4 27 C-4.99 27.33 -5.98 27.66 -7 28 C-6.35338218 23.99647263 -5.6835162 19.99739131 -5 16 C-4.84402344 15.071875 -4.68804687 14.14375 -4.52734375 13.1875 C-3.6453705 8.32552981 -2.50896785 4.33367173 0 0 Z " fill="#940509" transform="translate(142,252)"/>
<path d="M0 0 C0.99 0 1.98 0 3 0 C1.94064132 7.00423033 0.83978305 12.88231458 -3.25 18.8125 C-5.96729978 20.65638199 -8.7887783 20.69705456 -12 21 C-11.61667506 18.59271938 -11.36899127 17.32637811 -9.51171875 15.68359375 C-8.90972656 15.27238281 -8.30773437 14.86117188 -7.6875 14.4375 C-2.9326445 10.65122618 -1.62757319 5.68134242 0 0 Z " fill="#940509" transform="translate(90,261)"/>
<path d="M0 0 C0.66 0 1.32 0 2 0 C4.40240978 3.02525676 5.05541631 4.4125871 4.6875 8.3125 C4.460625 9.199375 4.23375 10.08625 4 11 C1.625 11.625 1.625 11.625 -1 12 C-1.66 11.34 -2.32 10.68 -3 10 C-2.67342446 6.24438133 -1.8830622 3.26397448 0 0 Z " fill="#940509" transform="translate(105,288)"/>
</svg>
