<?xml version="1.0" encoding="UTF-8"?>
<svg version="1.1" xmlns="http://www.w3.org/2000/svg" width="1208" height="1052">
<path d="M0 0 C3.42408452 2.91072852 6.73430571 5.91310379 10 9 C10.81082031 9.74636719 11.62164063 10.49273437 12.45703125 11.26171875 C36.95553582 34.60281366 50.90425812 68.68203352 51.99609375 102.32421875 C52.44377487 139.98641028 38.74779889 173.71636749 13 201 C12.32710937 201.73734375 11.65421875 202.4746875 10.9609375 203.234375 C-13.72164887 229.30362352 -49.75222977 242.41197583 -85 244 C-124.7624441 245.03243658 -161.13758946 231.27656381 -190 204 C-190.87269531 203.20335937 -191.74539063 202.40671875 -192.64453125 201.5859375 C-205.05238048 189.83486999 -214.18677634 175.60685533 -221 160 C-221.28069336 159.36271973 -221.56138672 158.72543945 -221.85058594 158.06884766 C-235.70587705 125.91119024 -235.05403703 88.77056288 -222.55615234 56.33764648 C-208.9633804 22.6919066 -182.40677927 -4.30921099 -149.25732422 -19.05761719 C-100.48676624 -39.41824382 -41.39735728 -34.44787328 0 0 Z " fill="#2F3394" transform="translate(710,290)"/>
<path d="M0 0 C4.72434942 0.16889187 9.44946012 0.17830251 14.17636418 0.20727444 C23.1453562 0.2855027 32.10530503 0.50139028 41.07041246 0.76951194 C51.07982399 1.06232377 61.08935047 1.20159455 71.10204315 1.32672882 C89.11585411 1.55537898 107.12317872 1.9308291 125.13233304 2.39435482 C135.89352656 2.67054981 146.65414407 2.90475924 157.41743779 3.08111477 C158.68372423 3.10232262 159.95001067 3.12353046 161.25466943 3.14538097 C165.86837043 3.2219623 170.482074 3.29759049 175.09588742 3.36710262 C178.03967135 3.41228212 180.98329727 3.46324623 183.92695928 3.51568508 C184.77289962 3.52685108 185.61883996 3.53801708 186.49041486 3.54952145 C192.11944946 3.65666159 192.11944946 3.65666159 193.23335576 4.77056789 C193.32862613 6.11129606 193.35524346 7.45699293 193.35361028 8.80110073 C193.35567227 10.10314953 193.35567227 10.10314953 193.35777593 11.43150234 C193.35418065 12.39103313 193.35058537 13.35056393 193.34688115 14.33917141 C193.34702718 15.3439352 193.3471732 16.348699 193.34732366 17.38391018 C193.34662406 20.72245307 193.3388295 24.06094094 193.33101201 27.39947414 C193.329148 29.70733008 193.32772402 32.0151864 193.32672429 34.32304287 C193.3228978 40.41074616 193.31306641 46.49842575 193.30202031 52.58611965 C193.29180899 58.79278143 193.28722727 64.99944702 193.28218389 71.20611477 C193.27144426 83.39427624 193.25436628 95.5824201 193.23335576 107.77056789 C190.45687718 106.43064646 188.41205031 105.19397449 186.24409795 102.99249172 C185.6896198 102.43463482 185.13514165 101.87677792 184.56386113 101.30201626 C183.6809641 100.39892979 183.6809641 100.39892979 182.78023076 99.47759914 C181.85165257 98.54121861 181.85165257 98.54121861 180.90431523 97.58592129 C178.92584429 95.58966819 176.95416833 93.58687989 174.98335576 91.58306789 C172.39821477 88.96119707 169.80990422 86.34251754 167.21773076 83.72759914 C166.59281743 83.09709652 165.9679041 82.46659389 165.324054 81.81698513 C161.79417502 78.27546594 158.24461889 74.83691157 154.33153462 71.71430492 C152.23335576 69.77056789 152.23335576 69.77056789 150.02467275 66.87205791 C145.98665453 61.73230577 142.11757608 57.76820549 135.46694493 56.66068172 C129.56883665 56.10005588 123.67453681 56.21859426 117.75776982 56.31646633 C115.48999826 56.30998084 113.22223661 56.29821682 110.95451665 56.2816 C104.82639916 56.2515406 98.70078051 56.29493565 92.57293725 56.35191154 C86.1587394 56.39893055 79.74476635 56.37786179 73.33046269 56.36413479 C62.57371572 56.35023207 51.81801411 56.37799225 41.06148076 56.43804836 C29.98784239 56.49975983 18.91459448 56.53609329 7.84077764 56.5386343 C7.15692133 56.53879999 6.47306503 56.53896567 5.76848581 56.53913638 C2.337397 56.53981223 -1.09369164 56.53999271 -4.52478051 56.53992701 C-32.93910834 56.54002249 -61.35270061 56.62761987 -89.76664424 56.77056789 C-87.88748255 53.57008257 -86.11079381 50.86496103 -83.47367549 48.24713039 C-82.8426794 47.61806789 -82.2116833 46.98900539 -81.56156611 46.34088039 C-80.9073669 45.69892727 -80.25316768 45.05697414 -79.57914424 44.39556789 C-78.94428096 43.76134914 -78.30941768 43.12713039 -77.65531611 42.47369289 C-72.46001965 37.32567415 -72.46001965 37.32567415 -70.20346904 35.51911259 C-66.30768001 32.33154656 -63.02045078 28.96323306 -59.87264383 25.02693546 C-42.12443716 2.87397591 -27.75329074 -1.1697139 0 0 Z " fill="#2F3394" transform="translate(669.7666442394257,157.22943210601807)"/>
<path d="M0 0 C1.12258368 0.9555724 2.24422945 1.91224671 3.36547852 2.86938477 C3.99019547 3.40201431 4.61491241 3.93464386 5.25856018 4.4834137 C7.891707 6.77657041 10.2908732 9.26813467 12.71484375 11.77734375 C14.61692226 13.6273996 16.55198852 15.34335325 18.56640625 17.06640625 C24.49429435 22.21425486 29.92829921 27.87017159 35.43652344 33.45703125 C40.60704051 38.69460623 45.77695209 43.85193521 51.44140625 48.5625 C53.6230539 50.5746462 54.90927878 52.25993759 55.27453709 55.23954868 C55.28614337 56.12145846 55.29774965 57.00336824 55.30970764 57.91200256 C55.33690352 59.43617436 55.33690352 59.43617436 55.36464882 60.9911375 C55.37459059 62.10789269 55.38453236 63.22464788 55.39477539 64.37524414 C55.41298529 65.5553925 55.43119518 66.73554087 55.44995689 67.9514513 C55.49830931 71.21087264 55.53791409 74.47026441 55.57379031 77.72984266 C55.61401015 81.19353973 55.66543307 84.65707115 55.71559143 88.12063599 C55.81054867 94.79645029 55.89537835 101.47235528 55.9767583 108.14834738 C56.07056172 115.80615619 56.17508313 123.46380654 56.28049803 131.12146294 C56.45671917 143.9373352 56.62549359 156.75329018 56.78857422 169.56933594 C56.95141461 182.36135837 57.1242996 195.15320619 57.30850792 207.94494057 C57.41525279 215.35910911 57.52027112 222.77330273 57.625 230.1875 C57.63537922 230.92211079 57.64575844 231.65672157 57.65645218 232.41359329 C57.87031083 247.60935736 58.0693426 262.80241336 58 278 C31.87632937 278.60355557 5.75197645 279.12712084 -20.375 279.5625 C-21.04113438 279.5736018 -21.70726875 279.5847036 -22.39358902 279.59614182 C-30.59569508 279.73266436 -38.79783155 279.8672803 -47 280 C-46.54492144 275.34108731 -44.9885173 273.62801231 -41.48022461 270.62915039 C-40.51955078 269.78954269 -39.55887695 268.949935 -38.5690918 268.08488464 C-37.79521622 267.4180922 -37.79521622 267.4180922 -37.00570679 266.73782921 C-9.58362268 245.08728635 -9.58362268 245.08728635 5.40222168 215.7164917 C5.46469078 209.62857784 4.38082083 203.53374631 3.2869873 197.56207275 C1.90325647 189.72828974 1.66578252 182.00829476 1.625 174.06640625 C1.62110638 173.39096016 1.61721275 172.71551407 1.61320114 172.01959991 C1.59881476 169.193607 1.58844836 166.36764498 1.5839901 163.54161835 C1.57122907 156.06241508 1.45119672 148.58590928 1.32731247 141.10785675 C1.26224363 137.11672982 1.20378669 133.12550835 1.14550781 129.13427734 C1.13355314 128.31755051 1.12159847 127.50082367 1.10928154 126.65934753 C0.88267347 111.03577361 0.69187503 95.41171237 0.50436401 79.78762817 C0.46074982 76.15665334 0.4160963 72.52569399 0.37039185 68.89474487 C0.08198463 45.92861808 -0.06423758 22.96797139 0 0 Z " fill="#2F3394" transform="translate(804,352)"/>
<path d="M0 0 C7.81410967 6.69780829 7.81410967 6.69780829 10.20770264 10.76043701 C21.11512196 28.22827085 36.28325669 47.39511528 57.30758667 52.42861938 C87.07297235 58.31193205 119.02599974 55.75113412 149.14638472 54.63004351 C161.53369704 54.17746364 173.92122452 53.98108635 186.31509066 53.80609369 C201.46359906 53.59086884 216.60956941 53.34301439 231.75299072 52.88848877 C233.35226182 52.8410848 233.35226182 52.8410848 234.98384142 52.79272318 C239.94551424 52.64389819 244.90661904 52.48583802 249.86747742 52.31199646 C260.64800513 51.95879348 271.24588296 52.14849142 282 53 C276.94044604 59.16250171 271.37581637 64.77695405 265.73291016 70.39746094 C264.13198611 71.99303722 262.53646316 73.5938734 260.94140625 75.1953125 C256.61023549 79.52804062 252.2934663 83.82766582 247.61328125 87.7890625 C245.09411301 89.92925231 243.04442065 92.0867865 241.03515625 94.7109375 C237.37328934 99.38613621 233.44454694 104.14898033 227.47386169 105.62411499 C224.57303898 105.87881658 221.73614186 105.93036117 218.82421875 105.90625 C217.73075134 105.92291718 216.63728394 105.93958435 215.51068115 105.95675659 C212.00662745 106.00213465 208.50431302 106.00212598 205 106 C202.78716343 106.02161437 200.57435082 106.04584772 198.36157227 106.07275391 C191.52753221 106.14187648 184.69413896 106.14176453 177.85986328 106.12857056 C175.7141913 106.1249394 173.56852627 106.12336285 171.42285156 106.12231445 C128.83058682 106.09699499 86.23816085 105.69361337 43.64746094 105.35595703 C42.97523011 105.35062824 42.30299928 105.34529945 41.61039782 105.33980918 C27.74023972 105.229617 13.87012589 105.11422457 0 105 C0 70.35 0 35.7 0 0 Z " fill="#2F3394" transform="translate(376,523)"/>
<path d="M0 0 C10.29424076 -0.02341615 20.58847495 -0.04106144 30.88273716 -0.05181217 C35.66540547 -0.05697814 40.44805524 -0.06395785 45.23071289 -0.07543945 C85.86896017 -0.17053406 85.86896017 -0.17053406 105 1 C103.7082122 3.84015307 102.35216917 5.89698388 100.14599609 8.09692383 C99.57134613 8.67465042 98.99669617 9.25237701 98.40463257 9.84761047 C97.7838382 10.46121933 97.16304382 11.07482819 96.5234375 11.70703125 C95.87935944 12.35065109 95.23528137 12.99427094 94.57168579 13.65739441 C93.20721862 15.01884298 91.84032432 16.37786275 90.47119141 17.73461914 C88.39826306 19.78944015 86.33330021 21.85199987 84.26953125 23.91601562 C82.93796785 25.24265725 81.60595051 26.56884344 80.2734375 27.89453125 C79.66478851 28.50206741 79.05613953 29.10960358 78.42904663 29.73554993 C73.2600496 34.8489885 67.98383534 39.85650302 62.07080078 44.10424805 C57.71656486 47.53466492 54.93932224 50.7450308 54.11230469 56.29150391 C53.62042392 62.12672802 53.77643434 67.96366884 53.875 73.8125 C53.87700205 76.1853847 53.87417811 78.5582771 53.8671875 80.93115234 C53.86054087 86.54622555 53.88685174 92.16003625 53.93261719 97.77490234 C54.02698735 109.77305444 54.01437373 121.7710855 54.0078125 133.76953125 C54.00581021 138.43945306 54.00409327 143.10937493 54.00244141 147.77929688 C54.00170781 149.54517497 54.00170781 149.54517497 54.0009594 151.34672737 C53.99828945 159.72270589 54.00576741 168.09863933 54.01708984 176.47460938 C54.05839269 210.66081125 53.7919389 244.82236015 53 279 C52.06897461 278.17984406 51.13794922 277.35968811 50.17871094 276.51467896 C47.18606953 273.94365371 44.10210311 271.54942833 40.93847656 269.19259644 C22.22051795 255.07272545 -0.2766255 237.84443594 -4.32073975 213.39361954 C-6.76871845 195.29544022 -5.59655784 176.75704878 -4.44179916 158.59883094 C-3.92771635 150.38811341 -3.67525444 142.17665418 -3.45034981 133.9537015 C-3.09186022 120.97086622 -2.58693578 108.00092448 -1.95684624 95.02862501 C-0.93437447 73.89560144 -0.54375012 52.77212111 -0.3125 31.6171875 C-0.29402374 29.98654259 -0.2755101 28.35589811 -0.25695801 26.72525406 C-0.1569389 17.81694536 -0.07052016 8.90859488 0 0 Z " fill="#2F3394" transform="translate(379,159)"/>
<path d="M0 0 C5.4565387 23.76904529 11.13982297 55.51798568 -1.597435 77.79369354 C-11.77252622 93.26180707 -25.52982765 106.19235665 -39 118.75 C-39.92839314 119.61622608 -40.85678627 120.48245216 -41.81331253 121.37492752 C-52.6425624 131.42733488 -63.71025547 141.17847787 -75.03881836 150.66375732 C-81.14591831 155.7894265 -87.11090893 160.97315104 -92.70654297 166.65649414 C-93.21834106 167.17457138 -93.73013916 167.69264862 -94.25744629 168.22642517 C-95.35297062 169.3356469 -96.44738898 170.44596189 -97.54076767 171.55729866 C-99.27961241 173.32316269 -101.02311877 175.08429854 -102.76809692 176.84410095 C-107.72399672 181.84237635 -112.67707346 186.84334334 -117.61376953 191.8605957 C-120.64868781 194.94435277 -123.69355547 198.01798453 -126.74490738 201.08547783 C-127.89589771 202.24628216 -129.04324611 203.41071074 -130.18664169 204.57899666 C-138.59845186 213.1698974 -147.37615787 222.01441764 -160 223 C-171.52081439 223.11553825 -178.55602916 219.01556144 -186.625 211.125 C-187.31013672 210.46951172 -187.99527344 209.81402344 -188.70117188 209.13867188 C-193.92381833 204.11819238 -199.06517736 199.01090072 -204.13134766 193.83251953 C-206.93029893 190.98707691 -209.78766895 188.28112391 -212.8125 185.67578125 C-217.58182392 181.55235091 -222.04164339 177.14222602 -226.5 172.6875 C-227.32242188 171.87732422 -228.14484375 171.06714844 -228.9921875 170.23242188 C-230.15621094 169.07129883 -230.15621094 169.07129883 -231.34375 167.88671875 C-232.04693359 167.18764404 -232.75011719 166.48856934 -233.47460938 165.76831055 C-235 164 -235 164 -235 162 C-233.90942999 162.22930552 -233.90942999 162.22930552 -232.79682827 162.46324348 C-207.3410978 167.49851151 -176.66235521 170.31214199 -154.08987701 155.21250176 C-141.67647265 146.2756507 -130.69698021 135.63465883 -119.94140625 124.8046875 C-119.0710321 123.92845513 -118.20065795 123.05222277 -117.30390882 122.1494379 C-106.48268215 111.19573296 -95.98841671 99.95251872 -85.59400213 88.59480786 C-79.30755084 81.73592884 -72.9385126 74.96535129 -66.50024414 68.24951172 C-66.04263447 67.77211787 -65.5850248 67.29472403 -65.11354817 66.8028637 C-62.81563202 64.40661003 -60.51596098 62.01204926 -58.21560967 59.61813331 C-46.98555345 47.92925992 -35.78435706 36.21611578 -24.74867249 24.3432312 C-23.97662912 23.51300642 -23.20458576 22.68278164 -22.40914714 21.82739854 C-18.79447909 17.93687833 -15.18771377 14.0393923 -11.59173584 10.1315918 C-10.33573767 8.77457406 -9.07966441 7.41762582 -7.82350159 6.0607605 C-7.25657028 5.43957301 -6.68963898 4.81838552 -6.10552794 4.17837417 C-2.22622057 0 -2.22622057 0 0 0 Z " fill="#2F3394" transform="translate(784,493)"/>
<path d="M0 0 C0.01030746 0.79656006 0.02061493 1.59312012 0.03123474 2.41381836 C0.12949392 9.94606067 0.23204682 17.47822684 0.33933926 25.01034546 C0.39434089 28.88203268 0.44772247 32.75372769 0.49731445 36.62548828 C0.54529626 40.36677099 0.59764755 44.10797007 0.65294075 47.84915161 C0.67321225 49.27155455 0.69194879 50.69398027 0.70907402 52.11642456 C0.76138238 56.41299715 0.85521681 60.7055532 1 65 C1.02131485 65.82620346 1.0426297 66.65240692 1.06459045 67.50364685 C1.40701007 72.62576008 3.44336096 75.40372844 7.06640625 78.78515625 C7.57872299 79.28994003 8.09103973 79.79472382 8.61888123 80.31480408 C10.25096809 81.91458618 11.9059225 83.48813478 13.5625 85.0625 C14.64803893 86.12145563 15.73203851 87.18199167 16.81445312 88.24414062 C21.10638992 92.43398 25.43345425 96.56810942 29.99609375 100.46484375 C36.40619948 105.97528551 42.21817223 112.16510738 48.15478516 118.17529297 C53.60380578 123.68573833 59.03680032 129.13164877 64.93945312 134.16210938 C70.20111542 138.8552129 75.05890384 144.01214679 80.00927734 149.02978516 C86.79964782 155.94906564 86.79964782 155.94906564 93.96875 162.46875 C100.19760209 167.79042569 105.83040446 173.77635414 111.58203125 179.60253906 C118.57954703 186.74256639 118.57954703 186.74256639 125.96875 193.46875 C132.40376031 198.95978152 138.2140623 205.16094652 144.15478516 211.17529297 C145.7781223 212.81692938 147.40395308 214.45603917 149.03125 216.09375 C149.80795044 216.87745972 149.80795044 216.87745972 150.6003418 217.67700195 C154.12757601 221.20762502 157.78405349 224.50130775 161.68945312 227.61523438 C163 229 163 229 163 232 C90.47416574 237.26113531 90.47416574 237.26113531 75.77734375 225.7890625 C69.51302693 220.31022067 64.53796625 213.62617576 60.36425781 206.45678711 C58.6576026 203.70971607 56.77652884 201.80404134 54.30267334 199.72828674 C50.28358162 196.27998155 46.52039776 192.64945719 42.79296875 188.890625 C42.12190094 188.21809692 41.45083313 187.54556885 40.75942993 186.85266113 C39.3168177 185.40627216 37.87536071 183.95873019 36.43496704 182.51013184 C34.14940713 180.21169248 31.86063672 177.91649291 29.57104492 175.62207031 C23.88788781 169.925614 18.21020913 164.22370741 12.53234863 158.52197266 C7.7239539 153.69378244 2.91347257 148.86768926 -1.89974976 144.04431152 C-4.1439828 141.79364201 -6.38515923 139.53995969 -8.6262207 137.28613281 C-10.01498694 135.8937308 -11.4038956 134.50147082 -12.79296875 133.109375 C-13.40618988 132.49098755 -14.01941101 131.8726001 -14.6512146 131.23547363 C-18.36412018 127.52212323 -22.19981124 124.00732893 -26.18193626 120.5839119 C-30.9230182 116.4534428 -35.34276248 111.96254604 -39.80957031 107.54052734 C-41.01810363 106.34857154 -42.23197995 105.16200846 -43.45117188 103.98095703 C-52.58129764 95.1333836 -61.97782556 85.9477788 -62.3125 72.4375 C-62.34988281 71.46683594 -62.38726562 70.49617188 -62.42578125 69.49609375 C-60.9791041 57.61741441 -53.58407211 50.75359665 -45.4296875 42.7734375 C-44.18349394 41.53336864 -42.93848678 40.29210648 -41.6946106 39.04971313 C-39.09953354 36.46379321 -36.49501121 33.88794882 -33.88232422 31.31982422 C-30.52810458 28.02252169 -27.19181565 24.70777933 -23.86149406 21.38635826 C-21.29751473 18.83067003 -18.72792347 16.28069336 -16.15619278 13.73280716 C-14.92323967 12.51126499 -13.69122946 11.28877036 -12.46017075 10.06531906 C-10.74668286 8.3655141 -9.02661728 6.67268283 -7.30419922 4.98193359 C-6.79403259 4.47400269 -6.28386597 3.96607178 -5.75823975 3.44274902 C-2.22940871 0 -2.22940871 0 0 0 Z " fill="#2F3394" transform="translate(354,325)"/>
<path d="M0 0 C1.01320313 -0.0515625 2.02640625 -0.103125 3.0703125 -0.15625 C16.91772916 2.23221612 25.34544491 12.27027855 34.625 21.9375 C36.66961311 24.0399978 38.71860944 26.1381015 40.76983643 28.23414612 C42.03470465 29.52953866 43.29512836 30.82929364 44.54998779 32.13438416 C48.23782951 35.94556495 52.07294881 39.49143518 56.09039307 42.95310974 C59.50683284 45.91446628 62.67802885 49.11870675 65.875 52.3125 C66.55433594 52.97958984 67.23367188 53.64667969 67.93359375 54.33398438 C68.57425781 54.97271484 69.21492187 55.61144531 69.875 56.26953125 C70.4525 56.84292236 71.03 57.41631348 71.625 58.00708008 C72.875 59.5 72.875 59.5 72.875 61.5 C72.13556404 61.33474036 71.39612808 61.16948072 70.63428497 60.99921322 C46.34760243 55.87205561 15.80092652 52.08718372 -6.44329834 65.50058746 C-20.07447 74.51298408 -31.80965575 86.04500904 -43.28125 97.59765625 C-44.15155979 98.47395298 -45.02186958 99.3502497 -45.9185524 100.25310087 C-56.7386888 111.20903563 -67.22207107 122.46214345 -77.60302448 133.83316553 C-83.88150465 140.69996323 -90.24488619 147.47580328 -96.6796875 154.19555664 C-97.13703445 154.67321321 -97.5943814 155.15086978 -98.06558734 155.64300079 C-100.36219635 158.04055878 -102.66060639 160.43638105 -104.95971394 162.83154309 C-116.18374766 174.52670625 -127.37780306 186.24703059 -138.40197754 198.13111877 C-139.17320922 198.96215524 -139.9444409 199.7931917 -140.73904324 200.64941108 C-144.34983366 204.54384005 -147.95254091 208.44537977 -151.54437256 212.3572998 C-152.79891938 213.71576936 -154.0535334 215.07417688 -155.30822754 216.43251038 C-155.87447672 217.05437998 -156.44072591 217.67624959 -157.02413416 218.31696373 C-158.35104695 219.74946796 -159.73276083 221.13089957 -161.125 222.5 C-161.785 222.5 -162.445 222.5 -163.125 222.5 C-172.70634444 159.68586042 -172.70634444 159.68586042 -157.7578125 138.56445312 C-151.26180523 129.96236476 -143.60345122 122.46219261 -135.625 115.25 C-134.97163666 114.65880371 -134.31827332 114.06760742 -133.64511108 113.45849609 C-126.48725806 107.03079251 -119.12852343 100.89298134 -111.54577637 94.97436142 C-104.44795945 89.43276472 -97.94611798 83.46640983 -91.625 77.0625 C-90.94501953 76.37873291 -90.26503906 75.69496582 -89.56445312 74.99047852 C-87.41549074 72.82942945 -85.26982721 70.66515274 -83.125 68.5 C-80.29466163 65.64283983 -77.46087327 62.78916546 -74.625 59.9375 C-73.99142578 59.29562744 -73.35785156 58.65375488 -72.70507812 57.99243164 C-69.62534202 54.89613347 -66.5001922 51.91906543 -63.18896484 49.07055664 C-58.76053027 45.24586562 -54.68768575 41.11794729 -50.6015625 36.93359375 C-48.98743073 35.29708053 -47.37283307 33.66102673 -45.7578125 32.02539062 C-43.24976024 29.48028201 -40.74492047 26.93230003 -38.24804688 24.3762207 C-35.81267832 21.88600366 -33.36448507 19.40898741 -30.9140625 16.93359375 C-30.18144196 16.17719101 -29.44882141 15.42078827 -28.69400024 14.64146423 C-20.71491277 6.62294094 -11.61570374 0.34934447 0 0 Z " fill="#2F3394" transform="translate(620.125,76.5)"/>
<path d="M0 0 C14.95660153 -2.12662616 31.03594915 -4.31689414 43.93429565 5.02729797 C56.30245936 15.08547169 66.83403594 27.31151938 76.78338623 39.71347046 C79.31388804 42.46080501 82.06047837 44.82307097 84.88795662 47.25827694 C88.22509235 50.19746588 91.34409541 53.34058644 94.474823 56.49653625 C95.52531578 57.54921944 95.52531578 57.54921944 96.59703064 58.62316895 C98.10348466 60.13340151 99.60878338 61.64478722 101.11302185 63.15722656 C103.49940066 65.55647646 105.88898329 67.95249451 108.27938843 70.34773254 C114.21296987 76.29461835 120.14107646 82.24695208 126.06936646 88.19911194 C131.08914414 93.23867928 136.11100445 98.276154 141.13560486 103.31091309 C143.47955183 105.66130017 145.8204449 108.01469933 148.16122437 110.36824036 C149.61065967 111.8213112 151.06023726 113.27424014 152.50997925 114.727005 C153.15125259 115.37344467 153.79252594 116.01988434 154.45323181 116.68591309 C158.23725858 120.47037455 162.13732648 124.06307884 166.19341278 127.55480194 C175.85157163 135.91363927 186.04203771 145.34617848 187.23068237 158.81098938 C187.51373135 170.20743505 184.25098279 176.26578977 176.60177612 184.55708313 C174.58701292 186.52962076 172.5629003 188.35468701 170.42282104 190.18183899 C165.56090923 194.42194487 161.03342547 198.96291278 156.49630737 203.54536438 C155.62215683 204.42330154 154.74800629 205.30123871 153.84736633 206.20578003 C151.08076006 208.98451843 148.31744136 211.76649024 145.55490112 214.54927063 C141.89252615 218.23845077 138.22659544 221.92406563 134.55880737 225.60786438 C133.2917672 226.88735207 133.2917672 226.88735207 131.99913025 228.19268799 C131.22419724 228.97092422 130.44926422 229.74916046 129.65084839 230.55097961 C128.96660294 231.24046188 128.28235748 231.92994415 127.57737732 232.64031982 C125.99240112 234.11177063 125.99240112 234.11177063 124.99240112 234.11177063 C124.97693993 232.96450752 124.97693993 232.96450752 124.96116638 231.79406738 C124.86268381 224.54236772 124.76010338 217.29074251 124.65306187 210.03916454 C124.59818798 206.31217268 124.54483019 202.58517266 124.49508667 198.85810852 C124.44691221 195.25297428 124.39456016 191.64792154 124.33946037 188.04288673 C124.3192742 186.67599361 124.30052622 185.30907837 124.2833271 183.94214439 C124.20278361 177.60853706 124.08043237 171.27620476 123.67990112 164.95381165 C123.62841919 164.11713455 123.57693726 163.28045746 123.52389526 162.41842651 C122.45298582 157.77073732 118.87613237 154.92783466 115.42990112 151.86177063 C114.39252808 150.879505 114.39252808 150.879505 113.334198 149.87739563 C110.04000876 146.7827612 106.64824201 143.81581084 103.21505737 140.87739563 C96.95748595 135.43362356 91.23383922 129.40819033 85.41036987 123.50923157 C78.42941298 116.38371504 78.42941298 116.38371504 71.05490112 109.67427063 C64.40298512 103.99815222 58.40672302 97.57849545 52.26486206 91.36372375 C44.83681245 83.76735748 44.83681245 83.76735748 36.99240112 76.61177063 C30.3565564 70.96365122 24.38523933 64.55675672 18.26486206 58.36372375 C10.83681245 50.76735748 10.83681245 50.76735748 2.99240112 43.61177063 C-3.6434436 37.96365122 -9.61476067 31.55675672 -15.73513794 25.36372375 C-17.42798121 23.65259508 -19.12318117 21.94385843 -20.82009888 20.23677063 C-21.36158569 19.69133606 -21.90307251 19.14590149 -22.46096802 18.5839386 C-25.96144077 15.08400347 -29.55943743 11.77754227 -33.42166138 8.67427063 C-35.41271344 6.71264298 -36.65211846 4.54342034 -38.00759888 2.11177063 C-36.35924406 2.0370081 -34.71077995 1.96465833 -33.06228638 1.89302063 C-31.94684448 1.84451965 -30.83140259 1.79601868 -29.68215942 1.74604797 C-27.07801723 1.65401699 -24.4862405 1.58745663 -21.88186646 1.55952454 C-14.48672159 1.45719512 -7.32432806 1.08218798 0 0 Z " fill="#2F3394" transform="translate(761.0075988769531,234.8882293701172)"/>
<path d="M0 0 C-0.18353822 7.15799047 -4.92338186 11.79914788 -9.64453125 16.7109375 C-16.08903209 22.67537394 -23.59847395 27.49494391 -30.80371094 32.47998047 C-32.82375956 33.87802657 -34.83831404 35.28359499 -36.8515625 36.69140625 C-44.56784549 42.06574725 -52.39172891 47.27351188 -60.25 52.4375 C-61.22001953 53.08501221 -62.19003906 53.73252441 -63.18945312 54.3996582 C-67.92852361 57.52352956 -72.61006621 60.38266224 -77.7421875 62.81640625 C-88.29216306 67.81034361 -88.29216306 67.81034361 -94.28125 77.3671875 C-95.55671795 82.3179472 -96.24837177 87.28131846 -96.73681641 92.36523438 C-97.06585689 95.65930199 -97.70175875 98.87290012 -98.3125 102.125 C-99.07575594 108.11362351 -99.23621331 114.09476772 -99.3125 120.125 C-99.33030518 121.03910645 -99.34811035 121.95321289 -99.36645508 122.89501953 C-99.38036475 127.93621971 -99.38036475 127.93621971 -97.63671875 132.58203125 C-96.02932428 134.20042486 -96.02932428 134.20042486 -93.5 134.5625 C-90.79876051 134.24468672 -90.79876051 134.24468672 -89.375 131.75 C-88.92125 130.8425 -88.4675 129.935 -88 129 C-86.4375 126.6875 -86.4375 126.6875 -85 125 C-84.34 125 -83.68 125 -83 125 C-83.23112501 135.48467085 -85.71458657 146.11559464 -93 154 C-96.99273292 155.77454797 -99.02911851 156.28006197 -103.25 155.0625 C-106.64999101 152.51250674 -107.93461159 150.01812528 -109 146 C-109.34397337 142.17693098 -109.28479437 138.39689604 -109.1875 134.5625 C-109.16719727 133.03592773 -109.16719727 133.03592773 -109.14648438 131.47851562 C-109.1113661 128.98511786 -109.06218559 126.49284488 -109 124 C-109.47308594 124.6290625 -109.94617187 125.258125 -110.43359375 125.90625 C-125.14861969 144.95259936 -144.98445397 154.02310444 -168.44140625 157.47265625 C-206.57953498 162.28965852 -206.57953498 162.28965852 -220.9375 153.125 C-224.35408702 149.60488004 -224.98922779 146.91833074 -225.046875 142.00390625 C-224.95982221 140.52268976 -224.86055579 139.04214789 -224.75 137.5625 C-224.71003906 136.82451172 -224.67007813 136.08652344 -224.62890625 135.32617188 C-224.34080385 130.94623671 -223.74200135 127.08360461 -222 123 C-221.01 122.505 -221.01 122.505 -220 122 C-219.65388672 122.92232422 -219.65388672 122.92232422 -219.30078125 123.86328125 C-218.97464844 124.67152344 -218.64851562 125.47976563 -218.3125 126.3125 C-217.99925781 127.11300781 -217.68601562 127.91351562 -217.36328125 128.73828125 C-215.06039277 132.55883263 -212.057661 133.67712108 -207.890625 134.94921875 C-178.70736201 140.86728389 -142.89114298 137.98395006 -117.5234375 121.37890625 C-108.0145987 113.95346472 -106.19298956 102.21429334 -103.2980957 91.13769531 C-98.78663507 74.2868656 -89.88397431 61.35266885 -75.3125 51.625 C-74.5179541 51.0875415 -73.7234082 50.55008301 -72.90478516 49.99633789 C-70.51357594 48.38002099 -68.11892822 46.76891608 -65.72332764 45.15911865 C-33.97579487 24.54924911 -33.97579487 24.54924911 -4.00390625 1.546875 C-2 0 -2 0 0 0 Z " fill="#2F3394" transform="translate(1174,714)"/>
<path d="M0 0 C6.17325225 0.20577507 10.46529616 1.46529616 15 6 C15.62507794 10.37554557 15.21792042 13.29336008 12.8125 16.9375 C9.08908763 21.50794457 4.3036655 24.11973679 -0.734375 27.05859375 C-7.44881186 31.0503104 -13.14141855 35.12165916 -17 42 C-16.31292969 42.30292969 -15.62585938 42.60585938 -14.91796875 42.91796875 C-14.01691406 43.33691406 -13.11585938 43.75585938 -12.1875 44.1875 C-11.29417969 44.59355469 -10.40085937 44.99960937 -9.48046875 45.41796875 C-6.48773833 47.32671808 -5.39770684 48.74334306 -4 52 C-2.9148479 67.62619027 -9.2525187 83.91088139 -19.05859375 95.8984375 C-25.64511135 103.02830967 -33.47487947 108.31560118 -43.27734375 109.34375 C-51.57881609 109.57196917 -56.37209944 108.44185615 -63.25 103.8125 C-69.29268541 97.63248083 -69.48528652 90.95205602 -69.41967773 82.69433594 C-68.86362475 66.13790288 -61.27952207 45.20562365 -51 32 C-50.01 32 -49.02 32 -48 32 C-48.51941727 33.31306105 -49.04070873 34.62538054 -49.5625 35.9375 C-49.92214844 36.84371094 -50.28179687 37.74992188 -50.65234375 38.68359375 C-51.6618992 41.16797803 -52.69527172 43.63432791 -53.75390625 46.09765625 C-61.14053632 62.69136656 -61.14053632 62.69136656 -59.8125 80.25 C-57.18561967 84.23561154 -54.53058408 86.48980531 -50 88 C-38.6425146 88.98515982 -29.45558992 87.89614242 -20.10546875 80.8046875 C-14.56656168 76.14941153 -14.56656168 76.14941153 -11 70 C-11 68.68 -11 67.36 -11 66 C-12.24716797 65.52820313 -12.24716797 65.52820313 -13.51953125 65.046875 C-14.60621094 64.61890625 -15.69289063 64.1909375 -16.8125 63.75 C-17.89144531 63.33234375 -18.97039062 62.9146875 -20.08203125 62.484375 C-23.12426461 60.93678641 -24.38372533 59.96866776 -26 57 C-27.64069504 49.97935147 -25.23516504 44.08372843 -21.9140625 37.9609375 C-18.79510142 33.13609566 -14.97533221 29.12148413 -11 25 C-9.29570059 23.02743123 -7.64796004 21.02008005 -6 19 C-6.99 18.67 -7.98 18.34 -9 18 C-7.20871285 11.81191712 -4.61986886 4.61986886 0 0 Z " fill="#2F3394" transform="translate(335,789)"/>
<path d="M0 0 C-0.59060292 2.70693004 -1.24546308 5.33718656 -2 8 C-2.22171875 8.81339844 -2.4434375 9.62679687 -2.671875 10.46484375 C-3.54030992 12.99231708 -4.34152031 14.89776493 -6 17 C-8.44086596 17.91644235 -10.68706456 18.19482325 -13.2734375 18.5 C-20.4801866 19.8215815 -26.31634181 24.72780321 -30.94140625 30.19140625 C-32.24318887 32.41548504 -32.61476304 34.46782445 -33 37 C-32.30132813 37.33773437 -31.60265625 37.67546875 -30.8828125 38.0234375 C-29.51769531 38.69246094 -29.51769531 38.69246094 -28.125 39.375 C-27.22007812 39.81585937 -26.31515625 40.25671875 -25.3828125 40.7109375 C-23 42 -23 42 -21 44 C-18.02289912 59.58796642 -24.5837181 75.71206065 -33.12109375 88.52734375 C-38.55329381 95.6761642 -46.95795993 102.37110308 -56 104 C-70.80984355 105.01866649 -70.80984355 105.01866649 -77 101 C-83.13365218 95.44266413 -85.4334496 89.43103055 -86.0234375 81.26953125 C-85.9090116 65.30711846 -79.59785925 49.53690388 -72.375 35.5625 C-72.00294434 34.83426025 -71.63088867 34.10602051 -71.24755859 33.35571289 C-67.9300108 27.20034266 -67.9300108 27.20034266 -64 26 C-66.11615344 32.0995011 -68.43187936 38.03992405 -71.0625 43.9375 C-75.2744408 53.68361113 -79.57381038 64.82042368 -75.8125 75.3125 C-73.16047205 79.2448173 -70.50305441 81.49898186 -66 83 C-53.79107451 83.90272055 -44.46178386 82.38849185 -34.7578125 74.5703125 C-30.13934885 70.44448498 -27.83128481 67.30026383 -27 61 C-27.83144531 60.67386719 -28.66289063 60.34773437 -29.51953125 60.01171875 C-30.60621094 59.57472656 -31.69289063 59.13773438 -32.8125 58.6875 C-33.89144531 58.25824219 -34.97039063 57.82898438 -36.08203125 57.38671875 C-40.35704852 55.35508404 -40.35704852 55.35508404 -42 53 C-43.94239293 43.56320768 -40.11265317 35.07742745 -35.2734375 27.18359375 C-27.60451246 16.0904779 -14.72875195 0 0 0 Z " fill="#2F3394" transform="translate(560,794)"/>
<path d="M0 0 C0.26925471 6.51019412 -0.95155247 11.78762381 -5 17 C-7.98108697 18.29122663 -10.73147533 18.80935945 -13.9296875 19.3515625 C-21.53087528 20.95690241 -26.56730686 26.07215333 -31.00390625 32.16796875 C-32.23883525 34.09171693 -32.23883525 34.09171693 -32 37 C-31.30132813 37.33773437 -30.60265625 37.67546875 -29.8828125 38.0234375 C-28.51769531 38.69246094 -28.51769531 38.69246094 -27.125 39.375 C-26.22007812 39.81585937 -25.31515625 40.25671875 -24.3828125 40.7109375 C-22 42 -22 42 -20 44 C-17.03749109 59.5115635 -23.52600683 75.71462095 -32.06640625 88.4609375 C-38.07425075 96.35002624 -45.37022457 101.4509418 -55 104 C-62.07574569 104.85171013 -69.81930969 105.01252104 -76 101 C-82.00438317 95.55978706 -84.33269942 89.90079804 -84.95703125 81.9140625 C-85.18334691 66.56574608 -79.20931061 52.42979457 -72.875 38.75 C-72.55063965 38.04705811 -72.2262793 37.34411621 -71.89208984 36.61987305 C-69.9939007 32.65447792 -67.91295746 29.34019122 -65 26 C-64.34 26.33 -63.68 26.66 -63 27 C-63.29132812 27.69222656 -63.58265625 28.38445313 -63.8828125 29.09765625 C-65.26420452 32.39475229 -66.63265187 35.69705517 -68 39 C-68.39276123 39.93827637 -68.39276123 39.93827637 -68.79345703 40.89550781 C-76.14977635 57.63444258 -76.14977635 57.63444258 -74.8125 75.3125 C-72.16047205 79.2448173 -69.50305441 81.49898186 -65 83 C-52.79107451 83.90272055 -43.46178386 82.38849185 -33.7578125 74.5703125 C-29.13934885 70.44448498 -26.83128481 67.30026383 -26 61 C-26.83144531 60.67386719 -27.66289063 60.34773437 -28.51953125 60.01171875 C-29.60621094 59.57472656 -30.69289063 59.13773438 -31.8125 58.6875 C-32.89144531 58.25824219 -33.97039063 57.82898438 -35.08203125 57.38671875 C-39.35704852 55.35508404 -39.35704852 55.35508404 -41 53 C-42.9444948 43.5529961 -39.11112594 35.03574709 -34.23828125 27.1484375 C-27.09071924 16.85478835 -13.88839219 0 0 0 Z " fill="#2F3394" transform="translate(811,794)"/>
<path d="M0 0 C1 1 1 1 1.27001953 3.34545898 C0.93445748 6.64434338 0.18194093 7.36554486 -2.3203125 9.47265625 C-7.09643453 13.35522879 -12.29183493 15.91418932 -17.875 18.4375 C-19.298125 19.10555664 -19.298125 19.10555664 -20.75 19.78710938 C-27.67918347 23 -27.67918347 23 -30 23 C-29.24203125 23.8353125 -29.24203125 23.8353125 -28.46875 24.6875 C-22.49465955 31.70468561 -22.49465955 31.70468561 -22.3125 36.25 C-23.07549998 40.41181808 -23.85399571 42.19410428 -27 45 C-30.21263339 46.21559101 -31.98446209 46.00316513 -35.375 45.3125 C-39.19407313 44.98326956 -41.17638097 45.47714319 -44.375 47.59765625 C-50.40543046 52.80180177 -52.42707306 60.59410262 -54.7890625 67.92578125 C-55.90120176 70.74917995 -56.58195178 72.22804403 -59 74 C-59.66 74 -60.32 74 -61 74 C-60.91621094 72.87980469 -60.83242188 71.75960937 -60.74609375 70.60546875 C-60.64291555 69.13283444 -60.54006821 67.66017692 -60.4375 66.1875 C-60.38142578 65.44951172 -60.32535156 64.71152344 -60.26757812 63.95117188 C-60.04230276 60.63211484 -59.93744188 58.18767436 -61 55 C-64.68995098 54.57093593 -66.40712173 54.5319382 -69.375 56.875 C-70.26455708 57.90426316 -71.13736801 58.94806821 -72 60 C-72.91265625 60.98806641 -72.91265625 60.98806641 -73.84375 61.99609375 C-78.78542548 67.63150444 -81.79542891 73.36672696 -84.47802734 80.2902832 C-86.68278813 85.8475167 -89.16678662 90.45422589 -94.61328125 93.42578125 C-100.11430575 95.23291955 -105.2170101 96.56354793 -111 97 C-109.49167295 92.88390269 -107.05013221 91.53153552 -103.375 89.3125 C-97.23474628 85.37416638 -91.33130839 80.66261679 -88 74 C-89.051875 74.226875 -90.10375 74.45375 -91.1875 74.6875 C-95.43857035 75.03594839 -96.73215948 74.61427241 -100 72 C-102.09103301 68.86345049 -102.31215874 67.84028211 -101.6796875 64.23828125 C-99.86014056 58.24632496 -96.93555254 51.05989 -92 47 C-88.87959579 45.8503774 -87.52975357 45.78034608 -84.4375 47.0625 C-81.54616257 49.36074257 -79.89102154 51.84829744 -78 55 C-74.28771611 51.40020956 -70.89483588 47.61652481 -67.55078125 43.671875 C-65.22532241 41.16483121 -64.17005187 41.0128341 -60.6875 40.75 C-56.77012434 41.01558479 -55.21015884 41.90041246 -52 44 C-45.11383875 35.27341443 -45.11383875 35.27341443 -38.8125 26.125 C-32.86170585 17.11661548 -25.54200745 12.72078263 -16 8 C-22.79940072 5.8830181 -22.79940072 5.8830181 -29.375 7.75 C-30.24125 8.4925 -31.1075 9.235 -32 10 C-33.3191582 10.69429379 -34.64649406 11.37530495 -36 12 C-35.60602512 6.61567665 -33.68883145 2.85786146 -30 -1 C-21.93740084 -6.41677948 -8.50759439 -2.8755967 0 0 Z " fill="#2F3394" transform="translate(710,773)"/>
<path d="M0 0 C-3.04169686 11.28629626 -9.43844865 18.94107096 -17.6875 27 C-18.48913574 27.79108154 -19.29077148 28.58216309 -20.11669922 29.3972168 C-25.83067846 34.98371881 -31.68704568 40.0996128 -38 45 C-39.93868702 46.57216385 -41.86861476 48.15475223 -43.79882812 49.73730469 C-63.97051933 66.2560791 -63.97051933 66.2560791 -70.3046875 69.90234375 C-73.22005619 71.7235521 -73.22005619 71.7235521 -73.64160156 74.6237793 C-74.04809967 78.45311334 -74.27559955 82.27137135 -74.4296875 86.1171875 C-74.50345459 87.71095847 -74.5776892 89.30470785 -74.65234375 90.8984375 C-74.76461184 93.37027957 -74.87366325 95.84210149 -74.97412109 98.31445312 C-76.43182994 133.55545342 -76.43182994 133.55545342 -88 146 C-89.81597504 147.14845003 -91.68176643 148.13451113 -93.58447266 149.13208008 C-102.00838924 153.6100362 -106.28333643 158.26893891 -110.0847168 167.02246094 C-112.30346557 172.12305981 -114.3301662 174.86707353 -119 178 C-125.67419509 180.33991751 -133.0004463 180.27330145 -140 180 C-138.65276416 175.53965987 -137.04286771 173.96639277 -133.0625 171.625 C-132.07765625 171.02171875 -131.0928125 170.4184375 -130.078125 169.796875 C-128.10862901 168.64716922 -126.12008573 167.52912696 -124.109375 166.453125 C-115.96701146 161.85883049 -112.46019196 156.06034691 -108 148 C-103.94357476 141.06930774 -98.68246028 137.5920035 -91.828125 133.6640625 C-88.08067726 131.50714453 -88.08067726 131.50714453 -86.39038086 127.73461914 C-85.9832605 124.88273973 -85.82374357 122.12588399 -85.75390625 119.24609375 C-85.72103516 118.14330078 -85.68816406 117.04050781 -85.65429688 115.90429688 C-85.59382516 113.6205247 -85.53645608 111.33666793 -85.48242188 109.05273438 C-85.10271692 96.69441287 -83.33429575 86.1870141 -78 75 C-77.72945801 74.40251953 -77.45891602 73.80503906 -77.18017578 73.18945312 C-72.46434149 62.85673762 -66.79980843 56.10238345 -58 49 C-57.06671875 48.22140625 -56.1334375 47.4428125 -55.171875 46.640625 C-52.46834309 44.4005557 -49.73887972 42.19664487 -47 40 C-31.23768317 27.40871014 -31.23768317 27.40871014 -16.578125 13.58203125 C-14.12932852 11.1271734 -11.48901041 8.90214459 -8.859375 6.64453125 C-7.19983315 5.17674318 -5.65641767 3.66148021 -4.125 2.0625 C-2 0 -2 0 0 0 Z " fill="#2F3394" transform="translate(941,721)"/>
<path d="M0 0 C0.33 0 0.66 0 1 0 C0.97643433 1.63412842 0.97643433 1.63412842 0.95239258 3.30126953 C0.89791022 7.36027575 0.86358361 11.4192499 0.83520508 15.47851562 C0.82016005 17.23215173 0.79971896 18.98575047 0.77368164 20.73925781 C0.73710879 23.26637009 0.7202308 25.79298296 0.70703125 28.3203125 C0.69154739 29.09867462 0.67606354 29.87703674 0.66011047 30.6789856 C0.65863003 35.51583879 1.29925056 38.821482 4 43 C7.71266471 45.47510981 10.00634594 45.58199164 14.3828125 45.53125 C18.33666099 44.72867777 20.23304597 42.40368368 22.99609375 39.6015625 C25.8902639 37.28848304 28.30917874 37.4781955 31.8984375 37.3671875 C35.16431469 36.79656955 36.57556881 34.85057843 38.6640625 32.41015625 C40 31 40 31 42.625 30 C46.03757037 28.56312827 47.09723646 26.08378919 49 23 C49.99 22.505 49.99 22.505 51 22 C50.83949832 29.12043801 49.90667309 34.62496266 45 40 C39.35905296 44.68198604 32.9576688 49.34038853 25.625 50.5625 C20.83246404 52.4629884 18.95277109 55.37685346 15.9921875 59.4921875 C13.14325738 63.07848776 10.83008121 65.72409564 6.17578125 66.42578125 C5.23089844 66.38839844 4.28601563 66.35101562 3.3125 66.3125 C2.35988281 66.28800781 1.40726562 66.26351562 0.42578125 66.23828125 C-2 66 -2 66 -4 65 C-4.35191406 65.71285156 -4.70382812 66.42570313 -5.06640625 67.16015625 C-8.75765083 74.32097798 -12.47994775 80.28796865 -19.5 84.5 C-23.02726865 85.20545373 -25.52910117 84.94660877 -29 84 C-31.66118022 81.54352595 -32.82673079 80.01486253 -33.4375 76.4375 C-33 74 -33 74 -31.54516602 72.15917969 C-26.72537548 65.42411452 -27.71246144 54.69119583 -27.5625 46.75 C-27.14296994 33.19618251 -26.09261465 20.91447125 -19 9 C-18.34 9.33 -17.68 9.66 -17 10 C-17.13277344 11.06992187 -17.26554687 12.13984375 -17.40234375 13.2421875 C-18.67189428 24.0520192 -19.33131831 34.7750112 -19.48217773 45.66162109 C-19.71422948 55.21800127 -21.12259069 64.63872689 -26 73 C-19.05421938 71.52423446 -19.05421938 71.52423446 -13.5 67.375 C-9.06790178 57.40277901 -9.63312396 46.89817413 -9.52148438 36.19140625 C-9.35892541 28.33306793 -8.55640282 21.44280833 -6 14 C-5.76966064 13.32308105 -5.53932129 12.64616211 -5.30200195 11.94873047 C-4.69399113 10.24484657 -4.03638169 8.55888591 -3.375 6.875 C-2.94960938 5.77929688 -2.52421875 4.68359375 -2.0859375 3.5546875 C-1 1 -1 1 0 0 Z " fill="#2F3394" transform="translate(389,785)"/>
<path d="M0 0 C0.66 0 1.32 0 2 0 C-0.6909241 31.3424454 -3.45074306 62.15088545 -27.96875 84.8203125 C-35.96761934 91.34398052 -44.75817698 93.68380295 -54.984375 93.3203125 C-61.92711142 92.58287158 -67.06470977 90.04745592 -72 85 C-78.79273188 74.10558657 -77.67983992 63.11015471 -75.046875 50.9140625 C-72.56890756 41.06636323 -68.29237364 31.64108793 -63 23 C-62.67 23 -62.34 23 -62 23 C-62.40535365 29.75589415 -64.47114628 35.51037789 -66.84375 41.828125 C-69.07435354 47.94721309 -69.57991653 53.48560434 -69 60 C-67.66829691 62.97984167 -67.66829691 62.97984167 -66 65 C-66 65.66 -66 66.32 -66 67 C-56.69636008 72.03947162 -48.24638015 73.55467792 -37.77734375 71.30859375 C-26.17619553 67.80331635 -18.00714608 60.8579193 -12.25 50.25 C-8.89179353 43.0815208 -8.05297013 36.09034676 -7.7668457 28.23388672 C-7.36741771 17.93233158 -4.8127428 9.2225583 0 0 Z " fill="#2F3394" transform="translate(143,807)"/>
<path d="M0 0 C5.29578831 2.25428827 8.73271928 6.36751748 12 11 C13.29992184 16.10683578 11.65739463 18.93722412 9.125 23.3125 C7.53382771 25.8222476 6.10236842 27.89763158 4 30 C1.6796875 30.2734375 1.6796875 30.2734375 -1.125 30.375 C-7.11077565 30.81489952 -12.30628258 32.24026009 -16.59375 36.6328125 C-18 38 -18 38 -20 38 C-20.38285156 38.81597656 -20.38285156 38.81597656 -20.7734375 39.6484375 C-28.42174242 54.31174821 -38.88102793 67.06022265 -53.1875 75.375 C-53.78191895 75.72127441 -54.37633789 76.06754883 -54.98876953 76.42431641 C-58.29887429 78.27563656 -61.23216828 79.50329902 -65 80 C-64.43436157 76.73186684 -63.64294658 75.31435727 -61.0625 73.25 C-60.43214844 72.734375 -59.80179688 72.21875 -59.15234375 71.6875 C-57.65202769 70.51120864 -56.14353429 69.34530463 -54.62890625 68.1875 C-44.1945574 60.11349527 -37.29873122 51.13193876 -30.45068359 39.97607422 C-26.0199186 32.83392445 -21.17057094 26.82103738 -14.94921875 21.12109375 C-9.45500762 16.01094398 -6.09153537 10.42467696 -2.56640625 3.87890625 C-1 1 -1 1 0 0 Z " fill="#2F3394" transform="translate(920,813)"/>
<path d="M0 0 C0.33 0 0.66 0 1 0 C0.59293846 8.37985318 -0.16502725 16.67362894 -1.14477539 25.00585938 C-4.36354963 44.00231083 -4.36354963 44.00231083 0 62 C1.98 62 3.96 62 6 62 C6.25394531 61.43410156 6.50789063 60.86820313 6.76953125 60.28515625 C7.11371094 59.55167969 7.45789062 58.81820312 7.8125 58.0625 C8.14894531 57.33160156 8.48539063 56.60070312 8.83203125 55.84765625 C10 54 10 54 13 53 C13.74480881 62.49631238 11.06918006 72.56035993 5 80 C4.54625 80.598125 4.0925 81.19625 3.625 81.8125 C1.11147531 83.64930651 -0.91643512 83.8766574 -4 84 C-8.17892567 82.25068228 -10.10429002 80.07577645 -12 76 C-14.49723634 66.01105463 -12.49049998 55.47711702 -11.1875 45.4375 C-11.05019974 44.36743713 -11.05019974 44.36743713 -10.91012573 43.27575684 C-6.12803834 6.12803834 -6.12803834 6.12803834 0 0 Z " fill="#2F3394" transform="translate(1112,786)"/>
<path d="M0 0 C0.66 0 1.32 0 2 0 C1.3925933 8.19999045 -0.76562765 17.24519475 -7 23 C-8.80386269 23.91310077 -10.61758924 24.80681933 -12.4375 25.6875 C-18.67046197 28.92002017 -20.5927353 32.59029519 -23 39 C-28.40480257 52.1019144 -28.40480257 52.1019144 -33.88671875 54.99609375 C-40.53850467 57.64413805 -46.91120853 58.12222054 -54 58 C-53.62751538 55.40389507 -53.22172933 54.21657284 -51.3203125 52.359375 C-50.59585938 51.82828125 -49.87140625 51.2971875 -49.125 50.75 C-48.31933594 50.14929688 -47.51367188 49.54859375 -46.68359375 48.9296875 C-44.8267037 47.59445652 -42.9643414 46.26681504 -41.09765625 44.9453125 C-39.65712891 43.92050781 -39.65712891 43.92050781 -38.1875 42.875 C-37.29417969 42.25367188 -36.40085938 41.63234375 -35.48046875 40.9921875 C-30.48896629 36.98326426 -27.96006139 32.17232748 -25.1875 26.5625 C-22.23120537 20.83360417 -19.54079191 16.5270167 -14 13 C-6.34347934 8.14792285 -6.34347934 8.14792285 -1 1 C-0.67 0.67 -0.34 0.34 0 0 Z " fill="#2F3394" transform="translate(222,811)"/>
<path d="M0 0 C4.78274774 1.9130991 7.6841086 3.3682172 10 8 C10.60315132 13.30773162 9.25074909 15.84626506 6 20 C4 22.4375 4 22.4375 2 24 C-1.14324695 24.1047749 -2.83817452 22.38019155 -5.125 20.4375 C-7.62604873 17.78443825 -7.62604873 17.78443825 -10 18 C-11.57840572 19.55705194 -11.57840572 19.55705194 -13.125 21.5 C-13.66382813 22.1496875 -14.20265625 22.799375 -14.7578125 23.46875 C-15.16773438 23.9740625 -15.57765625 24.479375 -16 25 C-20.67105792 23.44298069 -24.08705685 20.91552627 -28 18 C-26.57593543 14.11747569 -24.7615746 10.74960259 -22.5625 7.25 C-21.66724609 5.80367187 -21.66724609 5.80367187 -20.75390625 4.328125 C-19 2 -19 2 -16 1 C-14.24609375 2.109375 -14.24609375 2.109375 -12.4375 3.75 C-11.53837891 4.54664063 -11.53837891 4.54664063 -10.62109375 5.359375 C-9 7 -9 7 -7 10 C-4.69 6.7 -2.38 3.4 0 0 Z " fill="#2F3394" transform="translate(211,891)"/>
<path d="M0 0 C0.33 0 0.66 0 1 0 C0.53382058 9.9183691 -0.27656174 19.80832681 -1.18734741 29.6947937 C-1.37100243 31.70621789 -1.54558811 33.71846361 -1.7199707 35.73071289 C-2.69970635 46.11434213 -4.17091977 56.24356093 -8.9375 65.625 C-9.66259766 67.09839844 -9.66259766 67.09839844 -10.40234375 68.6015625 C-12.13032897 71.19565278 -13.23174439 71.76152306 -16 73 C-15.88930176 72.39865234 -15.77860352 71.79730469 -15.66455078 71.17773438 C-13.55655762 59.56951399 -11.79526251 48.08987004 -11 36.3125 C-10.02076318 22.67297425 -6.54160027 12.1019605 0 0 Z " fill="#2F3394" transform="translate(243,792)"/>
<path d="M0 0 C0.33 0 0.66 0 1 0 C0.53382058 9.9183691 -0.27656174 19.80832681 -1.18734741 29.6947937 C-1.37100243 31.70621789 -1.54558811 33.71846361 -1.7199707 35.73071289 C-2.69970635 46.11434213 -4.17091977 56.24356093 -8.9375 65.625 C-9.66259766 67.09839844 -9.66259766 67.09839844 -10.40234375 68.6015625 C-12.13032897 71.19565278 -13.23174439 71.76152306 -16 73 C-15.88930176 72.39865234 -15.77860352 71.79730469 -15.66455078 71.17773438 C-13.55655762 59.56951399 -11.79526251 48.08987004 -11 36.3125 C-10.02076318 22.67297425 -6.54160027 12.1019605 0 0 Z " fill="#2F3394" transform="translate(456,792)"/>
<path d="M0 0 C1.24537277 4.27704078 0.79933914 8.2010456 0.36328125 12.578125 C0.28256882 13.42236023 0.20185638 14.26659546 0.11869812 15.13641357 C-0.05521179 16.92885999 -0.23281305 18.72095151 -0.41381836 20.51269531 C-0.68224554 23.197446 -0.93071 25.88351984 -1.17773438 28.5703125 C-2.60879007 43.40263446 -4.42151137 59.34958877 -13 72 C-14.485 72.495 -14.485 72.495 -16 73 C-15.48994216 68.77866414 -14.94737853 64.56830457 -14.31640625 60.36328125 C-13.08517963 52.12930048 -11.94550832 43.93833086 -11.27978516 35.63671875 C-10.35550365 24.15485771 -8.6423495 8.6423495 0 0 Z " fill="#2F3394" transform="translate(168,792)"/>
<path d="M0 0 C0.66 0 1.32 0 2 0 C1.82251326 7.79328158 0.45960788 15.11988626 -1.3125 22.6875 C-1.51319092 23.56559326 -1.71388184 24.44368652 -1.9206543 25.34838867 C-5.83396496 41.50046091 -5.83396496 41.50046091 -12 46 C-18.64140709 49.80925055 -25.47479007 51.03229111 -33 52 C-31.57415933 46.76553793 -28.38070165 44.43444138 -24.3125 41.1875 C-14.18954096 33.04346528 -9.06060289 26.1245564 -5.125 13.5625 C-4.35868848 11.20901015 -3.59056232 8.85611011 -2.8203125 6.50390625 C-2.49305176 5.47080322 -2.16579102 4.4377002 -1.82861328 3.37329102 C-1 1 -1 1 0 0 Z " fill="#2F3394" transform="translate(595,818)"/>
<path d="M0 0 C5.57527484 1.90022343 8.91179099 5.00996139 12 10 C12.32840527 16.34916849 9.23859411 20.1084826 5.5 24.9375 C4 26 4 26 2.203125 25.7890625 C-0.58168756 24.79166509 -2.45404159 23.29452518 -4.75 21.4375 C-5.94882813 20.47650391 -5.94882813 20.47650391 -7.171875 19.49609375 C-7.77515625 19.00238281 -8.3784375 18.50867188 -9 18 C-8.45207105 13.3817417 -6.41035512 10.01850353 -3.9375 6.1875 C-3.56044922 5.59001953 -3.18339844 4.99253906 -2.79492188 4.37695312 C-1.87010434 2.91363423 -0.93597935 1.45620477 0 0 Z " fill="#2F3394" transform="translate(105,828)"/>
<path d="M0 0 C4.50742055 0.87019616 6.64343864 2.94179965 10 6 C11.46650366 8.93300732 11.36440295 10.72037344 11 14 C9.01978248 18.19014027 6.38194988 23.08289693 2 25 C-2.9193713 24.06930813 -6.41583841 20.28462071 -10 17 C-7.14043646 10.95092327 -3.81492909 5.49349789 0 0 Z " fill="#2F3394" transform="translate(695,863)"/>
<path d="M0 0 C8.22480058 4.34517766 8.22480058 4.34517766 10 8 C10.62777952 11.62717055 10.62140242 13.9491268 8.72265625 17.16015625 C6.64034329 19.96542383 4.47029217 22.52970783 2 25 C-3.32100003 25 -7.07413415 21.18550405 -11 18 C-9.51971645 13.81490516 -7.42574276 10.41688407 -4.9375 6.75 C-4.22464844 5.69296875 -3.51179688 4.6359375 -2.77734375 3.546875 C-1 1 -1 1 0 0 Z " fill="#2F3394" transform="translate(1092,798)"/>
<path d="M0 0 C4.56403656 0.96136089 7.53442018 3.06809932 10.375 6.8125 C11.38160848 10.33562967 11.00299706 12.46001039 10 16 C7.23301324 19.97710117 4.66959131 23.44346956 0 25 C-2.2265625 23.671875 -2.2265625 23.671875 -4.625 21.75 C-5.81996094 20.81414063 -5.81996094 20.81414063 -7.0390625 19.859375 C-9 18 -9 18 -10 15 C-9.19555664 13.2824707 -9.19555664 13.2824707 -7.91015625 11.42578125 C-7.22856445 10.42514648 -7.22856445 10.42514648 -6.53320312 9.40429688 C-6.04787109 8.71400391 -5.56253906 8.02371094 -5.0625 7.3125 C-4.58103516 6.61060547 -4.09957031 5.90871094 -3.60351562 5.18554688 C-2.41153324 3.45068142 -1.20693527 1.72449627 0 0 Z " fill="#2F3394" transform="translate(834,801)"/>
<path d="M0 0 C8.25684211 4.20631579 8.25684211 4.20631579 10 9 C10.09767477 15.05583604 8.68971347 18.11898892 4.765625 22.65234375 C2.43557101 24.43081416 0.93417989 24.89410479 -2 25 C-4.45703125 23.56640625 -4.45703125 23.56640625 -6.8125 21.5625 C-7.99779297 20.57443359 -7.99779297 20.57443359 -9.20703125 19.56640625 C-9.79871094 19.04949219 -10.39039063 18.53257812 -11 18 C-9.51971645 13.81490516 -7.42574276 10.41688407 -4.9375 6.75 C-4.22464844 5.69296875 -3.51179688 4.6359375 -2.77734375 3.546875 C-1 1 -1 1 0 0 Z " fill="#2F3394" transform="translate(1112,898)"/>
</svg>
