<?xml version="1.0" encoding="UTF-8"?>
<svg version="1.1" xmlns="http://www.w3.org/2000/svg" width="582" height="768">
<path d="M0 0 C192.06 0 384.12 0 582 0 C582 192.39 582 384.78 582 583 C389.94 583 197.88 583 0 583 C0 390.61 0 198.22 0 0 Z M84 84 C84 220.95 84 357.9 84 499 C220.62 499 357.24 499 498 499 C498 362.05 498 225.1 498 84 C361.38 84 224.76 84 84 84 Z " fill="#F25920" transform="translate(0,0)"/>
<path d="M0 0 C1.20301758 0.46559326 2.40603516 0.93118652 3.64550781 1.41088867 C4.95651679 1.925922 6.26738486 2.44131413 7.578125 2.95703125 C8.96447557 3.4979121 10.35086976 4.03868114 11.73730469 4.5793457 C22.27736167 8.7045495 32.74424125 13.00036015 43.19882202 17.3366394 C54.88442839 22.18119674 66.61974184 26.88625676 78.390625 31.51953125 C96.19978629 38.53240014 113.98576799 45.60197811 131.75875854 52.70593262 C134.65516069 53.86362273 137.55191382 55.02042721 140.44900513 56.1763916 C143.9006888 57.55370751 147.35164234 58.93283761 150.80207062 60.31329536 C152.67756646 61.06322502 154.55370516 61.81154633 156.42987061 62.55979919 C180.09807234 72.03947859 180.09807234 72.03947859 181.828125 73.76953125 C181.92330303 76.53892091 181.95366765 79.28330284 181.94165039 82.05297852 C181.94179642 82.92119232 181.94194244 83.78940613 181.9420929 84.68392944 C181.94139346 87.56795711 181.93359963 90.45192105 181.92578125 93.3359375 C181.92391718 95.32990992 181.92249323 97.3238828 181.92149353 99.31785583 C181.91766748 104.57698827 181.90783645 109.83609328 181.89678955 115.09521484 C181.8865773 120.457353 181.88199631 125.81949556 181.87695312 131.18164062 C181.86621426 141.71094958 181.8491368 152.24023814 181.828125 162.76953125 C175.8716393 162.20483852 170.91810888 160.44515554 165.40136719 158.18481445 C164.47576303 157.81289852 163.55015888 157.44098259 162.59650612 157.05779648 C159.51963391 155.81935441 156.44737631 154.56986197 153.375 153.3203125 C151.18897074 152.43781689 149.00265453 151.55603179 146.81607056 150.6749115 C142.15644465 148.79568902 137.49875598 146.91177025 132.84246826 145.02429199 C125.56917154 142.07660904 118.29019143 139.14315025 111.01025391 136.21191406 C90.61008077 127.99441582 70.21899081 119.7552851 49.85742188 111.44255066 C43.72458818 108.93940932 37.58676689 106.44862136 31.4471817 103.96209049 C26.67009594 102.02604583 21.90073745 100.07239861 17.13656807 98.10479832 C14.22259824 96.90602072 11.30217782 95.72367062 8.37965012 94.54593086 C7.05435483 94.00794525 5.73179028 93.46316944 4.41243362 92.91077995 C-5.61126129 88.71924955 -11.43527889 87.81347742 -21.52026367 91.74511719 C-23.65185653 92.65485892 -25.77885299 93.57541009 -27.90234375 94.50390625 C-30.49975578 95.61274196 -33.1020391 96.70992878 -35.70458984 97.80664062 C-36.78613767 98.26380903 -36.78613767 98.26380903 -37.88953495 98.73021317 C-48.60264976 103.24046915 -59.42056435 107.49378375 -70.22265625 111.78515625 C-72.5220789 112.69982241 -74.82146614 113.6145776 -77.12081909 114.52941895 C-83.04532735 116.88594143 -88.97070439 119.24027166 -94.89630127 121.59405518 C-104.33015314 125.341952 -113.76241773 129.09384311 -123.19500351 132.84492493 C-126.6365828 134.21328354 -130.0784156 135.58100283 -133.52029419 136.9486084 C-144.08152825 141.14607011 -154.63904069 145.35232662 -165.18505859 149.58789062 C-166.58568999 150.15002069 -166.58568999 150.15002069 -168.01461697 150.72350693 C-172.32525605 152.45370379 -176.63487881 154.18633504 -180.94245911 155.9241333 C-182.45012335 156.52992899 -183.95782661 157.13562762 -185.46557617 157.74121094 C-186.12024809 158.00657402 -186.77492001 158.2719371 -187.44943047 158.54534149 C-192.31760284 160.49605886 -197.17052858 162.10241578 -202.171875 163.76953125 C-202.171875 133.73953125 -202.171875 103.70953125 -202.171875 72.76953125 C-188.311875 67.32453125 -188.311875 67.32453125 -174.171875 61.76953125 C-166.09896031 58.54325802 -158.02918857 55.31001544 -149.96484375 52.0625 C-147.75321425 51.17279684 -145.54154319 50.28319701 -143.32983398 49.39369202 C-138.70588788 47.53390675 -134.0821743 45.67354491 -129.45858765 43.81286621 C-122.28331089 40.92579716 -115.10624924 38.04318214 -107.92895508 35.16113281 C-79.05712787 23.57028202 -79.05712787 23.57028202 -50.2278347 11.87421608 C-45.74278082 10.04603956 -41.25400214 8.22702159 -36.76577759 6.40664673 C-33.44711249 5.05525869 -30.13508411 3.68845938 -26.82299805 2.32104492 C-24.89146212 1.53738833 -22.95960383 0.75452558 -21.02734375 -0.02734375 C-19.77896729 -0.5520652 -19.77896729 -0.5520652 -18.50537109 -1.08738708 C-11.45762475 -3.90294381 -7.01072514 -2.7244224 0 0 Z " fill="#F25920" transform="translate(301.171875,211.23046875)"/>
<path d="M0 0 C0.97710937 -0.00128906 1.95421875 -0.00257813 2.9609375 -0.00390625 C3.98445312 -0.00003906 5.00796875 0.00382813 6.0625 0.0078125 C7.59777344 0.00201172 7.59777344 0.00201172 9.1640625 -0.00390625 C10.14117187 -0.00261719 11.11828125 -0.00132812 12.125 0 C13.02347656 0.00112793 13.92195312 0.00225586 14.84765625 0.00341797 C17.0625 0.1328125 17.0625 0.1328125 19.0625 1.1328125 C17.43728617 5.30496589 14.36953758 8.0277356 11.21484375 11.0703125 C10.04090071 12.22384139 8.86707615 13.37749088 7.69335938 14.53125 C5.84353137 16.3375208 3.99130831 18.14125254 2.13647461 19.94238281 C0.34367608 21.68693288 -1.43984412 23.44056687 -3.22265625 25.1953125 C-4.05858055 25.99859985 -4.05858055 25.99859985 -4.91139221 26.81811523 C-8.57337109 30.38957933 -8.57337109 30.38957933 -9.9375 35.1328125 C-8.09740945 37.43307009 -6.30886561 39.36601426 -4.19921875 41.39453125 C-3.60325394 41.985793 -3.00728912 42.57705475 -2.39326477 43.18623352 C-0.48188638 45.07622048 1.44642733 46.94789088 3.375 48.8203125 C4.66449388 50.09330552 5.95291958 51.36738155 7.24023438 52.64257812 C15.13990409 61.04348755 15.13990409 61.04348755 26 63.3203125 C27.86978516 63.34158203 27.86978516 63.34158203 29.77734375 63.36328125 C33.20526297 63.39521748 33.20526297 63.39521748 36.0625 61.1328125 C36.57434645 58.12866681 36.57434645 58.12866681 36.57421875 54.59375 C36.60966797 53.29179688 36.64511719 51.98984375 36.68164062 50.6484375 C36.70474231 49.26823441 36.72752464 47.88802593 36.75 46.5078125 C36.78316445 45.11975898 36.8176533 43.73173643 36.85351562 42.34375 C36.93623602 38.9403965 37.00103655 35.53661624 37.0625 32.1328125 C43.3325 32.1328125 49.6025 32.1328125 56.0625 32.1328125 C56.11148438 34.19144531 56.16046875 36.25007812 56.2109375 38.37109375 C56.26656694 40.36679983 56.32226377 42.36250467 56.37988281 44.3581543 C56.4181435 45.74413157 56.45300156 47.13020715 56.484375 48.51635742 C56.53008699 50.5098289 56.58908925 52.50298164 56.6484375 54.49609375 C56.6798584 55.69532471 56.7112793 56.89455566 56.74365234 58.13012695 C56.84679494 61.31163956 56.84679494 61.31163956 59.0625 64.1328125 C61.3725 64.1328125 63.6825 64.1328125 66.0625 64.1328125 C66.3925 53.5728125 66.7225 43.0128125 67.0625 32.1328125 C73.3325 32.1328125 79.6025 32.1328125 86.0625 32.1328125 C86.3925 42.3628125 86.7225 52.5928125 87.0625 63.1328125 C90.0325 63.7928125 93.0025 64.4528125 96.0625 65.1328125 C96.0625 54.2428125 96.0625 43.3528125 96.0625 32.1328125 C102.3325 32.1328125 108.6025 32.1328125 115.0625 32.1328125 C115.12308594 34.27523437 115.18367187 36.41765625 115.24609375 38.625 C115.30787815 40.69681345 115.37126788 42.76857197 115.43481445 44.84033203 C115.47816231 46.2816887 115.51983752 47.72309668 115.55981445 49.16455078 C115.61752088 51.23485791 115.68121371 53.30490682 115.74609375 55.375 C115.78275146 56.6213623 115.81940918 57.86772461 115.85717773 59.15185547 C115.86539479 62.05918192 115.86539479 62.05918192 117.0625 64.1328125 C120.60944756 65.31512835 123.86927753 65.35467366 127.5625 65.3828125 C128.23925781 65.4034375 128.91601562 65.4240625 129.61328125 65.4453125 C133.43549194 65.52553126 133.43549194 65.52553126 136.75390625 63.86352539 C138.33261606 61.77556385 138.44248844 60.70690888 138.46875 58.11328125 C138.50162109 56.95022461 138.50162109 56.95022461 138.53515625 55.76367188 C138.54417969 54.95736328 138.55320312 54.15105469 138.5625 53.3203125 C138.63674895 46.78110166 138.90827626 41.59095884 143.5625 36.48828125 C150.39841523 31.16552434 156.50189778 31.91645631 164.875 31.8828125 C166.14666016 31.8621875 167.41832031 31.8415625 168.72851562 31.8203125 C169.95892578 31.81515625 171.18933594 31.81 172.45703125 31.8046875 C173.57956299 31.7953418 174.70209473 31.78599609 175.85864258 31.77636719 C180.15522457 32.25438363 183.53249122 33.70456202 186.70703125 36.66796875 C191.6039337 43.07161041 191.2808818 47.97011373 191.30273438 55.77148438 C191.31239952 57.86108829 191.3434027 59.94969119 191.375 62.0390625 C191.38153453 63.37759835 191.38678323 64.71614121 191.390625 66.0546875 C191.3999707 67.26737305 191.40931641 68.48005859 191.41894531 69.72949219 C190.90549292 74.63190753 189.28451146 77.91080104 185.8125 81.3828125 C179.15987376 85.61630192 172.2838224 85.46993894 164.625 85.4453125 C163.12743164 85.46948242 163.12743164 85.46948242 161.59960938 85.49414062 C155.32007704 85.49826918 150.82994613 84.5721373 145.0625 82.1328125 C141.80894054 82.32802607 139.37229465 83.01625171 136.33203125 84.16015625 C128.43039753 86.51082148 119.75437304 86.17911015 112.1875 82.9453125 C108.39105875 81.34299097 106.55118673 80.86393565 102.6875 82.3828125 C101.97078125 82.68960938 101.2540625 82.99640625 100.515625 83.3125 C92.77418712 85.90119738 85.1874513 84.54685166 78.0625 81.1328125 C75.25487459 81.33335717 73.37836098 81.986519 70.8359375 83.1640625 C63.30723089 85.79380791 54.28110025 84.96981342 47.125 81.59375 C44.94652756 80.91020823 44.94652756 80.91020823 42.49252319 82.08981323 C38.25088378 83.37960824 34.5227303 83.39847417 30.11962891 83.35986328 C29.2409314 83.36015533 28.36223389 83.36044739 27.45690918 83.36074829 C24.56752469 83.35936073 21.67840166 83.34382654 18.7890625 83.328125 C16.77981711 83.32439283 14.77056989 83.32154682 12.76132202 83.31954956 C7.48414039 83.31192916 2.20706961 83.29229433 -3.07006836 83.2701416 C-8.45945741 83.24964886 -13.84886444 83.24054051 -19.23828125 83.23046875 C-29.80473608 83.20904695 -40.37110881 83.17493022 -50.9375 83.1328125 C-51.27668457 83.82205811 -51.61586914 84.51130371 -51.96533203 85.22143555 C-52.41247559 86.12418213 -52.85961914 87.02692871 -53.3203125 87.95703125 C-53.98377686 89.30027466 -53.98377686 89.30027466 -54.66064453 90.6706543 C-57.98044326 97.07221647 -62.8980391 101.53775094 -69.59301758 104.18139648 C-75.28845139 105.80159544 -81.11670204 105.50469987 -86.99487305 105.50341797 C-89.23369043 105.50778072 -91.47051626 105.54412032 -93.70898438 105.58203125 C-101.46974649 105.64314728 -108.17908814 105.3906785 -114.9375 101.1328125 C-115.54198975 100.771875 -116.14647949 100.4109375 -116.76928711 100.0390625 C-122.99911352 95.58785365 -126.95907712 88.42013858 -128.9375 81.1328125 C-130.05452172 72.73488405 -129.60105359 64.20283331 -129.375 55.7578125 C-129.33982132 53.46098536 -129.30789397 51.16410601 -129.27929688 48.8671875 C-129.20283917 43.28775376 -129.08241359 37.71087083 -128.9375 32.1328125 C-122.6675 32.1328125 -116.3975 32.1328125 -109.9375 32.1328125 C-109.9281543 33.50010498 -109.91880859 34.86739746 -109.90917969 36.27612305 C-109.86927097 41.3549035 -109.803509 46.43307876 -109.72998047 51.51147461 C-109.7017761 53.70833556 -109.68055893 55.90529789 -109.66650391 58.10229492 C-109.64506751 61.2627348 -109.5984122 64.42195646 -109.546875 67.58203125 C-109.54564636 68.56241867 -109.54441772 69.54280609 -109.54315186 70.55290222 C-109.45182129 74.816729 -109.34571549 77.44006123 -107.14941406 81.16723633 C-101.69340526 86.01561678 -96.58822595 85.49907403 -89.5625 85.5078125 C-88.01949219 85.54455078 -88.01949219 85.54455078 -86.4453125 85.58203125 C-80.31801086 85.60571927 -76.50960225 85.37727224 -71.9375 81.1328125 C-70.14715017 78.19752266 -69.67623761 75.96457751 -69.61865234 72.54785156 C-69.59878265 71.64721985 -69.57891296 70.74658813 -69.55844116 69.81866455 C-69.54111435 68.37315216 -69.54111435 68.37315216 -69.5234375 66.8984375 C-69.50407135 65.90527527 -69.4847052 64.91211304 -69.4647522 63.88885498 C-69.40502678 60.72026121 -69.35859889 57.55163097 -69.3125 54.3828125 C-69.27431377 52.23305717 -69.23526166 50.08331704 -69.1953125 47.93359375 C-69.09933088 42.66679023 -69.01527354 37.39991509 -68.9375 32.1328125 C-62.6675 32.1328125 -56.3975 32.1328125 -49.9375 32.1328125 C-49.87691406 34.13085938 -49.81632812 36.12890625 -49.75390625 38.1875 C-49.69133389 40.12029081 -49.62872896 42.05308072 -49.56518555 43.98583984 C-49.50051749 45.99176057 -49.44066894 47.99783478 -49.38085938 50.00390625 C-49.33896484 51.26074219 -49.29707031 52.51757812 -49.25390625 53.8125 C-49.21724854 54.97507324 -49.18059082 56.13764648 -49.14282227 57.33544922 C-49.11928341 60.0863626 -49.11928341 60.0863626 -47.9375 62.1328125 C-44.30516898 63.34358951 -40.98628013 63.25725414 -37.20703125 63.23046875 C-36.45661057 63.2290538 -35.70618988 63.22763885 -34.93302917 63.22618103 C-32.5386454 63.2205881 -30.14435547 63.20803694 -27.75 63.1953125 C-26.12565239 63.19029658 -24.50130332 63.18573384 -22.87695312 63.18164062 C-18.89709931 63.17062098 -14.91731556 63.15336123 -10.9375 63.1328125 C-17.06557232 56.18303192 -23.41587921 49.52553021 -30 43.0078125 C-30.86560547 42.14671875 -31.73121094 41.285625 -32.62304688 40.3984375 C-34.72555391 38.30754653 -36.83037901 36.21905182 -38.9375 34.1328125 C-35.05232503 29.48765476 -31.023886 25.07004857 -26.734375 20.796875 C-26.17051086 20.23205414 -25.60664673 19.66723328 -25.0256958 19.08529663 C-23.84713356 17.90606004 -22.66733233 16.72806049 -21.48632812 15.55126953 C-19.67460186 13.74495288 -17.86834383 11.9332893 -16.0625 10.12109375 C-14.91177927 8.97103295 -13.76074885 7.82128193 -12.609375 6.671875 C-12.06980164 6.1302774 -11.53022827 5.58867981 -10.9743042 5.03067017 C-7.10856285 1.18924997 -5.40457634 0.0067848 0 0 Z M157.0625 49.1328125 C156.05147962 52.16587363 155.8642465 54.39221489 155.8125 57.5703125 C155.78671875 58.51777344 155.7609375 59.46523438 155.734375 60.44140625 C156.12852341 63.67436165 156.60610022 64.97904925 159.0625 67.1328125 C162.26052776 67.61747616 162.26052776 67.61747616 165.75 67.3828125 C166.92949219 67.34671875 168.10898437 67.310625 169.32421875 67.2734375 C170.22785156 67.22703125 171.13148438 67.180625 172.0625 67.1328125 C174.11924531 63.73221766 174.3603388 61.0141754 174.375 57.0703125 C174.39175781 56.02746094 174.40851563 54.98460937 174.42578125 53.91015625 C174.29078845 51.13749974 174.29078845 51.13749974 172.73046875 49.32421875 C168.23767779 46.11508235 161.57163664 45.83767418 157.0625 49.1328125 Z " fill="#F25920" transform="translate(128.9375,649.8671875)"/>
<path d="M0 0 C1.12148438 0.00322266 2.24296875 0.00644531 3.3984375 0.00976562 C4.5740625 0.01814453 5.7496875 0.02652344 6.9609375 0.03515625 C8.14429688 0.03966797 9.32765625 0.04417969 10.546875 0.04882812 C13.47661257 0.06064158 16.40625022 0.07711367 19.3359375 0.09765625 C15.14859697 9.21636372 6.40978011 16.14943597 -0.6015625 23.09765625 C-1.5816156 24.07268011 -2.5614349 25.04793905 -3.54101562 26.0234375 C-5.91308563 28.38382243 -8.2874711 30.7418253 -10.6640625 33.09765625 C-8.40331028 37.2826456 -5.55248984 40.48769152 -2.19140625 43.80078125 C-1.66768936 44.32403992 -1.14397247 44.84729858 -0.60438538 45.38641357 C0.49680676 46.48459931 1.60041358 47.58036855 2.70629883 48.67382812 C4.40183057 50.3510126 6.08913263 52.03615313 7.77539062 53.72265625 C8.84848609 54.79083921 9.92203794 55.85856392 10.99609375 56.92578125 C11.50133072 57.4299054 12.00656769 57.93402954 12.52711487 58.45343018 C17.64893952 63.50582846 20.84138099 63.30684944 27.7734375 63.34765625 C28.64548828 63.36828125 29.51753906 63.38890625 30.41601562 63.41015625 C31.67381836 63.41789063 31.67381836 63.41789063 32.95703125 63.42578125 C33.7245874 63.43512695 34.49214355 63.44447266 35.28295898 63.45410156 C37.38376965 63.22639009 37.38376965 63.22639009 39.07763672 61.97827148 C40.91905381 59.22614967 40.77323452 56.96912789 40.84765625 53.6796875 C40.88310547 52.42607422 40.91855469 51.17246094 40.95507812 49.88085938 C40.98891602 47.91536133 40.98891602 47.91536133 41.0234375 45.91015625 C41.05661416 44.57483612 41.09110416 43.23954793 41.12695312 41.90429688 C41.20955259 38.635718 41.27441754 35.36669981 41.3359375 32.09765625 C47.6059375 32.09765625 53.8759375 32.09765625 60.3359375 32.09765625 C60.42829837 36.91838071 60.50776632 41.73597697 60.55566406 46.55688477 C60.57565082 48.19305889 60.60284993 49.82916276 60.63769531 51.46508789 C61.04530091 71.1080812 61.04530091 71.1080812 54.30078125 78.25390625 C53.63175781 78.69734375 52.96273437 79.14078125 52.2734375 79.59765625 C51.26603516 80.29375 51.26603516 80.29375 50.23828125 81.00390625 C46.70400435 83.03593404 43.82037783 83.22618785 39.82795715 83.23809814 C38.68265533 83.24380829 37.53735352 83.24951843 36.35734558 83.25540161 C35.09964859 83.25651947 33.8419516 83.25763733 32.54614258 83.25878906 C31.20894229 83.2634182 29.87174333 83.26844299 28.5345459 83.27383423 C24.90000529 83.28695388 21.26548315 83.29340272 17.63092256 83.29784489 C15.35857219 83.30077725 13.08622685 83.30488244 10.81387901 83.30934906 C3.69971007 83.3230249 -3.41444735 83.33269026 -10.52862853 83.33655095 C-18.73199459 83.34102744 -26.93519367 83.35855583 -35.13850898 83.38755155 C-41.48429299 83.40920008 -47.83003015 83.41925698 -54.17585069 83.42059207 C-57.96332457 83.42163814 -61.75064151 83.42750309 -65.5380764 83.44541168 C-69.10449514 83.46194664 -72.67063991 83.46402181 -76.23708344 83.45527267 C-78.16068521 83.45414076 -80.08427812 83.46781752 -82.00782776 83.48202515 C-89.2829504 83.44707928 -95.80508553 83.24145602 -101.6875 78.44921875 C-102.35652344 77.59457031 -102.35652344 77.59457031 -103.0390625 76.72265625 C-103.73128906 75.87574219 -103.73128906 75.87574219 -104.4375 75.01171875 C-107.30826603 70.53186094 -107.90764641 66.77009465 -107.859375 61.484375 C-107.85292969 60.23720703 -107.84648437 58.99003906 -107.83984375 57.70507812 C-107.82308594 56.41150391 -107.80632812 55.11792969 -107.7890625 53.78515625 C-107.78003906 52.47224609 -107.77101563 51.15933594 -107.76171875 49.80664062 C-107.73818125 46.57023438 -107.70231121 43.33392206 -107.6640625 40.09765625 C-101.3940625 40.09765625 -95.1240625 40.09765625 -88.6640625 40.09765625 C-88.6640625 47.68765625 -88.6640625 55.27765625 -88.6640625 63.09765625 C-63.2540625 63.09765625 -37.8440625 63.09765625 -11.6640625 63.09765625 C-17.54281514 56.37034739 -17.54281514 56.37034739 -23.7578125 50.08203125 C-24.64210938 49.22351563 -25.52640625 48.365 -26.4375 47.48046875 C-28.27920293 45.70209085 -30.12837772 43.93142323 -31.984375 42.16796875 C-32.85835938 41.31460938 -33.73234375 40.46125 -34.6328125 39.58203125 C-35.43138672 38.81600586 -36.22996094 38.04998047 -37.05273438 37.26074219 C-38.6640625 35.09765625 -38.6640625 35.09765625 -38.44200134 33.16197205 C-37.56242355 30.82795011 -36.59232745 29.65721971 -34.82836914 27.90551758 C-34.2342775 27.30842484 -33.64018585 26.71133209 -33.02809143 26.09614563 C-32.38331345 25.46371445 -31.73853546 24.83128326 -31.07421875 24.1796875 C-30.4144957 23.52183762 -29.75477264 22.86398773 -29.07505798 22.186203 C-27.68056802 20.79843045 -26.28248736 19.41425798 -24.88110352 18.03344727 C-22.73127228 15.91479772 -20.59232014 13.7856383 -18.45507812 11.65429688 C-17.09957991 10.30796765 -15.74348036 8.96224353 -14.38671875 7.6171875 C-13.743965 6.97868362 -13.10121124 6.34017975 -12.4389801 5.68232727 C-11.8417363 5.09469101 -11.24449249 4.50705475 -10.62915039 3.90161133 C-10.10366104 3.38294998 -9.57817169 2.86428864 -9.03675842 2.32991028 C-6.14164625 -0.26900007 -3.77357588 -0.01905846 0 0 Z " fill="#F25920" transform="translate(444.6640625,649.90234375)"/>
<path d="M0 0 C5.94 0 11.88 0 18 0 C18.01981934 1.70051514 18.03963867 3.40103027 18.06005859 5.15307617 C18.12791838 10.7810307 18.20470044 16.4088165 18.28752708 22.03657055 C18.33740404 25.44759771 18.38373441 28.8585952 18.421875 32.26977539 C18.46591305 36.1943487 18.52552919 40.11861191 18.5859375 44.04296875 C18.59748871 45.26396774 18.60903992 46.48496674 18.62094116 47.7429657 C18.64081085 48.8837709 18.66068054 50.02457611 18.68115234 51.19995117 C18.69447601 52.20144699 18.70779968 53.20294281 18.7215271 54.23478699 C19.02067569 57.20530794 19.60056472 59.36311484 21 62 C24.22282413 63.07427471 26.61511153 63.1332963 30 63.125 C31.051875 63.12757813 32.10375 63.13015625 33.1875 63.1328125 C36.08126878 63.12353635 36.08126878 63.12353635 39 62 C40.39560045 59.20879909 40.21808288 56.79794308 40.31640625 53.6796875 C40.37924805 51.79443359 40.37924805 51.79443359 40.44335938 49.87109375 C40.48267578 48.55238281 40.52199219 47.23367188 40.5625 45.875 C40.60569512 44.53514249 40.64930973 43.19529844 40.69335938 41.85546875 C40.7997091 38.5704438 40.90038317 35.28523602 41 32 C47.27 32 53.54 32 60 32 C60.09226957 36.83902614 60.17176613 41.67495234 60.21972656 46.51416016 C60.23973571 48.1571695 60.26695213 49.80010859 60.30175781 51.44287109 C60.35075305 53.81625788 60.37307504 56.18869649 60.390625 58.5625 C60.41127014 59.28679199 60.43191528 60.01108398 60.45318604 60.75732422 C60.45592484 67.10403892 58.39225374 72.17080494 54.2890625 77.0234375 C53.73992188 77.46945312 53.19078125 77.91546875 52.625 78.375 C51.80902344 79.06722656 51.80902344 79.06722656 50.9765625 79.7734375 C44.49008146 83.7986451 37.53971353 83.33311754 30.1875 83.3125 C29.04990234 83.32861328 27.91230469 83.34472656 26.74023438 83.36132812 C18.69202202 83.36597222 12.00814323 82.52687291 5.125 78.1875 C-4.90466855 67.86284119 -1.15553837 46.14845812 -1.13037109 32.78076172 C-1.12495629 29.34728695 -1.13037403 25.91393983 -1.13671875 22.48046875 C-1.13605884 20.28645805 -1.13477948 18.09244742 -1.1328125 15.8984375 C-1.13483673 14.87761078 -1.13686096 13.85678406 -1.13894653 12.80502319 C-1.13579437 11.85277863 -1.13264221 10.90053406 -1.12939453 9.91943359 C-1.12859894 9.0875351 -1.12780334 8.2556366 -1.12698364 7.39852905 C-1 5 -1 5 0 0 Z " fill="#F25920" transform="translate(522,650)"/>
<path d="M0 0 C6.27 0 12.54 0 19 0 C19 5.94 19 11.88 19 18 C12.73 18 6.46 18 0 18 C0 12.06 0 6.12 0 0 Z " fill="#F25920" transform="translate(460,666)"/>
<path d="M0 0 C5.94 0 11.88 0 18 0 C18 5.94 18 11.88 18 18 C12.06 18 6.12 18 0 18 C0 12.06 0 6.12 0 0 Z " fill="#F25920" transform="translate(543,737)"/>
<path d="M0 0 C1.58206422 0.00574487 3.16410406 0.01876032 4.74609375 0.03515625 C7.53046875 0.05578125 10.31484375 0.07640625 13.18359375 0.09765625 C13.18359375 6.03765625 13.18359375 11.97765625 13.18359375 18.09765625 C7.24359375 18.09765625 1.30359375 18.09765625 -4.81640625 18.09765625 C-4.83703125 15.31328125 -4.85765625 12.52890625 -4.87890625 9.66015625 C-4.88801025 8.78174072 -4.89711426 7.9033252 -4.90649414 6.99829102 C-4.91363716 5.03119651 -4.86672518 3.06412004 -4.81640625 1.09765625 C-3.81640625 0.09765625 -3.81640625 0.09765625 0 0 Z " fill="#F25920" transform="translate(34.81640625,665.90234375)"/>
</svg>
