<?xml version="1.0" encoding="UTF-8"?>
<svg version="1.1" xmlns="http://www.w3.org/2000/svg" width="556" height="299">
<path d="M0 0 C7.09240278 3.45107502 12.09300978 8.92467878 17 15 C20.07171498 13.9158653 22.4574701 12.69501993 25.1875 10.875 C28 9 28 9 30 9 C30.02578125 10.15757813 30.0515625 11.31515625 30.078125 12.5078125 C30.13443349 14.04691128 30.1917802 15.58597233 30.25 17.125 C30.26417969 17.88554687 30.27835937 18.64609375 30.29296875 19.4296875 C30.32519531 20.17734375 30.35742188 20.925 30.390625 21.6953125 C30.4220459 22.7164917 30.4220459 22.7164917 30.45410156 23.75830078 C32.25943962 31.17181333 39.25883756 36.48121315 44.47265625 41.59765625 C45.87748886 42.99091777 47.28231589 44.38418497 48.6868124 45.7777853 C51.14112972 48.2103251 53.60200969 50.63620691 56.0625 53.0625 C59.00400429 55.96317508 61.94429117 58.86500837 64.8768158 61.77476501 C66.69959228 63.58251233 68.52687769 65.38572721 70.35914612 67.18385315 C71.18688034 68.00498093 72.01461456 68.8261087 72.86743164 69.67211914 C73.59483047 70.38904434 74.32222931 71.10596954 75.07167053 71.84461975 C77 74 77 74 80 79 C74.72 84.28 69.44 89.56 64 95 C65.86255292 98.9469935 65.86255292 98.9469935 68.125 102.125 C70 105 70 105 70 107 C68.9378125 107.01417969 67.875625 107.02835937 66.78125 107.04296875 C65.3541256 107.08991363 63.92704362 107.13816073 62.5 107.1875 C61.80390625 107.19330078 61.1078125 107.19910156 60.390625 107.20507812 C49.51563096 107.65820288 42.80574727 115.78005639 35.59375 123.11328125 C34.61935444 124.093284 33.64428554 125.07261768 32.6685791 126.05131531 C30.12363833 128.60761655 27.58784382 131.17280079 25.05395508 133.74005127 C22.45818278 136.36671591 19.85371354 138.98472685 17.25 141.60351562 C12.15819738 146.72732678 7.07604209 151.86056967 2 157 C-1.01409306 155.55695686 -3.10472016 154.13408132 -5.453125 151.7421875 C-6.071875 151.11699219 -6.690625 150.49179688 -7.328125 149.84765625 C-8.27945313 148.87119141 -8.27945313 148.87119141 -9.25 147.875 C-9.8996875 147.21628906 -10.549375 146.55757812 -11.21875 145.87890625 C-12.81711727 144.25703357 -14.41061897 142.6306719 -16 141 C-16.61488281 141.433125 -17.22976562 141.86625 -17.86328125 142.3125 C-18.67152344 142.869375 -19.47976562 143.42625 -20.3125 144 C-21.11300781 144.556875 -21.91351563 145.11375 -22.73828125 145.6875 C-25 147 -25 147 -28 147 C-28.02578125 146.01 -28.0515625 145.02 -28.078125 144 C-28.13446474 142.6666261 -28.19181068 141.33329446 -28.25 140 C-28.29640625 138.700625 -28.3428125 137.40125 -28.390625 136.0625 C-29.48871582 126.09074435 -36.42582359 120.03474387 -43.234375 113.375 C-44.23844485 112.37840426 -45.24162504 111.38091146 -46.24395752 110.38256836 C-48.86550623 107.77618391 -51.49884581 105.18204536 -54.13494873 102.59039307 C-56.83035959 99.93613507 -59.51427368 97.2703057 -62.19921875 94.60546875 C-67.4550507 89.39234482 -72.72341102 84.19212219 -78 79 C-76.18702093 75.06986834 -73.63177057 72.36823909 -70.5625 69.375 C-70.07201172 68.88515625 -69.58152344 68.3953125 -69.07617188 67.890625 C-66.81112438 65.6530882 -64.65832501 63.77221668 -62 62 C-63.25773953 59.37970931 -64.65157808 56.87772731 -66.125 54.375 C-68 51 -68 51 -68 49 C-67.154375 49.03480469 -66.30875 49.06960937 -65.4375 49.10546875 C-51.81891616 49.43045768 -46.80728654 46.18775203 -37 37 C-33.93776651 34.04695036 -30.92753428 31.04561074 -27.9296875 28.02734375 C-27.12258331 27.21882462 -26.31547913 26.41030548 -25.48391724 25.57728577 C-22.94522127 23.03306065 -20.41005328 20.48535414 -17.875 17.9375 C-16.1382546 16.19573042 -14.4012774 14.45419194 -12.6640625 12.71289062 C-8.44002998 8.47792328 -4.21887612 4.24010384 0 0 Z M7.3359375 28.53125 C6.86564117 29.0005896 6.39534485 29.4699292 5.91079712 29.95349121 C4.90918888 30.95441661 3.90885172 31.95661526 2.90966797 32.95996094 C1.40568135 34.46921127 -0.10344028 35.97317172 -1.61328125 37.4765625 C-6.41708298 42.27717621 -11.12849301 47.11867955 -15.53295898 52.29418945 C-21.00884721 58.66131061 -26.88897139 64.2963238 -35 67 C-37.12327356 67.09523918 -39.24959711 67.12986362 -41.375 67.125 C-43.05722656 67.12886719 -43.05722656 67.12886719 -44.7734375 67.1328125 C-47.64264622 67.01470948 -50.21208229 66.65782328 -53 66 C-48.7509263 71.08808363 -44.29234184 75.80501704 -39.5546875 80.4375 C-38.1338265 81.84085421 -36.71326242 83.24450911 -35.29296875 84.6484375 C-33.07991703 86.83051338 -30.86462634 89.01015797 -28.64404297 91.18457031 C-26.48240139 93.30371441 -24.33046364 95.43233652 -22.1796875 97.5625 C-21.51919403 98.20437256 -20.85870056 98.84624512 -20.17819214 99.50756836 C-14.66684662 104.98825706 -10.27369169 110.59861394 -9.8671875 118.62109375 C-9.86976563 119.55050781 -9.87234375 120.47992188 -9.875 121.4375 C-9.87113281 122.82775391 -9.87113281 122.82775391 -9.8671875 124.24609375 C-9.99655948 126.92865981 -10.40217166 129.38568718 -11 132 C-5.83816049 127.70255948 -1.10978878 123.1673333 3.55078125 118.3359375 C4.98555932 116.8690393 6.4211308 115.40291679 7.85742188 113.9375 C10.08963495 111.65595489 12.31690557 109.37042522 14.53100586 107.07128906 C16.69022239 104.83281106 18.86854487 102.61445104 21.05078125 100.3984375 C21.69904373 99.71607025 22.34730621 99.033703 23.01521301 98.33065796 C29.03238344 92.27873588 35.61816984 88.8698248 44.25 88.6875 C47.89045761 88.84253526 51.42926044 89.24826535 55 90 C50.67145517 84.81514423 46.11508516 80.0069534 41.30078125 75.2734375 C39.82994591 73.81523751 38.35924678 72.35690013 36.88867188 70.8984375 C34.59297087 68.62761213 32.29568873 66.35843145 29.99584961 64.09179688 C27.75975245 61.88591403 25.52992608 59.67384264 23.30078125 57.4609375 C22.61325272 56.78686859 21.92572418 56.11279968 21.21736145 55.41830444 C15.98017447 50.20871906 12.22268044 45.7614318 11.8671875 38.16015625 C11.86976563 37.13792969 11.87234375 36.11570312 11.875 35.0625 C11.87113281 33.53302734 11.87113281 33.53302734 11.8671875 31.97265625 C11.99088064 29.20411275 12.37473262 26.69460465 13 24 C10.86547162 24 8.68700049 27.18193483 7.3359375 28.53125 Z " fill="#00A652" transform="translate(269,3)"/>
<path d="M0 0 C1.04542969 0.08894531 2.09085938 0.17789063 3.16796875 0.26953125 C4.20566406 0.34558594 5.24335938 0.42164063 6.3125 0.5 C9.64101342 1.13664762 11.68343093 2.00539316 14.35546875 4.08203125 C15.32742575 9.20689544 14.63155361 12.23568585 11.98046875 16.70703125 C6.19099602 24.53826698 -2.62100863 27.71340155 -11.46655273 30.9909668 C-14.94808502 32.29636982 -17.80569913 33.66403103 -20.64453125 36.08203125 C-17.6171875 36.765625 -17.6171875 36.765625 -14.58984375 37.44921875 C-12.64453125 38.08203125 -12.64453125 38.08203125 -10.64453125 40.08203125 C-9.94985835 45.83789242 -10.63332472 49.4606399 -14.00390625 54.2109375 C-19.25210202 60.19637982 -25.98247846 62.66829272 -33.26953125 65.33203125 C-40.18348365 67.86428142 -45.95457016 70.94360071 -51.96166992 75.17431641 C-59.49267854 80.46368025 -67.53070265 84.76142205 -75.64453125 89.08203125 C-76.63573975 89.61957031 -76.63573975 89.61957031 -77.64697266 90.16796875 C-92.56079713 98.22499299 -108.38453362 104.11623504 -124.89453125 107.95703125 C-126.11390381 108.24356567 -126.11390381 108.24356567 -127.35791016 108.53588867 C-141.90747187 111.68177841 -156.637057 112.43528569 -171.47583008 112.39770508 C-174.07740988 112.39453688 -176.6778554 112.41816441 -179.27929688 112.44335938 C-193.3577054 112.4962116 -207.13129381 111.19029624 -220.64453125 107.08203125 C-221.40636719 108.65791016 -221.40636719 108.65791016 -222.18359375 110.265625 C-232.72368938 131.85764619 -232.72368938 131.85764619 -240.64453125 137.08203125 C-243.51953125 137.39453125 -243.51953125 137.39453125 -245.64453125 137.08203125 C-245.98002395 133.47548469 -246.01572513 131.63194811 -243.95703125 128.58203125 C-243.19390625 127.75703125 -242.43078125 126.93203125 -241.64453125 126.08203125 C-235.18955713 118.59829563 -230.77431899 110.19598361 -226.25 101.48046875 C-225.84716797 100.70783691 -225.44433594 99.93520508 -225.02929688 99.13916016 C-224.24485392 97.62753987 -223.46848792 96.11169431 -222.70117188 94.59130859 C-220.94604305 91.18696388 -219.88842524 89.24462724 -216.64453125 87.08203125 C-212.44247197 86.65324969 -209.10269352 87.15959703 -205.14453125 88.45703125 C-163.98327938 101.42313139 -109.58898357 92.25516464 -71.81445312 72.9597168 C-70.07282454 72.03416981 -68.35851 71.05783052 -66.64453125 70.08203125 C-65.99250732 69.76919189 -65.3404834 69.45635254 -64.66870117 69.1340332 C-57.97521704 65.61177809 -55.34008987 60.20100572 -51.95703125 53.64453125 C-43.38779184 37.45366155 -43.38779184 37.45366155 -38.64453125 35.08203125 C-34.97123161 34.94845672 -32.14600166 34.91487445 -28.64453125 36.08203125 C-27.86142578 34.97794922 -27.86142578 34.97794922 -27.0625 33.8515625 C-24.80053915 31.26072204 -22.63777778 29.63645138 -19.72094727 27.8503418 C-13.67266617 24.33944186 -13.67266617 24.33944186 -10.70703125 18.26953125 C-10.7534375 17.31240234 -10.7534375 17.31240234 -10.80078125 16.3359375 C-10.42507858 10.91642643 -6.04971378 0.1876573 0 0 Z M-42.69140625 47.05859375 C-43.2534375 47.93257812 -43.81546875 48.8065625 -44.39453125 49.70703125 C-44.97847656 50.61453125 -45.56242188 51.52203125 -46.1640625 52.45703125 C-47.7454703 55.26100497 -48.90136282 57.94420897 -49.64453125 61.08203125 C-45.90957352 59.71165108 -42.70759192 58.03412547 -39.39453125 55.83203125 C-38.523125 55.27 -37.65171875 54.70796875 -36.75390625 54.12890625 C-34.07665103 51.53097711 -33.82695843 49.75084458 -33.64453125 46.08203125 C-34.74649234 44.77524441 -34.74649234 44.77524441 -37.47265625 44.73046875 C-40.73327155 44.76480562 -40.73327155 44.76480562 -42.69140625 47.05859375 Z M-26.64453125 46.95703125 C-30.37003567 50.43613988 -32.99244063 54.76533056 -35.64453125 59.08203125 C-35.31453125 59.74203125 -34.98453125 60.40203125 -34.64453125 61.08203125 C-25.9827882 57.06081332 -25.9827882 57.06081332 -18.64453125 51.08203125 C-17.68905544 48.41095027 -17.68905544 48.41095027 -17.64453125 46.08203125 C-21.60753318 44.85538779 -23.06020223 44.71682561 -26.64453125 46.95703125 Z " fill="#231F20" transform="translate(404.64453125,129.91796875)"/>
<path d="M0 0 C6.56874286 4.03898631 11.64979438 10.0991977 13.5625 17.5625 C14.38905016 25.309005 14.24824112 32.12536711 9.5625 38.5625 C4.65834001 44.42024666 -1.77574163 48.89057926 -9.4453125 49.80078125 C-16.94258869 50.06360089 -22.87718074 47.69869156 -29.25 43.875 C-35.54874684 37.21632477 -37.88218689 29.77007464 -37.7734375 20.765625 C-36.91870986 12.61589637 -32.62516392 7.07473426 -26.5 1.9375 C-19.34922274 -2.82968484 -7.93427294 -3.46136608 0 0 Z " fill="#F7941F" transform="translate(281.4375,57.4375)"/>
<path d="M0 0 C0.66 0 1.32 0 2 0 C1.81824219 1.16402344 1.81824219 1.16402344 1.6328125 2.3515625 C1.27821505 4.63735224 0.92832928 6.92387569 0.58203125 9.2109375 C0.20001477 11.69789045 -0.1979173 14.18246133 -0.61328125 16.6640625 C-1.69852294 23.44128613 -2.168393 29.2233206 -1 36 C0.98 36.495 0.98 36.495 3 37 C3.45375 36.175 3.9075 35.35 4.375 34.5 C4.91125 33.675 5.4475 32.85 6 32 C6.66 32 7.32 32 8 32 C7.70620893 38.34588709 6.60769372 43.66333608 3 49 C0.17116253 50.41441874 -1.87376745 50.31900332 -5 50 C-8.06073589 47.14959904 -8.4010357 44.4009167 -8.61914062 40.31640625 C-8.64169922 39.63449219 -8.66425781 38.95257813 -8.6875 38.25 C-8.72166016 37.55261719 -8.75582031 36.85523438 -8.79101562 36.13671875 C-8.87308295 34.42502892 -8.93822919 32.7125424 -9 31 C-9.40089844 31.50789063 -9.80179687 32.01578125 -10.21484375 32.5390625 C-19.24782722 43.47696085 -31.69072825 49.56558085 -45.70703125 51.71875 C-50.22270151 52.10443002 -54.71912118 52.25131075 -59.25 52.3125 C-60.52822632 52.33920776 -60.52822632 52.33920776 -61.83227539 52.36645508 C-67.30723 52.35949289 -71.1817198 51.66503322 -76 49 C-78.21934455 45.67098317 -78.27129898 44.51206363 -78.25 40.625 C-78.25515625 39.68914062 -78.2603125 38.75328125 -78.265625 37.7890625 C-77.98635261 34.85670238 -77.22149016 32.66595075 -76 30 C-74.25372522 32.61941217 -73.61277612 34.03824877 -73 37 C-55.68488448 41.56304221 -34.124866 39.65577772 -18.41015625 30.66015625 C-9.84799894 24.76239797 -7.370818 17.40399489 -4.359375 7.828125 C-3.35062428 4.76658128 -2.2966408 2.34603092 0 0 Z " fill="#231F20" transform="translate(436,198)"/>
<path d="M0 0 C0.66 0 1.32 0 2 0 C1.1488189 13.05748031 1.1488189 13.05748031 0.4375 17.5625 C0.00525643 20.95869948 -0.20628776 24.26594871 -0.3125 27.6875 C-0.34988281 28.78449219 -0.38726562 29.88148438 -0.42578125 31.01171875 C-0.23519694 34.0976528 -0.23519694 34.0976528 1.83203125 36.390625 C3.95165013 38.28872039 3.95165013 38.28872039 7 38.0625 C10.19757012 37.24523743 10.19757012 37.24523743 11.9375 34.375 C12.618125 33.59125 13.29875 32.8075 14 32 C17.75 32.1875 17.75 32.1875 21 33 C21.185625 32.34 21.37125 31.68 21.5625 31 C24.12811822 25.64566632 27.57192075 20.8871828 33.25 18.8125 C36 19 36 19 37.875 20.0625 C39.44071111 22.75900247 39.20391303 24.94130459 39 28 C39.66 27.175 40.32 26.35 41 25.5 C45.02366618 22.14694485 46.90700467 22.56839023 52 23 C51.505 21.515 51.505 21.515 51 20 C49.12612784 19.19787372 49.12612784 19.19787372 46.9375 18.8125 C45.83728516 18.57466797 45.83728516 18.57466797 44.71484375 18.33203125 C44.14894531 18.22246094 43.58304688 18.11289063 43 18 C42.35615088 12.84920706 43.74712449 9.74894355 46.5703125 5.5859375 C48 4 48 4 50.5625 3.25 C53.66042752 4.20320847 54.98688312 5.4836039 57 8 C59.14166364 14.42499093 57.85517075 19.08460122 55.0703125 24.984375 C54 27 54 27 52 30 C50.783125 30.103125 49.56625 30.20625 48.3125 30.3125 C44.82928257 30.61782675 43.2595135 31.32680883 40.75 33.75 C35.20569918 38.99050352 27.66437838 42.27382009 20 42.375 C17.21909138 42.23806132 14.68445519 41.73103467 12 41 C11.773125 41.7425 11.54625 42.485 11.3125 43.25 C9.6826871 46.66484607 8.2433625 48.0539825 5 50 C1.5 50.5625 1.5 50.5625 -2 50 C-5.52372408 47.30599002 -6.85853242 45.85159761 -7.59375 41.42578125 C-7.59307895 40.05433159 -7.5600313 38.68263535 -7.5 37.3125 C-7.48227539 36.57572021 -7.46455078 35.83894043 -7.44628906 35.07983398 C-6.99642352 23.10153216 -5.36255867 10.83400177 0 0 Z M29 26 C26.73122465 28.41880929 26.73122465 28.41880929 25 31 C25.33 31.66 25.66 32.32 26 33 C29.96 30.525 29.96 30.525 34 28 C33.67 27.34 33.34 26.68 33 26 C31.68 26 30.36 26 29 26 Z " fill="#231F20" transform="translate(81,200)"/>
<path d="M0 0 C0.495 0.99 0.495 0.99 1 2 C-3.31554475 12.89626231 -11.72120171 22.62986667 -20.68359375 30.03515625 C-23.83145986 32.70526865 -26.80759606 35.54614419 -29.8125 38.375 C-35.67282872 43.86096461 -41.70466098 49.0149104 -48 54 C-48.88558594 54.74121094 -49.77117187 55.48242188 -50.68359375 56.24609375 C-53 58 -53 58 -55 58 C-53.63032594 51.91255975 -50.18859854 48.3758936 -46 44 C-45.42765625 43.39929688 -44.8553125 42.79859375 -44.265625 42.1796875 C-40.66666795 38.49818556 -36.86750847 35.10893038 -32.96875 31.75 C-30.49286286 29.54921143 -28.19085469 27.2048501 -25.87304688 24.84008789 C-24.0781961 23.07682012 -22.22678591 21.44042382 -20.3125 19.80859375 C-15.83989232 15.92031062 -11.66388998 11.77651088 -7.5 7.5625 C-6.77296875 6.83095703 -6.0459375 6.09941406 -5.296875 5.34570312 C-3.52890501 3.56610176 -1.76333622 1.78419082 0 0 Z " fill="#231F20" transform="translate(489,140)"/>
<path d="M0 0 C0.33 0 0.66 0 1 0 C1.19652779 5.60104199 0.80524293 10.82336037 0 16.375 C-1.49888215 25.67366422 -1.49888215 25.67366422 -1 35 C1.30317533 37.30487721 1.30317533 37.30487721 4 38 C4.268125 37.195625 4.53625 36.39125 4.8125 35.5625 C5.204375 34.716875 5.59625 33.87125 6 33 C7.485 32.505 7.485 32.505 9 32 C8.04372719 39.07138577 7.20709446 44.79290554 2 50 C-0.33297433 50.04092937 -2.66705225 50.04241723 -5 50 C-11.73994828 39.89007759 -7.44071078 24.56393328 -5.47949219 13.33691406 C-4.56965506 8.9026162 -3.31917548 3.31917548 0 0 Z " fill="#231F20" transform="translate(464,198)"/>
<path d="M0 0 C3.99462993 2.10827691 6.69462893 4.07233077 9 8 C10.25197695 14.50016318 8.64054033 20.54941574 5 26 C0.22278665 31.04143975 -4.14281185 32.75510042 -11 33 C-11 32.34 -11 31.68 -11 31 C-8.25232843 28.61445977 -5.37941071 26.42056488 -2.50390625 24.19140625 C0.22123332 22.17900709 0.22123332 22.17900709 1 19 C-1.47051729 15.4131585 -1.47051729 15.4131585 -5 13 C-4.48474397 7.71862571 -2.74522883 4.42778844 0 0 Z " fill="#231F20" transform="translate(61,217)"/>
<path d="M0 0 C3.00170365 0.3245085 4.63461035 0.6817574 6.9375 2.6875 C8 5 8 5 7.375 8.0625 C6.14116205 10.69842653 5.2199521 12.18367556 3 14 C1.02 13.34 -0.96 12.68 -3 12 C-3.99 13.485 -3.99 13.485 -5 15 C-8.19834873 15.50500243 -9.5786377 15.27331609 -12.3125 13.5 C-12.869375 13.005 -13.42625 12.51 -14 12 C-12.77472971 7.94718288 -11.30119506 4.55639236 -9 1 C-8.21625 1.33 -7.4325 1.66 -6.625 2 C-4.15667503 3.11866511 -4.15667503 3.11866511 -2 3 C-1.34 2.01 -0.68 1.02 0 0 Z " fill="#231F20" transform="translate(118,171)"/>
<path d="M0 0 C4.875 2.875 4.875 2.875 6 4 C5.83460061 8.38308384 5.67528435 10.35765635 2.4375 13.4375 C1.2309375 14.2109375 1.2309375 14.2109375 0 15 C-1.32 14.01 -2.64 13.02 -4 12 C-4.5775 12.680625 -5.155 13.36125 -5.75 14.0625 C-8 16 -8 16 -10.0625 15.9375 C-12.28378936 14.86268257 -13.57348575 14.02715183 -15 12 C-14.86443822 8.06870833 -12.19277917 5.11233172 -10 2 C-5.25 3.875 -5.25 3.875 -3 5 C-2.690625 4.360625 -2.38125 3.72125 -2.0625 3.0625 C-1 1 -1 1 0 0 Z " fill="#231F20" transform="translate(142,160)"/>
<path d="M0 0 C0.33 0 0.66 0 1 0 C1.63148372 32.48632891 1.63148372 32.48632891 -4.4765625 39.7578125 C-6 41 -6 41 -8 41 C-7.84144531 39.89398438 -7.68289062 38.78796875 -7.51953125 37.6484375 C-7.00337805 33.53909872 -6.86058488 29.47255176 -6.76000977 25.33520508 C-6.24938102 6.24938102 -6.24938102 6.24938102 0 0 Z " fill="#231F20" transform="translate(151,199)"/>
<path d="M0 0 C3.65316671 1.24976756 4.78065836 1.67098753 7 5 C6.68609175 8.97617113 5.16754953 11.70155506 3 15 C0.0280615 13.87548273 -2.33440687 12.77706209 -5 11 C-4.54663921 6.12637153 -3.2910841 3.60957611 0 0 Z " fill="#231F20" transform="translate(464,253)"/>
<path d="M0 0 C2.34982419 0.22740234 3.81152204 0.88301368 5.8125 2.125 C7 4 7 4 6.8125 7.5 C6 11 6 11 4 14 C0.26512223 13.5020163 -1.81237635 13.12508244 -5 11 C-4.54917531 9.53932801 -4.08906463 8.08151968 -3.625 6.625 C-3.36976563 5.81289062 -3.11453125 5.00078125 -2.8515625 4.1640625 C-2 2 -2 2 0 0 Z " fill="#231F20" transform="translate(448,203)"/>
</svg>
