<?xml version="1.0" encoding="UTF-8"?>
<svg version="1.1" xmlns="http://www.w3.org/2000/svg" width="500" height="402">
<path d="M0 0 C1.58554687 0.67869141 1.58554687 0.67869141 3.203125 1.37109375 C12.2954979 5.57215086 21.10477269 11.67531217 28 19 C26.70843923 21.75615902 25.28628756 24.06993495 23.3828125 26.44140625 C22.86420654 27.0977002 22.34560059 27.75399414 21.8112793 28.43017578 C21.25480713 29.13384277 20.69833496 29.83750977 20.125 30.5625 C4.93400269 50.1250226 -6.11057372 71.40003665 -16 94 C-18.4444241 91.67253193 -20.15228701 89.25961139 -21.90405273 86.36743164 C-32.35527369 69.15516242 -46.69408683 56.06936823 -66.46875 50.5625 C-73.8494281 48.71536028 -73.8494281 48.71536028 -81 50 C-80.5153125 50.87914062 -80.030625 51.75828125 -79.53125 52.6640625 C-74.62607246 62.05062013 -71.50350732 71.56395874 -68.875 81.8125 C-68.70849945 82.46137177 -68.5419989 83.11024353 -68.37045288 83.77877808 C-67.54803085 86.99479934 -66.73231689 90.21246274 -65.91845703 93.43066406 C-62.86732469 105.28806832 -59.66087905 117.09326235 -54 128 C-53.48824219 129.04285156 -52.97648437 130.08570313 -52.44921875 131.16015625 C-48.48731223 138.94735182 -43.82627788 145.50186305 -38 152 C-37.45988281 152.62261719 -36.91976562 153.24523437 -36.36328125 153.88671875 C-30.58379046 160.1320627 -22.61377397 166.19311302 -15 170 C-14.91024902 169.35264893 -14.82049805 168.70529785 -14.72802734 168.03833008 C-10.67096802 139.38882211 -2.75767387 112.54257362 11 87 C11.35175293 86.33661621 11.70350586 85.67323242 12.06591797 84.98974609 C20.06880998 69.95869633 29.76347342 56.75978811 41 44 C41.44988281 43.48163574 41.89976562 42.96327148 42.36328125 42.42919922 C55.24574375 27.62086427 72.29688406 12.95010048 91 6 C93.8359375 5.8515625 93.8359375 5.8515625 96 6 C95.67357902 10.02585875 94.53917229 13.15830026 92.8125 16.75 C84.4710726 34.59500679 80.47579531 54.22740833 75.75805664 73.24707031 C65.45733905 114.64506083 53.19464354 154.12276678 15.55078125 178.26171875 C3.26333435 185.61737397 -9.91127688 190.42091681 -24 193 C-24.71671875 193.13148438 -25.4334375 193.26296875 -26.171875 193.3984375 C-52.99498306 197.2451623 -81.10729257 190.74613532 -102.93261719 174.56738281 C-124.09651722 157.92076467 -139.1359042 135.02617668 -142.72265625 107.94140625 C-145.91636127 80.43119991 -140.46753823 54.50290464 -124 32 C-121.15407421 28.50034687 -118.14115268 25.23467211 -115 22 C-114.31550781 21.24203125 -113.63101563 20.4840625 -112.92578125 19.703125 C-84.54621285 -10.72229029 -36.87770359 -16.10431906 0 0 Z " fill="#289925" transform="translate(295,29)"/>
<path d="M0 0 C0.99 0.33 1.98 0.66 3 1 C2.41509286 9.12713084 1.50245504 17.16812176 0.40234375 25.23828125 C-0.2155657 31.01543465 -0.11247204 36.29858082 1 42 C2.65 42 4.3 42 6 42 C7.32 39.69 8.64 37.38 10 35 C10.33 35 10.66 35 11 35 C11.50231855 41.78130041 10.2648973 47.0002212 7 53 C4.45462973 55.74116798 3.05601102 56.7681927 -0.5625 57.5625 C-3 57 -3 57 -5.10546875 55.046875 C-7.67969532 50.90688175 -7.66690713 47.47289415 -7.75 42.6875 C-7.77964844 41.85154297 -7.80929687 41.01558594 -7.83984375 40.15429688 C-7.91016107 38.10337515 -7.95738973 36.05168438 -8 34 C-8.37769531 34.556875 -8.75539063 35.11375 -9.14453125 35.6875 C-18.95933433 49.29490848 -33.83719148 56.38772367 -50.0859375 59.46875 C-76.92192095 63.11115893 -76.92192095 63.11115893 -86.73046875 57.4140625 C-89.35452987 54.6228925 -89.55206912 52.97919357 -89.48828125 49.20507812 C-89.45089844 48.49802734 -89.41351563 47.79097656 -89.375 47.0625 C-89.36082031 46.35931641 -89.34664063 45.65613281 -89.33203125 44.93164062 C-89.22691183 41.19289323 -88.86856219 37.63799408 -88 34 C-86 35 -86 35 -85.3671875 36.84765625 C-85.20476562 37.57855469 -85.04234375 38.30945313 -84.875 39.0625 C-84.70742188 39.79597656 -84.53984375 40.52945313 -84.3671875 41.28515625 C-84.24601562 41.85105469 -84.12484375 42.41695313 -84 43 C-64.98291822 49.72456923 -41.17750125 44.85549249 -23.28759766 36.70214844 C-13.20927694 31.8289446 -8.96902162 26.26876168 -5.20507812 15.78613281 C-3.38635316 10.55047307 -1.67475971 5.2832626 0 0 Z " fill="#1F1A17" transform="translate(435,297)"/>
<path d="M0 0 C2.75 0.375 2.75 0.375 3.75 1.375 C4.6301243 6.9899702 4.22841443 11.36626871 1.125 16.1875 C-2.02728123 20.40797132 -5.48392101 23.9919605 -10.25 26.375 C-12.9223621 26.50915472 -15.57250488 26.41818541 -18.25 26.375 C-18.34796875 27.02984375 -18.4459375 27.6846875 -18.546875 28.359375 C-20.82867774 42.28623997 -25.43864443 56.63289937 -36.25 66.375 C-43.91918825 71.67982192 -49.88033503 74.16433215 -59.25 73.375 C-64.4822277 71.6309241 -66.57310953 69.1339164 -69.25 64.375 C-72.7564635 53.8556095 -69.39983191 43.16213603 -65.25 33.375 C-63.48771241 29.87627745 -61.70809878 26.43861284 -59.25 23.375 C-58.59 23.375 -57.93 23.375 -57.25 23.375 C-58.30452102 28.03246784 -59.59619828 32.3156113 -61.375 36.75 C-63.32018067 42.03501917 -64.32698717 46.77869286 -63.25 52.375 C-61.84129703 55.78581081 -61.84129703 55.78581081 -58.25 57.375 C-51.34243862 58.32042455 -44.08245411 58.51743413 -37.98828125 54.74609375 C-30.27881757 48.66514599 -27.23244133 41.93477261 -25.25 32.375 C-24.8833868 29.25145554 -24.63566671 26.17366794 -24.5234375 23.03125 C-24.2290849 20.17182473 -23.43102112 17.98269463 -22.25 15.375 C-20.7340625 15.4059375 -20.7340625 15.4059375 -19.1875 15.4375 C-16.3929715 15.05925069 -15.40083609 14.5296628 -13.40234375 12.48046875 C-11.63814446 10.14242002 -9.93693404 7.76922686 -8.25 5.375 C-4.15356212 0.47925717 -4.15356212 0.47925717 0 0 Z M-4.25 7.375 C-7.48014784 9.52843189 -9.00686537 10.64559611 -10.25 14.375 C-6.46213403 13.8489075 -4.07847776 12.99396089 -1.25 10.375 C-1.25 9.715 -1.25 9.055 -1.25 8.375 C-2.24 8.045 -3.23 7.715 -4.25 7.375 Z " fill="#1F1A17" transform="translate(310.25,301.625)"/>
<path d="M0 0 C0.66 0 1.32 0 2 0 C-0.76559865 42.76559865 -0.76559865 42.76559865 -15 57 C-15.72832031 57.44472656 -16.45664062 57.88945312 -17.20703125 58.34765625 C-21.40547087 60.99965931 -23.6195528 62.68350911 -25.03515625 67.58203125 C-25.39910232 69.64773205 -25.69115722 71.71462251 -25.97143555 73.79321289 C-26.99326904 81.1054703 -29.33661224 88.95044192 -35.19140625 93.82421875 C-35.78824219 94.21222656 -36.38507812 94.60023438 -37 95 C-36.37922374 88.52432348 -35.33183542 82.28837757 -33.9375 75.9375 C-33.75123047 75.07189453 -33.56496094 74.20628906 -33.37304688 73.31445312 C-32.91933733 71.20877549 -32.46023996 69.10425993 -32 67 C-32.86882813 66.97421875 -33.73765625 66.9484375 -34.6328125 66.921875 C-42.69998025 66.52483319 -47.08225249 66.05766707 -52.75 60.1875 C-57.42140859 52.01253497 -56.30851207 43.7860051 -53.98657227 35.07348633 C-51.72810646 27.27073088 -47.90127453 16.60084969 -41 12 C-41.38725455 17.80881831 -43.30504272 22.2315849 -45.84375 27.44921875 C-48.50506501 33.32029544 -49.19630888 39.7629289 -46.9375 45.875 C-43.56964956 49.56877146 -40.32867061 50.87875222 -35.44921875 51.1328125 C-26.59584649 50.70704919 -19.25582746 47.72655401 -13.0625 41.3125 C-7.79663856 34.64653893 -6.9676423 27.93588835 -6.6875 19.625 C-6.34474493 11.96754017 -3.94943182 6.48576418 0 0 Z " fill="#1F1A17" transform="translate(73,264)"/>
<path d="M0 0 C1.81208033 4.82081749 -0.37618347 8.30146011 -2.36328125 12.765625 C-7.4032975 22.72537072 -13.26107409 28.64286288 -23 34 C-26.65393846 35.8651253 -26.65393846 35.8651253 -29 39 C-24.05 39 -19.1 39 -14 39 C-16.3663019 43.7326038 -18.51215389 47.19474143 -22 51 C-22.48130371 51.5254541 -22.96260742 52.0509082 -23.45849609 52.59228516 C-27.31926992 56.63122924 -31.32193862 59.2644199 -36.37109375 61.69921875 C-39.0035253 63.00174432 -41.28969391 64.4971084 -43.6875 66.1875 C-46.45160109 68.10073011 -48.85248007 69.39450753 -52.0625 70.375 C-56.48964535 71.83013742 -59.00630928 74.72713281 -62.04296875 78.16015625 C-66.10756234 81.981361 -69.91940675 82.1752129 -75.23828125 82.02929688 C-76.74625708 81.96809233 -78.25407962 81.90298686 -79.76171875 81.83398438 C-84.46705337 81.713228 -87.04686394 82.17527778 -91 85 C-91.66 85 -92.32 85 -93 85 C-92.66214747 79.59435956 -89.50527704 75.87852414 -86 72 C-80.73941396 67.57402617 -76.4973207 66.95430069 -69.75 67.25 C-64.2387064 67.37952358 -60.6957111 67.0467356 -56.5546875 63.23828125 C-54.64894956 61.7203945 -53.05506003 61.33066705 -50.6875 60.8125 C-46.98463835 60.34356453 -46.98463835 60.34356453 -45 58 C-41.71547748 56.49089506 -38.55739213 55.60983865 -35 55 C-34.67 54.01 -34.34 53.02 -34 52 C-32.00854609 50.98308736 -30.00812926 49.98357352 -28 49 C-27.34 48.01 -26.68 47.02 -26 46 C-26.61488281 46.01160156 -27.22976562 46.02320313 -27.86328125 46.03515625 C-28.67152344 46.04417969 -29.47976562 46.05320312 -30.3125 46.0625 C-31.11300781 46.07410156 -31.91351563 46.08570313 -32.73828125 46.09765625 C-35 46 -35 46 -38 45 C-37.65755258 39.52084136 -34.65555124 35.84199101 -31 32 C-27.83467144 29.26635478 -24.4888867 26.77351821 -21.12109375 24.296875 C-19.11394768 22.81977627 -17.14308835 21.29133045 -15.22265625 19.703125 C-13 18 -13 18 -11 18 C-10.75378906 17.47792969 -10.50757813 16.95585937 -10.25390625 16.41796875 C-8.63145589 13.28931837 -6.79129506 10.30709202 -4.9375 7.3125 C-4.57333984 6.71888672 -4.20917969 6.12527344 -3.83398438 5.51367188 C-1.12948754 1.12948754 -1.12948754 1.12948754 0 0 Z " fill="#1F1A17" transform="translate(248,277)"/>
<path d="M0 0 C7.39449541 0.59633028 7.39449541 0.59633028 11 3 C11.76131359 6.04525435 11.93730621 7.09222051 11 10 C8.95846096 12.73055846 6.74188409 15.13330156 4.359375 17.5703125 C-0.46011325 22.53342788 -3.60799586 27.70759618 -6.75 33.8125 C-7.36681641 34.99489258 -7.36681641 34.99489258 -7.99609375 36.20117188 C-9.00225178 38.13159136 -10.00179969 40.06545367 -11 42 C-11.33 42 -11.66 42 -12 42 C-12 39.03 -12 36.06 -12 33 C-14.1965625 32.814375 -14.1965625 32.814375 -16.4375 32.625 C-17.26121094 32.55539062 -18.08492187 32.48578125 -18.93359375 32.4140625 C-27.42030799 34.03572764 -32.97575825 40.77764495 -38 47.3125 C-39.21309191 48.82927045 -40.42922239 50.34361588 -41.6484375 51.85546875 C-42.22561523 52.57395996 -42.80279297 53.29245117 -43.39746094 54.03271484 C-51.13964759 63.53706281 -60.70956346 71.48604707 -73 74 C-71.50850575 69.42048245 -67.74726267 67.64544536 -63.875 65.25 C-53.10102576 58.28197319 -46.34190441 50.03415876 -39.10595703 39.59326172 C-27.41500027 22.75105778 -27.41500027 22.75105778 -19 20 C-14.16467287 19.63126282 -9.62721488 19.45759504 -5 21 C-4.690625 20.38125 -4.38125 19.7625 -4.0625 19.125 C-3.375 17.75 -2.6875 16.375 -2 15 C-3.32 14.67 -4.64 14.34 -6 14 C-5.5414571 8.26821381 -4.14522 4.14522 0 0 Z " fill="#1F1A17" transform="translate(165,292)"/>
<path d="M0 0 C5.3980194 0.35204474 5.3980194 0.35204474 7.63671875 2.76171875 C10.00413795 6.64862763 10.21832915 10.5114095 10 15 C7.97723644 22.85241359 4.62875815 28.47201778 -2.375 32.625 C-7.29876731 35.71947897 -9.07534741 39.40069482 -11.625 44.5 C-13.57514311 48.04571474 -15.26077264 49.44786789 -19 51 C-22.66530991 51.57793268 -26.29338218 51.86809189 -30 52 C-30 50.68 -30 49.36 -30 48 C-27.76953125 46.25390625 -27.76953125 46.25390625 -24.8125 44.5625 C-17.7908453 40.31538661 -13.88025736 35.88679782 -9.47265625 29.078125 C-7.63728902 26.48816382 -5.60207017 24.80143319 -3 23 C-1.29705213 21.71332828 0.37946188 20.38903267 2 19 C2 18.34 2 17.68 2 17 C0.865625 17.020625 -0.26875 17.04125 -1.4375 17.0625 C-5 17 -5 17 -6 16 C-6.90148809 9.99007943 -4.13454572 5.88166956 -1 1 C-0.67 0.67 -0.34 0.34 0 0 Z " fill="#1F1A17" transform="translate(338,298)"/>
<path d="M0 0 C0.33 0 0.66 0 1 0 C1.20388308 7.02169536 0.62953056 13.63776533 -0.5 20.5625 C-1.82348151 28.71204603 -3.09794588 36.87045972 -1 45 C0.65 45 2.3 45 4 45 C5.32 42.69 6.64 40.38 8 38 C8.33 38 8.66 38 9 38 C9.45290525 45.09551557 7.83423002 50.85560568 4.25 57 C1.15141836 59.75429479 -0.88366908 60.14701182 -5 60 C-8.05814939 57.19260796 -8.93405955 55.4854671 -9.49609375 51.34765625 C-9.50215959 49.91915019 -9.48093057 48.49035859 -9.4375 47.0625 C-9.42428711 46.2876123 -9.41107422 45.51272461 -9.39746094 44.71435547 C-8.96971869 30.2994417 -8.23074139 12.34611209 0 0 Z " fill="#1F1A17" transform="translate(466,294)"/>
<path d="M0 0 C1 3 1 3 -0.08203125 5.3828125 C-6.7454763 15.94204145 -15.69827876 22.92437121 -25.5390625 30.3671875 C-29.88218095 33.6551557 -34.14951841 37.03861543 -38.41894531 40.42138672 C-40.89841091 42.37920038 -43.36946503 44.24631002 -46 46 C-46.99 45.67 -47.98 45.34 -49 45 C-44.48320543 35.27813739 -37.18343903 29.51718101 -29 23 C-28.09378906 22.26652344 -27.18757813 21.53304688 -26.25390625 20.77734375 C-24.65292141 19.48887115 -23.04631186 18.20734976 -21.43359375 16.93359375 C-18.72111086 14.77841071 -16.04812674 12.57877115 -13.375 10.375 C-9.00604054 6.78909728 -4.56346804 3.33433911 0 0 Z " fill="#1F1A17" transform="translate(485,250)"/>
<path d="M0 0 C1.60165905 4.83788794 0.07443617 8.51342875 -2 13 C-4.63857952 16.2982244 -6.68851946 17.84982188 -10.5 19.6875 C-15.39767748 22.29604562 -16.92262005 27.101104 -19 32 C-21.04921894 36.61074261 -22.7834261 39.15381262 -27 42 C-30.14930893 43.04976964 -32.38814456 43.10131595 -35.6875 43.0625 C-36.68136719 43.05347656 -37.67523438 43.04445313 -38.69921875 43.03515625 C-39.83810547 43.01775391 -39.83810547 43.01775391 -41 43 C-39.61817332 38.85451997 -36.67099036 37.45666289 -33.1875 35.125 C-26.51950604 30.66147078 -22.56612248 26.66231384 -19.375 19.125 C-16.64266541 13.46615476 -13.70633179 10.7888626 -8.4140625 7.53515625 C-5.09112398 5.42202544 -2.66770048 2.87830841 0 0 Z " fill="#1F1A17" transform="translate(94,312)"/>
<path d="M0 0 C5.875 3.875 5.875 3.875 7 5 C7.5630558 8.82073577 7.86056609 12.51356766 5.8828125 15.9296875 C4.5 17.5625 4.5 17.5625 2 20 C-1.36591866 18.55746343 -3.51047079 16.66735273 -6 14 C-6.598125 14.969375 -7.19625 15.93875 -7.8125 16.9375 C-10 20 -10 20 -13 21 C-14.82421875 19.78515625 -14.82421875 19.78515625 -16.6875 18.0625 C-17.31011719 17.49660156 -17.93273438 16.93070312 -18.57421875 16.34765625 C-19.04472656 15.90292969 -19.51523437 15.45820313 -20 15 C-19.41892368 11.2397015 -18.34800504 8.46964968 -16.4375 5.1875 C-15.98246094 4.39730469 -15.52742188 3.60710937 -15.05859375 2.79296875 C-14.53458984 1.90544922 -14.53458984 1.90544922 -14 1 C-9.58110387 2.35021826 -7.65654657 4.26115668 -5 8 C-3.35 5.36 -1.7 2.72 0 0 Z " fill="#1F1A17" transform="translate(68,365)"/>
<path d="M0 0 C3.057952 1.73559438 5.63379989 3.38472619 8 6 C9.32 4.02 10.64 2.04 12 0 C15.65316671 1.24976756 16.78065836 1.67098753 19 5 C19.64519961 10.69926325 18.50086663 13.51451463 15 18 C11.9168649 16.80100302 8.93720508 15.52299523 6 14 C4.35 15.65 2.7 17.3 1 19 C-1.31 17.02 -3.62 15.04 -6 13 C-3 3.28571429 -3 3.28571429 0 0 Z " fill="#1F1A17" transform="translate(331,271)"/>
<path d="M0 0 C0.66 0 1.32 0 2 0 C-0.40496546 31.00548824 -0.40496546 31.00548824 -8 42 C-9.3121539 42.70744213 -10.6443308 43.38001351 -12 44 C-11.36773653 37.21185264 -10.20426398 30.70583402 -8.6875 24.0625 C-8.38682617 22.67514648 -8.38682617 22.67514648 -8.08007812 21.25976562 C-6.38653473 13.77776432 -4.28702206 6.43053308 0 0 Z " fill="#1F1A17" transform="translate(120,274)"/>
<path d="M0 0 C0.33 0 0.66 0 1 0 C-0.27389291 32.63801496 -0.27389291 32.63801496 -9 45 C-10.485 45.495 -10.485 45.495 -12 46 C-10.48830676 30.47669845 -8.67018046 13.31811225 0 0 Z " fill="#1F1A17" transform="translate(265,275)"/>
<path d="M0 0 C3.91020436 1.30340145 6.50108551 2.66811401 9 6 C9.69222294 9.98028188 9.14642632 11.7228359 7.25 15.3125 C5 18 5 18 3.09375 18.8203125 C0.3206948 19.05829858 -0.59366429 18.26268777 -2.75 16.5625 C-3.36359375 16.08941406 -3.9771875 15.61632812 -4.609375 15.12890625 C-5.06828125 14.75636719 -5.5271875 14.38382812 -6 14 C-5.57202798 8.29370646 -3.15654048 4.58921384 0 0 Z " fill="#1F1A17" transform="translate(46,277)"/>
<path d="M0 0 C2.97752446 0.33083605 4.81374721 0.87415352 7.3125 2.5625 C9.26700014 5.38566687 9.62006488 7.53849367 9.47265625 10.9609375 C8.64541221 14.52970929 6.55432354 16.44567646 4 19 C-0.37859255 18.49477778 -2.81651224 15.82172778 -6 13 C-5.37935063 11.39414507 -4.7533082 9.79037383 -4.125 8.1875 C-3.77695312 7.29417969 -3.42890625 6.40085937 -3.0703125 5.48046875 C-2 3 -2 3 0 0 Z " fill="#1F1A17" transform="translate(459,370)"/>
<path d="M0 0 C2.5934165 0.37048807 4.08065587 1.05601102 6.25 2.5625 C8.28750575 5.40045443 8.56228227 7.48921945 8.40625 10.9609375 C7.73927402 14.30864384 6.11592826 16.35508968 4 19 C0.96997794 18.66333088 -0.84001182 18.1094656 -3.375 16.375 C-5 14 -5 14 -5 10.6875 C-3.8683808 6.5146542 -2.30198902 3.63862781 0 0 Z " fill="#1F1A17" transform="translate(424,271)"/>
<path d="M0 0 C5.875 3.75 5.875 3.75 7 6 C6.984375 8.05859375 6.984375 8.05859375 6.75 10.4375 C6.68296875 11.21996094 6.6159375 12.00242187 6.546875 12.80859375 C5.90040312 15.39909893 5.11446681 16.400002 3 18 C0.5625 18 0.5625 18 -2 17 C-3.32 15.35 -4.64 13.7 -6 12 C-4.02 8.04 -2.04 4.08 0 0 Z " fill="#1F1A17" transform="translate(298,271)"/>
<path d="M0 0 C3.35760377 0.27223814 4.64317461 0.58370371 6.875 3.1875 C8.28679455 6.71698638 8.12943659 8.38580291 7 12 C4.9375 14.875 4.9375 14.875 3 17 C-3.18204489 14.82793017 -3.18204489 14.82793017 -5 12 C-4.88904122 7.00685503 -2.91537089 3.94985734 0 0 Z " fill="#1F1A17" transform="translate(203,277)"/>
</svg>
