<?xml version="1.0" encoding="UTF-8"?>
<svg version="1.1" xmlns="http://www.w3.org/2000/svg" width="258" height="196">
<path d="M0 0 C85.14 0 170.28 0 258 0 C258 64.68 258 129.36 258 196 C172.86 196 87.72 196 0 196 C0 131.32 0 66.64 0 0 Z " fill="#FEFEFE" transform="translate(0,0)"/>
<path d="M0 0 C4.38566355 1.09641589 7.85676762 2.98337902 11.75 5.1875 C12.52206787 5.62094727 13.29413574 6.05439453 14.08959961 6.50097656 C20.9430121 10.36641703 27.75737386 14.30031488 34.5625 18.25 C35.56055664 18.8277417 36.55861328 19.4054834 37.58691406 20.00073242 C42.1319173 22.65325231 46.65007414 25.34616418 51.08984375 28.171875 C51.79874756 28.62143555 52.50765137 29.07099609 53.23803711 29.53417969 C55.38143015 31.31732113 56.11654482 32.34021833 57 35 C57.22769506 37.8143472 57.35163739 40.52785806 57.37109375 43.34375 C57.38463646 44.55291077 57.38463646 44.55291077 57.39845276 45.78649902 C57.41293386 47.48767391 57.42183668 49.18890422 57.42553711 50.89013672 C57.43746109 53.49151018 57.48668575 56.09053122 57.53710938 58.69140625 C57.54657113 60.34634261 57.55380735 62.00129351 57.55859375 63.65625 C57.57812607 64.43238647 57.59765839 65.20852295 57.61778259 66.00817871 C57.58685196 69.71083421 57.41900207 71.55585308 54.83569336 74.29418945 C53.89991455 74.85710693 52.96413574 75.42002441 52 76 C50.59258545 76.89851685 50.59258545 76.89851685 49.15673828 77.81518555 C46.40889285 79.43689689 43.65951438 81.05557012 40.89892578 82.65551758 C39.13029218 83.68442127 37.37194995 84.72956963 35.61328125 85.77539062 C34.48535156 86.43087891 33.35742188 87.08636719 32.1953125 87.76171875 C31.17453613 88.35944092 30.15375977 88.95716309 29.10205078 89.57299805 C24.4159051 91.72871358 20.63506512 92.52445485 15.6875 90.9375 C10.95029169 88.62297356 6.47336699 85.78122817 2 83 C5.64298103 79.93868926 9.37637065 77.50008471 13.5078125 75.14453125 C14.115112 74.79742599 14.7224115 74.45032074 15.34811401 74.09269714 C16.6226633 73.36547674 17.89840982 72.64035099 19.17529297 71.91723633 C21.12907163 70.81019295 23.07843384 69.69566611 25.02734375 68.58007812 C34.5759573 63.14134757 34.5759573 63.14134757 38 62 C35.84672147 59.62495524 33.9104305 58.33809653 30.98828125 57.046875 C21.45396688 52.46659564 21.45396688 52.46659564 18 49 C16.90090452 44.82343719 17.14023324 41.77196065 17.6484375 37.50390625 C18.13279374 32.67648908 16.96155172 29.75064938 14 26 C10.05337634 21.94061567 5.15250362 20.15328509 0 18 C0 12.06 0 6.12 0 0 Z " fill="#E0083C" transform="translate(130,27)"/>
<path d="M0 0 C0.66 0.33 1.32 0.66 2 1 C2 14.53 2 28.06 2 42 C8.08098849 38.34842873 8.08098849 38.34842873 14.14550781 34.66967773 C15.28777832 33.99594116 15.28777832 33.99594116 16.453125 33.30859375 C17.22817383 32.84251709 18.00322266 32.37644043 18.80175781 31.89624023 C21.41066615 30.83256825 22.42287121 30.94636167 25 32 C26.68704193 33.30745749 28.35360035 34.64172029 30 36 C34.94757233 39.04383254 40.38571472 38.5966526 46 38 C49.73242751 36.79541688 52.88183401 35.29707255 55.46484375 32.30078125 C57 31 57 31 58.796875 31.1015625 C61.75923737 32.30961807 64.47331823 33.78545029 67.25 35.375 C68.32765625 35.98085937 69.4053125 36.58671875 70.515625 37.2109375 C71.33546875 37.80132812 72.1553125 38.39171875 73 39 C73 39.99 73 40.98 73 42 C72.42894531 42.32049316 71.85789062 42.64098633 71.26953125 42.97119141 C58.68811525 50.03948692 46.16261223 57.19290625 33.72070312 64.50439453 C32.29081055 65.34333252 32.29081055 65.34333252 30.83203125 66.19921875 C29.99389893 66.69252686 29.1557666 67.18583496 28.29223633 67.6940918 C23.76707686 70.27211693 21.10475044 71.50811536 15.69775391 70.75292969 C9.87450881 69.12769097 4.82363952 65.73241112 -0.3125 62.625 C-1.48940802 61.93088862 -2.6671381 61.23816913 -3.84570312 60.546875 C-6.91858454 58.728267 -9.97983052 56.90485759 -13 55 C-13.76787842 54.61489258 -14.53575684 54.22978516 -15.3269043 53.83300781 C-18.11401191 50.77951242 -17.56891203 47.05758061 -17.53125 43.1328125 C-17.5350769 42.26107391 -17.53890381 41.38933533 -17.54284668 40.49118042 C-17.54556853 38.64694057 -17.5381882 36.8026623 -17.52148438 34.95849609 C-17.50012906 32.14202144 -17.52124902 29.32811257 -17.546875 26.51171875 C-17.54423076 24.71874439 -17.53910379 22.92577161 -17.53125 21.1328125 C-17.53934692 20.29307892 -17.54744385 19.45334534 -17.55578613 18.58816528 C-17.49229807 14.60641908 -17.31588219 12.50638629 -15.16455078 9.05761719 C-12.45848727 6.48523919 -9.67701602 4.86172626 -6.375 3.125 C-5.22773437 2.50882813 -4.08046875 1.89265625 -2.8984375 1.2578125 C-1.94195312 0.84273437 -0.98546875 0.42765625 0 0 Z " fill="#D9083B" transform="translate(88,48)"/>
<path d="M0 0 C3.16470774 1.28435283 6.0699193 2.73687822 9.04980469 4.40405273 C10.67885742 5.31477539 10.67885742 5.31477539 12.34082031 6.24389648 C14.02014648 7.19329102 14.02014648 7.19329102 15.73339844 8.16186523 C16.85681641 8.78706055 17.98023438 9.41225586 19.13769531 10.05639648 C33.63207621 18.20356483 33.63207621 18.20356483 35.17089844 23.28686523 C35.39378754 26.20985385 35.35904769 29.10771157 35.29589844 32.03686523 C35.286875 32.82963867 35.27785156 33.62241211 35.26855469 34.43920898 C35.24506855 36.38855805 35.20919981 38.33775098 35.17089844 40.28686523 C30.9264929 39.69366065 27.92345196 38.20951945 24.24121094 36.04858398 C22.55318359 35.06535156 22.55318359 35.06535156 20.83105469 34.06225586 C19.65255167 33.36649147 18.47416709 32.67052644 17.29589844 31.97436523 C16.12571142 31.2894607 14.95514161 30.60520972 13.78417969 29.92163086 C11.61183536 28.65174043 9.44122035 27.37888353 7.27294922 26.10205078 C3.91947688 24.13974425 0.54438045 22.21456924 -2.82910156 20.28686523 C-2.82910156 28.53686523 -2.82910156 36.78686523 -2.82910156 45.28686523 C-5.79910156 46.27686523 -8.76910156 47.26686523 -11.82910156 48.28686523 C-16.58186267 51.1385219 -19.46280336 54.92615404 -20.82910156 60.28686523 C-20.68140319 62.7895321 -20.49021608 65.28983644 -20.26660156 67.78686523 C-20.11816406 71.69702148 -20.11816406 71.69702148 -20.82910156 75.28686523 C-25.13891954 79.55419205 -30.57981591 83.28686523 -36.82910156 83.28686523 C-36.92188216 75.2894826 -36.9929067 67.29232575 -37.03635025 59.29453754 C-37.05720368 55.58060475 -37.08547911 51.86704083 -37.13085938 48.15332031 C-37.17439902 44.56768875 -37.19825556 40.98241144 -37.20861053 37.39653587 C-37.2159875 36.03018812 -37.23039337 34.66385922 -37.25202179 33.29766273 C-37.28115728 31.38060118 -37.28273632 29.46318132 -37.28320312 27.54589844 C-37.29208557 26.45557816 -37.30096802 25.36525787 -37.31011963 24.24189758 C-36.71253744 20.57077833 -35.37872708 18.94434156 -32.82910156 16.28686523 C-30.37475586 14.58935547 -30.37475586 14.58935547 -27.65332031 13.09545898 C-26.66009766 12.5430957 -25.666875 11.99073242 -24.64355469 11.42163086 C-23.61166016 10.8615332 -22.57976562 10.30143555 -21.51660156 9.72436523 C-20.49630859 9.16040039 -19.47601563 8.59643555 -18.42480469 8.01538086 C-16.44660817 6.92206604 -14.46351496 5.83755351 -12.47509766 4.76293945 C-10.23217348 3.51171971 -8.1188273 2.16625474 -5.97363281 0.75952148 C-2.82910156 -0.71313477 -2.82910156 -0.71313477 0 0 Z " fill="#FE7E98" transform="translate(129.8291015625,0.713134765625)"/>
<path d="M0 0 C0.33 10.89 0.66 21.78 1 33 C4.3 33.33 7.6 33.66 11 34 C10.94199219 33.11957031 10.88398437 32.23914063 10.82421875 31.33203125 C10.75654297 29.58986328 10.75654297 29.58986328 10.6875 27.8125 C10.62949219 26.66394531 10.57148437 25.51539063 10.51171875 24.33203125 C11 21 11 21 12.89453125 18.10546875 C17.28512182 15.12870357 20.81677477 15.33473775 26 15.5 C26.88945313 15.49742187 27.77890625 15.49484375 28.6953125 15.4921875 C33.57021517 15.56494724 37.0763123 15.7968298 41 19 C43.82523743 23.43965882 43.54453454 28.9148851 43 34 C41.39232225 37.77804272 39.49532376 39.88613299 36 42 C32.94140625 42.328125 32.94140625 42.328125 29.5625 42.25 C28.45003906 42.23453125 27.33757812 42.2190625 26.19140625 42.203125 C23 42 23 42 20.21484375 41.421875 C17.97000955 40.76221468 17.97000955 40.76221468 16 42 C13.05274854 42.09892058 10.13431802 42.13891102 7.1875 42.125 C6.37990234 42.12886719 5.57230469 42.13273437 4.74023438 42.13671875 C0.6611474 42.1300372 -2.99700305 41.83872317 -7 41 C-7.99 41.495 -7.99 41.495 -9 42 C-11.08145604 42.09774794 -13.16625547 42.12975741 -15.25 42.125 C-16.36890625 42.12757813 -17.4878125 42.13015625 -18.640625 42.1328125 C-22 42 -22 42 -25.296875 41.4296875 C-27.96003963 40.73748518 -27.96003963 40.73748518 -30 42 C-35.79525123 42.28576546 -41.59167976 42.31379761 -47.39331055 42.35009766 C-49.33418775 42.36665444 -51.27500406 42.39394088 -53.21557617 42.43212891 C-56.01513265 42.4869334 -58.81326038 42.50877664 -61.61328125 42.5234375 C-62.47802567 42.54610687 -63.34277008 42.56877625 -64.23371887 42.59213257 C-68.68282866 42.57655536 -70.42846614 42.45503083 -74.02416992 39.59228516 C-76.56263228 36.26182756 -77.1249704 34.74555982 -77.09765625 30.6484375 C-77.09443359 29.79765625 -77.09121094 28.946875 -77.08789062 28.0703125 C-77.07951172 27.18085938 -77.07113281 26.29140625 -77.0625 25.375 C-77.05798828 24.4778125 -77.05347656 23.580625 -77.04882812 22.65625 C-77.03702591 20.43743352 -77.02056155 18.21874982 -77 16 C-70.296875 16.765625 -70.296875 16.765625 -67.625 18.875 C-65.93215888 22.13046368 -65.66948718 24.08663146 -65.3984375 27.6953125 C-65.32028809 28.68805176 -65.24213867 29.68079102 -65.16162109 30.70361328 C-65.08161865 31.84032471 -65.08161865 31.84032471 -65 33 C-60.60343827 33.02465504 -56.2069128 33.04283842 -51.81030273 33.05493164 C-50.31355082 33.05997121 -48.81680384 33.06680287 -47.32006836 33.07543945 C-45.17300193 33.08752159 -43.02600038 33.09323191 -40.87890625 33.09765625 C-39.5854126 33.10289307 -38.29191895 33.10812988 -36.95922852 33.11352539 C-34.11347596 33.33996932 -34.11347596 33.33996932 -33 32 C-32.79538971 28.99450225 -32.68055811 25.99097256 -32.57421875 22.98046875 C-31.87148533 19.33294768 -31.04515368 18.10661385 -28 16 C-26.02 16 -24.04 16 -22 16 C-22 21.94 -22 27.88 -22 34 C-17.05 33.505 -17.05 33.505 -12 33 C-11.970271 31.80455566 -11.970271 31.80455566 -11.93994141 30.58496094 C-11.84466752 26.97297528 -11.73499693 23.36156601 -11.625 19.75 C-11.5940625 18.49574219 -11.563125 17.24148437 -11.53125 15.94921875 C-11.49257812 14.74394531 -11.45390625 13.53867188 -11.4140625 12.296875 C-11.36693115 10.63156738 -11.36693115 10.63156738 -11.31884766 8.93261719 C-11.00589634 6.05423191 -10.60140496 4.38696175 -9 2 C-6 0 -6 0 0 0 Z " fill="#0E0E0E" transform="translate(77,128)"/>
<path d="M0 0 C0.02505615 0.96413818 0.0501123 1.92827637 0.07592773 2.92163086 C0.16985306 6.48687842 0.27010939 10.05192433 0.37231445 13.61694336 C0.41571985 15.16214289 0.45739071 16.70739214 0.49731445 18.25268555 C0.55488199 20.46939096 0.61861424 22.6858448 0.68359375 24.90234375 C0.70030624 25.5971434 0.71701874 26.29194305 0.73423767 27.00779724 C0.56502856 30.28762029 0.56502856 30.28762029 2 33 C3.84891946 33.23363881 5.70488031 33.41303635 7.5625 33.5625 C8.57441406 33.64628906 9.58632812 33.73007813 10.62890625 33.81640625 C11.80259766 33.90728516 11.80259766 33.90728516 13 34 C12.95359375 33.03578125 12.9071875 32.0715625 12.859375 31.078125 C12.82328125 29.81484375 12.7871875 28.5515625 12.75 27.25 C12.70359375 25.99703125 12.6571875 24.7440625 12.609375 23.453125 C13 20 13 20 14.640625 17.546875 C17.6078377 15.60148389 19.51925134 15.6835683 23 16 C23.08115993 19.06303578 23.14057409 22.12390815 23.1875 25.1875 C23.21263672 26.05181641 23.23777344 26.91613281 23.26367188 27.80664062 C23.31980871 32.69054544 23.26570457 36.07963204 20 40 C16.89936535 42.06708977 16.23588043 42.24973411 12.7265625 42.23046875 C11.9015625 42.22853516 11.0765625 42.22660156 10.2265625 42.22460938 C9.36804688 42.21236328 8.50953125 42.20011719 7.625 42.1875 C6.77421875 42.18685547 5.9234375 42.18621094 5.046875 42.18554688 C0.86822961 42.1562573 -2.8998992 41.83691196 -7 41 C-7.99 41.33 -8.98 41.66 -10 42 C-15.53604685 42.27796346 -21.07188684 42.31343914 -26.61425781 42.35009766 C-28.45130065 42.36666808 -30.28827872 42.39397259 -32.125 42.43212891 C-34.77898458 42.4869436 -37.43146287 42.50877536 -40.0859375 42.5234375 C-40.9037973 42.54610687 -41.7216571 42.56877625 -42.56430054 42.59213257 C-46.89923785 42.57610305 -48.49351656 42.4072183 -51.99462891 39.59228516 C-54.56831655 36.26535365 -55.12507029 34.76054348 -55.09765625 30.6484375 C-55.09443359 29.79765625 -55.09121094 28.946875 -55.08789062 28.0703125 C-55.07951172 27.18085938 -55.07113281 26.29140625 -55.0625 25.375 C-55.05798828 24.4778125 -55.05347656 23.580625 -55.04882812 22.65625 C-55.03702591 20.43743352 -55.02056155 18.21874982 -55 16 C-48.296875 16.765625 -48.296875 16.765625 -45.625 18.875 C-43.93215888 22.13046368 -43.66948718 24.08663146 -43.3984375 27.6953125 C-43.32028809 28.68805176 -43.24213867 29.68079102 -43.16162109 30.70361328 C-43.08161865 31.84032471 -43.08161865 31.84032471 -43 33 C-38.60343827 33.02465504 -34.2069128 33.04283842 -29.81030273 33.05493164 C-28.31355082 33.05997121 -26.81680384 33.06680287 -25.32006836 33.07543945 C-23.17300193 33.08752159 -21.02600038 33.09323191 -18.87890625 33.09765625 C-17.5854126 33.10289307 -16.29191895 33.10812988 -14.95922852 33.11352539 C-12.11347596 33.33996932 -12.11347596 33.33996932 -11 32 C-10.90261979 29.97445389 -10.86795614 27.94583618 -10.859375 25.91796875 C-10.84003906 24.67595703 -10.82070312 23.43394531 -10.80078125 22.15429688 C-10.76707906 19.52163698 -10.74870962 16.88873368 -10.74609375 14.25585938 C-10.70935547 12.38704102 -10.70935547 12.38704102 -10.671875 10.48046875 C-10.6625293 9.33473389 -10.65318359 8.18899902 -10.64355469 7.00854492 C-10 4 -10 4 -7.77050781 1.5949707 C-4.82299227 -0.10190267 -3.33190845 -0.38078954 0 0 Z " fill="#0A0A0A" transform="translate(193,128)"/>
<path d="M0 0 C6.08893256 0.50741105 10.70742307 2.75775537 14.6875 7.4375 C18.42099053 12.64175953 18.36793087 17.01134578 17.75 23.3125 C16.03778032 28.67419364 12.60130086 31.62880165 7.75 34.3125 C2.85008274 35.94580575 -0.99727973 35.74447251 -5.875 34.0625 C-10.60933715 31.60765851 -13.43253109 29.77830632 -16.0625 25.0625 C-17.82890931 19.48436535 -18.3840515 14.94685247 -15.625 9.625 C-13.04240193 5.62288881 -9.76793754 2.36840929 -5.3125 0.5 C-3.54114541 0.33896776 -1.77049341 0.17023975 0 0 Z " fill="#FCB03B" transform="translate(128.25,48.6875)"/>
<path d="M0 0 C6.34129482 0.59823536 6.34129482 0.59823536 8.90771484 2.16357422 C10.53569032 4.90063982 10.42203806 7.21640537 10.4765625 10.3828125 C10.5075 11.63191406 10.5384375 12.88101563 10.5703125 14.16796875 C10.59738281 16.12669922 10.59738281 16.12669922 10.625 18.125 C10.67575599 20.71101765 10.73023248 23.29696593 10.7890625 25.8828125 C10.80662598 27.03152832 10.82418945 28.18024414 10.84228516 29.36376953 C10.7028377 31.92404335 10.7028377 31.92404335 12 33 C13.84891946 33.23363881 15.70488031 33.41303635 17.5625 33.5625 C18.57441406 33.64628906 19.58632812 33.73007813 20.62890625 33.81640625 C21.80259766 33.90728516 21.80259766 33.90728516 23 34 C22.95359375 33.03578125 22.9071875 32.0715625 22.859375 31.078125 C22.80523437 29.18320313 22.80523437 29.18320313 22.75 27.25 C22.70359375 25.99703125 22.6571875 24.7440625 22.609375 23.453125 C23 20 23 20 24.640625 17.546875 C27.6078377 15.60148389 29.51925134 15.6835683 33 16 C33.11667875 19.22886009 33.18740546 22.45717445 33.25 25.6875 C33.30027344 27.05551758 33.30027344 27.05551758 33.3515625 28.45117188 C33.41507561 32.81769795 33.43722486 35.28725121 31.109375 39.08203125 C26.77623433 43.02197953 22.29201482 42.25619208 16.6875 42.3125 C15.26147461 42.35600586 15.26147461 42.35600586 13.80664062 42.40039062 C9.40391922 42.4403874 6.74909736 42.44192033 2.89453125 40.16796875 C-0.59109544 36.17926192 -0.13216299 32.06570433 -0.09765625 27.05078125 C-0.0962413 26.27816452 -0.09482635 25.50554779 -0.09336853 24.70951843 C-0.08777466 22.24380611 -0.07522333 19.77818485 -0.0625 17.3125 C-0.05748421 15.63997527 -0.05292144 13.96744912 -0.04882812 12.29492188 C-0.03780724 8.19657954 -0.02054684 4.09830521 0 0 Z " fill="#050505" transform="translate(224,128)"/>
<path d="M0 0 C4.58271398 1.68600828 8.7908234 3.90860439 13.0625 6.25 C13.76955078 6.61996094 14.47660156 6.98992188 15.20507812 7.37109375 C19.77898008 9.88781351 22.72334555 12.1189465 25 17 C25.4313574 19.98604959 25.3825775 22.86651061 25.25 25.875 C25.23195313 26.65875 25.21390625 27.4425 25.1953125 28.25 C25.14855148 30.16720189 25.07682003 32.08376715 25 34 C20.75559446 33.40679542 17.75255352 31.92265421 14.0703125 29.76171875 C12.94496094 29.10623047 11.81960937 28.45074219 10.66015625 27.77539062 C9.48165324 27.07962623 8.30326865 26.38366121 7.125 25.6875 C5.95481298 25.00259547 4.78424317 24.31834449 3.61328125 23.63476562 C1.44093692 22.3648752 -0.72967809 21.0920183 -2.89794922 19.81518555 C-6.25142156 17.85287901 -9.62651798 15.92770401 -13 14 C-13 22.25 -13 30.5 -13 39 C-15.97 39.99 -18.94 40.98 -22 42 C-26.7527611 44.85165666 -29.63370179 48.63928881 -31 54 C-30.85230163 56.50266687 -30.66111452 59.00297121 -30.4375 61.5 C-30.2890625 65.41015625 -30.2890625 65.41015625 -31 69 C-35.30981798 73.26732682 -40.75071435 77 -47 77 C-47 60.17 -47 43.34 -47 26 C-46.34 26 -45.68 26 -45 26 C-44.67 41.18 -44.34 56.36 -44 72 C-41.36 70.68 -38.72 69.36 -36 68 C-35.34 68 -34.68 68 -34 68 C-34.33 67.34 -34.66 66.68 -35 66 C-35.66283356 58.32851654 -35.87985269 51.28639846 -31 45 C-26.68095088 40.31746655 -23.06962224 38.60126667 -17 36 C-16.67 28.08 -16.34 20.16 -16 12 C-11.45424681 10.8635617 -11.02024674 11.14349771 -7.1484375 13.31640625 C-6.21386719 13.83396484 -5.27929688 14.35152344 -4.31640625 14.88476562 C-2.86041016 15.71524414 -2.86041016 15.71524414 -1.375 16.5625 C-0.42753906 17.08908203 0.51992187 17.61566406 1.49609375 18.15820312 C7.73960657 21.647225 13.88795804 25.28619576 20 29 C20.03834961 28.11795898 20.07669922 27.23591797 20.11621094 26.32714844 C20.20768229 24.22330729 20.29915365 22.11946615 20.390625 20.015625 C19.90465427 16.263931 18.944711 15.29596228 16 13 C13.76913045 11.59635462 13.76913045 11.59635462 11.4375 10.4375 C8.45232518 8.90212341 6.29244593 7.44699285 4 5 C2.34466005 3.65263027 0.67987227 2.31665664 -1 1 C-0.67 0.67 -0.34 0.34 0 0 Z " fill="#DD0B36" transform="translate(140,7)"/>
<path d="M0 0 C0.33 0 0.66 0 1 0 C1.85431198 3.14459515 1.96229051 5.29426291 1.54296875 8.56640625 C1.04444649 13.01420295 0.85306019 16.95264964 3 21 C8.46362181 25.90680293 15.47658351 28.81463556 22.15405273 31.71020508 C24.97867954 32.99033748 27.61368533 34.46836351 30.3125 35.9921875 C33.7552526 37.71885824 34.53527553 38.09336689 38.44140625 37.30859375 C39.98634766 36.38240234 39.98634766 36.38240234 41.5625 35.4375 C42.14346436 35.10468018 42.72442871 34.77186035 43.32299805 34.42895508 C44.57804265 33.70290854 45.82245967 32.9582373 47.05664062 32.19726562 C49.04345627 30.97322744 51.05452301 29.80271242 53.078125 28.640625 C58.9804287 25.23157713 64.82510308 21.73616189 70.61328125 18.13671875 C71.36891357 17.67434814 72.1245459 17.21197754 72.90307617 16.7355957 C74.34492426 15.85267961 75.77926389 14.95733735 77.2043457 14.04760742 C81.73540022 11.29008154 84.69620575 10.51783689 90 11 C87.57648865 13.68798582 84.96151484 15.32613446 81.828125 17.1171875 C80.25889282 18.01920898 80.25889282 18.01920898 78.65795898 18.93945312 C77.53333252 19.57818359 76.40870605 20.21691406 75.25 20.875 C73.49009184 21.87563341 71.73034726 22.87655371 69.97068787 23.87762451 C68.76857602 24.56129874 67.56606757 25.24427605 66.36317444 25.92657471 C62.36715362 28.19946589 58.41658021 30.53829288 54.48046875 32.9140625 C53.46114258 33.51879395 52.44181641 34.12352539 51.39160156 34.74658203 C49.46752147 35.88862692 47.55341986 37.04770825 45.65136719 38.22607422 C40.85985063 41.03243322 37.06428807 42.96177524 31.47143555 41.87597656 C25.83052261 39.87660922 20.78665579 36.71003563 15.6875 33.625 C14.51059198 32.93088862 13.3328619 32.23816913 12.15429688 31.546875 C9.08141546 29.728267 6.02016948 27.90485759 3 26 C1.84491943 25.30487305 1.84491943 25.30487305 0.66650391 24.59570312 C-1 23 -1 23 -1.4699707 20.65576172 C-1.45538818 19.75615723 -1.44080566 18.85655273 -1.42578125 17.9296875 C-1.41740234 16.95128906 -1.40902344 15.97289063 -1.40039062 14.96484375 C-1.37138672 13.94519531 -1.34238281 12.92554687 -1.3125 11.875 C-1.30283203 10.84761719 -1.29316406 9.82023437 -1.28320312 8.76171875 C-1.16784038 1.16784038 -1.16784038 1.16784038 0 0 Z " fill="#770C2A" transform="translate(72,77)"/>
<path d="M0 0 C0.33 0 0.66 0 1 0 C1.12369707 5.19603804 1.21438309 10.39121744 1.2746582 15.58837891 C1.29978641 17.35578338 1.33389516 19.1230841 1.37719727 20.89013672 C1.43792735 23.43222649 1.46622515 25.97294165 1.48828125 28.515625 C1.51408768 29.30430969 1.5398941 30.09299438 1.56648254 30.90557861 C1.56838896 34.6434684 1.44257529 36.52810978 -1.15991211 39.30297852 C-2.09714111 39.86299561 -3.03437012 40.4230127 -4 41 C-4.93827637 41.59901123 -5.87655273 42.19802246 -6.84326172 42.81518555 C-9.59110715 44.43689689 -12.34048562 46.05557012 -15.10107422 47.65551758 C-16.86970782 48.68442127 -18.62805005 49.72956963 -20.38671875 50.77539062 C-21.51464844 51.43087891 -22.64257812 52.08636719 -23.8046875 52.76171875 C-24.82546387 53.35944092 -25.84624023 53.95716309 -26.89794922 54.57299805 C-31.5840949 56.72871358 -35.36493488 57.52445485 -40.3125 55.9375 C-45.03111499 53.62128488 -49.63882572 50.93084952 -54 48 C-54 47.67 -54 47.34 -54 47 C-47.57673972 46.1435653 -44.13197477 48.41091703 -38.84375 51.98046875 C-35.94209768 53.3420758 -35.94209768 53.3420758 -32.71875 51.984375 C-31.46597555 51.34825384 -30.22713327 50.6842791 -29 50 C-28.29681641 49.62657471 -27.59363281 49.25314941 -26.86914062 48.8684082 C-24.56328805 47.62693035 -22.28042963 46.35002445 -20 45.0625 C-19.23171875 44.63259766 -18.4634375 44.20269531 -17.671875 43.75976562 C-16.16213636 42.91374712 -14.65426006 42.06439501 -13.1484375 41.21142578 C-11.74250324 40.41867058 -10.33118227 39.63537535 -8.9140625 38.86279297 C-5.34699818 37.07094118 -5.34699818 37.07094118 -3 34 C-2.68416554 30.62671248 -2.48866238 27.25265635 -2.28125 23.87109375 C-2 21 -2 21 -1 20 C-0.84344973 18.51361008 -0.74933057 17.02050873 -0.68359375 15.52734375 C-0.62075195 14.17866211 -0.62075195 14.17866211 -0.55664062 12.80273438 C-0.51732422 11.85720703 -0.47800781 10.91167969 -0.4375 9.9375 C-0.37272461 8.5134082 -0.37272461 8.5134082 -0.30664062 7.06054688 C-0.20020724 4.70718647 -0.09818992 2.35371646 0 0 Z " fill="#630F23" transform="translate(186,62)"/>
<path d="M0 0 C3.62519589 -0.05375085 7.2496019 -0.09355293 10.875 -0.125 C11.90753906 -0.14175781 12.94007812 -0.15851563 14.00390625 -0.17578125 C14.99003906 -0.18222656 15.97617188 -0.18867188 16.9921875 -0.1953125 C18.35899658 -0.21102295 18.35899658 -0.21102295 19.75341797 -0.22705078 C22 0 22 0 24 2 C24 5.3 24 8.6 24 12 C16.08 12 8.16 12 0 12 C0 8.04 0 4.08 0 0 Z " fill="#222222" transform="translate(80,184)"/>
<path d="M0 0 C4.58271398 1.68600828 8.7908234 3.90860439 13.0625 6.25 C13.76955078 6.61996094 14.47660156 6.98992188 15.20507812 7.37109375 C19.77898008 9.88781351 22.72334555 12.1189465 25 17 C25.4313574 19.98604959 25.3825775 22.86651061 25.25 25.875 C25.23195312 26.65875 25.21390625 27.4425 25.1953125 28.25 C25.14855148 30.16720189 25.07682003 32.08376715 25 34 C20.77552231 33.40583454 17.77556334 31.94114741 14.10546875 29.796875 C12.98462891 29.14589844 11.86378906 28.49492188 10.70898438 27.82421875 C9.53512393 27.13286737 8.36129601 26.44146076 7.1875 25.75 C6.02575249 25.07359686 4.86364595 24.39780995 3.70117188 23.72265625 C-2.2621045 20.24379359 -8.17108646 16.69953184 -14 13 C-13.34 12.34 -12.68 11.68 -12 11 C-8.53968052 12.87135094 -5.08213033 14.74776492 -1.625 16.625 C-0.65949219 17.14707031 0.30601562 17.66914063 1.30078125 18.20703125 C7.63305082 21.64940598 13.85203092 25.23831373 20 29 C20.03834961 28.11795898 20.07669922 27.23591797 20.11621094 26.32714844 C20.20768229 24.22330729 20.29915365 22.11946615 20.390625 20.015625 C19.90465427 16.263931 18.944711 15.29596228 16 13 C13.76913045 11.59635462 13.76913045 11.59635462 11.4375 10.4375 C8.45232518 8.90212341 6.29244593 7.44699285 4 5 C2.34466005 3.65263027 0.67987227 2.31665664 -1 1 C-0.67 0.67 -0.34 0.34 0 0 Z " fill="#E40A36" transform="translate(140,7)"/>
<path d="M0 0 C1.32 0.33 2.64 0.66 4 1 C5.25 4.0625 5.25 4.0625 6 7 C6.62648438 6.96519531 7.25296875 6.93039063 7.8984375 6.89453125 C8.71570312 6.86746094 9.53296875 6.84039062 10.375 6.8125 C11.18710938 6.77769531 11.99921875 6.74289063 12.8359375 6.70703125 C13.55007813 6.80371094 14.26421875 6.90039062 15 7 C17.44897847 10.67346771 17.31537716 12.66356399 17 17 C15 19 15 19 11.5234375 19.1953125 C10.14047367 19.18387695 8.75761943 19.15791258 7.375 19.125 C3.724375 19.063125 3.724375 19.063125 0 19 C0 12.73 0 6.46 0 0 Z " fill="#262626" transform="translate(0,177)"/>
<path d="M0 0 C2.96875 -0.36328125 2.96875 -0.36328125 6.5 -0.3125 C8.24796875 -0.30669922 8.24796875 -0.30669922 10.03125 -0.30078125 C13 0 13 0 15 2 C15.1953125 4.3828125 15.1953125 4.3828125 15.125 7.125 C15.10695313 8.03507813 15.08890625 8.94515625 15.0703125 9.8828125 C15.04710938 10.58148438 15.02390625 11.28015625 15 12 C12.72975032 12.08097324 10.45867925 12.13917704 8.1875 12.1875 C6.29064453 12.23970703 6.29064453 12.23970703 4.35546875 12.29296875 C1 12 1 12 -0.9296875 10.67578125 C-2.58647842 8.08175459 -2.31241021 5.99913799 -2 3 C-1.34 2.01 -0.68 1.02 0 0 Z " fill="#252525" transform="translate(20,184)"/>
<path d="M0 0 C1.0725 0.00515625 2.145 0.0103125 3.25 0.015625 C4.85875 0.00789062 4.85875 0.00789062 6.5 0 C9.25 0.265625 9.25 0.265625 11.25 2.265625 C11.4453125 4.6484375 11.4453125 4.6484375 11.375 7.390625 C11.35695312 8.30070313 11.33890625 9.21078125 11.3203125 10.1484375 C11.29710937 10.84710938 11.27390625 11.54578125 11.25 12.265625 C8.95858714 12.31947021 6.66681812 12.35834587 4.375 12.390625 C2.46074219 12.42542969 2.46074219 12.42542969 0.5078125 12.4609375 C-2.75 12.265625 -2.75 12.265625 -4.75 10.265625 C-5.015625 8.390625 -5.015625 8.390625 -5 6.265625 C-5.00515625 5.564375 -5.0103125 4.863125 -5.015625 4.140625 C-4.54686019 0.83169693 -3.16026949 0.3052533 0 0 Z " fill="#1E1E1E" transform="translate(145.75,183.734375)"/>
<path d="M0 0 C2.12472576 -0.05386629 4.24983652 -0.09273071 6.375 -0.125 C7.55835938 -0.14820313 8.74171875 -0.17140625 9.9609375 -0.1953125 C13 0 13 0 15 2 C15.27450545 5.34896654 15.08628804 8.63476663 15 12 C10.05 12 5.1 12 0 12 C0 8.04 0 4.08 0 0 Z " fill="#232323" transform="translate(37,184)"/>
<path d="M0 0 C1.32 0.33 2.64 0.66 4 1 C4 4.63 4 8.26 4 12 C6.62901288 10.47793991 8.84365964 9.15634036 11 7 C12.32 7 13.64 7 15 7 C14.814375 7.969375 14.62875 8.93875 14.4375 9.9375 C14.293125 10.948125 14.14875 11.95875 14 13 C14.33 13.33 14.66 13.66 15 14 C15 15.65 15 17.3 15 19 C10.05 19 5.1 19 0 19 C0 12.73 0 6.46 0 0 Z " fill="#151515" transform="translate(55,177)"/>
<path d="M0 0 C2.09454478 0.8251237 4.07841042 1.74959487 6.0625 2.8125 C6.475 2.296875 6.8875 1.78125 7.3125 1.25 C9.0625 -0.1875 9.0625 -0.1875 11.0625 -0.0625 C13.36615256 0.94534799 14.61043194 1.74903486 16.0625 3.8125 C15.96561287 6.81600106 15.04402289 7.83265684 13 10.0625 C12.360625 10.64 11.72125 11.2175 11.0625 11.8125 C10.485 11.4825 9.9075 11.1525 9.3125 10.8125 C6.86366138 9.54174102 6.86366138 9.54174102 3.0625 9.8125 C0.86182579 10.74533296 0.86182579 10.74533296 -0.9375 11.8125 C-3.5 9.5625 -3.5 9.5625 -5.9375 6.8125 C-5.9375 4.15326754 -5.1681065 3.13095659 -3.625 1 C-1.9375 -0.1875 -1.9375 -0.1875 0 0 Z " fill="#0D0D0D" transform="translate(22.9375,135.1875)"/>
<path d="M0 0 C0.721875 0.391875 1.44375 0.78375 2.1875 1.1875 C1.60427979 1.47343018 1.02105957 1.75936035 0.42016602 2.05395508 C-1.60950271 3.08443642 -3.57157458 4.17397904 -5.53515625 5.32421875 C-6.23374756 5.73341553 -6.93233887 6.1426123 -7.65209961 6.56420898 C-21.09350628 13.3873808 -21.09350628 13.3873808 -31.8125 23.1875 C-31.99660397 25.12373193 -31.99660397 25.12373193 -31.7890625 27.19921875 C-31.7375 27.95654297 -31.6859375 28.71386719 -31.6328125 29.49414062 C-31.56835938 30.27982422 -31.50390625 31.06550781 -31.4375 31.875 C-31.38078125 32.67228516 -31.3240625 33.46957031 -31.265625 34.29101562 C-31.12433972 36.25723581 -30.96970094 38.22248824 -30.8125 40.1875 C-31.8025 40.6825 -31.8025 40.6825 -32.8125 41.1875 C-32.8125 37.8875 -32.8125 34.5875 -32.8125 31.1875 C-33.4725 31.1875 -34.1325 31.1875 -34.8125 31.1875 C-34.92142951 29.45975692 -34.99851092 27.72999052 -35.0625 26 C-35.10890625 25.03707031 -35.1553125 24.07414062 -35.203125 23.08203125 C-34.69820761 19.34059338 -33.34419437 17.95800815 -30.8125 15.1875 C-28.32641602 13.47412109 -28.32641602 13.47412109 -25.56640625 11.9609375 C-24.56416016 11.4040625 -23.56191406 10.8471875 -22.52929688 10.2734375 C-21.48837891 9.70882813 -20.44746094 9.14421875 -19.375 8.5625 C-17.31360966 7.42482776 -15.25240529 6.28681847 -13.19140625 5.1484375 C-12.2794751 4.65134277 -11.36754395 4.15424805 -10.42797852 3.64208984 C-8.63188232 2.6431968 -6.87330119 1.57469799 -5.15209961 0.45166016 C-2.8125 -0.8125 -2.8125 -0.8125 0 0 Z " fill="#F996AA" transform="translate(127.8125,1.8125)"/>
<path d="M0 0 C1.0725 0.00515625 2.145 0.0103125 3.25 0.015625 C4.85875 0.00789062 4.85875 0.00789062 6.5 0 C9.25 0.265625 9.25 0.265625 11.25 2.265625 C11 4.828125 11 4.828125 10.25 7.265625 C9.26 7.760625 9.26 7.760625 8.25 8.265625 C9.24 8.925625 10.23 9.585625 11.25 10.265625 C11.25 10.925625 11.25 11.585625 11.25 12.265625 C8.95858714 12.31947021 6.66681812 12.35834587 4.375 12.390625 C2.46074219 12.42542969 2.46074219 12.42542969 0.5078125 12.4609375 C-2.75 12.265625 -2.75 12.265625 -4.75 10.265625 C-5.015625 8.390625 -5.015625 8.390625 -5 6.265625 C-5.00515625 5.564375 -5.0103125 4.863125 -5.015625 4.140625 C-4.54686019 0.83169693 -3.16026949 0.3052533 0 0 Z " fill="#242424" transform="translate(111.75,183.734375)"/>
<path d="M0 0 C0.33 0 0.66 0 1 0 C1.12369707 5.19603804 1.21438309 10.39121744 1.2746582 15.58837891 C1.29978641 17.35578338 1.33389516 19.1230841 1.37719727 20.89013672 C1.43792735 23.43222649 1.46622515 25.97294165 1.48828125 28.515625 C1.51408768 29.30430969 1.5398941 30.09299438 1.56648254 30.90557861 C1.56846875 34.79991452 1.42432558 36.5621925 -1.3359375 39.41015625 C-2.21507812 39.93480469 -3.09421875 40.45945313 -4 41 C-5.02738281 41.63421875 -6.05476562 42.2684375 -7.11328125 42.921875 C-8.16902344 43.52515625 -9.22476563 44.1284375 -10.3125 44.75 C-11.38113281 45.36359375 -12.44976562 45.9771875 -13.55078125 46.609375 C-14.76314453 47.29773438 -14.76314453 47.29773438 -16 48 C-16 45 -16 45 -15 42 C-12.53125 40.46484375 -12.53125 40.46484375 -9.5 38.9375 C-5.54021942 37.19741227 -5.54021942 37.19741227 -3 34 C-2.68416554 30.62671248 -2.48866238 27.25265635 -2.28125 23.87109375 C-2 21 -2 21 -1 20 C-0.84344973 18.51361008 -0.74933057 17.02050873 -0.68359375 15.52734375 C-0.64169922 14.62822266 -0.59980469 13.72910156 -0.55664062 12.80273438 C-0.51732422 11.85720703 -0.47800781 10.91167969 -0.4375 9.9375 C-0.39431641 8.98810547 -0.35113281 8.03871094 -0.30664062 7.06054688 C-0.20020724 4.70718647 -0.09818992 2.35371646 0 0 Z " fill="#611C2E" transform="translate(186,62)"/>
<path d="M0 0 C0.33 0 0.66 0 1 0 C1.50264727 6.93932481 1.27570321 11.37407472 -3 17 C-8.33886593 21.140345 -12.25914128 22.44939058 -19 22 C-24.21554663 20.29145886 -27.35701363 18.08456048 -31 14 C-30.34 13.34 -29.68 12.68 -29 12 C-28.34 12.78375 -27.68 13.5675 -27 14.375 C-23.41739791 17.50977683 -20.72090271 18.67143901 -16 19 C-13.01005915 18.69997133 -10.87075403 18.05764622 -8 17 C-7.67 16.01 -7.34 15.02 -7 14 C-6.34 13.67 -5.68 13.34 -5 13 C-4.16131975 10.75553961 -4.16131975 10.75553961 -3.5 8.125 C-2.62017682 4.84478965 -1.91458912 2.87188369 0 0 Z " fill="#D67315" transform="translate(145,62)"/>
<path d="M0 0 C3.63 0 7.26 0 11 0 C11 3.63 11 7.26 11 11 C7.37 11 3.74 11 0 11 C0 7.37 0 3.74 0 0 Z " fill="#FEFEFE" transform="translate(98,151)"/>
<path d="M0 0 C4.29 0 8.58 0 13 0 C13 0.33 13 0.66 13 1 C10.69 1.33 8.38 1.66 6 2 C7.32 2.33 8.64 2.66 10 3 C10 5.97 10 8.94 10 12 C6.7 12 3.4 12 0 12 C0 8.04 0 4.08 0 0 Z " fill="#2D2D2D" transform="translate(80,184)"/>
<path d="M0 0 C1.32 0.66 2.64 1.32 4 2 C4 2.66 4 3.32 4 4 C4.66 4 5.32 4 6 4 C6 5.32 6 6.64 6 8 C5.34 8 4.68 8 4 8 C4 9.32 4 10.64 4 12 C4.66 12 5.32 12 6 12 C6 13.32 6 14.64 6 16 C3.625 16.1875 3.625 16.1875 1 16 C-1.1519437 12.77208445 -1.20086443 11.71599191 -1 8 C-1.66 8 -2.32 8 -3 8 C-3 6.68 -3 5.36 -3 4 C-2.34 4 -1.68 4 -1 4 C-0.67 2.68 -0.34 1.36 0 0 Z " fill="#222222" transform="translate(161,180)"/>
<path d="M0 0 C0.94875 0.04125 1.8975 0.0825 2.875 0.125 C2.545 1.445 2.215 2.765 1.875 4.125 C2.865 4.455 3.855 4.785 4.875 5.125 C4 9.875 4 9.875 2.875 12.125 C0.565 12.125 -1.745 12.125 -4.125 12.125 C-3.795 10.805 -3.465 9.485 -3.125 8.125 C-4.115 7.795 -5.105 7.465 -6.125 7.125 C-5.03177966 0.20127119 -5.03177966 0.20127119 0 0 Z " fill="#0C0C0C" transform="translate(166.125,135.875)"/>
<path d="M0 0 C1.32 0.66 2.64 1.32 4 2 C3.67 10.25 3.34 18.5 3 27 C0.69 27.33 -1.62 27.66 -4 28 C-3.505 26.515 -3.505 26.515 -3 25 C-2.34 24.67 -1.68 24.34 -1 24 C-0.67 16.08 -0.34 8.16 0 0 Z " fill="#AF0426" transform="translate(124,19)"/>
<path d="M0 0 C4 1 4 1 5 2 C5.07325168 4.86267567 5.09238205 7.700719 5.0625 10.5625 C5.05798828 11.36880859 5.05347656 12.17511719 5.04882812 13.00585938 C5.03700518 15.00393756 5.01906914 17.00197783 5 19 C3.35 19 1.7 19 0 19 C0 12.73 0 6.46 0 0 Z " fill="#1E1E1E" transform="translate(133,177)"/>
<path d="M0 0 C2.86207152 1.28299758 5.0245088 2.530636 7 5 C7 5.99 7 6.98 7 8 C4.75 10.25 4.75 10.25 2 12 C-0.62181736 11.92288772 -1.70375952 11.21451897 -3.8125 9.6875 C-5 8 -5 8 -4.9375 6.0625 C-3.75310292 3.45682641 -2.10921555 1.90509792 0 0 Z " fill="#131313" transform="translate(240,172)"/>
<path d="M0 0 C2.1382143 1.14038096 3.47286109 2.00748681 4.875 4 C4.71761966 6.51808551 4.03727577 7.77590488 2.5625 9.8125 C0.875 11 0.875 11 -1.0625 11 C-3.92564093 9.61181046 -5.29315505 7.55149832 -7.125 5 C-2.7347561 0 -2.7347561 0 0 0 Z " fill="#040404" transform="translate(205.125,131)"/>
<path d="M0 0 C1.32 0.33 2.64 0.66 4 1 C4 6.94 4 12.88 4 19 C2.68 19 1.36 19 0 19 C0 12.73 0 6.46 0 0 Z " fill="#080808" transform="translate(126,177)"/>
<path d="M0 0 C6.0546875 -0.1953125 6.0546875 -0.1953125 8 0 C10 2 10 2 10.1953125 4.3828125 C10.17210937 5.28773438 10.14890625 6.19265625 10.125 7.125 C10.10695313 8.03507813 10.08890625 8.94515625 10.0703125 9.8828125 C10.04710937 10.58148438 10.02390625 11.28015625 10 12 C8.68 12 7.36 12 6 12 C6 9.36 6 6.72 6 4 C4.02 4 2.04 4 0 4 C-0.33 3.34 -0.66 2.68 -1 2 C-0.67 1.34 -0.34 0.68 0 0 Z " fill="#161616" transform="translate(42,184)"/>
<path d="M0 0 C5.71695055 -0.59551568 8.69983599 0.59837554 13.49609375 3.7109375 C13.99238281 4.13632813 14.48867187 4.56171875 15 5 C15 5.66 15 6.32 15 7 C17.475 7.495 17.475 7.495 20 8 C20 8.66 20 9.32 20 10 C12.09803593 8.83413645 6.39616593 5.77022468 0 1 C0 0.67 0 0.34 0 0 Z " fill="#540916" transform="translate(132,109)"/>
<path d="M0 0 C-0.33 0.66 -0.66 1.32 -1 2 C-1.99 2 -2.98 2 -4 2 C-4 1.34 -4 0.68 -4 0 C-11.07342791 -0.19671066 -11.07342791 -0.19671066 -18 1 C-19.1500831 2.96672915 -19.1500831 2.96672915 -20 5 C-22.125 5.75 -22.125 5.75 -24 6 C-22.5039904 2.19197555 -20.33936849 0.30575443 -17 -2 C-11.00296398 -4.39881441 -5.40246976 -3.16242132 0 0 Z " fill="#F7D67D" transform="translate(138,52)"/>
<path d="M0 0 C3.875 1.75 3.875 1.75 5 4 C5.08426094 5.6674606 5.10725143 7.33825187 5.09765625 9.0078125 C5.09443359 9.99394531 5.09121094 10.98007813 5.08789062 11.99609375 C5.07951172 13.02863281 5.07113281 14.06117187 5.0625 15.125 C5.05798828 16.16527344 5.05347656 17.20554687 5.04882812 18.27734375 C5.03701952 20.85161962 5.02055075 23.42578146 5 26 C4.34 26.33 3.68 26.66 3 27 C2.96261719 25.70964844 2.92523438 24.41929688 2.88671875 23.08984375 C2.82102298 21.37236851 2.7545769 19.65492185 2.6875 17.9375 C2.66494141 17.08994141 2.64238281 16.24238281 2.61914062 15.36914062 C2.38626894 9.88607086 1.48225886 5.90462408 -1 1 C-0.67 0.67 -0.34 0.34 0 0 Z " fill="#C3064C" transform="translate(181,56)"/>
<path d="M0 0 C0.33 0 0.66 0 1 0 C1 6.27 1 12.54 1 19 C0.01 19 -0.98 19 -2 19 C-2.69029297 18.27876953 -2.69029297 18.27876953 -3.39453125 17.54296875 C-5.48034867 15.53835103 -6.84016467 15.51882865 -9.6875 15.3125 C-10.89986328 15.21388672 -10.89986328 15.21388672 -12.13671875 15.11328125 C-12.75160156 15.07589844 -13.36648437 15.03851563 -14 15 C-14 14.67 -14 14.34 -14 14 C-13.22914062 13.96261719 -12.45828125 13.92523438 -11.6640625 13.88671875 C-10.15972656 13.78810547 -10.15972656 13.78810547 -8.625 13.6875 C-7.62726563 13.62949219 -6.62953125 13.57148438 -5.6015625 13.51171875 C-4.74304688 13.34285156 -3.88453125 13.17398438 -3 13 C-0.89172945 9.83759418 -0.66182535 8.49342531 -0.375 4.8125 C-0.30023438 3.91144531 -0.22546875 3.01039063 -0.1484375 2.08203125 C-0.09945312 1.39496094 -0.05046875 0.70789063 0 0 Z " fill="#DEDEDE" transform="translate(125,177)"/>
<path d="M0 0 C2.97 0 5.94 0 9 0 C8.67 3.3 8.34 6.6 8 10 C6.68 10 5.36 10 4 10 C4 7.36 4 4.72 4 2 C2.35 2 0.7 2 -1 2 C-0.67 1.34 -0.34 0.68 0 0 Z " fill="#000000" transform="translate(86,185)"/>
<path d="M0 0 C1.98 0 3.96 0 6 0 C6 2.64 6 5.28 6 8 C4.02 8 2.04 8 0 8 C0 5.36 0 2.72 0 0 Z " fill="#FEFEFE" transform="translate(42,188)"/>
<path d="M0 0 C1.65 0 3.3 0 5 0 C5 2.64 5 5.28 5 8 C3.35 8 1.7 8 0 8 C0 5.36 0 2.72 0 0 Z " fill="#F1F1F1" transform="translate(95,188)"/>
<path d="M0 0 C1.65 0 3.3 0 5 0 C5 2.64 5 5.28 5 8 C3.35 8 1.7 8 0 8 C0 5.36 0 2.72 0 0 Z " fill="#FFFFFF" transform="translate(85,188)"/>
<path d="M0 0 C1.23031967 2.46063933 0.90719599 3.499081 0.5 6.1875 C-0.0376522 10.39343746 0.20484129 13.8475045 1 18 C-2 16 -2 16 -2.6875 14.375 C-3.86330935 5.43884892 -3.86330935 5.43884892 -1.5 1.5 C-1.005 1.005 -0.51 0.51 0 0 Z " fill="#F1B95A" transform="translate(114,58)"/>
<path d="M0 0 C6.57142857 5 6.57142857 5 8 10 C7.01 10.99 6.02 11.98 5 13 C4.87625 12.030625 4.7525 11.06125 4.625 10.0625 C4.315625 8.5465625 4.315625 8.5465625 4 7 C3.34 6.67 2.68 6.34 2 6 C0.9590934 4.35857037 -0.04504326 2.69287785 -1 1 C-0.67 0.67 -0.34 0.34 0 0 Z " fill="#E4A750" transform="translate(138,52)"/>
<path d="M0 0 C0.33 0 0.66 0 1 0 C1.28526928 3.37885612 1.46087248 6.63291991 1 10 C-1.5 12.125 -1.5 12.125 -4 13 C-3.71682074 11.39431334 -3.42312209 9.79047953 -3.125 8.1875 C-2.96257812 7.29417969 -2.80015625 6.40085937 -2.6328125 5.48046875 C-2 3 -2 3 0 0 Z " fill="#DC8324" transform="translate(145,62)"/>
<path d="M0 0 C0.53109375 0.40992187 1.0621875 0.81984375 1.609375 1.2421875 C2.31578125 1.78101562 3.0221875 2.31984375 3.75 2.875 C4.44609375 3.40867187 5.1421875 3.94234375 5.859375 4.4921875 C7.84722603 5.89238914 9.79843386 6.97855265 12 8 C10 8.875 10 8.875 7 9 C4.10933821 7.26346566 1.55843792 5.19022601 -1 3 C-0.67 2.01 -0.34 1.02 0 0 Z " fill="#EA8A1E" transform="translate(115,74)"/>
<path d="M0 0 C2.31 0 4.62 0 7 0 C7 1.32 7 2.64 7 4 C4.69 4 2.38 4 0 4 C0 2.68 0 1.36 0 0 Z " fill="#F4F4F4" transform="translate(145,188)"/>
<path d="M0 0 C2.31 0 4.62 0 7 0 C7 1.32 7 2.64 7 4 C4.69 4 2.38 4 0 4 C0 2.68 0 1.36 0 0 Z " fill="#FFFFFF" transform="translate(23,188)"/>
<path d="M0 0 C2.31 0 4.62 0 7 0 C7 1.32 7 2.64 7 4 C4.69 4 2.38 4 0 4 C0 2.68 0 1.36 0 0 Z " fill="#FFFFFF" transform="translate(5,188)"/>
<path d="M0 0 C1.98 0 3.96 0 6 0 C6 1.32 6 2.64 6 4 C4.02 4 2.04 4 0 4 C0 2.68 0 1.36 0 0 Z " fill="#F4F4F4" transform="translate(59,192)"/>
<path d="M0 0 C0.144375 1.11375 0.28875 2.2275 0.4375 3.375 C0.78372035 6.82142047 0.78372035 6.82142047 2 9 C0.35 9 -1.3 9 -3 9 C-3 6.36 -3 3.72 -3 1 C-1 0 -1 0 0 0 Z " fill="#CECECE" transform="translate(107,187)"/>
<path d="M0 0 C0.99 0.33 1.98 0.66 3 1 C2.88637738 2.4800841 2.75877092 3.95910074 2.625 5.4375 C2.52058594 6.67306641 2.52058594 6.67306641 2.4140625 7.93359375 C2.27742188 8.61550781 2.14078125 9.29742187 2 10 C1.01 10.495 1.01 10.495 0 11 C0 7.37 0 3.74 0 0 Z " fill="#FE0164" transform="translate(71,67)"/>
<path d="M0 0 C2.9375 0.8125 2.9375 0.8125 6 2 C6.33 2.99 6.66 3.98 7 5 C3.31245243 4.50168276 1.39509338 3.89932357 -1 1 C-0.67 0.67 -0.34 0.34 0 0 Z " fill="#F44467" transform="translate(133,3)"/>
<path d="M0 0 C0.99 0 1.98 0 3 0 C2.75 2.375 2.75 2.375 2 5 C-0.0625 6.3125 -0.0625 6.3125 -2 7 C-1.34 4.69 -0.68 2.38 0 0 Z " fill="#670D24" transform="translate(183,96)"/>
</svg>
