<?xml version="1.0" encoding="UTF-8" standalone="no"?>
<!-- Created with Inkscape (http://www.inkscape.org/) -->

<svg
   version="1.1"
   id="svg2"
   width="344.65332"
   height="472.44"
   viewBox="0 0 344.65332 472.44"
   sodipodi:docname="Parsian-logo.eps"
   xmlns:inkscape="http://www.inkscape.org/namespaces/inkscape"
   xmlns:sodipodi="http://sodipodi.sourceforge.net/DTD/sodipodi-0.dtd"
   xmlns="http://www.w3.org/2000/svg"
   xmlns:svg="http://www.w3.org/2000/svg">
  <defs
     id="defs6" />
  <sodipodi:namedview
     id="namedview4"
     pagecolor="#ffffff"
     bordercolor="#000000"
     borderopacity="0.25"
     inkscape:showpageshadow="2"
     inkscape:pageopacity="0.0"
     inkscape:pagecheckerboard="0"
     inkscape:deskcolor="#d1d1d1" />
  <g
     id="g8"
     inkscape:groupmode="layer"
     inkscape:label="ink_ext_XXXXXX"
     transform="matrix(1.3333333,0,0,-1.3333333,0,472.44)">
    <g
       id="g10"
       transform="scale(0.1)">
      <path
         d="m 1210.37,2599.2 c -18.45,125.01 -40.05,165.37 -114.66,270.91 100.21,147.82 156.71,353.45 196.73,525.84 40.59,-174.91 95.29,-376.24 196.72,-525.84 -74.61,-105.54 -96.21,-145.9 -114.67,-270.91 -50.33,47.27 -113.78,47.27 -164.12,0 v 0"
         style="fill:#050407;fill-opacity:1;fill-rule:evenodd;stroke:none"
         id="path12" />
      <path
         d="m 1172.75,1357.46 v 601.6 c -294.016,120.42 -333.949,306.93 -333.949,577.7 118.519,-48.18 161.779,-100.7 216.149,-188.36 14.59,79.77 34.35,139.3 78.26,204.44 141.6,-145.26 136.02,-568.79 136.02,-633.77 0,-223.07 0,-446.15 0,-669.23 H 263.523 c 0,500.83 0,1001.66 0,1502.49 0,145.3 31.102,377.91 210.594,410.59 l 47.461,-64.22 C 349.02,3037.39 357.148,2809.73 357.148,2657.71 V 1357.46 h 815.602 v 0"
         style="fill:#96121b;fill-opacity:1;fill-rule:evenodd;stroke:none"
         id="path14" />
      <path
         d="m 924.465,2552.16 c -90.395,122.07 -154.969,38.64 -152.164,-123.68 -58.84,474.51 -169.727,716.05 -421.828,920.36 328.961,-60.88 589.879,-289.8 775.007,-737.29 -75.91,35.52 -182.867,40.47 -201.015,-59.39 v 0"
         style="fill:#050407;fill-opacity:1;fill-rule:evenodd;stroke:none"
         id="path16" />
      <path
         d="m 817.457,3176.24 c 3.66,86.66 43.035,208.99 7.891,269.87 -32.953,57.08 -101.739,29.65 -131.598,2.28 -83.887,21.89 -143.316,-57.93 -96.672,-116.91 53.414,-67.51 134.133,-69.27 220.379,-155.24 v 0"
         style="fill:#050407;fill-opacity:1;fill-rule:evenodd;stroke:none"
         id="path18" />
      <path
         d="m 1150.58,3127.41 -106.39,-223.89 c -59.874,96.61 -105.713,156.46 -183.081,232.56 30.844,88.15 55.993,193.43 58.145,283.28 63.766,-103.91 140.776,-204.88 231.326,-291.95 v 0"
         style="fill:#96121b;fill-opacity:1;fill-rule:evenodd;stroke:none"
         id="path20" />
      <path
         d="m 1159.16,3197.73 c -36.12,72.14 -132.89,149.1 -172.015,224.85 -21.985,42.56 -5.985,113.01 103.365,94.92 24.34,41.04 107.92,31.71 126.16,-18.02 35.19,-95.91 -24.37,-223.23 -57.51,-301.75 v 0"
         style="fill:#050407;fill-opacity:1;fill-rule:evenodd;stroke:none"
         id="path22" />
      <path
         d="m 1412.11,1357.46 v 601.6 c 294.02,120.42 333.96,306.93 333.96,577.7 -118.51,-48.18 -161.77,-100.7 -216.15,-188.36 -14.59,79.77 -34.35,139.3 -78.26,204.44 -141.6,-145.26 -136.02,-568.79 -136.02,-633.77 0,-223.07 0,-446.15 0,-669.23 h 1005.71 c 0,500.83 0,1001.66 0,1502.49 0,145.3 -31.12,377.91 -210.59,410.59 l -47.48,-64.22 c 172.58,-61.31 164.43,-288.97 164.43,-440.99 V 1357.46 h -815.6 v 0"
         style="fill:#96121b;fill-opacity:1;fill-rule:evenodd;stroke:none"
         id="path24" />
      <path
         d="m 1660.41,2552.16 c 90.39,122.07 154.96,38.64 152.15,-123.68 58.85,474.51 169.74,716.05 421.83,920.36 -328.96,-60.88 -589.88,-289.8 -775,-737.29 75.92,35.52 182.88,40.47 201.02,-59.39 v 0"
         style="fill:#050407;fill-opacity:1;fill-rule:evenodd;stroke:none"
         id="path26" />
      <path
         d="m 1767.4,3176.24 c -3.65,86.66 -43.02,208.99 -7.89,269.87 32.97,57.08 101.76,29.65 131.6,2.28 83.89,21.89 143.32,-57.93 96.68,-116.91 -53.41,-67.51 -134.14,-69.27 -220.39,-155.24 v 0"
         style="fill:#050407;fill-opacity:1;fill-rule:evenodd;stroke:none"
         id="path28" />
      <path
         d="m 1434.3,3127.41 106.38,-223.89 c 59.87,96.61 105.71,156.46 183.07,232.56 -30.84,88.15 -55.98,193.43 -58.12,283.28 -63.77,-103.91 -140.81,-204.88 -231.33,-291.95 v 0"
         style="fill:#96121b;fill-opacity:1;fill-rule:evenodd;stroke:none"
         id="path30" />
      <path
         d="m 1425.7,3197.73 c 36.14,72.14 132.89,149.1 172.01,224.85 22,42.56 6,113.01 -103.35,94.92 -24.34,41.04 -107.91,31.71 -126.16,-18.02 -35.19,-95.91 24.38,-223.23 57.5,-301.75 v 0"
         style="fill:#050407;fill-opacity:1;fill-rule:evenodd;stroke:none"
         id="path32" />
      <path
         d="m 2277.62,361.082 c 0,31.77 6.68,88.387 20.02,169.887 3.24,12.422 12.44,34.73 27.63,66.98 l 2.76,1.379 c 0.47,-1.379 0.21,-5.047 -0.69,-11.058 l -2.77,-17.95 -11.74,-84.25 c -4.14,-29.91 -6.21,-53.64 -6.21,-71.121 V 404.59 c 0,-30.379 12.21,-45.578 36.6,-45.578 7.82,0 14.73,10.828 20.73,32.449 1.36,4.148 2.75,6.219 4.14,6.219 2.28,0 3.43,-2.282 3.43,-6.91 0,-3.231 -0.89,-8.969 -2.75,-17.258 -12.42,-57.09 -29.47,-85.633 -51.09,-85.633 -26.72,0 -40.06,24.391 -40.06,73.203 z m -118.48,65.906 v -10.699 c 0,-33.879 13.79,-50.809 41.31,-50.809 8.81,0 16.6,12.079 23.38,36.18 1.56,4.621 3.12,6.93 4.69,6.93 2.57,0 3.88,-2.559 3.88,-7.699 0,-3.621 -1.01,-10.012 -3.12,-19.25 -14.03,-63.661 -33.26,-95.461 -57.66,-95.461 -30.16,0 -45.21,27.191 -45.21,81.601 l 0.19,0.36 c 0.04,7.257 1.06,20.769 3.13,40.449 l 3.88,37.73 c 0,1.532 -0.23,2.551 -0.78,3.071 -1.54,0.527 -7.01,-5.629 -16.37,-18.481 -3.1,-5.148 -9.33,-13.851 -18.69,-26.172 -33.75,-44.648 -83.14,-78.297 -148.08,-100.859 -55.08,-19.481 -115.1,-29.25 -180.02,-29.25 h -11.7 c -52.46,0 -85.72,8.223 -99.77,24.633 -8.32,9.769 -12.46,24.109 -12.46,43.109 0,51.348 4.44,76.988 13.24,76.988 2.6,-11.3 7.56,-25.16 14.81,-41.57 14.04,-15.398 48.09,-23.09 102.11,-23.09 28.59,0 52.21,0.77 70.92,2.301 69.12,5.641 128.04,20.031 176.91,43.109 64.92,30.27 104.18,72.911 117.68,127.813 l 10.91,43.887 c 0.53,2.543 6.23,15.632 17.15,39.25 4.14,8.711 11.16,21.031 21.04,36.961 v -11.551 c -0.53,-2.071 -2.33,-10.778 -5.45,-26.168 l -16.37,-80.852 c -2.09,-10.238 -4.43,-30.258 -7.01,-60.039 -1.56,-17.469 -2.34,-31.32 -2.34,-41.57 v 0 l -0.2,-0.852 z m 40.1,362.403 c 1.39,-7.813 -1.39,-18.641 -8.28,-32.45 -8.3,-16.089 -16.12,-24.171 -23.48,-24.171 -5.06,4.14 -12.44,9.89 -22.11,17.269 -9.67,7.371 -14.49,12.422 -14.49,15.18 l 1.37,2.769 c 2.77,5.992 7.81,17.051 15.19,33.141 1.86,3.68 6.45,11.742 13.81,24.172 l 2.77,3.461 c 1.86,-1.864 5.06,-4.141 9.67,-6.91 8.75,-6.43 14.02,-11.051 15.88,-13.801 5.06,-6.442 8.28,-12.66 9.67,-18.66 v 0 z m 24.78,-84.02 c 12.48,12.848 36.62,33.641 72.48,62.359 l 99.77,79.301 c 19.24,15.399 42.07,35.18 68.57,59.289 7.27,6.68 27.82,26.16 61.59,58.5 35.84,34.41 55.31,53.37 58.43,56.98 0,-2.55 -0.54,-4.87 -1.56,-6.93 -6.76,-30.8 -35.06,-70.831 -84.94,-120.108 -22.85,-22.563 -57.42,-52.883 -103.65,-90.84 -2.09,-1.543 -40.53,-31.32 -115.35,-89.313 l -53.77,-41.57 c -21.82,-16.937 -33.27,-24.629 -34.3,-23.098 8.32,22.571 19.26,41.059 32.73,55.43 v 0 z M 1587.62,49.0313 c 0,-10.1407 -2.97,-19.3321 -8.97,-27.6211 C 1568.5,7.12109 1560,0 1553.09,0 c -0.47,0 -6.43,5.51953 -17.95,16.5781 -11.53,11.0508 -17.27,17.043 -17.27,17.9532 0,1.8593 5.74,12.6484 17.27,32.4492 10.13,17.4804 16.09,26.2383 17.95,26.2383 1.87,0 6.44,-3.4493 13.82,-10.3594 13.81,-13.3281 20.71,-24.6406 20.71,-33.8281 v 0 z m -31.76,87.0077 c 0,-10.141 -2.99,-19.34 -8.98,-27.621 C 1536.74,94.1289 1528.24,87 1521.33,87 c -0.47,0 -6.43,5.5391 -17.95,16.582 -11.52,11.047 -17.27,17.047 -17.27,17.949 0,1.867 5.75,12.66 17.27,32.457 10.14,17.481 16.09,26.242 17.95,26.242 1.85,0 6.42,-3.441 13.81,-10.359 13.81,-13.332 20.72,-24.641 20.72,-33.832 v 0 z m 68.36,0 c 0,-10.141 -2.97,-19.34 -8.99,-27.621 C 1605.1,94.1289 1596.6,87 1589.69,87 c -0.47,0 -6.43,5.5391 -17.95,16.582 -11.53,11.047 -17.27,17.047 -17.27,17.949 0,1.867 5.74,12.66 17.27,32.457 10.14,17.481 16.09,26.242 17.95,26.242 1.85,0 6.42,-3.441 13.83,-10.359 13.8,-13.332 20.7,-24.641 20.7,-33.832 v 0 z m -100.92,277.691 -1,-3.429 1.86,3.429 v -10.359 c 0,-30.383 12.21,-45.582 36.6,-45.582 7.81,0 14.71,10.84 20.72,32.461 1.37,4.141 2.76,6.211 4.15,6.211 2.28,0 3.45,-2.281 3.45,-6.902 0,-3.239 -0.92,-8.969 -2.77,-17.27 -12.42,-57.098 -29.47,-85.617 -51.1,-85.617 -26.71,0 -40.05,24.379 -40.05,73.187 l 0.04,0.059 c -0.32,-0.027 -0.61,-0.059 -0.9,-0.059 0,31.77 6.68,88.403 20.02,169.891 3.24,12.43 12.42,34.73 27.61,66.98 l 2.78,1.372 c 0.47,-1.372 0.21,-5.032 -0.69,-11.043 l -2.77,-17.957 -11.74,-84.25 c -4.14,-29.903 -6.21,-53.641 -6.21,-71.122 v 0 z m -111.27,59.379 c 0,-12.898 -3.46,-33.347 -10.35,-61.449 l -8.3,-33.84 c -7.36,-21.621 -13.32,-36.121 -17.95,-43.5 -8.77,-14.718 -20.02,-24.859 -33.83,-30.39 l -24.86,-10.36 c -11.06,-4.621 -21.88,-6.898 -32.46,-6.898 -2.29,0 -3.67,0.898 -4.14,2.758 -1.39,4.14 5.05,11.738 19.34,22.789 4.6,3.672 13.8,10.832 27.61,21.402 17.95,13.82 32.68,30.867 44.2,51.109 2.77,4.61 8.77,20.93 17.95,49.032 l 8.3,24.847 c 4.61,14.289 8.28,21.422 11.03,21.422 2.29,-3.242 3.46,-5.543 3.46,-6.922 v 0 z M 677.32,99.1992 c 1.379,-7.8086 -1.382,-18.6406 -8.289,-32.4609 -8.289,-16.0899 -16.097,-24.1602 -23.48,-24.1602 -5.043,4.1407 -12.426,9.8828 -22.094,17.2617 -9.668,7.3907 -14.504,12.4219 -14.504,15.1915 l 1.379,2.7578 c 2.766,6 7.816,17.0507 15.195,33.1599 1.856,3.66 6.43,11.723 13.809,24.172 l 2.766,3.438 c 1.851,-1.86 5.05,-4.137 9.671,-6.899 8.758,-6.43 14.024,-11.058 15.879,-13.82 5.051,-6.418 8.286,-12.641 9.668,-18.6408 v 0 z m 71.125,4.1528 c 1.383,-7.8207 -1.379,-18.6411 -8.285,-32.4614 -8.285,-16.1015 -16.097,-24.1718 -23.48,-24.1718 -5.047,4.1406 -12.426,9.8906 -22.094,17.2617 -9.668,7.3906 -14.504,12.4414 -14.504,15.1992 l 1.379,2.7617 c 2.762,6 7.816,17.0469 15.195,33.1486 1.856,3.672 6.43,11.738 13.809,24.172 l 2.762,3.449 c 1.863,-1.859 5.05,-4.152 9.668,-6.91 8.761,-6.43 14.031,-11.039 15.882,-13.813 5.055,-6.429 8.289,-12.648 9.668,-18.636 v 0 z m -328.328,338.226 0.371,1.902 v 16.129 c 0,28.832 2.289,58.442 6.867,88.731 2.516,15.172 7.098,44.738 13.719,88.738 4.571,29.832 6.864,51.34 6.864,64.531 0.523,2.942 0.242,4.629 -0.758,5.129 -1.008,-0.5 -1.77,-0.957 -2.293,-1.457 l -31.254,-77.742 -10.68,-73.328 -6.094,-57.199 c -5.488,-51.473 -8.3,-88.082 -8.386,-109.711 l -0.578,-1.031 c 0,-53.301 17.011,-79.93 51.085,-79.93 12.719,0 23.633,4.898 32.782,14.66 11.676,19.07 20.347,33.512 25.926,43.281 14.242,21.989 25.156,32.989 32.777,32.989 4.051,0 9.148,-2.192 15.25,-6.598 12.199,-8.801 41.172,-15.633 86.906,-20.531 36.602,-3.903 67.859,-5.86 93.781,-5.86 v 0 l 0.379,0.528 v -1.27 c 93.539,0 185.5,12.242 275.989,36.66 52.84,14.16 117.17,40.34 192.89,78.481 49.79,24.929 97.58,53.3 143.32,85.058 l 127.33,88.012 c 13.71,9.762 32.24,18.551 55.64,26.391 12.74,4.41 24.65,16.64 35.84,36.668 5.57,10.269 8.91,17.382 9.92,21.273 0.51,2.43 -0.52,3.668 -3.06,3.668 -12.19,-3.441 -20.33,-6.371 -24.4,-8.801 -17.77,-4.398 -66.56,-32.5 -146.38,-84.34 -51.31,-33.23 -83.85,-53.757 -97.59,-61.597 -88.43,-50.371 -174.34,-87.043 -257.68,-110 -51.842,-14.16 -109.784,-24.203 -173.827,-30.071 -37.589,-3.441 -69.906,-5.14 -96.82,-5.14 h -22.879 c -8.14,0 -14.238,0.238 -18.289,0.738 l -0.383,0.731 c -18.3,0 -45.367,4.031 -81.199,12.101 -35.832,8.07 -61.613,12.109 -77.387,12.109 -14.718,0 -32.777,-15.91 -54.125,-47.679 -7.621,-11.231 -12.722,-18.09 -15.25,-20.531 -7.097,-6.372 -16.769,-9.54 -28.968,-9.54 -28.989,0 -45.41,17.942 -49.356,53.848 z m -107.676,-37.75 c -4.609,-20.488 -8.449,-35.316 -11.511,-44.519 -25.102,-76.77 -66.551,-131.039 -124.364,-162.75 -22.503,-12.278 -48.121,-18.43 -76.773,-18.43 -31.7071,0 -56.2735,9.84 -73.6914,29.551 C 8.67969,227.41 0,253.371 0,285.609 c 0,50.661 21.7383,113.36 65.2539,188.082 5.1328,8.668 8.9688,12.797 11.5156,12.278 1.0039,-0.528 1.293,-3.309 0.7657,-8.438 -1.0079,-5.14 -2.0664,-9.461 -3.0704,-13.062 l -25.332,-55.27 C 36.8516,382.57 30.707,359.539 30.707,340.121 c 0,-53.742 29.7032,-80.609 89.051,-80.609 63.472,0 113.609,28.636 150.461,85.976 11.754,17.891 17.894,38.621 18.426,62.184 l 1.531,55.269 c 0.531,15.348 4.844,33.528 13.051,54.5 l 15.359,29.938 c 4.07,8.211 7.43,13.582 9.973,16.133 2.546,-2.551 3.597,-5.903 3.074,-9.992 l -3.84,-26.872 -3.84,-38.378 c 0,-22.508 -3.836,-50.661 -11.512,-84.442 v 0 z m -103.386,39.274 c 0.476,-1.852 0.695,-4.364 0.695,-7.59 0,-8.293 -2.762,-16.364 -8.289,-24.172 -11.051,-15.68 -19.121,-23.961 -24.172,-24.871 -0.902,0 -2.976,1.179 -6.211,3.461 -10.574,7.379 -16.101,11.519 -16.574,12.429 -6.906,4.61 -10.832,6.911 -11.734,6.911 -4.625,3.23 -7.125,6.429 -7.606,9.66 l 15.887,35.91 c 5.047,8.762 9.453,15.879 13.121,21.41 l 4.144,6.219 c 3.239,-1.387 8.071,-3.938 14.497,-7.598 7.816,-6 13.339,-10.57 16.578,-13.82 5.996,-5.992 9.195,-11.949 9.664,-17.949 v 0 z M 2353.77,128.461 c 1.39,-7.82 -1.39,-18.652 -8.28,-32.461 -8.28,-16.1016 -16.1,-24.1719 -23.48,-24.1719 -5.06,4.1407 -12.44,9.8907 -22.11,17.2617 -9.67,7.379 -14.49,12.4302 -14.49,15.1992 l 1.39,2.762 c 2.75,6 7.79,17.039 15.19,33.14 1.84,3.668 6.43,11.739 13.81,24.168 l 2.75,3.45 c 1.86,-1.848 5.04,-4.141 9.67,-6.899 8.77,-6.43 14.03,-11.051 15.88,-13.808 5.06,-6.43 8.28,-12.653 9.67,-18.641 v 0 0"
         style="fill:#050407;fill-opacity:1;fill-rule:evenodd;stroke:none"
         id="path34" />
    </g>
  </g>
</svg>
