<?xml version="1.0" encoding="UTF-8"?>
<svg version="1.1" xmlns="http://www.w3.org/2000/svg" width="525" height="550">
<path d="M0 0 C64.68 0 129.36 0 196 0 C195.32717177 8.07393873 194.50915183 15.90213546 193.22167969 23.87011719 C193.04424728 24.99089661 192.86681488 26.11167603 192.68400574 27.26641846 C192.10077588 30.94391016 191.51134675 34.62037913 190.921875 38.296875 C190.50890042 40.8934305 190.09633065 43.49005041 189.68414307 46.08673096 C188.70906931 52.22531525 187.72959272 58.36318814 186.74842095 64.50080037 C185.65146918 71.3637453 184.55885019 78.22737716 183.46688354 85.09111679 C183.14565936 87.110097 182.82433197 89.12906075 182.50296879 91.14801884 C181.45810057 97.71248015 180.4137155 104.27701804 179.36997986 110.84165955 C178.97186377 113.34488416 178.5737169 115.84810388 178.17553711 118.35131836 C177.98539756 119.54691092 177.79525801 120.74250349 177.59935665 121.97432613 C176.63615493 128.02513691 175.66682782 134.074866 174.68483543 140.12265587 C174.20026935 143.11083515 173.72053264 146.09977526 173.24196625 149.08892059 C172.94315165 150.94300163 172.63711156 152.79591399 172.33062744 154.64874268 C169.11795186 174.7921476 168.70576317 197.62645406 181 215 C186.29014053 222.14814111 193.19867075 225.34808605 201.015625 229.06640625 C211.17855553 233.92304931 219.26186305 239.4884066 224.9375 249.375 C226.43872471 254.49682547 227.4892621 259.90055281 225.0859375 264.90234375 C222.3008081 268.57691771 219.44107626 270.12920073 215 271 C208.70928758 271.3396713 203.68928804 270.29342831 197.6875 268.5 C187.10131601 265.55094055 177.31270938 264.14194682 167 269 C163.14364858 271.6161178 159.99540168 274.42394734 157.5 278.375 C156.10516756 285.69787029 156.73788593 291.04432363 160.39453125 297.640625 C165.20990323 304.71723006 171.79797461 308.82139059 180 311 C185.42987048 311.57146435 190.83014344 311.56537633 196.28173828 311.54589844 C197.90881838 311.55464653 199.5358899 311.5651366 201.16294861 311.57722473 C205.55278151 311.60495415 209.94233189 311.60849232 214.33223963 311.60750484 C218.9300425 311.61064523 223.52772023 311.63628678 228.12545776 311.65948486 C236.8197431 311.69996242 245.51395358 311.72036615 254.20831859 311.73345876 C264.11169383 311.74935679 274.01494219 311.78778419 283.91824365 311.82805204 C304.27878719 311.91033811 324.63932463 311.9645007 345 312 C345 315.63 345 319.26 345 323 C221.91 323 98.82 323 -28 323 C-28 319.37 -28 315.74 -28 312 C20.84 311.67 69.68 311.34 120 311 C114.72 309.68 109.44 308.36 104 307 C101.07411081 305.84106001 98.53011444 304.78561357 95.8125 303.3125 C95.15797852 302.96928711 94.50345703 302.62607422 93.82910156 302.27246094 C66.45547754 287.56959738 49.63385103 263.41258596 39.6875 234.375 C39.38642334 233.51414795 39.08534668 232.6532959 38.77514648 231.76635742 C30.89896812 207.44954952 28.27745049 181.02178809 24.23322845 155.85942364 C23.38070026 150.56028752 22.52338514 145.26192541 21.66682434 139.96343994 C20.23395842 131.09529951 18.80490123 122.22655182 17.37817383 113.35742188 C15.72975182 103.11046174 14.07508236 92.8645248 12.41719168 82.6190927 C10.81548771 72.71993448 9.21821458 62.82006622 7.6229496 52.91986847 C6.94618326 48.72038573 6.2678511 44.52116038 5.5882473 40.32213593 C4.79090578 35.39442322 3.99743713 30.46610226 3.20697784 25.53728104 C2.91647078 23.72985001 2.62462439 21.92263367 2.33134651 20.11565018 C1.93166865 17.65170436 1.53683599 15.18702956 1.14323425 12.72210693 C1.02602545 12.00666206 0.90881666 11.29121719 0.78805608 10.55409217 C0.2163497 6.93888843 0 3.69158257 0 0 Z M87 54 C86.2929639 56.10757025 86.2929639 56.10757025 86.25 58.5625 C86.19457031 59.51898438 86.13914062 60.47546875 86.08203125 61.4609375 C85.91559654 68.64140639 85.92889461 75.81835519 86 83 C87.79206547 82.85915204 89.58364917 82.71216299 91.375 82.5625 C92.37273437 82.48128906 93.37046875 82.40007812 94.3984375 82.31640625 C96.97927613 82.15034374 96.97927613 82.15034374 99 81 C100.65999054 77.35573397 101.87728048 73.53202982 103.1875 69.75 C103.56841797 68.69941406 103.94933594 67.64882812 104.34179688 66.56640625 C104.69693359 65.54933594 105.05207031 64.53226563 105.41796875 63.484375 C105.74563232 62.55334961 106.0732959 61.62232422 106.41088867 60.66308594 C107.06590192 57.70208944 106.90821111 55.87783315 106 53 C103.02353801 50.76088882 100.14443379 50.70251827 96.5 50.6875 C95.5615625 50.67074219 94.623125 50.65398437 93.65625 50.63671875 C90.52366964 51.06514518 89.18945012 51.73020309 87 54 Z M64.4375 59.75 C62.7303381 62.42207949 62.9258636 63.83762981 63.44116211 66.89599609 C64.57025564 71.14699131 66.6134234 75.01248357 68.5625 78.9375 C68.98724609 79.81212891 69.41199219 80.68675781 69.84960938 81.58789062 C70.89113972 83.72946426 71.94439368 85.86532944 73 88 C76.3 86.68 79.6 85.36 83 84 C83.0578304 79.54172074 83.09353855 75.0835372 83.125 70.625 C83.14175781 69.35398437 83.15851563 68.08296875 83.17578125 66.7734375 C83.18222656 65.56171875 83.18867188 64.35 83.1953125 63.1015625 C83.20578613 61.98088379 83.21625977 60.86020508 83.22705078 59.70556641 C83.28055323 56.85022157 83.28055323 56.85022157 81 55 C74.79540148 54.26135732 69.49802537 56.29403146 64.4375 59.75 Z M110 59 C108.53104286 62.09263852 107.38442767 65.27199336 106.25 68.5 C105.77626953 69.78197266 105.77626953 69.78197266 105.29296875 71.08984375 C103.87281281 75.0306228 103 77.7421696 103 82 C107.95 82.99 107.95 82.99 113 84 C122.44709732 74.07369566 122.44709732 74.07369566 128.6875 62.375 C127.82584342 59.39836817 126.31618215 57.79866957 123.8515625 55.953125 C118.4619598 53.17873036 113.68490609 54.26742453 110 59 Z M128 71 C127.14341797 71.9590625 127.14341797 71.9590625 126.26953125 72.9375 C123.0693536 76.54025863 119.96742066 80.20170156 117 84 C118.49820159 87.81360406 120.80001267 89.53926661 124 92 C126.94565065 90.43149593 129.87987204 88.84270107 132.8125 87.25 C133.64587891 86.8065625 134.47925781 86.363125 135.33789062 85.90625 C136.54155273 85.24882812 136.54155273 85.24882812 137.76953125 84.578125 C138.50792236 84.18012695 139.24631348 83.78212891 140.00708008 83.37207031 C142.27054444 81.81373762 143.56980554 80.34098616 145 78 C145 73.83127765 144.29153565 72.32797761 141.5 69.1875 C140.675 68.465625 139.85 67.74375 139 67 C138.67 66.67 138.34 66.34 138 66 C132.87590835 65.14598473 131.26816527 67.26495397 128 71 Z M50 72 C47.54552445 74.98517297 46.1434578 77.03883277 45.5703125 80.87890625 C46.16099675 85.16942184 47.91680176 86.36845379 51.1875 89.125 C52.15042969 89.95257813 53.11335938 90.78015625 54.10546875 91.6328125 C56.72297872 93.77344818 59.35111976 95.89832902 62 98 C65.37471011 96.55369567 67.78192764 94.95742982 70 92 C69.7005312 86.49310145 67.32331171 81.98727602 64.9375 77.125 C64.56044922 76.34125 64.18339844 75.5575 63.79492188 74.75 C62.87006766 72.83004947 61.93596022 70.914561 61 69 C56.28354646 68.88306314 53.78124085 69.01480985 50 72 Z M34 89 C33.10524321 91.70147722 32.56620778 94.17492818 33 97 C36.272655 101.56713136 41.60637858 103.46713537 46.5625 105.75 C47.42552734 106.16121094 48.28855469 106.57242188 49.17773438 106.99609375 C53.88680956 109.31092517 53.88680956 109.31092517 59 110 C60.49821059 106.62902617 61 104.79557881 61 101 C58.81044697 98.73070496 58.81044697 98.73070496 55.9375 96.625 C52.546591 93.99149557 49.262969 91.36673492 46.125 88.4375 C43.28568898 85.85386685 43.28568898 85.85386685 40.3125 85.4375 C37.34554137 86.15919264 36.03409846 86.67531604 34 89 Z M82 90 C80.07527313 92.10328915 80.07527313 92.10328915 80 95 C81.16650951 101.08892329 84.50227852 105.84474462 89 110 C91.36180544 111.78090074 91.36180544 111.78090074 94 112 C96.02538964 111.05247861 98.02895087 110.05591918 100 109 C99.69471967 105.52015976 99.37957083 102.04128417 99.0625 98.5625 C98.97548828 97.56927734 98.88847656 96.57605469 98.79882812 95.55273438 C98.71181641 94.60849609 98.62480469 93.66425781 98.53515625 92.69140625 C98.456604 91.81685791 98.37805176 90.94230957 98.29711914 90.04125977 C98.20914952 88.00985544 98.20914952 88.00985544 97 87 C91.49269377 86.55042398 86.79281723 87.23577053 82 90 Z M102 88 C101.42806049 98.92974969 101.42806049 98.92974969 105 109 C108.3 109 111.6 109 115 109 C115.53251766 107.08654673 116.05059483 105.1690705 116.5625 103.25 C116.85253906 102.18265625 117.14257812 101.1153125 117.44140625 100.015625 C117.97576817 97.13081801 118.04392975 95.68965429 117 93 C114.64854975 89.78222597 111.78091837 88.9637635 108 88 C106.00025191 87.96825797 103.99967134 87.96374376 102 88 Z M70.5625 97.1875 C66.35179686 101.67514673 66.35179686 101.67514673 64.875 107.4375 C67.78116856 114.05710617 74.28335706 116.86969457 80.66796875 119.43359375 C83.31260119 120.07592491 84.55601228 120.21937717 87 119 C88.29660434 116.50965614 88.29660434 116.50965614 89 114 C88.49210937 113.46632813 87.98421875 112.93265625 87.4609375 112.3828125 C82.96371894 107.5150366 79.39929196 102.69367268 76.2265625 96.87109375 C75.82179688 96.25363281 75.41703125 95.63617188 75 95 C72.70222357 94.77736342 72.70222357 94.77736342 70.5625 97.1875 Z M29.1875 107 C27.63546128 110.92093992 27.7865258 113.80167404 28 118 C34.0271569 121.01780507 39.78122475 121.89498317 46.4375 122.6875 C47.96407227 122.88182617 47.96407227 122.88182617 49.52148438 123.08007812 C52.01317308 123.39592599 54.50644541 123.69923764 57 124 C57 120.7 57 117.4 57 114 C53.60876668 112.48878727 50.21269329 110.99080233 46.8125 109.5 C45.85279297 109.07074219 44.89308594 108.64148438 43.90429688 108.19921875 C42.97294922 107.79316406 42.04160156 107.38710937 41.08203125 106.96875 C40.22843018 106.59169922 39.3748291 106.21464844 38.49536133 105.82617188 C34.67632681 104.56175422 32.01430832 103.88076323 29.1875 107 Z M92.5 119.1875 C90.46414908 123.00472048 89.60895123 126.67002362 90 131 C91.76927567 135.26970311 93.98036491 138.39121414 97.125 141.75 C97.92421875 142.61367188 98.7234375 143.47734375 99.546875 144.3671875 C100.35640625 145.23601562 101.1659375 146.10484375 102 147 C103.46149562 148.62215649 104.91986611 150.24713438 106.375 151.875 C108.74618421 154.51694227 111.13109762 157.14031855 113.5546875 159.734375 C143.85184886 192.22698284 157.52630565 222.70883788 161 267 C162.051875 266.566875 162.051875 266.566875 163.125 266.125 C168.6659788 263.9567909 173.39847076 262.71329411 179.375 262.375 C181.24285156 262.26285156 181.24285156 262.26285156 183.1484375 262.1484375 C184.55996094 262.07496094 184.55996094 262.07496094 186 262 C178.70897471 228.35954844 167.80004082 194.80236522 147 167 C145.84812007 165.44202567 144.69711813 163.88340191 143.546875 162.32421875 C141.74639632 159.88609091 139.9454966 157.44829694 138.14160156 155.01269531 C128.3041023 141.69482041 119.96806607 128.95010685 115 113 C106.16529788 112.40551537 99.32841719 113.21263496 92.5 119.1875 Z M63 114 C61.3122094 115.6877906 61.78812323 117.75286785 61.75 120.0625 C61.79180056 125.40600515 62.68642784 129.19488859 65 134 C70.6095468 136.8047734 78.99271777 134.88996774 85 134 C85 130.37 85 126.74 85 123 C83.99839844 122.68546875 82.99679688 122.3709375 81.96484375 122.046875 C68.84530491 117.84934713 68.84530491 117.84934713 63 114 Z M31 129 C29.94410091 132.46938271 29.70853739 134.27910394 31.07739258 137.66479492 C32.82835734 140.29955049 32.82835734 140.29955049 36.00268555 140.56762695 C37.2019165 140.54144287 38.40114746 140.51525879 39.63671875 140.48828125 C41.58481445 140.46411133 41.58481445 140.46411133 43.57226562 140.43945312 C44.94402699 140.39767609 46.31577177 140.35535135 47.6875 140.3125 C49.07092382 140.28741745 50.45439077 140.26460418 51.83789062 140.24414062 C55.22634764 140.18510827 58.61263385 140.10280082 62 140 C61.31038407 138.02698439 60.58788564 136.06543966 59.8515625 134.109375 C59.45275879 133.01592773 59.05395508 131.92248047 58.64306641 130.79589844 C57.23559555 127.78047568 57.23559555 127.78047568 54.20678711 126.7565918 C51.09812483 126.20046849 48.15718148 126.03452568 45 126 C43.97003906 125.93683594 42.94007813 125.87367188 41.87890625 125.80859375 C35.60730394 125.30002984 35.60730394 125.30002984 31 129 Z M70 139 C69.67 139.99 69.34 140.98 69 142 C70.78594659 145.68328601 70.78594659 145.68328601 74 148 C80.22335591 147.86583146 86.10399121 146.96533626 92 145 C91.37224433 143.64791086 90.69580267 142.31836295 90 141 C89.649375 140.2575 89.29875 139.515 88.9375 138.75 C86.18487914 136.2637618 84.0330427 136.56706917 80.42578125 136.73828125 C76.73249799 137.13675142 73.53028846 137.80222356 70 139 Z M51 143.40625 C42.66461594 144.02205098 42.66461594 144.02205098 35 147 C35.50334547 151.4042729 36.54640863 154.13604618 40 157 C49.09282039 158.32684933 60.30093209 153.42037721 69 151 C68.2618065 149.67083857 67.50413187 148.35248267 66.73828125 147.0390625 C66.31844971 146.30381348 65.89861816 145.56856445 65.46606445 144.81103516 C63.97809069 142.5623561 63.97809069 142.5623561 60.1875 142.375 C57.11801356 142.66535683 54.06926128 143.10219234 51 143.40625 Z M84.8125 150 C83.68811523 150.28617188 83.68811523 150.28617188 82.54101562 150.578125 C80.69319813 151.04890653 78.84648912 151.52403502 77 152 C76.82675568 155.88587656 76.82675568 155.88587656 78.4375 159.375 C82.39632802 161.8854763 85.55899629 160.96310924 90 160 C93.69400126 159.08602031 97.35244541 158.08403959 101 157 C101 152.66314164 98.91985986 151.0556673 96 148 C92.09627148 148 88.56475469 149.02998481 84.8125 150 Z M57.4375 157.375 C56.57447266 157.59671875 55.71144531 157.8184375 54.82226562 158.046875 C53.99275391 158.26601563 53.16324219 158.48515625 52.30859375 158.7109375 C51.55376709 158.90993652 50.79894043 159.10893555 50.02124023 159.31396484 C47.72695945 159.99580615 47.72695945 159.99580615 45 162 C44.33256123 164.41344667 44.33256123 164.41344667 45 167 C46.99567496 169.4260233 46.99567496 169.4260233 50 171 C52.8553414 170.70250471 54.99792853 170.27592365 57.6875 169.4375 C58.39068359 169.23930664 59.09386719 169.04111328 59.81835938 168.83691406 C61.88674546 168.24824873 63.94315995 167.62764057 66 167 C67.07894531 166.68675781 68.15789062 166.37351562 69.26953125 166.05078125 C71.52128003 165.39039713 73.76340517 164.70968875 76 164 C75.69835937 163.39671875 75.39671875 162.7934375 75.0859375 162.171875 C74.265625 160.53125 73.4453125 158.890625 72.625 157.25 C72.08875 156.5075 71.5525 155.765 71 155 C66.15935902 155 62.08740423 156.13316511 57.4375 157.375 Z M94.125 162 C92.97257812 162.37125 91.82015625 162.7425 90.6328125 163.125 C89.32957031 163.558125 89.32957031 163.558125 88 164 C87.35821451 166.38498917 87.35821451 166.38498917 87 169 C88.37283423 171.54002013 88.37283423 171.54002013 91 173 C95.99881312 172.57782362 100.63745596 171.35465586 105.4375 169.9375 C106.67371094 169.57527344 107.90992188 169.21304688 109.18359375 168.83984375 C110.11300781 168.56269531 111.04242188 168.28554688 112 168 C111.1939386 164.20113638 110.16506612 162.39518517 107 160 C102.30757734 159.59489876 98.57144443 160.54809978 94.125 162 Z M67.4375 169.875 C66.46619141 170.14441406 65.49488281 170.41382813 64.49414062 170.69140625 C63.56666016 170.95566406 62.63917969 171.21992188 61.68359375 171.4921875 C60.83337646 171.73308105 59.98315918 171.97397461 59.10717773 172.22216797 C56.82247538 172.89853272 56.82247538 172.89853272 55 175 C54.92424122 178.04638827 54.92424122 178.04638827 56 181 C58.87032782 182.65829837 60.47439627 183.07882435 63.77075195 182.58447266 C64.75003662 182.2807373 65.72932129 181.97700195 66.73828125 181.6640625 C67.80498047 181.34179688 68.87167969 181.01953125 69.97070312 180.6875 C71.07349609 180.336875 72.17628906 179.98625 73.3125 179.625 C74.43462891 179.28210938 75.55675781 178.93921875 76.71289062 178.5859375 C79.47999187 177.73814478 82.24165898 176.87579468 85 176 C83.78534783 172.92254092 82.52352768 169.93823196 81 167 C76.27507563 167 71.95737095 168.58016688 67.4375 169.875 Z M104.8125 172.9375 C102.93498047 173.47697266 102.93498047 173.47697266 101.01953125 174.02734375 C98.14951183 174.69840619 98.14951183 174.69840619 97 176 C96.74994614 178.95817107 96.74994614 178.95817107 97 182 C98.89709051 184.32393834 98.89709051 184.32393834 102.09765625 184.28125 C106.53540746 183.96141207 110.24822069 182.91814579 114.4375 181.5 C115.16904297 181.26152344 115.90058594 181.02304687 116.65429688 180.77734375 C118.4392116 180.19403828 120.22005557 179.59830065 122 179 C120.42017565 175.67258234 118.87780795 173.36995949 116 171 C111.83566978 171 108.7967903 171.77730769 104.8125 172.9375 Z M81.171875 180.27734375 C80.29015625 180.54353516 79.4084375 180.80972656 78.5 181.08398438 C77.13875 181.50647461 77.13875 181.50647461 75.75 181.9375 C74.82703125 182.21529297 73.9040625 182.49308594 72.953125 182.77929688 C68.65127573 183.79280837 68.65127573 183.79280837 65 186 C65.28730055 188.33944736 65.61936779 190.6739143 66 193 C72.589355 194.59935801 77.56576987 193.05284906 83.9375 191.0625 C84.90751953 190.77181641 85.87753906 190.48113281 86.87695312 190.18164062 C89.25541177 189.46693138 91.62916004 188.73951345 94 188 C94 184.30581799 92.71820705 182.22163822 91 179 C87.44403418 178.87085731 84.57130376 179.24316379 81.171875 180.27734375 Z M114.9375 184.4375 C114.19177734 184.66759766 113.44605469 184.89769531 112.67773438 185.13476562 C109.05319496 186.040346 109.05319496 186.040346 106 188 C105.71332173 190.72344361 105.69996694 192.437438 107 194.875 C111.17380645 197.22276613 116.02360594 195.25961923 120.37890625 194.1015625 C125.23664543 192.69046816 125.23664543 192.69046816 130 191 C130.33 190.34 130.66 189.68 131 189 C130.04882866 187.8274869 129.08882991 186.66212985 128.125 185.5 C127.59132812 184.8503125 127.05765625 184.200625 126.5078125 183.53125 C126.01023438 183.0259375 125.51265625 182.520625 125 182 C121.51280184 182 118.24042902 183.39582907 114.9375 184.4375 Z M91.7734375 191.53125 C90.7421875 191.84707031 89.7109375 192.16289062 88.6484375 192.48828125 C87.56820312 192.82214844 86.48796875 193.15601563 85.375 193.5 C84.28703125 193.83386719 83.1990625 194.16773438 82.078125 194.51171875 C79.38464316 195.33866493 76.69198492 196.16819625 74 197 C73.66602213 199.87413125 73.66602213 199.87413125 74 203 C75.62974173 205.02965656 75.62974173 205.02965656 78 206 C80.0714902 206.11490018 80.0714902 206.11490018 82.25 205.5 C83.53777344 205.19449219 83.53777344 205.19449219 84.8515625 204.8828125 C91.28409996 203.07914815 97.64723446 201.06504289 104 199 C101.525 194.545 101.525 194.545 99 190 C96.37802652 190 94.28246517 190.75924149 91.7734375 191.53125 Z M124.5625 195.375 C123.37817383 195.70757812 123.37817383 195.70757812 122.16992188 196.046875 C121.41388672 196.26601563 120.65785156 196.48515625 119.87890625 196.7109375 C119.1835376 196.90993652 118.48816895 197.10893555 117.77172852 197.31396484 C115.78430708 197.94631164 115.78430708 197.94631164 114 200 C114.08885 203.03344954 114.08885 203.03344954 115 206 C117.69614449 208.23573509 117.69614449 208.23573509 120.12890625 207.86328125 C122.76057778 207.2676702 125.38392456 206.66136739 128 206 C128.9384375 205.76796875 129.876875 205.5359375 130.84375 205.296875 C134.49182428 204.34441189 134.49182428 204.34441189 138 203 C138.33 202.01 138.66 201.02 139 200 C138.06511087 198.10459653 138.06511087 198.10459653 136.625 196.3125 C136.16351563 195.68988281 135.70203125 195.06726563 135.2265625 194.42578125 C134.61941406 193.72001953 134.61941406 193.72001953 134 193 C130.92652934 193 127.5338357 194.51570227 124.5625 195.375 Z M95.5 204.375 C93.89318359 204.85066406 93.89318359 204.85066406 92.25390625 205.3359375 C91.23167969 205.6453125 90.20945312 205.9546875 89.15625 206.2734375 C88.21587891 206.55622559 87.27550781 206.83901367 86.30664062 207.13037109 C83.84942038 207.87578074 83.84942038 207.87578074 82 210 C81.92424122 213.04638827 81.92424122 213.04638827 83 216 C85.8166517 217.61004727 87.43364489 218.08161993 90.66308594 217.61621094 C91.59411133 217.32520508 92.52513672 217.03419922 93.484375 216.734375 C94.50144531 216.42113281 95.51851562 216.10789062 96.56640625 215.78515625 C98.14228516 215.27275391 98.14228516 215.27275391 99.75 214.75 C100.81605469 214.42386719 101.88210937 214.09773437 102.98046875 213.76171875 C107.03555877 212.50497571 107.03555877 212.50497571 111 211 C112.2537118 209.05649404 112.2537118 209.05649404 111.44140625 207.0546875 C111.15136719 206.33539063 110.86132812 205.61609375 110.5625 204.875 C110.27503906 204.15054688 109.98757812 203.42609375 109.69140625 202.6796875 C109.34916016 201.84824219 109.34916016 201.84824219 109 201 C104.44384664 201 99.82821342 203.06247319 95.5 204.375 Z M135.8671875 206.3125 C135.06152344 206.58320313 134.25585938 206.85390625 133.42578125 207.1328125 C132.58402344 207.41898438 131.74226562 207.70515625 130.875 208 C130.02550781 208.28617188 129.17601562 208.57234375 128.30078125 208.8671875 C126.19960128 209.57545041 124.09940403 210.2864936 122 211 C121.35821451 213.38498917 121.35821451 213.38498917 121 216 C122.37283423 218.54002013 122.37283423 218.54002013 125 220 C131.82933897 220 138.56339493 217.08100765 145 215 C144.43500935 211.2842957 143.88972722 208.27552719 142 205 C139.68144945 205 138.06455433 205.56972811 135.8671875 206.3125 Z M102.5 216.375 C100.89318359 216.85066406 100.89318359 216.85066406 99.25390625 217.3359375 C98.23167969 217.6453125 97.20945312 217.9546875 96.15625 218.2734375 C95.21587891 218.55622559 94.27550781 218.83901367 93.30664062 219.13037109 C90.84942038 219.87578074 90.84942038 219.87578074 89 222 C89.08885 225.03344954 89.08885 225.03344954 90 228 C92.66070966 230.1953556 92.66070966 230.1953556 94.8828125 229.93359375 C103.37712582 228.05418993 111.68038071 225.52870099 120 223 C118.68 219.7 117.36 216.4 116 213 C111.44384664 213 106.82821342 215.06247319 102.5 216.375 Z M136.9375 220.375 C136.20466797 220.59671875 135.47183594 220.8184375 134.71679688 221.046875 C130.47026076 222.33612354 130.47026076 222.33612354 127 225 C127.08885 228.03344954 127.08885 228.03344954 128 231 C130.6661768 233.21994703 130.6661768 233.21994703 132.91015625 232.86328125 C133.62042969 232.68152344 134.33070313 232.49976563 135.0625 232.3125 C135.84625 232.11527344 136.63 231.91804687 137.4375 231.71484375 C141.64544782 230.54098026 145.83103397 229.30552172 150 228 C149.54177532 224.53058454 149.10868317 221.32604951 148 218 C144.06315377 218 140.65412896 219.20513271 136.9375 220.375 Z M107.9375 229.4375 C106.81021484 229.76298828 105.68292969 230.08847656 104.52148438 230.42382812 C103.45091797 230.73642578 102.38035156 231.04902344 101.27734375 231.37109375 C99.79609009 231.8031311 99.79609009 231.8031311 98.28491211 232.24389648 C96.05987108 232.79040774 96.05987108 232.79040774 95 234 C94.61860656 237.58413776 94.61860656 237.58413776 96.25390625 240.6640625 C99.10615472 242.84631972 101.39067972 242.10300648 104.81640625 241.66015625 C111.35800129 240.30367826 117.67478963 238.12671465 124 236 C124 232.38970831 123.03907418 229.44193324 122 226 C117.27491055 226 112.44080789 228.11725311 107.9375 229.4375 Z M148.12060547 231.43725586 C147.37697754 231.69385986 146.63334961 231.95046387 145.8671875 232.21484375 C145.06152344 232.48876953 144.25585938 232.76269531 143.42578125 233.04492188 C142.58402344 233.33947266 141.74226562 233.63402344 140.875 233.9375 C140.02550781 234.22818359 139.17601562 234.51886719 138.30078125 234.81835938 C136.19813251 235.53893001 134.09812523 236.26638315 132 237 C130.94362992 240.8261737 130.94362992 240.8261737 132.3125 244.4375 C136.04920698 246.61000406 138.2999622 245.79678236 142.3828125 244.78515625 C146.01004905 243.69698529 149.49250502 242.42897944 153 241 C152.88637738 239.5199159 152.75877092 238.04089926 152.625 236.5625 C152.55539062 235.73878906 152.48578125 234.91507813 152.4140625 234.06640625 C152.27742188 233.38449219 152.14078125 232.70257813 152 232 C150.07533712 230.77172595 150.07533712 230.77172595 148.12060547 231.43725586 Z M112.5 242.375 C110.89318359 242.85066406 110.89318359 242.85066406 109.25390625 243.3359375 C108.23167969 243.6453125 107.20945313 243.9546875 106.15625 244.2734375 C105.21587891 244.55622559 104.27550781 244.83901367 103.30664062 245.13037109 C100.84942038 245.87578074 100.84942038 245.87578074 99 248 C99.20293796 250.63819348 99.69382128 252.48282172 101.04296875 254.76171875 C103.14195259 256.38140426 103.14195259 256.38140426 106.6953125 255.5234375 C108.17664354 255.15951362 109.65316126 254.77559074 111.125 254.375 C111.88675537 254.18131836 112.64851074 253.98763672 113.43334961 253.78808594 C118.70620313 252.42277845 123.87977851 250.86189872 129 249 C127.515 244.05 127.515 244.05 126 239 C121.44384664 239 116.82821342 241.06247319 112.5 242.375 Z M143.375 247.4375 C142.68148437 247.66759766 141.98796875 247.89769531 141.2734375 248.13476562 C137.86997078 249.09003379 137.86997078 249.09003379 135 251 C135.25248627 254.51745287 135.25248627 254.51745287 136 258 C140.01593364 260.00796682 145.22888294 258.55146808 149.37109375 257.26171875 C151.26374986 256.54986413 153.1344522 255.78013817 155 255 C154.505 250.05 154.505 250.05 154 245 C150.16738663 245 146.95796251 246.21511711 143.375 247.4375 Z M121.18359375 254.27734375 C120.25482422 254.54353516 119.32605469 254.80972656 118.36914062 255.08398438 C116.91797852 255.50647461 116.91797852 255.50647461 115.4375 255.9375 C113.98053711 256.35418945 113.98053711 256.35418945 112.49414062 256.77929688 C107.63772172 258.10102245 107.63772172 258.10102245 103 260 C102.70291363 264.11315615 102.70291363 264.11315615 104 267.9375 C108.37554321 270.26200733 114.42172436 267.96227673 118.9375 266.58984375 C120.62731927 266.04621972 122.31482135 265.49534332 124 264.9375 C124.87011719 264.65583984 125.74023438 264.37417969 126.63671875 264.08398438 C128.75989141 263.39570313 130.88024913 262.69874852 133 262 C131.68 259.03 130.36 256.06 129 253 C126.04369704 253 124.00606232 253.46508607 121.18359375 254.27734375 Z M144.875 261.5 C144.12089844 261.73847656 143.36679687 261.97695313 142.58984375 262.22265625 C140.72575478 262.81255782 138.86277109 263.40594999 137 264 C136.23283149 266.85078091 136.23283149 266.85078091 136 270 C137.04517009 271.99322799 137.04517009 271.99322799 139 273 C144.72030355 273.50994954 149.95614301 271.46827044 155 269 C155 265.7 155 262.4 155 259 C151.49124682 259 148.19486384 260.43924903 144.875 261.5 Z M122.0859375 268.27734375 C121.16039062 268.54353516 120.23484375 268.80972656 119.28125 269.08398438 C118.3221875 269.36564453 117.363125 269.64730469 116.375 269.9375 C115.40820312 270.21529297 114.44140625 270.49308594 113.4453125 270.77929688 C108.61432461 272.1044469 108.61432461 272.1044469 104 274 C103.70291363 278.11315615 103.70291363 278.11315615 105 281.9375 C110.03247855 284.61100423 117.68205727 281.34483638 122.8125 279.77929688 C123.699375 279.50150391 124.58625 279.22371094 125.5 278.9375 C126.4178125 278.65583984 127.335625 278.37417969 128.28125 278.08398438 C130.52272203 277.3951987 132.76215031 276.70044695 135 276 C134.51917969 275.39671875 134.03835937 274.7934375 133.54296875 274.171875 C131.82205451 271.74952482 131.4047532 269.91422303 131 267 C127.51390476 267 125.35837869 267.32976294 122.0859375 268.27734375 Z M146 275.4375 C145.24976563 275.66759766 144.49953125 275.89769531 143.7265625 276.13476562 C140.07555602 277.03517786 140.07555602 277.03517786 137 279 C136.70692455 281.7842168 136.53930537 283.37798958 138.23828125 285.671875 C140.53343375 287.40214518 141.62342959 287.24514754 144.4375 286.875 C145.19933594 286.78992188 145.96117187 286.70484375 146.74609375 286.6171875 C149.48984921 285.86586451 150.97194654 285.00154296 153 283 C153.90561146 280.5170581 153.90561146 280.5170581 154.25 277.8125 C154.39953125 276.91144531 154.5490625 276.01039063 154.703125 275.08203125 C154.80109375 274.39496094 154.8990625 273.70789063 155 273 C152.06597973 273 148.81978413 274.55813433 146 275.4375 Z M117.4375 283.875 C116.46619141 284.14441406 115.49488281 284.41382813 114.49414062 284.69140625 C113.56666016 284.95566406 112.63917969 285.21992188 111.68359375 285.4921875 C110.83337646 285.73308105 109.98315918 285.97397461 109.10717773 286.22216797 C106.82247538 286.89853272 106.82247538 286.89853272 105 289 C104.64564954 291.76393359 104.68109936 293.4020613 106 295.875 C109.74028461 297.97891009 114.44826649 296.41408619 118.43359375 295.35058594 C120.96823243 294.58050656 123.48519148 293.76997502 126 292.9375 C126.87011719 292.65583984 127.74023438 292.37417969 128.63671875 292.08398438 C130.75997589 291.39567574 132.88088417 290.70093339 135 290 C134.53980469 289.09507812 134.53980469 289.09507812 134.0703125 288.171875 C132.91387937 285.82524427 131.947866 283.4373697 131 281 C126.27507563 281 121.95737095 282.58016688 117.4375 283.875 Z " fill="#F0C239" transform="translate(116,134)"/>
<path d="M0 0 C73.92 0 147.84 0 224 0 C222.87481654 14.62738492 222.87481654 14.62738492 222.07617188 19.67651367 C221.89928833 20.81025925 221.72240479 21.94400482 221.54016113 23.11210632 C221.35159546 24.28554092 221.16302979 25.45897552 220.96875 26.66796875 C220.77277222 27.91000565 220.57679443 29.15204254 220.37487793 30.43171692 C219.85958975 33.6881346 219.33953671 36.9437452 218.81756592 40.19909668 C218.39100637 42.86995135 217.97082913 45.54179436 217.55068207 48.21366405 C217.04770727 51.40732278 216.53934629 54.60012144 216.03125 57.79296875 C215.84268433 58.98866989 215.65411865 60.18437103 215.45983887 61.41630554 C215.19451355 63.06491325 215.19451355 63.06491325 214.92382812 64.74682617 C214.76918091 65.71577316 214.61453369 66.68472015 214.4552002 67.68302917 C214 70 214 70 213 72 C207.44589996 70.77809799 204.08787183 69.18077801 200 65 C198.72675838 62.69284789 197.88230932 60.49987641 197 58 C197.31071779 62.35004912 198.32423953 65.25354817 201.2578125 68.54296875 C204.72774235 71.44495044 208.88366773 73.19360953 213 75 C212.67 77.31 212.34 79.62 212 82 C146 82 80 82 12 82 C11.67 79.69 11.34 77.38 11 75 C12.01320313 74.36384766 12.01320313 74.36384766 13.046875 73.71484375 C18.65704902 70.02607326 22.36045091 67.23893421 25 61 C25 60.01 25 59.02 25 58 C24.78085938 58.51949219 24.56171875 59.03898437 24.3359375 59.57421875 C21.97621905 64.76368087 19.71402581 67.75910725 15 71 C12.8125 71.62890625 12.8125 71.62890625 11 72 C9.11893156 65.06681295 7.9537456 58.08828831 6.8359375 50.99609375 C6.63900299 49.75884048 6.44206848 48.52158722 6.23916626 47.24684143 C5.72021067 43.97687972 5.2049338 40.70636179 4.69061279 37.43566895 C4.27037177 34.77509058 3.84349392 32.11559363 3.41673851 29.45605373 C2.90563485 26.26185767 2.40248635 23.06640944 1.8984375 19.87109375 C1.7078476 18.68551376 1.51725769 17.49993378 1.32089233 16.27842712 C1.14716095 15.16359451 0.97342957 14.0487619 0.79443359 12.90014648 C0.64058197 11.92722153 0.48673035 10.95429657 0.32821655 9.95188904 C-0.03856938 6.65311765 0 3.31909997 0 0 Z M26 10 C25.67 13.3 25.34 16.6 25 20 C24.566875 19.030625 24.13375 18.06125 23.6875 17.0625 C22.2985139 13.72268235 22.2985139 13.72268235 19 13 C19.50298788 17.40114397 21.08772731 19.71195019 24 23 C25.32 22.67 26.64 22.34 28 22 C29.3271261 18.0186217 29.06915913 14.14954773 29 10 C28.01 10 27.02 10 26 10 Z M68 10 C66.93328048 13.20015856 67.05154528 14.88544294 67.4375 18.1875 C67.53933594 19.08855469 67.64117187 19.98960938 67.74609375 20.91796875 C67.82988281 21.60503906 67.91367188 22.29210937 68 23 C68.66 23 69.32 23 70 23 C70.33 19.04 70.66 15.08 71 11 C70.01 10.67 69.02 10.34 68 10 Z M109 10 C108.83317728 14.92127034 108.75171948 18.50343896 111 23 C111.33 23 111.66 23 112 23 C112 18.71 112 14.42 112 10 C111.01 10 110.02 10 109 10 Z M151 10 C151.33 14.29 151.66 18.58 152 23 C152.66 23 153.32 23 154 23 C154 18.71 154 14.42 154 10 C153.01 10 152.02 10 151 10 Z M193 10 C192.80705592 14.82360189 193.24252386 18.49646738 195 23 C196.87880872 22.95231597 196.87880872 22.95231597 199 22 C202.23965975 17.95472475 202.23965975 17.95472475 203 13 C199.7014861 13.72268235 199.7014861 13.72268235 198.3125 17.0625 C197.879375 18.031875 197.44625 19.00125 197 20 C196.67 16.7 196.34 13.4 196 10 C195.01 10 194.02 10 193 10 Z M33 13 C32.01 15.97 31.02 18.94 30 22 C34.28070998 18.22406041 34.28070998 18.22406041 36 13 C35.01 13 34.02 13 33 13 Z M61 13 C61.4793247 17.31392226 62.7457985 19.16569547 66 22 C65.5020163 18.26512223 65.12508244 16.18762365 63 13 C62.34 13 61.68 13 61 13 Z M75 13 C73.37492804 15.8331162 73.37492804 15.8331162 72 19 C72.33 19.99 72.66 20.98 73 22 C76.13706517 17.90052696 76.13706517 17.90052696 77 13 C76.34 13 75.68 13 75 13 Z M102 13 C103.92391649 18.31411494 103.92391649 18.31411494 108 22 C107.01 19.03 106.02 16.06 105 13 C104.01 13 103.02 13 102 13 Z M116 13 C115.01 16.3 114.02 19.6 113 23 C116.53586014 19.82679218 118.58578031 17.83256305 119 13 C118.01 13 117.02 13 116 13 Z M144 13 C145.92391649 18.31411494 145.92391649 18.31411494 150 22 C149.44271087 18.65626525 148.64826111 15.96687001 147 13 C146.01 13 145.02 13 144 13 Z M159 13 C158.30289269 14.28650706 157.61757124 15.57940665 156.9375 16.875 C156.55464844 17.59429687 156.17179688 18.31359375 155.77734375 19.0546875 C155.52082031 19.69664063 155.26429688 20.33859375 155 21 C155.33 21.66 155.66 22.32 156 23 C158.91227269 19.71195019 160.49701212 17.40114397 161 13 C160.34 13 159.68 13 159 13 Z M186 13 C187.92391649 18.31411494 187.92391649 18.31411494 192 22 C191.01 19.03 190.02 16.06 189 13 C188.01 13 187.02 13 186 13 Z M14 16 C13.65490872 19.00795167 13.65490872 19.00795167 15.53125 20.60546875 C16.50578125 21.38857422 16.50578125 21.38857422 17.5 22.1875 C18.1496875 22.71730469 18.799375 23.24710938 19.46875 23.79296875 C19.9740625 24.19128906 20.479375 24.58960938 21 25 C19.69117841 21.07353523 18.1255472 18.72225079 15 16 C14.67 16 14.34 16 14 16 Z M39 16 C35.36366461 19.47998507 35.36366461 19.47998507 34 24 C36.86207152 22.71700242 39.0245088 21.469364 41 19 C41 18.01 41 17.02 41 16 C40.34 16 39.68 16 39 16 Z M55 16 C55.34879632 19.25543229 56.02133261 20.01873107 58.5625 22.25 C59.366875 22.8275 60.17125 23.405 61 24 C61.33 23.34 61.66 22.68 62 22 C60.38405168 19.95880212 58.7143618 17.95927063 57 16 C56.34 16 55.68 16 55 16 Z M80 16 C78.53909212 17.5354878 78.53909212 17.5354878 77.3125 19.5 C76.65701172 20.47453125 76.65701172 20.47453125 75.98828125 21.46875 C75.66214844 21.9740625 75.33601563 22.479375 75 23 C75.33 23.66 75.66 24.32 76 25 C77.17539996 24.07347299 78.34010577 23.13336613 79.5 22.1875 C80.1496875 21.66542969 80.799375 21.14335938 81.46875 20.60546875 C83.34509128 19.00795167 83.34509128 19.00795167 83 16 C82.01 16 81.02 16 80 16 Z M97 16 C96.6689011 19.2230924 96.6689011 19.2230924 99.375 21.6875 C101.66706542 24.22034351 101.66706542 24.22034351 104 24 C102.82744291 20.66272214 101.81131596 18.22562513 99 16 C98.34 16 97.68 16 97 16 Z M122 16 C120.64287834 17.55855981 120.64287834 17.55855981 119.375 19.5 C118.92898437 20.1496875 118.48296875 20.799375 118.0234375 21.46875 C117.68570313 21.9740625 117.34796875 22.479375 117 23 C120.24565858 23.34055197 120.24565858 23.34055197 122.6875 20.5 C123.450625 19.675 124.21375 18.85 125 18 C124.67 17.34 124.34 16.68 124 16 C123.34 16 122.68 16 122 16 Z M164 16 C162.53909212 17.5354878 162.53909212 17.5354878 161.3125 19.5 C160.65701172 20.47453125 160.65701172 20.47453125 159.98828125 21.46875 C159.66214844 21.9740625 159.33601562 22.479375 159 23 C162.2230924 23.3310989 162.2230924 23.3310989 164.6875 20.625 C167.22034351 18.33293458 167.22034351 18.33293458 167 16 C166.01 16 165.02 16 164 16 Z M181 16 C181.54087318 19.78611227 183.11722332 21.55400767 186 24 C186.66 24 187.32 24 188 24 C186.63055898 21.05043472 185.12169591 18.47531189 183 16 C182.34 16 181.68 16 181 16 Z M207 16 C203.21965377 19.47736026 203.21965377 19.47736026 201 24 C204.7952131 22.50902342 206.61042731 20.24299151 209 17 C208.34 16.67 207.68 16.34 207 16 Z M54 21 C54.61056997 24.26597333 55.37789459 27.39427796 56.375 30.5625 C57.57780579 34.43113977 58.50988824 38.29309679 59.375 42.25 C60.66423299 47.43365182 61.87121779 50.54334513 66 54 C69 55 69 55 72 54 C76.96482836 49.84339951 77.95752973 45.29912555 79.3125 39.109375 C80.13476929 35.39047526 81.22455274 31.79176536 82.3515625 28.15625 C82.96513965 26.11592116 83.50107595 24.07100548 84 22 C80.13284962 24.12246797 77.25594323 26.52746145 74.1875 29.6875 C73.00220703 30.89986328 73.00220703 30.89986328 71.79296875 32.13671875 C71.20128906 32.75160156 70.60960937 33.36648437 70 34 C65.93168047 32.39586451 63.2764887 29.46854052 60.3125 26.375 C58.56019541 24.56148942 56.79389573 22.77313991 55 21 C54.67 21 54.34 21 54 21 Z M139 16 C139 17.65 139 19.3 139 21 C138.34 21.33 137.68 21.66 137 22 C137.25394531 22.55945313 137.50789063 23.11890625 137.76953125 23.6953125 C139.96163821 28.80201861 141.41206538 33.65601536 142.4375 39.125 C143.28812527 43.51593717 144.14583518 46.73060406 146.75 50.375 C148.64296777 53.07348597 149.38380144 54.73804016 149.1875 58.0625 C148.21866031 62.74061163 145.51427663 65.89055425 142 69 C137.55625726 71.83905786 132.10497214 71.62161 127 71 C122.47235574 69.63783694 119.65968614 67.76117631 116.5625 64.1875 C114.72037151 60.42955788 113.85715277 58.2139932 114 54 C115.1796875 52.08203125 115.1796875 52.08203125 116.75 50 C120.54079527 44.88724148 121.29705365 39.80781681 122.34375 33.62109375 C123.14542661 29.19755675 124.44876251 25.21050177 126 21 C125.34 21 124.68 21 124 21 C122.66104368 22.66215268 121.32869858 24.32963607 120 26 C118.33729713 27.33827304 116.67083819 28.67189785 115 30 C114.46375 30.721875 113.9275 31.44375 113.375 32.1875 C112 34 112 34 109 35 C108.77570313 34.44828125 108.55140625 33.8965625 108.3203125 33.328125 C106.59614817 30.28788256 104.37484178 28.18574327 101.875 25.75 C100.96492188 24.85796875 100.05484375 23.9659375 99.1171875 23.046875 C98.41851562 22.37140625 97.71984375 21.6959375 97 21 C96.01 21.495 96.01 21.495 95 22 C95.25394531 22.64324219 95.50789063 23.28648438 95.76953125 23.94921875 C97.74630978 29.13918785 99.32156575 34.18001049 100.4375 39.625 C101.34572067 43.90226272 102.47304333 47.2052983 104.75 50.9375 C106.47428305 53.79220427 106.99517272 54.75380855 107.0625 58.1875 C105.16677789 63.20558793 102.6209882 67.16778143 98 70 C92.33735265 71.88754912 86.23635883 71.88331548 80.6875 69.5625 C76.04265387 66.97156149 74.09739826 62.71914608 72 58 C71.34 58 70.68 58 70 58 C70.33778045 63.40448726 73.45405409 67.15369162 77 71 C82.29257128 74.72885704 88.78378613 75.58473039 95.140625 74.703125 C102.46345353 72.56970252 106.93360246 66.09959632 111 60 C111.37511719 60.60328125 111.75023437 61.2065625 112.13671875 61.828125 C116.39626391 68.48031139 119.99503391 73.11647857 128 75 C135.08602994 75.82670349 140.09961402 73.98756788 146 70 C149.23163528 67.151534 150.81958387 64.64539508 151.29296875 60.328125 C151.31038806 57.86155067 151.22233772 55.45559663 151 53 C152.65 53.33 154.3 53.66 156 54 C163.16242875 46.09663034 164.58033405 35.07104206 167 25 C167.33135912 23.66617467 167.66343533 22.33252134 168 21 C167.34 21 166.68 21 166 21 C164.36324492 22.61799502 164.36324492 22.61799502 162.6875 24.6875 C159.91500692 27.95300964 157.07399141 31.01915985 154 34 C150.60312324 32.53438126 148.39277314 30.63352456 145.8125 28 C145.11769531 27.29875 144.42289062 26.5975 143.70703125 25.875 C142 24 142 24 141 22 C142.65 22.66 144.3 23.32 146 24 C144.82744291 20.66272214 143.81131596 18.22562513 141 16 C140.34 16 139.68 16 139 16 Z M13 22 C13.66031552 26.88633483 14.91344772 31.52451875 16.25390625 36.2578125 C16.8865995 38.58320865 17.39308285 40.89090082 17.875 43.25 C19.22096671 47.73655572 21.10964373 50.34902365 24 54 C25.32 53.67 26.64 53.34 28 53 C28.03867188 53.87011719 28.03867188 53.87011719 28.078125 54.7578125 C28.59719956 61.90688484 30.62149173 65.72490513 35.875 70.75 C41.08160543 74.49875591 45.61053603 75.649776 52 75 C58.3474765 73.0771844 62.30044493 70.49327874 66 65 C67.47212778 61.98564312 68 60.36369412 68 57 C67.34 57 66.68 57 66 57 C65.731875 57.67546875 65.46375 58.3509375 65.1875 59.046875 C62.78407978 64.51781839 60.87035636 68.18640265 55.17578125 70.44921875 C48.54957465 72.12658882 42.99043403 71.40632523 37 68 C33.38827983 64.29066577 31.47436648 60.64289896 30.5625 55.5625 C31 53 31 53 33.390625 50.41015625 C36.65563536 46.62274424 37.33321106 42.70153566 38.1875 37.875 C38.48871958 36.28814962 38.79455861 34.70216771 39.10546875 33.1171875 C39.23074951 32.42222168 39.35603027 31.72725586 39.48510742 31.01123047 C40 29 40 29 41.0559082 26.93017578 C42.21968963 24.90896492 42.21968963 24.90896492 42 22 C38.36938333 23.53218685 36.0136227 25.7183144 33.25 28.5 C32.45078125 29.2940625 31.6515625 30.088125 30.828125 30.90625 C28.78076391 32.78783462 28.78076391 32.78783462 29 35 C26.11067451 33.47507822 24.16433309 32.20815524 22.125 29.625 C19.43995526 26.30818003 16.53440037 24.37892332 13 22 Z M180 22 C180.8245027 26.32443254 181.82822574 30.60000589 182.875 34.875 C183.03613281 35.55691406 183.19726562 36.23882812 183.36328125 36.94140625 C184.67131629 42.26480467 186.07723752 47.80255717 189.75 52 C191 54 191 54 190.9375 57.375 C189.50308355 62.92141028 186.92570362 66.98102036 182 70 C176.38335707 71.87221431 170.27189767 71.89121234 164.75 69.625 C159.77396609 66.85379412 157.48645115 61.93522879 155 57 C153.89370914 60.35550471 153.9502005 60.88307943 155.4375 64.375 C158.30135806 69.00507017 162.80611251 72.98819595 168.046875 74.6484375 C174.11911081 75.74143995 179.69479555 75.16651146 185 72 C190.73504627 66.69641034 190.73504627 66.69641034 193.09765625 59.6171875 C193.08605469 58.71226563 193.07445312 57.80734375 193.0625 56.875 C193.05347656 55.96492188 193.04445313 55.05484375 193.03515625 54.1171875 C193.02355469 53.41851562 193.01195312 52.71984375 193 52 C195.475 52.99 195.475 52.99 198 54 C203.33905776 47.624232 204.97064992 41.67886295 206.34375 33.5546875 C207.10975512 29.40549309 208.34361674 25.86489426 210 22 C204.05519592 24.51510942 199.7858406 28.90367611 196 34 C192.3501677 32.47854371 190.14171371 30.28813476 187.4375 27.4375 C184.21673663 23.95762374 184.21673663 23.95762374 180 22 Z M25.375 26.5 C24.92125 26.995 24.4675 27.49 24 28 C25.32 28.99 26.64 29.98 28 31 C29.10836423 29.11683841 29.10836423 29.11683841 30 27 C29.67 26.34 29.34 25.68 29 25 C26.87635519 24.77390663 26.87635519 24.77390663 25.375 26.5 Z M67 25 C66.67 26.32 66.34 27.64 66 29 C67.98 29.99 67.98 29.99 70 31 C70.66 29.68 71.32 28.36 72 27 C71.34 26.34 70.68 25.68 70 25 C69.01 25 68.02 25 67 25 Z M110 25 C109.34 26.32 108.68 27.64 108 29 C109.485 29.99 109.485 29.99 111 31 C111.66 30.34 112.32 29.68 113 29 C112.6814823 26.89179203 112.6814823 26.89179203 112 25 C111.34 25 110.68 25 110 25 Z M152 25 C151.34 26.32 150.68 27.64 150 29 C151.485 29.99 151.485 29.99 153 31 C153.99 29.68 154.98 28.36 156 27 C154.68 26.34 153.36 25.68 152 25 Z M193 25 C192.67 26.32 192.34 27.64 192 29 C193.485 29.99 193.485 29.99 195 31 C195.66 30.34 196.32 29.68 197 29 C197 28.01 197 27.02 197 26 C195.68 25.67 194.36 25.34 193 25 Z " fill="#F0C239" transform="translate(102,43)"/>
<path d="M0 0 C0.7734375 -0.020625 1.546875 -0.04125 2.34375 -0.0625 C7.97138278 -0.10026935 12.08608867 1.00994714 17.25 3.25 C17.25 6.70665176 16.86368545 7.11186799 14.5625 9.5 C11.6864348 12.24008103 11.6864348 12.24008103 8.5 12.3125 C6.25 11.25 6.25 11.25 4.25 8.25 C-1.12803534 7.01148979 -6.47255982 8.24046886 -11.203125 10.91796875 C-13.08637537 12.3223637 -13.08637537 12.3223637 -14 15.625 C-13.69372913 20.06592761 -12.60527234 21.86875644 -9.75 25.25 C-7.1408613 27.57277416 -7.1408613 27.57277416 -4.75 29.25 C-5.36375824 32.69947672 -6.70692624 34.73239004 -8.8125 37.5 C-11.96863278 42.04211949 -12.34339227 44.81057087 -11.75 50.25 C-9.77 50.91 -7.79 51.57 -5.75 52.25 C-6.10049575 55.49208567 -6.31221181 56.86527704 -8.8125 59.0625 C-9.7715625 59.6503125 -9.7715625 59.6503125 -10.75 60.25 C-8.54020692 63.06939117 -6.34937954 65.78058944 -3.75 68.25 C-5.73 68.58 -7.71 68.91 -9.75 69.25 C-9.87815365 71.6352733 -9.87815365 71.6352733 -8.75 74.25 C-6.22332213 75.92198768 -3.55063432 77.10805571 -0.75 78.25 C-0.75 80.25 -0.75 80.25 -2.25 81.875 C-2.745 82.32875 -3.24 82.7825 -3.75 83.25 C-0.84907498 85.18395001 0.14674737 85.55131941 3.4375 85.875 C4.695625 85.99875 5.95375 86.1225 7.25 86.25 C6.755 88.23 6.755 88.23 6.25 90.25 C7.18972656 90.37955078 7.18972656 90.37955078 8.1484375 90.51171875 C8.96570313 90.65222656 9.78296875 90.79273438 10.625 90.9375 C11.43710937 91.06511719 12.24921875 91.19273437 13.0859375 91.32421875 C15.25 92.25 15.25 92.25 16.33189392 94.36347961 C17.40222387 97.72859101 17.77625551 100.84243093 18.10375977 104.36010742 C18.17072052 105.05678528 18.23768127 105.75346313 18.30667114 106.47125244 C18.52539167 108.76538038 18.73343214 111.06034378 18.94140625 113.35546875 C19.09242687 114.96110719 19.24412531 116.566682 19.39646912 118.17219543 C19.79562365 122.39768406 20.185771 126.62395697 20.57397461 130.85046387 C20.9678858 135.12280774 21.36992902 139.39438461 21.77148438 143.66601562 C22.29340895 149.22361116 22.81243729 154.78145557 23.32646084 160.33978748 C23.94065104 166.97937568 24.57421769 173.61635037 25.25 180.25 C20.41613719 179.59761492 15.66119096 178.76480397 10.875 177.8125 C2.38242218 176.16397649 -6.1506228 175.15463745 -14.75 174.25 C-14.64300781 173.05503906 -14.53601563 171.86007812 -14.42578125 170.62890625 C-13.52176597 159.2648251 -13.28796008 150.5775499 -20.75 141.25 C-26.9232831 134.45573576 -35.64522906 131.08030233 -43.82373047 127.28857422 C-55.00862532 122.09346106 -64.15782611 117.44694671 -69.05859375 105.42578125 C-75.27410123 85.8662464 -67.62748197 63.84298964 -58.77636719 46.32275391 C-48.76676952 27.79512374 -32.99286772 8.57524007 -12.75 1.25 C-8.47909427 0.03499136 -4.41403736 0.02884992 0 0 Z " fill="#F0C239" transform="translate(360.75,233.75)"/>
<path d="M0 0 C12.13255156 2.85104706 24.45622648 3.78092376 36.84301758 4.91064453 C47.89494542 5.93314297 58.38256833 7.15216524 69.04223633 10.29541016 C77.61442033 12.65800289 86.14489758 12.08966058 94.06640625 8.12890625 C97.37890625 7.81640625 97.37890625 7.81640625 101.06640625 8.12890625 C101.8759375 8.18691406 102.68546875 8.24492187 103.51953125 8.3046875 C110.08517172 9.12047816 110.08517172 9.12047816 112.7578125 11.8671875 C113.72491454 13.26645502 114.66211313 14.68680326 115.5703125 16.125 C117.24379472 18.36650491 118.66628244 19.22444248 121.12890625 20.50390625 C126.18004716 23.32517689 128.12000774 27.84181414 130.06640625 33.12890625 C130.06640625 33.78890625 130.06640625 34.44890625 130.06640625 35.12890625 C128.25390625 35.75390625 128.25390625 35.75390625 126.06640625 36.12890625 C125.07640625 35.46890625 124.08640625 34.80890625 123.06640625 34.12890625 C123.39640625 35.11890625 123.72640625 36.10890625 124.06640625 37.12890625 C88.38064765 37.84374896 52.70354244 38.34449618 17.01104355 37.90485764 C14.7619083 37.87899825 12.51278472 37.85868156 10.26358032 37.83987427 C6.71533042 37.80922112 3.16759866 37.76326562 -0.38030624 37.70522499 C-2.28476795 37.67689122 -4.18940965 37.6615674 -6.09402466 37.64677429 C-16.62879259 37.43702769 -26.2838418 35.9070713 -33.93359375 28.12890625 C-37.24177204 22.75311652 -37.85211572 17.30341503 -36.93359375 11.12890625 C-33.76154383 4.78480641 -28.99695304 0.93230241 -22.265625 -1.328125 C-14.62002507 -3.10825631 -7.4987483 -1.86804315 0 0 Z M-25.87109375 10.87890625 C-27.433636 14.18781924 -27.3704933 16.50888137 -26.93359375 20.12890625 C-24.54645324 25.42213086 -21.55427777 27.14782514 -16.45117188 29.30844116 C-12.33590318 30.64958496 -8.44689355 30.64241343 -4.15234375 30.5546875 C-3.2322049 30.55176193 -2.31206604 30.54883636 -1.36404419 30.54582214 C1.61330413 30.53090494 4.58938078 30.48682691 7.56640625 30.44140625 C9.62189669 30.42441231 11.67739898 30.40879803 13.73291016 30.39453125 C30.85016713 30.24977324 47.96240691 29.81175863 65.06640625 29.12890625 C59.35199948 23.41449948 47.74824003 24.83459865 40.27882767 24.823946 C38.18483709 24.82023156 36.09129907 24.80337613 33.99740601 24.78318787 C28.05255523 24.72821222 22.10764493 24.69697368 16.16259766 24.67260742 C12.50695455 24.65673246 8.85164743 24.62653725 5.19617844 24.58784294 C3.80955948 24.57621625 2.42288061 24.57026279 1.03621292 24.57016182 C-0.89696666 24.56996971 -2.83011428 24.5501895 -4.76318359 24.52954102 C-5.86109222 24.52447037 -6.95900085 24.51939972 -8.09017944 24.51417542 C-11.29554504 24.07986357 -12.70589003 23.45973475 -14.93359375 21.12890625 C-15.18359375 17.44140625 -15.18359375 17.44140625 -14.93359375 14.12890625 C-7.16350143 11.53887548 1.63715991 13.31976864 9.61669922 14.28100586 C14.86138152 14.9070048 20.10010983 15.38198792 25.36669922 15.78149414 C35.21608444 16.54022828 44.83939194 17.79517574 54.55224609 19.59716797 C60.23563276 20.65116368 65.90674753 21.53864888 71.63989258 22.27539062 C81.04657064 23.4894801 89.46154671 24.8052427 97.37890625 30.37890625 C100.28568467 32.2716922 101.67517465 32.52787467 105.06640625 32.12890625 C105.72640625 29.81890625 106.38640625 27.50890625 107.06640625 25.12890625 C112.51140625 26.61390625 112.51140625 26.61390625 118.06640625 28.12890625 C116.46694485 24.92998344 115.23827706 22.9753689 112.94140625 20.37890625 C112.40257812 19.7653125 111.86375 19.15171875 111.30859375 18.51953125 C110.89867187 18.060625 110.48875 17.60171875 110.06640625 17.12890625 C109.73640625 17.78890625 109.40640625 18.44890625 109.06640625 19.12890625 C109.39640625 20.11890625 109.72640625 21.10890625 110.06640625 22.12890625 C109.54691406 21.64679688 109.02742187 21.1646875 108.4921875 20.66796875 C103.37133204 15.94122705 103.37133204 15.94122705 97.06640625 13.12890625 C98.48448003 17.60129278 100.17944999 21.84036931 102.06640625 26.12890625 C101.31617188 25.80277344 100.5659375 25.47664063 99.79296875 25.140625 C91.12380379 21.43930646 83.23057125 18.2027371 73.75390625 17.69140625 C69.23658384 17.43521551 65.51639499 16.75598008 61.25390625 15.25390625 C45.7009756 10.13168358 28.77323784 9.94136656 12.55175781 9.54443359 C5.07572663 9.32262209 -1.85834278 8.54229568 -9.11328125 6.75 C-15.50048123 5.34340056 -20.87512259 6.36641617 -25.87109375 10.87890625 Z " fill="#F0C239" transform="translate(317.93359375,406.87109375)"/>
<path d="M0 0 C75.9 0 151.8 0 230 0 C229.34 2.97 228.68 5.94 228 9 C153.42 9 78.84 9 2 9 C1.34 6.03 0.68 3.06 0 0 Z " fill="#F0C239" transform="translate(99,31)"/>
<path d="M0 0 C3.63 0 7.26 0 11 0 C11.33 7.92 11.66 15.84 12 24 C29.82 24 47.64 24 66 24 C66 23.34 66 22.68 66 22 C64.77482666 21.98541748 63.54965332 21.97083496 62.28735352 21.95581055 C57.70796661 21.89749702 53.12905452 21.82026781 48.55004883 21.73754883 C46.57454174 21.7044542 44.59894361 21.67637496 42.62329102 21.65356445 C39.77060428 21.61973244 36.91874035 21.5674043 34.06640625 21.51171875 C33.19415909 21.50532883 32.32191193 21.4989389 31.42323303 21.49235535 C25.60033455 21.35517313 20.31266996 20.50124439 15 18 C12.20968757 15.04555154 12 13.61884472 12 9.5625 C13.25414126 5.09462177 14.42249079 2.99342608 18 0 C22.06922889 -0.6654085 26.25405577 -0.87297211 30 1 C29.814375 1.969375 29.62875 2.93875 29.4375 3.9375 C29.293125 4.948125 29.14875 5.95875 29 7 C31.12954529 9.12954529 35.89755305 8.28176728 38.85546875 8.359375 C40.69339998 8.42332248 42.53128995 8.48846514 44.36914062 8.5546875 C47.2743988 8.65567175 50.17911193 8.74978798 53.08520508 8.82324219 C55.88482706 8.89679704 58.68202129 9.00061588 61.48046875 9.109375 C62.34318893 9.12417908 63.20590912 9.13898315 64.09477234 9.15423584 C70.05560581 9.42001882 72.88750501 10.6136642 77 15 C78.2062252 18.61867559 78.10816918 21.92506251 78.0625 25.6875 C78.05798828 26.38939453 78.05347656 27.09128906 78.04882812 27.81445312 C78.03706927 29.54300538 78.01913454 31.27151365 78 33 C74.68869588 34.10376804 72.21566929 34.13361857 68.7277832 34.14526367 C67.4324617 34.15164352 66.1371402 34.15802338 64.80256653 34.16459656 C63.38530515 34.16612585 61.96804327 34.16723948 60.55078125 34.16796875 C59.09449735 34.1711834 57.63821377 34.17454763 56.18193054 34.17805481 C53.12624362 34.18404485 50.07058496 34.18589498 47.01489258 34.18530273 C43.11572239 34.18520145 39.21673567 34.1988192 35.31760883 34.21607494 C32.30713585 34.22724552 29.2967064 34.22922035 26.28621483 34.22869301 C24.84982868 34.22986684 23.41344118 34.2342548 21.97707558 34.24202538 C7.49360174 34.31300558 7.49360174 34.31300558 1 32 C-0.46098845 29.0780231 -0.11134901 26.50106525 -0.09765625 23.2421875 C-0.0962413 22.57913605 -0.09482635 21.91608459 -0.09336853 21.23294067 C-0.08776754 19.11358137 -0.075215 16.99432741 -0.0625 14.875 C-0.05748512 13.43880361 -0.05292219 12.00260556 -0.04882812 10.56640625 C-0.03779782 7.04423655 -0.02053259 3.52212855 0 0 Z " fill="#F0C239" transform="translate(119,472)"/>
<path d="M0 0 C-0.33 2.97 -0.66 5.94 -1 9 C0.03253906 8.98839844 1.06507813 8.97679687 2.12890625 8.96484375 C11.17060251 8.89351714 20.21186075 8.99036233 29.25 9.25 C30.71288452 9.27114868 30.71288452 9.27114868 32.20532227 9.29272461 C38.07178931 9.49709028 41.50144164 10.14201306 46 14 C48.35735328 17.21457266 48.17742689 20.09660847 48 24 C51.3 24 54.6 24 58 24 C58 19.38 58 14.76 58 10 C61.63 10 65.26 10 69 10 C69 17.59 69 25.18 69 33 C65.52613568 34.15795477 62.72230696 34.16829849 59.0625 34.1875 C57.83660156 34.20167969 56.61070312 34.21585937 55.34765625 34.23046875 C52.24356188 34.01676797 50.58637449 33.63998182 48 32 C47.01 32.66 46.02 33.32 45 34 C42.57814026 34.24723816 42.57814026 34.24723816 39.67407227 34.24291992 C38.58606827 34.24599655 37.49806427 34.24907318 36.37709045 34.25224304 C35.20206467 34.24505753 34.02703888 34.23787201 32.81640625 34.23046875 C31.00582985 34.22978142 31.00582985 34.22978142 29.15867615 34.2290802 C26.60406513 34.22605697 24.04945596 34.21816858 21.49487305 34.20581055 C17.5818021 34.18758988 13.66896825 34.18530063 9.75585938 34.18554688 C7.27603962 34.18063027 4.79622147 34.17480134 2.31640625 34.16796875 C1.14340469 34.16685593 -0.02959686 34.1657431 -1.23814392 34.16459656 C-2.32930008 34.15821671 -3.42045624 34.15183685 -4.54467773 34.14526367 C-5.50381577 34.14145187 -6.4629538 34.13764008 -7.45115662 34.13371277 C-9.78171718 34.01145115 -11.76924761 33.6600936 -14 33 C-14 30.36 -14 27.72 -14 25 C2.5 24.67 19 24.34 36 24 C36 23.34 36 22.68 36 22 C34.75387939 21.98541748 33.50775879 21.97083496 32.22387695 21.95581055 C27.59240288 21.897757 22.96141138 21.82052424 18.33032227 21.73754883 C16.32747236 21.70433273 14.3245296 21.67629048 12.3215332 21.65356445 C9.43921406 21.61995766 6.55774332 21.56763852 3.67578125 21.51171875 C2.78288895 21.50532883 1.88999664 21.4989389 0.970047 21.49235535 C-3.80741108 21.37984321 -7.15511318 21.15071632 -11 18 C-13.50304378 14.24543433 -13.45280074 12.45254066 -13 8 C-10.97851856 3.71445935 -9.84210578 2.31941944 -5.375 0.625 C-2 0 -2 0 0 0 Z " fill="#F0C239" transform="translate(355,472)"/>
<path d="M0 0 C123.09 0 246.18 0 373 0 C373 1.32 373 2.64 373 4 C249.91 4 126.82 4 0 4 C0 2.68 0 1.36 0 0 Z " fill="#F0C239" transform="translate(88,524)"/>
<path d="M0 0 C1.28402157 -0.00260775 2.56804314 -0.00521549 3.89097446 -0.00790226 C5.32935534 -0.00573986 6.76773608 -0.00348319 8.20611668 -0.0011425 C9.72363162 -0.00229366 11.24114629 -0.00388115 12.75866038 -0.00586975 C16.94413651 -0.01006383 21.12958998 -0.00797201 25.31506622 -0.00488353 C29.82297128 -0.00262995 34.33087232 -0.00610884 38.83877659 -0.00886345 C47.67615206 -0.0133207 56.51351905 -0.01234485 65.35089486 -0.00945081 C72.53093373 -0.00719646 79.71097021 -0.00688439 86.89100933 -0.00797462 C87.91120512 -0.00812786 88.93140091 -0.00828109 89.98251172 -0.00843897 C92.05474746 -0.00875868 94.1269832 -0.00908289 96.19921894 -0.00941156 C115.65178613 -0.01226625 135.10434863 -0.00897956 154.55691505 -0.00361119 C171.2619705 0.00085617 187.967019 0.00008145 204.67207432 -0.00452995 C224.05139724 -0.00987705 243.43071603 -0.01199086 262.81003958 -0.00891769 C264.87514595 -0.00859913 266.94025232 -0.00828476 269.0053587 -0.00797462 C270.02153916 -0.00782035 271.03771963 -0.00766607 272.08469344 -0.00750712 C279.25877418 -0.00664233 286.43285231 -0.00810406 293.60693264 -0.01045418 C302.34599088 -0.0132539 311.08504013 -0.01251027 319.82409733 -0.00717343 C324.28615004 -0.00453866 328.74818775 -0.00352758 333.21024036 -0.00682259 C337.29051057 -0.00979017 341.3707518 -0.00818494 345.45101935 -0.00284503 C346.93148739 -0.00172283 348.41195784 -0.00230772 349.89242434 -0.00472082 C351.89639546 -0.00773805 353.90037338 -0.00406166 355.90434265 0 C357.020016 0.00016235 358.13568934 0.0003247 359.28517097 0.00049198 C362.0150919 0.12584114 362.0150919 0.12584114 365.0150919 1.12584114 C365.0150919 2.11584114 365.0150919 3.10584114 365.0150919 4.12584114 C241.9250919 4.12584114 118.8350919 4.12584114 -7.9849081 4.12584114 C-7.9849081 3.13584114 -7.9849081 2.14584114 -7.9849081 1.12584114 C-5.2437802 -0.24472281 -3.06995267 0.0004468 0 0 Z " fill="#F0C239" transform="translate(95.98490810394287,457.87415885925293)"/>
<path d="M0 0 C3.96 0 7.92 0 12 0 C12 7.92 12 15.84 12 24 C13.65 24 15.3 24 17 24 C17 19.05 17 14.1 17 9 C20.96 9.33 24.92 9.66 29 10 C29.95261487 14.76307437 30.08333357 19.1666528 30 24 C31.32 24 32.64 24 34 24 C33.505 16.575 33.505 16.575 33 9 C34.794375 9.144375 36.58875 9.28875 38.4375 9.4375 C39.95150391 9.55931641 39.95150391 9.55931641 41.49609375 9.68359375 C44 10 44 10 45 11 C45.07258946 13.18639453 45.08373783 15.37500389 45.0625 17.5625 C45.05347656 18.76003906 45.04445313 19.95757812 45.03515625 21.19140625 C45.02355469 22.11824219 45.01195312 23.04507812 45 24 C46.65 24 48.3 24 50 24 C49.7525 22.7934375 49.7525 22.7934375 49.5 21.5625 C48.90752652 17.34112648 48.91493291 13.25335455 49 9 C53.88523811 8.80842203 56.31489886 9.12595954 61 11 C61 18.26 61 25.52 61 33 C58.11402684 33.96199105 56.27248966 34.13169367 53.27246094 34.14526367 C52.31426453 34.15164352 51.35606812 34.15802338 50.36883545 34.16459656 C49.3344635 34.16570938 48.30009155 34.1668222 47.234375 34.16796875 C46.16761536 34.17129715 45.10085571 34.17462555 44.00177002 34.17805481 C41.74223258 34.18312081 39.48268765 34.18546324 37.22314453 34.18530273 C33.77754242 34.18748258 30.33226391 34.20562362 26.88671875 34.22460938 C24.69010526 34.22754474 22.49349025 34.22952858 20.296875 34.23046875 C19.27059998 34.23765427 18.24432495 34.24483978 17.18695068 34.25224304 C11.75946032 34.2350425 7.06818676 34.03685492 2 32 C-0.42204038 28.36693942 -0.23302891 26.68180977 -0.1953125 22.36328125 C-0.18886719 21.06455078 -0.18242187 19.76582031 -0.17578125 18.42773438 C-0.1590706 17.05598693 -0.14214071 15.68424214 -0.125 14.3125 C-0.11496674 12.92904282 -0.10584149 11.54557873 -0.09765625 10.16210938 C-0.07404967 6.77456548 -0.04112037 3.38736928 0 0 Z " fill="#F0C239" transform="translate(216,472)"/>
<path d="M0 0 C-0.06960938 1.670625 -0.06960938 1.670625 -0.140625 3.375 C-0.57150131 18.2813469 1.03142265 31.56357274 10 44 C10.04130554 42.69912668 10.04130554 42.69912668 9.3125 40.3125 C8.90750882 36.01959347 9.34255287 34.41671774 12 31 C17.42391872 28.22678488 23.53471783 27.76891499 29.5 27.0625 C35.19495121 26.3874146 39.94016583 25.19329073 45.14453125 22.8046875 C47 22 47 22 49 22 C47.58036591 27.67853635 44.60636039 31.53174216 41 36 C40.01 35.67 39.02 35.34 38 35 C38 34.34 38 33.68 38 33 C35.27022936 32.91873891 32.5428983 32.85938337 29.8125 32.8125 C29.04357422 32.78736328 28.27464844 32.76222656 27.48242188 32.73632812 C22.86145396 32.67683068 19.68724959 32.8727469 16 36 C15.33319632 39.04279372 15.33319632 39.04279372 16 42 C20.28386907 44.85591271 23.97781182 44.9885629 29 44 C32.354441 42.02186641 35.17712439 39.67286773 38 37 C39 40 39 40 38.109375 42.26953125 C37.43648438 43.52830078 37.43648438 43.52830078 36.75 44.8125 C36.28464844 45.69550781 35.81929688 46.57851563 35.33984375 47.48828125 C34.89769531 48.31714844 34.45554687 49.14601563 34 50 C33.443125 51.155 32.88625 52.31 32.3125 53.5 C31 56 31 56 29 58 C22.73559322 58.56949153 22.73559322 58.56949153 20.0625 56.5 C19.711875 56.005 19.36125 55.51 19 55 C18.154375 55.804375 17.30875 56.60875 16.4375 57.4375 C13.1484842 60.21628662 10.31370396 60.74117776 6 61 C5.06934867 58.39417629 4.85082593 57.35801776 5.9375 54.75 C6.4634375 53.88375 6.4634375 53.88375 7 53 C5.14375 53.495 5.14375 53.495 3.25 54 C0.25408155 54.79891159 -1.80107719 55 -5 55 C-4.29445932 51.33118845 -2.72264494 48.29549466 -1 45 C-4.63 45 -8.26 45 -12 45 C-10.76551991 41.29655972 -8.76665659 39.69749018 -6 37 C-5.67 36.34 -5.34 35.68 -5 35 C-7.97 34.67 -10.94 34.34 -14 34 C-14 30.61150886 -13.39792933 29.74534471 -11.5625 27 C-9.95687846 24.58470606 -8.92762586 22.78287757 -8 20 C-10.97 20 -13.94 20 -17 20 C-17.41859743 13.93033732 -17.14344799 10.79767662 -13 6 C-9.20891625 3.09619117 -4.94844228 0 0 0 Z M14 48 C15.65 49.65 17.3 51.3 19 53 C18.20882096 51.00016466 18.20882096 51.00016466 17 49 C16.01 48.67 15.02 48.34 14 48 Z " fill="#F0C239" transform="translate(368,263)"/>
<path d="M0 0 C3.63 0 7.26 0 11 0 C11 7.92 11 15.84 11 24 C17.27 24 23.54 24 30 24 C30 19.38 30 14.76 30 10 C33.63 10 37.26 10 41 10 C41 17.59 41 25.18 41 33 C36.0779647 34.64067843 30.97748235 34.18593341 25.82299805 34.18530273 C23.83703479 34.18747319 21.85111106 34.20593958 19.86523438 34.22460938 C13.27222878 34.23465458 7.25196137 34.21894021 1 32 C-0.46098845 29.0780231 -0.11134901 26.50106525 -0.09765625 23.2421875 C-0.0962413 22.57913605 -0.09482635 21.91608459 -0.09336853 21.23294067 C-0.08776754 19.11358137 -0.075215 16.99432741 -0.0625 14.875 C-0.05748512 13.43880361 -0.05292219 12.00260556 -0.04882812 10.56640625 C-0.03779782 7.04423655 -0.02053259 3.52212855 0 0 Z " fill="#F0C239" transform="translate(280,472)"/>
<path d="M0 0 C64.35 0 128.7 0 195 0 C195.99 1.98 195.99 1.98 197 4 C131.66 4 66.32 4 -1 4 C-0.67 2.68 -0.34 1.36 0 0 Z " fill="#F0C239" transform="translate(116,128)"/>
<path d="M0 0 C3.63 0 7.26 0 11 0 C11 7.92 11 15.84 11 24 C15.95 24 20.9 24 26 24 C26 19.38 26 14.76 26 10 C29.63 10 33.26 10 37 10 C37 17.59 37 25.18 37 33 C31.7068693 34.32328267 26.6847527 34.18424175 21.25 34.1875 C20.19039063 34.19974609 19.13078125 34.21199219 18.0390625 34.22460938 C6.53460431 34.24601966 6.53460431 34.24601966 1 32 C-1.74215532 27.32897953 -1.26601571 21.84784702 -1.1875 16.5625 C-1.18685547 15.74201172 -1.18621094 14.92152344 -1.18554688 14.07617188 C-1.15115133 9.2875471 -0.79446023 4.72227163 0 0 Z " fill="#F0C239" transform="translate(427,472)"/>
<path d="M0 0 C1.21429688 -0.01417969 2.42859375 -0.02835937 3.6796875 -0.04296875 C7.02207558 0.18061503 9.19218215 0.60546027 12.125 2.1875 C14.22709857 5.34064785 14.3684761 6.04853081 14.3203125 9.63671875 C14.31386719 10.48427734 14.30742188 11.33183594 14.30078125 12.20507812 C14.28402344 13.08615234 14.26726562 13.96722656 14.25 14.875 C14.24097656 15.76767578 14.23195313 16.66035156 14.22265625 17.58007812 C14.19909748 19.78282314 14.16620329 21.98502588 14.125 24.1875 C9.6349458 25.46030626 5.32444686 25.3714845 0.6875 25.375 C-0.15876953 25.38724609 -1.00503906 25.39949219 -1.87695312 25.41210938 C-6.26757383 25.42242407 -9.94919477 25.4118628 -13.875 23.1875 C-14.875 21.1875 -14.875 21.1875 -14.875 14.1875 C-8.935 14.5175 -2.995 14.8475 3.125 15.1875 C2.795 14.5275 2.465 13.8675 2.125 13.1875 C-1.835 13.1875 -5.795 13.1875 -9.875 13.1875 C-9.875 9.2275 -9.875 5.2675 -9.875 1.1875 C-6.41768736 0.03506245 -3.64240787 0.01925163 0 0 Z " fill="#F0C239" transform="translate(101.875,480.8125)"/>
<path d="M0 0 C2.75483363 1.46593594 5.16358851 3.27769965 7.625 5.1875 C8.27984375 5.67025391 8.9346875 6.15300781 9.609375 6.65039062 C13.28532337 9.42223429 16.3826239 12.15365289 19 16 C19 16.66 19 17.32 19 18 C15.13137887 16.61287278 12.0580471 14.77395739 8.6875 12.4375 C3.88102298 9.33884254 0.73720371 7.80216539 -5 8 C-9.90289768 9.67416018 -12.41049938 13.88912698 -15.3515625 17.94140625 C-17 20 -17 20 -20 22 C-25.00764086 22.46367045 -28.01537913 22.12308122 -32 19 C-34.80957251 16.19042749 -35.92064175 14.26608354 -37.0625 10.4375 C-37 7 -37 7 -35 4.625 C-31.45793408 2.70638096 -29.03204416 2.07073762 -25 2 C-21.22413025 3.4522576 -18.76028907 5.10981497 -16 8 C-15.34773438 7.4225 -14.69546875 6.845 -14.0234375 6.25 C-13.14945312 5.5075 -12.27546875 4.765 -11.375 4 C-10.51648438 3.2575 -9.65796875 2.515 -8.7734375 1.75 C-5.36671438 -0.39959431 -3.96164429 -0.72433049 0 0 Z " fill="#F0C239" transform="translate(386,241)"/>
<path d="M0 0 C0.45117188 0.47179687 0.90234375 0.94359375 1.3671875 1.4296875 C3.4538049 3.43643437 5.20909392 3.80227348 8 4.5 C11.52102985 5.38025746 13.7335661 6.07749313 16 9 C16 9.66 16 10.32 16 11 C15.41992188 11.09796875 14.83984375 11.1959375 14.2421875 11.296875 C7.30368592 12.62503702 2.80068324 14.99033671 -2 20.25 C-4.23499404 22.55520328 -4.8189115 22.9637823 -8.125 23.625 C-11 23 -11 23 -13.375 21.5625 C-15.8027726 17.73408935 -15.73629957 14.41036006 -15 10 C-13.65476133 6.25203557 -11.73638223 3.60073287 -8.625 1.0625 C-5.4846226 -0.20860514 -3.35779342 -0.43797305 0 0 Z " fill="#F0C43F" transform="translate(387,251)"/>
<path d="M0 0 C3.63 0 7.26 0 11 0 C11.13510945 4.20941007 11.23419583 8.41447281 11.3125 12.625 C11.35439453 13.81480469 11.39628906 15.00460937 11.43945312 16.23046875 C11.57764589 26.12507091 11.57764589 26.12507091 8.76171875 29.74609375 C4.9357944 32.86852423 1.84762687 33.62305976 -3 34 C-6.0625 33.625 -6.0625 33.625 -8 33 C-7.57847656 32.51789062 -7.15695313 32.03578125 -6.72265625 31.5390625 C-5.90087891 30.59160156 -5.90087891 30.59160156 -5.0625 29.625 C-4.51722656 28.99851562 -3.97195312 28.37203125 -3.41015625 27.7265625 C-0.89542144 24.64757971 -0.82774743 22.46743032 -0.68359375 18.5546875 C-0.64169922 17.47832031 -0.59980469 16.40195312 -0.55664062 15.29296875 C-0.51732422 14.16503906 -0.47800781 13.03710938 -0.4375 11.875 C-0.37272461 10.17150391 -0.37272461 10.17150391 -0.30664062 8.43359375 C-0.20034055 5.62254739 -0.09964603 2.8112901 0 0 Z " fill="#F0C239" transform="translate(203,481)"/>
<path d="M0 0 C4.48523593 4.09521542 5.34215248 7.1073658 6 13 C-4.03867495 16.14938822 -12.43176379 17.58621957 -23 17 C-11.8137573 -3.65152498 -11.8137573 -3.65152498 0 0 Z " fill="#F0C239" transform="translate(409,272)"/>
<path d="M0 0 C0.96808594 -0.01417969 1.93617188 -0.02835937 2.93359375 -0.04296875 C5.5625 0.1875 5.5625 0.1875 8.5625 2.1875 C10.4230878 2.75768013 12.30049049 3.27451344 14.1875 3.75 C19.46056678 5.08556678 19.46056678 5.08556678 20.5625 6.1875 C20.47286938 7.87891656 20.31672324 9.56709602 20.125 11.25 C20.02316406 12.16910156 19.92132813 13.08820313 19.81640625 14.03515625 C19.73261719 14.74542969 19.64882813 15.45570313 19.5625 16.1875 C16.41070506 14.83960472 14.89111518 13.53659834 12.9375 10.75 C9.28963978 6.25097239 5.00860843 5.46087068 -0.4375 4.1875 C-1.0975 3.8575 -1.7575 3.5275 -2.4375 3.1875 C-5.93989705 4.65606838 -7.21493808 5.71331947 -8.84375 9.18359375 C-9.38515625 10.88708984 -9.38515625 10.88708984 -9.9375 12.625 C-11.54130369 17.65979802 -12.87965156 20.35349741 -17.4375 23.1875 C-21.25 23.4375 -21.25 23.4375 -24.4375 23.1875 C-24.8685067 20.11657724 -25.10183829 18.15871376 -24.4375 15.1875 C-22.16989215 12.33333759 -19.3642449 10.33313671 -16.4375 8.1875 C-14.81179231 6.89672416 -13.18677638 5.6050765 -11.5625 4.3125 C-7.42582701 1.09829067 -5.2918924 0.03513873 0 0 Z " fill="#F0C239" transform="translate(400.4375,263.8125)"/>
<path d="M0 0 C1.051875 0.185625 2.10375 0.37125 3.1875 0.5625 C6.61837502 0.95620697 8.71865159 0.8203371 12 0 C15 0 18 0 21 0 C21 2.31 21 4.62 21 7 C19.02 7.33 17.04 7.66 15 8 C14.67 7.34 14.34 6.68 14 6 C13.67 6.33 13.34 6.66 13 7 C10.81360547 7.07258946 8.62499611 7.08373783 6.4375 7.0625 C4.64119141 7.04896484 4.64119141 7.04896484 2.80859375 7.03515625 C1.88175781 7.02355469 0.95492188 7.01195312 0 7 C0 4.69 0 2.38 0 0 Z " fill="#F0C239" transform="translate(296,507)"/>
<path d="M0 0 C0.8971875 0.309375 0.8971875 0.309375 1.8125 0.625 C-0.4975 1.945 -2.8075 3.265 -5.1875 4.625 C-5.1875 6.275 -5.1875 7.925 -5.1875 9.625 C-3.8675 10.285 -2.5475 10.945 -1.1875 11.625 C-1.8475 12.945 -2.5075 14.265 -3.1875 15.625 C-4.8375 15.295 -6.4875 14.965 -8.1875 14.625 C-9.22551177 10.29995094 -9.55311226 8.31705179 -7.4375 4.3125 C-3.34670976 -0.57372167 -3.34670976 -0.57372167 0 0 Z " fill="#FDF7E5" transform="translate(384.1875,254.375)"/>
<path d="M0 0 C1.1653125 -0.00257813 2.330625 -0.00515625 3.53125 -0.0078125 C6.5 0.125 6.5 0.125 8.5 1.125 C8.17 2.775 7.84 4.425 7.5 6.125 C6.51 5.815625 5.52 5.50625 4.5 5.1875 C1.69978742 4.3702951 -0.97366348 3.91303882 -3.875 3.625 C-5.07125 3.46 -6.2675 3.295 -7.5 3.125 C-7.83 2.465 -8.16 1.805 -8.5 1.125 C-5.64804778 -0.30097611 -3.17538825 -0.0070252 0 0 Z " fill="#F0C239" transform="translate(394.5,296.875)"/>
<path d="M0 0 C2.97 0.495 2.97 0.495 6 1 C6 3.31 6 5.62 6 8 C3.69 7.67 1.38 7.34 -1 7 C-0.67 4.69 -0.34 2.38 0 0 Z " fill="#F0C239" transform="translate(409,469)"/>
<path d="M0 0 C1.4540625 0.0309375 1.4540625 0.0309375 2.9375 0.0625 C2.9375 2.0425 2.9375 4.0225 2.9375 6.0625 C0.9575 6.0625 -1.0225 6.0625 -3.0625 6.0625 C-3.44468767 4.40635343 -3.77645102 2.73792976 -4.0625 1.0625 C-3.0625 0.0625 -3.0625 0.0625 0 0 Z " fill="#F0C239" transform="translate(451.0625,507.9375)"/>
<path d="M0 0 C0.33 0 0.66 0 1 0 C1 1.65 1 3.3 1 5 C2.98491642 4.73323796 2.98491642 4.73323796 5 4 C5.33 3.01 5.66 2.02 6 1 C8.31 1 10.62 1 13 1 C8.61576048 4.44475962 5.69164233 6.31620235 0 6 C-0.38218767 4.34385343 -0.71395102 2.67542976 -1 1 C-0.67 0.67 -0.34 0.34 0 0 Z " fill="#FDF9EB" transform="translate(383,258)"/>
</svg>
