<?xml version="1.0" encoding="UTF-8" standalone="no"?>
<!-- Created with Inkscape (http://www.inkscape.org/) -->

<svg
   version="1.1"
   id="svg2"
   width="533.33331"
   height="476"
   viewBox="0 0 533.33331 476"
   sodipodi:docname="Resalat-logo.eps"
   xmlns:inkscape="http://www.inkscape.org/namespaces/inkscape"
   xmlns:sodipodi="http://sodipodi.sourceforge.net/DTD/sodipodi-0.dtd"
   xmlns="http://www.w3.org/2000/svg"
   xmlns:svg="http://www.w3.org/2000/svg">
  <defs
     id="defs6" />
  <sodipodi:namedview
     id="namedview4"
     pagecolor="#ffffff"
     bordercolor="#000000"
     borderopacity="0.25"
     inkscape:showpageshadow="2"
     inkscape:pageopacity="0.0"
     inkscape:pagecheckerboard="0"
     inkscape:deskcolor="#d1d1d1" />
  <g
     id="g8"
     inkscape:groupmode="layer"
     inkscape:label="ink_ext_XXXXXX"
     transform="matrix(1.3333333,0,0,-1.3333333,0,476)">
    <g
       id="g10"
       transform="scale(0.1)">
      <path
         d="m 2066.3,3323 c 58.6,70.6 142.9,117.7 232.4,136.2 -29.3,-28 -65.2,-55 -70.2,-98.5 -12,-68.3 39.4,-124.3 84.9,-167.9 171.7,-171.6 342.4,-344.2 514.5,-515.4 52.4,-51.4 102.1,-107.7 132.4,-175.3 35.1,-75.1 49.7,-163.5 23.8,-243.8 -24.1,-87.8 -100.4,-161 -191.6,-174.4 -65.5,-13.9 -131.7,3.5 -194,23.2 -54.4,17.8 -116.3,19.4 -167.8,-7.8 -62.4,-31 -110,-83.5 -160.2,-130.5 -217.8,-218.9 -435.9,-437.4 -653.3,-656.6 -107.1,-108.1 -221.5,-215 -363,-276.2 -88.5,-38.699 -184.7,-60.301 -281.302,-62 28.902,-52.102 64.402,-106.398 123.602,-126.898 81.9,-26.903 170.4,-3.704 246.5,30.398 151.4,72.699 282.4,181.3 398.9,301.1 193.5,192.8 387.6,385 580.9,578.1 86.8,90.7 196.6,173.5 326.4,181 168.8,16.8 335.4,-106.1 378.2,-268.4 -31.7,30.9 -70.3,59.5 -116.8,58 -77.9,0.1 -138.5,-56.2 -188.5,-109.6 -244.5,-242.6 -485.6,-488.6 -731.6,-729.7 30,-27.699 67.1,-51.102 109.2,-51.301 67.4,-6.199 129,32.301 174.5,78.5 147.9,149.201 296.5,297.601 444.5,446.501 56.7,56.7 111.4,117.5 181.6,157.9 65.2,38.8 143.2,64.1 219.5,50.3 141.4,-27.4 252.9,-158 270.4,-298.8 -24,25.9 -47.5,58.5 -85.6,62.3 -59.5,10.1 -109.9,-30.2 -149.6,-69.1 C 2966.4,1076.7 2778.5,888.301 2590.2,700.398 2455.8,572.199 2230,559.898 2082.3,672.699 2023.1,717.801 1979,782.699 1959.4,854.5 1843.6,738.801 1700.2,646.301 1539,610.199 c -137.3,-35 -288.9,-21.898 -413.8,47 -124,68.102 -212.399,192 -248.802,327.403 C 765.699,1010.4 662.199,1072.2 597,1166.7 c -78.301,113.8 -102,260.7 -73.801,395 26,138.7 94.5,265.5 178.199,377.6 17.204,22.2 32.5,47.4 57.403,61.9 38.5,55 87.5,111 156.398,125.4 60,16.9 125.901,7 179.501,-24.3 -32.6,57.9 -44.3,129.1 -19.9,192.2 23.9,75.2 90.4,133.4 166.6,151.3 51.8,7.3 108.2,7.9 154.8,-19.4 100.4,-47.4 153,-174.6 115.6,-279.1 -28.6,-86.5 -110.7,-151.6 -201.7,-158.5 -46.2,-5.5 -90.5,11.4 -131.9,29.7 28.2,-56.9 35.5,-123.7 17.2,-184.8 -22.4,-70.2 -80,-128 -150.4,-150.1 -66.898,-19.5 -143.602,-10.8 -200.602,30.7 -61.097,40.7 -98,112.9 -98.597,186 -2.301,29.8 9.801,58.1 11.5,87.5 -2.102,-0.3 -6.199,-0.8 -8.301,-1.1 -98.699,-139 -187.602,-294.1 -204.801,-467 -9,-87.3 25.699,-186.1 107.301,-228.2 80,-49.3 180.301,-37.4 264.602,-6.3 126.798,48.5 239.298,128.5 338.698,219.9 234.9,235.2 469.9,470.4 704.6,705.9 97.2,94.1 234.7,156.4 371.9,133.5 100.3,-11.7 172.7,-88.6 257.4,-135 31.8,-14.4 72.5,-36.9 105,-12.2 15.7,8.7 11.3,28.7 10.3,43.4 -14.9,50 -52,88.9 -87.8,125.1 -160.3,159.8 -320.9,319.4 -481,479.4 -65.5,64.7 -120.3,144.5 -139.3,235.8 -16.6,86.2 14,176.3 70.4,242"
         style="fill:#009aae;fill-opacity:1;fill-rule:nonzero;stroke:none"
         id="path12" />
      <path
         d="m 907.602,361.102 c 6.898,0.398 20.5,1.199 27.398,1.597 1.199,-59.801 0.102,-119.597 1.199,-179.398 -41.398,-0.301 -86,-7.699 -122.097,18.199 l 0.597,-19.199 C 759.398,183.898 704.199,182 649,183 c -45.699,-2 -83.699,42.801 -82.699,86.699 -0.403,20.903 12.398,38.301 21.398,56 5.5,-4.5 16.5,-13.301 22.102,-17.699 -25.699,-30.199 -16.5,-80.898 22.699,-93.602 51.801,-4.796 104.102,-0.398 156,-2.097 -0.102,25.5 -0.102,50.898 0.199,76.301 6.602,-0.403 19.903,-1.204 26.602,-1.704 1.898,-19.5 -1.602,-42.5 14,-57.597 18.301,-25.102 52.301,-14.699 78.699,-17.199 -0.801,49.699 -0.398,99.296 -0.398,149 m 45.296,0.398 c 7.102,0.102 21.102,0.301 28.204,0.5 1.597,-42 -6.102,-85.699 4.398,-126.602 14.5,-32.898 54.7,-20.597 82.9,-22.796 -0.6,25 -1,50 -1.3,74.898 6.8,0.102 20.4,0.199 27.2,0.199 -3.4,-34.699 14.4,-72 51.8,-76.898 -0.2,25.301 -0.8,50.699 -1.3,76 6.8,0.301 20.5,1.097 27.4,1.5 -3.7,-35.602 16.3,-70.102 51.8,-79 0.4,26.097 0,52.199 -0.3,78.199 7.1,0.102 21.3,0.301 28.4,0.301 0,-35.403 0.1,-70.903 0.3,-106.5 -27.9,0 -55.8,4.097 -79,20.801 -0.2,-5.204 -0.5,-15.704 -0.6,-20.903 -27.2,0.199 -53.8,5.602 -77.5,19.5 -0.3,-4.5 -1.1,-13.5 -1.5,-18 C 1050.2,185.602 991.398,168.801 964.801,215 942,259.898 956.602,313.199 952.898,361.5 m 1165.402,0.301 c 7.3,-0.102 21.9,-0.199 29.2,-0.199 -0.2,-59.602 -0.7,-119.102 0,-178.704 -86,2.102 -171.9,-0.699 -257.9,-0.097 -20,-1.903 -36.2,10.699 -52.5,19.898 0.3,-5.199 1.1,-15.5 1.5,-20.699 -26.3,-0.699 -52.9,2.199 -74.9,17.801 -9.8,-35.301 -54.9,-12 -77.9,-1.5 -2.5,-3.602 -7.6,-10.602 -10.2,-14.102 -30.1,-3.898 -60.6,-0.699 -90.7,0.801 -4.4,4.801 -13.3,14.398 -17.7,19.199 -2.5,-5.5 -7.6,-16.398 -10.1,-21.801 -30.1,1.102 -60.9,-2.699 -90.4,4.102 -32.7,11.102 -42.9,46.199 -59.3,72.5 -10.1,-0.898 -20,-3.301 -29.6,-7.102 -0.2,-8.597 -0.3,-17.199 -0.5,-25.898 3.4,-3.199 10.3,-9.699 13.8,-13 7.3,-0.301 21.8,-1.102 29.1,-1.398 -0.7,-7.801 -2.2,-23.403 -3,-31.102 -21.5,3.102 -48.4,3.801 -59.4,26.398 -26.4,34.204 8.5,93.204 51.5,80.704 27.8,-7.704 34.3,-39 49,-59.903 18.2,-23.5 51.2,-13 76.7,-15.398 -0.6,24.199 -1.8,48.301 -1,72.398 6.7,1.301 20.3,3.699 27,4.903 0.5,-26.204 3.2,-55.602 26,-72.801 22,-6.403 45.2,-3.801 67.8,-4.699 -0.3,26.199 -0.4,52.296 0,78.296 35.7,6.801 25,-30.199 34.9,-51.097 8,-16.801 26.3,-24.403 43.5,-28 -0.5,25.301 -1.1,50.597 -1.9,75.801 7,0.199 21.1,0.597 28.1,0.796 -3.7,-36 15,-69.398 50.7,-79.5 0.5,26.903 0.4,53.801 0.9,80.602 6.5,-0.5 19.6,-1.602 26.1,-2.102 0.3,-27.199 4.3,-64.199 35.6,-72.699 48.5,-3.199 97.5,-3.5 146,1.199 -10.7,13.301 -19.9,28 -33.4,38.602 -23.3,7.398 -48.4,3.602 -72.3,4.301 -1,9.801 -2,19.597 -2.9,29.398 31.5,-0.801 67.1,6.602 94.6,-13.199 21.1,-15.602 29.6,-42.801 49.8,-59.398 21.2,-4 43.1,-2.602 64.6,-3.301 -0.6,50 0.2,100 -0.8,150 m 50.3,0.398 c 6.9,-0.301 20.8,-0.898 27.7,-1.199 0.1,-59.301 0.1,-118.699 0.4,-178.102 -7,0.102 -21.1,0.301 -28.1,0.403 0.4,59.597 0.3,119.301 0,178.898 m 785.1,-82.597 c 34,27.796 65.7,58 97.4,88.199 4.1,-6.5 12.2,-19.403 16.3,-25.903 -18.1,-15.5 -36.2,-31.097 -54.3,-46.398 27.5,-19.602 51.5,-46.199 51,-82.301 23.1,-0.5 46.2,-0.699 69.4,-1 -0.2,25.199 -0.5,50.301 -0.7,75.403 6.7,0.296 19.9,0.796 26.5,1.097 1.3,-35 2.3,-70.097 2.9,-105.199 -92.9,-0.602 -185.9,-1.602 -278.8,0.301 -64.7,8.898 -93.2,98.199 -45.3,143.597 32.9,-19.796 -7,-49.597 5.4,-76.597 8.3,-17.801 23.9,-37.403 45.3,-37.602 50.2,-2 100.4,-0.801 150.6,0.199 -4.4,33.704 -35.9,64.801 -70.9,47.5 -3.7,4.704 -11.1,14 -14.8,18.704 m 154.8,80.296 c 12.3,-0.5 24.7,-1 37.2,-1.597 -0.3,-6.699 -0.8,-19.903 -1,-26.602 -12.7,0.199 -25.2,0.301 -37.7,0.403 0.3,7 1.1,20.898 1.5,27.796 m 69.3,2.5 c 7.1,-0.796 21.3,-2.597 28.5,-3.5 0.6,-39.097 -3.8,-78.699 2.3,-117.5 9.7,-38.699 55.5,-27.5 85,-29 -0.2,25.204 -0.5,50.301 -0.6,75.5 7.1,0 21.4,0 28.5,0 0.1,-35 0.1,-70 0.7,-105 -38.7,2.403 -82.2,-9.097 -116.7,13.5 -43.7,43.403 -21.6,111.301 -27.7,166 M 644.301,343.602 c 28.199,0 56.5,0 84.699,0.199 0.602,-6.903 1.801,-20.602 2.301,-27.403 -29.199,-1 -58.5,-1.097 -87.801,-0.898 0.301,9.398 0.5,18.699 0.801,28.102 m 815.299,1 c 12.4,-0.403 24.9,-0.903 37.4,-1.5 -0.1,-9.204 -0.2,-18.5 -0.2,-27.801 -13.1,0 -26.1,0 -39.1,0 0.6,9.801 1.2,19.597 1.9,29.301 m 1012.1,0.296 c 12.6,-0.898 25.5,-1.097 38.1,-3.398 0.8,-6.5 2.5,-19.602 3.4,-26.199 -14.1,0.097 -28.2,0.301 -42.3,0.398 0.2,7.301 0.6,21.903 0.8,29.199 m 231.5,-1 c 28.7,-0.296 57.3,-0.398 86.1,-0.398 -0.1,-9.301 -0.1,-18.5 -0.1,-27.898 -28.9,-0.204 -57.8,-0.204 -86.6,-0.102 0.2,9.5 0.4,19 0.6,28.398 m -1414.2,-56 c 7,0 21,-0.199 28,-0.296 -1.8,-41 2.7,-82.301 -2.5,-123.204 -6.2,-37.097 -40,-63.398 -76.7,-65.7964 0.1,6.6994 0.4,20.0974 0.5,26.7964 19.3,7.5 42.3,15.301 47.3,38.204 7.8,40.796 1.6,83 3.4,124.296 m 1061.2,-0.5 c 6.7,0.102 20.1,0.204 26.8,0.301 -0.6,-27.199 6.3,-53.699 25.9,-73.199 12,37.801 43,78.102 87.2,73.301 50.5,-4.602 79.6,-57.5 75.6,-104.5 -48.7,0.097 -97.5,-2 -146.2,0.301 -16.2,0.296 -28.9,11.699 -42.6,18.699 12.1,-48.199 -24.8,-104.0002 -76.6,-101.903 -61.1,-2.9996 -99.3,77 -66.8,125.903 11.5,25.898 38.8,36.801 64.1,44.199 0.9,-7.5 2.6,-22.5 3.5,-30 -14.1,-5.398 -31.2,-8 -39.4,-22.398 -25.3,-28.204 -8.5,-80.403 28.6,-88 23.6,-7 47,11.097 58.1,30.699 5.7,41.898 1.6,84.5 1.8,126.597 m 78.4,-72.597 c 37,-3.5 74.2,-3.301 111.2,-0.5 -13.5,17.301 -25.7,41.301 -50,43.597 -29.7,5.801 -45.2,-24 -61.2,-43.097 M 2600.5,287 c 6.7,0.301 19.9,0.801 26.5,1.102 2.6,-19.602 0.1,-42.204 14.2,-58.204 12.6,-21.097 39.8,-16.199 60.5,-19.5 -1.6,22.102 -7.1,49.301 13.1,65.102 22,23.602 63.8,13.801 75.7,-15.398 9.2,-24.5 4.9,-51.5 6.6,-77.204 -56.1,6.403 -121.2,-17.296 -169.5,20.204 C 2637.8,153 2603.3,102 2551.3,98.6992 c -0.4,6.4998 -1.2,19.4998 -1.6,25.9028 21,8.898 46,19.796 49.5,45.5 4.9,38.796 1,78 1.3,116.898 m 131.4,-29.801 c -1.2,-10.097 -7.4,-20.597 -3.6,-30.801 4.6,-18.597 28,-11.296 41.8,-15.898 -1.3,16.898 -4.4,33.398 -10.6,49.199 -6.9,-0.597 -20.7,-1.898 -27.6,-2.5 M 3253.5,153 c 13.1,0 26.4,-0.102 39.6,-0.199 -1,-7.102 -3.1,-21.199 -4.1,-28.199 -12.1,0.398 -24.2,0.796 -36.3,1.199 0.2,9.097 0.5,18.199 0.8,27.199"
         style="fill:#5d5d5e;fill-opacity:1;fill-rule:nonzero;stroke:none"
         id="path14" />
    </g>
  </g>
</svg>
