<?xml version="1.0" encoding="UTF-8" standalone="no"?>
<!-- Created with Inkscape (http://www.inkscape.org/) -->

<svg
   version="1.1"
   id="svg2"
   width="1114.6667"
   height="1377.3333"
   viewBox="0 0 1114.6667 1377.3333"
   sodipodi:docname="Saderat-logo.eps"
   xmlns:inkscape="http://www.inkscape.org/namespaces/inkscape"
   xmlns:sodipodi="http://sodipodi.sourceforge.net/DTD/sodipodi-0.dtd"
   xmlns="http://www.w3.org/2000/svg"
   xmlns:svg="http://www.w3.org/2000/svg">
  <defs
     id="defs6" />
  <sodipodi:namedview
     id="namedview4"
     pagecolor="#ffffff"
     bordercolor="#000000"
     borderopacity="0.25"
     inkscape:showpageshadow="2"
     inkscape:pageopacity="0.0"
     inkscape:pagecheckerboard="0"
     inkscape:deskcolor="#d1d1d1" />
  <g
     id="g8"
     inkscape:groupmode="layer"
     inkscape:label="ink_ext_XXXXXX"
     transform="matrix(1.3333333,0,0,-1.3333333,0,1377.3333)">
    <g
       id="g10"
       transform="scale(0.1)">
      <path
         d="m 1024.9,9529.9 c 690.1,0.2 1380.1,0.1 2070.1,0.1 -0.4,-978.4 0.8,-1956.8 -0.6,-2935.2 34.2,130.7 85.7,257.6 161.6,369.7 122.4,180.9 296,328.4 498,412.9 338.8,146.7 750,110 1056,-97 240.6,-157.9 418.2,-411.1 478.6,-692.9 3.2,557.3 0.5,1114.8 1.4,1672.2 -1.7,76.8 3.3,153.9 -2.3,230.5 -45.7,174.4 -127.4,342.8 -252.4,474.4 -146.7,156.9 -356.3,243.4 -567.4,266.6 -149.5,18.7 -300.5,7.3 -449.7,-8.7 356.2,174.7 748.4,270.4 1143.3,298.9 169,14.7 338.8,6.5 508.2,8.7 436.7,6.9 871.6,-171.5 1181.6,-478.5 275.1,-265.8 454,-629.1 495,-1009.7 12.4,-93.5 8.1,-188 8.7,-282 0.1,-1516.6 0,-3033.2 0.1,-4549.8 -688.4,-0.2 -1376.7,0 -2065.1,-0.1 0,566.7 0,1133.5 0,1700.2 -1.3,395.1 2.6,790.3 -2,1185.3 -80.5,-381.1 -378.5,-704.6 -748.8,-822.5 -305.9,-100.1 -654.7,-61.7 -929,107.8 -258.3,155.6 -448.3,418.2 -515.3,712.2 0.3,-564.3 0,-1128.6 0.1,-1693 1.4,-51.2 -3.1,-102.8 1.9,-153.9 41.1,-149.5 106.8,-294.3 204.1,-415.8 112.3,-142.6 274.5,-242.2 449,-289.2 184.2,-49.9 378.7,-51.1 567,-26.4 6.2,-4.3 12.4,-8.7 18.6,-13.3 -144.1,-63.2 -290.1,-124.1 -442.5,-164.6 -232.4,-66 -472,-106.7 -713.1,-120.6 -149.6,-11.3 -299.7,-4.2 -449.6,-6.2 -383.7,-8.1 -768.2,123.3 -1067.4,363.3 -250.2,199.9 -445.6,470 -546.7,774.7 -42.7,123.3 -69.8,251.8 -81.9,381.7 -13.4,179.8 -8.7,360.2 -9.4,540.4 -0.1,1419.9 0,2839.9 -0.1,4259.8 M 4350,3516.1 c 2,-2.6 2,-2.6 0,0 m 2584.6,-960.4 c 157.9,122.9 299,265.1 440.6,406 -21.1,-104.6 -99.8,-182.3 -168.8,-258.3 -91,-89.6 -189,-172 -289.9,-250.1 -108.8,-85.7 -217.7,-171.5 -328,-255.2 -25.7,-162.3 -72.2,-323.6 -62.4,-489.6 3.7,-22.5 8,-49.1 29.3,-62.2 19.8,-14.8 52.6,-26.1 70.8,-2.8 14.7,27.1 21.3,58.1 40.4,82.8 10.2,-53.9 -11.9,-106.1 -26.9,-156.9 -16.3,-42.5 -38.3,-94.9 -88.2,-104.7 -39.2,-2.4 -72.2,29.3 -82.5,65.1 -28.2,87.6 -7,179.6 0.2,268.7 -46.6,-59 -84.7,-126.3 -144.6,-173.5 -123.2,-106.3 -285.5,-154 -444.1,-174.8 -89.6,-8.4 -180.5,-12.6 -269.7,1 -36.6,7.5 -77.9,19.1 -97.8,53.6 -21.7,38 -19.2,83.3 -17.7,125.4 3.1,39.3 2.2,81.9 27.9,114.4 11,-30.6 21.6,-61.5 32.3,-92.3 41.7,-30.1 93.4,-38.2 143.6,-41.5 183.6,-6.7 373.4,8.9 542.5,85.9 107.2,44.8 206.3,128.3 237.8,244 17.5,68.6 33.4,138.7 69.7,200.5 39,59.2 53.7,133.2 107.6,182.5 88.2,82.5 184.1,156.1 277.9,232 M 4893.1,2146 c 4.5,11.8 13.5,20.5 23.1,28.1 -16.7,-131 -40.3,-261.2 -50.6,-392.9 -3,-47 1.2,-97.7 28.5,-137.7 23.1,-26 62.6,-33.9 95.7,-26.2 58.9,8.6 68.7,82.6 122.1,101.3 19,-6.6 38.2,-12.8 57.5,-19.1 46,52.5 69.9,121.4 121.7,169.2 17.7,17 41.9,23.6 64.2,32.3 21,-8.6 50.6,-9.7 58.9,-35.3 11.3,-70.6 -24.2,-138.9 -67.6,-192.1 -43,-56.8 -111.6,-100.9 -185.2,-94.6 -32.4,-0.7 -61.8,14.3 -90.5,27.1 -33.5,-36.5 -55.2,-82.9 -93.3,-115.4 -42.6,-37.1 -118.8,-34.9 -151,14.7 -34,50.4 -34.8,114.9 -29.5,173.3 7.3,102.9 22.7,204.9 38.6,306.7 8.7,56.7 34,108.8 57.4,160.6 m 400,-337.3 c -36.6,-28.1 -58.1,-70.6 -79.3,-110.6 58.7,2.8 110.7,34.9 147.5,79.5 -0.4,7.6 -1.4,22.9 -1.8,30.5 -21.6,2.1 -46.9,15.5 -66.4,0.6 m 1547.5,311 c 8.7,19.8 16.5,41.6 35.5,53.9 -17.2,-125.2 -38.2,-250.1 -49.5,-376 -2.2,-43.4 -7.1,-89.4 10.6,-130.5 11.8,-26.1 42.8,-38 70,-37 31.3,13.6 34,52.2 45.1,80.1 4.6,2.7 13.8,8.3 18.4,11 0.8,-57.5 -17.5,-112.9 -36.5,-166.4 -16.1,-37.9 -38.6,-82.8 -83.7,-90.2 -35.8,-1.5 -67.2,25.4 -78.8,57.8 -21.4,59.6 -19.1,124.2 -12.8,186.1 8.2,93.5 22.7,186.3 36.6,279 6.7,46.6 27,89.3 45.1,132.2 m -165.5,5.3 c 36.3,-26.3 83.3,-55.4 84.6,-105.8 -7,-47.3 -32.6,-90.5 -69.9,-120.4 -32.4,23.7 -65.3,47.3 -91.3,78.2 24,50.1 46,101.4 76.6,148 m -4455.9,-30.6 c 7,-51.9 -9.5,-103.4 -11.8,-155.3 -14.5,-102.6 -16,-210.2 -63.5,-304.8 -23.2,-44.3 -38.3,-98.8 -83.3,-126.5 -7.4,17.9 1.8,36 5.4,53.4 29,96.1 48.7,195 56.8,295.1 3.8,53.7 30.5,101.4 50.2,150.3 12.3,30.8 27.4,60.5 46.2,87.8 m 646.8,-4.3 c 2.4,-4.3 7.4,-12.9 9.9,-17.2 -17.9,-107.9 -23.9,-217.4 -43.1,-325.2 -10.1,-56.8 -35,-109.4 -61.4,-160.4 -16.5,-30.7 -28.7,-68.3 -63.4,-83.2 7.6,73.1 36.1,142.1 47.3,214.7 17.9,73.6 10,152.5 41.2,222.7 21.3,50.4 39.6,102.5 69.5,148.6 m 1170.6,-148.3 c 22.7,51.1 38.5,106.4 73.7,150.9 6.2,-37.3 -3.7,-74.5 -7.2,-111.6 -8.6,-75.6 -16.8,-151.3 -28.9,-226.5 -12.7,-76.3 -50.7,-144.7 -86.3,-212.2 -8,-17.5 -24.4,-27.8 -39.9,-37.9 7.8,72.9 36.1,141.8 47.3,214.3 17.9,73.7 10,152.7 41.3,223 m -603.9,-29.6 c 20.4,53.7 46.9,104.8 77.1,153.6 37.7,-25.7 73.7,-56.6 86.7,-102.3 -15.4,-43.5 -28.4,-104.1 -77.3,-120 -31.4,19.4 -58.6,44.8 -86.5,68.7 m -160.2,-9.1 c 20.9,53.1 45.5,104.9 77.3,152.5 36.6,-25.9 80.3,-56 82.9,-105.5 -5,-46.3 -32.9,-86 -62.7,-120.2 -36.3,19.1 -67.3,45.8 -97.5,73.2 m 1330.1,112.1 c 32.2,-35 73.3,-64.4 92.1,-109.7 22,-52.8 18.6,-112.5 5.1,-167.1 -30,-123.4 -122.7,-231.5 -244.2,-271.9 18.1,56.3 72.7,86.4 106.9,131.6 27.3,35.7 56.5,76.2 57.3,122.8 -9.9,55.1 -55.5,92.6 -95.8,126.8 23.1,57.2 47.1,114.3 78.6,167.5 M 2557,1874.1 c 44.1,22.4 67.3,68.5 103.2,100.4 -3.1,-57 -24.2,-112.4 -53.8,-160.8 -25.6,-43.8 -81.3,-49.9 -117.3,-81.5 -70,-61.8 -61.6,-175.6 -141.6,-229.2 -47.5,-27.4 -104.4,-37.1 -158.6,-37.2 -4.6,2.9 -13.7,8.8 -18.3,11.7 56.2,63.3 140.4,92.4 199.9,152 41.2,48 53.4,112.5 85.5,165.9 24.1,36.7 63,59.1 101,78.7 m -550.8,15.8 c 2.4,-4.2 7.2,-12.8 9.5,-17.1 -20,-110.9 -14.9,-225.5 -45.9,-334.6 -32.9,-145.9 -107.6,-288.3 -233.2,-374.6 -72.4,-53.9 -168.5,-72.9 -256.3,-53.9 -75.1,16.8 -128.2,87.7 -138.3,161.7 -15.9,120.8 28.7,238.8 81.1,345.3 22.6,41.8 40.3,88.4 78,119.3 1.9,-51.3 -29.5,-93.9 -48.2,-139.5 -30.7,-66.9 -62.5,-141.8 -42,-216.6 10.7,-46.1 45.5,-86.4 92.4,-97.7 99.3,-24.8 211.6,-4.4 291.9,60.7 45.5,36 82.8,82.7 107.9,134.9 35.9,87.7 7.4,185.9 35.3,275.3 13.5,49.6 42.1,93 67.8,136.8 m 1800.7,-157.7 c 41,20.9 64.2,62.1 92.2,96.6 8.9,-54.6 -18.6,-106.6 -44.8,-152.5 -49.7,-81.7 -139.1,-126.7 -227.4,-154.8 -115.4,-35.6 -236.2,-49.8 -356.4,-56.3 -75.8,-1.6 -153.2,-0.7 -226.5,20.5 -50.4,14.5 -100.9,57.2 -95.8,114.4 4.4,64.3 13.1,129.9 37.9,189.8 24,-34.5 11.3,-89.7 53.1,-111.5 52,-29.3 113.3,-34.3 171.6,-39.6 86.1,-8.6 172.7,-2 258.7,3.8 116.2,10.7 234.2,33.1 337.4,89.6 m 545.7,-73.7 c 38.3,38.5 50.1,96.1 93,130.7 -6.7,-166.6 -145.9,-311.1 -308.7,-337.1 9.3,19.8 20.9,38.6 38.9,51.6 61,49.1 121.8,98.9 176.8,154.8 m -2750.3,-74.8 c 22.6,52.7 47.5,104.4 79.2,152.2 44.4,-24.9 92,-56.9 99.4,-111.8 -11.4,-44.4 -37.8,-84.3 -74,-112.5 -39.3,16.2 -71.2,46.4 -104.6,72.1 m 5129.9,-565.1 c 22.6,51.4 46.4,102.2 76.3,149.7 35.9,-25.1 78.3,-53.5 85.5,-100.3 -6.2,-49.2 -30.7,-96.602 -72.1,-125.102 -30.8,24.102 -61.6,48.403 -89.7,75.702 m -4168.5,117 c 31.7,-22.8 69.3,-45.3 80.2,-85.7 9.5,-54.4 -25.3,-104.9 -64.1,-139.298 -32.9,22 -64.1,46.398 -92.9,73.398 22,52.3 45,104.4 76.8,151.6 M 2329.9,973.398 c 13.8,55.202 44.8,105.302 74.1,153.702 30.6,-24.5 69,-46.7 79.9,-87.2 9.6,-54.502 -26,-104.502 -64.2,-139.4 -30.7,23.199 -63.7,44.199 -89.8,72.898"
         style="fill:#29166f;fill-opacity:1;fill-rule:nonzero;stroke:none"
         id="path12" />
    </g>
  </g>
</svg>
