<?xml version="1.0" encoding="UTF-8" standalone="no"?>
<!-- Created with Inkscape (http://www.inkscape.org/) -->

<svg
   version="1.1"
   id="svg2"
   width="800"
   height="800"
   viewBox="0 0 800 800"
   sodipodi:docname="Salehin-logo.eps"
   xmlns:inkscape="http://www.inkscape.org/namespaces/inkscape"
   xmlns:sodipodi="http://sodipodi.sourceforge.net/DTD/sodipodi-0.dtd"
   xmlns="http://www.w3.org/2000/svg"
   xmlns:svg="http://www.w3.org/2000/svg">
  <defs
     id="defs6" />
  <sodipodi:namedview
     id="namedview4"
     pagecolor="#ffffff"
     bordercolor="#000000"
     borderopacity="0.25"
     inkscape:showpageshadow="2"
     inkscape:pageopacity="0.0"
     inkscape:pagecheckerboard="0"
     inkscape:deskcolor="#d1d1d1" />
  <g
     id="g8"
     inkscape:groupmode="layer"
     inkscape:label="ink_ext_XXXXXX"
     transform="matrix(1.3333333,0,0,-1.3333333,0,800)">
    <g
       id="g10"
       transform="scale(0.1)">
      <path
         d="m 4991.3,2378.6 c 12.1,15 31.2,2.4 46.5,0.8 -1.1,-14 -2.1,-28.1 -3.3,-42.2 -6.1,-2.1 -18.4,-6.2 -24.5,-8.3 -6.5,2.3 -19.5,6.8 -26,9 2.5,13.2 -3.7,30.8 7.3,40.7 m -215.2,2.5 c 9,0 27,-0.1 36,-0.1 0.2,-17.7 0.3,-35.5 0.2,-53.3 -12.1,3.2 -23.2,8.1 -33.5,14.5 -1.4,13 -2.3,26 -2.7,38.9"
         style="fill:#ffffff;fill-opacity:1;fill-rule:nonzero;stroke:none"
         id="path12" />
      <path
         d="m 3004.9,5843.7 c 154.1,48.8 318,64.7 478.7,47.6 154.5,-23 311.6,-59.1 446,-142.1 91.1,-55.4 167.1,-142.1 191.1,-248 32.2,-155.6 -24.5,-313.7 -107.9,-443.8 -43.9,-61.3 -121.9,-82 -192.3,-94.2 -192.3,-20 -383.4,26 -565.7,83 -122.2,36.8 -238.9,95.7 -367.5,107.9 -154.2,21.5 -315.4,-10.9 -447.8,-93.2 -178.5,-109 -307.7,-281.4 -408.5,-461.3 -114.3,-208.9 -194.8,-434.6 -258.1,-663.7 -51.6,-187.1 -90.6,-377.7 -117.7,-569.9 -22,86.2 -17.7,175.8 -24.3,263.7 -15.9,491.2 121,987.5 391.6,1398.3 84.1,120.7 169.9,241.1 272.6,346.7 195.9,207.7 435,383 709.8,469 m 1300.3,-541.2 c 27.1,-182.8 25.1,-368.9 14.4,-553.1 -28.2,-312.2 -116.6,-618.9 -259.4,-898.2 -54.4,-105.8 -116.4,-208 -189,-302.3 -167.9,-241.8 -382.6,-454.3 -637.9,-602.8 -194.2,-113.8 -417.6,-178.6 -643,-179.5 -119.9,4.6 -239,24.6 -353.9,59.2 -141,42.3 -287,113.9 -363,246.3 -48.4,80 -50.9,177.2 -39.3,267.4 19.8,99.5 60.3,195 118,278.5 40.9,50.7 107.9,69.4 169,82.6 229.3,28.1 456.2,-37.1 671.1,-110.4 123.4,-48.6 253.3,-89.7 387.6,-83.8 201.5,-0.4 388.7,105.7 524.2,249.4 183.3,194.7 300.1,440.7 391.1,689.5 100.3,277.3 163.7,566.4 210.1,857.2 M 3316.9,1999.7 c 71.3,0.7 142.6,1.1 214,0.4 43.6,0.9 85,-26.4 104.2,-65.1 11.6,-26.5 15.3,-55.7 15.5,-84.4 -0.2,-273.5 -0.1,-547 -0.1,-820.5 -0.9,-65.498 -4.9,-133.998 -38.7,-191.998 -69.9,-123.602 -207.9,-190.5 -341.7,-220.403 -306.7,-4.801 -613.4,4.301 -920.1,2.102 -109.9,5.801 -220,3 -330,3.597 -71.6,0 -145.7,-4.296 -214.1,20.704 -26.6,8.796 -43.7,31.597 -59.1,53.5 -29.6,-50.301 -74.5,-95.204 -133,-108.801 -46.8,-14.602 -96.2,-13.699 -144.1,-5.699 -83,-156.403 -206,-294.903 -363.2,-379.301 C 973.102,133.5 815.398,107.699 667.199,138.699 551.801,159 442.602,216.602 363.102,303.102 287.5,383 237.102,484.898 213.602,592 c -10.801,68.602 -8.403,138.602 -1.801,207.398 6.699,46.102 15.398,95.301 48.097,130.704 116.5,139.498 242.301,270.898 372.301,397.698 71.403,80.3 223.102,62.1 271.102,-35.2 23.5,-49.6 33.801,-106.9 23.597,-161.3 -2.597,-22.4 -22.097,-36.2 -37.097,-50.8 C 788.602,988.398 688.898,894.699 591.301,798.699 572.898,779 548.801,759.699 547.898,730.301 538,646.602 579,554.898 651.699,511.801 764.5,508.301 877.602,511.898 990.602,510.199 1061.4,500.801 1111,571.301 1125.8,632 c 1.8,284.199 -0.1,568.5 1,852.7 51,-3 102,-8.9 153.3,-8.2 35.2,-1.3 71.7,0.3 105.4,-11.6 41.5,-17.5 68.3,-61.2 70.5,-105.5 3,-96.5 -2.4,-193.2 2.3,-289.6 4.3,-61.4 64.7,-96.198 120.1,-103.101 6.8,107.701 4.4,215.501 5.3,323.201 4.3,66.6 2.1,133.4 3.2,200 71.2,0.3 142.5,2.3 213.6,-0.7 58.3,-2.2 112.7,-50.2 115.1,-109.7 3,-103.2 -0.5,-206.5 1.3,-309.8 0.2,-57 59.6,-95.899 112.6,-93.2 273.3,0.602 546.6,-0.5 819.8,0.5 -0.7,67.3 2.2,134.7 -1,201.8 -9.3,38.2 -33.7,71.1 -59.2,100.3 -40.7,45.4 -111.4,68.1 -167.6,38.2 -104.2,-49.3 -176.3,-143.2 -252.5,-225.8 -103.7,-26.6 -216.5,-31.3 -320.7,-2.6 -28.6,13.6 -17.1,50.7 -11.3,74.4 32.4,107.9 100.7,201.2 177.8,281.7 96.4,101.3 218.3,183.3 356.7,212.3 128.8,17.7 267.7,5.8 379.5,-65.6 112,-67.3 196.5,-179.2 233.9,-304 4.3,-89.2 -0.1,-178.7 1.7,-268.1 -3.5,-30.6 28.6,-50.401 54.7,-56.202 44.1,5.204 80,52.002 75.6,95.902 -0.4,313.5 -0.5,627 0,940.4 m 494.4,-5.7 c 84.1,6 175.8,20.8 254.1,-19.1 32.6,-14.4 52.6,-49.4 51.3,-84.6 0.3,-150 -0.4,-300.1 0.2,-450.2 6.8,-119.8 1.7,-240 3.8,-360 -2.4,-63.1 57.7,-112.6 118.9,-107.498 0.9,171.398 -1.4,342.798 1.2,514.198 59.4,-1.2 119.7,3.8 178.3,-9.2 43.8,-9.3 92,-20.2 123,-55.4 18.2,-18.9 17.3,-47.2 18.3,-71.7 0.1,-79.8 -0.3,-159.6 0,-239.4 17.5,1.6 35.1,2.8 52.7,4.1 96.8,146.4 215.4,279.7 355.8,385.6 135.3,99.5 300.7,173.6 472,158.1 142.6,-14.6 264.3,-109.6 339.8,-227.5 62.6,-99.1 106.7,-213.8 108,-332.1 -12.9,-119.902 -65.3,-234.402 -138,-329.8 -60.3,-76.898 -148.6,-141.301 -250.3,-139.398 -416.8,-1.5 -833.6,0 -1250.4,-0.801 -114.9,-3.699 -227.9,42.5 -315.4,115.5 -83.3,72.801 -130.4,184.597 -125.3,295.099 1.6,318 -2.4,636.1 2,954.1 m 1435.8,-740.9 c -107.1,-84.6 -208.7,-176.7 -303.3,-274.901 142.1,-3.398 284.4,-0.699 426.7,-1.5 83,1.403 150.6,81.701 143.5,163.601 4.3,128.4 -177.6,198.1 -266.9,112.8 M 793.898,1844.4 c 103.102,22 213.802,-67.9 207.002,-174.3 6.6,-96.7 -85.298,-182.3 -180.4,-177 -88.301,0.3 -169.898,77 -170.801,166.3 -8.898,87.2 59,170.5 144.199,185 M 1558.8,411.5 c 46.3,62.602 136.4,85.699 207.9,56 34.8,-12.898 59.9,-41.5 85,-67.602 24.3,25.204 48.4,52.602 81.6,66.204 71.1,31.398 163,9.597 209.9,-53.102 42.1,-51.398 47.3,-126.699 20.5,-186.301 -31.2,-63.898 -102.6,-107 -174,-100.199 -55.8,4.102 -103.6,38.602 -138,80.801 -23.8,-26.5 -49.6,-53 -83.4,-66.403 C 1698.7,107.5 1608.9,132 1562,192.102 c -51.3,60.5 -51.8,157.199 -3.2,219.398"
         style="fill:#ad2f21;fill-opacity:1;fill-rule:nonzero;stroke:none"
         id="path14" />
      <path
         d="m 2893.7,4785.1 c 78.1,9.5 159.5,8.6 234.5,-17.5 155.1,-51.5 277.2,-192 305.4,-353.1 20.7,-104.4 2.2,-215.4 -48.5,-308.7 -71.2,-134 -213.5,-228.3 -365.3,-238.7 -81.8,-7.1 -166.4,4.5 -240.5,40.9 -127.3,59.7 -225.3,179.8 -255,317.6 -32,130.5 0.9,272.7 80.2,380.1 69.4,93 174.7,159.4 289.2,179.4"
         style="fill:#a6aaad;fill-opacity:1;fill-rule:nonzero;stroke:none"
         id="path16" />
      <path
         d="m 1541.5,2548.9 c 21.6,-0.3 43.2,-0.6 64.8,-0.9 1.3,-68.8 -3.9,-137.8 2.2,-206.4 24.1,-22 62.4,-10.3 92.4,-10.5 1.9,28.5 2.8,57 3.3,85.5 20.8,0 41.5,0.1 62.3,0.4 2.6,-27.4 5.6,-54.8 9,-82.1 42.1,-6.1 86.6,-13 127.8,1.6 7.7,26.2 8.1,53.8 10.2,80.8 20.7,-0.2 41.4,-0.3 62.2,-0.3 0.6,-28.3 1.4,-56.6 3.4,-84.8 17.3,-0.3 34.7,-0.6 52.1,-0.9 1.1,36.5 -5.2,83.9 31.7,105.7 46.7,23.8 108.6,13.9 144.5,-25.1 -9.8,-16.7 -19.5,-33.5 -29.2,-50.2 -24.8,11.7 -51,21.8 -79,20.1 0.5,-15.4 -2.6,-32.1 5.6,-46.3 35.7,-8.7 72.8,-7 109.3,-9.4 0.6,-20.8 1.6,-41.6 2.8,-62.4 -89.7,0.6 -179.6,-3.1 -269.1,3.1 -36,0.9 -71.8,-4.4 -107.8,-3.7 -44.1,-1.3 -88.1,7 -132.2,2.5 -40.2,-2.2 -81.4,-6.1 -120.8,3.5 -30.7,8 -46.6,40.6 -45.7,70.4 -1.2,69.8 -0.1,139.7 0.2,209.4 m 1626,-0.5 c 21.6,0 43.3,0 65,0 2.5,-66.3 1.9,-132.6 1.5,-198.9 0.4,-32.7 -15.5,-71.3 -48.8,-82.4 -27.3,-5.4 -55.4,-4.1 -83.1,-6.1 -10,-28.4 -16.8,-61.7 -43.7,-79.5 -37.3,-26.4 -85.7,-20.7 -128.9,-20.4 -35.7,-0.3 -72.3,15.8 -90.6,47.5 -30.5,50 -21.9,111.1 -21.7,166.8 21.9,0.3 43.8,0.3 65.7,0 5.2,-44.7 -11.9,-97.2 15.9,-136.3 29.9,-17.8 67.4,-15.2 100.6,-10.8 12.5,0.1 38.4,20.1 20.2,30.1 -24.1,7.2 -49.7,5.3 -74.5,7 -1.5,21 -3,41.9 -4.4,62.9 74.1,4.3 150.2,-8.9 223,7.9 6.2,70.5 -1.1,141.6 3.8,212.2 m 119.9,0 c 21.7,0 43.4,0 65.1,0.1 4.9,-70.7 -2.7,-141.7 3.9,-212.1 13.6,-3.5 27.6,-5.1 41.5,-7.2 5,40.7 8.3,91 49.1,113.1 34.4,10.4 81.9,13.6 105.2,-19.8 39.8,-45.3 26.8,-128.7 -29.9,-153.8 -36.5,-17.8 -74.1,14.8 -111,1.9 -28.8,-8.2 -60.6,-10.3 -88.3,3 -31,10.4 -36.6,47.7 -37.2,75.9 -0.1,66.3 -0.9,132.7 1.6,198.9 M 3465.9,2374 c -2,-12.8 -1.8,-25.9 -2.1,-39 15.2,-1.3 30.5,-2.4 45.8,-3.5 1.4,15 9.8,32.5 -1.7,45.6 -8.6,15.8 -34.2,11.2 -42,-3.1 m -1188.2,159.2 c 20.3,0.3 40.6,0.4 61,0.2 0.8,-89.5 -0.1,-179.1 0.5,-268.7 -20.6,-0.2 -41.3,-0.2 -61.9,0 -1.3,89.5 -2,179.1 0.4,268.5 m -444.5,-35.1 c 15.6,12.8 35.4,1.1 52.5,-1.3 26.6,-10.2 55.7,19.8 80.1,0.1 19.1,-9.6 13.1,-34.2 8.8,-50.8 -21.1,-23.7 -51.1,-8.9 -75.1,0.6 -20,-5.8 -41.2,-19.9 -62.4,-10.9 -23.3,11.9 -28.3,48.7 -3.9,62.3 m 1885.4,-115.5 c 19.3,38.1 34.4,80.5 68.6,108.4 48.2,-46.4 89.6,-99.4 138.7,-144.9 24.1,-24 59.7,-15.7 89.8,-12.3 3,27.8 5.4,55.6 7.4,83.5 20.9,-0.5 41.8,-0.7 62.7,-0.9 1.6,-34.9 -9.7,-77.8 24.9,-100.5 9.6,32.9 11,67.3 11.9,101.3 21,-0.4 42,-0.6 63,-0.7 3.5,-32.5 -12,-78.7 25.8,-95.8 18.8,28.4 10.6,64 12.5,95.9 20.9,0 41.8,0.1 62.8,0.3 1.9,-27.9 4.4,-55.8 7.3,-83.6 30.1,-5.1 60.7,-5.1 90.9,0.2 0.7,27.3 1.3,54.5 2.3,81.7 21.7,0.3 43.5,0.3 65.4,0 3.3,-34.3 -9.2,-79.7 28.8,-98.7 8.9,32.8 11.1,66.7 11.6,100.4 21,-0.2 42,-0.3 63,-0.3 5.4,-31.1 -14.3,-84.1 26,-94.6 23.7,25.3 11.3,63 13.5,94.3 20.9,0.2 41.8,0.5 62.8,0.8 -3.5,-48.6 17.8,-112.4 -27.9,-146.9 -23.6,-22.5 -56,-10.9 -82.8,-2.6 -22.8,8.8 -44.5,-9.3 -67.2,-10.2 -24,4.5 -46.6,23.7 -71.7,14.3 -55.8,-18.3 -114.4,1.6 -170.8,-10.5 -24.1,-7.1 -47,5.5 -70.2,10 -28.6,-3.4 -56.5,-22.2 -85.3,-8.5 -39.8,17.5 -81.6,-4.7 -122.9,0 -29.3,-2.5 -54.4,13.5 -79,26.7 -32.3,-17.4 -69.5,-44.4 -107.2,-26.4 -46.4,16.8 -76.5,73 -54.7,119.6 m 73.3,8.1 c -13.1,-21.2 -23,-45.1 -11.6,-69.5 15.6,1 31.2,2.1 46.9,3.3 7.8,30 -10.9,52.1 -35.3,66.2 m -2664.1,31.8 c 30,38.2 83.7,23.2 125.4,26.1 1.1,-20.4 1.9,-40.8 2.4,-61.2 -24.3,-0.9 -48.7,-1.9 -73,-2.6 -2.7,-7 -8.1,-21.1 -10.8,-28.1 30.1,-12.7 77.3,-7 91.1,-43.1 10.3,-43.1 3.4,-94.5 -32.4,-124.3 -37.2,-36.3 -93.6,-28.5 -141,-27.9 -54.6,-0.2 -98.602,48.5 -106.301,100.1 -4.597,38.4 -2,77.1 -1.5,115.6 21.501,-0.3 43.001,-0.5 64.501,-0.6 0.9,-38 -4.9,-77.3 4.9,-114.4 16.5,-43 71.3,-38.8 108.7,-34.7 23.1,2.2 58.1,34.7 33.4,54.6 -27.7,8.7 -57.2,8.8 -85.9,11.1 -1.2,43.5 -9.6,93.1 20.5,129.4 m 1416.8,21.3 c 31.4,6.7 66.8,9.3 96.9,-3.1 42.2,-41.7 35.1,-107.1 35.5,-161.5 2.6,-50.1 -32.8,-99.4 -80.9,-113.4 -33.4,-8 -68,-4.6 -101.9,-2.8 -1,20.9 -2.1,41.7 -3,62.5 38.9,1.5 88.3,-7.6 113.4,30.3 -34.4,15.4 -89.1,18.5 -96.1,64.6 -5.8,41.9 -8.9,101.7 36.1,123.4 m 28.3,-65.8 c 0.9,-13.8 1.8,-27.7 2.8,-41.6 10.8,-1.9 21.7,-3.8 32.6,-5.7 -0.4,15.9 -0.8,31.8 -1.3,47.7 -11.4,-0.1 -22.8,-0.2 -34.1,-0.4 m 2152,47.3 c 13.6,22.1 42,23.2 65.1,23.6 21.3,-0.2 46.1,0 62.1,-16.8 27.5,-26.2 24.7,-67.5 31.7,-102 13,1.3 26.1,2.6 39.2,3.9 3.9,40.2 7.7,93.3 51.1,110.8 31.3,6 71,9.7 95,-15.8 44,-42.7 35.9,-128.7 -20.4,-157.1 -30.8,-19.7 -65.3,0.4 -97.4,3.8 -23,-3.8 -45.1,-11.6 -67.5,-17.5 -12.8,-29.1 -26.6,-60.2 -54.5,-77.9 -37.7,-26.2 -86.2,-18.1 -129.3,-19 -3.1,21.4 -6,42.8 -8.9,64.2 41.9,-0.1 90.1,-5.2 120.3,30.3 -27.9,10.2 -58.3,15.6 -83.2,32.3 -30.4,38.8 -28.3,96.2 -3.3,137.2 m 266.4,-46.7 c -11,-9.9 -4.8,-27.5 -7.3,-40.7 6.5,-2.2 19.5,-6.7 26,-9 6.1,2.1 18.4,6.2 24.5,8.3 1.2,14.1 2.2,28.2 3.3,42.2 -15.3,1.6 -34.4,14.2 -46.5,-0.8 m -215.2,2.5 c 0.4,-12.9 1.3,-25.9 2.7,-38.9 10.3,-6.4 21.4,-11.3 33.5,-14.5 0.1,17.8 0,35.6 -0.2,53.3 -9,0 -27,0.1 -36,0.1 m -3352.7,35.5 c 21.4,0 42.9,0.1 64.5,0.3 -5.1,-75 22.4,-167 -39.6,-225.3 -36.7,-39.7 -95,-30.9 -143.5,-28.6 -1.5,21.4 -3.2,42.8 -4.9,64.2 39.1,6.5 98.3,-9.4 119,34.6 9.9,50.8 2.4,103.3 4.5,154.8 m 261.5,-181.5 c 27.3,-0.6 70.1,12.1 76.2,-26.4 10.3,-42.8 -51.1,-62.5 -77.9,-34.6 -10.9,19.4 -1.9,41.1 1.7,61"
         style="fill:#f69636;fill-opacity:1;fill-rule:nonzero;stroke:none"
         id="path18" />
    </g>
  </g>
</svg>
