<?xml version="1.0" encoding="UTF-8" standalone="no"?>
<!-- Created with Inkscape (http://www.inkscape.org/) -->

<svg
   version="1.1"
   id="svg2"
   width="1574.6667"
   height="1336"
   viewBox="0 0 1574.6667 1336"
   sodipodi:docname="Saman-logo.eps"
   xmlns:inkscape="http://www.inkscape.org/namespaces/inkscape"
   xmlns:sodipodi="http://sodipodi.sourceforge.net/DTD/sodipodi-0.dtd"
   xmlns="http://www.w3.org/2000/svg"
   xmlns:svg="http://www.w3.org/2000/svg">
  <defs
     id="defs6" />
  <sodipodi:namedview
     id="namedview4"
     pagecolor="#ffffff"
     bordercolor="#000000"
     borderopacity="0.25"
     inkscape:showpageshadow="2"
     inkscape:pageopacity="0.0"
     inkscape:pagecheckerboard="0"
     inkscape:deskcolor="#d1d1d1" />
  <g
     id="g8"
     inkscape:groupmode="layer"
     inkscape:label="ink_ext_XXXXXX"
     transform="matrix(1.3333333,0,0,-1.3333333,0,1336)">
    <g
       id="g10"
       transform="scale(0.1)">
      <path
         d="m 6729.6,9970.9 c 18.4,17.2 44.1,54.7 71.2,31.3 209.2,-249.7 363.7,-548.4 426.7,-869.3 59.5,24.2 111.5,63.3 170.4,88.9 383.4,193.2 794.4,324.5 1209.5,430.1 13.4,3.1 27.1,4.5 41,6.3 -6.2,-194.4 -30.4,-387.9 -65.5,-579 -43.2,-236.5 -106.4,-470.1 -199.3,-692.1 -12.2,-30.2 -27.9,-59.4 -32.9,-92 463.9,-9.8 916.2,-144.5 1340,-326.1 1.1,-2 3.2,-6.1 4.3,-8.2 -291.3,-370.2 -606.1,-726 -975.5,-1020.5 -45.5,-38.2 -96,-70.3 -140.2,-110.1 283.8,-239.4 483.3,-564.9 619.3,-907.3 -422.6,-179.1 -861.3,-330.2 -1316.7,-398.2 14.8,-128.3 20.6,-257.9 10.1,-386.9 -13.9,-133.4 -38.6,-265.7 -76.2,-394.4 -10,-29.9 -14,-62.6 -31.5,-89.5 -247.1,22.1 -494,54.3 -734.8,115.2 -75,19.4 -150.3,38.8 -222.4,67.7 -15.9,6.5 -32.9,9 -49.6,11.6 -71.7,-145.5 -168.1,-278.2 -282.2,-393.4 -48.5,-48.2 -95.4,-98.6 -150.6,-139.3 -14.2,-7.8 -30.3,0.3 -42.2,8.2 -180.9,117.9 -359.7,243.2 -508.6,400.7 -20.6,21.3 -40.3,43.3 -62.9,62.3 -144.7,-100.3 -311.9,-162.5 -481.8,-204.6 -19.8,-4.5 -39.9,-6.3 -60,-7.9 -88,142.7 -169.1,291 -224.1,449.8 -16.7,38.4 -20.6,82.4 -43.5,117.9 -170.2,-17.6 -342.7,6.5 -506.1,54.7 -25.9,149.1 -26.1,301.5 -19.5,452.2 5.3,37.6 5.3,76.5 16.6,112.8 89.6,-28.6 182.8,-49.4 277.5,-44.8 79.6,-3.5 158.2,9.2 236.7,20.2 -34.4,-195.2 -52.1,-399.4 2.1,-592.8 189.7,18.5 351.2,131.3 502.8,237.6 57.4,-196.6 139,-389.6 265.9,-551.9 12.6,-16 31.5,-38.6 54.2,-25.2 94,63.2 162.6,156.3 223,250.6 54.8,79.2 92.2,168.2 134.3,254.4 178.9,-181.1 385.8,-340.2 622.5,-437.7 16.1,-7 33.7,-8.6 51,-11.1 48.6,113.7 78.9,235.4 82.1,359.4 4.7,129.2 1.1,259.2 -21.3,386.8 336.7,-81.4 688.3,-133.7 1033.5,-79.7 -30.7,199.4 -132.5,378.8 -251.1,538.7 -61.8,86.9 -135.3,164.4 -205.9,244 188.3,48.6 372.1,113.4 552.1,186.7 212.2,86.6 415.4,196.4 600.5,332 -107.2,103.1 -241.9,173.2 -377.2,232.3 -207,81.7 -422,147 -642.8,178 0.4,3.9 1.3,11.6 1.7,15.5 122.6,117.8 243.4,238 351.4,369.6 135.8,161 264.6,329.7 362.2,517.1 26.1,50.1 56,98.9 72.5,153.3 -107,6.6 -213.9,-2.9 -320.2,-13.7 -163,-17.7 -321.7,-60.6 -479.6,-102.9 -151.5,-43.1 -299.5,-96.9 -445.9,-154.7 66.9,200.6 113,407.9 141.7,617.4 12.3,111.5 22.2,224.3 10.4,336.4 -4.6,50.3 -6.8,101.5 -23.8,149.6 -161.3,-93.5 -316.2,-199.3 -454.2,-325 -172.7,-147.7 -333.2,-309.7 -480,-483.2 -34.3,106.5 -60.3,216.3 -109.4,317.5 -67.3,152.9 -148.5,311.6 -289.3,408.9 -97.6,-141.6 -178.4,-294.2 -244.8,-452.6 -66.7,-158.7 -124.9,-321.5 -166,-488.7 -170,135.5 -369.2,259 -593.5,261.6 -28.3,-115.9 -35.4,-235.9 -31.7,-354.9 2,-147 21.3,-293 45.7,-437.8 -184.2,7.1 -379.1,-4.8 -543.3,-96.8 -20,-7.2 -14.7,-31.2 -11.9,-47.5 44.1,-170 139.4,-321.1 243.2,-460.6 10.7,-17.9 40.5,-36.2 26.1,-59.4 -156.3,-89.4 -316.2,-191.4 -412.3,-348.5 58.7,-65.3 123.2,-126.8 201.2,-168.6 77.1,-49 161.7,-83.7 245.6,-118.8 -110.2,-151.4 -206.6,-321.1 -235.4,-508.5 -116.3,45.1 -221.6,115.3 -320.1,191 -37.9,28 -69.5,63.6 -108.4,90.2 40.4,182 115.4,356.4 212.8,515.3 -33.3,51.8 -75.5,97.3 -105.9,151.1 -71.9,113 -129.8,234.7 -178.1,359.5 26.7,41.2 58.9,78.5 92.4,114.3 70.1,72.9 139.8,147.4 222.1,206.9 33.1,24.2 67.7,46.3 100.8,70.4 -0.5,43.5 -13.2,85.3 -20,127.9 -36.9,204.2 -39.4,412.7 -32.9,619.5 24.9,8.3 48.9,18.8 72.6,30 167.2,77.2 349.3,123.5 533.7,127.3 62.6,328.3 187.7,640 319.4,945.6 167.4,-13.2 330.9,-62.9 483.4,-132.2 74,-35.1 141.8,-80.9 207.3,-129.6 84.5,113.3 167.5,228.5 261.9,334.1 114.2,138.6 242.8,264.3 369.3,391.5 68.3,65.2 135,132.2 206.4,194.1"
         style="fill:#7cd0f5;fill-opacity:1;fill-rule:nonzero;stroke:none"
         id="path12" />
      <path
         d="m 6768.7,8801.9 c 138,125.7 292.9,231.5 454.2,325 17,-48.1 19.2,-99.3 23.8,-149.6 11.8,-112.1 1.9,-224.9 -10.4,-336.4 -28.7,-209.5 -74.8,-416.8 -141.7,-617.4 146.4,57.8 294.4,111.6 445.9,154.7 157.9,42.3 316.6,85.2 479.6,102.9 106.3,10.8 213.2,20.3 320.2,13.7 -16.5,-54.4 -46.4,-103.2 -72.5,-153.3 -97.6,-187.4 -226.4,-356.1 -362.2,-517.1 -108,-131.6 -228.8,-251.8 -351.4,-369.6 -0.4,-3.9 -1.3,-11.6 -1.7,-15.5 220.8,-31 435.8,-96.3 642.8,-178 135.3,-59.1 270,-129.2 377.2,-232.3 -185.1,-135.6 -388.3,-245.4 -600.5,-332 -180,-73.3 -363.8,-138.1 -552.1,-186.7 70.6,-79.6 144.1,-157.1 205.9,-244 118.6,-159.9 220.4,-339.3 251.1,-538.7 -345.2,-54 -696.8,-1.7 -1033.5,79.7 22.4,-127.6 26,-257.6 21.3,-386.8 -3.2,-124 -33.5,-245.7 -82.1,-359.4 -17.3,2.5 -34.9,4.1 -51,11.1 -236.7,97.5 -443.6,256.6 -622.5,437.7 -42.1,-86.2 -79.5,-175.2 -134.3,-254.4 -60.4,-94.3 -129,-187.4 -223,-250.6 -22.7,-13.4 -41.6,9.2 -54.2,25.2 -126.9,162.3 -208.5,355.3 -265.9,551.9 -151.6,-106.3 -313.1,-219.1 -502.8,-237.6 -54.2,193.4 -36.5,397.6 -2.1,592.8 -78.5,-11 -157.1,-23.7 -236.7,-20.2 -94.7,-4.6 -187.9,16.2 -277.5,44.8 l 0.3,2.2 c 28.8,187.4 125.2,357.1 235.4,508.5 -83.9,35.1 -168.5,69.8 -245.6,118.8 -78,41.8 -142.5,103.3 -201.2,168.6 96.1,157.1 256,259.1 412.3,348.5 14.4,23.2 -15.4,41.5 -26.1,59.4 -103.8,139.5 -199.1,290.6 -243.2,460.6 -2.8,16.3 -8.1,40.3 11.9,47.5 164.2,92 359.1,103.9 543.3,96.8 -24.4,144.8 -43.7,290.8 -45.7,437.8 -3.7,119 3.4,239 31.7,354.9 224.3,-2.6 423.5,-126.1 593.5,-261.6 41.1,167.2 99.3,330 166,488.7 66.4,158.4 147.2,311 244.8,452.6 140.8,-97.3 222,-256 289.3,-408.9 49.1,-101.2 75.1,-211 109.4,-317.5 146.8,173.5 307.3,335.5 480,483.2 M 6097.9,8072 c -50.4,-73.9 -100.8,-147.9 -143.1,-227 -44.9,-68.4 -75.5,-144.6 -115,-215.9 -42,68.9 -73.2,144.3 -122.1,209.1 -68.4,97 -144.9,189.4 -239.4,262.2 -59.3,-221.8 -90.7,-452.1 -81,-681.9 -16.7,5.2 -33,11.6 -48.1,20.3 -123.1,68.7 -260.5,109.9 -400.1,126.8 -15.9,2.6 -32,2.3 -47.9,-0.3 19.4,-60 30.8,-122.2 52,-181.6 36.8,-120.1 91.5,-233.8 154.8,-342.1 -129.8,-6.9 -257.5,-37.6 -379.3,-82.5 -32.9,-14.7 -69.3,-24 -97.1,-48 77.5,-82.5 158.3,-163.8 255.1,-223.8 39.8,-27.7 83.9,-48.3 123.7,-75.9 -137.7,-89.4 -257.5,-204.5 -359.3,-333 12.4,-6.7 25,-13.8 39,-17.3 88.4,-22.8 178.1,-44.4 269.7,-47.3 48.7,-0.9 97.5,0.4 146.2,0.9 -28.2,-64.5 -66,-124.4 -90.5,-190.6 -34.2,-91.9 -74.2,-184.6 -83,-283 125.8,20.6 246.1,67.3 357.6,128.5 28,16.9 55.4,35 85.6,47.9 -4.4,-129.7 -3.7,-260.9 23.7,-388.4 10.2,-46.3 14.6,-94.7 34.5,-138.3 39.3,32.2 76.8,66.7 111.8,103.5 90,84.7 158.7,189.1 220.6,295.3 25.3,-25.2 35.5,-60.5 53.1,-90.8 74.1,-136.1 166,-263 275.1,-373.1 14.6,-15.5 24.2,10.7 28.3,21.5 58.3,168.5 100.3,345.8 94.1,525.1 2.7,2.7 8.1,8.1 10.8,10.8 185.5,-125.3 394.9,-211.8 609.9,-272.1 2.6,45.4 -12.5,88.8 -22.5,132.3 -26.6,112.6 -70.3,220.3 -118.8,325.1 -24.7,52.6 -59,100.1 -82.9,152.9 267.5,-17.3 535.9,21.4 795.2,86 -3.3,9.8 -8,18.9 -16.2,25.2 -167.8,162.5 -364.7,297.4 -582.4,383.3 6.3,18.2 25.3,24.3 40.5,33.1 214.1,109.1 411.3,249.3 591.8,407.3 33.7,27.2 70.7,51.5 96.5,86.9 -194.6,30.1 -392.9,41.1 -589.4,24.4 -82.5,-2.8 -163.3,-22 -245.5,-27.6 15.2,32.1 36.9,60.2 57.2,89.1 50.2,75.7 98.3,153.1 136.7,235.5 54.8,98.2 101.5,200.9 142.5,305.6 15.9,49.7 42.2,96.6 48.3,149 -113.7,-49.9 -227.2,-101.1 -335.4,-162.4 -146.9,-84.1 -291.9,-173.5 -419.8,-285 -4.2,39.6 2.4,79 6.7,118.2 11.7,187.2 1,376.5 -38.8,560 -3.7,21.2 -7.4,42.8 -19.2,61.1 -66.3,-75.8 -121.8,-160 -184.2,-239"
         style="fill:#02aae8;fill-opacity:1;fill-rule:nonzero;stroke:none"
         id="path14" />
      <path
         d="m 6097.9,8072 c 62.4,79 117.9,163.2 184.2,239 11.8,-18.3 15.5,-39.9 19.2,-61.1 39.8,-183.5 50.5,-372.8 38.8,-560 -4.3,-39.2 -10.9,-78.6 -6.7,-118.2 127.9,111.5 272.9,200.9 419.8,285 108.2,61.3 221.7,112.5 335.4,162.4 -6.1,-52.4 -32.4,-99.3 -48.3,-149 -41,-104.7 -87.7,-207.4 -142.5,-305.6 -38.4,-82.4 -86.5,-159.8 -136.7,-235.5 -20.3,-28.9 -42,-57 -57.2,-89.1 82.2,5.6 163,24.8 245.5,27.6 196.5,16.7 394.8,5.7 589.4,-24.4 -25.8,-35.4 -62.8,-59.7 -96.5,-86.9 -180.5,-158 -377.7,-298.2 -591.8,-407.3 -15.2,-8.8 -34.2,-14.9 -40.5,-33.1 217.7,-85.9 414.6,-220.8 582.4,-383.3 8.2,-6.3 12.9,-15.4 16.2,-25.2 -259.3,-64.6 -527.7,-103.3 -795.2,-86 23.9,-52.8 58.2,-100.3 82.9,-152.9 48.5,-104.8 92.2,-212.5 118.8,-325.1 10,-43.5 25.1,-86.9 22.5,-132.3 -215,60.3 -424.4,146.8 -609.9,272.1 -2.7,-2.7 -8.1,-8.1 -10.8,-10.8 6.2,-179.3 -35.8,-356.6 -94.1,-525.1 -4.1,-10.8 -13.7,-37 -28.3,-21.5 -109.1,110.1 -201,237 -275.1,373.1 -17.6,30.3 -27.8,65.6 -53.1,90.8 -61.9,-106.2 -130.6,-210.6 -220.6,-295.3 -35,-36.8 -72.5,-71.3 -111.8,-103.5 -19.9,43.6 -24.3,92 -34.5,138.3 -27.4,127.5 -28.1,258.7 -23.7,388.4 -30.2,-12.9 -57.6,-31 -85.6,-47.9 -111.5,-61.2 -231.8,-107.9 -357.6,-128.5 8.8,98.4 48.8,191.1 83,283 24.5,66.2 62.3,126.1 90.5,190.6 -48.7,-0.5 -97.5,-1.8 -146.2,-0.9 -91.6,2.9 -181.3,24.5 -269.7,47.3 -14,3.5 -26.6,10.6 -39,17.3 101.8,128.5 221.6,243.6 359.3,333 -39.8,27.6 -83.9,48.2 -123.7,75.9 -96.8,60 -177.6,141.3 -255.1,223.8 27.8,24 64.2,33.3 97.1,48 121.8,44.9 249.5,75.6 379.3,82.5 -63.3,108.3 -118,222 -154.8,342.1 -21.2,59.4 -32.6,121.6 -52,181.6 15.9,2.6 32,2.9 47.9,0.3 139.6,-16.9 277,-58.1 400.1,-126.8 15.1,-8.7 31.4,-15.1 48.1,-20.3 -9.7,229.8 21.7,460.1 81,681.9 94.5,-72.8 171,-165.2 239.4,-262.2 48.9,-64.8 80.1,-140.2 122.1,-209.1 39.5,71.3 70.1,147.5 115,215.9 42.3,79.1 92.7,153.1 143.1,227 m -258.8,-461.7 c -71.6,-159.6 -120.4,-330.1 -136,-504.7 -61.4,92.2 -133.9,177.8 -223.1,244.3 -25.3,17.5 -47.5,41.4 -77.8,50.1 6.1,-129 31.1,-257.8 78.9,-378 7.1,-20.4 15.9,-40.4 28.9,-57.8 -5.9,1 -17.9,3.1 -23.9,4.1 -115.6,50.3 -243.1,74 -369.1,68.3 68.7,-108.8 157.3,-208 267.3,-276.2 1.1,-3.5 3.3,-10.3 4.5,-13.7 -131.3,-16.2 -256.6,-66.6 -368.8,-135.5 116.8,-51.9 242.7,-88 371.4,-86.7 -4.9,-6.2 -10.3,-12 -16.1,-17.3 -102.6,-78.6 -188.7,-177.5 -257.3,-286.8 133.4,8.9 262.6,53.4 379.7,116.8 -65.2,-125.3 -105.7,-264.8 -114.6,-405.8 116,78.3 218.5,178.8 292.3,298.2 3.7,-143.9 36.3,-286.3 92.4,-418.6 3,1.7 9,5.3 12,7 62.6,129.8 110,268.9 119.9,413.5 78.4,-131.8 189,-244.3 314.7,-331.5 -0.9,153.8 -35.7,307.7 -101.3,446.9 151.8,-72.7 318.6,-112.1 486.4,-121.4 -89.5,137.1 -209.4,254.6 -350.2,338.4 184,15.6 362.7,73.6 528.6,153 0.4,2.1 1.2,6.4 1.6,8.6 -163.2,63 -338.7,96.8 -513.8,90.8 165.8,109 301.5,256.7 423.1,411.8 -152.8,-24.9 -300.8,-77.2 -439,-146.3 -33.7,-15.4 -63.4,-38.6 -98.6,-50.5 89,162.6 146.7,343.3 169,527.2 -146.9,-120.9 -277.1,-263.3 -377.3,-425.4 -5.1,163.5 -35.2,327.9 -103.8,477.2"
         style="fill:#006fb8;fill-opacity:1;fill-rule:nonzero;stroke:none"
         id="path16" />
      <path
         d="m 2141.4,3675.5 c 105.9,51.1 210.2,105.3 315.8,156.9 0.8,-347.5 0,-694.9 0.3,-1042.4 0.2,-51.5 -3.3,-105.4 17.3,-153.9 26.4,-71.9 90.5,-128.1 165.1,-145.3 42.6,-9.9 86.6,-4.6 129.9,-5.7 52.9,0.7 108.6,-6.1 158.3,16.6 35.9,14.8 61.6,45 88.5,71.7 128.8,138 253.7,279.6 382.9,417.2 54.3,61.7 129.1,104.9 210.1,119.7 95.2,15.8 192,-23.9 264.1,-84.6 37.3,-33.4 73.4,-68.1 108.4,-103.9 44.7,-44.6 94,-85.2 132.4,-135.7 80.8,-105.4 108.2,-248.9 73.3,-376.9 -28.8,-112.9 -107,-211.3 -208,-268.6 C 3858,2071.8 3703,2066 3577,2127.1 c -88.6,38.9 -149.1,117.2 -217.4,182.4 -26.7,27.1 -53.8,53.6 -80.7,80.4 -22.3,-23 -43.7,-47 -64.6,-71.3 -95.6,-106.9 -241.7,-163.3 -384.3,-153.6 -128.5,6.2 -263.2,-19.2 -385.8,30.9 -176.8,65.2 -304.6,244.8 -304.8,433.7 1.7,348.6 -2.4,697.3 2,1045.9 m 1482.1,-930.7 c -40.8,-14.9 -63.8,-55.2 -94.4,-83.7 -9.2,-13.4 -33.2,-24.8 -25,-43.9 59.8,-61.6 121.6,-121.3 181.7,-182.6 50.6,-47 140.6,-36.3 176.9,23 28.8,41 26.3,100.8 -7.2,138.4 -31.1,35.4 -66.6,66.7 -99,100.9 -33.7,34.3 -83.6,64 -133,47.9 m 733.8,928.1 c 107.3,51.3 211.5,109.2 320.3,157.1 -0.4,-370.1 -0.4,-740.1 0,-1110.1 -1.6,-120.6 101.3,-231.4 222.6,-234.8 586.1,0.2 1172.3,-0.7 1758.4,0.5 3.1,-106.9 2.5,-214.1 0.4,-321.1 -616.3,1.4 -1232.7,0 -1849.1,0.7 -179,5.9 -347.6,124.8 -414.6,290.7 -26.2,61.1 -37.7,127.7 -37.9,193.9 -0.2,341 0.1,682 -0.1,1023.1 m 4598.5,0.5 c 107.1,51.4 211.9,108 319.9,157.5 -1.7,-367 -0.3,-734.1 -0.7,-1101.1 -5.6,-102.1 64.4,-202.3 161.6,-233.3 42.6,-16.1 88.8,-10.9 133.4,-11.4 271.6,-0.2 543.2,0.3 814.8,-0.3 0.8,-106.6 0,-213.3 0.3,-319.9 -288.5,0.5 -577,0 -865.5,0.2 -67.3,0.8 -135.7,-5.2 -201.4,12.7 -107.6,23.8 -199.8,91.4 -269.4,174.9 -86,-70.5 -181.8,-131.9 -290.3,-160.7 -115.9,-37.2 -238.7,-25 -358.3,-26.9 -475.1,-0.1 -950.2,0.2 -1425.3,-0.2 0.1,106.7 -0.4,213.4 0.2,320 534.8,0.4 1069.6,0 1604.4,0.2 104.4,2.2 208.3,50.9 272.9,133.7 72.2,86.2 97.2,201.6 102.4,311.4 0.8,247.7 -1.1,495.5 1,743.2 m 1585.2,1.2 c 106.5,51.2 212.2,104.3 317.4,158.1 4.9,-374.3 0.1,-748.8 2.4,-1123.2 2.6,-116.1 103.1,-219.5 219.4,-224.2 243.2,-0.5 486.5,0 729.8,-0.2 V 2165 c -270.2,0.1 -540.4,0.2 -810.5,-0.1 -192.4,2.6 -372.3,137.6 -432.9,319.4 -36.2,98 -25.4,203.7 -26.9,305.9 0.9,294.8 -1.8,589.6 1.3,884.4 M 1585.1,3451.4 c 105.8,53.8 211,108.7 317.9,160.3 -1,-254 -0.3,-508.1 -0.5,-762.1 -5.1,-179.3 -83.2,-355 -211.6,-480.1 -110.2,-109.4 -257.2,-180.6 -411.2,-199.8 -52.9,-6.9 -106.2,-4.3 -159.3,-4.6 -176.798,0 -353.599,0 -530.4,0 -85.102,1.2 -172.398,-8 -254.602,19.6 C 154,2237.6 16.8984,2407.6 0,2595.4 v 683.1 c 106.801,50.6 211.301,106 317.699,157.3 0,-238.4 -0.898,-476.8 0.403,-715.2 -1.301,-120.5 100.597,-231.9 222.199,-235.5 200,-0.2 400,0.1 599.999,-0.1 43.7,0.2 87.9,-2.6 130.8,7.7 132.9,27.7 248.2,128.6 291,257.9 21.4,57.3 23.9,119.2 23.1,179.8 -0.3,173.7 -0.1,347.3 -0.1,521 m 6345.9,38.2 c 63.5,29.8 124.2,66.4 189.8,91.5 -0.3,-61.7 -1.1,-123.4 0.5,-185.1 -63.6,-31.5 -126.1,-65.1 -190.9,-93.8 58,-0.5 123.3,-1.2 168.8,-42.9 83.9,-72.4 67.9,-225.4 -29.5,-278.9 -88.3,-45 -177,-89.8 -267.3,-130.4 0.4,62 -0.2,124 0.5,185.9 64,29.1 124.5,65.8 190.1,91.4 -56,1.6 -118.9,2.1 -163.6,41 -79.6,60.3 -80.3,194.4 -5.7,258.9 28.7,31.2 71.7,41.3 107.3,62.4 M 926.699,3425.5 c 9.199,12.5 25.403,8.6 38.801,9.7 71.9,-71.3 143.3,-143.2 215,-214.8 17.1,-15.4 10.1,-42.2 -6,-55.5 -62.1,-61.5 -124.1,-123.1 -185.398,-185.4 -10.301,-12.2 -25,-18.4 -39.102,-25.2 -14.102,7 -28,14.9 -38.5,26.8 -61.199,62.3 -123.398,123.5 -185,185.4 -18,14.6 -19.301,43.6 -0.801,58.3 66.903,67 133.602,134.2 201,200.7 m 8958.401,0.1 c 8.7,12.4 24.4,8.5 37.5,9.9 71.6,-69.5 142,-140.2 211.9,-211.3 18.4,-14.9 14.9,-42.8 -1.7,-57.6 -66.1,-67.1 -132.2,-134.2 -200.1,-199.4 -5.7,-3 -17.1,-9 -22.8,-12 -30.6,8 -48.3,35 -69.8,55.6 -51.7,51.5 -103.1,103.4 -155.1,154.6 -16.2,13.3 -23.3,40.6 -5.5,55.6 69.2,67.5 136.6,136.9 205.6,204.6 M 11237.8,1925 c 13.5,1.1 29.9,5.2 40.9,-6 52.1,-48 100.4,-100.1 151.4,-149.5 21,-22.8 46,-42.3 62.9,-68.7 4.2,-15.4 -0.2,-31.5 -13.2,-41.2 -67.9,-65.2 -132.9,-133.3 -200.4,-198.9 -13.8,-14.1 -36.1,-15.3 -49.3,0.2 -66.6,66.4 -133.2,132.9 -199.5,199.5 -16.5,12.6 -19.7,38.4 -3.6,52.5 68.9,72 141.1,140.8 210.8,212.1 M 1086,976.398 c 42.5,133.802 173.3,233.402 313.9,237.702 150.8,2.1 301.6,0.2 452.4,0.9 -56.9,-60.7 -117.1,-118.2 -175.6,-177.3 -89.1,-0.5 -178.1,0.2 -267.2,-0.4 -65.8,-0.3 -126.5,-45.499 -151.6,-105.3 -30.7,-71 -5.6,-161.699 58.8,-205.102 67.3,-49.699 155.7,-27 233.2,-31.898 112.8,7.5 231,-32.602 304,-121.398 101,-114.301 111.7,-296.903 24.3,-422 C 1822.8,67.5 1728.8,11.8984 1629.1,0 h -474.3 c 0,58.6016 -0.3,117.102 0.4,175.5 144.9,-1.199 289.7,-0.398 434.5,-0.602 85.6,-2 164.2,69.704 170.9,154.801 11.7,90.199 -61.2,179.602 -151.7,187 -76.3,3.5 -152.9,-2.898 -229.1,3.602 -85.9,7.597 -167.3,50.597 -224.1,115.199 -82.4,90.102 -108.3,225.602 -69.7,340.898 M 9832.6,309.699 c 0.4,301.199 -0.7,602.403 0.5,903.501 59.8,-0.9 119.7,-0.7 179.5,-0.1 -0.2,-241.299 0.1,-482.6 -0.1,-723.901 155,155.5 310.2,310.801 465.8,465.699 82.6,0 165.2,1.204 247.8,-0.5 -153.6,-158.796 -313.8,-311.199 -466.6,-470.597 162.2,-160.5 323,-322.5 484.5,-483.801 h -250 c -160.9,159.699 -320.2,321.102 -481.5,480.398 0.2,-160.097 0,-320.296 0,-480.398 h -177.8 c -4.9,103.102 -0.7,206.5 -2.1,309.699 M 6773.4,0 c -1.7,397.602 -1.5,795.398 -0.1,1193 145.5,-1.1 291,0.2 436.5,-0.5 105.8,-1.7 207.9,-57.3 267.8,-144.4 88.6,-120.901 81,-299.799 -15.1,-414.401 62.8,-44.097 118.4,-103.301 142.4,-177.5 42,-113.097 17.8,-248.097 -62.2,-338.597 C 7487.1,52.3008 7406.7,9.69922 7321.4,0 h -548 m 171.4,1019.1 c 0.6,-111.901 0.6,-223.799 -0.1,-335.702 88.4,-1.5 177,-1.097 265.5,-0.5 91.8,4.801 167.7,95.301 155.7,186.5 -8.1,81.704 -83,150.002 -165.1,150.102 -85.4,0.1 -170.7,0.4 -256,-0.4 m 0,-509.998 c 0.7,-112.102 0.2,-224.204 0.2,-336.301 115.1,-0.301 230.2,0 345.3,-0.301 76.7,1.199 145.7,62.102 158.9,137.199 20.9,96.403 -60.1,197.903 -158.7,199.102 -115.3,1.301 -230.5,0.699 -345.7,0.301 m -4620,445.597 c 111.9,0.801 223.7,0.301 335.6,0.403 67.8,1 137.9,-19.602 187.9,-67.102 56.5,-49 87.8,-123.5 86.7,-198 0.3,-230 0,-460 0.1,-690 h -599.2 c -79.2,9.10156 -154.2,50.5 -203.6,113.102 -92.3,110.597 -87.8,288.699 11.5,393.5 56.4,64.097 140.5,102.199 226,100.898 129.9,-0.199 259.8,0.699 389.6,-0.602 0.3,33.301 1.7,68.102 -13.6,98.602 -19.6,44.102 -67,72.898 -114.9,72 -160,-0.199 -319.9,0 -479.9,0 55.4,61.602 116.9,117.102 173.8,177.199 M 2329.3,425 c -51.4,-17.801 -90.2,-70.301 -87.1,-125.398 0.3,-66.403 60.2,-126.903 127.3,-124.704 129.8,0.301 259.7,-0.699 389.6,0.602 0.5,86 1.2,172 -0.2,257.898 -109.6,-2.097 -219.2,-0.398 -328.8,-1 -33.7,-0.597 -68.3,3.102 -100.8,-7.398 m 948.9,529.898 c 254.1,0.5 508.2,-0.097 762.3,0.301 44.6,0 90.8,-4.801 131.1,-25.699 87,-40.602 148.3,-132.5 148.6,-229.102 0.4,-233.5 0,-466.898 0.1,-700.398 L 4145,0 c 0.1,200.102 -0.2,400.199 0.2,600.301 -0.1,36.597 3.4,75.801 -15.7,108.801 -21.3,39.199 -63.6,69.398 -109.3,68.296 -73.1,0.403 -146.2,-0.296 -219.3,0.204 C 3799.8,518.398 3800.7,259.199 3800.4,0 h -175.5 c 0.1,259.102 -0.3,518.102 0.2,777.102 -114.8,0.699 -229.6,-0.102 -344.4,0.5 C 3279.9,518.398 3280.6,259.199 3280.3,0 H 3105 c 0.1,260.699 0.1,521.5 0,782.199 57.6,57.699 115.2,115.403 173.2,172.699 m 1446.6,-0.199 c 115.2,0.602 230.4,0.699 345.5,0.102 62.8,0.5 126.4,-19.102 174.6,-60.199 63.7,-51.204 96.8,-133.602 95.1,-214.5 0.8,-226.704 0.1,-453.403 0.3,-680.102 h -596.9 c -143,11.5 -264,136.199 -272.9,279.102 -16.9,161.898 117,320.097 280.1,327.699 137.4,1.699 274.9,0.398 412.3,0.597 -0.5,33.903 3,70.204 -14.6,100.704 -21.3,43.398 -68.9,72 -117.3,69.398 -158.3,-0.199 -316.6,0 -474.9,0 53.1,62 112.5,118.102 168.7,177.199 m -75.6,-625.801 c -19.3,-74.097 45.5,-153.898 121.3,-153.699 130.8,-0.097 261.6,-1.301 392.4,0.699 -0.6,85.602 -0.2,171.204 -0.1,256.801 -127.7,-0.597 -255.3,-0.097 -382.8,-0.301 -60.8,1.5 -119.9,-42.898 -130.8,-103.5 m 1034.7,626.301 c 121.9,-0.301 243.8,0 365.7,0 58.8,0.301 120.2,2.5 174.9,-23 89.2,-39.801 154.1,-133.301 153,-232 0.2,-233.398 -0.1,-466.801 0.1,-700.199 h -174.8 c -0.5,216.5 0.2,433.102 -0.3,649.602 0.6,65.398 -56.1,127.398 -122.3,127.597 -131.8,0.602 -263.7,-0.097 -395.5,0.199 0.9,-259.097 0.1,-518.296 0.4,-777.398 h -176 c 2,259.602 -2.8,519.602 2.3,779 53.6,62.102 116,116.602 172.5,176.199 m 2320.9,-9.398 c 11,13.699 29.9,7.801 45.1,9.398 110,-1.199 220,1.903 330,-1.5 130.7,-5.699 241.9,-123.699 242.6,-254 0.1,-233.199 0,-466.5 0,-699.699 h -598.4 c -101.1,10.5 -194.3,75.3008 -238.8,166.602 -46.1,92.398 -42.7,209.5 13.7,296.796 53,89.903 156.8,146.102 260.9,144.301 129,-0.801 258,0.903 386.9,-0.898 2.3,41.699 -0.1,86.801 -26.7,121.199 -24.4,29 -60.7,50.898 -99.5,49.398 -161.2,0.301 -322.4,-0.597 -483.5,0.602 56,55.898 111.6,112.199 167.7,167.801 M 7930.3,299.398 C 7928.5,231.199 7992.6,171.801 8060,175 c 129.1,0.199 258.3,-0.801 387.4,0.602 -0.9,86 2.1,172 -1.5,257.898 -131.8,-2.699 -263.7,0.398 -395.5,-1.699 -66.5,-3 -125.1,-65.301 -120.1,-132.403 m 1034.5,655.403 c 142,0.5 283.9,0.398 425.9,0.199 65,0.898 131.2,-19.898 180.3,-63.398 57.7,-49.704 91.9,-125.204 91.2,-201.5 0.7,-230 0.2,-460.102 0.2,-690.102 h -177.2 c 0,216.602 0,433.102 0,649.699 2.5,67.602 -57.3,127.903 -124.4,127.602 -131.3,0.301 -262.5,-0.102 -393.8,0.097 0.9,-259.097 0,-518.296 0.5,-777.398 h -173 c -3.8,261.102 -1.8,522.398 -1,783.602 57.8,56.296 114.9,113.398 171.3,171.199"
         style="fill:#024b8f;fill-opacity:1;fill-rule:nonzero;stroke:none"
         id="path18" />
    </g>
  </g>
</svg>
