<?xml version="1.0" encoding="UTF-8" standalone="no"?>
<!-- Created with Inkscape (http://www.inkscape.org/) -->

<svg
   version="1.1"
   id="svg2"
   width="266.33334"
   height="131"
   viewBox="0 0 266.33334 131"
   sodipodi:docname="Samen-logo.eps"
   xmlns:inkscape="http://www.inkscape.org/namespaces/inkscape"
   xmlns:sodipodi="http://sodipodi.sourceforge.net/DTD/sodipodi-0.dtd"
   xmlns="http://www.w3.org/2000/svg"
   xmlns:svg="http://www.w3.org/2000/svg">
  <defs
     id="defs6" />
  <sodipodi:namedview
     id="namedview4"
     pagecolor="#ffffff"
     bordercolor="#000000"
     borderopacity="0.25"
     inkscape:showpageshadow="2"
     inkscape:pageopacity="0.0"
     inkscape:pagecheckerboard="0"
     inkscape:deskcolor="#d1d1d1" />
  <g
     id="g8"
     inkscape:groupmode="layer"
     inkscape:label="ink_ext_XXXXXX"
     transform="matrix(1.3333333,0,0,-1.3333333,0,131)">
    <g
       id="g10"
       transform="scale(0.1)">
      <path
         d="m 759.391,403.293 c 0.496,-2.508 0.316,-5.25 -0.563,-8.254 -0.875,-3.004 -2.312,-6.371 -4.308,-10.117 -1.825,-3.672 -4.379,-7.039 -7.622,-10.121 -2.171,-1.996 -3.875,-3 -5.117,-3 -0.75,0 -2.468,1.082 -5.125,3.254 -2.656,2.156 -5.109,4.16 -7.308,6 -2.215,1.82 -4.114,3.492 -5.68,4.984 -1.516,1.512 -2.266,2.754 -2.266,3.75 4.844,10.754 8.133,17.746 9.875,20.992 1.922,3.246 4.801,8.035 8.625,14.371 2.239,-1.832 5.039,-4.039 8.375,-6.629 3.328,-2.582 5.883,-4.988 7.668,-7.25 1.809,-2.246 2.946,-4.906 3.446,-7.98 z m 61.093,28.977 c -2.246,-26.739 -7.492,-50.637 -15.722,-71.707 -5.516,-13.997 -12.543,-27.122 -21.129,-39.372 -20.235,-27.398 -44.567,-41.23 -72.969,-41.468 -14.742,0.664 -26.422,5.515 -35.043,14.55 -8.629,9.043 -13.172,21.629 -13.687,37.797 -0.079,25.485 8.304,53.129 25.117,82.957 3.246,5.993 5.179,7.911 5.82,5.754 0.609,-2.164 0.547,-4.375 -0.199,-6.633 -11.078,-21.98 -16.734,-40.972 -16.984,-56.964 0.574,-12.496 4.972,-21.84 13.175,-28.047 8.203,-6.211 18.719,-9.364 31.551,-9.434 16.242,0 31.859,4.285 46.856,12.871 11.16,7.485 20.101,16.824 26.855,27.989 10.238,15.566 14.793,37.058 13.617,64.464 -0.074,3.586 -0.429,7.153 -1.066,10.743 -0.602,3.57 -1.016,7.164 -1.188,10.746 0,3.91 1.075,6.754 3.203,8.496 2.11,1.758 4.637,2.375 7.555,1.875 5.242,-2.418 6.66,-10.621 4.238,-24.617"
         style="fill:#0f8573;fill-opacity:1;fill-rule:nonzero;stroke:none"
         id="path12" />
      <path
         d="m 815.996,429.262 c -4.242,2.84 -5.746,8.101 -4.496,15.816 1.242,7.703 2.824,11.598 4.746,11.676 2.742,-0.578 6.25,-0.914 10.496,-0.996 4.235,-0.09 8.113,0.75 11.617,2.5 3.336,1.918 6.114,4.867 8.364,8.855 l 6.257,10.254 c 1.817,2.754 4.333,6.086 7.489,9.996 2.59,3.328 4.875,5.629 6.886,6.871 0.418,0.5 1.231,1.762 2.5,3.754 1.239,2 2.989,4.75 5.235,8.246 1.758,2.746 2.793,4.118 3.125,4.118 3.418,-3.086 5.867,-5.364 7.383,-6.868 4.824,-5.75 7.234,-11.086 7.234,-15.996 0,-2.824 -0.535,-5.629 -1.621,-8.367 -1.016,-3.004 -2.344,-5.582 -3.992,-7.75 -1.496,-2.25 -3.176,-3.738 -5.012,-4.496 -1.914,-0.586 -3.484,-0.875 -4.746,-0.875 -2.578,0 -5.066,0.168 -7.488,0.5 -2.493,0.418 -3.989,0.613 -4.504,0.613 -5.086,0 -9.746,-3.191 -14.004,-9.609 -2.902,-4.328 -5.481,-8.461 -7.735,-12.375 -2.992,-5.086 -6.371,-8.984 -10.121,-11.738 -2.332,-1.922 -5.296,-3.192 -8.867,-3.813 -3.582,-0.625 -6.504,-0.726 -8.746,-0.316"
         style="fill:#0f8573;fill-opacity:1;fill-rule:nonzero;stroke:none"
         id="path14" />
      <path
         d="m 967.168,538.711 c 0,1.262 2.324,6.754 6.941,16.504 4.614,9.746 7.688,14.695 9.184,14.859 3.477,0 7.352,-2.113 11.609,-6.367 4.258,-4.746 6.388,-9.332 6.388,-13.746 0,-4.082 -2.005,-9.734 -5.958,-16.981 -3.926,-7.257 -6.836,-10.875 -8.672,-10.875 -1.172,0 -3.68,1.708 -7.558,5.122 -3.875,3.421 -6.836,5.875 -8.868,7.375 -2.031,1.496 -3.066,2.863 -3.066,4.109 z m -17.102,-46.469 c 0,1.492 2.649,7.137 7.993,16.934 5.32,9.777 8.629,14.762 9.871,14.926 1.992,0 5.129,-1.813 9.441,-5.43 4.277,-3.633 7.16,-7.055 8.652,-10.313 2.778,4.496 5.403,8.871 7.895,13.121 3.648,5.997 5.906,8.993 6.732,8.993 3.01,0 6.85,-2.121 11.51,-6.371 4.51,-4.75 6.74,-9.122 6.74,-13.118 0,-4.582 -2.23,-10.332 -6.74,-17.25 -4.66,-6.57 -8,-9.867 -10,-9.867 -1.59,0 -3.879,1.539 -6.867,4.625 -4.18,4.403 -7.625,7.621 -10.371,9.621 -6.824,-13.992 -12.227,-20.984 -16.121,-20.984 -0.821,0 -4.192,2.301 -9.992,6.934 -5.848,4.621 -8.743,7.343 -8.743,8.179 z m -27.007,-75.711 c -0.403,-15.078 2.476,-24.691 8.629,-28.855 3.324,-2.254 6.671,-3.004 10.05,-2.254 3.36,0.738 5.977,2.5 7.813,5.254 1.836,2.738 3.371,5.972 4.629,9.676 1.25,3.707 2.414,5.55 3.508,5.55 1.414,0 2,-1.324 1.753,-4 -0.195,-4.48 -1.582,-11.8 -4.253,-21.918 -2.676,-10.125 -6.333,-18.429 -10.942,-24.933 -4.598,-6.496 -10.262,-9.91 -16.922,-10.238 -6.758,0.25 -11.992,4.039 -15.742,11.375 -3.34,7.246 -4.883,16.617 -4.641,28.113 0.247,8.41 1.411,21.859 3.442,40.347 2.051,18.493 4.762,38.274 8.191,59.352 1.992,6.168 6.016,16.992 12.11,32.492 0.671,1.488 1.336,2.117 1.992,1.86 0.683,-0.243 0.996,-0.868 0.996,-1.86 -0.313,-7.679 -1.848,-22.25 -4.602,-43.738 -2.754,-21.492 -4.754,-40.231 -6.011,-56.223"
         style="fill:#0f8573;fill-opacity:1;fill-rule:nonzero;stroke:none"
         id="path16" />
      <path
         d="m 1196.51,496.988 c -0.5,-3.156 -1.28,-6.203 -2.31,-9.105 -1.06,-2.922 -2.78,-7.016 -5.25,-12.246 -2.45,-5.262 -3.94,-8.258 -4.44,-9 -1.98,-3.176 -3.73,-4.75 -5.23,-4.75 -1.08,0.746 -2.08,1.476 -2.94,2.179 -0.89,0.707 -1.69,1.063 -2.44,1.063 -3.18,0 -7.32,-1.289 -12.44,-3.867 -5.1,-2.578 -10.75,-6.692 -16.85,-12.301 -6.15,-5.637 -10.89,-10.879 -14.31,-15.746 -3.43,-4.879 -5.15,-8.235 -5.15,-10.07 0,-2.747 0.89,-4.875 2.63,-6.36 1.52,-1.172 4.19,-2.508 8.07,-4.004 3.88,-1.508 6.44,-2.746 7.67,-3.754 4.09,-2.832 6.14,-8.453 6.14,-16.859 0,-11.582 -2.19,-24.844 -6.56,-39.789 -4.39,-14.957 -10.12,-27.926 -17.17,-38.926 -3.67,-5.078 -7.94,-10.191 -12.82,-15.301 -4.89,-5.129 -10.11,-9.523 -15.69,-13.191 -10.73,-7.074 -23.1,-10.606 -37.09,-10.606 -15.91,0.247 -27.99,5.606 -36.23,16.114 -3.75,5.332 -6.33,10.996 -7.75,16.98 -1.43,6.004 -2.12,11.707 -2.12,17.129 0,6.828 0.5,13.531 1.5,20.11 1,6.574 2.54,13.164 4.62,19.738 3.25,10.75 7.19,21.121 11.82,31.109 4.6,9.996 8.38,18.078 11.29,24.246 l 8.75,18.75 c 0.99,2.074 2.06,4.11 3.18,6.117 1.12,1.989 2.15,2.997 3.08,2.997 1.24,0 1.87,-1.008 1.92,-2.997 0.05,-2.007 -0.18,-3.5 -0.68,-4.507 -1.33,-3.575 -2.5,-6.594 -3.5,-9.055 -1.01,-2.453 -2.5,-6.004 -4.5,-10.613 -2,-4.633 -4.18,-9.629 -6.5,-14.993 -2.34,-5.382 -4.25,-9.816 -5.76,-13.312 -7.3,-19.492 -10.97,-34.117 -10.97,-43.855 0,-10.247 3.62,-18.372 10.91,-24.372 7.3,-5.996 17.57,-9 30.82,-9 10.97,0 21.62,2.602 31.84,7.758 7.67,3.84 14.05,8.496 19.18,13.989 5.13,5.496 9.02,10.66 11.68,15.492 2.66,4.832 3.98,9.168 3.98,12.992 0,2.422 -1.75,4.191 -5.27,5.324 -3.57,1.121 -6.13,1.863 -7.71,2.234 -1.58,0.383 -3.37,1.071 -5.36,2.071 -3.83,1.824 -6.73,4.16 -8.76,7.008 -1.98,2.82 -2.97,6.66 -2.97,11.472 0,7.422 2.37,16.809 7.16,28.188 4.79,11.367 11.56,22.551 20.3,33.543 7.17,8.996 13.68,16.281 19.5,21.863 3.16,2.922 7.19,6.195 12.05,9.867 4.87,3.664 9.6,6.836 14.2,9.492 5.65,3.254 10.12,5.129 13.35,5.629 1.34,0 2.26,-0.562 2.75,-1.683 0.51,-1.121 0.63,-2.184 0.38,-3.192"
         style="fill:#0f8573;fill-opacity:1;fill-rule:nonzero;stroke:none"
         id="path18" />
      <path
         d="m 1252.56,442.016 c -0.18,-3.34 -1.49,-9.438 -3.88,-18.293 -2.4,-8.875 -5.6,-18.567 -9.57,-29.051 -3.96,-10.496 -7.43,-18.438 -10.44,-23.809 -2.99,-5.375 -6.25,-9.476 -9.79,-12.308 -3.56,-2.836 -9.29,-5.391 -17.26,-7.688 -7.93,-2.281 -14.32,-3.847 -19.09,-4.683 -4.81,-0.829 -7.82,-1.243 -9.09,-1.243 -1.24,0.164 -2,0.684 -2.24,1.559 -0.24,0.879 0.14,1.984 1.13,3.313 1.33,2.164 4.78,4.953 10.37,8.367 5.58,3.414 12.07,7.726 19.43,12.933 7.37,5.211 12.63,9.746 15.75,13.621 3.13,3.864 6.63,9.684 10.55,17.422 3.91,7.754 7.48,15.559 10.68,23.426 3.22,7.875 5.51,13.242 6.89,16.129 1.35,2.863 2.85,4.223 4.44,4.055 1.38,-0.243 2.12,-1.496 2.12,-3.75"
         style="fill:#0f8573;fill-opacity:1;fill-rule:nonzero;stroke:none"
         id="path20" />
      <path
         d="m 1285.29,415.395 c -0.24,-4.665 -0.75,-8.915 -1.51,-12.793 -0.73,-3.868 -1.78,-7.137 -3.06,-9.813 -1.3,-2.656 -2.88,-4.664 -4.8,-5.996 -1.92,-1.324 -4.26,-1.793 -7,-1.371 0.16,9.746 1.21,23.332 3.13,40.789 1.9,17.445 4.81,36.711 8.73,57.789 2.01,6.168 6.06,16.992 12.14,32.492 0.63,1.488 1.31,2.117 1.98,1.86 0.66,-0.243 1.01,-0.868 1.01,-1.86 -0.35,-7.679 -1.88,-22.25 -4.63,-43.738 -2.76,-21.492 -4.43,-36.234 -5.07,-44.231 -0.6,-7.996 -0.92,-12.371 -0.92,-13.128"
         style="fill:#0f8573;fill-opacity:1;fill-rule:nonzero;stroke:none"
         id="path22" />
      <path
         d="m 1282.42,282.242 c 0,2.754 2.19,8.5 6.6,17.235 4.42,8.75 7.29,13.457 8.62,14.121 2.67,1.168 6.48,-0.895 11.43,-6.192 4.97,-5.289 7.61,-9.426 7.96,-12.426 0,-3.917 -2.1,-9.593 -6.26,-17.05 -4.16,-7.446 -7.18,-11.184 -9.01,-11.184 -0.74,0 -3.18,1.438 -7.35,4.313 -4.17,2.879 -7.3,5.136 -9.36,6.816 -1.78,1.496 -2.63,2.949 -2.63,4.367 z m 68.09,101.676 c -3.74,0.66 -6.6,0.66 -8.52,0 -6.48,-2.086 -13.16,-9.117 -19.96,-21.109 -7.43,-11.996 -15.66,-17.996 -24.75,-17.996 -9.25,0.082 -16.26,4.097 -20.99,12.058 -4.75,7.942 -7.21,17.465 -7.37,28.551 2.16,7.32 4.55,13.637 7.18,18.914 2.63,5.305 5.68,8.941 9.19,10.934 0,-12.489 3.04,-21.571 9.12,-27.223 4.66,-4.086 10.02,-6.121 16.12,-6.121 8.48,0 15.49,3.742 20.96,11.234 4.18,5.508 7.72,9.442 10.63,11.817 2.93,2.363 5.7,3.558 8.39,3.558 1.74,-0.508 2.79,-4.301 3.18,-11.367 0.37,-7.086 -0.68,-11.5 -3.18,-13.25"
         style="fill:#0f8573;fill-opacity:1;fill-rule:nonzero;stroke:none"
         id="path24" />
      <path
         d="m 1354.99,517.574 c 0,1.496 2.39,6.621 7.15,15.364 4.72,8.757 7.68,13.367 8.88,13.882 1.99,0.825 4.87,-0.59 8.66,-4.261 3.8,-3.664 6.65,-6.914 8.56,-9.743 2.32,3.829 4.92,8.129 7.78,12.872 2.9,4.75 4.84,7.16 5.83,7.242 2.84,0 6.28,-2.114 10.32,-6.375 4.05,-4.242 6.19,-8.239 6.44,-11.977 0,-4.433 -2.18,-9.676 -6.49,-15.746 -4.26,-5.996 -7.35,-8.996 -9.27,-8.996 -1.33,0 -3.68,1.684 -7.07,5.059 -3.35,3.371 -6.33,6.003 -8.91,7.933 -6.25,-12.75 -11.26,-19.117 -15.01,-19.117 -1,0 -2.33,0.742 -3.98,2.242 -1.67,1.418 -4.23,3.516 -7.69,6.313 -3.47,2.793 -5.2,4.566 -5.2,5.308 z m 31.26,-69.679 c 0.74,-7.336 3.07,-11.75 6.98,-13.243 1.24,-2.843 2.13,-5.812 2.63,-8.945 0.51,-3.117 0.73,-6.195 0.69,-9.242 -0.06,-3.031 -0.35,-5.906 -0.94,-8.613 -0.59,-2.719 -1.38,-5.024 -2.38,-6.946 -2.99,-0.164 -6.09,0.5 -9.25,2.008 -1,0.41 -5.4,-2.937 -13.18,-10.059 -7.78,-7.113 -14.53,-10.058 -20.29,-8.808 -0.82,1.832 -1.51,3.797 -2,5.875 -0.49,2.086 -0.8,4.176 -0.89,6.305 -0.07,2.128 0.09,4.238 0.5,6.324 0.42,2.066 1.22,4.07 2.39,5.984 2.08,0 4.43,-0.586 7.05,-1.754 2.63,-1.156 5.37,-1.847 8.23,-2.058 2.89,-0.207 5.41,0.773 7.56,2.933 0.85,0.59 1.52,1.508 2.02,2.758 -4.25,12.238 -3.25,24.938 3.01,38.102 2.16,3.586 3.89,5.375 5.23,5.375 1.18,0 2.03,-2.004 2.64,-5.996"
         style="fill:#0f8573;fill-opacity:1;fill-rule:nonzero;stroke:none"
         id="path26" />
      <path
         d="m 1398.98,433.891 c 0.9,0 2.04,1.429 3.37,4.257 1.65,3.497 3.33,7.09 4.97,10.813 1.68,3.695 3.48,7.457 5.39,11.305 1.77,3.992 4.29,8.113 7.64,12.367 4.91,5.66 10.15,8.5 15.71,8.5 3.04,0 5.85,-0.891 8.51,-2.625 2.58,-1.754 3.9,-4.211 3.9,-7.379 0,-4.84 -1.93,-7.242 -5.77,-7.242 -1.66,0 -3.49,0.547 -5.48,1.621 -2.08,1.172 -3.96,1.754 -5.65,1.754 -3.73,0 -6.74,-1.094 -8.97,-3.254 -2.78,-2.5 -4.56,-4.867 -5.37,-7.121 -1.18,-2.578 -1.76,-4.871 -1.76,-6.867 0,-6.665 3.83,-10.008 11.48,-10.008 3.02,0 5.65,0.593 7.87,1.761 2.26,1.082 4.67,3.7 7.27,7.875 1.24,1.993 2.55,4.047 3.93,6.18 1.39,2.125 2.8,4.309 4.29,6.559 0.76,0.996 1.63,1.5 2.64,1.5 0.49,0 0.88,-0.457 1.13,-1.371 0.25,-0.84 0.12,-1.832 -0.4,-2.996 -2.98,-6.59 -6.14,-13.133 -9.46,-19.625 -3.52,-6.915 -7.21,-12.625 -11.13,-17.118 -6.73,-8.25 -13.92,-14.125 -21.5,-17.621 -6.15,-2.828 -12.28,-4.25 -18.36,-4.25 -0.74,2.164 -1.49,4.543 -2.2,7.121 -0.7,2.582 -1.17,5.309 -1.43,8.184 -0.25,2.871 -0.13,5.859 0.38,8.941 0.49,3.078 1.57,6.254 3.25,9.5 1.85,-0.504 3.73,-0.761 5.75,-0.761"
         style="fill:#0f8573;fill-opacity:1;fill-rule:nonzero;stroke:none"
         id="path28" />
      <path
         d="m 1497.06,450.266 c -0.34,-9.082 -0.57,-17.223 -0.7,-24.43 -0.12,-7.199 -0.47,-13.301 -1.07,-18.301 -0.98,-10.738 -3.05,-20.265 -6.17,-28.551 -3.13,-8.293 -5.58,-13.812 -7.37,-16.55 -1.81,-2.746 -3.26,-4.754 -4.44,-5.996 -1.32,-1.258 -2.34,-1.672 -3.06,-1.258 -0.71,0.422 -0.98,1.133 -0.82,2.129 0,0.246 0.77,4.039 2.26,11.375 1.5,7.316 2.41,14.421 2.82,21.293 0.38,6.871 0.43,16.578 0.18,29.105 -0.25,12.551 0.04,22.141 0.88,28.813 0.5,3.824 1.34,7.832 2.48,12 1.17,4.164 2.54,8.21 4.07,12.168 1.56,3.953 3.16,7.734 4.81,11.304 1.68,3.586 3.21,6.75 4.64,9.5 1.15,1.75 2.13,2.438 2.99,2.059 0.82,-0.371 1.21,-1.059 1.12,-2.059 -0.18,-0.582 -0.35,-1.855 -0.56,-3.812 -0.2,-1.961 -0.44,-4.289 -0.62,-6.992 -0.21,-2.711 -0.4,-5.598 -0.59,-8.688 -0.15,-3.078 -0.29,-6.094 -0.43,-9.051 -0.11,-2.972 -0.21,-5.691 -0.31,-8.191 -0.06,-2.488 -0.11,-4.445 -0.11,-5.867"
         style="fill:#0f8573;fill-opacity:1;fill-rule:nonzero;stroke:none"
         id="path30" />
      <path
         d="m 1553.03,344.813 c -10.34,0.824 -19.89,-1.415 -28.61,-6.747 -1.03,-0.742 -1.95,-0.785 -2.84,-0.117 -0.85,0.664 -0.64,2.578 0.69,5.746 1.67,3.746 5.34,8.946 11.01,15.618 5.66,6.656 12.23,12.105 19.75,16.367 3.73,-10.762 3.73,-21.039 0,-30.867"
         style="fill:#0f8573;fill-opacity:1;fill-rule:nonzero;stroke:none"
         id="path32" />
      <path
         d="m 1677.58,392.789 -4.74,-3.75 c -4.74,-1.5 -7.06,-2.203 -6.87,-2.125 l -11.13,-7.621 c -3.58,-1.008 -7.49,-2.5 -11.73,-4.504 l -4.75,-3.742 c -3.01,-2.254 -5.06,-3.492 -6.14,-3.742 -1.9,-0.672 -3.4,-0.875 -4.48,-0.621 -3.51,0.242 -5.2,0.371 -5.13,0.371 -5.26,0 -8.93,-1.164 -10.98,-3.5 -3.77,-3.746 -6.93,-7.035 -9.52,-9.864 -2.58,-2.847 -6.12,-5.972 -10.68,-9.375 -4.54,-3.418 -9.37,-5.175 -14.48,-5.253 -5.15,-0.083 -10,0.816 -14.63,2.683 -4.62,1.875 -7.67,2.899 -9.19,3.067 -1.25,1.75 -2.24,3.953 -2.98,6.617 -0.75,2.664 -1.17,5.461 -1.24,8.379 -0.1,2.906 0.2,5.781 0.86,8.613 0.67,2.844 1.78,5.254 3.36,7.258 6.09,3.152 11.63,4.929 16.58,5.3 4.96,0.375 9.52,-0.371 13.68,-2.25 4.16,-1.882 8.05,-2.8 11.74,-2.8 4.07,0 8.38,1.492 12.86,4.496 9.73,6.73 15.11,10.109 16.11,10.109 1.18,0 2.76,-0.121 4.76,-0.375 2,-0.496 3.49,-0.996 4.49,-1.492 3.26,-1.512 6.48,-0.371 9.76,3.367 1.5,1.078 2.88,2.637 4.12,4.629 1.26,2.004 2.24,2.992 2.98,2.992 1.75,-2.25 3.56,-3.371 5.39,-3.371 3.89,0 6.87,2.621 8.85,7.875 1.1,2.664 2.01,3.992 2.77,3.992 0.75,-0.996 2.23,-1.504 4.5,-1.504 1.91,0 3.88,0.637 5.86,1.887 0.74,-1.5 1.29,-2.754 1.63,-3.75 0.65,-1.504 0.99,-2.828 0.99,-4 0,-2.25 -0.24,-3.883 -0.73,-4.871 -0.74,-1.496 -1.39,-2.547 -1.89,-3.125"
         style="fill:#0f8573;fill-opacity:1;fill-rule:nonzero;stroke:none"
         id="path34" />
      <path
         d="m 1677.58,408.535 c 3.02,1.824 4.3,2.621 3.87,2.371 1.28,0.75 2.14,1.496 2.63,2.239 0,0.261 -0.07,0.738 -0.24,1.441 -0.17,0.711 -0.25,1.957 -0.25,3.758 0,1.789 0.66,4.933 2.01,9.429 1.39,4.497 3.79,9.098 7.18,13.805 3.36,4.711 5.68,6.723 6.92,6.059 0.49,-0.582 0.63,-2.086 0.38,-4.496 -0.25,-2.258 -0.14,-4.371 0.36,-6.379 0.51,-1.996 1.79,-3.614 3.9,-4.867 1.9,-1.243 4.48,-1.875 7.73,-1.875 5.75,0 10.62,1.71 14.63,5.113 1.06,1.09 2.18,2.203 3.29,3.324 1.14,1.113 2.28,2.258 3.45,3.438 4.32,4.57 8.83,7.242 13.49,7.984 4.57,0.75 7,1.254 7.25,1.508 1.98,0.66 4.12,2.789 6.36,6.371 1.76,3.41 3.1,5.035 4,4.875 1.09,-0.336 1.14,-2.457 0.16,-6.383 -1.11,-3.816 -3.14,-8.355 -6.15,-13.609 -2.93,-5.258 -5.75,-8.379 -8.49,-9.371 -2.77,-1.254 -5.51,-1.629 -8.25,-1.122 -2.99,0.332 -5.78,-0.132 -8.37,-1.378 -2.76,-1.25 -5.21,-3.415 -7.39,-6.497 -2.07,-3.414 -2.95,-4.785 -2.61,-4.121 -4.25,-6.004 -8.17,-10.089 -11.75,-12.246 -3.67,-1.836 -7.79,-2.75 -12.34,-2.75 -2.04,0 -4.02,0.125 -6.01,0.375 -0.95,-0.25 -2.75,-1.465 -5.5,-3.629 -2.76,-2.324 -6.16,-5.371 -10.26,-9.113 -0.25,1.336 -0.53,2.656 -0.85,3.941 -0.35,1.29 -0.57,2.594 -0.71,3.934 -0.12,1.328 -0.07,2.637 0.14,3.93 0.2,1.289 0.68,2.601 1.42,3.941"
         style="fill:#0f8573;fill-opacity:1;fill-rule:nonzero;stroke:none"
         id="path36" />
      <path
         d="m 1819.8,397.422 c -4.33,-12.086 -8.37,-20.996 -12.11,-26.746 -3.76,-5.758 -6.69,-9.305 -8.82,-10.692 -2.11,-1.363 -5.31,-2.851 -9.55,-4.425 -4.24,-1.579 -10.76,-3.782 -19.43,-6.555 -8.73,-2.797 -13.87,-4.191 -15.44,-4.191 -0.99,0 -1.49,0.25 -1.49,0.75 -1,1.332 4.19,5.816 15.54,13.425 11.36,7.621 18.71,12.629 22.01,14.996 3.28,2.379 6.66,5.86 10.1,10.442 3.46,4.566 5.99,9.746 7.57,15.492 -0.92,0.082 -1.81,0 -2.68,-0.262 -0.9,-0.246 -1.75,-0.531 -2.63,-0.867 -0.89,-0.332 -1.77,-0.652 -2.69,-0.941 -0.91,-0.285 -1.79,-0.426 -2.63,-0.426 -4.66,0.152 -8.56,1.683 -11.68,4.555 -3.12,2.871 -4.43,6.05 -3.91,9.554 0.48,2.082 1.22,4.539 2.16,7.379 0.96,2.828 2.96,7.301 5.93,13.418 3.02,6.129 6.02,11.188 9.05,15.195 3.06,3.993 6.09,5.997 9.08,5.997 5.18,0 9.44,-2.204 12.86,-6.567 3.41,-4.363 5.13,-9.64 5.13,-15.816 0,-3.074 -0.19,-6.157 -0.56,-9.235 -0.39,-3.086 -0.76,-5.648 -1.2,-7.683 -0.41,-2.051 -1.03,-4.668 -1.87,-7.875 -0.82,-3.199 -1.74,-6.184 -2.74,-8.922"
         style="fill:#0f8573;fill-opacity:1;fill-rule:nonzero;stroke:none"
         id="path38" />
      <path
         d="m 1810.56,419.145 c 0,0.425 0,0.882 0,1.382 0,0.493 0,0.922 0,1.246 0.84,4.415 4.62,9.54 11.36,15.368 5.67,3 10.06,7.371 13.13,13.113 2.24,4.418 5.82,10.914 10.75,19.496 1.26,1.926 3.41,4.746 6.49,8.496 3.75,4.258 7.07,7.535 9.98,9.867 0.85,0.914 3.14,4.129 6.9,9.621 0.74,1.336 2.2,3.371 4.35,6.129 2.01,0.16 5.26,-2.883 9.74,-9.129 4.35,-6.242 6.52,-12.105 6.52,-17.605 0,-5.18 -1.31,-10.043 -3.89,-14.625 -2.74,-4.746 -5.87,-8.207 -9.38,-10.371 -2.23,-1.504 -4.69,-2.254 -7.34,-2.254 -2.26,0.18 -4.12,0.426 -5.65,0.75 -2.48,0.25 -4.26,0.387 -5.37,0.387 -2.16,0 -4.12,-0.258 -5.86,-0.762 -6.08,-2.574 -11.96,-9.492 -17.62,-20.734 -1.49,-2.997 -2.76,-5.372 -3.74,-7.133 -1.02,-1.739 -1.67,-2.949 -2,-3.614 -2.5,-4.246 -4.83,-7.664 -7.01,-10.238 -2.48,-3.5 -4.65,-5.875 -6.49,-7.129 -2.14,-1.5 -4.41,-2.617 -6.74,-3.363 l 1.87,21.102"
         style="fill:#0f8573;fill-opacity:1;fill-rule:nonzero;stroke:none"
         id="path40" />
      <path
         d="m 103.734,172.148 8.375,0.778 c 0.395,-3.567 1.321,-6.485 2.762,-8.77 1.453,-2.285 3.703,-4.129 6.75,-5.539 3.051,-1.41 6.484,-2.109 10.297,-2.109 3.387,0 6.371,0.535 8.965,1.601 2.594,1.071 4.523,2.532 5.789,4.395 1.266,1.859 1.898,3.891 1.898,6.101 0,2.231 -0.605,4.184 -1.832,5.848 -1.218,1.668 -3.23,3.07 -6.035,4.207 -1.801,0.742 -5.781,1.903 -11.941,3.473 -6.16,1.566 -10.481,3.047 -12.949,4.445 -3.2,1.777 -5.586,3.988 -7.157,6.629 -1.57,2.645 -2.363,5.598 -2.363,8.863 0,3.598 0.965,6.957 2.887,10.082 1.918,3.125 4.73,5.5 8.418,7.118 3.691,1.621 7.793,2.429 12.308,2.429 4.965,0 9.352,-0.847 13.153,-2.551 3.796,-1.703 6.711,-4.203 8.761,-7.507 2.043,-3.301 3.137,-7.039 3.293,-11.219 l -8.508,-0.68 c -0.457,4.5 -2.003,7.903 -4.652,10.203 -2.637,2.301 -6.527,3.446 -11.68,3.446 -5.371,0 -9.281,-1.043 -11.738,-3.133 -2.457,-2.09 -3.68,-4.61 -3.68,-7.555 0,-2.562 0.868,-4.66 2.606,-6.316 1.711,-1.653 6.168,-3.34 13.379,-5.078 7.211,-1.735 12.164,-3.246 14.844,-4.539 3.906,-1.911 6.793,-4.332 8.648,-7.262 1.859,-2.93 2.793,-6.305 2.793,-10.129 0,-3.789 -1.027,-7.363 -3.066,-10.711 -2.043,-3.352 -4.981,-5.957 -8.805,-7.824 -3.828,-1.86 -8.137,-2.793 -12.926,-2.793 -6.066,0 -11.152,0.941 -15.262,2.816 -4.097,1.883 -7.316,4.707 -9.644,8.481 -2.332,3.765 -3.567,8.039 -3.688,12.8"
         style="fill:#0f8573;fill-opacity:1;fill-rule:nonzero;stroke:none"
         id="path42" />
      <path
         d="m 233.879,175.16 c -2.996,-1.297 -7.473,-2.394 -13.453,-3.305 -3.387,-0.515 -5.778,-1.097 -7.184,-1.75 -1.402,-0.64 -2.48,-1.589 -3.242,-2.839 -0.766,-1.246 -1.145,-2.633 -1.145,-4.157 0,-2.328 0.829,-4.269 2.493,-5.828 1.66,-1.554 4.09,-2.332 7.297,-2.332 3.171,0 5.988,0.739 8.464,2.215 2.465,1.469 4.278,3.484 5.442,6.051 0.883,1.973 1.328,4.887 1.328,8.738 z m 0.687,-19.531 c -3.058,-2.754 -5.988,-4.695 -8.808,-5.828 -2.828,-1.129 -5.848,-1.699 -9.078,-1.699 -5.336,0 -9.446,1.386 -12.309,4.148 -2.867,2.773 -4.305,6.309 -4.305,10.621 0,2.524 0.543,4.828 1.629,6.918 1.078,2.09 2.5,3.77 4.25,5.031 1.754,1.266 3.735,2.215 5.926,2.868 1.613,0.453 4.063,0.886 7.324,1.304 6.645,0.848 11.543,1.852 14.684,3.016 0.031,1.199 0.047,1.957 0.047,2.285 0,3.559 -0.781,6.066 -2.332,7.531 -2.114,1.977 -5.239,2.961 -9.383,2.961 -3.875,0 -6.731,-0.719 -8.578,-2.156 -1.848,-1.441 -3.207,-3.996 -4.094,-7.656 l -8.047,1.172 c 0.731,3.652 1.93,6.609 3.61,8.859 1.675,2.254 4.101,3.984 7.277,5.195 3.168,1.219 6.844,1.821 11.023,1.821 4.141,0 7.516,-0.516 10.106,-1.551 2.597,-1.039 4.5,-2.34 5.722,-3.906 1.219,-1.575 2.075,-3.559 2.563,-5.954 0.273,-1.492 0.41,-4.179 0.41,-8.066 v -11.652 c 0,-8.137 0.176,-13.278 0.531,-15.43 0.348,-2.156 1.039,-4.223 2.079,-6.191 h -8.602 c -0.859,1.808 -1.406,3.933 -1.645,6.359"
         style="fill:#0f8573;fill-opacity:1;fill-rule:nonzero;stroke:none"
         id="path44" />
      <path
         d="m 289.629,149.27 v 51.589 h 7.367 v -7.238 c 1.524,2.527 3.551,4.559 6.078,6.098 2.535,1.535 5.418,2.301 8.649,2.301 3.605,0 6.554,-0.79 8.859,-2.375 2.293,-1.586 3.922,-3.809 4.867,-6.657 3.844,6.028 8.848,9.032 15.004,9.032 4.82,0 8.527,-1.411 11.113,-4.247 2.598,-2.832 3.895,-7.199 3.895,-13.093 v -35.41 h -8.191 v 32.5 c 0,3.496 -0.266,6.007 -0.805,7.55 -0.531,1.539 -1.492,2.774 -2.895,3.723 -1.406,0.937 -3.058,1.398 -4.949,1.398 -3.418,0 -6.242,-1.203 -8.508,-3.613 -2.258,-2.414 -3.383,-6.273 -3.383,-11.586 V 149.27 h -8.234 v 33.519 c 0,3.887 -0.676,6.801 -2.012,8.742 -1.347,1.946 -3.539,2.91 -6.589,2.91 -2.317,0 -4.461,-0.64 -6.434,-1.941 -1.969,-1.293 -3.387,-3.187 -4.273,-5.684 -0.875,-2.496 -1.329,-6.089 -1.329,-10.781 V 149.27 h -8.23"
         style="fill:#0f8573;fill-opacity:1;fill-rule:nonzero;stroke:none"
         id="path46" />
      <path
         d="m 408.559,180.016 h 27.129 c -0.368,4.343 -1.403,7.597 -3.106,9.765 -2.625,3.367 -6.023,5.055 -10.203,5.055 -3.785,0 -6.957,-1.344 -9.543,-4.035 -2.57,-2.688 -3.996,-6.285 -4.277,-10.785 z m 27.039,-14.133 8.511,-1.121 c -1.343,-5.282 -3.828,-9.375 -7.461,-12.289 -3.628,-2.91 -8.257,-4.371 -13.906,-4.371 -7.105,0 -12.742,2.324 -16.902,6.972 -4.164,4.645 -6.246,11.164 -6.246,19.555 0,8.676 2.105,15.414 6.312,20.207 4.211,4.793 9.668,7.184 16.379,7.184 6.492,0 11.801,-2.34 15.918,-7.04 4.121,-4.699 6.176,-11.304 6.176,-19.82 0,-0.515 -0.016,-1.297 -0.043,-2.328 h -36.234 c 0.304,-5.668 1.816,-10.016 4.527,-13.027 2.723,-3.008 6.105,-4.512 10.16,-4.512 3.024,0 5.602,0.84 7.731,2.523 2.136,1.688 3.828,4.375 5.078,8.067"
         style="fill:#0f8573;fill-opacity:1;fill-rule:nonzero;stroke:none"
         id="path48" />
      <path
         d="m 489.109,149.27 v 51.589 h 7.414 v -7.339 c 3.571,5.668 8.719,8.5 15.465,8.5 2.922,0 5.617,-0.555 8.075,-1.672 2.453,-1.114 4.292,-2.582 5.507,-4.395 1.223,-1.812 2.075,-3.965 2.567,-6.461 0.301,-1.621 0.457,-4.457 0.457,-8.5 V 149.27 h -8.239 v 31.378 c 0,3.567 -0.316,6.227 -0.957,7.989 -0.636,1.769 -1.777,3.179 -3.414,4.23 -1.629,1.055 -3.543,1.574 -5.734,1.574 -3.512,0 -6.535,-1.175 -9.078,-3.543 -2.555,-2.363 -3.824,-6.843 -3.824,-13.453 V 149.27 h -8.239"
         style="fill:#0f8573;fill-opacity:1;fill-rule:nonzero;stroke:none"
         id="path50" />
      <path
         d="m 685.488,174.238 8.871,-2.383 c -1.859,-7.738 -5.203,-13.64 -10.039,-17.707 -4.84,-4.066 -10.746,-6.097 -17.726,-6.097 -7.231,0 -13.102,1.562 -17.641,4.687 -4.523,3.129 -7.969,7.657 -10.332,13.578 -2.371,5.926 -3.555,12.293 -3.555,19.094 0,7.418 1.34,13.887 4.012,19.403 2.664,5.523 6.457,9.718 11.387,12.585 4.93,2.868 10.351,4.301 16.265,4.301 6.708,0 12.352,-1.812 16.926,-5.445 4.574,-3.621 7.766,-8.727 9.567,-15.297 l -8.746,-2.187 c -1.551,5.179 -3.813,8.957 -6.766,11.324 -2.961,2.355 -6.676,3.543 -11.164,3.543 -5.156,0 -9.461,-1.313 -12.926,-3.942 -3.453,-2.617 -5.887,-6.14 -7.293,-10.562 -1.402,-4.422 -2.098,-8.981 -2.098,-13.672 0,-6.059 0.825,-11.352 2.485,-15.859 1.664,-4.52 4.246,-7.899 7.754,-10.133 3.511,-2.235 7.301,-3.352 11.394,-3.352 4.973,0 9.18,1.52 12.629,4.567 3.442,3.043 5.778,7.562 6.996,13.554"
         style="fill:#0f8573;fill-opacity:1;fill-rule:nonzero;stroke:none"
         id="path52" />
      <path
         d="m 738.809,149.27 v 51.589 h 7.421 v -7.816 c 1.883,3.652 3.633,6.066 5.235,7.23 1.598,1.168 3.359,1.747 5.281,1.747 2.774,0 5.598,-0.934 8.457,-2.817 l -2.832,-8.109 c -2.016,1.265 -4.027,1.894 -6.039,1.894 -1.801,0 -3.41,-0.578 -4.844,-1.722 -1.433,-1.153 -2.461,-2.746 -3.066,-4.786 -0.922,-3.113 -1.371,-6.507 -1.371,-10.207 V 149.27 h -8.242"
         style="fill:#0f8573;fill-opacity:1;fill-rule:nonzero;stroke:none"
         id="path54" />
      <path
         d="m 810.996,180.016 h 27.125 c -0.367,4.343 -1.402,7.597 -3.109,9.765 -2.625,3.367 -6.024,5.055 -10.203,5.055 -3.786,0 -6.957,-1.344 -9.539,-4.035 -2.575,-2.688 -4,-6.285 -4.274,-10.785 z m 27.035,-14.133 8.512,-1.121 c -1.344,-5.282 -3.832,-9.375 -7.461,-12.289 -3.633,-2.91 -8.262,-4.371 -13.906,-4.371 -7.11,0 -12.742,2.324 -16.91,6.972 -4.161,4.645 -6.235,11.164 -6.235,19.555 0,8.676 2.102,15.414 6.309,20.207 4.211,4.793 9.668,7.184 16.379,7.184 6.492,0 11.804,-2.34 15.918,-7.04 4.121,-4.699 6.176,-11.304 6.176,-19.82 0,-0.515 -0.016,-1.297 -0.043,-2.328 h -36.239 c 0.309,-5.668 1.817,-10.016 4.532,-13.027 2.718,-3.008 6.097,-4.512 10.156,-4.512 3.019,0 5.601,0.84 7.73,2.523 2.133,1.688 3.828,4.375 5.082,8.067"
         style="fill:#0f8573;fill-opacity:1;fill-rule:nonzero;stroke:none"
         id="path56" />
      <path
         d="m 897.043,175.016 c 0,-6.61 1.309,-11.547 3.934,-14.817 2.628,-3.273 5.722,-4.906 9.289,-4.906 3.589,0 6.648,1.559 9.168,4.687 2.519,3.122 3.781,7.895 3.781,14.305 0,7.063 -1.281,12.242 -3.852,15.543 -2.566,3.309 -5.718,4.957 -9.48,4.957 -3.653,0 -6.707,-1.586 -9.16,-4.758 -2.461,-3.172 -3.68,-8.179 -3.68,-15.011 z m 26.023,-25.746 v 6.507 c -3.086,-5.117 -7.605,-7.675 -13.586,-7.675 -3.875,0 -7.437,1.136 -10.679,3.402 -3.254,2.266 -5.754,5.434 -7.551,9.496 -1.777,4.059 -2.676,8.734 -2.676,14.016 0,5.152 0.813,9.82 2.422,14.011 1.621,4.196 4.043,7.414 7.285,9.645 3.223,2.234 6.848,3.348 10.828,3.348 2.934,0 5.547,-0.653 7.825,-1.961 2.296,-1.313 4.16,-3.024 5.586,-5.125 v 25.55 h 8.183 V 149.27 h -7.637"
         style="fill:#0f8573;fill-opacity:1;fill-rule:nonzero;stroke:none"
         id="path58" />
      <path
         d="m 978.367,149.27 v 51.589 h 8.227 V 149.27 Z m 0,61.156 v 10.058 h 8.227 v -10.058 h -8.227"
         style="fill:#0f8573;fill-opacity:1;fill-rule:nonzero;stroke:none"
         id="path60" />
      <path
         d="m 1051.78,157.09 1.19,-7.727 c -2.32,-0.515 -4.4,-0.777 -6.22,-0.777 -2.99,0 -5.31,0.5 -6.96,1.508 -1.66,1 -2.8,2.324 -3.47,3.953 -0.67,1.641 -1.02,5.086 -1.02,10.328 v 29.684 h -6.02 v 6.8 h 6.02 v 12.778 l 8.21,5.246 v -18.024 h 8.27 v -6.8 h -8.27 v -30.172 c 0,-2.492 0.14,-4.098 0.43,-4.809 0.28,-0.715 0.75,-1.273 1.41,-1.695 0.65,-0.426 1.59,-0.637 2.81,-0.637 0.92,0 2.13,0.117 3.62,0.344"
         style="fill:#0f8573;fill-opacity:1;fill-rule:nonzero;stroke:none"
         id="path62" />
      <path
         d="m 1157.76,149.27 v 71.214 h 8.87 V 149.27 h -8.87"
         style="fill:#0f8573;fill-opacity:1;fill-rule:nonzero;stroke:none"
         id="path64" />
      <path
         d="m 1215.88,149.27 v 51.589 h 7.41 v -7.339 c 3.57,5.668 8.72,8.5 15.46,8.5 2.93,0 5.62,-0.555 8.08,-1.672 2.46,-1.114 4.29,-2.582 5.5,-4.395 1.22,-1.812 2.09,-3.965 2.57,-6.461 0.3,-1.621 0.47,-4.457 0.47,-8.5 V 149.27 h -8.24 v 31.378 c 0,3.567 -0.33,6.227 -0.96,7.989 -0.64,1.769 -1.79,3.179 -3.42,4.23 -1.62,1.055 -3.54,1.574 -5.74,1.574 -3.49,0 -6.52,-1.175 -9.07,-3.543 -2.55,-2.363 -3.82,-6.843 -3.82,-13.453 V 149.27 h -8.24"
         style="fill:#0f8573;fill-opacity:1;fill-rule:nonzero;stroke:none"
         id="path66" />
      <path
         d="m 1299.35,164.668 8.14,1.355 c 0.48,-3.46 1.75,-6.117 3.83,-7.96 2.09,-1.852 5.01,-2.77 8.77,-2.77 3.78,0 6.58,0.816 8.41,2.449 1.83,1.633 2.75,3.559 2.75,5.758 0,1.973 -0.81,3.531 -2.43,4.664 -1.13,0.781 -3.94,1.762 -8.42,2.965 -6.04,1.613 -10.22,3.019 -12.56,4.199 -2.32,1.188 -4.1,2.817 -5.3,4.906 -1.2,2.094 -1.81,4.399 -1.81,6.922 0,2.301 0.5,4.43 1.49,6.395 0.98,1.957 2.34,3.59 4.05,4.879 1.27,1 3.03,1.851 5.23,2.55 2.21,0.7 4.59,1.04 7.12,1.04 3.82,0 7.16,-0.579 10.04,-1.747 2.88,-1.164 5.01,-2.746 6.38,-4.738 1.37,-1.984 2.32,-4.656 2.84,-7.984 l -8.06,-1.168 c -0.36,2.656 -1.42,4.73 -3.17,6.215 -1.76,1.488 -4.23,2.238 -7.44,2.238 -3.78,0 -6.48,-0.664 -8.1,-1.992 -1.61,-1.328 -2.42,-2.883 -2.42,-4.664 0,-1.133 0.34,-2.157 1.01,-3.063 0.67,-0.937 1.72,-1.719 3.15,-2.328 0.82,-0.328 3.25,-1.07 7.28,-2.238 5.84,-1.649 9.89,-3 12.18,-4.059 2.31,-1.047 4.12,-2.574 5.43,-4.59 1.31,-2.004 1.97,-4.5 1.97,-7.476 0,-2.918 -0.8,-5.66 -2.41,-8.238 -1.6,-2.575 -3.9,-4.563 -6.92,-5.973 -3.02,-1.406 -6.44,-2.113 -10.25,-2.113 -6.32,0 -11.12,1.39 -14.44,4.179 -3.31,2.785 -5.42,6.914 -6.34,12.387"
         style="fill:#0f8573;fill-opacity:1;fill-rule:nonzero;stroke:none"
         id="path68" />
      <path
         d="m 1402.15,157.09 1.19,-7.727 c -2.32,-0.515 -4.4,-0.777 -6.23,-0.777 -2.98,0 -5.3,0.5 -6.95,1.508 -1.65,1 -2.8,2.324 -3.47,3.953 -0.68,1.641 -1.02,5.086 -1.02,10.328 v 29.684 h -6.02 v 6.8 h 6.02 v 12.778 l 8.2,5.246 v -18.024 h 8.28 v -6.8 h -8.28 v -30.172 c 0,-2.492 0.15,-4.098 0.44,-4.809 0.28,-0.715 0.75,-1.273 1.41,-1.695 0.65,-0.426 1.58,-0.637 2.81,-0.637 0.92,0 2.12,0.117 3.62,0.344"
         style="fill:#0f8573;fill-opacity:1;fill-rule:nonzero;stroke:none"
         id="path70" />
      <path
         d="m 1444.92,149.27 v 51.589 h 8.22 V 149.27 Z m 0,61.156 v 10.058 h 8.22 v -10.058 h -8.22"
         style="fill:#0f8573;fill-opacity:1;fill-rule:nonzero;stroke:none"
         id="path72" />
      <path
         d="m 1518.32,157.09 1.2,-7.727 c -2.32,-0.515 -4.4,-0.777 -6.23,-0.777 -3,0 -5.31,0.5 -6.96,1.508 -1.65,1 -2.81,2.324 -3.47,3.953 -0.67,1.641 -1.01,5.086 -1.01,10.328 v 29.684 h -6.04 v 6.8 h 6.04 v 12.778 l 8.19,5.246 v -18.024 h 8.28 v -6.8 h -8.28 v -30.172 c 0,-2.492 0.15,-4.098 0.44,-4.809 0.28,-0.715 0.75,-1.273 1.41,-1.695 0.66,-0.426 1.6,-0.637 2.82,-0.637 0.91,0 2.13,0.117 3.61,0.344"
         style="fill:#0f8573;fill-opacity:1;fill-rule:nonzero;stroke:none"
         id="path74" />
      <path
         d="m 1592.88,149.27 v 7.578 c -3.78,-5.832 -8.92,-8.746 -15.41,-8.746 -2.87,0 -5.55,0.586 -8.04,1.746 -2.48,1.168 -4.33,2.636 -5.52,4.398 -1.21,1.766 -2.06,3.93 -2.56,6.484 -0.33,1.715 -0.5,4.442 -0.5,8.165 v 31.964 h 8.23 v -28.617 c 0,-4.562 0.18,-7.64 0.52,-9.23 0.52,-2.297 1.61,-4.102 3.28,-5.414 1.69,-1.309 3.76,-1.969 6.23,-1.969 2.47,0 4.8,0.676 6.94,2.016 2.18,1.343 3.71,3.179 4.6,5.496 0.91,2.312 1.36,5.672 1.36,10.078 v 27.64 h 8.23 V 149.27 h -7.36"
         style="fill:#0f8573;fill-opacity:1;fill-rule:nonzero;stroke:none"
         id="path76" />
      <path
         d="m 1665.78,157.09 1.2,-7.727 c -2.31,-0.515 -4.39,-0.777 -6.22,-0.777 -3,0 -5.32,0.5 -6.96,1.508 -1.64,1 -2.8,2.324 -3.47,3.953 -0.67,1.641 -1,5.086 -1,10.328 v 29.684 h -6.05 v 6.8 h 6.05 v 12.778 l 8.18,5.246 v -18.024 h 8.27 v -6.8 h -8.27 v -30.172 c 0,-2.492 0.15,-4.098 0.43,-4.809 0.29,-0.715 0.76,-1.273 1.43,-1.695 0.65,-0.426 1.59,-0.637 2.81,-0.637 0.92,0 2.12,0.117 3.6,0.344"
         style="fill:#0f8573;fill-opacity:1;fill-rule:nonzero;stroke:none"
         id="path78" />
      <path
         d="m 1708.55,149.27 v 51.589 h 8.24 V 149.27 Z m 0,61.156 v 10.058 h 8.24 v -10.058 h -8.24"
         style="fill:#0f8573;fill-opacity:1;fill-rule:nonzero;stroke:none"
         id="path80" />
      <path
         d="m 1769.38,175.063 c 0,-6.606 1.37,-11.551 4.08,-14.844 2.71,-3.281 6.12,-4.926 10.24,-4.926 4.09,0 7.48,1.648 10.2,4.957 2.72,3.297 4.07,8.34 4.07,15.105 0,6.379 -1.36,11.215 -4.09,14.5 -2.74,3.29 -6.12,4.93 -10.18,4.93 -4.12,0 -7.53,-1.637 -10.24,-4.902 -2.71,-3.278 -4.08,-8.219 -4.08,-14.82 z m -8.46,0 c 0,9.55 2.51,16.632 7.51,21.23 4.17,3.82 9.26,5.727 15.27,5.727 6.68,0 12.15,-2.325 16.38,-6.969 4.24,-4.645 6.36,-11.067 6.36,-19.258 0,-6.645 -0.94,-11.863 -2.81,-15.664 -1.88,-3.813 -4.61,-6.766 -8.18,-8.867 -3.59,-2.114 -7.51,-3.16 -11.75,-3.16 -6.81,0 -12.29,2.312 -16.48,6.949 -4.2,4.633 -6.3,11.297 -6.3,20.012"
         style="fill:#0f8573;fill-opacity:1;fill-rule:nonzero;stroke:none"
         id="path82" />
      <path
         d="m 1850.76,149.27 v 51.589 h 7.4 v -7.339 c 3.58,5.668 8.72,8.5 15.46,8.5 2.94,0 5.64,-0.555 8.1,-1.672 2.44,-1.114 4.29,-2.582 5.5,-4.395 1.23,-1.812 2.08,-3.965 2.56,-6.461 0.31,-1.621 0.46,-4.457 0.46,-8.5 V 149.27 h -8.23 v 31.378 c 0,3.567 -0.33,6.227 -0.97,7.989 -0.63,1.769 -1.77,3.179 -3.41,4.23 -1.62,1.055 -3.53,1.574 -5.74,1.574 -3.5,0 -6.53,-1.175 -9.08,-3.543 -2.54,-2.363 -3.82,-6.843 -3.82,-13.453 V 149.27 h -8.23"
         style="fill:#0f8573;fill-opacity:1;fill-rule:nonzero;stroke:none"
         id="path84" />
      <path
         d="m 393.645,898.023 c 43.714,0 79.171,-35.46 79.171,-79.175 0,-43.727 -35.457,-79.168 -79.171,-79.168 -43.719,0 -79.176,35.441 -79.176,79.168 0,43.715 35.457,79.175 79.176,79.175"
         style="fill:#0f8573;fill-opacity:1;fill-rule:evenodd;stroke:none"
         id="path86" />
      <path
         d="M 105.719,504.703 393.523,725.426 575.156,534.918 401.633,401.859 348.688,457.395 460.273,542.973 384.551,622.379 105.719,408.551 v 96.152"
         style="fill:#0f8573;fill-opacity:1;fill-rule:evenodd;stroke:none"
         id="path88" />
      <path
         d="M 383.191,600.063 436.137,544.52 324.57,458.949 400.273,379.547 679.125,593.379 V 497.211 L 391.301,276.5 209.688,466.996 383.191,600.063"
         style="fill:#0f8573;fill-opacity:1;fill-rule:evenodd;stroke:none"
         id="path90" />
    </g>
  </g>
</svg>
