<?xml version="1.0" encoding="UTF-8" standalone="no"?>
<!-- Created with Inkscape (http://www.inkscape.org/) -->

<svg
   version="1.1"
   id="svg2"
   width="1293.3333"
   height="1108"
   viewBox="0 0 1293.3333 1108"
   sodipodi:docname="Sanatvamadan-logo.eps"
   xmlns:inkscape="http://www.inkscape.org/namespaces/inkscape"
   xmlns:sodipodi="http://sodipodi.sourceforge.net/DTD/sodipodi-0.dtd"
   xmlns="http://www.w3.org/2000/svg"
   xmlns:svg="http://www.w3.org/2000/svg">
  <defs
     id="defs6" />
  <sodipodi:namedview
     id="namedview4"
     pagecolor="#ffffff"
     bordercolor="#000000"
     borderopacity="0.25"
     inkscape:showpageshadow="2"
     inkscape:pageopacity="0.0"
     inkscape:pagecheckerboard="0"
     inkscape:deskcolor="#d1d1d1" />
  <g
     id="g8"
     inkscape:groupmode="layer"
     inkscape:label="ink_ext_XXXXXX"
     transform="matrix(1.3333333,0,0,-1.3333333,0,1108)">
    <g
       id="g10"
       transform="scale(0.1)">
      <path
         d="m 2453.7,7756 c 442.5,0.9 885,0.7 1327.5,0.2 39.7,4.1 62.7,-33.1 87.8,-56.9 327.2,-327.4 654.4,-654.7 981.5,-982.1 337.9,339.6 677,677.9 1015.8,1016.6 13.5,15.6 32.1,26 53.4,22.9 442.1,-0.9 884.1,0.8 1326.2,-0.8 1.2,-1138.8 0.2,-2277.5 0.5,-3416.3 -0.8,-458 1.6,-916.1 -1.2,-1374.1 -248.5,-6.3 -497.2,-1.1 -745.8,-2.8 -1166.3,0 -2332.5,0 -3498.8,0 -182.1,1.7 -364.4,-3.5 -546.4,3.1 -1.5,1596.8 -0.6,3193.5 -0.5,4790.2 m 505.1,-504.6 c -0.5,-1261 -1.1,-2522.1 0.3,-3783.2 1260.8,-0.3 2521.7,0 3782.5,-0.2 -0.8,1254.5 0.2,2509.1 -0.4,3763.5 5,20 -18,21.1 -31,20.1 -196.9,-0.6 -393.9,0 -590.8,-0.3 -16.5,1.9 -30.4,-7.3 -41.2,-18.6 -289.9,-291.2 -581.2,-580.9 -871,-872.2 169.1,-168.6 338.3,-337.1 506.6,-506.5 8.3,-11.4 22.1,-13.3 35.3,-13.3 313.9,-2.5 628,3.3 941.8,-2.7 -148.9,-199.9 -303.7,-395.4 -455.6,-593 -204.5,-2.1 -409.1,1 -613.6,-1.5 115.7,-114.3 231.3,-228.9 345,-345.2 -24,-37.1 -57.7,-66 -88.4,-97.1 -335,-335.9 -671.4,-670.5 -1006,-1006.6 -5.4,-0.9 -16.3,-2.6 -21.8,-3.4 -289.4,290.7 -580.4,579.9 -869.7,870.8 -320.2,1.9 -640.5,-1.9 -960.7,2 26.1,53 68.1,95.4 102.8,142.6 106.9,140 215.4,278.8 322.6,418.5 14,16.6 28,40.4 53.6,35.6 197,0.6 394.1,-0.3 591.1,0 -115,116.6 -232.2,231.1 -346.7,348.1 246.9,252.9 500.5,499.3 748,751.6 -284.2,289.1 -573.7,573.1 -859,861.2 -14.6,13.5 -29.2,32.7 -51.6,29.7 -207.4,0.3 -414.7,-0.2 -622.1,0.1 M 4122.5,5276.6 c -15.8,-10.6 -10.6,-31.1 3,-40.8 244,-245.6 489.4,-489.8 734,-734.7 240.1,242.2 482,482.6 723,723.7 8.7,10.7 27.5,25.4 9.2,36.7 -247,247.8 -494.7,494.9 -742,742.4 -242.1,-242.8 -484.5,-485.3 -727.2,-727.3"
         style="fill:#a88b53;fill-opacity:1;fill-rule:nonzero;stroke:none"
         id="path12" />
      <path
         d="m 5710.3,2430.4 c 54,-0.4 108.1,-0.1 162.2,-0.6 -0.6,-42.1 -0.6,-84.2 -0.1,-126.3 -54,-0.2 -108.1,-0.1 -162.1,-0.2 -0.6,42.4 -0.6,84.8 0,127.1 m 1752.3,-102.8 c 48.6,58.4 121,95.2 196.8,100.5 71.4,4.6 143.1,0.7 214.6,2.1 -0.1,-46.8 -0.3,-93.6 0.1,-140.4 -61.7,-0.9 -123.6,3 -185.2,-2.2 -37.2,-2.4 -69.2,-23.5 -97.5,-46 103.1,-3.9 206.4,0.3 309.6,-2.2 94.2,-3.7 181.2,-74.9 201.2,-167.4 12.3,-43 5.4,-87.4 2.5,-131.1 29.7,-23.5 69.4,-20.1 105.1,-21 50,1.2 100.3,-2.3 150.3,2.2 24.8,0.7 42.7,23.8 42.6,47.7 1.9,86.7 -0.1,173.5 0.6,260.2 53.5,0.2 107,0.1 160.6,0 -0.2,-86.6 0.2,-173.3 0,-260 -0.9,-55.6 -15.2,-116.8 -59.7,-154.1 -36.4,-32 -87.1,-39.5 -133.9,-38.3 -76.7,1.1 -153.4,-1 -230.1,0.8 -41.1,1 -78.8,20 -110.2,45.4 -51.7,-47.1 -124.1,-49 -189.9,-46.1 -200.2,0.5 -400.3,-0.3 -600.4,0.4 -92.5,0.5 -179,66.9 -206.5,154.5 -20.4,77.4 -2.1,161 43.6,225.9 54.6,-3.2 84,-58.6 125.2,-87.7 -12.4,-32 -32.2,-67.9 -15.5,-102.3 12.7,-33.1 48.9,-49.1 82.8,-47.9 186.8,-1.3 373.7,0 560.6,-0.6 36.7,-2.2 76.9,9.2 97.9,41.5 30,37.2 19.2,99.3 -21.9,123.7 -26.5,14.1 -57.5,12.3 -86.5,12.9 -143.6,-0.7 -287.2,0.3 -430.8,-0.6 -0.8,81.7 18.3,167.7 74,230.1 m 913.3,102.8 c 53.6,-0.6 107.2,0.1 160.8,-0.6 -0.1,-42.2 0,-84.4 -0.1,-126.6 -53.7,0.1 -107.3,0.4 -161,0 0.6,42.4 0.5,84.8 0.3,127.2 m 307.5,-0.6 c 53,0.4 106.1,0.6 159.1,0 -0.4,-153.4 -0.8,-306.9 0.1,-460.3 -1.4,-23.2 15.1,-45.9 39.5,-46.8 69.5,-5.6 139.5,-1.9 209.2,-2.2 26.4,-2 57.8,10.5 60.1,40.6 4.9,89.5 0.6,179.3 2,268.9 53.4,0 106.9,0 160.5,0 -0.2,-86.8 0.3,-173.6 0,-260.3 -1.2,-53.3 -13.6,-111.3 -54.2,-149 -34.2,-33.3 -84,-43.7 -130.2,-43 -93,0.4 -186,-0.5 -279,0.5 -47.7,0.5 -97.2,18.2 -127.5,56.3 -29.9,38.2 -40.5,88 -39.9,135.6 0.4,153.2 0,306.5 0.3,459.7 M 1764.9,2145.4 c 30.1,63.4 95.5,105.3 164.5,112.5 69.1,6.1 144.9,5.9 205,-33.9 61.7,-43.1 98.5,-118.4 102.2,-192.7 -16.6,-43.5 -53.7,-75.1 -82.6,-110.7 82.3,-0.9 164.5,-0.5 246.8,-0.6 25.7,0.1 59.1,0.3 71.4,28 9.7,29.5 3.7,61.3 6.2,91.7 2.3,91.9 62.6,183.8 152.3,211.2 44.9,14.3 93,13.5 139.4,9.2 72.5,-7.5 138.4,-54.2 171.4,-118.9 55.3,-106.6 28.1,-250.3 -65.9,-326.4 -51,-43.2 -120.6,-51.8 -185,-46.8 -47.2,0.9 -90.5,21.3 -128.8,47.3 -31,-19.1 -64.6,-37.7 -102.2,-37.1 -90,-1.1 -180,0 -270,-0.3 -62.6,1.1 -126.9,-6.8 -187.2,14.5 -18.8,7.9 -37.9,-2.1 -56.3,-5.9 -44.3,-12.7 -90.7,-8.2 -136.1,-8.7 -234.7,-0.1 -469.3,0.2 -704,0 0.1,47.5 0.2,95 0,142.4 87.3,-0.1 174.5,-0.3 261.8,0.1 -0.7,56.6 1.6,113.2 -0.8,169.7 1.1,29.9 -37.7,59.6 -63.3,36.7 -16.7,-9.7 -21.5,-29.8 -29.2,-46.2 -50.2,-1 -100.4,-0.5 -150.5,-0.6 2.3,45.5 15.7,94.2 54.3,122.4 58,42.9 134.5,41.3 203.1,35.7 58.8,-5.8 121.1,-38.6 138.4,-99 19.5,-71.1 6.5,-145.9 10.5,-218.7 94.7,-0.1 189.4,-0.8 284.1,0.4 -28.6,35.1 -65.5,66.5 -80.4,110.4 -2.3,40.1 14.1,78.7 30.9,114.3 m 929.3,-10.9 c -42,-25.2 -55.8,-78.5 -52.2,-124.7 1.9,-41.8 14.9,-93.4 57.8,-110.7 35.2,-17.9 76.9,10 90.4,43.3 20.1,49.1 21.9,107.7 -2.2,155.8 -15.9,33.2 -59.3,55.7 -93.8,36.3 m -793.4,-75.8 c 22.2,-35.8 51.4,-66.5 83.8,-93.4 31.8,27.6 62.2,57.6 84.7,93.6 -21.1,30.6 -47.7,66 -88.2,68.2 -37.7,-6 -62.8,-36.9 -80.3,-68.4 m 3104,86.5 c 31.5,66.6 101.8,109.3 174.4,113.7 68.1,4.7 143,3.3 200.6,-38.6 58,-44.3 94,-116.9 96.5,-189.4 -16.7,-43.6 -53.6,-75.1 -82.5,-110.4 75.3,-0.3 150.8,-0.7 226.2,-0.4 24.4,1 52.6,0.3 71.4,19 21.2,17.1 21.8,46.3 22.2,71.2 0,63.3 -0.4,126.7 -0.1,190 52.9,-0.3 105.9,0.2 158.9,-0.7 0.6,-66.9 -2.7,-133.9 1.6,-200.7 2.2,-34.1 23.8,-68.5 59.8,-74 72.7,-9.9 146.5,-2.8 219.6,-4.6 -0.2,95.5 0.2,190.9 -0.2,286.3 52.7,0.2 105.4,0.3 158.1,-0.3 -1.7,-17.2 -3.6,-34.3 -5.4,-51.7 68.8,54.5 155.1,90 243.8,86.1 91.7,3.2 187.3,-35.7 242,-111 38.4,-52.1 41,-120.9 30.6,-182.5 -18.3,-97.9 -114.8,-168.5 -212.4,-169 -219.9,-0.8 -439.9,-0.2 -659.8,-0.4 -47.1,-1.9 -91.3,18.3 -126.8,47.8 -30.9,-28.7 -70.7,-47.5 -113.4,-47.3 -126.5,-1.4 -253.1,0 -379.6,-0.6 -35.2,-1.4 -68.5,10.5 -102.3,18 -36.2,-5.3 -71.2,-20 -108.5,-18.1 -103.1,1.1 -206.1,-1 -309.1,0.6 -42.8,0.1 -82.7,18.4 -115.1,45.4 -35.3,-28.9 -79.3,-46.5 -125.4,-45.7 -146.5,0 -292.9,-0.4 -439.4,0.2 -85.2,0.3 -165.6,56.2 -199.5,133.6 -31.7,79.7 -15.5,173.9 34.1,243 8.2,-0.3 24.7,-0.8 33,-1 31.6,-27.5 62.9,-55.2 93.9,-83.4 -12.9,-32 -32.2,-68 -15.3,-102.6 14.2,-37.4 56.6,-49.5 93.1,-47.6 120.4,0.6 240.8,-1.5 361.1,1 28,-2.2 51.7,21.9 51.2,49.6 3.1,86.3 0.2,172.8 1.1,259.2 53.6,0.2 107.1,0.1 160.7,0.1 0.8,-76.8 -1.4,-153.6 0.7,-230.4 1.3,-39.7 33.4,-76.7 74.4,-77.2 78.5,-5 157.3,-1.4 236,-1.7 -28.1,33 -61.2,63.6 -79.4,103.5 -7.3,42 12.1,83.6 29.2,121 m 136,-88.8 c 23.4,-34 51.8,-64.3 83.4,-91 32.4,27.2 62.5,57.6 84.8,93.8 -20.5,30.9 -47.2,63.9 -86.7,68.5 -38.5,-6.9 -65.4,-37.5 -81.5,-71.3 m 1164.7,-135.7 c 85,-0.8 170,-1.3 255,-0.1 49.3,-1.6 105.6,35.6 103,89.1 -6.3,63.7 -76.2,95.4 -133.1,95.5 -104.6,-7 -191.3,-88.3 -224.9,-184.5 M 843.199,2230 c 53,0 106,0 159.001,0 -0.3,-103.1 0.7,-206.3 -0.3,-309.5 C 999.898,1820.1 951.301,1720.1 867,1663.6 793,1611.2 697.801,1600.8 609.801,1610.5 515.398,1621.6 431,1681.9 383,1762.9 c -63.301,101.3 -55.699,229.6 -28.199,341.2 55.898,-0.4 111.898,0 167.801,-0.2 -20.704,-63.6 -41.801,-131.2 -26.602,-198.5 19.699,-76 85.398,-142.2 164.898,-151.6 105.5,0.6 189.5,102.9 182.5,205.7 -0.097,90.2 -0.199,180.4 -0.199,270.5 M 3290.8,2150.3 c 43.1,52.9 111.8,76.7 178.4,78.9 83.6,2.1 167.2,0.2 250.9,0.8 -0.2,-136.8 0.3,-273.6 -0.2,-410.4 0.1,-59.6 -19.8,-122.3 -68.6,-159.8 -75,-58.9 -178.6,-58 -267.9,-40.4 -13.1,44.1 -26.8,88.1 -37.4,132.9 65.8,-11.3 150.1,-36.7 199.7,24.5 -43.9,2.3 -88.7,-2.5 -131.7,8.9 -78.8,19.3 -145.5,84 -163.3,163.6 -12.6,68.4 -7,146.1 40.1,201 m 152.4,-72.7 c -40.2,-31.2 -45.5,-97.4 -7,-132.1 32,-31.9 80.4,-24.4 121.5,-25.5 0.2,59.2 0,118.4 0.1,177.5 -38.3,-1.6 -84,10.1 -114.6,-19.9 m 706.9,138.9 c 54.1,0.2 108.2,0.4 162.3,-0.1 -0.4,-40.8 -0.5,-81.7 0.2,-122.6 -54.2,-0.9 -108.5,-0.3 -162.7,-0.6 -0.1,41.2 -0.2,82.3 0.2,123.3 m 197.5,-0.2 c 53,0.6 106.1,0.3 159.1,0.4 0,-41.2 0.2,-82.3 -0.1,-123.5 -53.1,0.2 -106.2,-0.3 -159.2,0.8 0.6,40.8 0.6,81.6 0.2,122.3 M 596.102,2152 c 53.5,0.3 107.097,0.2 160.699,0.2 -0.102,-42.2 -0.102,-84.3 -0.102,-126.5 -53.597,0.6 -107.301,0.5 -160.898,0.1 0.301,42.1 0.301,84.2 0.301,126.2 M 9123.2,1607.8 c 0.1,42.3 -0.1,84.6 0.4,126.8 53.4,-1 106.9,-0.6 160.5,-0.4 -0.2,-42.1 -0.2,-84.3 -0.2,-126.5 -53.6,0.4 -107.2,0 -160.7,0.1 M 3240.5,1099.1 c 45.2,39.4 110.5,34.5 165.1,22.2 -2.8,-22.2 -6.1,-44.4 -9.9,-66.6 -19.1,4.4 -38,8.8 -56.8,13.5 -50.4,-16.4 -58.1,-72.001 -58.3,-117.598 30.4,-0.5 60.9,-0.403 91.4,-0.602 0.1,-20 0.3,-40.102 0.5,-60.301 -30.2,0.199 -60.4,0.102 -90.6,0.199 0.5,-106.699 0.4,-213.398 0,-320.097 -29.5,0.097 -59,0.199 -88.5,0.5 -0.1,106.398 -0.2,212.699 0.1,319.097 -17.8,0.403 -35.5,0.704 -53.2,0.903 -0.3,20 -0.5,39.898 -0.7,59.699 17.6,0.102 35.1,0.199 52.7,0.199 1.2,52.201 5.6,112.301 48.2,148.901 m -1004.4,23.2 c 29.2,-0.1 58.5,-0.1 87.8,0 0.3,-105.1 -0.6,-210.198 0.7,-315.3 40.6,45.602 76.6,95.301 119.6,138.602 34.4,10.398 72.9,2.699 108.8,2.199 -46.2,-53.699 -96.1,-104.102 -144.3,-156 54.4,-73.199 111.5,-144.5 163.2,-219.602 -36,-2.699 -72,-2.699 -108,-1.801 -37.7,55.204 -78.1,108.5 -116.6,163.102 -8,-8.5 -15.9,-17 -23.8,-25.699 0.6,-46 0.6,-92 0.2,-138 -29.2,0.097 -58.3,0.097 -87.4,0 -0.5,184.199 0,368.398 -0.2,552.499 m 2221.6,-0.1 c 29.6,0.1 59.2,0 88.8,0.2 2.5,-184.298 -4.7,-368.9 4.1,-553.002 -27.8,0.403 -55.5,0.5 -83.2,0.5 0.2,8.704 0.6,26.102 0.8,34.801 -71.4,-60.301 -197.2,-60.097 -251.9,22.199 -48.9,75.903 -48.9,181.801 -2,258.602 50.4,80.102 167,90.398 243.7,44 -0.5,64.301 0.1,128.5 -0.3,192.7 M 4354.1,894.301 c -62.5,-15.102 -87.8,-86.5 -83.7,-144.602 -0.2,-53.597 32,-113.699 89.4,-121.898 54.2,-3.403 97.7,49.597 97.6,101.398 0.2,38.801 6.5,80.699 -12.1,116.5 -16.8,31.903 -54.3,56.903 -91.2,48.602 M 1017.8,1090.3 c 88.2,6.8 183.3,23.8 266.5,-15.7 59.1,-29.4 75.4,-109.202 47.1,-165.401 -12.3,-25.097 -35.9,-41.199 -58.7,-56 27.2,-14.5 56.8,-29.597 72.5,-57.5 39.7,-67.699 19.1,-172 -57.1,-204.699 -85,-36.398 -180.3,-24.301 -270.1,-20.301 -0.4,173.199 0,346.403 -0.2,519.601 m 88.8,-53.6 c 0,-53.501 0,-107.098 0.1,-160.7 45.1,0.398 98.9,-1.602 130.4,36.801 28,29.597 22.9,80.398 -8.9,104.999 -34.8,26.1 -80.8,22.1 -121.6,18.9 m 0.1,-218.501 c -0.1,-63.898 -0.1,-127.898 -0.1,-191.898 46.8,-3.301 100.2,-2.699 137.4,30.097 39.6,33.102 37.9,102.602 -3.9,133.204 -37.6,30.097 -88,28.796 -133.4,28.597 M 6479.6,1040.4 c 36.4,64.9 125.8,75.7 189.5,49.6 51.6,-21.6 71.6,-86.2 55.8,-137 -13.2,-51 -61.9,-79.602 -104,-104.801 35.5,-41.898 71.7,-83.199 108.7,-123.898 19.1,43.097 32.7,88.5 39.7,135.199 28.2,0.602 56.5,0.699 84.8,0.898 -12.3,-68.199 -30.1,-137.296 -71,-194.597 28.9,-30.602 58.1,-61.102 84.1,-94.403 -35.4,-1.699 -70.7,-1.699 -106,-1.699 -12.4,13.403 -24.6,26.801 -36.5,40.301 -52.6,-38.898 -119.6,-52.801 -184,-44.898 -51.4,3.796 -102.8,33 -124.5,81.097 -18.2,43.102 -17.6,94 1.8,136.5 16.7,35.403 48.8,59.699 80.8,80.602 C 6465.1,914.699 6448,984 6479.6,1040.4 m 88.1,-8.6 c -41.5,-36.8 -18.7,-94.8 6.6,-133.999 36.3,20.699 81.1,53.301 72.3,101 -4.5,36.199 -50.6,64.799 -78.9,32.999 m -72.4,-279.999 c -18.5,-49.102 12.6,-108.699 62.7,-123.301 43.1,-16.898 85.8,10.801 120.1,34.398 -47.4,48.602 -90.5,101.204 -137.4,150.204 -17.6,-18.403 -37.6,-36.204 -45.4,-61.301 M 3587.6,1093.9 c 29.7,0.1 59.5,0.2 89.2,0.5 -0.2,-174.9 -0.2,-349.798 0,-524.599 -29.8,0.097 -59.5,0.097 -89.2,-0.102 0.4,174.699 0.3,349.5 0,524.201 m 3513,0.1 c 36,0 72,0.1 108.1,0.2 42.3,-128.399 92.4,-254.2 129,-384.501 38.9,130.199 90.3,256.102 134.6,384.401 36,-0.2 72,-0.3 108.1,-0.1 10.2,-174.602 20.5,-349.301 32.9,-523.801 -29,-0.199 -58,-0.199 -87,0.102 -9.2,127.699 -15.4,255.597 -21.6,383.5 C 7462,826 7414.4,699.898 7368.5,573.199 c -24.4,0.199 -48.6,0.199 -72.8,0.301 -39.9,124.5 -84.8,247.398 -122.7,372.5 -7.1,-125.199 -15.5,-250.301 -21.6,-375.602 -28.8,-0.5 -57.5,-0.5 -86.2,-0.898 10.9,175 25.4,349.602 35.4,524.5 m 613,-8.7 c 20.6,13.7 51.2,12.9 72.6,0.7 24.5,-19.8 23.1,-70.2 -10.1,-80.5 -19,-3.9 -39.7,-4.7 -57.9,2.3 -27.9,14.9 -27.3,58.3 -4.6,77.5 m -2320.1,-47 c 28.3,7.2 56.8,14 85.8,18.3 0.9,-35.5 0.8,-70.998 0.7,-106.498 31.3,0 62.6,-0.102 94,-0.102 0,-20 0.1,-40.102 0.3,-60.199 -31.4,0.097 -62.7,0.097 -94.1,-0.102 1.3,-73.597 -3.5,-147.398 2.4,-220.801 -0.6,-22 19.6,-32.898 35.6,-43.296 16.8,3.097 33.8,5.796 50.8,8.199 1.2,-20.602 2.5,-41.199 4,-62 -42.6,-8.5 -88.9,-15.699 -130.3,0.898 -37.3,16.699 -48.2,60.801 -49,98 -1,73 0,146.102 0,219 -19.4,0.102 -38.6,0.102 -57.8,0 0,20.102 0.1,40.199 0.2,60.199 19.1,0.204 38.2,0.204 57.3,0.204 0,29.5 0,58.898 0.1,88.198 M 1433,924.398 c 59.2,33.204 130.8,40.801 196.5,25.602 52.7,-12.301 83,-65.699 85.6,-116.801 5.4,-87.5 -3.9,-175.699 7.9,-263 -27.7,-0.199 -55.3,-0.398 -83,-0.597 -0.3,6.699 -1,20.199 -1.3,26.898 -49.1,-36.102 -116.6,-44.102 -172.9,-21.801 -73.9,32.801 -76.7,147.801 -15.1,194 50.8,40.199 118.3,43.102 180.1,47 -4.5,28.602 -12,61.801 -41.5,74.5 -46.9,21.699 -93.7,-10.898 -138,-23.597 -6.4,19.199 -12.5,38.597 -18.3,57.796 m 87.4,-195.296 c -14.5,-12.903 -19.2,-33 -27.5,-50.102 9.8,-20.102 17.5,-46 41.7,-53.301 29.2,-8.5 60.6,9.5 78.5,31.903 23.8,28.5 15.5,67.699 16.2,101.699 -37.4,-3.699 -77.5,-7.301 -108.9,-30.199 m 363.4,188.699 c 51.5,38.801 122.1,51.5 182.4,27.097 47.9,-21.597 73.3,-74.398 75,-125.097 2.5,-83.199 -0.1,-166.403 1.2,-249.602 -29.7,-0.199 -59.3,-0.199 -89,0 -0.7,73.301 0.7,146.602 -0.3,219.801 -1.1,37.602 -13.9,84.801 -54,97.5 -52.8,15.801 -102.4,-35.801 -104.4,-86.398 -2.2,-76.903 -0.3,-153.903 -0.3,-230.903 -29.6,-0.199 -59.2,-0.301 -88.8,-0.097 -0.7,126.5 4.1,253.199 -3.1,379.597 27,0.301 54.1,0.403 81.1,0.403 0.1,-8.102 0.2,-24.204 0.2,-32.301 m 1000.9,34.5 c 65.4,11.301 142.6,3.597 189.4,-48.699 58.8,-68 62,-172.801 23.2,-251.301 -51.1,-93.301 -181.9,-111.5 -270.7,-65.403 -75.6,43.301 -98.7,141 -81.5,221.403 10.4,71.097 68,133 139.6,144 m 29.3,-58.102 c -107.8,-36.097 -112.9,-213.898 -13.5,-263 30.1,-16.801 65.8,-2.097 89.5,18.903 53.6,55.296 56.4,149.296 10.5,210 -20.3,24.597 -54.2,43.097 -86.5,34.097 m 2195.5,47.403 c 58.5,25.199 128,18.5 185.1,-8 -7.1,-20.403 -14.1,-40.704 -21.5,-61.102 -32.5,8.699 -64.6,29.398 -99.1,21.801 -27.9,-6.199 -51.5,-45 -25.7,-67.199 33.3,-30.204 81.3,-35.801 116.6,-63.204 62,-45 50.4,-157.398 -22,-186 -65.8,-25 -142.4,-19.398 -205.8,10.403 6.9,21.398 13.1,43.097 22.5,63.5 42.2,-9.903 86.3,-44.403 130.2,-20.903 27.9,12.403 37.6,51.204 14.6,73 -37,33.204 -92.7,36.403 -127.7,73.204 -47.6,47.597 -28.1,137.5 32.8,164.5 m 603.6,-29.301 c 30.6,36.199 77.7,50.898 124.1,43.699 4.1,-23.602 3.1,-47.699 3,-71.699 -57.1,11.199 -108,-33.5 -113.7,-89.199 -6,-74.903 -1.1,-150.301 -2.4,-225.403 -29.4,0.199 -58.9,0.199 -88.2,0 -1.2,126.602 3.8,253.403 -3.5,379.903 27.3,0.398 54.6,0.5 81.9,0.5 -0.4,-12.5 -0.8,-25.102 -1.2,-37.801 m 2250.1,3.398 c 56.3,46.699 146,58.699 206.8,14.403 36.7,-28.301 51,-75.903 51.9,-120.704 1,-79.699 -0.4,-159.5 0.5,-239.199 -29.7,-0.199 -59.4,-0.199 -89,0 -0.7,73.199 0.6,146.301 -0.3,219.301 -0.4,40.602 -17,92.102 -62.4,100.398 -50.8,7.301 -94.2,-41.398 -96.1,-89.597 -2,-76.602 -0.3,-153.301 -0.2,-230 -29.6,-0.301 -59.2,-0.403 -88.7,-0.602 -0.8,126.699 3.9,253.5 -3.1,380 27,0.403 54.1,0.403 81.3,0.403 -0.2,-8.602 -0.5,-25.801 -0.7,-34.403 m -4190.6,34 c 27.2,0.403 54.4,0.403 81.6,0.403 -0.3,-8.602 -0.9,-25.801 -1.3,-34.403 50.8,41.199 122.8,53.602 183.7,29.102 47.2,-21.801 73,-73.903 74.6,-124.301 2.6,-83.398 -0.4,-166.801 1.4,-250.199 -29.7,-0.301 -59.3,-0.5 -89,-0.801 -1.1,73.602 0.6,147.199 -0.5,220.699 -0.3,41 -17.7,91.102 -63,100.102 -50.2,6.301 -92.9,-41.199 -95.5,-89 -1.9,-77.199 -0.1,-154.403 -0.6,-231.602 -29.4,0.199 -58.8,0.199 -88.1,0 -1.5,126.699 3.7,253.5 -3.3,380 M 4643.3,950 c 29.6,0.102 59.2,0.102 88.9,0 0.2,-70.199 -0.4,-140.398 -0.1,-210.602 0.2,-37.097 7.6,-81 41.4,-102.5 52.8,-27.597 115.6,28.102 114,82.602 1.2,76.898 -0.2,153.699 0.3,230.5 29.6,0.102 59.3,0.102 89,-0.102 1.7,-126.699 -4.4,-253.699 4,-380.296 -27.7,0.199 -55.4,0.398 -83.1,0.699 0,8.5 0.1,25.5 0.1,34 -57.8,-48.199 -153.5,-60.403 -212.5,-9 -33.4,31.898 -40.7,80.5 -41.9,124.5 -0.4,76.699 0.2,153.5 -0.1,230.199 m 1212.1,-0.102 c 32.4,0.204 64.8,0.204 97.3,0.102 31.4,-85.102 63.5,-170 94.3,-255.398 30.6,84.5 58.8,169.796 86.7,255.199 31.8,0.301 63.5,0.301 95.4,-0.102 -22.3,-65.801 -48.9,-130.097 -73.3,-195.199 -32.5,-82.602 -59.9,-168.102 -104.9,-245.102 -33,-55.5 -87.3,-106.5 -155.4,-108.199 -6.3,21.602 -12.6,43 -18.7,64.5 56.3,21.301 100.9,66.5 122.7,122.403 -47.6,120.796 -98.3,240.398 -144.1,361.796 m 1850.7,0.204 c 29.2,0 58.5,0.097 87.8,0 0.2,-126.602 -0.6,-253.301 0.5,-380 -29.7,-0.204 -59.3,-0.102 -88.8,0.097 1,126.602 0.2,253.301 0.5,379.903 m 622.4,-58.301 c 49.6,68.801 149.8,79.801 224.2,50.301 73.4,-34.903 89,-125.301 83.6,-198.5 -88.2,-0.602 -176.4,0.398 -264.6,-0.5 8.2,-38.704 19.9,-82.602 58.4,-102.102 53.4,-34.5 117.7,-10.898 173.3,4.102 4.7,-20.301 8.9,-40.602 13.1,-61.204 -62.9,-20.199 -130.6,-26.398 -195.7,-14.796 -51.3,10.296 -98.3,45.699 -116.7,95.398 -28.4,73.398 -20.9,162.199 24.4,227.301 m 46.2,-91 c 59.3,-1 118.7,-0.801 178.2,-0.199 -7,40.699 -25.4,89.097 -71.6,96.898 -57.7,9.801 -94.3,-48.301 -106.6,-96.699"
         style="fill:#446272;fill-opacity:1;fill-rule:nonzero;stroke:none"
         id="path14" />
    </g>
  </g>
</svg>
