<?xml version="1.0" encoding="UTF-8" standalone="no"?>
<!-- Created with Inkscape (http://www.inkscape.org/) -->

<svg
   version="1.1"
   id="svg2"
   width="800"
   height="800"
   viewBox="0 0 800 800"
   sodipodi:docname="Sarmayeh-logo.eps"
   xmlns:inkscape="http://www.inkscape.org/namespaces/inkscape"
   xmlns:sodipodi="http://sodipodi.sourceforge.net/DTD/sodipodi-0.dtd"
   xmlns="http://www.w3.org/2000/svg"
   xmlns:svg="http://www.w3.org/2000/svg">
  <defs
     id="defs6" />
  <sodipodi:namedview
     id="namedview4"
     pagecolor="#ffffff"
     bordercolor="#000000"
     borderopacity="0.25"
     inkscape:showpageshadow="2"
     inkscape:pageopacity="0.0"
     inkscape:pagecheckerboard="0"
     inkscape:deskcolor="#d1d1d1" />
  <g
     id="g8"
     inkscape:groupmode="layer"
     inkscape:label="ink_ext_XXXXXX"
     transform="matrix(1.3333333,0,0,-1.3333333,0,800)">
    <g
       id="g10"
       transform="scale(0.1)">
      <path
         d="m 5990.2,6000 h 9.8 V 58.8008 l -9.9,-0.1992 C 5990.6,2039.1 5990.4,4019.5 5990.2,6000 m -3689,-1861.3 c 464.2,268.3 1009.4,377.5 1542.1,352.2 0.2,-177.7 0.3,-355.4 0,-533.1 0.2,-200.9 -0.3,-401.8 0.2,-602.7 -185,4 -370.3,-12.3 -553.6,-35.9 -278.3,-39.3 -553.2,-108.2 -813.4,-215.2 -313.5,-130.4 -607,-322.2 -825.2,-585 -113.9,-134.3 -204,-287.3 -275.6,-447.8 13.9,206.4 29.6,412.6 46.3,618.7 3.7,116.8 21.8,232.6 25.4,349.3 5.3,93.5 18.9,186.4 20.3,280 -1.4,28.4 10.6,54.1 26.8,76.5 153.4,233 354.9,431.9 579.3,596.4 73.2,52.7 149.2,101.6 227.4,146.6 M 892.5,27.5 c 5.5,-5.5 5.5,-5.5 0,0"
         style="fill:#a7a7a7;fill-opacity:1;fill-rule:nonzero;stroke:none"
         id="path12" />
      <path
         d="m 4367.1,5632.3 c 45.8,71.2 83.5,147 122,222.2 2.5,-401.1 1,-802.2 0.8,-1203.3 -179.1,-261.8 -397.9,-496.5 -646.6,-693.4 0.3,177.7 0.2,355.4 0,533.1 -532.7,25.3 -1077.9,-83.9 -1542.1,-352.2 -78.2,-45 -154.2,-93.9 -227.4,-146.6 -1.2,204.4 0.4,408.8 -0.8,613.2 327.9,-19.8 658.5,17.5 976,100.4 290.7,77.9 571,202.1 813.5,381.7 199.8,148.5 372.8,333.6 504.6,544.9 M 3115.6,3173.1 c 139.1,19.8 285.3,-14.2 399.3,-96.9 105.6,-75.9 184.4,-189.7 213.9,-316.7 41.5,-146.7 8.7,-308.7 -73.1,-435.6 -86.5,-134.6 -234.9,-228.1 -394.2,-246 -128,-16.9 -261.6,13.1 -369.7,83.8 -117.3,75.3 -205.5,196.8 -236.1,333.1 -39,146.6 -8.7,308.5 73.8,434.9 86.2,130.8 229.7,225.1 386.1,243.4 M 5594.4,1995.4 c 99,94.3 196.4,190.3 294.8,285.3 -32.7,-145.1 -146.5,-250.9 -247.3,-352.4 -194.5,-184.6 -413.7,-340 -622.3,-507.8 -29.4,-19.8 -53.8,-49.2 -87.9,-60.7 l -4.2,2.9 c 26.8,97.9 106,166.6 181.8,228.2 160.3,136.5 331.8,259.8 485.1,404.5 m -795.1,-287.3 c 28.3,61.2 53.9,124.1 92.1,180.1 47.1,-28.3 101.8,-67.1 102.2,-128.1 -10.7,-54.2 -34.2,-112.9 -84.1,-142.1 -39.9,25.7 -78.2,55.1 -110.2,90.1 M 4055,1436 c 90.6,56.1 182.3,119.5 288.9,138.9 -22,-61 -51.6,-125.2 -106.3,-163.3 -49.6,-23.8 -103.8,-38.7 -149.5,-70.5 -138.3,-97 -273.9,-197.7 -412,-294.9 C 3497.3,923 3304.8,820.801 3106.7,732.602 c -284.5,-128.403 -596.6,-184.301 -906.8,-199 -86.2,-5.602 -172.4,-1.801 -258.4,3.597 -114,10.403 -229.4,24.301 -336.3,67.602 -14.1,9.801 -29.5,-0.903 -35.1,-14.699 -53.8,-96.903 -90.1,-209 -177.1,-282.903 -31.2,-27 -89.1,-51.301 -117.2,-7.898 11.1,33.898 30.7,64.199 56.5,88.801 106.8,103.398 175.4,237.398 244.7,367 22,43.398 73.8,74.5 122.5,60.699 89.7,-23 179.4,-48.5 271.8,-57.699 192.5,-27.704 387.1,-8 579.5,10 127,18.5 254.1,38.597 377.4,74.796 199.2,56.602 390,140.403 571.9,238.702 193.5,104.5 369.3,237.4 554.9,354.4 M 1150.1,1260.9 c 25.1,65.9 47.6,134.9 87.7,193.4 -10.3,-152.1 -44.2,-301.6 -56.8,-453.7 -3.8,-72.6 -19.3,-149.901 11.6,-218.901 10.8,-25 37.6,-37 63.1,-41 16.6,37.199 31.9,74.903 46.4,112.903 27.3,-10.403 53.2,-30.602 57.4,-61.403 7.1,-72.398 -14.3,-147 -55.4,-206.597 -26.8,-40.801 -81.3,-66.403 -128.6,-47.801 -49.3,25.801 -81.8,78.097 -86.4,133.097 -5.2,53.204 -3,106.903 1.7,160 15.1,143.903 31.6,287.902 59.3,430.002 m 3760.6,76 c 2,0.4 5.9,1.1 7.9,1.5 1.5,-2.9 4.7,-8.8 6.2,-11.8 -15.4,-106.8 -46.3,-210.8 -58.6,-318.2 -15.1,-88.4 -15,-178.4 -11.9,-267.798 4.7,-50.204 51.2,-83.102 98.8,-87.102 40.8,27.398 38.8,81.5 68.4,116.398 13.7,-32.699 1.7,-68.199 -5.3,-101.097 -17.7,-62 -33.3,-127.699 -75.1,-178.5 -31.2,-40.102 -98.6,-39.699 -130.4,-1 -27.1,30 -34.2,71.301 -40.3,109.699 -13,88.699 9.4,176.801 15,265.102 -49.7,-51.403 -80.1,-118.301 -132.7,-167.301 -133.5,-142 -325.1,-210.602 -512.4,-246 -148.5,-19.602 -302.3,-36.699 -449.2,1.898 -53.5,13.301 -93.2,62.801 -94,118 0,75 -8.3,154.403 24.6,224.403 33.1,-34.903 22.6,-98.602 67.6,-124.602 45.1,-25.699 98.3,-33.898 149.7,-35.301 89.9,-4.5 180,-1.199 270,3.102 175.5,19.398 354.4,60.398 503.5,159.199 70.2,48.398 133.7,111.602 167.2,191.301 29,64.599 35.2,136.299 59.4,202.499 22.4,49.2 43.8,99.1 71.6,145.6 m 317.9,-268.3 c 9.6,90.5 48,175.8 93.5,253.5 2.5,-71.8 -19.5,-141.4 -23.8,-212.8 -17.6,-115.101 -35.6,-231.402 -33.1,-348.198 0.6,-55.204 44,-112.403 103.8,-104.102 34.6,22.199 39,65.699 55.9,99.699 4.7,2.5 14.1,7.699 18.8,10.199 -2.2,-72.296 -23.4,-143.5 -49.9,-210.398 -19.1,-39.602 -42.9,-90.602 -92.2,-96 -40.5,-5.398 -80.3,18.801 -95.5,56.199 -23.4,50.699 -23.5,108.602 -22.8,163.301 6.6,130.398 23.2,260 45.3,388.6 M 871,740.199 c 47.102,16.5 59.699,72.699 101.699,96 9.102,-39.301 -12.301,-75.801 -26,-111.301 -32.398,-74.699 -79.5,-153 -159.398,-183.296 -40.903,-18.903 -85.102,1.699 -127.301,0.597 -33,-6.5 -63.398,-22.398 -89.898,-42.699 -15.602,-10.602 -30.301,-27.5 -51.301,-22.102 0.199,51 35.301,90.704 63.898,129.301 45.199,56.199 98.699,114.801 172.199,130.602 38.5,0.301 79.5,-17.301 116.102,2.898 M 806.602,171.102 c 31.597,66 57,135.699 101.296,194.699 C 955.301,333.398 1014.5,294.5 1013.8,229.898 1008.9,183.5 986.102,139.699 957.898,103 947.801,87.8008 924.398,73.1992 907.602,87.5 872,112.801 838.699,141.398 806.602,171.102 M 598.5,160.301 c 32.102,64.898 56,134.5 100.199,192.699 C 747,322.199 802.801,282.398 806.801,219.898 796.301,159.699 768.398,95.3008 713.102,63.3984 674.602,95.5 632.398,123.199 598.5,160.301 m 4732.1,177.398 c 40.1,-30.898 95.1,-60.801 99.7,-117.199 1.3,-61.102 -33,-121.8984 -82.3,-157.1992 C 5310.6,94 5266.8,118.102 5237.2,157.301 5268.3,217.5 5293,281 5330.6,337.699"
         style="fill:#214b6a;fill-opacity:1;fill-rule:nonzero;stroke:none"
         id="path14" />
    </g>
  </g>
</svg>
