<?xml version="1.0" encoding="UTF-8" standalone="no"?>
<!-- Created with Inkscape (http://www.inkscape.org/) -->

<svg
   version="1.1"
   id="svg2"
   width="1433.3333"
   height="1226.6667"
   viewBox="0 0 1433.3333 1226.6667"
   sodipodi:docname="Shahr-logo.eps"
   xmlns:inkscape="http://www.inkscape.org/namespaces/inkscape"
   xmlns:sodipodi="http://sodipodi.sourceforge.net/DTD/sodipodi-0.dtd"
   xmlns="http://www.w3.org/2000/svg"
   xmlns:svg="http://www.w3.org/2000/svg">
  <defs
     id="defs6" />
  <sodipodi:namedview
     id="namedview4"
     pagecolor="#ffffff"
     bordercolor="#000000"
     borderopacity="0.25"
     inkscape:showpageshadow="2"
     inkscape:pageopacity="0.0"
     inkscape:pagecheckerboard="0"
     inkscape:deskcolor="#d1d1d1" />
  <g
     id="g8"
     inkscape:groupmode="layer"
     inkscape:label="ink_ext_XXXXXX"
     transform="matrix(1.3333333,0,0,-1.3333333,0,1226.6667)">
    <g
       id="g10"
       transform="scale(0.1)">
      <path
         d="m 6304.5,8513.8 c 245,65.9 508.1,-136.6 534.2,-383 9,-78 -10.5,-156.6 -40.3,-228.2 -99.7,-218 -395.1,-314.7 -605,-200 -91.7,53.1 -171,134.8 -203,237.6 -52.5,160.1 -9.8,349.8 112.4,467.2 54.9,54.9 128.6,84.3 201.7,106.4 m -989.8,-279.6 c 257.1,48.7 520.3,-184.1 509.7,-444.2 -7.5,-90.1 -33.4,-182.4 -90.7,-254.1 -135.3,-170.9 -404.8,-221.7 -588.2,-99.7 -83.6,57.7 -153.3,140.7 -178.1,241 -43.8,164.4 10.5,353.6 141.6,463.9 58.1,49.8 131.9,76.4 205.7,93.1 m -949.9,-450.4 c 234.3,52.9 492.2,-124.6 524.6,-363 9.1,-94.6 -1.7,-195.4 -51.5,-278.3 -91.1,-153.9 -279.3,-244.4 -456.4,-217.9 -94.5,13.1 -176.6,68.8 -244.9,132.4 -164.6,169.4 -144.7,471.6 28.7,627.6 55.8,50.7 127.5,80.1 199.5,99.2 m 1618.7,-359.1 c 378.4,115.4 768.4,189.7 1161.1,235.2 0.9,-249.7 3.9,-499.3 8.3,-748.9 -564.5,-59.4 -1132.3,-160.6 -1655.5,-388.6 -2.9,-13.7 -5.8,-27.5 -8.6,-41.2 166.4,-63.8 349.6,-44.8 519.5,-94.1 91.8,-30.6 185.5,-59.2 268.1,-111 164.5,-98.5 298,-255.7 349.5,-442.1 21.3,-72.7 23.8,-148.8 26.6,-224 3.3,-152.9 -42,-304.1 -117.2,-436.3 -87.9,-155.1 -212,-286.9 -349.6,-398.9 -130.9,-107.4 -278.3,-192.1 -425.5,-274.7 -658.2,-361.7 -1396,-562.1 -2139.9,-643.9 1.4,252.9 -7.3,505.8 -4.3,758.7 406.8,32.5 813.8,92.3 1204.4,213.7 309,95.7 607.1,232.2 872.4,418.3 121.3,86.4 230.1,196.8 290.5,334.8 -60.1,80.4 -152.9,130.3 -249.9,150.9 -115.9,26 -235.3,24.5 -353.3,29.9 1,209.4 18.7,419.2 0.8,628.3 -1,23 -9.2,44.6 -17.7,65.6 -159.6,-100 -324.9,-196.3 -457.2,-332.4 -44.9,-45 -87.6,-98.2 -96.5,-163.2 -7.8,-45.1 13,-95.1 54.6,-116.5 111,-62.7 240.9,-76.1 365.9,-83.8 51.4,-2 102.6,-8.6 154.2,-7.9 -2.4,-227.3 -5,-454.7 -6.2,-682 -204.7,-5.7 -412.1,3.7 -610.7,57.2 -151.7,40.8 -297.8,109.6 -417,213 -118.4,103.9 -194.2,251 -222.9,404.9 -37.1,197.6 -4.3,408.2 93.3,584.3 95.1,164.4 226,306.3 374.8,423.7 126.9,100.6 265.8,185.3 408.6,261.3 313.7,164.7 639.6,308 979.4,409.7 M 7175.6,3483.2 c 103.6,100.6 197.9,212.4 318.2,294 13.3,-332.3 -3.7,-665 4.6,-997.5 5.2,-96.2 85.4,-182 181,-193.9 140.7,-18.6 282.9,-5.4 424.3,-7.9 0.9,-147.8 0.3,-295.7 0.2,-443.5 -157.7,3 -315.3,-2.2 -472.9,1.8 -135.4,4.3 -256.6,91.1 -325.7,204.2 -64.8,-81.2 -143.1,-158.6 -244.1,-191.5 -48.7,-16.4 -100.6,-13.8 -151.1,-13.7 -357,-0.1 -713.9,-0.2 -1070.8,0.3 -0.1,147.3 -2.1,294.7 2,441.9 379.6,-0.5 759.1,-0.5 1138.7,-0.1 70.7,0.2 146.4,22.1 193.9,77.1 37.6,42.8 39.1,102.5 46.3,156 21.6,225.6 -33.4,448.4 -44.6,672.8 m 1051.3,30.3 c 92.3,91.2 182.7,184.9 285.3,264.7 23.3,-328.9 -2.4,-658.6 8,-987.8 0.9,-98.9 80.6,-191.4 179.2,-204 161.6,-19.3 324.7,-6.7 487,-7.7 5,-147.9 1.4,-295.8 2.4,-443.8 -193.3,5.6 -387.3,-10.6 -580.1,8 -112.8,21.3 -209.8,97.2 -273.5,190.7 -70.5,104 -105.4,232.2 -95.4,357.5 12.3,229.8 -0.6,460.4 -29.9,688.5 -2.5,44.2 -20.8,99.3 17,133.9 M 2585.6,3144.9 c 77.7,95.7 166.6,190.5 284.9,234.5 57.8,-27 93.4,-82.2 121.8,-136.9 69.6,-132.3 131.2,-271.9 154.6,-420.7 18.2,-122.3 5.5,-250.7 -42.5,-365.1 -33.3,-77.1 -87.7,-147.2 -161.1,-189.6 -68.5,-37.9 -147.5,-47.2 -222.6,-64.5 62.2,-128.1 137.2,-251.9 237.7,-353.8 20.3,-19.9 43.6,-39.9 72.5,-45.2 18.3,-4 35.2,9.8 39.9,26.9 50.2,139.2 39.8,293.8 99.5,430.2 54.8,116.9 147.4,217.7 263.9,274.7 98.2,46.8 210,42.7 316.1,41.9 635.9,0 1271.8,-0.9 1907.6,0.5 1,-147.9 -0.4,-295.8 0.6,-443.6 -676.1,2 -1352.2,0.9 -2028.2,0.7 -80.3,-0.9 -161.7,2.4 -240.6,-15 -56.7,-12.6 -114,-47 -134.7,-104 -28.5,-78.3 -9.8,-164.7 20.1,-239.8 38.2,-100.1 111.6,-187.1 125.7,-295.9 6.6,-46 0.7,-102.1 -43.5,-128.1 -77.2,-42.8 -170.6,-64.9 -257.8,-42.6 -93.4,22.8 -174.7,80.7 -238.5,151.1 -183.7,196.4 -298.9,448.3 -360.1,708.2 -114.7,-2.6 -229.6,7.2 -342.7,26.9 2,-196.9 -17.5,-405.9 -128,-574.9 -93.3,-147.4 -242.5,-272.8 -420.9,-292.5 -201.4,-20.1 -398.5,47.7 -578.4,131.8 -1.4,13.6 -2.9,27.1 -4.2,40.5 207.7,53.3 428.4,75.7 617.1,185 129.5,67.6 250.4,170.7 300.1,312.1 26.3,87.6 46.5,188.8 -2.9,272.4 -56,94.3 -166.5,133.4 -239.8,211 -30.4,34.3 -55.9,82.1 -41.8,128.8 31.7,128.4 116.3,233.3 189.1,340.6 103.2,-122.7 199,-261.3 345.4,-336.2 73.5,-41 160.1,-37.3 241.5,-39.1 -3.3,197.7 27,408.5 150.2,569.7 m 43.4,-571.4 c 107.9,3.8 213.8,26 319.4,46.5 1.1,155.6 -79.2,300.2 -186.4,408.3 -101.7,-127.3 -139.5,-294.4 -133,-454.8 m 3891.5,755.7 c 50.5,21.6 112.2,31 161.9,2.2 35.9,-19.6 74.4,-48.3 81.2,-91.6 4.1,-23.3 -12.9,-41.6 -25.4,-59.1 -71.5,9.4 -140.6,47.5 -213.8,32.7 -37.2,-10.4 -86.9,-37.5 -76.2,-83.9 17,-66.6 82.8,-116.4 151.4,-116.2 80.5,0.2 153,39.7 229.3,60 -1.8,-46.7 -6,-93.2 -7.8,-139.9 -104,-21.2 -211,-51.1 -293.5,-121.2 -51.3,-38.1 -88.5,-94.3 -147.2,-122.2 -14.2,-9.8 -30.6,0.5 -42.9,7.9 -34.4,24 -51.8,63.9 -72.5,98.9 9.2,16.6 16.8,34.2 28.4,49.3 42.7,24.9 88.6,44 132.7,66.3 -39,39.4 -83.5,77.2 -103.9,130.2 -13,31.7 -7.4,67.8 9.3,97 42.2,79.7 105.4,152.3 189,189.6 M 4154.6,3173.4 c 131.1,35.6 283.8,-74.1 276.1,-213.6 2.9,-102.2 -82.3,-189.3 -179.4,-207.8 -99.5,-23.9 -212.8,36 -245.9,133.5 -25.1,71 -13,154.9 33.7,214.4 28.7,36.8 71.4,60.3 115.5,73.5 m 620.3,-1.6 c 109.4,32.1 233.8,-36.9 270.8,-143.2 25.2,-72.9 4.2,-159.5 -51.1,-213.1 -58.4,-56.6 -147.4,-82.2 -226.2,-59.5 -45.4,12.5 -84.3,42.6 -113.1,79.1 -61.3,81.8 -50.1,206 19.8,279.1 27,28.3 63.1,45.8 99.8,57.6 m 610.3,1.1 c 120.4,31.6 261.1,-55.7 273.5,-182.3 22,-129.2 -101,-252.4 -228.8,-243.8 -110,3.6 -214.1,100.8 -209.4,213.9 -4.6,98.4 70.9,188.7 164.7,212.2 m 2439.5,-0.5 c 71.7,17.6 151.9,-0.3 207.5,-49.6 36.4,-31.3 58.4,-76.6 69.2,-122.8 19.9,-103.3 -51.5,-212.8 -151.5,-241.9 -109.1,-37.1 -241.1,27.5 -276.7,137.5 -40.8,113.1 34.3,250.1 151.5,276.8 m 980,-1429.4 c 127.8,35.5 266.9,-73 274.2,-202.8 3.7,-48.9 -15.8,-96.2 -42.2,-136.2 -52.7,-73 -152.8,-101.3 -238.3,-80.2 -89.4,19.8 -160.3,104.8 -161.9,196.6 -3.8,101.1 67.6,201.4 168.2,222.6 m -5118.6,-54.2 c 80.7,0.6 162.1,9 242.3,-4.6 39.5,-5.6 68.3,-45.2 65,-84.4 0.3,-33.9 -18.9,-63.3 -41,-87.3 26.7,-24.2 48.7,-55.5 51.7,-92.5 6.2,-41.9 -21.2,-89.4 -64.7,-96.4 -83.9,-13.3 -168.9,-4.8 -253.3,-5.5 1.4,123.6 1.3,247.1 0,370.7 m 421.2,-371.9 c 47.8,125.1 95.3,250.3 141,376.1 33.9,-2.7 70.2,1.8 102.2,-11.3 53.4,-118.3 88.7,-244 135.9,-364.9 -38.9,0.3 -77.7,0.4 -116.6,0.4 -24.4,70.9 -47.2,142.4 -69,214.2 -28.3,-71 -55.9,-142.1 -82.7,-213.7 -36.9,-0.3 -73.9,-0.5 -110.8,-0.8 m 539.1,374.3 c 31.9,0.3 63.8,0.7 95.8,1.4 43.1,-56.9 84.2,-115.2 126.2,-172.9 -0.3,57.5 -0.4,114.9 -1,172.4 35,-0.5 70,-1.9 105.1,-3.9 -0.5,-123.3 -0.8,-246.7 0.6,-370.1 -34.4,-0.5 -68.7,-1 -102.9,-1.6 -40.9,55.2 -81.7,110.5 -123.2,165.2 0.2,-54.6 0.6,-109.3 1.1,-163.9 -34.1,-0.3 -68.1,-0.6 -102.1,-1 0.1,124.8 -0.3,249.6 0.4,374.4 m 511.7,0.6 c 35,-0.4 70,-0.8 105,-1.2 -0.3,-49.2 -1.3,-98.3 -1.6,-147.5 39.3,45.8 73.8,96.5 119.8,136.1 38.3,20.4 84.4,10.4 126.1,14.2 -42.7,-55 -84.5,-110.7 -128.3,-164.8 46.7,-72.5 97.2,-142.6 145.4,-214.2 -44,1 -88.2,0.8 -131.8,7.8 -50.8,59 -96.3,122.5 -134.4,190.4 -1.2,-65 2,-129.9 3.4,-194.9 -34.6,-0.7 -69.1,-1.4 -103.6,-2.1 0,125.4 0,250.8 0,376.2 m 739.2,-20.4 c 67.7,24 146.7,31.5 213.4,0.3 36.7,-16.8 60,-52.3 70.5,-90.3 -60.4,-8.6 -113.2,26.7 -171.4,33.3 -27.7,3.9 -51.3,-12.4 -72.1,-28.1 64.7,-31.7 140.8,-36.1 200.6,-78.2 37.6,-26 58.2,-85.1 27,-123.5 -82.3,-113.1 -294.8,-91.8 -338.4,46.9 35.9,0.5 71.9,0.1 107.6,-4.5 20.4,-19.7 45.5,-37.8 75.3,-36.7 31,-2.4 56.2,17.7 77.6,37.2 -66.7,38.2 -143.8,51.9 -211.6,87.2 -56.7,37.2 -39.1,132.9 21.5,156.4 m 444.5,19.9 c 35.4,-0.1 70.9,-0.4 106.4,-0.7 0.2,-124.3 -0.8,-248.7 0.3,-373 -35.6,0 -71.2,0.1 -106.7,0.2 0.2,124.5 0.2,249 0,373.5 m 224.8,-0.2 c 33.9,0.2 67.9,0.4 101.9,0.6 0,-124.6 -0.5,-249.3 1,-373.9 -34.7,-0.2 -69.3,-0.4 -103.9,-0.7 0.4,52 1.1,103.9 1.6,155.7 -29.6,-1.2 -59.2,-2.6 -88.7,-4.3 0,22.5 -0.1,45.1 0,67.5 29.8,0.9 59.6,1.7 89.5,2.2 -0.6,51 -1.5,101.9 -1.4,152.9 m 393.6,-3.4 c 36.2,0.8 72.5,1.5 108.9,1.4 41.2,-125.2 88.1,-248.4 134.5,-371.7 -39.8,0.1 -79.6,0.3 -119.3,-1 -24.6,70 -43.2,142.1 -71.9,210.6 -26.1,-68.7 -50.7,-138 -74.7,-207.5 -38.1,-1.3 -76.2,-2.4 -114.3,-3.7 47.1,123.4 93.9,247 136.8,371.9 m 342.4,4.1 c 33.7,-0.3 67.5,-0.5 101.4,-0.8 0.8,-124.5 -0.5,-249.1 1.2,-373.6 -34.3,0.2 -68.6,0.3 -102.8,0.4 0.1,124.7 -0.1,249.3 0.2,374 m 221.5,-1 c 34.9,0 69.9,0.1 105,0.4 1.1,-124.3 -2.8,-248.8 2.2,-373.1 -35.7,-0.5 -71.5,-0.9 -107.1,-1.3 -0.3,49.7 -0.8,99.3 -0.7,148.9 -26.2,3.2 -56.5,0 -77.7,18.5 -14,13.4 -10.3,34 -11.9,51.2 30,0.9 60.1,1.3 90.2,1.6 -0.1,51.3 -0.5,102.6 0,153.8 m 242.9,-2.2 c 92.2,-6.3 188.5,22 277.3,-13.3 34.5,-10.8 58.1,-47.6 51.8,-83.5 -5.6,-38 -34.2,-66.3 -62.8,-89.3 53.3,-46.5 61.5,-120.1 69.8,-185.9 -37.8,0.5 -75.6,1 -113.3,1.6 -1.6,62.1 -19.4,140.2 -89,157.5 -1.6,14.7 -2.9,29.2 -4,43.6 30.8,12.1 69.8,18.9 87.1,50.4 3,15.2 -6,28.4 -11.3,41.6 -35.4,1.8 -70.7,4.3 -106.1,5.7 -0.4,-99.9 -0.5,-199.8 1.1,-299.6 -33.7,0.3 -67.4,0.6 -101.1,1 1,123.4 0.8,246.8 0.5,370.2"
         style="fill:#df343a;fill-opacity:1;fill-rule:nonzero;stroke:none"
         id="path12" />
    </g>
  </g>
</svg>
