<?xml version="1.0" encoding="UTF-8" standalone="no"?>
<!-- Created with Inkscape (http://www.inkscape.org/) -->

<svg
   version="1.1"
   id="svg2"
   width="1653.3333"
   height="1345.3333"
   viewBox="0 0 1653.3333 1345.3333"
   sodipodi:docname="Shaparak-logo.eps"
   xmlns:inkscape="http://www.inkscape.org/namespaces/inkscape"
   xmlns:sodipodi="http://sodipodi.sourceforge.net/DTD/sodipodi-0.dtd"
   xmlns="http://www.w3.org/2000/svg"
   xmlns:svg="http://www.w3.org/2000/svg">
  <defs
     id="defs6" />
  <sodipodi:namedview
     id="namedview4"
     pagecolor="#ffffff"
     bordercolor="#000000"
     borderopacity="0.25"
     inkscape:showpageshadow="2"
     inkscape:pageopacity="0.0"
     inkscape:pagecheckerboard="0"
     inkscape:deskcolor="#d1d1d1" />
  <g
     id="g8"
     inkscape:groupmode="layer"
     inkscape:label="ink_ext_XXXXXX"
     transform="matrix(1.3333333,0,0,-1.3333333,0,1345.3333)">
    <g
       id="g10"
       transform="scale(0.1)">
      <path
         d="m 2216.7,9150.2 c -0.1,26.8 28.5,41.6 52.4,39.8 927.1,0.1 1854.2,-0.2 2781.3,0.2 36.7,1.8 73.2,-4.3 109.9,-5.3 1687.2,0.4 3374.3,-0.1 5061.5,0.3 -4,-26.1 -9.4,-51.8 -13.1,-77.8 -132.7,-5.7 -265.7,-0.8 -398.4,-2.4 -1038.1,0.6 -2076.1,-1.4 -3114.1,1 -12.1,2.6 -24.2,4 -36.3,4.1 -1463.4,-0.3 -2926.7,0 -4390.1,-0.1 -24.2,-2 -53.5,12.9 -53.1,40.2 M 5476,8974 c 203.1,8.3 407.4,12.4 610.1,-7.3 76.3,-5.8 151.2,-22.4 223.8,-46 1298.3,-1.7 2596.8,-0.2 3895.1,-0.7 0,-25 -0.1,-50 0,-75 -1278.2,-0.1 -2556.4,-0.1 -3834.6,0.1 -73.7,5.4 -143.3,-24.2 -216.4,-28.9 -36.7,-3.7 -73.8,-4.3 -110.1,-10.3 -33.2,-1.7 -66.6,0.7 -99.6,-3.9 -68.6,-6.3 -137.7,2.8 -206.2,-5.2 -31.4,-3.6 -63.1,-2.7 -94.4,1.3 -63.1,6.7 -127.1,-4.2 -189.8,5.8 -132.2,5.1 -265.7,12.9 -394.5,45.4 -506.5,1.8 -1013.1,0 -1519.7,0.9 -23.2,0.9 -46.2,5 -69.5,4.9 -403.2,-0.4 -806.5,0.1 -1209.8,-0.3 -21.1,-1.8 -47.8,9.9 -46.1,34.7 -2.4,25.1 24.5,37.6 45.9,35.6 413.1,-0.2 826.3,0 1239.5,-0.1 109.9,-2 220.2,4.9 329.8,-4.9 410.4,0.3 820.9,-1 1231.4,0.6 109.7,22.8 220.9,40.5 333.1,45.7 27,5.5 55,1.4 82,7.6 m -652.1,-267.6 c 175.2,12.1 350.7,20.7 526.5,18.6 173,-1 346.3,4.6 518.7,-9.3 28.2,-1.6 56.6,0.1 84.9,-1.7 43,-6.1 86.6,-6.6 130,-10.1 26.4,-4.6 53.2,-7.8 80,-9.9 52.5,-7.2 103.6,-22.1 154.8,-33.9 1295.4,-0.3 2590.8,0 3886.2,-0.1 0,-25 -0.1,-50 0,-75 -1295.3,-0.3 -2590.6,0.4 -3885.9,-0.4 C 6205.7,8567 6091,8556 5976.2,8554 c -41.7,-8.4 -84.5,-2 -126.7,-4 -102.7,-10.4 -206.1,-1.7 -309,-6 -59.9,-7 -120.3,-3.3 -180.4,-3.8 -105.7,12 -212.5,-2.4 -318.1,9 -112.1,1.8 -224.1,7.3 -335.9,17.2 -62.4,5.1 -124,16.3 -185.1,28.3 -626.9,0.6 -1253.8,0.1 -1880.7,0.3 -36.6,-0.8 -73.2,-0.5 -109.5,4.4 -105.2,1.5 -210.6,0.1 -315.8,0.6 -0.1,23.3 -0.1,46.7 0,70 75.2,3.9 149.9,-7.7 225.1,-4.9 686.7,-0.1 1373.4,0.1 2060.1,-0.2 30.5,-1.2 58.7,11.9 88.5,16.3 77.8,13 156.5,20.8 235.2,25.2 M 2178.6,8381.3 c -0.5,52.3 55.1,84.2 102,83.9 136.3,-0.2 272.7,-0.2 409.1,-0.1 55.6,1.3 111,-3.9 166.3,-8.5 42.8,-2.3 85.2,-8.6 127.9,-12.8 20,-3.7 40.1,-7.2 60.3,-10 83.8,-23 170.7,-7.7 255.9,-18.6 263.3,-0.2 526.6,-0.3 789.9,0 55,2.2 109.9,-12 164.7,-2.6 132.3,31.5 268.8,37.3 404,45.3 42.2,6 85.4,-2.9 127.3,6.2 74.7,-1.4 149,8.1 223.8,5.9 218.1,-0.6 436.4,3 654.2,-6 34.7,-7.8 70.5,-2.2 105.7,-4.1 106.9,-8.3 214.5,-12.1 320.2,-31.8 23.2,-4.4 45.9,-12.7 69.8,-13 1348.5,-0.1 2696.9,0 4045.3,-0.1 0,-26.7 0,-53.3 0,-80 -1321.7,-0.1 -2643.3,0 -3965,-0.1 -45.1,-1.5 -91.5,5.7 -135.1,-8.6 -49.7,-11 -100.7,-13.9 -151,-19.9 -77.8,-6.2 -155.6,-12 -233.5,-12.4 -55.2,-9.3 -111.5,1.9 -166.4,-8 -225.9,-1.7 -452,-1.7 -677.9,0 -133,9 -266.9,8.8 -400,20.3 -33.3,4.9 -66.9,6.4 -100.2,9.8 -45.3,5.9 -89.5,18.7 -134.7,23.8 -370.9,0 -741.9,0.5 -1112.8,-0.3 -48.3,-6.5 -96.1,-16.9 -144.5,-23.4 -26.7,-2.4 -53.4,-5.4 -79.9,-10.1 -54.5,-3 -108.8,-7.6 -163.3,-11.1 -156.4,0.1 -312.9,-0.4 -469.3,0.2 -45.3,0.7 -98,36.5 -92.8,86.1 m 2752,-170.9 c 59.6,7.6 119.8,3.9 179.8,4.6 49.2,-0.7 98.7,2.8 147.7,-3.7 90.4,-4.9 181.2,4 271.3,-5.8 75.7,0.2 151.5,-3 226.7,-9.3 56.2,-0.2 111.9,-9 167.9,-12.4 45.4,-4.7 89.6,-16.2 134.4,-23.5 1250.4,-0.7 2500.8,-0.1 3751.1,-0.3 46.5,0 93.2,1.7 139.6,-4.2 85.3,-1.9 170.6,-0.1 255.9,-0.8 -0.1,-25 0,-50 0,-75 -1378.5,-0.1 -2757,0.2 -4135.5,-0.1 -109.8,-20 -221.5,-34 -333.4,-36 -35.4,-7.9 -71.7,-1.6 -107.5,-4.7 -69.5,-9.3 -139.8,0.6 -209.3,-9.1 -213.2,-0.5 -426.4,0.3 -639.6,-0.3 -214.1,10.8 -429.2,10.3 -642.3,38.6 -36.2,4 -70.9,18.2 -107.6,16.7 -126.7,-0.2 -253.5,-0.2 -380.2,-0.1 -76.5,4.7 -150.3,-19.4 -225.5,-28.8 -26.8,-2.2 -53.5,-5.4 -79.9,-10.3 -53.4,-3.4 -107.2,-3.8 -160.2,-9.9 -269.3,-1.9 -538.6,-1.4 -807.9,-0.3 -24.6,4.4 -51.5,4 -72.2,20 -39.7,22.7 -46.4,83.1 -15.8,115.7 27,32.4 72.4,37 111.7,38.6 203.6,-0.3 407.2,0.6 610.8,-0.4 80.8,-9.4 162.2,-1.5 243.3,-5.6 27,-5.9 54.9,-2.5 82,-7.2 84.8,-8.1 168.4,-24.6 252,-40.5 130.5,-3 261.3,-0.3 391.9,-1.3 86.8,-6.3 169.9,24.6 256.2,28.6 231.1,19.4 462.6,27.2 694.6,26.8 M 2371.3,7938.7 c 26.8,15.7 58.9,10.7 88.5,11.4 336.7,-0.3 673.5,0 1010.2,-0.1 68,-4.8 136.2,-6.3 203.9,-16.1 54.6,-11.4 109.6,-23.1 165.8,-18.9 98.6,3.8 198.6,-8.7 296.2,8.8 81.4,7.8 163.1,11.2 244.7,16.3 46.4,0.3 93,-2.3 139.1,4.4 240.2,1.4 480.4,-0.1 720.6,0.7 161.2,-7.9 322.7,-9.2 483.8,-21.4 48.4,-5.4 96.7,-10.7 144.8,-18.4 430.5,-0.9 861.2,-0.1 1291.7,-0.3 23,-0.2 45.7,-4.8 68.8,-5.1 991.9,0 1983.7,0 2975.6,0 0,-25 -0.1,-50 0.1,-75 -1435.2,-0.1 -2870.3,-0.1 -4305.4,0 -51.7,-2.9 -101.6,-20 -153.6,-21.7 -24,-3.5 -48.4,-2.8 -72.2,-7.1 -53.3,-4 -107,-3.9 -159.9,-10.2 -41.5,-2.7 -83.1,0.6 -124.6,-1.7 -92.6,-10.8 -186.3,2.3 -278.9,-9 -134.8,-0.2 -269.7,-1.4 -404.4,0.7 -74.5,10.8 -150.6,-2.5 -225.4,8.3 -91.8,-1.2 -183,7.8 -274.7,11.7 -45.5,6.4 -91.2,11.1 -136.6,18.3 -96.2,1.2 -192.5,1 -288.7,0.1 -55.8,-8 -110.4,-23.2 -166.7,-28.6 -41.4,-0.3 -82.8,-1.4 -124,-5.6 -353.2,-0.5 -706.5,0.1 -1059.7,-0.3 -45.2,-2.1 -99.7,21 -109.2,69.6 -8.3,37.6 18.9,72 50.2,89.2 m 87.3,-308.8 c 13.4,52.4 72.9,72.1 121.4,70.3 76.6,-2 153.5,3.9 229.8,-4.1 173.4,-5 347.4,5.3 520.5,-6.3 135.5,2.4 270.9,-3.1 405.8,-13.4 49.5,-2 98.8,-7.1 148,-13 71.2,-8.1 143.5,-4.2 214,8.3 259.6,26.5 521,16.3 781.7,18.3 75.3,-2.5 151.4,5.1 226.3,-3.9 57.3,-3.5 114.9,2.9 172,-4.9 39.2,-4.2 79.2,3.4 118,-5.2 72.9,0 145.3,-8.2 218,-12.2 42.6,-5 85,-11.1 127.2,-18.2 1057.5,-1.9 2115.1,1.1 3172.5,-1.6 11.6,-2.6 23.5,-3.9 35.6,-4.1 418.5,0.2 837.1,0 1255.6,0.1 0,-25 -0.1,-50 0,-75 -1482,-0.3 -2964,0.4 -4446,-0.3 -123.5,-24.8 -250,-30.3 -375.1,-38.7 -37.9,-2.5 -75.9,0.7 -113.7,-2.1 -86.3,-10.3 -173.5,2.8 -259.7,-8.4 -130.2,-1.1 -260.6,-0.6 -390.8,-0.2 -72.8,9.9 -146.4,-0.5 -219.1,9 -111.8,0.9 -223.6,8 -334.6,21.9 -93.2,21.5 -188.8,3.2 -281.9,-9.9 -36.6,-5 -73.7,-4.4 -110.1,-10.3 -101.2,0.8 -202.3,-13.8 -303.3,-1.5 -187,1.3 -374.1,-0.4 -561.1,0.8 -90.4,9.8 -181.5,1.7 -272.2,5.3 -15.1,1.8 -29.3,7.3 -43.7,11.5 -23.4,22.2 -49.2,53.5 -35.1,87.8 m 275.9,-181.2 c 68.6,2.6 137.6,3.1 206,-3.5 256.5,-0.3 513,-0.1 769.5,-0.1 63.5,2.1 126.4,-8.3 190,-5.2 156.7,-17.2 313.3,10.4 470.2,5.1 124,-3.6 247.6,10.5 371.7,3.8 65.7,-7.5 131.9,-2.1 197.9,-3.7 71.3,-5.1 142.7,-7.8 214.1,-11.1 109,-9.7 217.5,-24.6 326,-38.8 1575,-0.4 3150.1,0 4725.1,-0.2 -0.1,-25 0,-50 0,-75 -1525,0 -3050,0 -4575.1,0 -68,-1.9 -136.5,5.2 -203.9,-6.4 -77,-12.1 -154.7,-18.4 -232,-27.3 -66,-4.5 -131.8,-11.7 -197.9,-12.4 -36.9,-8.8 -75.3,1.1 -112.2,-7.9 -64.8,-2.4 -129.8,1.5 -194.4,-6 -181.2,2 -362.7,-5.1 -543.5,6 -44.9,8.4 -90.8,2.2 -136.1,4 -71.9,-2.4 -144.5,5.1 -215.9,-4 -77.8,-1.3 -155.8,-3.8 -233.3,4 -236.8,0.1 -473.7,0 -710.5,0 -33.5,-0.3 -67.3,2.5 -100.3,-4.5 -48.2,0.6 -106.9,24.3 -111.7,79.1 -9.2,56 44.1,100.7 96.3,104.1 m 189,-310.4 c 18.3,45.7 70.9,61.1 116.2,57 113.6,-4.4 226.7,6.9 340.3,4.7 193.5,0 386.9,0 580.3,0 49.2,-0.9 98.5,2.8 147.5,-3.3 58.6,-4.4 117.4,0.6 176.1,-2.7 96.4,-7.2 193.6,-10.9 290.1,-20.4 33.1,-4.8 66.6,-7.3 100,-9.8 26.4,-4.5 53.1,-7.4 79.9,-10.1 26.4,-4.3 53.2,-7.2 79.9,-10.3 55,-8.1 110.8,-2.2 165.9,1.7 1123.3,-0.1 2246.6,-0.1 3370,-0.1 119.9,2.1 240.3,-4.9 360,5.1 491.8,-0.2 983.5,0 1475.3,-0.1 0,-25 -0.1,-50 0,-75 -36.4,-0.3 -72.7,0.9 -108.9,-1.1 -28.3,-6.3 -57.4,-3.6 -86,-3.9 -833.6,0.1 -1667.1,0 -2500.6,0 -99.9,-1.6 -200.2,4.3 -299.8,-5.1 -760,0.1 -1520,0 -2280,0.1 -36.3,-0.1 -72.8,1.7 -108.8,-4.1 -149.5,-20.8 -300.1,-33.4 -450.8,-41.1 -53.5,0.5 -107,1.6 -160.2,-4.8 -93.4,1.4 -187.1,-4.1 -280.2,5 -163.4,0.2 -326.9,-0.4 -490.3,0.2 -15.3,0.2 -30.6,-0.8 -45.5,-4.2 -130.5,-2 -261.2,-1 -391.8,-0.6 -58.8,0.6 -110.4,68.1 -78.6,122.9 m 456.3,-287.6 c 4,53.6 58.7,89.6 109.5,89 430.1,0.7 860.2,0.1 1290.2,0.3 87.9,-9.4 176.3,-2.3 264.5,-6 34.7,-7.8 70.5,-2.3 105.7,-4.1 84.6,-6.9 169.5,-9.3 254.1,-16.3 89,-7.5 177.7,-17.4 266.3,-28.3 879.9,-0.7 1759.8,-0.1 2639.7,-0.3 83.3,1.2 166.9,-3.5 249.9,5 550.3,0.1 1100.7,-0.1 1651,0.1 -5.2,-24.7 -6.6,-49.9 -6,-75.1 -151.6,-2.4 -303.6,5.2 -454.8,-5.2 -726.6,0.4 -1453.1,0.1 -2179.7,0.2 -58.7,-2.3 -118.1,5 -176.2,-4 -551.3,-2.3 -1102.6,-0.6 -1653.9,-0.9 -48.5,2.7 -96.1,-8 -144.2,-11.5 -17.3,-2.6 -34.6,-4.5 -51.8,-7.4 -122.5,-9.3 -245,-21.8 -367.9,-22.2 -92,-11.3 -185.6,3.2 -277.7,-8.2 -60.8,-1.6 -121.7,-1.4 -182.4,0.2 -15.1,3.5 -30.6,4.4 -46,4.2 -399.6,-1 -799.3,1 -1198.9,-1 -49,0 -92.9,41.9 -91.4,91.5 m 366.7,-207 c 24.1,31.8 65.3,43.1 103.6,41.5 119.8,-0.8 239.7,0.7 359.5,-0.7 96.4,-11.5 194,2.3 290.4,-8.5 33.2,-2.9 66.5,-0.9 99.5,2.9 52,4.9 104.9,-4.4 156.5,5.2 34.2,0.9 68.5,0.8 102.5,5.1 87.2,3.8 174.9,-4.1 261.8,5.4 70,4.5 139.5,-8.2 209.5,-4.6 71.5,3 142.6,-4.8 214.1,-6 26.9,-6.1 55,-2.2 82.1,-7.4 46.1,-3.4 92,-7.8 137.9,-12.9 26.5,-4.3 53.3,-7.4 80.1,-9.9 49.9,-7.6 99.5,-17.4 150,-20.3 31.6,-5.8 63.9,-3.1 95.9,-3.5 1371.7,0 2743.4,0 4115.1,0 0,-25 -0.1,-50 0,-75 -1378.3,-0.1 -2756.7,0 -4135.1,0 -99.6,4.7 -197.1,-20.2 -295.8,-28.6 -86.5,-9.9 -173.8,-13.2 -260.2,-20.5 -74.8,1.4 -149,-8.1 -223.7,-5.9 -136.6,0.2 -273.2,-0.3 -409.8,0.1 -51.3,6.8 -102.9,3.9 -154.4,5.9 -24.9,5.8 -50.6,4 -75.8,4.1 -136.8,-0.3 -273.5,0.1 -410.2,-0.1 -109.8,-9.9 -220.3,-3 -330.4,-5 -53.5,3.1 -114.6,-13.3 -159.1,25.6 -6.5,10.5 -13.2,20.8 -20.2,30.9 -3.8,28.2 -4.7,60.1 16.2,82.2 M 3675,6353.1 c 13.9,48.5 67.1,73 114.5,71.9 154.8,-0.6 309.6,1.4 464.4,-1 86.5,-6.7 173.7,-10 260.1,-20.3 46.7,-6.8 93.7,-12 140.1,-20.5 84.8,-14 167.4,18.3 251.9,20.5 56.5,5.9 113.7,3.6 170,10.3 187.8,3.4 376,12.7 563.7,0.8 41.4,-0.1 82.9,1.3 124.3,-0.8 62.9,-6.4 126.6,-5.2 189.9,-10.1 33.1,-5.2 66.8,-6.5 100.2,-10.1 64.5,-12.6 130,-15.1 195.6,-18.9 1066.8,0.3 2133.6,0 3200.5,0.2 24.5,0.1 49.1,0.3 73.7,-1.1 68,-9.1 137.3,-1.6 205.9,-4 158.4,0 316.8,0 475.2,0 0,-25 -0.1,-49.9 0,-75 -968.3,-0.2 -1936.6,0.2 -2904.9,-0.2 -43.7,-2.6 -86.8,6.8 -130.4,5.4 -303.2,-0.5 -606.4,0 -909.5,-0.2 -43.2,-1.6 -87.3,4.8 -129.7,-5.7 -44.2,-10.6 -89.3,-16.8 -134.5,-20.9 -39.8,-5 -79.8,-7.9 -119.8,-9.8 -86.4,-6.3 -173.3,-8.7 -260,-9.7 -15.1,-3.3 -30.6,-4.2 -45.9,-4.2 -113.4,0.6 -226.8,0.3 -340.1,0.2 -12.4,0.1 -24.5,1.5 -36.4,4 -96.1,0.3 -191.8,6.5 -287.6,12.3 -29.9,4.6 -60.1,6.8 -90.2,9.7 -79.1,22.3 -162.4,16.5 -242,0.3 -26.7,-2.4 -53.4,-5.4 -79.9,-10.1 -53.3,-5.7 -107.2,-3.4 -160.2,-10.1 -190.8,-2.2 -381.8,-0.8 -572.7,-0.8 -51.2,-1.5 -96.9,46 -86.2,97.9 m 150.1,-188.8 c 71.2,3.7 142.9,-3.8 213.9,4.6 63.6,2.8 127.4,2.1 190.8,-3.9 101.8,2.8 203,-11.7 304.2,-21.4 101.9,-9.5 202.9,-32.5 305.6,-28.6 49.4,1.2 99.1,-2.5 148.5,2 90.9,17.3 183.3,25.8 275.8,29.2 48.4,8.7 98.1,-0.5 146.7,7.9 241.4,2.5 483.1,4.5 723.6,-20.3 38.6,-4.6 76.5,-14.7 115.2,-18.7 1180.3,-0.1 2360.6,-0.2 3541,0.1 137.8,-10.4 276.4,-3 414.6,-5.2 0,-25 -0.1,-49.9 0.1,-75 -1321.7,-0.2 -2643.4,0.1 -3965.1,-0.1 -83.9,-14.5 -168.5,-28.7 -253.9,-31.2 -192.7,-14 -386.7,-8.1 -580,-7.7 -36.9,9 -75.4,-0.9 -112.2,7.9 -102.3,3.1 -205,11.2 -304.9,33.8 -56,5.4 -112.4,0.8 -168.5,2.4 -65.4,2.7 -129.6,-11.6 -194.4,-16.6 -104.8,-13.1 -210,-21.5 -315.3,-28.5 -163.6,-0.1 -327.1,0 -490.7,-0.1 -45.2,0.1 -92.7,37.1 -90.1,85 4.9,47.9 49.7,80.3 95.1,84.4 m 140.7,-261.5 c 51,24.7 109.7,15.5 164.5,17.2 41.9,-1.6 84.4,4.2 125.8,-4 53.4,-0.6 106.9,-1.7 159.8,-9.6 108.3,-6.6 215.3,-25.3 323.1,-36.1 290.2,-0.8 580.5,0.1 870.7,-0.4 24.8,0.1 50.3,-1.5 74.5,6 185,47.5 380.6,34.4 564.6,-10.6 1318.7,-0.6 2637.5,0 3956.2,-0.3 0,-26.6 0,-53.3 0,-80 -945,-0.2 -1890,0.1 -2835.1,-0.2 -46.8,-2.7 -93.1,7 -139.8,5.4 -303.4,-0.4 -606.8,-0.1 -910.2,-0.2 -36.1,-0.6 -73.4,3.9 -108.1,-8.5 -54.5,-17.6 -111.1,-28 -167.8,-35.3 -56.5,-3.8 -113.7,-11.7 -170.1,-2.7 -72.3,3.1 -143.9,17 -212.4,40.3 -19.8,7.8 -41.1,6.4 -61.8,6.4 -284,-1.1 -568.1,1.3 -852.1,-1.2 -127.5,-18.3 -255.5,-32.9 -383.7,-43 -108,-2.5 -216,-0.1 -323.9,-1.3 -40.1,-1 -87.6,7.1 -109.9,44.5 -25.5,39.2 -4.2,93.4 35.7,113.6 m 279.7,-340.7 c -7.5,56.6 51.2,101 104.1,98.3 54.4,4.6 98.4,-32.9 149.9,-42.5 35.9,-10.4 73.4,-7.9 110.4,-7.9 1413.2,0.1 2826.4,-0.2 4239.7,0.2 149.8,-10.3 300.3,-2.9 450.5,-5.2 301.6,0 603.3,0.1 905,0 -0.2,-25 -0.1,-50 -0.1,-75 -1888.4,0 -3776.8,0 -5665.3,0 -61.1,1 -114.2,-37.4 -175.2,-38.6 -50.1,-11.4 -111,16.4 -119,70.7"
         style="fill:#7d99cb;fill-opacity:1;fill-rule:nonzero;stroke:none"
         id="path12" />
      <path
         d="m 9056.6,5232.6 c 62.3,56.1 124,112.8 185.1,170.3 -13.1,-77.6 -70.1,-137.7 -123.1,-191.8 -149.6,-157.2 -332.7,-275.9 -504.5,-406.6 -41.2,-26.5 -76,-63.5 -122.4,-81.3 25.1,82.5 95.6,135 160.4,185.6 135.3,107.3 278.6,205.1 404.5,323.8 M 7608.1,5074.5 c 78.6,70.2 157.4,140.4 233.6,213.1 -22.5,-88 -87.9,-156.1 -147.7,-221.3 -83,-80.5 -177,-148.6 -265.8,-222.4 30.3,-14.6 53.9,-39.8 71.2,-68.4 -9.3,-42.4 -28.7,-85.6 -63.7,-112.9 -24.6,19.6 -56.5,31.3 -75.9,56.5 1.8,40.7 28.8,75.1 47.5,109.8 -83.1,-62.6 -169.8,-120 -252.9,-182.6 -31.3,-18.9 -55.7,-49.9 -92.1,-59 19.5,45.8 43.3,92.3 83.6,123.4 149.1,127.4 315.8,233 462.2,363.8 m 2520.9,13.2 c -38.4,-106.9 -121.6,-188.6 -204.6,-262.6 -170.5,-148.9 -359.9,-273.6 -543,-406 10.3,54 47.6,97.8 88.7,132 116.3,98.1 244.9,180.2 361.8,277.6 102.9,81.9 196.9,174 297.1,259 M 3068.1,4863.1 c 17.3,26.6 33.4,54 51.8,79.9 31.8,-9.7 56.1,-36.7 69.5,-66.4 5.3,-45.7 -28.4,-90.3 -66.6,-111.6 -20,17 -39.8,34.3 -58.5,52.8 -12.8,-29.6 -32.9,-55 -54.3,-78.9 -28.7,14.8 -52.7,36.6 -76,58.5 13.7,41.2 38.9,76.8 57.3,115.8 19.1,6 34.3,-3.8 48.4,-15.8 9,-11.8 18.6,-23 28.4,-34.3 m 2172.8,-171.2 c 22.4,42.1 40.2,86.8 68,125.8 28.8,-24.3 70.2,-48.3 70.3,-91 -7,-40 -24.8,-81.2 -61.9,-102 -26.6,21.1 -54.8,40.7 -76.4,67.2 m 2882.8,16.5 c 16.1,28.6 32.6,57.1 54.3,81.8 31.5,-17.6 59.1,-43.8 69.7,-79.3 -9.5,-40.5 -34.1,-75.2 -65.1,-102.2 -21.4,17.4 -42.6,35.1 -63.1,53.3 -15,-30 -32.8,-59.9 -62.4,-77.6 -22.9,19.4 -46,38.5 -68.5,58.2 17.3,42.4 38,83.5 64.2,121.1 5.7,-1.5 17.2,-4.3 22.9,-5.8 17.5,-15 32.7,-32.2 48,-49.5 m 458.7,-3.3 c 8.7,17.5 15.5,36.9 31.7,49 0.1,-6.9 0.4,-20.9 0.6,-27.9 -12.7,-52.5 -18.8,-106.3 -21,-160.2 -4.2,-23.8 -3.4,-48.1 -7.1,-72.1 -4.1,-93.4 -25.9,-186.2 -69,-269.5 -21.6,-46.5 -58.8,-97.8 -116.1,-96 -9.8,8.9 -19.4,17.8 -29,26.6 -28.5,-42.9 -61.8,-83.3 -103.1,-114.5 -28.3,-20 -65,-5.6 -96.8,-11.8 -91.8,-15.9 -177.5,-65.9 -236.8,-137.6 -50,-65.3 -89,-141 -154.1,-193.2 -52.1,-48.6 -111.3,-89.3 -173.5,-123.9 -27.9,-13.1 -55.1,-34 -87.8,-28.3 46,56.8 115.9,85.8 168.2,135.7 153.5,122.1 215.5,330.5 386.4,433.7 72.7,36.5 153.9,58.5 235.7,55.2 20.2,-1.5 35.3,20.2 37.6,38.3 5.9,84.1 8.3,168.3 16.4,252.2 4.4,78.9 45.1,149.1 80,218 2.7,-3.4 8.2,-10.2 11,-13.6 -23.2,-113.1 -53.4,-228.4 -37.2,-344.6 3.6,-17.7 16.6,-30.8 29.8,-42.3 18.6,2.8 42.3,-0.8 54.8,17 19.7,24.3 15.8,57.8 20.3,86.8 2.1,67.5 7.4,134.7 12.6,202 1.7,44.8 28.2,81.8 46.4,121 m 1102.8,-153.9 c 17.1,42.3 32.2,91.1 65.6,122.6 28.8,-7.1 52.3,-30.6 63.4,-57.9 8.5,-47.9 -23.5,-89.4 -48.6,-126.9 -30.1,16.2 -53.8,41.3 -80.4,62.2 m -5536.6,50 c 21.2,20.4 37.8,45.6 62,62.9 0.1,-73.9 -50.2,-135.3 -101.7,-183.2 -40.2,-53.2 -95.6,-91.1 -140.5,-139.8 -77.8,-77.8 -160.1,-150.9 -240.3,-226.2 9,0.1 27.2,0.3 36.2,0.4 30.3,-7.3 63.8,-22.6 72.5,-55.6 16.6,-86.6 -15.4,-173.8 -56.4,-249 -25,-46.3 -73.4,-89.6 -129.6,-80.6 -39.7,4.3 -63.4,43.3 -72,78.8 -20.8,87.4 0.4,177.2 7.5,265.1 13.1,75 16.6,153.2 46.8,224.2 10.7,26.5 19.9,53.8 32.6,79.5 14.6,-12.2 7.6,-31.2 6.7,-47 -8.6,-74.9 -16.7,-150 -27.9,-224.5 46.2,36.5 83.3,83.1 129.1,120.3 122.5,127.4 257.9,242 375,374.7 M 3649,3951.1 c -17.6,-16.2 -6.7,-41.5 4.8,-57.8 33.1,-29 88.1,-24.1 122.6,-0.1 19.3,11.8 13.5,36.5 14.8,55.3 -36.7,39.5 -105.4,44.2 -142.2,2.6 M 6955.8,4264 c 12.4,93.3 32.4,194.9 98.6,265.5 -7.4,-76.8 -26.3,-152.2 -32.9,-229.2 0.9,-40.1 9.2,-90 50,-108.9 32.1,-10.8 70,-11.9 100.3,4.9 27.4,21.6 47.4,52.2 78.5,69.1 22.8,13.8 52.5,-8.4 73.9,9.7 18.9,18.7 31.5,44.2 56.7,55.9 -3.5,-51.5 -29,-100.1 -67.1,-134.5 -18.7,-18.8 -46.7,-8.5 -69.8,-12.6 -66,-26 -80.2,-113.2 -148.5,-135.9 -45.3,-20.3 -93.2,9.1 -121.1,44.3 l 10.4,10.5 c -6.7,2.5 -14.5,4.5 -18.5,-3.2 -16.7,-19.8 -26.6,-44 -38,-67 30.7,-29.4 77.3,-48.9 87.4,-94.3 6.2,-55.6 -14.9,-109.2 -32.7,-160.8 -42,-114.9 -125.2,-221.1 -241.8,-266.1 -78,-25.7 -179.3,-23.2 -235.5,44.6 -42.5,47.1 -44.3,114.5 -40.1,174.3 16.2,112 65.6,215.7 122.2,312.6 22.5,37.8 39.1,80.3 72.3,110.4 6.4,-42.4 -19.2,-78.3 -35.5,-115.1 -31.8,-70 -65.4,-139.7 -88.3,-213.2 -14.2,-45 -6.4,-97 26.9,-131.7 27.1,-25.6 64.7,-36.3 101.1,-40.5 114.5,-12.6 246.6,43.3 284.4,159.5 -31.3,36.5 -83,47.6 -109.8,88.9 1,22.9 0.8,46.7 12.1,67.3 30.8,62.5 67.6,122.1 95.4,186.1 10.1,35.6 8.1,72.9 9.4,109.4 m 2802.5,184.3 c 17.2,27.4 33.3,55.6 52,82.2 31.3,-8.7 52.2,-34 70.7,-59.1 3.5,-46.8 -24.2,-92.1 -60.4,-119.5 -26.4,7.2 -41.2,36.5 -65.4,49.8 -16.2,-28.6 -30,-60.3 -58.5,-79.2 -25.8,18.7 -51.3,37.9 -73.9,60.4 18.4,43.2 39.1,86.2 68.3,123.2 27,-13 51.9,-31.3 67.2,-57.8 m -6737.1,-88.9 c 13.2,45.3 28.7,90.1 47.1,133.5 51.4,-30.8 68.3,-95.7 70.8,-151.9 -10.2,-102.2 -60.2,-194 -95.7,-288.9 25.5,-32.6 76.9,-47.4 80.7,-94.6 9.6,-117 -36.9,-230.7 -94.3,-330.2 -48.1,-74.2 -116.3,-142.3 -205.4,-162.4 -26.4,0.1 -52.7,0.2 -79,-0.1 -52.8,12.5 -99.1,49 -120.4,99.3 -48.9,98.8 -25.1,212.7 6.5,312.8 27.2,88.4 66.4,172.3 106.7,255.3 6.1,15.5 17.8,27.3 32.6,34.6 -0.9,-38.6 -18.8,-73.5 -32.4,-108.7 -33,-81 -71.5,-161.7 -83.2,-249.2 -0.2,-48.5 6.9,-104.1 46,-137.8 43.4,-38.2 106.3,-40.1 160.6,-30.4 98.5,11.4 196.7,84.8 209.6,187.4 -34.8,29 -85.2,41.2 -105.7,85.2 -7.7,53.9 20.7,103.1 42.1,150.4 22.9,56 49.6,110.9 61.7,170.6 -10.1,30.3 -20.5,60.8 -37.4,88.2 -5.6,11.5 -16.6,23.3 -10.9,36.9 m 2508.6,-169.6 c -4.8,86.4 31,168.7 72.2,242.5 6.7,-13.4 10.4,-27.9 7.2,-43.1 -5.1,-34.1 -3.9,-68.7 -5.1,-103.1 -10.3,-55.3 1,-112.1 -6.6,-167.7 -8.1,-76.6 -24.3,-158.4 -77.3,-217.5 -19.4,15.6 -2.9,39.7 -2,59.1 16.5,75.6 11.2,153.1 11.6,229.8 m 3834.1,208 c 16.6,-18.5 6,-42.4 2.2,-63.7 -3.8,-49.3 -11.2,-98.4 -12.3,-148 -7.6,-49 -10.4,-106.5 25.6,-145.8 25.5,-36.1 77,-46 115.9,-26.9 35.2,20.1 51.9,60.9 86,82.5 17.4,9.6 37.9,1.9 56.2,-1.5 20.3,13.2 33.8,33.4 46.2,53.7 31.5,-26 41.3,15.6 52,37.3 36.1,-0.5 47.7,32.9 57.5,61.4 3.2,-3.8 9.6,-11.5 12.8,-15.4 -9.6,-38.2 -20.7,-78 -46.6,-108.7 -28.6,-26.3 -55.6,-58.1 -95.6,-65.9 -13.2,-13.4 -25.8,-27.6 -40.4,-39.5 -20.5,-17.1 -50,-8.1 -72.1,-21.1 -45.5,-31.3 -56.8,-94.8 -106.2,-121.7 -12.5,-7.6 -27.1,-10.4 -40.5,-15.2 -35.2,5.7 -66.5,25.7 -83.1,57.8 -39.2,-63.7 -71.9,-141.4 -148,-169 -44,-22.2 -90.6,9.7 -135.8,-1.3 -30.1,-4.1 -57.3,-18 -85.9,-26.9 -0.1,35.8 27.6,61.9 49,87.4 37,35.8 80,74.9 134.6,75.5 24.6,-2.9 48.9,-10.8 74,-11.6 35.3,3.9 59.5,37.6 64.2,70.9 15,96.8 7.9,195.8 24.9,292.3 18.8,55.5 41.3,109.9 65.4,163.4 m -4809,-62.3 c 30.8,-24.5 73.8,-50.8 70.7,-96 -3.8,-38.7 -27.1,-73.6 -56.4,-98.3 -27.6,18.5 -53.1,39.6 -79,60.3 15.8,47.2 39.8,91.1 64.7,134 m -135.8,-8 c 32.7,-26.4 80.2,-56.8 70.2,-105.9 -10.7,-33.9 -28.1,-68.9 -59.1,-88.5 -27.2,20.9 -55.7,40.6 -77.9,67 22,42.6 39.9,87.4 66.8,127.4 m 4345.8,-71.6 c 7.1,15.2 14.9,32.6 33.2,36.2 -9.2,-83.7 -6,-167.9 -12.9,-251.7 2.8,-71.1 -9.5,-142.9 -37.1,-208.5 -11.5,-25.5 -24.3,-53.4 -51.2,-65.9 2.1,41.6 14.5,81.7 17.7,123 1.5,65 -1.2,130.1 1.2,195 4.5,60.1 24.6,117.3 49.1,171.9 m -3539.8,24.4 c 37.4,-5.7 70.8,-24.4 107,-34.4 29.2,-7.2 54.5,12.5 79.3,24.5 -1.2,-31.6 -8.8,-65.8 -34.7,-86.7 -83.8,-65.8 -153.9,-146.5 -230.4,-220.3 -22.7,-20.4 -42.2,-52.3 -75.9,-53.3 -32.5,8.2 -64.2,19.6 -96.4,28.7 -28.8,-38 -57.8,-78 -99.8,-102.5 -113.9,-70.8 -249.7,-90.5 -379.9,-110 -122,-11.3 -248.4,-23 -367.7,11.9 -49,12.3 -81,62.4 -76.7,111.9 3,54.1 -10.4,112.4 17.6,162 20.7,-26.2 20.9,-63.5 43.6,-88.3 33.4,-29.3 80.4,-32.7 122.2,-41.7 124.9,-15.9 251.5,-4.3 376.2,9 113.6,18.1 232.4,29.2 334.9,86 21.4,10.8 38.4,27.9 55.1,44.8 1,-8.4 3.2,-25.1 4.2,-33.5 120.9,16.4 208.3,109.3 289.1,192.2 -31.6,16.4 -63.5,37.1 -100.4,36.2 -26.6,-2.8 -42.1,-27.5 -54.5,-48.3 -3.9,-0.9 -11.7,-2.7 -15.6,-3.6 14.1,51.4 42.8,109.7 102.8,115.4 m 1098.3,-124.6 c 6.1,10 23,44.6 32.9,17.9 -12.8,-48.5 -27.2,-99.2 -59.1,-139.1 -31.2,-42.2 -96.8,-41.1 -121.9,-89.6 -37.4,-61.6 -43.6,-147.2 -110.5,-187.2 -46.8,-22.2 -99.9,-29.1 -151.2,-28.2 -0.4,13.8 5.1,24.4 16.4,31.9 55.3,44.8 124.3,72.8 170.8,128.1 37.2,59.3 49.9,137 108.9,180.9 36.6,30.4 93.4,37.2 113.7,85.3 m -575.6,-142.5 c 14.7,50.7 40.3,98 64.9,144.6 59,-29.2 104.6,-85.2 106.2,-153.1 -3.6,-74.1 -33.1,-145.6 -83.1,-200.5 -44,-39.5 -100.5,-64.7 -159.4,-70.2 15.1,39.5 60.2,52.5 87.1,82.3 25.1,28 59.2,50.1 74.5,85.5 -8.9,50.1 -56.2,78.6 -90.2,111.4 m 1896.7,126.6 c 47.6,13.7 88.8,-34.8 85.9,-79.6 0.1,-76.9 -28.5,-151.1 -64.4,-218 -15.6,-29.9 -40.4,-56.8 -74,-65.6 -46.4,-13.1 -90.6,-37.5 -139.7,-38.1 58.8,77.2 179.2,98.4 206.1,201.7 -35.4,-20.8 -76.5,-2.7 -97.9,28.5 10.5,63.4 41.9,123 84,171.1 M 3356.1,3854 c 65.1,70.2 82.2,168.7 132.6,247.4 21.1,-20.9 8.6,-51.5 2.9,-76 -22.2,-75.5 -45.6,-151.7 -84.7,-220.5 -26.4,-47.9 -83.5,-61.1 -132.2,-74 -26.9,-4 -59,-21.6 -83.3,-1.8 46.8,51.7 113.2,78.7 164.7,124.9 m 3728.2,-265.6 c 18.3,27.3 30.1,59.7 56.5,80.7 28,-19.2 61,-42.4 64.9,-79.1 -5.6,-40.7 -31.8,-75.6 -63,-100.9 -22,16.6 -43.4,33.8 -63,53 -16.3,-28.9 -31.4,-61.6 -62.4,-77.6 -23.3,19 -46.9,37.6 -68.6,58.3 17.4,40.8 35.9,82.1 63.3,117.4 34.1,4.5 49.4,-34 72.3,-51.8 m -883.6,-145.9 c 14.7,27.7 31.5,54.2 49.1,80.1 39.3,-12.9 77.7,-55.5 63.8,-99 -12.2,-28.9 -26.7,-59 -52.2,-78.6 -28.6,1.3 -43.4,34.5 -64.4,51.2 -12.3,-27.8 -27,-55.6 -49.9,-76.3 -32.6,2.8 -52.3,36.8 -76.8,55.7 20.8,42.2 34,91.1 68.7,124.5 22.9,-16.4 45.1,-34.3 61.7,-57.6 m 3114.6,-93.8 c 2.9,48.9 34.4,92.9 63,131.5 27.3,-18.5 57,-39.3 71.2,-70.1 4.5,-46 -27.6,-85.6 -58,-116.6 -25.5,18.3 -55.9,30.9 -76.2,55.2 m -3126.4,-6.5 c 17.2,21.3 40.2,-7.5 51.2,-21.5 38,-46.9 -5.6,-105.1 -36.9,-142.7 -24.2,20.8 -45.9,44.2 -69.9,65.1 16.3,34.1 32.6,68.9 55.6,99.1 m 457.8,-418.4 c 25.5,23.8 42.4,56.9 74.5,72.9 -18,-85 -75.4,-153.3 -130.2,-217.9 -182.7,-179.1 -390.8,-329.5 -591.6,-487.3 -18.7,-15 -37.9,-29.3 -57.9,-42.5 7.1,48 35.2,89 66.6,124.5 88.9,88.1 191.6,160.5 287.3,240.8 121.1,98.6 241.3,198.6 351.3,309.5 m -57.1,-365.4 c 39,-12.1 65,-47.3 76.4,-85.2 -11.8,-44.2 -27.8,-90.7 -63.1,-121.9 -27.6,21.9 -54.1,45.1 -80.6,68.2 17.3,48.5 36.3,97.4 67.3,138.9 m 67.4,-163.5 c 36.7,-13.5 74.3,-42.3 75.9,-84.9 -4.2,-40.7 -28.3,-77.5 -57.4,-105 -10.8,-12.2 -25.8,0.2 -34.5,7.7 -15.4,14.1 -29.3,29.4 -44.5,43.5 -11.7,-32.4 -32.8,-59.6 -54.3,-86 -35.4,9.4 -58.3,40.3 -86.8,60.9 16.7,45.5 36.6,91.6 67.7,129.1 4.1,1.8 12.3,5.5 16.4,7.3 23.4,-19 47.6,-37.9 63.6,-64 13.3,33.1 34,62.2 53.9,91.4 M 5834.8,2010 c -6.4,92.5 49,172.6 87.3,252.5 8.6,-15.1 9.2,-31.9 4.6,-48.6 -21.8,-134.1 0.2,-270.8 -25.8,-404.4 -16,-101.6 -44.2,-203.4 -104.8,-288.1 -60.9,-98.9 -174.2,-162.2 -290.2,-163.6 -54,-0.4 -116.1,-0.1 -158.5,38.5 -33.5,31.6 -28.7,81.5 -26.5,123.2 7.2,51.6 13.3,103.9 32.8,152.6 32.8,-14.9 4.5,-57.6 23.7,-82.4 9.3,-25.4 33.4,-38.6 58.2,-45.6 86.6,-21.9 181,-19.5 263.7,15.9 59.6,24 110.7,75.6 122,140.3 20.6,102 11.9,206.5 13.5,309.7 m 569.6,-45.9 c 20.6,49.2 29.4,105.8 65,147 2.4,-35.2 -3.2,-70.1 -5.7,-105.2 -4.4,-26.4 -7.5,-53 -10,-79.8 -4.4,-26.4 -7.5,-53.2 -10.1,-80 -6.7,-88.9 -32.4,-180.6 -7,-268.5 16.8,-54.6 84.5,-59.6 131.6,-47.5 30.8,20 56.2,47.5 88.5,65.4 8.2,-1.6 24.8,-4.6 33.1,-6.1 31,11.3 27.6,51.5 50.7,70.1 15.8,0.5 32.5,-7.2 47.9,-0.9 14.4,23.5 22.3,50.4 33.9,75.3 18,-25.5 7.4,-58.2 -0.8,-85.7 -15.7,-42.8 -44.8,-83 -89.3,-98.9 -13.6,-17.1 -26.9,-35.3 -45.2,-47.9 -21.7,-8.5 -46.9,4.9 -67.9,-7.6 -48,-33.5 -69.2,-99.4 -128.7,-117.3 -48.4,-18.1 -105,13.1 -119.2,62 -31.6,92 -12.2,191.2 -4.9,285.6 11.3,80.2 21.3,160.8 38.1,240 m 824.7,67.8 c -4.7,10.3 -20.1,32.5 0.6,36 159.7,-99.9 249.9,-311.6 184.9,-493 -28,-97 -96.4,-177 -176.5,-235.8 -5.2,0 -15.7,0.1 -21,0.1 20,52.5 54.3,98 75.1,150.2 48.7,103.7 65.1,224.6 32.5,335.4 -21.1,73.4 -55.1,142.6 -95.6,207.1 M 4815.2,1639.6 c -12.7,159.6 74.2,316.5 206.7,402.9 15.9,-18.7 -3.1,-37.4 -11.4,-54.6 -56.4,-94.8 -101.6,-200.9 -103.1,-312.8 2.9,-117.4 49.7,-229 110.7,-327.6 7.8,-11.9 11.8,-25.8 14.3,-40 -19.4,2 -34.5,14.4 -48.9,26 -94.5,73.5 -156.3,187.3 -168.3,306.1 M 6295.5,1804 c 27.9,21.3 34.1,61 64.6,79.9 4,-38.5 -12.1,-74.5 -25.7,-109.6 -12.8,-28.6 -25.4,-58.7 -48.3,-80.9 -38.8,-29.1 -92,-38.7 -122.7,-78.5 -41.6,-67.5 -57.3,-154.3 -122.8,-204.7 -57.2,-27.7 -124.3,-42.9 -187.4,-30.6 16.8,31.4 50.7,46.2 78.1,66.4 57.7,40.8 126.6,73.9 161.9,138.3 29.9,45.7 40.3,103.2 80.2,142.3 33.9,35.5 81.7,51.2 122.1,77.4 m -672.1,32.6 c 13,17.7 36.6,18.9 55.9,25.6 5.2,-10.5 9.8,-21.5 13.9,-32.8 -21.5,-6.5 -44.6,-10 -61.9,-25.3 3.8,-9.5 11.6,-28.5 15.5,-38 -8.7,-31.8 -37.9,-47 -67.8,-53.7 -14.5,6.3 -51.2,25.4 -26.7,41.1 20.5,2.5 41.1,3.9 61.6,6.8 4.1,25.6 -13.3,56.5 9.5,76.3 M 6265,1271.4 c 44.2,-13 85.2,-58.4 74,-107 -10.9,-36.3 -33.4,-69.6 -62.2,-94.1 -32.1,1.3 -47.8,40.8 -72.4,58 -16.2,-29.5 -28.4,-63.3 -55,-85.5 -37.4,1.4 -62.6,39.3 -89.4,62.5 22.7,47.9 40.6,99.9 75.8,140.5 29.4,-16.3 54.7,-39.2 72.9,-67.7 16.9,32.2 34.8,64 56.3,93.3 M 6204.9,1081 c 29,-12.4 49,-37 65.8,-62.8 5.1,-52.802 -26,-99.098 -59.9,-136.302 -24.1,25 -51.5,46.204 -75.8,70.704 13.4,46.898 43,87.898 69.9,128.398"
         style="fill:#5f92e4;fill-opacity:1;fill-rule:nonzero;stroke:none"
         id="path14" />
    </g>
  </g>
</svg>
