<?xml version="1.0" encoding="UTF-8" standalone="no"?>
<!-- Created with Inkscape (http://www.inkscape.org/) -->

<svg
   version="1.1"
   id="svg2"
   width="1653.3333"
   height="1142.6667"
   viewBox="0 0 1653.3333 1142.6667"
   sodipodi:docname="Shetab-logo.eps"
   xmlns:inkscape="http://www.inkscape.org/namespaces/inkscape"
   xmlns:sodipodi="http://sodipodi.sourceforge.net/DTD/sodipodi-0.dtd"
   xmlns="http://www.w3.org/2000/svg"
   xmlns:svg="http://www.w3.org/2000/svg">
  <defs
     id="defs6" />
  <sodipodi:namedview
     id="namedview4"
     pagecolor="#ffffff"
     bordercolor="#000000"
     borderopacity="0.25"
     inkscape:showpageshadow="2"
     inkscape:pageopacity="0.0"
     inkscape:pagecheckerboard="0"
     inkscape:deskcolor="#d1d1d1" />
  <g
     id="g8"
     inkscape:groupmode="layer"
     inkscape:label="ink_ext_XXXXXX"
     transform="matrix(1.3333333,0,0,-1.3333333,0,1142.6667)">
    <g
       id="g10"
       transform="scale(0.1)">
      <path
         d="m 3105.9,7344 c 34.7,0.2 69.2,5.8 103.9,6.1 1973.3,-0.3 3946.5,0 5919.8,-0.1 35.4,-0.6 71.3,2.7 106.5,-3.6 178.8,-3.2 352,-87.4 472.6,-218.1 122.6,-130.8 192.7,-309 191.5,-488.4 -0.4,-106.6 -0.1,-213.2 -0.2,-319.9 -1186.7,0.1 -2373.5,-0.1 -3560.2,0.1 -64.4,7.3 -129.2,3.4 -193.7,6 -45.4,8.8 -91.8,0.1 -137.4,6 -37.4,4.8 -75.2,1.8 -112.7,4 -149.9,9.5 -300.5,16.9 -450.3,30.8 -169.9,11.8 -335.3,55.7 -503.7,78.9 -190.7,30.8 -384.6,28 -576.1,7.9 -87.7,-10.7 -183.3,-26 -249.7,-89.5 -31.8,-27.2 -42.1,-75.8 -24.6,-113.6 33.2,-53.3 94,-81.1 153.2,-94.7 39.5,-11.9 81.3,-0.7 121.3,-9.8 53.6,-3.3 107.7,2.4 161.2,-4.8 183.3,-6.2 367.4,3 548.5,32.6 9.1,0.7 18.3,1.4 27.5,2 60.5,10.5 121.4,18.5 182.1,27.6 235.7,31.1 474,37.3 710.7,50.4 98,1.5 195.9,5.9 293.7,11.2 1203.4,-0.2 2406.8,0 3610.2,-0.1 0,-100 0,-200 0,-300 -1268,0.5 -2536,-1 -3804,0.7 -17.2,3.4 -34.6,5.1 -51.8,8 -39.6,3.1 -78.9,8.5 -118.3,12.7 -246,31.1 -491.6,71.9 -739.8,79.7 -78.3,10.6 -157.9,-2.7 -236.2,8.3 -323.2,1.3 -646.3,0.3 -969.5,0.5 -89.6,-10.4 -180.1,0.8 -269.7,-9.8 -96,-0.7 -201.9,6.4 -284.5,-51.6 -45.7,-28.2 -81.3,-87.3 -59.3,-140.9 22.7,-55 82.1,-79.2 135.5,-93.9 107,-26.7 218.2,-16.8 327.3,-18.6 123.2,-9.9 247.1,-3 370.6,-5.1 136.6,-2 273.5,5 409.8,-5.1 222.2,0.9 444.6,-4.6 666.1,13.7 43.3,2 86.7,4.8 129.8,9.9 96.9,7.6 193.4,18.8 289.9,29.9 26.6,2.9 53.3,6.2 79.9,10.1 56.9,5.6 113.5,13.3 170.2,20.2 9,0.9 18,1.7 27.1,2.6 147.8,25 297.8,5.5 446.3,18.7 620.1,0.1 1240.3,-0.1 1860.5,0.1 26.6,0.5 53,5.5 79.8,5 513.4,-0.3 1026.9,0 1540.3,-0.1 0,-98.3 0,-196.7 0,-295 -1070,0 -2140,0 -3210,0 -58.9,-1.7 -117.7,2 -176.1,8.5 -179.4,12.2 -358.4,30.8 -537.9,42.9 -146.4,13.1 -293.1,23.1 -439.9,29.8 -231.6,14.6 -463.8,21 -696.1,18.6 -139.6,10.1 -279.9,3.2 -419.8,5.2 -233.2,0.1 -466.5,-0.3 -699.8,0.2 -15.6,0.1 -31.2,-0.9 -46.5,-4.1 -61.5,-2.9 -123.1,0.4 -184.6,-1.6 -97.8,-11.7 -200.7,8.3 -294.3,-30.3 -57.9,-21.2 -112.9,-68.6 -114.5,-134.6 5.1,-33.9 24.7,-65.9 54.8,-83.3 67.7,-42.4 150.4,-51.6 228.7,-52.5 91.5,-8.7 184.1,-1.6 276,-3.6 166.4,-9.8 333.4,-3.3 500.1,-5.2 160,0 320,0.1 480,0 173.3,-13.7 347,2 520.4,5 382,18.8 763.9,45.9 1145.5,73.7 127.9,7.5 255.7,14.9 383.5,21.4 560.1,-0.2 1120.2,0 1680.3,-0.1 70.1,0.8 140.3,-2.9 210.1,4.8 446.7,0.5 893.4,0 1340.1,0.2 0,-95 0,-190 0,-285 -1056.7,-0.1 -2113.4,0.1 -3170.1,-0.1 -88.7,-3 -176,15.6 -264.2,21.6 -29.9,4.3 -59.9,7.2 -89.9,10 -29.9,4.2 -59.9,7.2 -90,10 -29.9,4.3 -60,7.2 -90,9.9 -66.4,8.4 -133.1,14.8 -199.9,20.1 -166.1,16.2 -333,25.9 -499.8,29.5 -64,10.4 -129.4,-1.7 -193.6,7.3 -104.2,5.8 -208.9,-3.9 -312.9,6.6 -426.5,0.2 -852.9,0 -1279.4,0.2 -12.2,-0.3 -24.3,-1.6 -36.3,-4 -101.4,-4 -203.1,3.6 -304.2,-6.2 -70,3.5 -139.5,-5.7 -209.4,-5.1 -68.6,-4.5 -141.2,-23.5 -189.1,-76 -36,-33.9 -45.1,-97.1 -11.6,-135.5 46.6,-55.4 122.6,-70.6 191,-78.6 69.7,-10.1 140.4,0.5 210.2,-8.7 112.9,-4.4 226.3,4.6 339,-5.9 120,-0.5 239.9,0.4 359.9,-0.3 66.5,-7.4 133.5,-4.2 200.3,-4.8 126.7,0.1 253.5,-0.1 380.3,0.2 139.8,-9.7 280.4,-3.9 420.6,-4.7 74.7,10 150.3,-0.5 225.2,7.6 306.8,10.3 613.6,30.3 919.9,55.5 96.1,5.7 192,15.6 288.1,23 23.8,3.3 48,3.5 71.9,6.8 147.5,18 296.1,10 444.4,11.6 483.3,-0.1 966.6,0.2 1449.9,-0.2 162.9,10.3 326.5,3 489.8,5.2 316.6,0 633.3,0 949.9,0 0,-90 0,-180 0,-270 -1006.6,-0.1 -2013.2,0.2 -3019.9,-0.2 -55.3,-1.5 -109.4,11.6 -164.2,16.8 -26.7,3.8 -53.3,7.1 -80,9.9 -59.8,8.5 -120,13.3 -180,20 -33.2,4.8 -66.6,7.9 -99.9,10 -119.3,11.9 -238.8,19.7 -358.4,24.9 -55.7,7.8 -112.2,-0.8 -167.8,7.2 -66,4.6 -132.4,-3 -198.2,5.6 -147.2,4.1 -295,-5 -441.9,5.9 -540,-0.3 -1079.9,0 -1619.8,-0.1 -32.1,-0.4 -64.5,2.6 -96,-3.9 -77.9,-3.7 -156.1,3.1 -233.7,-5.9 -92.7,0.4 -193.1,5.5 -274.7,-46.3 -45.3,-23.9 -78.4,-74.7 -70.1,-127 7.3,-43.7 47.8,-69.6 84.1,-88.4 67.4,-29.2 141.9,-34.4 214.4,-34.6 94.4,-11 190.2,3.2 284.7,-8.2 90.5,-1.9 181.1,0.1 271.6,-0.7 152.7,-13.1 306.6,3 459.4,-9.9 180.2,-2.5 360.7,5.3 540.7,-5.3 180.2,0.9 360.6,-0.9 540.9,0.9 68.8,9.8 138.6,-0.5 207.6,7.2 282.5,8.7 565.3,22.1 847.2,45.8 56.2,1.2 111.9,9.3 168,12.8 36.5,4.6 73.3,7.4 110.1,9.9 29.9,4.4 60,7.4 90.1,10.1 54.9,6.1 109.7,14.8 164.8,18.4 547,0.3 1093.9,0 1640.9,0.2 96.2,9 193,3.4 289.5,4.9 363.6,0 727.1,0 1090.6,0 -0.1,-95 0.1,-190.1 -0.1,-285.1 -1063.3,0.2 -2126.6,0 -3190,0.1 -28.8,0.5 -57.3,4.7 -85.8,8.5 -42.8,4.2 -85.6,8.8 -128.4,13 -29.9,4.2 -59.9,7.2 -89.9,10 -29.9,4.2 -60,7.2 -90,10 -63.2,7.6 -126.5,14.2 -189.9,20 -36.5,5 -73.1,8.1 -109.8,9.9 -93.1,9.5 -186.5,16.1 -280,19.9 -76.4,6.2 -153.3,8.5 -230,9.8 -64.1,10.3 -129.5,-1.8 -193.7,7.2 -85.3,4.7 -170.9,-0.9 -256.3,2.8 -25,5.3 -50.6,4.1 -75.9,4 -430.3,-0.6 -860.6,0.6 -1290.9,-0.6 -102.2,-11.5 -205.4,2.2 -307.6,-8.6 -49.2,-4.1 -99.1,4.1 -147.8,-4.9 -74.2,0.7 -152.8,-0.8 -218,-41 -39.4,-25 -80.8,-64.1 -76.3,-115.1 -3,-34.2 21.2,-62.5 46.7,-81.9 54.4,-38.6 122.4,-51.2 187.8,-54.7 64.3,-8.5 129.6,2 194,-7.5 90.6,-2 181.2,-0.2 271.8,-0.7 136.3,-10.2 273.4,-3.1 410.1,-4.9 236.3,-13.6 473.7,3.4 710,-10.4 97,0.8 194,-0.7 291,0.7 78,10.2 157,-0.7 235.1,7.6 270.1,9 540.2,24.8 809.9,45.4 86.7,5.8 173.4,12.3 260,20 40,2.8 80,5.2 119.9,10 84.6,5.7 168.9,14.9 253.5,21.4 557,0.2 1114,0.2 1671,0 136.2,9.9 273,3.2 409.5,5.1 363.4,0 726.7,0 1090.1,0 0,-90 0,-180 0,-270 -1086.7,-0.1 -2173.4,0.1 -3260.1,-0.1 -34.8,0.4 -69.2,5.5 -103.9,6.6 -24,3.5 -48.2,3.6 -72.1,7 -465.7,34.1 -931.7,69.1 -1398.2,83.3 -76.5,8.3 -153.7,-1.2 -230.2,5.2 -35,4.6 -70.4,2.9 -105.5,3 -313.3,0 -626.6,0 -939.8,0 -100.1,2.1 -199.7,-8.6 -299.9,-5.1 -93.4,-11.5 -190.1,6.8 -280.7,-24.8 -54.1,-19.5 -113.6,-55.1 -125.1,-116.2 -14.6,-50 25.8,-95.5 67.2,-117.4 61.2,-29.4 129.9,-41.8 197.5,-41.6 113.5,-9 227.5,-3.5 341.3,-4.7 179.4,-10.4 359.4,-3 539.1,-5.2 173.3,-2.1 347,5.1 520,-5.2 165.5,1.5 331.6,-4.3 496.5,9.2 66.7,1.8 133.6,4.2 200,9.7 50,2.6 100.1,4.5 149.9,10 93.5,4.3 186.8,12.4 280.1,19.8 222.1,15.5 443.9,36.4 666.2,49.7 125.7,10.2 251.8,6.1 377.8,6.8 453.3,0 906.6,0 1359.9,0 32,0.4 64.4,-2.5 96.1,3.9 507.9,2.7 1015.9,0.3 1523.8,1.2 0.2,-95 0,-190.1 0.1,-285.1 -1260.2,0 -2520.5,0 -3780.7,0 -98.5,-3.3 -195.8,16.5 -293.4,26.5 -40.5,5.6 -81.1,10.5 -121.4,17 -32.9,4.4 -65.7,9.8 -98.8,13 -86.2,12.4 -172.9,23.1 -259.7,30.1 -92.2,8.4 -184.7,14.7 -277.3,13.9 -56.3,6.9 -113.1,4.1 -169.7,4.5 -293.1,0 -586.1,0 -879.2,0 -36.6,-0.1 -73.2,1.6 -109.6,-3 -65.2,-6.8 -131.3,4 -196.2,-5.9 -79.3,-3 -161.5,6.3 -236.9,-24.3 -52.8,-18.7 -103.8,-59.5 -116,-116.6 -8.5,-41 19.4,-79.2 50.8,-102.6 67.8,-42.3 150.1,-52.4 228.5,-53.2 136.2,-11.8 273.4,3.3 409.5,-9.3 300.1,-0.2 600.2,0 900.3,-0.1 65.2,2.3 131.1,-4.9 195.9,3.9 56.7,0.8 113.5,2.7 169.8,9.7 100.3,6.1 200.2,17.9 300,29.9 26.6,2.8 53.3,6.2 79.8,10 26.7,2.7 53.4,6.2 80,10 56.9,5.5 113.5,13.5 170.2,20 30.1,2.8 60.2,5.6 90.1,10.6 138,4.4 276.4,-4.8 414.1,6 593.2,-0.2 1186.5,-0.1 1779.7,-0.1 66.3,0.7 132.9,-2.9 199,4.8 490.3,0.6 980.7,-0.1 1471,0.4 0.4,-101.7 0.1,-203.5 0.2,-305.2 -1060,0 -2120.1,0 -3180.1,0 -188,0.8 -376.1,-3.3 -563.8,6 -76.4,6.3 -153.3,8.1 -230,10.1 -200.3,11.6 -401.5,21.2 -601.1,45.5 -110.2,17 -220.1,36.2 -330.5,51.9 -36.2,5 -72.3,9.7 -108.6,13.1 -51.9,7.2 -104.2,8.9 -156.5,9 -89.8,12.9 -179.6,-5.3 -269.6,-0.5 -68.1,-6.6 -136.5,-3.1 -204.4,-10.8 -63.3,-16.4 -133.4,-43.8 -164.3,-105.8 -26,-47.7 -6.2,-109.1 34.9,-141.5 66.3,-55.2 154,-75.7 238.1,-83.6 33,-5.2 66.3,-8.5 99.8,-9.9 177.4,-16.5 357.3,-6.8 532.1,28 111.1,21 222.1,42.4 332.9,64.7 142,17 284.8,26.5 427.2,37.6 211.4,12 422.8,19.5 634.3,26.3 1169.8,-0.3 2339.7,0 3509.6,-0.1 -3,-138.1 6.6,-276.7 -6.1,-414.3 -30.6,-234.6 -185.7,-450.3 -402.2,-547.5 -73.7,-38.1 -156.2,-53.1 -237.7,-62.3 -2021.2,-2.3 -4042.4,-0.1 -6063.6,-1.1 -145.2,0.3 -290.1,47 -406.3,134.4 -173.3,125.5 -280,333.6 -288,546.9 -2.7,1271.2 -0.2,2542.6 -1.2,3813.9 0.7,171.2 57.2,344.1 171.2,473.6 109.5,131.8 269.4,219.6 439.8,240.4 M 8101.3,1684.6 c 11.6,71.9 50.3,135.9 98.5,189.3 11.6,-12.9 23.1,-26.1 34.5,-39.5 -44,-59.5 -83.1,-128.3 -84.5,-204.3 -4.8,-84.3 23.4,-172.3 84,-232.6 -10.6,-12.5 -21,-25.3 -31.1,-38.3 -85.8,82.2 -125.5,209 -101.4,325.4 m 1528.5,151.8 c 10.5,12.1 22.1,23.3 33.6,34.6 69,-70.5 108.8,-169.1 102.4,-268.1 2.7,-91.8 -43.4,-175.9 -102.2,-243.2 -11.9,11.3 -23.4,22.4 -35.1,33.4 79.6,89.2 111.4,224.2 61.8,335.6 -14.7,39 -41.3,71.3 -60.5,107.7 m -6636.1,-64.3 c 59.3,29.6 124.5,44.5 186.5,67.2 8.4,-20.6 17.4,-40.9 25.8,-61.6 -51.6,-17.8 -108.9,-23.9 -155.3,-53.8 28.8,-48.4 39,-110.2 85.4,-146.4 36.1,-27.5 83.7,-16 125.6,-15.8 -5.3,31 -22.6,57.5 -38.3,83.9 20.7,13.6 40.6,28.4 60.3,43.3 24.8,-48.1 60.2,-102 40.5,-158.1 -6.5,-28.3 -33.2,-51.8 -62.9,-50.8 -55,-0.7 -123.8,-10.9 -157.7,44.2 -32,-51.7 -96.3,-46 -148.8,-44.1 0.2,-6.3 0.5,-18.8 0.7,-25 -20.4,-77.1 -102.2,-116.1 -175.4,-125.5 -54.2,-10.3 -118.1,1.8 -152.5,48.3 -38.6,59.2 -32.6,135.6 -11,199.9 19.7,-5.9 39.3,-12.2 58.9,-18.6 -9.3,-42 -20,-89.9 6.8,-128.1 21.5,-24.8 57.5,-27.9 88.4,-26.5 44.7,0.1 88.3,16.9 120.6,47.9 -38.1,22.6 -82.8,28.3 -124.9,39.4 8.6,21.4 6.2,51.8 24,66.9 83.2,3.7 166.6,-1.3 249.9,2.5 1.3,69.1 -62.9,119.7 -61.3,189 3.7,5.5 11,16.4 14.7,21.8 M 3370,1830 c 21.7,0 43.3,0 65,-0.1 3.3,-85.3 -7.3,-171.6 6.5,-256.1 4.1,-3.5 12.3,-10.4 16.4,-13.8 32,0 64.1,0 96.1,-0.2 2.3,32.6 -20.1,59.1 -33.1,86.9 20.1,13.8 40.1,27.6 59.7,42.2 27.1,-52.5 64.2,-114.7 34.4,-174.1 -31.5,-55.9 -103.8,-28.4 -155.4,-35 -55.4,-9.5 -86.9,50.9 -89.3,97.8 -0.9,84.1 0.1,168.3 -0.3,252.4 m 875,0 c 23.3,0 46.6,0 70,0 -0.1,-63.5 0.2,-127 -0.2,-190.5 0,-23.3 -1.5,-47.2 6.4,-69.6 22.8,-16.6 53.1,-7.9 79.3,-10.2 -5.3,30.6 -16.4,63.1 -2.1,92.8 16.9,41.3 63.1,58.3 104.4,61.9 41.6,-4.1 81.7,-17.5 116.6,-41 -10.3,-17 -20,-34.4 -29.4,-52.1 -31.6,15.9 -66.2,21 -101.2,19.8 -10.3,-13.1 -19.5,-27.1 -28.3,-41.4 11.2,-15.4 20.9,-36.7 42.8,-38.4 40.4,-3.3 81.1,-0.5 121.7,-1.3 -0.1,-26.6 -0.1,-53.2 0,-80 -102.1,0.4 -204.1,-0.6 -306.1,0.4 -49.6,3.4 -71,58.4 -73.6,101.3 -0.9,82.7 0.1,165.5 -0.3,248.3 m 431,-34.8 c 19.4,10.5 38.2,22 56.3,34.6 36.1,-81.3 75.6,-161.1 114.7,-241.2 30,75.4 14,157.7 18,236.4 21.6,0.1 43.3,0 65,0 0.1,-55.2 -0.2,-110.3 -0.1,-165.6 1.1,-35.3 2.4,-75.8 31.9,-100.4 21.4,0.9 43,2 64.4,4.8 8.4,86.7 1.7,174.2 3.9,261.2 23.2,0.1 46.5,0 69.9,0 0,-66 -0.3,-132.1 0.2,-198.1 35.7,41.9 79.6,89.6 139.4,88.4 62.4,-7.3 100.9,-78.6 87.2,-136.9 -6.3,-51.8 -51.9,-100 -106,-98.4 -84.4,0.1 -168.8,0 -253.2,0 -37.6,-0.2 -64,35.1 -70.8,69.1 -46.6,-79.4 -162.5,-90.5 -232.5,-36.3 0.4,15.8 0.6,31.6 1,47.2 40.7,0 81.4,0 122.2,0 -37,78.4 -77.5,155.4 -111.5,235.2 m 549.1,-155.7 c -29.3,-3.2 -48.7,-26.9 -70.5,-43.9 -9.9,-12.3 -20.5,-24.1 -31,-35.9 38.5,0.4 77,0.8 115.5,-0.4 22.3,12.4 27.3,35.9 28,59.4 -13.5,7 -25.1,24.9 -42,20.8 M 6245,1830 c 23.3,0 46.6,0 70.1,-0.1 -0.1,-73.3 -0.3,-146.6 -0.2,-220 -1.1,-16.8 6.1,-32.5 12.4,-47.9 24.2,-1.5 48.5,-2.1 72.8,-3 24.1,34 12.4,77.4 14.9,116 21.3,0.1 42.7,0.1 64.2,0.1 2.4,-39.6 -1.5,-87.4 32.4,-115.5 28.3,0.5 56.6,0.5 85,0.4 0.9,32.2 -20.7,57.7 -34.5,84.8 19.6,15.8 40.1,30.5 61.3,44.1 27.6,-54.4 64.3,-121.9 28.1,-180.9 -23.5,-39 -74.7,-25.9 -112.4,-28.3 -31.6,-5 -56.5,17.7 -75,40.1 -8.2,-22.3 -29.2,-38.9 -53.3,-39.4 -33.3,-0.8 -66.7,-1.7 -99.9,0.8 -36.5,6.6 -51.9,46.2 -59.8,77.9 -11.8,89.8 -3.8,180.7 -6.1,270.9 m 842.9,-56.9 c 52.5,20.1 106.3,36.6 159,56.3 9.1,-19.6 18.1,-39.3 27.6,-58.9 -49.9,-17 -102.5,-26.3 -150.1,-49.5 16.7,-38.7 34.5,-77 55.5,-113.7 17.4,-32 55.5,-47.8 90.8,-47.6 15.6,-0.6 31.5,8.7 33.5,25.3 2.3,30 0.3,60.1 0.7,90 21.6,0.1 43.3,0 65,0 1.2,-31.6 -5.4,-65.5 9.6,-95.1 10.9,-21.8 39.6,-20.6 60.5,-19.7 29,27.6 9.6,74.1 14.9,109.7 21.3,0.1 42.6,0.2 64.1,0.1 7.1,-34.9 -3.6,-81.3 29.1,-105 7.3,0.6 21.9,1.8 29.2,2.4 15,32 5.1,68.8 7.6,102.9 19.9,-0.7 40.5,1.9 60.3,-2.9 8.2,-33.2 -0.4,-73.8 28,-99.3 12.5,-3.4 32.9,-9.3 41.6,4.2 3.7,31.2 -13.9,59.1 -24.5,86.9 17.2,10.9 34.1,22.1 51.5,32.7 33.7,-51.7 59.9,-127.3 15.9,-180.8 -35.7,-39 -100.1,-25.7 -130.8,13 -15.7,-30.9 -48.9,-42.5 -81.7,-40.9 -15.7,12.3 -30.8,25 -45.3,38.4 -34.5,-48.5 -114.4,-51.7 -147.4,-0.1 -15.1,-37.1 -57.9,-39.6 -92.3,-36.9 -34.4,-3.1 -64.6,17.3 -85.8,42.4 -31.2,-50.8 -93.6,-43.2 -144.4,-42.1 -35.2,-1.6 -63,23.1 -88.6,43.7 -33.2,-3.1 -66.7,-14.3 -99.9,-4.1 -47.1,6 -80.5,55.8 -70.7,101.7 15.2,41.9 57.5,63 94.9,81.7 -3.3,8.4 -9.9,25.3 -13.2,33.7 17.6,12.7 35.9,24.3 54.2,36.1 27.1,-69.1 43.6,-143.2 82.7,-207 40.6,-16.2 85.7,-12.4 128.1,-6.2 -5.8,66.1 -63.4,116.4 -59,184.5 8.9,9 16.4,20.7 29.4,24.1 m -262.3,-173.6 c 26.5,-11.2 55.4,-10.2 83.7,-9.9 -8.3,20.5 -16.5,40.9 -24.3,61.5 -22.1,-14.4 -50.3,-24.2 -59.4,-51.6 m 2029.3,230.4 c 21.6,0.1 43.3,0.1 65.1,0.1 -0.1,-70.1 -0.1,-140.2 -0.2,-210.4 -0.3,-20.4 1.3,-46.1 20.4,-58.6 20.9,-2 42,-1 63.2,-1.3 5.5,7.5 11.1,14.9 16.8,22.3 -0.3,31 -0.2,62 -0.2,93 21.3,0 42.6,0.1 64.1,0 2.6,-39.7 0,-86.1 32,-115.6 17.6,0.5 35.3,0.6 53.1,0.5 18.3,35.7 8.7,76.8 10.7,115.1 21.3,0 42.7,0.1 64.2,0.1 8.7,-34.6 -2.2,-77.4 24,-105.5 13.8,-19 44.1,-6 46.2,15.5 2.2,29.9 0.2,60 0.6,89.9 21.4,0.1 43,0 64.6,0 -1.1,-35.3 1.2,-72.9 20.5,-103.7 14.3,-16.5 34.5,-9.1 51.9,-2.7 -0.3,33.5 -13.9,64.1 -27.6,93.8 18.1,11.5 36.2,23.1 54.1,34.9 21,-39.9 45.9,-81.7 41.6,-128.7 -4.2,-32.8 -20.6,-69.9 -54.5,-80.7 -37.9,-16.7 -83.4,1.4 -106.9,33.5 -14.3,-24.6 -39.4,-45.2 -69.4,-41.9 -27.7,-1.7 -47.5,20.9 -64.2,39.5 -33.1,-52.4 -122.6,-56 -153.7,0.3 -11.2,-17.7 -26.8,-35.1 -48.5,-38.7 -37.1,-1.8 -74.1,0.1 -111.1,-0.8 -36.7,19 -56.7,59.4 -56.7,99.7 -0.2,83.5 0.2,166.9 -0.1,250.4 M 5370,1825 c 21.6,0 43.2,0.1 64.9,0 0.3,-114.8 -0.3,-229.7 0.4,-344.5 -21.8,-0.3 -43.6,-0.4 -65.3,-0.6 0.1,115 0,230.1 0,345.1 m 470,0 c 20,0.1 39.9,0.1 60,0 -2.3,-113.9 4.6,-228.4 -3.7,-342 -0.3,-4.2 -1,-12.7 -1.3,-17 -9.7,-30.7 -21.5,-62.3 -46,-84.6 -58.5,-52.7 -165.2,-51.9 -211.4,16.6 -44.5,61.9 -37.6,143.7 -14.5,212.5 18.2,-7.5 36.3,-15.5 54.2,-24.1 -10.5,-41.5 -22.4,-89 2.2,-128.2 27.1,-36.6 83,-35.5 121,-18.7 32.4,11.3 36.8,50.4 39.4,79.8 0.5,101.9 -0.1,203.8 0.1,305.7 m 3460.1,0 c 21.5,0 43.1,0.1 64.9,0 -0.1,-21.6 -0.1,-43.3 0,-65 -21.8,0.1 -43.4,0 -65,0 0,21.7 -0.1,43.4 0.1,65 M 7575,1815 c 18.2,0.1 36.6,0.1 55,0 -0.1,-21.6 -0.1,-43.4 0,-65.1 -18.4,0.1 -36.8,0.2 -55,0.2 -0.1,21.7 -0.1,43.3 0,64.9 m -1544.5,-91.1 c 22.3,13.9 35.6,52.5 64.4,50 l -9.1,-6.6 c 34,-43.6 69,-86.5 101.8,-131.1 33.1,-42.4 27.3,-114.4 -20.1,-144.1 -40,-19.8 -85.7,-10 -128.4,-12.3 -45.3,-4.8 -75.9,34.2 -104.3,62.8 16,15.5 31.8,31.3 47.6,47.1 34.8,-49.7 100.5,-23.3 151.1,-29.8 2.7,16 1.5,32.4 -10.3,44.5 -30,40.5 -62.7,79 -92.7,119.5 M 3225,1770 c 21.6,0 43.3,0 65,0 -0.1,-23.3 -0.1,-46.6 0,-70 -21.7,0.1 -43.4,0.1 -65,0 0,23.4 0,46.7 0,70 m 3335,-5 c 19.9,0.1 39.9,0.1 60,0 -0.1,-21.6 -0.1,-43.3 0,-65 -20.1,0.1 -40.1,0.1 -60,0 0,21.7 0,43.4 0,65 m 75,0 c 19.9,0.1 39.9,0.1 60,0 -0.1,-21.6 -0.1,-43.3 0,-65 -20.1,0.1 -40.1,0.1 -60,0 0,21.8 -0.1,43.4 0,65 m 2370,0 c 19.9,0.1 39.9,0.1 60,0 -0.1,-21.6 -0.1,-43.3 0,-65 -20.1,0.1 -40.1,0.1 -60,0.1 -0.1,21.7 -0.1,43.3 0,64.9 m 75,0 c 19.9,0.1 39.9,0.1 60,0 -0.2,-21.6 -0.1,-43.3 0,-65 -20.1,0.1 -40.1,0.1 -60,0 0,21.7 -0.1,43.4 0,65 m 190.1,-10 c 19.8,0.1 39.8,0 59.9,-0.1 -0.2,-21.5 -0.1,-43.2 0,-64.9 -20.1,0.1 -40.1,0.1 -60,0 0,21.8 -0.1,43.4 0.1,65 m 69.9,-0.1 c 19.9,0.1 39.9,0.2 59.9,0.1 -0.1,-21.6 0,-43.2 0.1,-65 -20.1,0.1 -40.1,0.1 -60,0 0,21.7 -0.1,43.4 0,64.9 M 7545,1745 c 18.2,0.1 36.6,0 55,0 -0.1,-19.9 -0.1,-39.9 0,-60 -18.4,0.1 -36.8,0.1 -55,0 -0.1,20.1 -0.1,40.1 0,60 m 65.1,-0.1 c 18.2,0.1 36.4,0.2 54.9,0.1 -0.1,-19.9 -0.1,-39.9 0,-60 -18.5,0.1 -36.7,0.1 -55,0 -0.1,20.1 -0.1,40 0.1,59.9 M 3875,1700 c 20,0 39.9,0 60,0 0,-21.6 -0.1,-43.2 0,-65 -20.1,0.1 -40,0.1 -60,0 0,21.8 0,43.4 0,65 m 75,0 c 20,0 40,0 60,0 -0.1,-21.6 -0.1,-43.2 -0.1,-65 -20,0.1 -39.9,0.1 -59.9,0 0,21.8 0,43.4 0,65 m 148.6,-52.2 c 20.5,12.7 40,27 58.9,42.1 27.2,-53.7 68.3,-115.2 34.5,-175.9 -8.9,-8.7 -17.6,-17.6 -26.1,-26.8 -15,-4.2 -30.2,-8 -45.8,-7.4 -107.2,0.5 -214.3,0.1 -321.5,0.2 -35.6,-2.9 -68.5,22 -80.7,54.5 -11.1,28.9 -7.5,60.3 -8.1,90.5 23,0 46.1,0.1 69.2,0.1 0.8,-20.4 2.1,-40.9 4.8,-61.3 115.6,-8.5 232.1,-1.7 348,-3.7 -0.6,32.4 -19.6,59.6 -33.2,87.7 m 4610.3,-1.7 c 19.7,13.8 38.9,28.4 57.7,43.4 20.4,-37.8 38.8,-76.7 49.6,-118.6 -3.1,-39 -22.9,-84.3 -66.1,-90.5 -118.6,0 -237.5,-1.7 -356,0.8 -64.1,14.6 -69.1,90.5 -64.1,143.8 21.2,0 42.4,0.1 63.8,0 0,-22.8 2.1,-46.4 16,-65.7 110.7,1.6 221.4,0.1 332,0.8 -0.5,31.9 -18.8,58.8 -32.9,86 m -797,-46.3 c 12.5,25.7 43.5,38.3 71,33 -28.3,-17.7 -52.8,-41.1 -50,-77.4 13.9,-0.1 28,-0.3 42.1,-0.5 -0.1,-24.9 -0.1,-49.8 0,-74.9 -25,0.1 -50,0.1 -74.9,0 1.5,39.9 -6.7,82.7 11.8,119.8 M 7305,1440 c 21.6,0.1 43.3,0 65,0 -0.1,-21.6 -0.1,-43.2 0,-65 -21.8,0.1 -43.4,0.1 -65,0 -0.1,21.8 0,43.4 0,65 m -3780,-5 c 23.3,0.1 46.6,0.1 70,0 0,-23.3 -0.1,-46.6 0,-70 -23.4,0.1 -46.7,0.1 -70,0 0,23.4 0,46.7 0,70 m 2905,0 c 23.3,0.1 46.6,0.1 70,0 -0.1,-23.3 -0.1,-46.6 0,-70 -23.4,0.1 -46.7,0.1 -70,0 0,23.4 0,46.7 0,70 m 2090,0 c 23.3,0.1 46.6,0.1 70,0 -0.1,-24.9 -0.1,-49.9 0,-75 -23.4,0.1 -46.7,0.1 -70,0 0,25.1 0,50.1 0,75"
         style="fill:#3497fd;fill-opacity:1;fill-rule:nonzero;stroke:none"
         id="path12" />
    </g>
  </g>
</svg>
