<?xml version="1.0" encoding="UTF-8" standalone="no"?>
<svg
   xmlns:dc="http://purl.org/dc/elements/1.1/"
   xmlns:cc="http://creativecommons.org/ns#"
   xmlns:rdf="http://www.w3.org/1999/02/22-rdf-syntax-ns#"
   xmlns:svg="http://www.w3.org/2000/svg"
   xmlns="http://www.w3.org/2000/svg"
   viewBox="0 0 778.66669 800"
   height="800"
   width="778.66669"
   xml:space="preserve"
   id="svg2"
   version="1.1"><metadata
     id="metadata8"><rdf:RDF><cc:Work
         rdf:about=""><dc:format>image/svg+xml</dc:format><dc:type
           rdf:resource="http://purl.org/dc/dcmitype/StillImage" /></cc:Work></rdf:RDF></metadata><defs
     id="defs6" /><g
     transform="matrix(1.3333333,0,0,-1.3333333,0,800)"
     id="g10"><g
       transform="scale(0.1)"
       id="g12"><path
         id="path14"
         style="fill:#19499e;fill-opacity:1;fill-rule:nonzero;stroke:none"
         d="m 2761,5698.7 c 69.1,37.5 136.4,78.3 206.9,113.2 337,-181.3 675.8,-359.5 1014.1,-538.5 C 3303.5,4916.3 2625.1,4559.2 1946.1,4203 c -12.5,-9.1 -37.6,-11.6 -35.2,-32 -0.7,-373.6 -0.8,-747.2 0.1,-1120.8 328,-177.4 654.5,-357.7 981.9,-536.2 -353.5,-185 -707.6,-368.8 -1061,-554.1 -323.2,156.4 -643.8,318.8 -967.701,473.6 -1.801,562.1 -0.301,1124.3 -0.801,1686.4 1.204,175.2 -2.398,350.6 1.704,525.6 119.296,70.3 243.098,134.9 363.898,203.5 510.9,282.9 1021.1,566.9 1532,849.7 m 636,-865.6 c 223.7,116.6 447.2,233.4 670.9,349.9 267.8,-129.2 533.5,-262.9 800.8,-392.8 54.9,-29.3 113.4,-53.8 167,-84.1 2.4,-736.4 0.3,-1473.1 1,-2209.7 -697,-384 -1391.8,-772.4 -2088.4,-1157.2 -17,-10 -33.5,3 -48.5,10.1 -326.5,174.3 -654.7,345.5 -980.4,521.2 689.8,363.4 1379.8,726.3 2070.1,1088.6 -0.3,374.2 0.6,748.3 -0.4,1122.4 2.7,14.4 -14.7,17.1 -23.3,23.3 -316,171.3 -629.9,346.4 -946.6,516.3 -2.2,3.3 -6.5,9.8 -8.7,13.1 130.9,61.8 257.2,133.5 386.5,198.9 M 4782.2,1686.5 c 159.8,131.2 305.1,278.6 451.9,423.8 3.8,-14 2.4,-28.4 -4.1,-41.4 -49.3,-123 -147.1,-216.7 -239.6,-307.9 -166,-156.5 -351.2,-290.3 -529.1,-432.7 -54.3,-39.1 -103.2,-86.3 -162,-118.9 14.5,60 50.6,114.3 94.7,157 123.6,113.6 258.2,214.2 388.2,320.1 M 1574.5,1561 c 42.3,-23.2 92.6,-57.4 92.2,-111.3 -3.9,-52.4 -32.1,-104.6 -76,-134.1 -30.3,29.1 -73.9,47.8 -94.8,84.6 18.8,56.6 47.3,110 78.6,160.8 M 3600,1359.8 c 46.8,23.7 95.6,47.4 148.9,50.7 2.5,-37.9 -26.5,-64.4 -47.1,-92.4 -16.6,-20.8 -31.9,-46.1 -60,-52.4 -73.2,-21.1 -133.8,-68.6 -197,-109 C 3197,989.5 2943,820.301 2654.1,733.199 c -144.3,-43.398 -294,-67.597 -444.4,-76.398 -108.2,0.199 -217.1,-4.5 -324.5,11.5 -55,10.597 -115.4,18.699 -157.8,59 -11.3,7.699 -20.3,24.398 -35.9,21.801 -29.4,-25.204 -46.9,-62 -80,-83.5 -23.4,1.699 -47.5,6.796 -70.7,1.296 C 1472.4,630 1454.7,541 1385.8,504.602 c -50.9,-25.903 -116.4,1.097 -140.4,51.398 -46.4,88.102 -23.8,189.898 -15.1,284 3.8,65 18.9,128.398 25.8,193 10.2,86.6 45.4,168.4 88.6,243.3 -0.9,-86.4 -24.3,-170.6 -31.4,-256.5 -12.7,-79.198 -22.8,-159.499 -18.4,-239.902 2.2,-40.898 18.4,-86.898 58.6,-104.699 46.2,-25.597 107,-7.801 138.2,32.903 22.1,24 41.3,57.097 76.6,62 20.8,0.097 41.3,-4.5 62.2,-4.204 49.6,34.204 75,93.602 126.4,126.102 19.7,7.801 41.8,5.301 61.9,0.102 138.3,-47.301 286.4,-56 431.6,-55.403 357.1,7.199 701.2,135.403 1007.5,313.101 116.3,66.3 221.4,151.2 342.1,210 m 987.1,-227.9 c 17.4,38.1 30.3,78.8 54.8,113.2 2.4,-76.1 -21.5,-149.9 -26.6,-225.6 -13.6,-98.398 -30.4,-198.102 -19.4,-297.602 5.5,-44.597 51.7,-72.097 94.3,-66.398 20,25.5 29.8,56.301 39.6,86.602 4.3,2.097 13,6.296 17.4,8.296 4.4,-51.699 -14.6,-100.5 -28.4,-149.398 -13.5,-39.699 -30.7,-80.301 -62.8,-108.699 -37.1,-25.602 -93.6,-9.903 -113.8,30.097 -35.2,74.5 -25.9,159.602 -17.7,239 7.3,53.204 8.7,107.204 18.8,160 12.5,70.403 14.1,144.202 43.8,210.502 m -351.2,-65.7 c 18.8,44.3 41.3,86.9 68,126.9 2,-63 -22.4,-122.3 -30,-184.1 -22.4,-94.5 -32.9,-191.301 -40,-288 -1.6,-51 -6.5,-112.5 35.2,-150.301 17.3,-19.597 44.5,-16.699 68.1,-17.801 23.9,28.602 33.6,65 46.9,99 15.2,-5.898 18.1,-22.699 13.5,-36.898 -17,-76.301 -31.5,-158.5 -82.9,-220.301 -37.4,-43.398 -115,-25.301 -133.6,27.5 -42,102.602 -9.7,214.102 -9.4,320.602 -47.9,-20.5 -69.3,-73.602 -107.5,-106.602 -96.7,-85 -216.6,-137.301 -335.1,-184.5 -148,-62.597 -310.5,-73.801 -469,-84.398 -70.9,-0.602 -142.7,-5.199 -212.8,9.199 -39.5,6.699 -84,18.398 -107.7,53.602 -33.7,53.699 -22.8,119.796 -20.4,179.699 4.8,30.898 2.3,70.5 30.2,91.199 6.7,-34.699 20.5,-67.301 33.8,-99.898 60.3,-48.403 143,-49.403 216.7,-47.704 116.3,2.801 233.8,-8.597 348.9,13.301 125.3,15.403 251.6,36.199 369.7,82.602 90.8,42.898 185.4,94.5 238.6,183.398 44.1,71.403 40.6,159.903 78.8,233.501 m 155.1,24.2 c 44.8,-23.8 95.7,-64 88.4,-120.9 -10,-42.699 -28.2,-90.699 -68.3,-113.5 l -10.8,1.602 c -30.5,23.898 -67.2,42.898 -88.4,76.5 24,53.199 47.2,107.098 79.1,156.298 M 1605.4,295.602 c 18.9,43.898 41.4,85.898 66.2,126.597 44.6,-29.699 102.7,-70 90.6,-132 -15,-42.699 -32.3,-90.597 -74.6,-113.597 -31.6,21.898 -63.6,44 -90.7,71.5 -14.1,14.898 3.2,32.699 8.5,47.5 m 237.8,132.097 c 30.1,-7.5 52.5,-30 72.9,-52.097 32.4,-29.5 24.7,-81 6.5,-116.403 -15.1,-27.398 -28.7,-63.199 -62.3,-71.699 -33.1,25.699 -69.7,48.301 -96.4,81.102 24.9,53.796 50.3,107.398 79.3,159.097 M 4531,268.398 c 26.5,49.5 47.4,101.903 78.2,149 34.7,-24.597 78.2,-50.296 84.5,-96.398 -0.3,-40.898 -19.7,-80.102 -45,-111.5 -8.9,-11.102 -26.3,-22.602 -38.9,-9.699 -27.4,21.398 -57.1,41 -78.8,68.597" /><path
         id="path16"
         style="fill:#fcb913;fill-opacity:1;fill-rule:nonzero;stroke:none"
         d="m 2820.9,4446.7 c 11.1,8.9 25.6,9.7 39.2,10.8 83.4,6.5 167.8,6.7 250.7,-5.2 3.9,-1.6 11.7,-4.8 15.6,-6.5 99.2,-15.7 198.9,-48.3 282.7,-104.1 5.9,-1.5 17.7,-4.5 23.6,-6 3.9,-13.6 17.8,-16.1 29.1,-21.4 6.7,-10.5 18.4,-15.2 28.6,-21.4 165.6,-121.7 286.7,-301.3 338.8,-500.1 44.2,-185.5 34.1,-386.1 -40.9,-562.4 -5.2,-14 -11.5,-27.6 -19.8,-39.9 -53.7,-129.1 -150.7,-235 -256.3,-324.1 -50.4,-37.1 -103.5,-70 -158.8,-99.3 -79.3,-31.7 -158.9,-66.7 -245.1,-72.6 -11.7,-6.4 -24.5,-10.6 -37.9,-10.9 -64.8,-4.8 -129.8,-4.5 -194.6,-0.9 -15.4,1.4 -32.2,0.9 -45,10.8 -35,5.7 -70.4,9.5 -105.8,12.5 0.2,2.8 0.4,8.3 0.5,11 -17.9,2.9 -35.8,5.9 -53.4,9.8 -13.6,14.2 -34.1,14.6 -51.7,19.8 -10.5,11.4 -25.9,15.2 -39.6,21 -103.4,47.5 -192.5,119.8 -272.6,199.6 -32.5,37.3 -63.3,75.8 -90.2,117.5 -68,104 -111.1,222.6 -133.9,344.3 -11,100.1 -11.1,201.5 2.1,301.4 8.9,32.7 18.3,65.3 21.9,99.2 18.2,31.6 23.7,68.8 42.4,100.4 37.8,92.4 94.9,175.8 161.7,249.7 45.5,51.8 102.3,91.5 155.9,134.2 80.7,44.3 160,97.4 252.5,113 29.9,18.3 66.9,14.1 100.3,19.8" /></g></g></svg>