<?xml version="1.0" encoding="UTF-8" standalone="no"?>
<svg
   xmlns:dc="http://purl.org/dc/elements/1.1/"
   xmlns:cc="http://creativecommons.org/ns#"
   xmlns:rdf="http://www.w3.org/1999/02/22-rdf-syntax-ns#"
   xmlns:svg="http://www.w3.org/2000/svg"
   xmlns="http://www.w3.org/2000/svg"
   viewBox="0 0 678.66669 905.33331"
   height="905.33331"
   width="678.66669"
   xml:space="preserve"
   id="svg2"
   version="1.1"><metadata
     id="metadata8"><rdf:RDF><cc:Work
         rdf:about=""><dc:format>image/svg+xml</dc:format><dc:type
           rdf:resource="http://purl.org/dc/dcmitype/StillImage" /></cc:Work></rdf:RDF></metadata><defs
     id="defs6" /><g
     transform="matrix(1.3333333,0,0,-1.3333333,0,905.33333)"
     id="g10"><g
       transform="scale(0.1)"
       id="g12"><path
         id="path14"
         style="fill:#2e428d;fill-opacity:1;fill-rule:nonzero;stroke:none"
         d="m 2354.5,6790 h 46.2 c 14.7,-449.4 29.3,-898.9 45.8,-1348.2 26.2,-4.2 37.8,32 55.1,47.3 19,31 62.8,50.4 61.6,90.5 -0.2,403.5 -0.3,806.9 0,1210.4 h 42.3 c 64.7,-8.1 129.8,-11.7 194.5,-19.5 -13.5,-307 -29.8,-613.9 -43.8,-920.9 -7.3,-87.9 -4.3,-176.6 -15.6,-264.2 47.2,22.7 99.8,30 151.4,20.8 39.1,376.7 77.3,753.5 115.4,1130.3 71.5,-18.9 142.1,-40.9 213.5,-60.5 -57,-394.6 -118.1,-788.7 -176.4,-1183.1 47.2,5.2 95.4,10.8 142.1,-2 72.6,371.5 145.3,743 220.4,1114 72,-37 143.4,-75.3 214.7,-113.7 -83,-336.8 -166.5,-673.6 -249.7,-1010.4 -7.9,-33.6 -19.3,-66.5 -22.5,-101 2,-3.2 6,-9.5 8,-12.7 33.5,-16.4 70.2,-26.1 102.1,-46.1 107.6,359.5 213.7,719.5 323.5,1078.4 59.7,-44.4 118.3,-90.3 178.5,-134 -179.9,-530.9 -365,-1060 -546,-1590.5 -6.6,-24.7 2,-50 4.1,-74.8 8.1,-45.4 7.9,-92 16.8,-137.3 2.9,-2.2 8.7,-6.8 11.6,-9.1 22.3,39.6 36.1,83.1 53.4,124.9 206.2,514.9 412.5,1029.7 618.6,1544.6 53.3,-54.3 104.2,-111 157.6,-165.2 -235.3,-512.9 -473.8,-1024.5 -710.4,-1536.8 21.8,-28.3 52.4,-64.2 34.1,-102.1 -29.1,-46.5 -86.2,-69.5 -109.9,-120.4 -13.1,-36.6 -0.7,-75.6 9.9,-111.3 9.4,14.7 18.7,29.5 27.1,44.8 288.1,557.1 576.8,1114 864.7,1671.2 44,-66.5 81.1,-137.3 123.9,-204.6 -313.2,-540.9 -628,-1080.9 -942.7,-1620.9 17.5,-13.9 32.4,-34 54.9,-39.8 15.3,-3.4 23.7,11.2 31.4,21.4 314.6,483.8 630.1,967.2 945.7,1450.4 25,-68.9 55.8,-136.9 72.5,-208.2 -24.1,-41.3 -55.4,-77.9 -82.3,-117.4 -280.3,-389.8 -560.3,-779.8 -840.6,-1169.6 -28.7,-39.8 -69.8,-80.7 -56,-134.8 1.9,-30.6 41.4,-23.4 52.7,-2.7 327.6,413.7 650.7,831.2 980.2,1243.3 14.3,-80.6 29.5,-161.2 44.1,-241.8 -398.2,-457.1 -797.1,-913.4 -1195.3,-1370.5 -10.4,-14.8 -32.1,-36.4 -11.3,-52.4 15,-2.5 31.9,-2.6 42,11 389.3,398.8 778.1,798.3 1167.6,1197 -0.2,-61.2 0.2,-122.3 0.3,-183.5 -1.8,-13.7 2.9,-31.1 -8.7,-41.5 -368.5,-348.1 -737.7,-695.9 -1106.1,-1044 -30,-46.8 -79.5,-73 -116.1,-113.7 -139.8,-136.5 -278.7,-273.9 -417.3,-411.6 14.9,0.4 30,0.7 45.1,0.8 393.3,347.8 788.2,693.7 1182.1,1040.7 132,114.3 260.4,233.1 394.9,344.4 -12.4,-71.5 -26.1,-142.9 -39.5,-214.3 -5.2,-31.8 -38.5,-45.6 -60.1,-65.4 -464.8,-369.5 -932.1,-736 -1395.4,-1107.3 17.9,3 38.5,-1.7 54.9,8 444.3,318.2 884.9,642.1 1330.6,958.3 -18.9,-53.2 -41.8,-104.9 -61.8,-157.8 -9.8,-22.4 -16.2,-49.1 -38.9,-62.4 -226.3,-149.7 -453.1,-298.8 -679.7,-448.2 -148.8,-99.9 -300.8,-195 -447.9,-297.4 17.3,2.5 34.7,6.2 49.7,15.6 183.7,109.9 369.7,216 553.8,325.2 151.4,85.8 298.8,178.9 451.9,261.7 -75.7,-142.1 -176.7,-269.7 -287.6,-385.9 -33.4,-36.6 -75.2,-65 -106.1,-103.9 19.7,-36.9 59.1,-57.7 81.6,-91.7 4,-199.7 0.5,-399.9 1.7,-599.8 -1094.4,-0.2 -2188.9,-0.1 -3283.298,0 0.296,189.7 -1.102,379.4 0.199,569.2 26.398,24.2 52.301,49.1 78.301,73.8 -116.102,108.3 -226.5,223.1 -324.801,347.8 -36.5,47.3 -71.403,96 -99.5,148.8 355.898,-181.5 709.599,-367.8 1064.599,-551 12.9,-5 26.1,-8.8 39.7,-11.4 -44.1,33.7 -93.7,59.2 -140.4,88.9 -342.1,207.8 -684.001,415.9 -1026.2,623.6 -14.602,8.7 -28.5,19.7 -34.898,36.1 -26.403,57.9 -52.204,116.2 -76.903,174.9 189.301,-120.3 374.602,-247 562.699,-369.2 270.702,-179.8 542.802,-357.4 813.202,-537.5 15.1,-11 33.7,-14 51.8,-16.7 -41.1,36.1 -87,66 -130.6,98.9 -453.8,332.1 -907.402,664.3 -1361.198,996.4 -21.5,83.1 -44.5,166.1 -58.102,251 542.102,-443.6 1082.3,-889.8 1623.5,-1334.5 15.8,-12.8 37.9,-7.8 56.6,-11 -368.4,341.3 -740.1,679 -1109.901,1018.9 -198.597,181.1 -395.097,364.6 -595.398,544 0,68.7 -1.301,137.4 1.097,206 86.102,-78.8 165,-165 249,-246 C 967.5,3783.6 1475.1,3277.1 1981.4,2769.4 c 7,0.3 21,0.9 28,1.2 C 1518.8,3306.1 1028.3,3841.6 537.699,4377 433.602,4492.5 326,4605.1 223.602,4721.9 c 8.398,84.3 26,168 41.597,251.3 598.5,-734.4 1197.201,-1468.7 1795.401,-2203.4 8.5,0 25.7,0 34.2,0 C 1498,3566.5 899.699,4362.2 302,5158.3 c 27.398,69.8 53.602,140 80.5,209.9 C 584.102,5077 779.5,4781.4 978.699,4488.5 1365.7,3915.4 1752.5,3342.2 2139.7,2769.2 c 7.6,0.2 22.8,0.5 30.4,0.7 -570.4,926.6 -1140.4,1853.5 -1711.1,2780 43.699,73 87.199,146.2 131.301,219 C 908.5,5188.2 1225.7,4606.8 1542.5,4025.3 c 21.2,18.1 45.1,32.5 71,43 -81.7,158.3 -157.7,319.6 -237.6,478.9 -29.3,11.3 -61,21.6 -82.2,46.2 -22.8,23.1 -28.7,56 -35.4,86.3 -7.8,38.2 -40.2,64.6 -52.3,100.9 -4.7,48.3 20.2,101.8 -11,145.4 -166.8,329.3 -328.398,661.3 -492.398,992 51,58.6 98.398,120.3 151.199,177.4 42.898,-99.6 85.801,-199.2 128.301,-298.9 13.597,27.6 26.598,61.4 57.898,73 21.7,3.7 50.1,5.8 64.8,-14.2 36.3,-43.9 67,-92.1 102.8,-136.4 -67.9,173.9 -134.3,348.3 -201.9,522.2 60.1,47.1 119.3,95.3 180,141.7 73.1,-213.3 146.9,-426.3 218.5,-640.1 10.6,23.1 19.1,47.5 34,68.3 18.4,24.1 49.5,31.4 76.2,42.4 -56.9,209.7 -113.2,419.6 -170.5,629.2 74.4,38.5 148.6,77.6 224.1,114.1 50.2,-251.8 99.9,-503.7 149.1,-755.7 6.8,-48.3 58.6,-79.6 54,-131.3 -0.1,-25.6 -24.7,-40.1 -40.5,-56.5 -8.1,3.3 -24.2,9.8 -32.2,13.1 7.1,-64.7 7.2,-129.9 13.9,-194.5 16.8,-40.6 68.8,-43.9 106.6,-50.3 54.9,-4.6 106.9,-28.3 148,-64.7 27.8,-22 50.3,-52.1 83.7,-66.3 20.3,5.3 39.3,15 59.9,19.3 25.1,-4.6 46.6,-19.5 69.2,-30.5 50.2,12.9 96.5,35.9 143.8,56.5 29.4,15.7 38.1,-25.7 51.7,-42.6 8.5,10.8 22.4,20.5 19,36.3 -1.7,64.4 -25.7,126.2 -23.2,191 -2.7,60.2 8.1,119.8 24.9,177.4 -24.6,-9 -55.3,-47.1 -80.6,-22.8 -36.1,45.7 -58.5,102.7 -56.7,161.5 -18.3,2.4 -36.6,4.8 -54.9,7 48.6,73.9 19.5,164.3 12.7,245.3 -16.3,228.2 -31.1,456.5 -47.3,684.6 61.9,4.7 123.7,9.8 185.4,16.5 m -1322,-1008.5 c -12.2,-73 8.6,-145.5 21.2,-217 8.1,-54 46.3,-96.4 61.4,-148.2 23.4,-55 18.2,-119 51.4,-170.1 26.5,-45.3 64.8,-81.5 99.2,-120.4 20.8,-23.1 21.7,-56.5 21.5,-85.9 0.2,-79.3 -34.7,-152.5 -45.5,-229.8 -9.4,-56 58.6,-79.3 60.6,-131.7 3.7,-19 7.1,-40.3 23.6,-52.9 31.9,-27.1 76.6,-24.7 114.2,-38.5 53.3,-18 109.5,-48.1 133.4,-101.8 6,-37.6 -3.2,-76.4 4.7,-113.7 12.1,-23.9 28.4,-45.8 36.7,-71.7 14.9,-44.8 8.1,-92.9 18,-138.6 5.3,-18.5 14.5,-42.2 36.9,-44.1 43.9,13.8 49.5,81.4 100.4,82.8 30.9,4 25.9,-40.6 51.3,-48 38.9,-10.5 85.9,-1.7 116.6,-33 20.2,-16.9 24.8,-44.1 31.6,-68.2 25.5,-98.2 77.5,-189.4 148.3,-262.1 22.4,-24.9 57.4,-29.1 85.7,-44.7 37.2,-17 63.8,-53.2 106.1,-59.6 88.6,-23.2 152.6,-117.6 251,-104.5 83,24.6 148.1,98.9 238.7,100.5 40.4,3.8 78.6,-17.1 103.9,-47.6 43.1,-47.6 55.7,-114.5 97.8,-162.5 14.1,-17.9 37.2,-20.1 58.4,-19.4 104.3,1.2 207.1,-19.2 309.5,-37.1 49.7,-7.5 93.9,-33.6 143.2,-43.2 26.2,87.5 23.5,187.9 86.2,260.7 35.9,47.7 96.3,64.4 153.3,67.5 -28.6,11.9 -64.6,13.2 -84.9,39 -23.4,46.9 10.2,114.7 -36.2,151.3 -43.2,29.4 -90,55.1 -124.1,95.7 -62.6,65 -80.2,163.1 -60.1,248.6 27.2,43.5 84,56.2 113,98.2 10.7,17 8.5,46.6 -12.8,54.1 -46.5,18.8 -106.3,-1.6 -145.4,35.3 -38.2,48.1 -14.2,113.3 -28.1,168.5 -9.6,39.9 -4.5,80.8 -3.2,121.2 -1.7,49.2 -66.5,68.4 -61.5,119.9 0,95.6 98.8,150.5 117,240.3 0.7,26.6 -10.8,51.8 -12.4,78.3 -5.5,37.5 5.2,74.2 14.6,110 7.9,19.1 -8.1,37.1 -24.7,44 -37.5,18.4 -79.1,33.4 -103,70.1 -15.2,0.8 -30.9,-1.9 -45.6,2.4 -29.2,21.4 -52.5,51 -85.5,67.2 -44.9,4.9 -90.9,-12.8 -135.3,1.3 -66.3,19.5 -114.8,71.9 -159.6,121.5 -27.4,-0.8 -54.7,-0.8 -82,-1.3 -50.4,-39.6 -121.3,-47.8 -177.7,-15.9 -43.4,-50.7 -88.6,-100.1 -137.1,-145.9 -12.8,-15.2 -33.3,-10.4 -50.6,-11 9.8,-25.1 17.8,-52.8 10.2,-79.7 -16.9,-32.5 -47,-56.1 -78.7,-73.4 -11.5,13.9 -22,28.5 -31.3,43.9 -51.9,3.6 -97.6,-24.8 -147.4,-33.5 -23.9,-7.4 -45.9,7.7 -68.8,12 -34.6,-7 -75.3,-21.8 -105.4,5.4 -43,39.9 -85.4,88.2 -146.9,97.3 -60.7,10.7 -129.5,21.1 -171.6,71.2 -35.4,41.9 -3.1,100.4 -25.1,147.2 -35.4,3.4 -84.4,-13.6 -107.8,22.2 -17.5,57.5 2.8,118.6 -6.1,177.3 -1.3,12.3 -10.3,35.7 -26.9,23.8 -45.5,-9.7 -56.8,-60.3 -90,-86.2 -43.6,-35.7 -95.2,-63.2 -150.6,-75.1 -31.6,-6.6 -72.9,-4.4 -91.2,26.6 -37,57.9 -67.9,126.1 -131.5,159.7 -11.7,-14.1 -23,-29.8 -25,-48.7 m 728,-1638.3 c -17.2,-32.5 -39.4,-67.1 -79.8,-70.6 -2.7,-14.3 1.3,-40.4 -20.1,-40.8 -30.2,-2.5 -68.5,-9.5 -78,-43.7 3.5,-39.5 44,-60.7 52.8,-98 4.6,-21.6 8.6,-44.7 25.9,-60.4 71,-75.9 165.3,-123.9 255.7,-172.6 3.7,-58.3 46.4,-102.5 59.1,-157.9 8.2,-25.5 -17.8,-44.9 -16.5,-69.6 6.1,-18.5 24.9,-28.6 38.4,-41.5 4.1,-26.9 12.6,-52.9 25.5,-76.9 -2.6,30.8 -1.3,69.1 28.7,86.8 28.4,6 49.9,-19.1 68.9,-36.1 22.1,-24.1 50,-47.3 57.9,-80.4 -10.1,-21.8 -24.6,-41.1 -36.8,-61.8 116,11.8 232.6,8.4 348.9,6.6 44.8,31.7 84.2,72.2 115.7,117.6 14.1,26 46,19.3 70.6,24.2 2,48.7 49.2,75.8 58.5,121.7 7.2,29 25.9,56 54,67.8 19.8,7.4 37.2,-6.4 53.6,-15.4 -0.4,-54.2 0.4,-108.5 0.1,-162.8 1.3,-18.8 -7.5,-35.9 -14.3,-52.8 28.9,-26.3 68.6,-34.9 98.9,-59.3 18.6,-12.8 36,-32.7 61.1,-28 193.4,6.2 386.9,1.7 580.2,7.9 39.2,-6.3 74.1,27.1 63.3,66.9 -37.9,1.1 -78,-5.4 -112.9,13.1 -32.2,16.5 -69.7,9.4 -103.1,20 -115.2,51.2 -244.3,40.8 -366.8,51.2 -63.3,3.8 -103.4,60.3 -129.3,111.9 -23.7,45.5 -42.9,107.5 -100.7,118.3 -68.4,-0.2 -128.8,-37.8 -183.7,-74.6 -61,-28.9 -134.4,-26.3 -196.4,-1.8 -37,25.5 -65.5,65.5 -110.3,78.7 -23.7,6 -54.1,-4.4 -70.2,18.9 -42.1,45.8 -101.2,67.6 -155.3,94.9 -43.1,37 -77.6,83.3 -107.2,131.5 -41,66.4 -61.6,142.3 -88.4,215 -29,6.7 -59,5.6 -88.2,10.6 -25.1,4.6 -42.8,24.2 -59.8,41.4 m -60.4,-411 c 160.8,-303.4 321.5,-606.9 481.5,-910.6 13.8,-21.7 20,-58.3 53.3,-54.1 -140.9,301 -284.8,600.7 -427.6,900.9 -28,30.8 -71.6,42.9 -107.2,63.8 m 1034.8,-351.9 c -28.3,-205.2 -59,-410.1 -86.5,-615.4 4.2,2.6 12.5,7.9 16.7,10.6 45.8,244.3 89.1,489.3 133.4,734 -36,-33.5 -59.4,-80.1 -63.6,-129.2 M 2068,3356.1 c -12.5,-39.4 -8.6,-82.3 7.6,-120 63.8,-149.8 126,-300.3 189.3,-450.4 4.3,-11.9 13.2,-18.2 26.6,-18.9 -47.3,135.9 -95,271.8 -144.7,406.9 -21.7,7.5 -38.1,23 -46.8,44.1 6.9,23.6 14.4,48.2 11,73.1 -5.2,26.5 -25.2,46.3 -43,65.2 m 543.3,-64.8 c -8.8,-174.1 -17.1,-348.2 -27.8,-522.1 6.6,0.3 19.8,1.1 26.5,1.4 12.1,185.8 34.1,370.9 45.2,556.8 -18.1,-6 -46.4,-11.1 -43.9,-36.1 M 2831,3272 c -42,-169.1 -88.9,-337 -127.6,-506.8 5.2,2.7 15.6,7.9 20.8,10.6 47.5,158 90.9,317.5 138.4,475.6 -10.5,6.9 -21.1,13.8 -31.6,20.6 m 84.3,-59.9 C 2865.2,3064 2812,2917 2760.5,2769.4 c 6.4,0.3 19.3,1 25.7,1.3 50.6,139.6 101.8,279.1 155.1,417.7 -8.7,8 -17.3,15.9 -26,23.7 M 2500,3180.8 c 0.6,-136.6 3.9,-273.4 2.4,-410.1 13.7,-0.4 27.4,-0.9 41.2,-1.5 0.6,146.9 -1.2,293.8 0.9,440.7 -14.8,-9.6 -30.3,-18.4 -44.5,-29.1 m 620.7,17.9 c -83.6,-143.2 -167.7,-286.3 -248.6,-431.2 6.6,1.1 19.8,3.3 26.4,4.5 92.1,139.8 177.1,284.8 267,426.3 -15,0.2 -29.9,0.3 -44.8,0.4 m 110.4,0.2 c -97.9,-142.2 -193.1,-286.2 -290.9,-428.5 12.6,0 25.2,-0.3 37.9,-0.7 107.7,143.7 217.6,285.7 325.6,429.3 -24.3,0 -48.4,-0.2 -72.6,-0.1 m -198,-429.2 c 8.8,0 26.4,0.1 35.1,0.2 135.2,144.3 270.4,288.6 405.5,432.9 -24.8,0.9 -49.6,0.9 -74.4,1.6 -123,-144.1 -244.9,-289.2 -366.2,-434.7 m -30.5,420.4 c -63,-140.4 -127.4,-280.1 -191.1,-420.2 6.6,0.1 19.8,0.3 26.4,0.4 70.9,140.7 141.6,281.5 214.3,421.3 -16.6,-0.4 -33.1,-0.9 -49.6,-1.5 m -703.2,-8.5 c 29.2,-126.7 54.8,-254.3 81.4,-381.7 4.2,-13.5 3.8,-34.1 24.5,-34.1 -18.7,139.1 -44.8,277.1 -66.2,415.7 -13.3,0 -26.5,0.1 -39.7,0.1 m 98.7,-0.5 c 14.7,-137.1 27.2,-274.3 42.1,-411.4 5.7,0 17.3,-0.1 23.1,-0.1 -5.5,137 -18.2,273.6 -24.4,410.5 -13.6,0.3 -27.3,0.7 -40.8,1 m -191,-9.7 c 39,-133.2 79.9,-265.9 116.6,-399.8 6.6,-0.7 20,-2 26.6,-2.7 -36.6,134.1 -72.6,268.4 -109.4,402.4 -8.4,0 -25.4,0 -33.8,0.1 M 953.102,2698.3 c 0.699,-146.1 1,-292.1 -0.204,-438.2 1048.202,-1.8 2096.402,-0.6 3144.602,-0.6 -0.8,146.3 -0.5,292.7 -0.2,439 -1048.1,0.2 -2096.1,0.6 -3144.198,-0.2 M 1755.5,6661 c 67.9,21.6 134.9,46 203.1,66.7 36,-283.9 73,-567.6 107,-851.7 -61.3,0.5 -122.5,-0.8 -183.7,1 -42.5,261.3 -85.3,522.5 -126.4,784 m 377.2,-1642.8 c 90.5,91.1 221.6,133.2 348.2,131 183.1,0.8 360.3,-93.5 471.8,-236.9 40.7,-50.8 74.5,-108.7 88.1,-173 26.9,-121.1 20.8,-246.3 16.1,-369.4 -0.7,-24 -1.5,-50.2 13.8,-70.5 40.2,-59.1 107.1,-91.5 169.7,-121.6 -26.5,-46.8 -55.3,-92.3 -82.6,-138.7 -53.7,22 -107,48.6 -149,89.3 -60.5,62.7 -97.6,146 -109.6,231.8 -15.6,11.3 -31.1,22.5 -46.5,33.9 15.7,36.2 27.1,74.1 32.7,113.1 18.9,3 37.6,7.4 56.5,10.1 2.5,66.6 -2.6,133.5 -21.7,197.6 -17.1,-6 -34.1,-12.1 -51.1,-18 -13.8,41.3 -36.4,78.6 -63.4,112.5 10.1,10.4 20.2,20.8 30.3,31.2 -41,55.2 -94.8,100 -154.3,133.9 -11.4,-15 -22.6,-30.1 -34.1,-45.1 -32.1,14.6 -67.1,19 -100.8,27.9 -3.7,17.8 -4.5,35.9 -6,53.9 -66.7,1.7 -134.1,3.7 -199.7,-10.2 1.9,-21.2 4.4,-42.3 6.9,-63.5 -37.4,-20.3 -75.7,-38.9 -114,-57.6 -33.5,46.3 -69.3,90.9 -101.3,138.3 m -412.2,-74.5 c 25.3,47.9 51.9,95 79.4,141.6 60.2,-19.3 111.5,-58 160.7,-96.6 67.7,-57.5 90.3,-151.1 87.9,-236.7 15.7,-7.7 31.5,-15.4 47.3,-23.1 -10.4,-38.5 -17.5,-77.7 -25,-116.9 -17.4,0.1 -34.8,0.2 -52.2,0.3 -6.4,-71.7 2,-143.9 22.2,-212.8 16.4,4.6 32.8,9.1 49.3,13.5 16.6,-33.4 37.2,-64.8 61.4,-93.3 -15.6,-12.8 -31,-25.8 -46.3,-38.9 38.6,-59.6 96.6,-103.7 160.3,-133.8 10.8,13.4 21.6,26.8 32.5,40.2 33.8,-12.6 67.9,-24.5 101.8,-36.8 1.8,-18 3.8,-35.9 6,-53.8 69.2,-8.8 140.2,-6 207.5,13.2 -4.5,18.9 -7.8,38.1 -12.4,57 39.1,16.5 77.6,34.3 116.7,51 30.1,-44.3 59.9,-88.9 92.3,-131.6 -130.3,-95.1 -303.1,-126.5 -459.3,-88.5 -116.8,28 -226.7,87.1 -312.7,171 -111.5,120.3 -143,292.7 -138.8,451.7 -1.9,67.4 13.5,139.7 -16.2,202.9 -39,56.8 -103.7,88 -162.4,120.4 m 649.9,12.8 c 43.8,1.5 87.6,2.4 131.5,2.6 0.4,-17.8 0.8,-35.6 1.1,-53.4 46,-5.2 90,-19.9 133.8,-34.4 11.1,13.9 22.2,27.9 33.4,41.7 36.7,-22.9 71.9,-48.2 103.9,-77.4 -13.9,-13 -27.8,-26 -41.8,-38.9 41.7,-38.8 73.7,-87.4 87.8,-143 18.9,2.1 37.9,3.9 56.9,5.4 2.7,-42.1 3.2,-84.3 2.7,-126.5 -15.8,-1.6 -31.5,-3.3 -47.3,-4.9 -2.9,-50.8 -17.1,-100 -36.5,-146.8 13,-9.7 26,-19.4 38.9,-29.3 -30.9,-31.2 -59.6,-64.5 -91.6,-94.6 -10.3,10.3 -20.5,20.5 -30.7,30.8 -40,-38.4 -88.6,-67.2 -142,-82.3 3.5,-12.9 7,-25.8 10.5,-38.7 -43.3,-14.3 -89.3,-12.7 -133.9,-6.6 0.2,7.7 0.5,23 0.7,30.7 -54.9,8.8 -107.1,29 -154.7,57.5 -7.8,-11.9 -15.6,-23.9 -23.5,-35.8 -33.3,22.2 -63.8,48.2 -92.2,76.4 9.2,12.5 18.2,25.2 27.4,37.7 -35.1,36.8 -54.1,84 -71,131 -15.9,9.6 -38.6,2.6 -56.8,5.3 -0.4,40 -0.4,80 0.1,120 16.8,0.6 33.6,0.9 50.4,1.3 3.1,46.8 17.3,91.9 40,132.8 -13.8,14.3 -27.2,29 -40.9,43.2 24.3,33.4 52.7,63.5 82.7,91.8 16.3,-7.7 32.9,-15 49.4,-22.6 34,32.4 77.3,51.5 119.6,70.5 -3.4,18.8 -5.8,37.7 -7.9,56.5 M 2477.7,4797 c -3,-16.1 -6.2,-32.2 -9.4,-48.3 -17,9.5 -34.2,18.5 -51.5,27.3 6.3,-25.9 24.6,-44.9 46.7,-58.5 0.2,-26.7 -0.8,-53.4 -2.5,-80.1 -33.5,12.4 -59.6,37.3 -89.5,55.7 0.6,-51.5 43.3,-84.3 84.2,-107 0.1,-22.7 0.4,-45.5 0.5,-68.2 -43.4,11.9 -80,38.5 -115.6,64.9 3.1,-30.2 5.7,-62.8 25.2,-87.6 20.2,-28.1 51.5,-44.4 81.8,-59.3 0.7,-22 0.9,-44.2 0.6,-66.3 -61,15.4 -105.4,62.2 -150.7,102.5 10.2,-59.8 38.7,-119.2 89,-155.3 40.4,-27.7 93.9,-42 140.9,-22.9 77.1,24.2 122.9,102.2 135.1,178.3 -45.2,-40.4 -89.7,-86.3 -150.2,-102.8 -0.8,22.2 -0.8,44.4 -0.4,66.5 30.5,15.1 62.4,31.1 82.5,59.5 19.1,25.1 22.2,57.7 25.7,87.9 -36.1,-26.5 -73.1,-53.4 -116.9,-65.5 0.5,22.9 1.2,45.8 1.8,68.6 40.5,23 82.7,55.5 83.8,106.6 -30.5,-17.9 -56.5,-43.2 -90.2,-55.5 -1.8,26.7 -2.6,53.5 -1.9,80.2 22.3,13.6 40.4,32.9 46.5,59 -17.4,-9.2 -34.8,-18.3 -52,-28 -3,16 -5.8,32 -8.4,48 -1.3,0.1 -3.8,0.2 -5.1,0.3 M 3820.2,2620.4 c -0.4,14.2 15.5,20.9 23.1,31 8.7,-8.9 17.6,-17.9 26.5,-27 -8.3,-9.3 -16.7,-18.4 -24.8,-27.9 -8.5,7.8 -17.2,15.4 -24.8,23.9 m -425.9,21.7 c 12.1,-7.7 24.2,-15.8 36.2,-23.9 5.2,7.1 15.6,21.5 20.8,28.7 8.8,-11.6 27.3,-19.3 28.4,-35.3 -8.6,-10.3 -18.6,-19.1 -28.2,-28.4 -5.3,7.3 -15.8,21.8 -21.1,29.1 -11.3,-8.5 -22.5,-17.1 -33.8,-25.6 -9.6,9.4 -19,18.9 -28.4,28.3 8.7,9 17.4,18.1 26.1,27.1 m 341.2,-50.8 c 10.6,10.3 21.3,20.3 32.3,30.3 4.8,-54.3 2.3,-108.7 1,-163 30.2,-15.1 64.2,-13.8 96.8,-8.9 -10.6,14.3 -22.4,27.5 -34.6,40.2 9.1,17.7 19,34.9 29,52 24.3,-34.2 38.3,-81.2 17.9,-120.6 -11,-27.1 -39.2,-44.6 -68.4,-42.3 -28.1,-5.6 -40.5,23.9 -54.3,42 -20.5,-51.5 -80.5,-41.5 -124.9,-41.8 -30.9,0.8 -76.5,-5.9 -88,32.2 -4.2,29.6 -12.8,70 13.1,92 6,-18.3 1.2,-47.8 25.3,-54.1 49.9,-6.1 100.6,-2.7 150.8,-0.5 6.2,47.2 13.5,95.3 4,142.5 m -123.2,-41.4 c 1.9,30.2 33.7,42.9 57.6,53 1.8,-16.8 -6.9,-29.9 -18.4,-41 7.4,-10.4 27.1,-16.2 22.1,-32 0.9,-26.3 -26.4,-37.9 -47.8,-42.2 4.9,12.8 10.1,25.4 15.4,38 -10.5,7.2 -20.1,15.3 -28.9,24.2 M 1629,2588.8 c 35.3,-1 72,5.2 106.4,-4.6 42.7,-20.7 41.7,-80 15.4,-113.7 19,-33.3 12.1,-72.3 18.6,-108.6 -13.8,0.1 -27.5,0.1 -41.2,-0.1 -5.2,28 -1,57.8 -11.7,84.5 -16,2.5 -32.2,2.6 -48.3,3.5 -0.1,-29 -0.1,-58.1 -0.6,-87.2 -12.8,0 -25.6,-0.3 -38.3,-0.8 -0.8,75.7 -0.4,151.3 -0.3,227 m 38.8,-43.9 c 0.1,-18.2 0.3,-36.6 0.4,-54.9 23.4,1.7 65.5,-5.5 62.6,30.6 -3.1,32.7 -40.6,21.2 -63,24.3 m 189,38.8 c 12.8,2.1 25.8,2.5 38.7,3.3 20,-73.4 36.6,-147.7 55.6,-221.4 -13.3,0.1 -26.6,0.2 -39.9,0.3 -3.6,15 -7,29.7 -10.6,44.6 -16.6,0.1 -33.1,0.1 -49.7,0 -3.4,-14.7 -6.9,-29.5 -10.2,-44.3 -9.6,-0.4 -28.8,-1.2 -38.4,-1.7 17.2,73.3 34.1,146.8 54.5,219.2 m 18.3,-62.5 c -5,-23.8 -9.8,-47.7 -15.3,-71.4 8.1,0.3 24.2,0.9 32.3,1.2 -5.5,23.5 -10.9,46.9 -17,70.2 m 77.2,64.4 c 44.1,0.7 88.1,1.2 132.2,-0.7 -0.9,-14.1 -1.8,-28.2 -2.8,-42.4 -15.1,0.3 -30.2,0.4 -45.3,0.5 -0.2,-59.7 1.9,-119.5 -1.4,-179.2 -9,0.6 -27.1,1.8 -36.1,2.4 -0.1,58.8 -0.9,117.5 0.7,176.3 -15.7,0.3 -31.4,0.6 -47.1,0.9 -0.1,14.1 -0.2,28.2 -0.2,42.2 m 678.8,2.9 c 12.1,-0.6 24.2,-0.9 36.4,-1.1 0.1,-26.3 0.2,-52.6 1,-78.9 18.4,26.2 35.4,53.4 52.9,80.2 14.5,-0.3 29,-0.6 43.6,-1 -18.9,-32.7 -41.2,-63.4 -60.9,-95.7 22.4,-42.9 43.5,-86.5 65.1,-129.9 -15.4,-0.1 -30.7,-0.3 -46.1,-0.5 -16.6,31.4 -26.5,67.4 -52.1,93.1 -3.8,-30.6 -3.5,-61.6 -3.4,-92.4 -12.3,-0.1 -24.5,-0.5 -36.7,-1.1 -0.6,75.8 -0.8,151.5 0.2,227.3 m 510.7,-29.5 c 12.3,11.5 24.7,22.7 37.5,33.6 4.5,-46.3 -0.1,-93.1 6.1,-139.2 38.1,-14.8 85.3,-8.3 125,1.7 -22.7,20.7 -51.3,17.4 -73.7,-2.6 4.2,26 3.2,62.4 33.2,73.3 36.7,-5.6 72.2,-16.9 107.8,-27 -3.7,-15.2 -7.4,-30.3 -11,-45.5 -4.1,-2.3 -12.4,-6.7 -16.6,-8.9 27.7,1.7 55.5,2.3 83.1,5.5 -10.8,14 -22.3,27.3 -34.1,40.3 8.5,16.8 17.3,33.3 26.3,49.8 36.6,-36.7 41.6,-101.4 6,-140.5 -34.4,-37.9 -111.7,-22 -114.9,34.1 -21.5,-22.2 -41.5,-54.9 -76.5,-53.8 -29.1,-0.3 -70.2,-6.9 -85.1,25.5 -13.3,49.9 -10.2,102.5 -13.1,153.7 m 768.4,0.9 c 12.3,11.4 24.6,22.6 37.5,33.3 4.3,-44.5 -1.8,-89.5 5,-133.7 2.8,-18.4 24.4,-11.1 37.3,-13.3 18.1,-0.2 36.1,1.7 54.2,3.5 -10.7,14.3 -22.4,27.7 -34.8,40.4 9.4,17.6 19.4,34.9 29.9,51.8 35.3,-45.6 40.7,-123.9 -14.9,-155.8 -32.9,-10.8 -88.2,-16.3 -103,24.1 -12.3,48.8 -6.3,100 -11.2,149.7 m -2910.1,18.3 c 42.8,0.3 85.6,0.2 128.4,0.1 0.9,-14.5 1.8,-29 2.7,-43.6 -16,-0.6 -32,-1.1 -48,-1.6 0.4,-58.3 0.4,-116.7 0,-175.1 -9.6,0.1 -28.8,0.1 -38.4,0.2 -0.9,58.6 0,117.2 -0.6,175.8 -14.4,-0.3 -28.8,-0.7 -43.1,-1.1 -0.3,15.1 -0.6,30.2 -1,45.3 m 164.4,-0.6 c 41.2,1.1 82.4,1 123.6,0.5 0.6,-14.4 1.2,-28.9 1.8,-43.4 -29,-1.4 -58.1,-1.5 -87.1,-1.1 0,-13.2 -0.1,-26.4 -0.4,-39.7 26.2,0 52.4,-0.1 78.6,-0.4 0,-10.4 0,-31.2 -0.1,-41.5 -25.7,-0.4 -51.6,0.6 -77.3,-1.6 -1.2,-15.9 -1.2,-32 -1.4,-48.1 30,-0.1 60.1,-0.1 90.1,-0.3 0.1,-14.4 0.1,-28.9 0.2,-43.5 -42.9,-0.3 -85.7,-1.1 -128.5,1.5 0.8,72.6 0,145.1 0.5,217.6 m 214.1,-175.1 c 10.5,59.8 0,121.3 5.8,181.7 9.7,-0.4 29,-1.4 38.6,-1.9 -1.1,-60.9 4.6,-122.4 -2.9,-183.1 -5.6,-40.3 -61.2,-55.3 -89.6,-28.9 -19.8,20.9 -17.9,51.9 -21,78.4 12.7,0.2 25.4,0.5 38.2,0.9 0.8,-17.9 1.3,-65 30.9,-47.1 m 129.9,175.9 c 12.8,-0.1 25.6,-0.2 38.4,-0.2 19.5,-73 37.5,-146.5 54.5,-220.2 -12.9,0.3 -25.8,0.5 -38.6,0.5 -3.5,14.1 -7.1,28.2 -10.7,42.2 -16.8,0 -33.6,-0.1 -50.3,-0.2 -3.5,-14.1 -7,-28.2 -10.6,-42.3 -9.5,-0.1 -28.5,-0.2 -38,-0.3 18.6,73.5 35.7,147.4 55.3,220.5 m 18,-67.6 c -5.2,-21.8 -9.8,-43.9 -14.8,-65.9 7.5,-0.3 22.3,-1 29.7,-1.3 -3.9,22.7 -8.3,45.2 -14.9,67.2 m 625.1,70.2 c 32.2,0.2 65.2,4.4 96.8,-3.8 37,-19 30.9,-66.4 18.6,-99 19.3,-36.3 23.5,-93.9 -19.3,-115.2 -31.8,-5.2 -64.3,-2 -96.3,-2 -0.1,73.4 -0.4,146.7 0.2,220 m 37.1,-82.9 c 17.6,-3.9 35.7,-0.4 53.5,0.8 -4.3,12 2.7,31.8 -11.5,37.9 -13.8,2.2 -27.7,2.6 -41.6,1.2 -1.4,-13.2 -1.5,-26.6 -0.4,-39.9 m -0.5,-44.7 c 0.1,-17.4 0.1,-34.9 0.2,-52.4 17,1.5 34.9,-1 51,5.9 8.2,14 4.7,29.9 2.2,44.8 -17.8,0.7 -35.6,1.2 -53.4,1.7 m 165.5,126.2 c 13.9,-0.5 27.9,-1.1 41.9,-1.8 15.3,-73.1 35.6,-144.9 51.9,-217.7 -9.8,0 -29.5,0.1 -39.4,0.1 -3.1,14.2 -6.3,28.5 -9.4,42.5 -16.9,0.1 -33.8,0.1 -50.6,0.1 -3.6,-14.1 -7.1,-28.1 -10.5,-42.3 -12.8,0 -25.5,0 -38.2,-0.2 17.7,73.2 36.1,146.2 54.3,219.3 m 20.9,-66.5 c -6.4,-21.8 -11.9,-43.8 -17.6,-65.9 10.7,-0.6 21.4,-1.7 32,-3.2 -5,23 -9.4,46.1 -14.4,69.1 m 88.4,64.8 c 13,0.7 26,1.6 39,2.6 19.7,-43.7 36.9,-88.4 55.1,-132.8 5.4,43.9 2.7,88.2 3.7,132.2 11.7,-0.8 23.5,-1.5 35.3,-2.1 -0.8,-72 -0.1,-144.1 -0.4,-216.2 -11.7,0 -23.4,0.2 -35,0.6 -24.7,43.7 -38.5,92.5 -60.6,137.5 -1.7,-46.2 -0.4,-92.5 -1.5,-138.7 -11.8,0.8 -23.6,1.3 -35.4,1.5 0,71.8 0.2,143.6 -0.2,215.4 m 387.7,-28.5 c 9.8,9.5 19.6,18.9 29.5,28.2 9.1,-8.2 18.2,-16.3 27.4,-24.7 9.4,8.1 18.9,15.9 28.5,23.7 7.2,-10.6 23.5,-18.2 23.1,-32.4 -8.3,-9.2 -17.4,-17.6 -26.4,-26.1 -8.5,9.4 -17,18.7 -25.5,27.9 -9.2,-8.9 -18.3,-18 -27.4,-27 -9.8,10.1 -19.5,20.3 -29.2,30.4 m 134.7,-30.8 c 47.5,-27.5 31.2,-107.2 -17.2,-126.6 -45,-18.4 -97.3,-15.5 -144.2,-6.9 -43.3,22.9 -34.7,82.2 -21.7,121.1 22,-12.4 8.7,-49.2 37.2,-54.3 48.4,-10.7 98.3,-1.9 147.3,-0.6 -8.3,9.4 -16.3,18.9 -24.2,28.5 7.3,13.2 14.4,26.4 22.8,38.8 m 99.7,-30.1 c 14.9,0.2 16.4,-17.7 21.9,-28.2 14.9,-44.7 22.3,-99.4 -5.5,-140.6 -23,-28.2 -63.3,-13.9 -91.6,-3.5 29.8,26.4 62,50.4 87.4,81.3 -12.3,14.3 -24.1,28.9 -36.7,42.8 7.9,16.3 15.1,32.8 24.5,48.2 m 184.2,-171.6 c 10.2,9.8 20.5,19.6 30.8,29.3 10.2,-10.3 20.6,-20.7 30.9,-31.2 -10.4,-9.7 -20.7,-19.5 -31,-29.2 -10.3,10.4 -20.5,20.7 -30.7,31.1 m 722.9,22.4 c 10,-8.7 19.9,-17.4 30.1,-26.3 -10.1,-9.4 -20.3,-18.8 -30.4,-28.4 -7.7,8.7 -15.2,17.5 -22.2,26.5 6.7,10 14.7,19.1 22.5,28.2 M 1807,1639.4 c 80.5,-0.3 161.1,0.2 241.7,-0.4 -0.6,-163.2 0.1,-326.4 -0.4,-489.6 0.2,-32 2.6,-69.1 30.4,-90.2 16.1,-17.2 40.3,-17.9 62.2,-17.5 156.3,0.5 312.6,-0.2 469,0.3 31.3,-2.5 60,20.2 70.8,48.6 6.9,21 5.2,43.4 6.2,65 -160.3,0 -320.5,-0.3 -480.8,0.1 -0.3,81.3 -0.4,162.6 0,243.8 215.1,0.4 430.3,2.7 645.4,-0.8 0.2,-92.9 -0.3,-185.9 0,-278.8 -3.7,-42.1 36,-82 78.2,-78 173.3,0.1 346.6,-0.4 520,0.3 14,-1.7 33.7,5.4 41.7,-10.7 1.9,-78.199 0.1,-156.5 0.6,-234.699 -143.7,-0.699 -287.4,-0.5 -431.1,-0.199 -103.2,1.398 -194.5,83.296 -212.7,184 C 2830.6,877.801 2734.8,795 2629.9,796.301 c -203.2,0.301 -406.4,-0.199 -609.6,0.301 -112.5,1.199 -214,100.796 -213.4,214.098 -0.2,209.5 -0.2,419.1 0.1,628.7 M 760.398,1558.5 c 61.102,50.6 163.602,35.4 206.204,-32.1 35.898,-49.2 33.398,-119.9 -4.903,-167 -43,-59.2 -134.097,-74.3 -193.5,-31.4 -30.5,19.1 -46.898,52.4 -60.699,84.3 -14.699,-51.2 -53.199,-97.1 -106.898,-108.8 -74.301,-21 -156.5,30.5 -173.801,104.9 -23.102,83.8 47.398,175.2 133.5,176.8 68.801,4.2 131.5,-48.3 146.301,-114.4 10,33.2 24.699,67 53.796,87.7 M 3263.9,1470.1 c 14.5,62.8 69.6,118.3 136.6,117.3 76.7,6.8 149.1,-61.5 148.5,-138 4.9,-79.5 -69.3,-151.8 -148.6,-145.8 -66.1,0.3 -121.4,53.3 -135.4,116 -13.2,-90.1 -120,-146.5 -201.6,-105.9 -78.3,34 -107.6,142.6 -56.9,211.2 39.9,60.5 128.3,80.1 189.8,41.5 35.7,-20.1 59.2,-56.6 67.6,-96.3 m 342.5,-228.2 c 80.9,0.1 161.8,-0.1 242.8,0.1 5.8,-177.2 -0.2,-354.699 3,-531.898 2.6,-38 38.8,-70.602 77,-69.102 120.8,-0.398 241.6,0.301 362.4,-0.199 0.2,-81.602 0.1,-163.102 0.1,-244.699 -117.2,-0.204 -234.4,-0.5 -351.5,0 C 3838.8,398.801 3745.9,479.398 3730.6,580 3713.9,518.398 3679.2,459.5 3622.4,427.199 3579.9,401 3529,393.301 3479.9,395.602 c -317.5,0.699 -634.9,-0.102 -952.3,0.5 -0.1,81.5 -0.2,163.097 0.1,244.699 334.3,0.5 668.6,-0.301 1002.9,0.301 41,-0.801 78.9,37.097 75.1,78.597 0.6,174.102 -0.9,348.201 0.7,522.201 m 801.4,-0.2 c 81.7,0.4 163.4,0.3 245.2,0.1 1,-174 -0.2,-347.902 0.5,-521.902 -4,-42.296 34.4,-80.398 76.3,-78.699 120,-0.898 240.1,0.102 360.2,-0.301 V 396.102 c -146.6,-0.704 -293.2,0.296 -439.8,-0.602 -125.9,-12 -247.3,97 -242.6,224.602 0,207.199 -0.2,414.398 0.2,621.598 M 2,1160.6 c 442.102,-2.6 884.199,0.8 1326.3,-1.5 0,-80.9 -0.1,-161.799 0.1,-242.702 C 959.102,915.699 589.801,916 220.5,916.199 95.3008,915.801 -11.8008,1036.8 2,1160.6 m 1443.7,0.3 c 81.2,-2.9 162.4,-0.7 243.7,-2.1 1.4,-156.5 -0.1,-312.999 -0.6,-469.499 -0.4,-111.102 -98.9,-210.5 -209.9,-212.5 -104.5,-1.301 -209,-0.199 -313.5,-0.403 0.3,81.801 -0.7,163.602 0.7,245.301 68.2,0.5 136.5,-1.301 204.8,0.5 41,-1 76.8,36.903 74.2,77.699 0.6,120.301 -0.8,240.702 0.6,361.002 M 4084,1125.4 c 76.4,35.2 173.2,-15.4 193.2,-95.7 26.9,-85.2 -48.2,-180.899 -136.6,-179.098 -72.5,-3.204 -139.2,57.796 -144.1,129.796 -6.8,60.902 31.1,122.102 87.5,145.002 M 2144.5,653.699 c 73.3,35.5 170.1,-6 193.8,-84.097 33.2,-84.704 -37,-189.102 -128.4,-188.102 -76.7,-7.102 -150.7,61.699 -148.4,138.699 -4.7,56.699 32.9,110 83,133.5 M 4696.2,119.801 c -14.3,77 46.7,156.199 123.9,164.597 75.3,11.5 151.5,-48.199 159.3,-123.699 C 4990.9,86.6016 4935.2,15.8984 4863.8,0 h -41.5 c -62.4,7.5 -116.1,57.6992 -126.1,119.801" /></g></g></svg>