<?xml version="1.0" encoding="UTF-8" standalone="no"?>
<!-- Created with Inkscape (http://www.inkscape.org/) -->

<svg
   version="1.1"
   id="svg2"
   width="901.33331"
   height="1292"
   viewBox="0 0 901.33331 1292"
   sodipodi:docname="Tosee-Taavon-logo.eps"
   xmlns:inkscape="http://www.inkscape.org/namespaces/inkscape"
   xmlns:sodipodi="http://sodipodi.sourceforge.net/DTD/sodipodi-0.dtd"
   xmlns="http://www.w3.org/2000/svg"
   xmlns:svg="http://www.w3.org/2000/svg">
  <defs
     id="defs6" />
  <sodipodi:namedview
     id="namedview4"
     pagecolor="#ffffff"
     bordercolor="#000000"
     borderopacity="0.25"
     inkscape:showpageshadow="2"
     inkscape:pageopacity="0.0"
     inkscape:pagecheckerboard="0"
     inkscape:deskcolor="#d1d1d1" />
  <g
     id="g8"
     inkscape:groupmode="layer"
     inkscape:label="ink_ext_XXXXXX"
     transform="matrix(1.3333333,0,0,-1.3333333,0,1292)">
    <g
       id="g10"
       transform="scale(0.1)">
      <path
         d="m 3343.7,9690 h 72.1 c 76,-6 156.7,-17.5 220.2,-63.1 247.2,-182.5 495.2,-363.9 742.7,-546.1 -132.7,-453.7 -265.6,-907.4 -398.3,-1361.2 -143.1,70 -300.9,106.3 -459.3,116.9 -221.2,14.5 -448.5,-19.9 -648.9,-117.1 -181.3,434.4 -362.8,868.7 -544.1,1303 253.5,203.2 507.4,406 760.8,609.3 22.4,17.8 50.9,23.9 78,31 58,13.9 117.2,23.6 176.8,27.3 M 861.301,8606 c 303.599,83.5 607.899,164.8 911.699,247.8 272.6,-386.3 544.7,-773.1 817.3,-1159.4 -157.1,-74.2 -293.1,-187.8 -406,-318.8 -134.8,-157.6 -238.6,-344.8 -284.3,-548.1 -452.8,128.8 -905.898,256.6 -1358.5,386.2 -0.5,325.4 -0.898,650.8 -2.699,976.2 2,42.3 26.097,79.3 43.097,116.9 63,121.8 151.102,241.6 279.403,299.2 M 4258.2,7605.1 c 251.5,398 504.6,794.9 756.8,1192.5 312.3,-92.1 624.6,-184 936.9,-275.8 26,-7.1 45.8,-26.3 65.8,-43.3 92.7,-80.7 174.7,-178.3 219.2,-294.1 12,-33.4 23.3,-68.1 22.2,-104.1 -7.5,-310 -15.3,-620.1 -22.4,-930.2 -447.8,-151.8 -896.2,-302 -1344.3,-452.9 -29.8,191.9 -113.1,372.5 -224.3,530.5 -108.1,152.5 -245.7,286.4 -409.9,377.4 m 699.6,-1103.9 c 468,50.4 935.9,100.8 1403.9,151.3 122.8,-300.6 244.9,-601.5 367.8,-902.1 12.5,-28.4 7.6,-60.2 7.2,-90.3 -7.3,-135.4 -38.4,-275.1 -120.1,-386.1 -24.8,-35.5 -62.9,-57.7 -96.3,-84 -228.1,-173.4 -457,-345.9 -684.7,-519.8 -398.2,255.4 -795.1,512.7 -1192.8,768.7 120.5,131 205.6,291.5 261,459.9 63,193.1 87.5,401.1 54,602.4 M 78.1016,5831.2 C 191,6100.1 303.5,6369.1 416.5,6638 c 472.301,-22.5 944.5,-45.2 1416.8,-67.8 -53.5,-243.6 -21.4,-500.7 64.3,-733.1 46.3,-124.1 111.5,-241.5 195.8,-343.9 -379.9,-278.1 -759.4,-556.6 -1139.298,-834.6 -256.5,198.9 -513.102,397.6 -769.903,596 -25.5,18.9 -38.097,49.1 -52.801,76.1 C 70.1992,5451.9 27.6992,5588 42.8984,5725 c 3.6016,37.7 20.8008,71.8 35.2032,106.2 M 2262.5,5279.6 c 107.4,-148.9 253.7,-266.4 413.5,-355 173.2,-95.2 366.9,-157.4 565.3,-164.1 -42.5,-468.7 -86.9,-937.2 -129.3,-1405.9 -319.1,-60.7 -638.2,-121.1 -957.2,-182 -31.7,-6.2 -63.2,4.5 -93.8,11.6 -110.5,29 -219,74.8 -306.5,149.7 -30.6,27.5 -61.5,56.8 -79.1,94.7 -133.8,278.4 -268.6,556.3 -402.6,834.6 329.8,338.9 659.8,677.6 989.7,1016.4 m 1756.8,-437.3 c 182.6,79.9 351.5,196.7 478.5,351.5 346,-318.8 691.7,-638.1 1037.8,-956.7 C 5448.5,4060.5 5359,3885.2 5271.2,3709 5208,3588.2 5152,3463.4 5085.4,3344.5 c -89.1,-83.6 -196.1,-150.7 -313.3,-187 -55.8,-15.4 -115.2,-28.4 -172.8,-15.7 -300.8,62.4 -601.7,124.3 -902.5,186.2 -68.8,467.7 -137.2,935.4 -205.9,1403.1 181.8,-4.4 362.3,39.1 528.4,111.2"
         style="fill:#0a8992;fill-opacity:1;fill-rule:nonzero;stroke:none"
         id="path12" />
      <path
         d="m 3285.3,7402.3 c 234.7,28.8 478.8,-22.2 681.1,-145 227.8,-136.3 401.6,-360.1 475.5,-615.2 73.8,-250.1 52.7,-527 -60.2,-762.3 -121.3,-257.2 -349.7,-461.2 -619,-552.7 -248,-85.3 -527.6,-75.8 -768.6,28 -246.9,104.7 -450.8,306 -558.6,551.4 -112.1,251.2 -120.9,545.9 -25.5,803.7 83.2,226.8 245.9,423.2 453.2,547.2 128.3,77.4 273.2,127.2 422.1,144.9 M 6356.5,2473.2 c 121.9,114.8 241.1,232.3 360.9,349.3 -29.1,-131 -120.8,-234.8 -209.2,-330.8 -223.5,-232.5 -487.1,-420.3 -738.4,-620.7 -66.6,-49.5 -128,-106.6 -200.1,-148.3 25.3,75.9 68,146.6 128.6,199.4 212.4,192 449.2,355.2 658.2,551.1 M 2410.4,2299.4 c 54.6,-35.6 124.9,-84.1 113.3,-159 -15.1,-57.7 -40.4,-123.8 -98.1,-150.6 -40.6,33.5 -84.9,62.6 -121.6,100.7 31.5,71.5 62.5,143.8 106.4,208.9 m -227.2,-13.7 c 55.3,-33.8 124.8,-83 114.8,-156.9 -14.5,-58.6 -40.9,-123.7 -97.7,-152.8 -40.9,34.3 -87,62.7 -122.5,103.2 32.6,70.1 62.8,141.6 105.4,206.5 m 1819.3,-2.9 c 51.4,-33.3 113.7,-75 116,-142.9 -9.4,-64.3 -39.7,-133.5 -98.2,-167.4 -41.6,34 -88.4,62.5 -123.6,103.6 33,70.1 62.9,141.9 105.8,206.7 m 1285.2,-212.6 c 32.8,73.4 64.3,147.8 109.5,214.7 53.9,-35.4 121.4,-80.7 118.5,-153.5 -13.1,-63.2 -40.8,-135.7 -102.7,-165.5 -41.6,35.1 -88.1,64.4 -125.3,104.3 m -1617.1,-9.1 c 31.9,71.2 62.5,143.5 106.3,208.4 52.4,-34.2 118,-78.5 115.1,-149 -12.7,-61.4 -39.8,-131.8 -100,-160.4 -40.4,33.8 -85,62.6 -121.4,101 m 1792.1,-552.5 c 29.1,74.6 63.9,147.3 108,214.3 -1,-69.3 -23.2,-135.7 -34.2,-203.7 -36.2,-163.7 -60.4,-331.3 -54.8,-499.4 0.9,-47.499 20.1,-103.101 69,-120.3 23.4,-7.301 55.6,-16.898 74.4,4.699 29.6,34.403 34.7,81.903 55.7,121.101 7.2,-13.7 16.4,-28.101 11.4,-44.601 -9.5,-61 -25.6,-121.097 -46.1,-179.301 -17.1,-45 -37.3,-91.699 -74.9,-123.699 -39.6,-34.398 -105.6,-23.898 -137.8,15.801 -33.8,40.801 -42.4,95.699 -46.9,146.801 -9.4,100.301 12.4,199.599 17,299.499 -42.2,-40.7 -69,-93.5 -105.5,-138.7 C 5209.4,883.602 5084.8,797.602 4950.5,740 4755.2,656.199 4541.3,620.102 4329.4,623.699 c -93.6,0.5 -194.2,-0.097 -277.6,47.903 -63.1,39.296 -66.7,122.296 -63.8,188.699 4.8,65.5 -3.9,138.199 34.5,195.399 17.9,-43.2 27.1,-90.399 51.2,-130.899 24.5,-26.102 60.3,-37.403 94,-46.5 92.4,-22 188.1,-18.602 282.4,-17.801 214.9,5.301 433.3,38.5 629.5,130 123.6,57.1 240.3,142.9 304.7,265.8 43.3,78.1 51.3,168.6 78.4,252.3 m -3745.3,93.7 c 16.5,36.8 30.4,75.3 54.4,108.1 -15.7,-187.4 -57.9,-372.4 -67,-560.6 -1.3,-58 0.1,-121.1 33.9,-170.8 37.7,-54.102 115,-60.5 173,-41 36.4,11.398 35.8,61.102 8.6,81.9 -24.6,29.1 -64.4,14.1 -96.6,14 39.7,111.4 180.8,169.5 287.2,117.6 22.4,-11.5 35.6,-38.2 29.3,-63.1 -8.5,-38.3 -29.8,-72.1 -46.6,-107.298 81.3,-10.403 170.5,62.798 156.5,148.498 -6.2,68.3 19.2,132.9 45.6,194.2 17,38.3 29,79.1 52.8,113.9 1.5,-96.4 0.9,-194.2 -17,-289.3 -22.8,-108.3 -90.9,-206.099 -184.6,-264.9 -36.1,-22.102 -78.8,-8.398 -118.1,-8.602 -60.2,-43.199 -97.9,-116.097 -169.3,-144.597 -59,-26.5 -136.6,-22.801 -182.8,26.5 C 1620.5,816 1607.3,902 1611.4,980.5 c 7.7,161.1 33.8,320.5 58.3,479.6 6.9,50 28.1,96.2 47.7,142.2 m 4219.7,-17 c 15.4,33.6 27.3,69.6 51.5,98.2 -20.7,-214.6 -70,-426.7 -72.3,-643.1 0.2,-47.798 9,-104.9 53.3,-132.4 24.2,-13.102 56.4,-24 82.6,-11.199 36.8,29.898 39.6,81.199 60.3,120.899 3.5,-0.5 10.5,-1.5 13.9,-2.1 6.7,-39.202 -6.9,-77.901 -15.1,-115.901 -18.2,-69.398 -38.1,-141.097 -82,-199.199 -20.6,-27.301 -53.5,-48 -88.8,-43 -39.3,1.5 -73.3,28.699 -89.6,63.301 -25.5,52.398 -30.2,112.097 -30.4,169.5 5,177.999 34,354.099 60.8,529.799 7.4,58.3 33,111.8 55.8,165.2 m -1973.6,26.6 c 20,-18.9 12.5,-48 13.4,-72.5 -3.4,-86.4 6.5,-176.2 -26,-258.5 -27.6,-84.6 -95.9,-146.3 -136.2,-223.9 -29,-84 -65.5,-168.801 -129.4,-232.398 -52.3,-50.602 -125.8,-67.903 -194.1,-85.5 -44.3,-11 -88.3,-26.102 -134.5,-25.403 61.7,54.699 139.9,85.801 206.8,133.301 62.4,44.398 135.2,88.602 161.1,165 -47,-9.6 -100.5,-8 -139,23.9 -25,20.2 -25.6,56 -17.1,84.3 15.4,55.9 43.4,108 77.6,154.6 17.9,22.7 42,49.1 74.1,43.9 53.8,-3.8 91.1,-50.8 106.2,-99 20.8,19.4 43.7,40.7 47.2,70.7 2.7,40.8 -14.8,83.7 4,122.6 29.2,66 55.4,133.4 85.9,198.9 M 975.398,1315.8 c 23.403,63.2 52.202,126.1 93.202,179.8 10.1,-41.7 -4.3,-83.5 -7.4,-125.1 -11.3,-86.1 -8.9,-173.7 -26.6,-259 C 1002,923.398 940.301,733.199 812.199,587.398 c -88.301,-99.199 -206,-182.5 -341.398,-196.097 -88.5,-11 -188.301,0.097 -255.699,64.199 -74.801,68.801 -97.704,176.398 -90.204,274.398 C 137.602,895.5 208.5,1049.7 287.199,1193.5 304,1222.8 318,1255.9 347.602,1274.7 351.5,1213.4 315.102,1161.4 292.5,1107.2 250.301,1017 203.898,921.301 214.398,818.801 c 4.204,-66.301 37.204,-134.5 98.801,-164.903 78.903,-40 172,-36.898 257,-22.296 C 724,659.398 851.301,773.199 920,910.199 978.102,1038.3 927.602,1185.1 975.398,1315.8 m 385.902,3.4 c 33.5,35 91.6,11.9 116.4,-22.4 37,-43.9 31.9,-104.5 23.3,-157.4 -8.1,-72.8 -37,-140.701 -62.9,-208.599 -19.2,-48.903 -46.3,-97.699 -90.4,-128.301 -36.7,-23.898 -79,-36.699 -119.9,-51.398 -47.8,-15.602 -95,-37.903 -146.5,-36.704 58.8,67.204 141.7,106.801 209.4,164.204 46.2,36.898 89.4,81.597 107.6,139.198 -42.8,-1 -94.5,-12.6 -126.8,23.7 -35.5,30.9 -16,80.8 -0.5,116.8 25.1,56 47.5,115.7 90.3,160.9 m 1929.9,-87.1 c 64.2,-9.1 72.1,69 109.6,102.3 10,-56.8 -19.5,-110.6 -47.7,-157.8 -37.2,-55.3 -95,-91.7 -143.4,-136.2 C 3132.8,1000.3 3065.8,944.801 2997,892.602 2954.8,861.898 2899.6,868 2851.9,879.699 2772.4,819.398 2706.4,726.5 2599.7,716.301 2540.9,704 2486.9,737 2429.7,742.398 c -72.4,4 -131.6,-43.597 -196.3,-67.597 5.3,43.699 39.6,74.398 66.6,106.097 61.3,65.5 131,132.301 221.4,152.602 60.3,15.199 117.2,-22.801 177.7,-15.699 31.4,3.5 70.5,5.199 90.4,33.898 16.4,35.403 -1.9,96.901 -49.1,92.701 -18.7,3.6 -59.2,-19.3 -53.8,14.6 16.8,37.5 54.9,58.3 90.7,74.2 52.7,23.9 113.8,27.5 169.3,11.9 24.4,-6.5 47.9,-27.3 44.9,-54.9 -4.9,-38.7 -31.1,-69.6 -50,-102.302 23.1,0.301 47.3,0.5 68.1,12.102 62.8,34.5 123.5,79.8 154.6,146.5 20.4,0.1 44,-8.9 61.4,6 28.1,20.7 45.7,51.7 65.6,79.6 M 504.699,1077.8 c 27.403,69.2 59.403,136.8 102.903,197.4 48.699,-26.2 102.296,-57.1 126.296,-109.4 26.801,-81.3 -37.898,-152.9 -95,-201.698 -40,24 -75.796,54.198 -115.5,78.798 -11,7.4 -26.898,19.9 -18.699,34.9 M 6000.6,320.801 c 52.9,-35.403 119.2,-78.903 118.7,-150.301 -9.2,-65.602 -42.7,-130 -96,-170.5 h -7.4 c -40.5,36.8984 -87.6,66.1016 -124.7,106.699 33.2,73 64.8,147.102 109.4,214.102"
         style="fill:#706f6e;fill-opacity:1;fill-rule:nonzero;stroke:none"
         id="path14" />
    </g>
  </g>
</svg>
