<?xml version="1.0" encoding="UTF-8" standalone="no"?>
<!-- Created with Inkscape (http://www.inkscape.org/) -->

<svg
   version="1.1"
   id="svg2"
   width="600"
   height="592"
   viewBox="0 0 600 592"
   sodipodi:docname="Tosee-Saderat-logo.eps"
   xmlns:inkscape="http://www.inkscape.org/namespaces/inkscape"
   xmlns:sodipodi="http://sodipodi.sourceforge.net/DTD/sodipodi-0.dtd"
   xmlns="http://www.w3.org/2000/svg"
   xmlns:svg="http://www.w3.org/2000/svg">
  <defs
     id="defs6" />
  <sodipodi:namedview
     id="namedview4"
     pagecolor="#ffffff"
     bordercolor="#000000"
     borderopacity="0.25"
     inkscape:showpageshadow="2"
     inkscape:pageopacity="0.0"
     inkscape:pagecheckerboard="0"
     inkscape:deskcolor="#d1d1d1" />
  <g
     id="g8"
     inkscape:groupmode="layer"
     inkscape:label="ink_ext_XXXXXX"
     transform="matrix(1.3333333,0,0,-1.3333333,0,592)">
    <g
       id="g10"
       transform="scale(0.1)">
      <path
         d="m 1705.7,4353.2 c 201.2,4.7 402.9,1.3 604.3,2.7 136.1,14.2 273.4,4 410.2,7.4 23.4,-2.3 51.9,6.5 70.7,-11.8 79.5,-70.6 150.2,-150.3 227.5,-223.3 154.9,-155 312.2,-307.6 467.6,-462.1 21.8,-22.1 47,-41.3 64.3,-67.4 2.7,-16 1.9,-32.3 2.2,-48.5 -1,-340 1.5,-680 0.1,-1019.9 -16.3,-29.7 -44.7,-50.5 -67.6,-75.1 -229.9,-230 -458.6,-461.2 -687.6,-692.1 -232.5,-3.2 -465.1,2.6 -697.4,-5.1 -120.2,0.3 -240.4,-0.1 -360.5,0.2 -27.5,-1.8 -44.1,22.8 -62.5,38.8 -234.8,231.8 -467.6,465.9 -704,696.2 -10.102,9.9 -19.102,22.3 -17.5,37.2 -3.801,333.2 -1.801,666.5 -4.102,999.7 0.704,21.8 -1.898,44.2 3.704,65.6 58.598,67.6 126.398,126.4 187.298,191.9 153.2,153.4 304.8,308.6 458.4,461.6 35.1,34.6 67.1,72.5 104.9,104 m 157.4,-397 c -131.6,-134.7 -265.6,-267.2 -397.5,-401.7 -40.3,-41 -83.1,-80 -118.5,-125.5 -7,-18.7 -3.1,-39.4 -4.1,-58.9 2.4,-229.8 -2,-459.8 2.4,-689.4 27.4,-34.2 61.3,-62.2 92.2,-93.1 137.7,-139 278.9,-274.4 417.4,-412.6 35.2,-43.9 97,-23.2 145,-23 211.8,1.7 423.6,0.1 635.4,2.7 170.9,179.2 347.3,353.1 522.1,528.4 3,155.6 -3.5,311.5 3.6,466.9 -7.4,95.4 -0.5,191.2 -5.2,286.7 -163.5,168.8 -334.7,331.5 -499.4,499.8 -13.6,12.7 -25.4,32.9 -46.8,31 -233.4,0.7 -466.9,-0.4 -700.4,0.4 -15.8,-1.2 -35.1,2.6 -46.2,-11.7 m 131.6,-268.5 c 85.5,93.7 178.4,180.3 265.4,272.7 185.6,-184.5 368.9,-371.3 553.7,-556.6 110.8,-115.4 227.3,-225.4 335.7,-343.2 -83.1,-102.9 -182.9,-190.8 -272.2,-288.1 -18,-25.4 -50.5,-17.1 -77,-18.2 -163.1,0.7 -326.1,-0.3 -489.2,0.3 96.6,104.4 199,203.5 297.9,305.9 -107.3,112.1 -218.6,220.5 -326.9,331.7 -95.8,98.5 -197.3,191.8 -287.4,295.5 m -359,-334 c 15.2,19.9 42.4,12.4 63.8,14.2 167.4,-1.6 334.8,2.4 502.1,-2.1 -95.8,-104.6 -200.1,-201.5 -295.1,-307 28.6,-38.4 66.1,-68.7 98.3,-103.9 167.1,-166.5 331.8,-335.3 498.3,-502.3 4.6,-7.3 21.1,-18.6 9.9,-27.2 -88.7,-86.5 -173.4,-177.3 -263,-262.9 -285.7,283.5 -566.9,571.4 -851.1,856.3 -13.2,13.1 -25.6,27 -37.9,40.9 85.4,103.7 184.6,194.7 274.7,294 M 4276.3,1853.6 c 54.2,46.2 101.5,99.8 155.6,146.2 -14.9,-57.5 -59.7,-100.6 -97.9,-143.8 -89.9,-87.8 -189.4,-165 -289.5,-240.7 -31.1,-23.8 -59.8,-51.5 -94.8,-69.7 11.3,36.2 37,65 64.7,89.9 85.3,75.1 177.8,141.5 261.9,218.1 m -343.7,-62 c 20.2,-13.5 40.2,-29.3 50.4,-52.1 -1,-29 -13.7,-58 -37.1,-75.7 -26.4,-4.4 -40.3,23.5 -58.9,36.7 12.8,31.5 27.2,62.4 45.6,91.1 m -755.9,-98 c 17.7,10.2 30.7,-13.8 42.8,-23.5 22.7,-33.2 -2.5,-73 -22.9,-100.5 -26,3.3 -44.1,21.9 -60.8,40.2 12.8,28.3 23.4,57.9 40.9,83.8 m 105.1,4.9 c 29.2,-0.1 50.3,-30.9 50.4,-58 -6.1,-25.7 -21.4,-47.9 -36,-69.5 -21.1,9.5 -41.1,22.4 -54.8,41.3 0.7,32.8 19.9,61.9 40.4,86.2 m 603.7,-309.8 c 9.8,47.8 24.5,96.1 55.6,134.6 -15.1,-97.2 -41.7,-194.3 -36.3,-293.5 3.2,-35.2 35,-55.1 68.4,-46.8 6.7,16.7 8.8,37.6 25.6,47.9 -7.5,-48.3 -18.7,-100 -51.8,-137.8 -11.7,-16 -34.4,-11.3 -50.7,-7 -18.9,10.7 -20.4,34.6 -24.8,53.3 -10.2,47.9 0.2,96.2 4.9,144 -32.5,-20.7 -46.9,-59 -75.8,-83.7 -91,-93.4 -225.7,-122.1 -350.8,-133 -57.6,0.6 -125.5,-8.7 -173.3,30.1 -24.1,45 -11.2,97.4 -4.5,145.2 9.7,-16.8 16.8,-35.3 29.2,-50.6 33.6,-25.5 78.2,-27.4 118.8,-27.2 115.2,-2.5 233.7,15.6 336.7,69.4 61.4,31.6 113.9,86.1 128.8,155.1 m -1716.8,-13.3 c 9.6,46 18.8,96 46.6,134.6 -9.9,-89.5 -31.1,-178.6 -28.4,-269.1 1.4,-41.3 39.4,-81.6 82.5,-71.1 32.5,3.7 39.5,42.4 63.2,58.4 17.8,1 35.5,-2.3 53.2,-4.2 22.5,39.5 44.4,80.8 80.2,110.2 14.7,16.3 38.7,9 58,10.7 22.1,-58.9 -15,-121 -58,-159.8 -40.2,-37 -100.6,-40.5 -148.8,-17.7 -24.3,-26.9 -39.6,-63.4 -71.7,-82.4 -19.5,-4.3 -40.3,-4 -59.5,1.3 -28.4,16.7 -34.3,53 -34.8,83.2 -0.7,69.1 14.1,137.1 17.5,205.9 M 2406.2,1225 c 42.9,-6.3 75.9,25 100.2,55.9 -11.9,7.8 -21.4,22 -36.5,23 -32.7,-14.2 -50.4,-47.8 -63.7,-78.9 m 1677.2,185.2 c 8.7,34.9 17.1,72.4 41.4,100 -15.1,-95.7 -37.7,-192.1 -29.3,-289.8 7.3,-29.3 32.7,-41.6 61.3,-39.4 8.4,17.3 15.6,35.9 29.9,49.3 -6.5,-44.1 -18.6,-88.4 -40.2,-127.5 -15.2,-29.9 -64.8,-26.8 -78.3,3.1 -8.7,30.5 -12.8,62.6 -9.9,94.2 7.2,70.2 13.3,140.6 25.1,210.1 m -855.8,-86.5 c -4.3,51.8 11.2,109.1 45.8,147.5 -1.2,-37.1 0.1,-74.5 -5.1,-111.5 -4.7,-38.1 -30.4,-68.3 -50.1,-99.8 -28.8,-42 -40,-94.6 -74.9,-132.6 -39.7,-28.9 -89.9,-36.1 -136.8,-45.5 51.3,43.4 123.6,65.5 155.8,128.8 -22.1,2.4 -44,4.5 -65.9,7.2 -8.9,45.4 10.9,90.8 43,122.3 10.3,6.9 23.7,4 35.5,6 11.4,-12.8 22.5,-25.8 33.5,-39 4.8,4.2 14.4,12.5 19.2,16.6 M 601,1420.1 c 5.898,14.6 11.5,30.1 24.199,40.2 -6.301,-64.4 -16.597,-128.5 -24.699,-192.8 -6.301,-60.8 -39.102,-114.1 -70.301,-165.2 -1.199,9.6 -4.097,19.7 -0.301,29.1 18.903,57.6 34.801,116.7 37,177.6 0.602,39.7 19.903,75.1 34.102,111.1 m 354.398,-90.3 c 6.903,47.7 28.801,92.2 53.002,133.3 -4.4,-71.3 -16.002,-141.9 -25.701,-212.7 -14.097,-51.1 -31.597,-105.3 -70.898,-143 17.097,73.6 40.301,146.5 43.597,222.4 m 737.702,-28.9 c 3,57.8 29.7,110.1 54.3,161.2 -2.7,-116.6 -12.4,-240.5 -78.4,-340.6 -4.2,-3.3 -12.6,-10 -16.8,-13.3 19.9,62.8 35.6,126.9 40.9,192.7 M 454,1376.5 c 11.398,25.6 21.398,52.9 41,73.7 -15.301,-83 -9.699,-169.3 -38,-250 C 424.199,1098.9 356.699,992.398 246,967.102 203.301,963.801 152.602,955.898 118.699,988.699 76,1022 69.3984,1081.3 76.6016,1131.3 c 7.0976,71.8 43.0004,135.6 76.1994,198 3.801,10.1 12.898,15.6 22.898,17.9 -26.699,-64.7 -74,-128 -62.398,-201.8 0.597,-38.4 32.801,-67.2 67,-78.8 53.398,-7.6 112.301,-5.8 158.597,25.1 46.102,30.8 83.301,76.3 101.704,128.8 10.796,51.2 -7.602,106.4 13.398,156 m 920.2,69 c 22.3,0.3 39.2,-23.3 50.2,-40.8 5.4,-30.7 -15.3,-57.4 -28.4,-83.3 -27.6,-2.3 -45.3,20.8 -63.7,37.3 11.4,30 21.6,61.4 41.9,86.8 M 1230,1353.2 c 11.1,29.9 22.9,60.2 41.7,86.2 23.2,-1.8 41.5,-20.2 51.6,-40 3.7,-32.3 -15.7,-60.2 -30.6,-87 -25.6,5 -43.8,24.4 -62.7,40.8 m 752,-32.1 c 6.6,35.6 23.4,69.5 46.5,97.3 20.4,-19.3 41.9,-39.4 52.2,-66.3 25.7,-106.5 -36.6,-231.4 -142.3,-266.4 27,49.8 83.7,80.2 98.5,137.1 7.6,42.5 -37.5,65.3 -54.9,98.3 m -1163.699,0.2 c 32.5,16.1 60.5,38.9 82,68 -6.301,-35.3 -15.903,-72 -38.801,-100.6 -28.199,-22.4 -69.5,-29.8 -87,-64.3 -24.602,-41 -28.801,-97.7 -73.301,-124.1 -32.097,-14 -68,-17.5 -102.801,-18.1 28.301,39.3 78.602,53.2 111.903,87.5 52,39.1 46.597,121.8 108,151.6 m 2790.599,59.5 c 10.2,13.1 27.2,6.4 40.3,2.9 -10.9,-7.1 -22,-14.1 -33.2,-20.8 -6.1,-23.5 -8.9,-57.7 -38.3,-63.1 -14.6,-7 -28.4,3.4 -38.7,12.6 16.3,3 32.8,5.5 49.2,8.6 6.8,19.8 5.9,43.6 20.7,59.8 M 292.102,1348 c 27.597,-3.7 55.199,-29.3 52.199,-58.8 3.301,-25.6 -16.602,-44.9 -31.903,-62.6 -27.5,-9.7 -47,21.5 -68,34 6.602,31.6 17.602,70.3 47.704,87.4 M 2957,1262.2 c 30.8,21.9 58.8,48.4 83.9,76.7 -5.4,-45 -31.1,-86 -70,-109.6 -35.2,-24.2 -70.8,-47.9 -103.9,-75 -24.6,-22.5 -63.2,-0.7 -87.1,-24.1 -31.2,-22.4 -59,-57.6 -100.8,-57.5 -27,-2.7 -52.3,9.6 -78.8,11.5 -28.8,-3.4 -53.8,-19.9 -80,-31.2 22.3,43.7 58.3,80.3 101.8,102.9 36.9,19.4 78.4,1.2 117.3,2.4 17.1,3.1 26.9,18 37.7,30 -3.6,6.2 -10.8,18.7 -14.4,25 -12.1,3 -24.1,6.1 -36.1,9.2 20.3,32.8 63.4,44.1 99.9,40.2 13.7,0.8 24.9,-9.6 29.4,-21.9 -4.2,-17.2 -10.6,-33.8 -15.4,-50.8 51.5,0.1 72.3,55.7 116.5,72.2 m -1405.5,-25.5 c 29.4,13 47.8,40.1 68.6,63.1 -8.5,-56.1 -34.6,-114.1 -85.2,-143.9 -77.2,-45.9 -167.7,-62.3 -255.9,-70.9 -67.8,-2.2 -137.6,-8.8 -203.6,10.4 -21.1,5.4 -37.3,21.9 -48.6,39.8 -8.8,49 8,97.5 20.1,144.4 6.6,-22.9 5.3,-51.8 28.8,-65.2 59.6,-41.6 135.9,-29.4 204.3,-31.4 92.9,-3.1 187.1,14.5 271.5,53.7 m 335.8,-14.5 c 10.3,17.3 20.4,34.9 33.5,50.2 -6.9,-97.8 -86,-183.4 -183.4,-196.1 43.7,54.2 112.2,85.6 149.9,145.9 M 843,1000.3 c 19.602,-13.698 40,-28.499 49.898,-51.198 4.301,-34.204 -19.597,-62.403 -43,-83.903 -16,14.903 -38.199,25.403 -48.398,45.102 6.398,32.801 26.898,60.5 41.5,89.999 M 740.301,991 C 756.602,981.699 779,976 785.199,955.898 796.301,922.5 782.102,878.398 749.602,863.301 730.5,871 712.602,884 700.898,901.102 703.5,934.5 724.699,962.5 740.301,991 M 4115.8,986.602 c 9.5,-0.602 19.1,-1.301 28.8,-1.903 35.2,-34.398 24.2,-85.097 -2.2,-121.097 -27.3,-1.903 -47.1,18.296 -63.5,37.296 5.5,30.704 24.9,57.102 36.9,85.704 M 834.102,733.199 c 39.597,4.602 85.199,7.5 115.898,-23 43.801,-35.898 39.699,-97.5 35.699,-148.398 -3.097,-49.199 -43.5,-99.199 -95.597,-98.403 -36.602,-2.699 -79.903,0.5 -103.903,32.301 -31.699,43.903 -36.597,102.801 -24,154.301 7.301,37.398 35.903,71 71.903,83.199 M 862.5,671.102 c -46.398,-19.403 -40.699,-84 -26.602,-123.5 12.5,-37.102 70.403,-27.602 77.903,8.5 6.398,34.398 11.801,76.597 -12.403,105.5 -11.199,6.796 -25.5,17.597 -38.898,9.5 m 1148.3,58.699 c 33.9,-4.801 67.5,5.801 101.6,3.097 20.5,-60.199 31.1,-123.296 53,-183.097 19,58.097 26.4,119.597 48.8,176.5 16.9,15.699 46.7,2.199 68.5,5.199 -22.8,-89.5 -53.8,-176.801 -81,-265.102 -25.4,-0.097 -50.8,-0.296 -76.2,-1 -27.6,83 -51.5,167.301 -81.5,249.602 -3.3,1.602 -10.1,4.699 -13.4,6.301 -7.9,-14.5 -5.7,-31.301 -6.1,-47.199 -35.1,-0.204 -70.3,1.097 -105.5,-0.204 -18.7,-4.097 -8,-27.5 -9.8,-40.5 35.8,-0.5 71.6,0.5 107.3,-2.097 -0.3,-17 -0.6,-34 -0.7,-51 -35.6,-3.699 -71.4,-2.903 -107,-2.801 2.4,-16.102 -10,-43.602 11.1,-50.5 35.8,-2.199 71.7,-0.301 107.6,-0.301 -0.1,-20.5 -0.4,-41.097 -0.6,-61.699 -62,2.199 -124,1.801 -186,0.699 -8.1,88.5 -1.2,177.699 -3,266.5 57.6,-0.301 115.5,3.301 172.9,-2.398 m 793.6,2.898 c 37.1,3.301 80.5,9.199 110.4,-18.199 52.4,-42 47.1,-118.301 36.9,-177.602 -23.7,-89.398 -165,-102.5 -207.3,-22.097 -24.2,51.199 -23.6,113.097 -1.8,165.097 10.5,26.5 35.5,44.102 61.8,52.801 m 19,-64.699 c -32.2,-19.602 -27.8,-65.102 -25.6,-97.801 1.9,-29.801 30.5,-56.699 60.9,-43.301 36.7,19.204 28.8,67 27.6,101.204 0.5,29.699 -36.1,57.597 -62.9,39.898 m 400.6,65.398 c 29.9,-1.097 59.8,-0.5 89.7,0.602 9.3,-52 25.2,-102.5 34,-154.602 16.7,49.204 23.2,100.903 34.7,151.301 31,2.602 62.2,3 93.1,-0.699 -1.9,-87.801 -0.2,-175.699 -1.1,-263.602 -17.7,-0.398 -35.3,-0.898 -52.8,-1.796 -9,62 -1.1,124.796 -5.2,187.097 -16.6,-61.801 -25.9,-125.301 -43.5,-186.898 -17.3,1 -34.6,1.898 -51.8,2.898 -10.8,58.301 -22.3,116.699 -37.9,173.903 -1.5,-58.301 -0.2,-116.704 -2.2,-175 -19.4,-0.102 -38.7,0.199 -57.9,1 0.5,88.597 -1.3,177.199 0.9,265.796 M 71.5,732 c 61.398,-0.398 123.199,4 184.398,-2.602 -0.699,-18.296 -1.199,-36.597 -1.597,-55 -35.102,-0.898 -70.102,0.704 -105.102,-1.097 -17.5,-4.5 -8.301,-27.102 -11.199,-39.903 35.699,-0.398 71.398,-0.296 107,-0.699 0.199,-18.199 0.102,-36.5 -0.102,-54.801 -35.398,0 -70.898,-0.097 -106.296,-0.796 -0.301,-16.403 -0.403,-32.801 -0.5,-49.403 C 178,526 217.801,526.5 257.699,526.602 257.5,506.199 257.102,485.801 256.898,465.398 195.301,467 133.699,466.801 72.1992,465 68,554 69.8984,643 71.5,732 m 211,-0.602 c 22.398,1.102 44.801,2.5 67.301,1.301 22,-22.5 31.398,-53.699 45,-81.5 10.699,20.5 20.398,41.5 30.898,62 12.801,33.403 56.903,15.699 84,16.801 C 490.5,685.602 459.898,646.699 443,601.5 c 20.5,-46.602 55.199,-86.398 69.898,-135.699 -22.5,0.199 -45.097,-1 -67.5,1.199 -26.699,15.5 -27.097,58.102 -53.898,72.699 -15.801,-23.097 -25.398,-49.801 -42.199,-72.199 -25.199,-3 -50.699,-0.898 -75.903,0 21.801,46.102 50.903,88.398 73.102,134.199 -12.5,46.301 -50.301,83 -64,129.699 M 537.699,732 c 41.102,0.801 82.199,1.801 123.199,0.398 30.301,-1 62.102,-21.898 64.602,-54.199 4.301,-33.699 6.602,-76.801 -25.102,-98.597 C 675.699,556.301 639,566.5 608.5,562.801 607.898,531 607.898,499.102 607.801,467.301 584.199,466.5 560.699,466.5 537.102,466.699 537.602,555.102 536,643.602 537.699,732 m 73.602,-54.699 c -0.903,-18.102 -9.5,-39 1.097,-55.699 13,-11.102 30,2.5 44.602,2.898 -0.5,16.301 -1.199,32.602 -2.5,48.801 -14.398,1.398 -28.801,2.801 -43.199,4 M 1024.6,730.5 c 56.3,1.5 114.8,8.898 169.7,-6.5 41.2,-21 34.1,-71.199 29.1,-109.199 -12.8,-10.102 -25.8,-19.903 -39.2,-29.403 29.1,-33.699 47.2,-75.199 57.8,-118.296 -24,-0.403 -48,-2.5 -71.8,-0.102 -26.2,34.102 -31.2,80.699 -62.6,111.801 -22.4,-33 -7.9,-75.602 -12.8,-113.102 -23,0.301 -45.9,0.301 -68.9,0.102 -2.4,88.199 1.3,176.5 -1.3,264.699 m 71.3,-54.301 c -0.2,-17.398 -0.2,-34.801 0,-52.301 19.2,2.204 41.9,-2.199 57.1,12.801 2.1,10.801 3.6,21.602 4.7,32.5 -20.1,5.801 -41,7.102 -61.8,7 m 155.7,56.199 c 69,0.5 138.1,0.301 207.1,-0.296 1.1,-22 2.2,-44 2.6,-66.102 -23.6,-0.5 -47.2,-0.602 -70.7,-0.398 -5.8,-66.704 -0.7,-133.602 -3.5,-200.5 -21.5,0.699 -43.1,0.898 -64.6,0.398 -8.9,66.5 -3.2,133.699 -4.8,200.5 -23.1,-0.301 -46.3,-0.398 -69.5,-0.102 0.5,22.204 1.8,44.403 3.4,66.5 m 343.1,-3.199 c 49.4,3.903 101.4,9.801 149.3,-5.801 47.3,-20 56.8,-77.898 58.5,-123.5 1,-50.199 -14.8,-114.796 -70.5,-129.199 -45,-8.801 -91.6,-1.898 -137.1,-5 -0.3,87.801 0.1,175.602 -0.2,263.5 m 69.5,-60.898 c 0.2,-46.801 -0.3,-93.5 -0.4,-140.301 21.1,-1.801 49.2,-3.102 59.3,20.102 11,33 12.6,71.597 -2.5,103.398 -9.9,21.898 -37.4,13.898 -56.4,16.801 m 641.2,60.5 c 62.5,6.097 126.1,6.301 188.5,0.097 -0.4,-18.097 -0.4,-36.296 0,-54.5 -37.8,-0.699 -75.6,0.903 -113.3,-1 -7.7,-11.398 -5.1,-26.097 -7.5,-39.097 36.7,-1.403 73.4,-1.403 110.2,-1.801 0,-18 -0.2,-36.102 -0.4,-54.199 -35.4,-0.903 -70.7,-1.102 -106.1,-0.903 -0.6,-16.597 -0.9,-33.199 -1,-49.898 39.9,-1.301 80,-0.898 120,-1.301 -0.5,-20 -0.7,-40 -1,-60.097 -63,0.398 -125.9,0.097 -188.8,-0.102 0.2,87.602 1.1,175.301 -0.6,262.801 m 227.5,2.699 c 23,0.801 45.9,1.199 68.9,1.102 0.9,-66.602 -0.4,-133.301 0.4,-200 36.3,-0.204 72.6,0.296 108.9,-1.801 0.6,-21 0.9,-42.102 1.2,-63.301 -59.8,-2 -119.7,-2.102 -179.4,0.301 0,87.898 -1,175.801 0,263.699 m 465,0.602 c 46.3,-1 93.7,5.5 139.3,-3.801 59.8,-14.602 62.9,-95.699 33,-138.301 -23.7,-33.301 -67.7,-24.699 -102.8,-27.398 -0.9,-31.704 -0.9,-63.301 -0.4,-95 -23.2,-1.204 -46.5,-1.301 -69.7,-1 0.5,88.5 -1.6,177 0.6,265.5 m 69.3,-58 c -0.6,-17.5 -1,-35.102 -1.7,-52.704 19.9,-7.097 47.5,-2.398 54,20.704 -0.8,12.296 -7.3,23.199 -12,34.199 -13.4,-0.602 -26.9,-1.301 -40.3,-2.199 M 3515.8,729 c 47.8,6.602 96.3,2.801 144.4,3.898 14.4,-1.398 35.1,4.204 42.7,-12.597 0.5,-15.102 0.6,-30.199 0.4,-45.301 -39,-0.898 -78,-0.801 -117.1,-1.301 -0.7,-13.097 -1.4,-26.199 -2.1,-39.398 36.6,-1.5 73.2,-1.5 109.9,-1.301 -0.2,-18.398 -0.4,-36.898 -0.7,-55.398 -36.3,0.097 -72.5,0.199 -108.7,-1.102 0.2,-15.602 0.3,-31.301 0.2,-47.102 40.2,-4.796 80.8,-2.699 121.2,-3.097 -0.3,-20.102 -0.4,-40.403 -0.4,-60.602 -63,1.403 -126.1,0.403 -189.1,0.801 -0.4,87.5 1.6,175 -0.7,262.5 m 227.7,2 c 22.6,-1.5 51.5,10.199 69.8,-7.199 28.1,-40.699 44,-89 76.8,-126.801 3.5,45 1.8,90.102 2.5,135.199 21.4,0.5 42.7,0.199 64.1,-0.699 -0.7,-88.898 0.7,-177.699 -0.5,-266.602 -24.3,5 -60.8,-11.699 -73.8,16.602 -24.8,40.199 -44.4,83.602 -72.5,121.602 -3.8,-45.204 -1.7,-90.602 -1.8,-136 -21.7,-0.903 -43.5,-0.903 -65.1,0.699 0.2,87.699 0.1,175.5 0.5,263.199 m 241.6,-1.801 c 70.2,6 141.1,4.403 211.3,1.199 -0.3,-21.699 -0.5,-43.5 -1,-65.296 -23,0.199 -46.1,0.199 -69,-0.301 -0.7,-66.403 0.1,-132.801 -0.6,-199.199 -21.5,0.398 -42.9,0.398 -64.3,-0.301 -8.6,65.699 -2.8,132.199 -3.6,198.097 -23.8,1.602 -47.7,2.204 -71.5,2.602 0,21.102 -0.4,42.199 -1.3,63.199 M 875.398,364.102 c 52.301,-0.704 105.102,4.097 157.102,-2.602 22.6,-11.602 45.3,-33.801 40.9,-61.602 4.7,-25.597 -15.6,-43.296 -31.2,-60.097 53.6,-22.403 54.2,-109.5 0.9,-132.5 C 989.102,88.8008 931,102.602 875.301,96.8008 874,185.898 873.699,275 875.398,364.102 m 69.801,-63.301 c 0.102,-13.301 0.602,-26.699 1.5,-40.102 17.403,1 34.903,2 52.301,3.102 1.9,14.398 2.3,28.898 -1.398,42.898 -17,-2.398 -38.903,7.102 -52.403,-5.898 m 1,-90.903 c 0.5,-17 -4.199,-35 2.699,-51.199 26,-8.801 51.502,1.903 70.002,20.403 C 1006.6,211 975.602,211.5 946.199,209.898 M 1174,364.699 c 26.1,0.102 52.2,-0.097 78.3,-1.097 26.9,-89.102 55.1,-177.801 84,-266.3012 -25.5,-0.1016 -51,-1.6016 -76.5,-2.4024 22.7,3.4024 46,3.9024 68,10.6016 -22.1,-0.699 -44.2,-2.602 -66.4,-2.5 -6.5,13.5 -7.5,31.602 -21,40.301 -20.8,1.301 -41.8,0.5 -62.6,0.5 -5.3,-13.403 -10.4,-26.903 -15.2,-40.5 -22.9,-1 -45.8,-1.403 -68.7,-2.199 19,89.898 52.1,176.199 80.1,263.597 M 1210.3,284 c -9.2,-26.699 -15.3,-54.301 -20.2,-82.102 14.5,0 28.9,0 43.4,-0.097 -5.9,27.898 -8.6,57.199 -23.2,82.199 m 145.7,80.5 c 22.5,0.102 45,0 67.6,-0.199 25.8,-48.903 54.7,-96 82,-144.102 -1.3,48.403 -1,96.903 -0.8,145.301 21,-0.5 42,-0.602 63.1,-0.602 0.3,-89.398 2.6,-179 -1.7,-268.398 -19.9,1 -39.7,1.3008 -59.5,1.1016 -28.9,47.3984 -56.5,95.5004 -84,143.5974 -2.3,-46.398 -0.9,-93 -2.8,-139.5 -21.8,0.199 -43.6,0.102 -65.4,0.199 2.3,87.602 0,175.102 1.5,262.602 m 402.2,-3.602 c 29.4,8.403 61.4,2 91.8,3.102 -23.8,-35.602 -53.1,-67 -77.3,-102.301 29.5,-51.898 55.6,-105.597 80.1,-160 -29,0 -57.9,0.301 -86.8,1.301 -12.8,34.602 -25.8,69.301 -43.9,101.5 -30.1,-26.301 -41,-63.301 -36.1,-102.301 -22.6,0.199 -45.3,0.301 -67.9,0.102 -2.1,87.301 0.3,174.597 -0.9,261.801 23.3,0.699 46.6,0.5 69.8,-1.5 -0.6,-29.204 -0.9,-58.403 1.5,-87.5 28.6,24.199 44.3,59 69.7,85.796 m 286.7,1.602 c 43.7,18.602 97.5,6.602 130.5,-27.102 22.9,-25.898 30.8,-61.597 29.7,-95.5 0.7,-41 -2.7,-89.699 -36.6,-118 C 2135.3,91.8984 2085.4,89.8008 2044.6,102.699 1992,119 1970.9,179.602 1974.4,230 c -5,52.398 17.4,113.801 70.5,132.5 m 29.7,-55.301 c -11.1,-14.5 -29.8,-26.301 -29.2,-46.699 -1.2,-30.199 -6.7,-65.602 14.5,-90.699 13.3,-9 31.2,-19.403 46.5,-8.301 34,14.199 29.2,58.801 28.4,89.102 2.6,33.597 -26.9,61.597 -60.2,56.597 m 168.1,58 c 56.1,-1.199 112.1,-0.398 168.2,-0.301 1.8,-19.199 2.7,-38.5 3.4,-57.898 -33.6,-0.301 -67.2,-0.199 -100.8,-0.699 -0.1,-14.602 -0.2,-29.199 -0.4,-43.801 28.4,-0.898 56.8,-1 85.2,-1.602 0.2,-17.5 0.5,-35.097 0.9,-52.796 -28.7,-0.403 -57.4,-0.5 -86.1,-0.704 0.4,-35.199 0.4,-70.5 -0.3,-105.699 -23.4,0.5 -46.8,0.403 -70.1,-0.097 0.7,87.898 -0.1,175.699 0,263.597 m 314,-1.097 c 22.8,0.296 45.8,0.398 68.7,0.5 1.6,-87.403 -0.7,-175 0.6,-262.5 -23.4,0.097 -46.7,0 -70,0.296 1,87.204 -0.5,174.5 0.7,261.704 m 122.7,0.796 c 51.2,-1.796 102.8,3.102 153.8,-3.296 63.6,-18.704 60.4,-121.602 -0.2,-143.102 32.9,-32.5 50.1,-76.898 62.8,-120.3984 -27.1,-0.3008 -53.9,3.0004 -80.7,5.7964 -18.6,37.403 -24.9,89.602 -67.4,107.704 -2.3,-36.403 -1.9,-72.903 -1.6,-109.301 -22.9,-0.102 -45.8,-0.199 -68.7,-0.301 0,87.602 -4.4,175.5 2,262.898 m 67.5,-55.796 c -0.3,-17.204 -0.5,-34.403 -0.5,-51.801 19.1,1 40.6,-2.699 56.8,10.199 5.8,11.199 3.8,24 0.4,35.398 -17.5,8.403 -38,4.102 -56.7,6.204 m 417.4,56.296 c 22.3,-1 45.1,1.204 67,-4.296 28.2,-41.301 45.2,-90.102 80.5,-126.5 3,43.296 1.5,86.699 1.9,130 21,-0.204 42,-0.102 63.1,0.199 2.7,-86.801 -4.2,-174 4.9,-260.602 -18.9,-12.5974 -44,-4.199 -65.4,-6.9998 -30.6,46.4998 -57.3,95.3008 -84.6,143.6988 -3.6,-46.199 -3,-92.597 -4.2,-138.898 -21.4,0.301 -42.7,0.398 -64,0.102 2.2,87.796 0.4,175.597 0.8,263.296 m -184.9,-2 c 26.5,1.204 53,1.403 79.4,0.204 23.9,-87.801 55.4,-173.403 79.8,-261.102 -22.7,-0.102 -45.4,0 -68.1,-0.199 -6.4,13.898 -12.5,27.898 -18.7,41.801 -20.6,-0.301 -41.3,0.398 -61.8,-1.102 -14.9,-7.898 -17.1,-26.5 -24.4,-40.199 -22.9,-0.699 -45.7,-1.102 -68.6,-1.699 24.3,88.398 55,174.898 82.4,262.296 m 37.3,-73.699 c -8.3,-29.199 -15,-58.699 -21.1,-88.398 14.7,0.5 29.5,0.898 44.3,1.199 -5.6,29.602 -13.3,58.699 -23.2,87.199"
         style="fill:#046b10;fill-opacity:1;fill-rule:nonzero;stroke:none"
         id="path12" />
    </g>
  </g>
</svg>
