<svg width="328" height="231" viewBox="0 0 328 231" fill="none" xmlns="http://www.w3.org/2000/svg">
<path d="M1 30.9601V15.98C1 12.0071 2.58035 8.19684 5.3934 5.38754C8.20644 2.57824 12.0218 1 16 1H31" stroke="#49454F" stroke-width="2" stroke-linecap="round" stroke-linejoin="round"/>
<path d="M327 30.9601V15.98C327 12.0071 325.42 8.19684 322.607 5.38754C319.794 2.57824 315.978 1 312 1H297" stroke="#49454F" stroke-width="2" stroke-linecap="round" stroke-linejoin="round"/>
<path d="M327 200.04V215.02C327 218.993 325.42 222.803 322.607 225.612C319.794 228.422 315.978 230 312 230H297" stroke="#49454F" stroke-width="2" stroke-linecap="round" stroke-linejoin="round"/>
<path d="M1 200.04V215.02C1 218.993 2.58035 222.803 5.3934 225.612C8.20644 228.422 12.0218 230 16 230H31" stroke="#49454F" stroke-width="2" stroke-linecap="round" stroke-linejoin="round"/>
</svg>
