<svg width="190" height="170" viewBox="0 0 190 170" fill="none" xmlns="http://www.w3.org/2000/svg">
<g clip-path="url(#clip0_1434_18036)">
<path d="M27.8259 162.642C-9.27529 152.831 -9.27529 136.921 27.8259 127.11C64.927 117.299 125.079 117.299 162.176 127.11C199.273 136.921 199.277 152.831 162.176 162.642C125.079 172.453 64.927 172.453 27.8259 162.642Z" fill="#ECECEC"/>
<path d="M26.3745 145.037L28.8825 146.485C29.6729 146.941 30.9573 146.941 31.7477 146.485L87.0415 114.561C87.8319 114.105 87.8319 113.364 87.0415 112.908L84.5335 111.46C83.7431 111.004 82.4587 111.004 81.6683 111.46L26.3745 143.384C25.5841 143.84 25.5841 144.581 26.3745 145.037Z" fill="#E0E0E0"/>
<path d="M40.4385 148.096L42.9465 149.543C43.7369 149.999 45.0213 149.999 45.8117 149.543L92.9963 122.4C93.7867 121.944 93.7867 121.203 92.9963 120.747L90.4883 119.299C89.6979 118.843 88.4135 118.843 87.6231 119.299L40.4385 146.443C39.6481 146.899 39.6481 147.636 40.4385 148.096Z" fill="#E0E0E0"/>
<path d="M136.723 134.141L134.446 135.413C134.076 135.621 133.476 135.621 133.106 135.413L111.049 123.01C110.679 122.802 110.679 122.463 111.049 122.255L113.326 120.983C113.695 120.774 114.296 120.774 114.665 120.983L136.723 133.386C137.092 133.594 137.092 133.931 136.723 134.141Z" fill="#E0E0E0"/>
<path d="M147.131 49.5009L151.732 52.1179V50.4878C151.722 50.3699 151.717 50.257 151.717 50.1441C151.717 50.0311 151.722 49.9231 151.732 49.8151V49.7758C151.899 47.6154 153.534 46.7905 155.527 47.9395C156.377 48.4305 157.157 49.2063 157.791 50.1146C158.242 47.1833 160.634 46.1228 163.521 47.7922C166.732 49.6482 169.334 54.1556 169.334 57.8626L169.339 61.3537C169.339 61.9134 169.638 62.4339 170.12 62.7186L172.825 64.3046C174.018 65.0067 174.755 66.2882 174.755 67.6729C174.755 68.9102 173.414 69.686 172.344 69.0624L147.195 54.5336C145.835 53.748 145 52.2996 145 50.7284C145 49.6482 146.178 48.9608 147.131 49.5009Z" fill="#E6E6E6"/>
<path d="M166.542 75.8176L169.89 77.7227V76.5394C169.886 76.4559 169.881 76.3724 169.881 76.2889C169.881 76.2055 169.886 76.1269 169.89 76.0483V76.0189C170.013 74.4477 171.201 73.8487 172.65 74.6834C173.269 75.0418 173.838 75.6064 174.3 76.2644C174.629 74.1334 176.367 73.3626 178.468 74.5753C180.805 75.9256 182.696 79.2006 182.696 81.9011V84.4396C182.696 84.8471 182.912 85.2252 183.265 85.4314L185.234 86.5853C186.103 87.0959 186.638 88.0288 186.638 89.0354C186.638 89.9339 185.666 90.4985 184.886 90.0468L166.596 79.4805C165.609 78.9109 165 77.8552 165 76.7112C164.995 75.9256 165.849 75.4248 166.542 75.8176Z" fill="#E6E6E6"/>
<path d="M29.3383 136.838L23.3404 140.284C23.3404 140.284 26.4014 130.665 24.7703 120.964C24.1538 117.303 22.8309 115.479 22.3685 114.499C21.9019 113.519 18.3228 107.461 21.5123 104.687C24.6975 101.912 32.121 107.491 31.7229 122.415C31.5174 130.082 29.3383 136.838 29.3383 136.838Z" fill="#1A90CD"/>
<path opacity="0.5" d="M29.3383 136.838L23.3404 140.284C23.3404 140.284 26.4014 130.665 24.7703 120.964C24.1538 117.303 22.8309 115.479 22.3685 114.499C21.9019 113.519 18.3228 107.461 21.5123 104.687C24.6975 101.912 32.121 107.491 31.7229 122.415C31.5174 130.082 29.3383 136.838 29.3383 136.838Z" fill="black"/>
<path d="M26.5514 138.653C26.637 138.653 26.7183 138.602 26.7526 138.512C26.774 138.448 29.0644 132.189 28.9874 122.128C28.9146 112.016 23.6316 106.605 23.576 106.553C23.4904 106.468 23.3576 106.468 23.272 106.553C23.1864 106.635 23.1864 106.772 23.272 106.857C23.3234 106.909 28.4865 112.209 28.5592 122.132C28.632 132.112 26.3716 138.302 26.3502 138.367C26.3073 138.478 26.3673 138.602 26.4743 138.641C26.5 138.649 26.5257 138.653 26.5514 138.653Z" fill="white"/>
<path d="M26.8383 138.311L18.6442 143.003C16.8675 144.017 14.5471 143.581 13.4126 141.877C12.9417 141.175 12.6548 140.246 12.7661 139.03C13.16 134.774 15.0095 133.794 12.7405 131.898C10.4757 130.001 9.88492 129.868 10.0176 128.036C10.1503 126.204 11.3919 125.416 11.9827 124.697C12.5735 123.977 14.2089 122.47 13.0958 120.244C11.9827 118.018 10.4672 115.865 12.7704 114.876C14.1447 114.285 16.4351 115.073 17.9421 116.708C19.449 118.343 20.6906 119.521 22.129 119.915C23.5675 120.308 26.5814 120.373 26.4487 122.86C26.316 125.347 25.661 126.199 26.2518 127.312C27.3649 129.41 32.2069 130.588 26.8383 138.311Z" fill="#1A90CD"/>
<path d="M22.7885 140.845C22.8955 140.845 22.9897 140.764 23.0026 140.652C23.0154 140.507 24.2612 125.814 14.162 116.036C14.0764 115.954 13.9436 115.954 13.858 116.04C13.7767 116.126 13.7767 116.263 13.8623 116.344C23.8203 125.981 22.5873 140.468 22.5745 140.614C22.5616 140.73 22.6515 140.837 22.7671 140.845C22.7757 140.845 22.78 140.845 22.7885 140.845Z" fill="white"/>
<path d="M21.1658 128.199C21.2771 128.199 21.367 128.113 21.3799 128.002C21.7138 124.101 24.4495 122.141 24.4752 122.124C24.5736 122.055 24.595 121.922 24.5265 121.824C24.458 121.725 24.3253 121.704 24.2268 121.773C24.107 121.858 21.3028 123.87 20.9518 127.967C20.9432 128.087 21.0288 128.19 21.1444 128.199C21.153 128.199 21.1615 128.199 21.1658 128.199Z" fill="white"/>
<path d="M21.8635 130.72C21.9149 130.72 21.9663 130.703 22.0048 130.669C22.0947 130.592 22.1033 130.455 22.0262 130.369C21.9235 130.249 19.3933 127.458 13.4596 128.199C13.344 128.211 13.2584 128.318 13.2755 128.438C13.2884 128.554 13.3997 128.635 13.5153 128.622C19.2092 127.907 21.6794 130.622 21.7051 130.647C21.7479 130.694 21.8079 130.72 21.8635 130.72Z" fill="white"/>
<path d="M74.8434 0.705083L28.4074 27.5179C27.0014 28.3311 26.1578 29.7561 26.0742 31.3939L26.078 139.363C26.078 140.952 27.0584 142.806 28.2668 143.501C29.4752 144.201 31.569 144.121 32.9446 143.33L79.221 116.613C80.589 115.822 81.71 113.88 81.71 112.3V4.67228C81.71 3.08388 80.7296 1.23328 79.5212 0.534083C78.3128 -0.168917 76.2152 -0.0891169 74.8434 0.705083Z" fill="#1A90CD"/>
<path opacity="0.05" d="M74.8434 0.705083L28.4074 27.5179C27.0014 28.3311 26.1578 29.7561 26.0742 31.3939L26.078 139.363C26.078 140.952 27.0584 142.806 28.2668 143.501C29.4752 144.201 31.569 144.121 32.9446 143.33L79.221 116.613C80.589 115.822 81.71 113.88 81.71 112.3V4.67228C81.71 3.08388 80.7296 1.23328 79.5212 0.534083C78.3128 -0.168917 76.2152 -0.0891169 74.8434 0.705083Z" fill="black"/>
<path d="M32.3441 143.612C31.0141 144.128 29.3079 144.106 28.2629 143.502C27.0545 142.806 26.0741 140.952 26.0741 139.363L26.0703 31.3939C26.0817 30.7859 26.2261 30.1057 26.6973 29.2583L30.7139 31.5383C29.9729 32.4769 29.5777 33.4459 29.5549 34.4377V141.377C29.5587 143.293 30.7671 144.197 32.3441 143.612Z" fill="#1A90CD"/>
<path opacity="0.3" d="M32.3441 143.612C31.0141 144.128 29.3079 144.106 28.2629 143.502C27.0545 142.806 26.0741 140.952 26.0741 139.363L26.0703 31.3939C26.0817 30.7859 26.2261 30.1057 26.6973 29.2583L30.7139 31.5383C29.9729 32.4769 29.5777 33.4459 29.5549 34.4377V141.377C29.5587 143.293 30.7671 144.197 32.3441 143.612Z" fill="black"/>
<path d="M31.755 30.6377C30.5466 31.3331 29.5586 33.0469 29.5586 34.4415V141.385C29.5586 143.528 31.0786 144.406 32.9368 143.334L79.2208 116.613C80.5888 115.822 81.7098 113.881 81.7098 112.3V4.67232C81.7098 3.09152 80.5888 2.44552 79.2208 3.23592L31.755 30.6377Z" fill="#1A90CD"/>
<path opacity="0.15" d="M31.755 30.6377C30.5466 31.3331 29.5586 33.0469 29.5586 34.4415V141.385C29.5586 143.528 31.0786 144.406 32.9368 143.334L79.2208 116.613C80.5888 115.822 81.7098 113.881 81.7098 112.3V4.67232C81.7098 3.09152 80.5888 2.44552 79.2208 3.23592L31.755 30.6377Z" fill="black"/>
<path d="M33.4612 37.0711C32.154 37.8273 31.0938 39.6589 31.0938 41.1675V137.163C31.0938 138.672 32.154 139.284 33.4612 138.527L77.1839 113.28C78.4835 112.528 79.5513 110.685 79.5513 109.184V13.1881C79.5513 11.6871 78.4873 11.0715 77.1839 11.8239L33.4612 37.0711Z" fill="#263238"/>
<path d="M75.93 106.562V12.5498L33.4612 37.0712C32.154 37.8274 31.0938 39.659 31.0938 41.1676V135.18L73.5626 110.658C74.866 109.91 75.93 108.063 75.93 106.562Z" fill="#37474F"/>
<path d="M51.7204 22.1447L58.9214 17.9875C59.3508 17.7405 59.7004 17.9153 59.7004 18.3827C59.7004 18.8463 59.3508 19.4277 58.9214 19.6747L51.7204 23.8319C51.291 24.0789 50.9414 23.9041 50.9414 23.4367C50.9414 22.9731 51.291 22.3917 51.7204 22.1447Z" fill="#263238"/>
<path d="M64.0782 15.0007C64.481 14.7689 64.8078 14.9551 64.8078 15.4225C64.8078 15.8861 64.481 16.4523 64.0782 16.6879C63.6754 16.9197 63.3486 16.7335 63.3486 16.2661C63.3486 15.7987 63.6754 15.2325 64.0782 15.0007Z" fill="#263238"/>
<path d="M67.0001 13.3134C67.4029 13.0816 67.7297 13.2678 67.7297 13.7352C67.7297 14.1988 67.4029 14.765 67.0001 15.0006C66.5973 15.2324 66.2705 15.0462 66.2705 14.5788C66.2705 14.1152 66.5973 13.549 67.0001 13.3134Z" fill="#263238"/>
<path d="M43.6417 26.7995C44.0445 26.5677 44.3713 26.7539 44.3713 27.2213C44.3713 27.6849 44.0445 28.2511 43.6417 28.4867C43.2389 28.7185 42.9121 28.5323 42.9121 28.0649C42.9121 27.5975 43.2389 27.0313 43.6417 26.7995Z" fill="#263238"/>
<path d="M46.5641 25.1161C46.9669 24.8843 47.2937 25.0705 47.2937 25.5379C47.2937 26.0053 46.9669 26.5677 46.5641 26.8033C46.1613 27.0351 45.8345 26.8489 45.8345 26.3815C45.8345 25.9141 46.1613 25.3479 46.5641 25.1161Z" fill="#263238"/>
<path d="M85.0619 14.6359L41.0807 39.9933C40.5335 40.3087 40.0889 41.0763 40.0889 41.7071V139.401C40.0889 140.032 40.5335 140.8 41.0807 141.111L41.7001 141.465C42.2473 141.78 43.1365 141.776 43.6837 141.461L87.6649 116.062C88.2121 115.746 88.6567 114.979 88.6567 114.348V16.6955C88.6567 16.0647 88.2121 15.2971 87.6649 14.9855L87.0455 14.6321C86.4983 14.3167 85.6091 14.3205 85.0619 14.6359Z" fill="#E0E0E0"/>
<path d="M88.6568 114.42C88.6568 115.29 88.045 115.845 87.2888 116.282L44.0638 141.241C43.3114 141.678 42.6958 141.324 42.6958 140.45V43.6263C42.6958 42.6535 43.2164 41.7529 44.0562 41.2665L87.285 16.2967C87.893 15.9433 88.653 16.3841 88.653 17.0871V114.42H88.6568Z" fill="#FAFAFA"/>
<path d="M87.741 16.5551C87.9956 16.5551 88.273 16.7603 88.273 17.0871V114.42C88.273 115.009 87.9082 115.484 87.095 115.952L43.87 140.91C43.718 140.997 43.5698 141.047 43.452 141.047C43.1252 141.047 43.0758 140.674 43.0758 140.45V43.6263C43.0758 42.7903 43.5242 42.0151 44.2462 41.5971L87.475 16.6273C87.5586 16.5779 87.6498 16.5551 87.741 16.5551ZM87.741 16.1751C87.589 16.1751 87.4332 16.2131 87.285 16.3005L44.0562 41.2665C43.2126 41.7529 42.6958 42.6535 42.6958 43.6263V140.446C42.6958 141.066 43.0036 141.423 43.4558 141.423C43.6382 141.423 43.8472 141.362 44.0676 141.237L87.285 116.278C88.0412 115.841 88.653 115.287 88.653 114.416V17.0871C88.6568 16.5551 88.216 16.1713 87.741 16.1751Z" fill="#E0E0E0"/>
<path d="M88.6567 16.6956V17.0832C88.6567 16.3802 87.8929 15.9432 87.2849 16.2928L44.0561 41.2626C43.6343 41.502 43.2923 41.8478 43.0605 42.2582C43.0529 42.2696 43.0491 42.2772 43.0453 42.2886L40.3701 40.7458C40.5525 40.4304 40.7995 40.153 41.0845 39.9896L85.0619 14.6284C85.6091 14.313 86.4983 14.313 87.0455 14.6246L87.6611 14.978C88.2083 15.2972 88.6567 16.0648 88.6567 16.6956Z" fill="#F0F0F0"/>
<path d="M51.1354 42.6495C51.1278 42.6381 51.1202 42.6191 51.1202 42.5849V42.2657L50.6224 42.5545C50.5958 42.5697 50.5806 42.5545 50.5806 42.5089V42.3949C50.5806 42.3683 50.5806 42.3493 50.5844 42.3303C50.5882 42.3151 50.592 42.2923 50.6034 42.2695L51.1354 40.8217C51.1468 40.7951 51.1544 40.7761 51.162 40.7647C51.1696 40.7533 51.181 40.7419 51.1962 40.7343L51.2646 40.6963C51.2874 40.6849 51.2988 40.6849 51.3102 40.6963C51.3178 40.7077 51.3254 40.7305 51.3254 40.7647V41.8781L51.4356 41.8135C51.4584 41.8021 51.4698 41.8021 51.4812 41.8097C51.4888 41.8211 51.4926 41.8439 51.4926 41.8781V41.9541C51.4926 41.9883 51.4888 42.0149 51.4812 42.0339C51.4736 42.0529 51.4584 42.0681 51.4356 42.0833L51.3254 42.1479V42.4671C51.3254 42.5013 51.3216 42.5279 51.3102 42.5469C51.3026 42.5659 51.2874 42.5849 51.2646 42.5963L51.181 42.6457C51.162 42.6571 51.1468 42.6609 51.1354 42.6495ZM51.1582 41.9731V41.1789L50.7972 42.1821L51.1582 41.9731Z" fill="#455A64"/>
<path d="M51.7283 42.1137C51.6295 41.9997 51.5801 41.7793 51.5801 41.4639C51.5801 41.1447 51.6295 40.8749 51.7283 40.6431C51.8271 40.4151 51.9639 40.2479 52.1425 40.1453C52.2147 40.1035 52.2793 40.0769 52.3439 40.0693C52.4047 40.0579 52.4579 40.0655 52.4997 40.0921C52.5073 40.0959 52.5149 40.1073 52.5149 40.1187C52.5149 40.1263 52.5111 40.1415 52.5073 40.1567L52.4617 40.3239C52.4541 40.3429 52.4503 40.3581 52.4427 40.3619C52.4389 40.3619 52.4313 40.3619 52.4237 40.3581C52.3515 40.3277 52.2679 40.3429 52.1691 40.3999C52.0513 40.4683 51.9563 40.5823 51.8879 40.7419C51.8195 40.9015 51.7853 41.1029 51.7853 41.3499C51.7853 41.5969 51.8195 41.7603 51.8841 41.8401C51.9487 41.9199 52.0399 41.9275 52.1577 41.8629C52.1995 41.8401 52.2413 41.8097 52.2793 41.7755C52.3173 41.7413 52.3515 41.7033 52.3781 41.6691V41.1523L52.1691 41.2739C52.1463 41.2853 52.1349 41.2853 52.1235 41.2739C52.1159 41.2625 52.1121 41.2397 52.1121 41.2055V41.1333C52.1121 41.0991 52.1159 41.0725 52.1235 41.0535C52.1311 41.0345 52.1463 41.0193 52.1691 41.0079L52.4997 40.8179C52.5225 40.8065 52.5377 40.8065 52.5491 40.8179C52.5605 40.8331 52.5643 40.8597 52.5643 40.9015V41.6387C52.5643 41.6653 52.5643 41.6881 52.5605 41.7033C52.5567 41.7185 52.5491 41.7375 52.5415 41.7527C52.4465 41.9161 52.3135 42.0453 52.1463 42.1441C51.9639 42.2353 51.8271 42.2277 51.7283 42.1137Z" fill="#455A64"/>
<path d="M55.935 39.5677C55.935 39.8147 55.8058 40.0883 55.6462 40.1795C55.4866 40.2707 55.3574 40.1453 55.3574 39.9021C55.3574 39.6551 55.4866 39.3815 55.6462 39.2903C55.8058 39.1953 55.935 39.3207 55.935 39.5677Z" fill="#455A64"/>
<path d="M55.6463 38.5607C55.3537 38.7279 55.0991 39.1269 54.9737 39.5715C54.9471 39.6627 54.9623 39.7463 55.0041 39.7729C55.0573 39.8071 55.1409 39.7349 55.1713 39.6209C55.2625 39.3055 55.4411 39.0243 55.6463 38.9065C55.8515 38.7887 56.0301 38.8609 56.1213 39.0737C56.1555 39.1497 56.2353 39.1269 56.2885 39.0281C56.3303 38.9521 56.3455 38.8495 56.3189 38.7887C56.1935 38.4961 55.9389 38.3897 55.6463 38.5607Z" fill="#455A64"/>
<path d="M55.6461 37.8464C55.2129 38.0972 54.8291 38.6672 54.6125 39.317C54.5821 39.412 54.5897 39.5108 54.6353 39.5374C54.6885 39.5716 54.7645 39.5032 54.8025 39.3968C54.9811 38.8648 55.2927 38.3974 55.6461 38.1922C55.9995 37.987 56.3149 38.0934 56.4897 38.4202C56.5277 38.4886 56.6037 38.4658 56.6569 38.3708C56.7025 38.2872 56.7139 38.1808 56.6797 38.12C56.4631 37.7248 56.0793 37.5956 55.6461 37.8464Z" fill="#455A64"/>
<path d="M65.454 33.1574C65.4692 33.1498 65.4806 33.1498 65.492 33.1612C65.5034 33.1726 65.5072 33.1878 65.5072 33.2068V33.4956C65.5072 33.5184 65.5034 33.5374 65.492 33.5602C65.4806 33.583 65.4692 33.5982 65.454 33.6058L65.2754 33.7084C65.2602 33.716 65.2488 33.716 65.2374 33.7046C65.226 33.697 65.2222 33.678 65.2222 33.659V33.3702C65.2222 33.3474 65.226 33.3284 65.2374 33.3056C65.2488 33.2828 65.2602 33.2676 65.2754 33.26L65.454 33.1574ZM65.454 34.191C65.4692 34.1834 65.4806 34.1834 65.492 34.1948C65.5034 34.2062 65.5072 34.2214 65.5072 34.2404V34.5292C65.5072 34.552 65.5034 34.571 65.492 34.5938C65.4806 34.6166 65.4692 34.6318 65.454 34.6394L65.2754 34.742C65.2602 34.7496 65.2488 34.7496 65.2374 34.7382C65.226 34.7268 65.2222 34.7116 65.2222 34.6926V34.4038C65.2222 34.381 65.226 34.362 65.2374 34.3392C65.2488 34.3164 65.2602 34.3012 65.2754 34.2936L65.454 34.191Z" fill="#455A64"/>
<path d="M66.4765 34.0466C66.4613 34.0542 66.4499 34.0542 66.4385 34.0428C66.4271 34.0314 66.4233 34.0162 66.4233 33.9972V33.64L65.8305 33.982C65.8153 33.9896 65.8039 33.9896 65.7925 33.9782C65.7811 33.9668 65.7773 33.9516 65.7773 33.9326V33.7236C65.7773 33.697 65.7811 33.6704 65.7887 33.6438C65.7963 33.6172 65.8077 33.5906 65.8191 33.5602L66.4043 32.0934C66.4309 32.0288 66.4575 31.9908 66.4841 31.9756L66.6285 31.892C66.6437 31.8844 66.6551 31.8844 66.6665 31.8958C66.6779 31.9072 66.6817 31.9224 66.6817 31.9414V33.1232L66.8451 33.0282C66.8603 33.0206 66.8717 33.0206 66.8831 33.032C66.8945 33.0434 66.8983 33.0586 66.8983 33.0776V33.2866C66.8983 33.3094 66.8945 33.3284 66.8831 33.3512C66.8717 33.374 66.8603 33.3892 66.8451 33.3968L66.6817 33.4918V33.849C66.6817 33.8718 66.6779 33.8908 66.6665 33.9136C66.6551 33.9364 66.6437 33.9516 66.6285 33.9592L66.4765 34.0466ZM66.4271 33.2714V32.6406L66.1003 33.4614L66.4271 33.2714Z" fill="#455A64"/>
<path d="M64.5117 35.175C64.4965 35.1826 64.4851 35.1826 64.4737 35.1712C64.4623 35.1636 64.4585 35.1446 64.4585 35.1256V34.7684L63.8657 35.1104C63.8505 35.118 63.8391 35.118 63.8277 35.1066C63.8163 35.0952 63.8125 35.08 63.8125 35.061V34.852C63.8125 34.8254 63.8163 34.7988 63.8239 34.7722C63.8315 34.7456 63.8429 34.719 63.8543 34.6886L64.4395 33.2218C64.4661 33.1572 64.4927 33.1192 64.5193 33.104L64.6637 33.0204C64.6789 33.0128 64.6903 33.0128 64.7017 33.0242C64.7131 33.0356 64.7169 33.0508 64.7169 33.0698V34.2516L64.8803 34.1566C64.8955 34.149 64.9069 34.149 64.9183 34.1604C64.9297 34.1718 64.9335 34.187 64.9335 34.206V34.415C64.9335 34.4378 64.9297 34.4568 64.9183 34.4796C64.9069 34.5024 64.8955 34.5176 64.8803 34.5252L64.7169 34.6202V34.9774C64.7169 35.0002 64.7131 35.0192 64.7017 35.042C64.6903 35.0648 64.6789 35.08 64.6637 35.0876L64.5117 35.175ZM64.4585 34.3998V33.769L64.1317 34.5898L64.4585 34.3998Z" fill="#455A64"/>
<path d="M67.2479 31.6183C67.2479 31.5955 67.2517 31.5765 67.2631 31.5537C67.2745 31.5309 67.2859 31.5157 67.3011 31.5081L68.0231 31.0939C68.0383 31.0863 68.0497 31.0863 68.0611 31.0977C68.0725 31.1091 68.0763 31.1243 68.0763 31.1433V31.3523C68.0763 31.3751 68.0725 31.3941 68.0611 31.4169C68.0497 31.4397 68.0383 31.4549 68.0231 31.4625L67.4835 31.7741L67.4607 32.1655C67.4949 32.1237 67.5291 32.0895 67.5633 32.0667C67.5975 32.0439 67.6241 32.0249 67.6469 32.0135C67.7191 31.9717 67.7837 31.9489 67.8445 31.9413C67.9053 31.9337 67.9585 31.9489 68.0041 31.9793C68.0497 32.0135 68.0839 32.0629 68.1105 32.1313C68.1371 32.1997 68.1485 32.2909 68.1485 32.4011C68.1485 32.5265 68.1371 32.6405 68.1105 32.7469C68.0839 32.8533 68.0497 32.9445 68.0041 33.0319C67.9585 33.1155 67.9053 33.1877 67.8445 33.2523C67.7837 33.3131 67.7191 33.3663 67.6507 33.4043C67.5633 33.4537 67.4873 33.4841 67.4227 33.4879C67.3581 33.4917 67.3087 33.4803 67.2669 33.4499C67.2251 33.4195 67.1947 33.3777 67.1719 33.3169C67.1491 33.2599 67.1377 33.1915 67.1377 33.1193C67.1377 33.0965 67.1415 33.0737 67.1529 33.0547C67.1643 33.0319 67.1757 33.0205 67.1909 33.0091L67.3467 32.9179C67.3581 32.9103 67.3695 32.9103 67.3809 32.9179C67.3923 32.9255 67.3999 32.9369 67.4037 32.9559C67.4113 32.9977 67.4227 33.0281 67.4417 33.0471C67.4569 33.0661 67.4759 33.0775 67.4987 33.0813C67.5215 33.0851 67.5443 33.0813 67.5709 33.0737C67.5975 33.0623 67.6241 33.0509 67.6545 33.0319C67.7267 32.9901 67.7875 32.9255 67.8293 32.8381C67.8749 32.7507 67.8977 32.6557 67.8977 32.5493C67.8977 32.4619 67.8749 32.4011 67.8293 32.3669C67.7837 32.3327 67.7267 32.3365 67.6545 32.3783C67.6165 32.4011 67.5861 32.4239 67.5633 32.4429C67.5405 32.4657 67.5215 32.4847 67.5101 32.5037C67.4949 32.5227 67.4835 32.5417 67.4721 32.5569C67.4607 32.5721 67.4455 32.5873 67.4265 32.5949L67.2517 32.6975C67.2365 32.7051 67.2251 32.7051 67.2137 32.6937C67.2023 32.6823 67.1985 32.6671 67.1985 32.6481L67.2479 31.6183Z" fill="#455A64"/>
<path d="M45.6255 46.0696V45.454L46.1575 45.1462V45.7618L45.6255 46.0696Z" fill="#455A64"/>
<path d="M46.4233 45.6098V44.3786L46.9553 44.0708V45.302L46.4233 45.6098Z" fill="#455A64"/>
<path d="M47.2217 45.1462V43.3032L47.7537 42.9954V44.8384L47.2217 45.1462Z" fill="#455A64"/>
<path d="M48.0195 44.6863V42.2277L48.5553 41.9199V44.3785L48.0195 44.6863Z" fill="#455A64"/>
<path d="M85.4227 21.096C85.3657 21.0124 85.2973 20.9896 85.2251 21.0314L83.2377 22.1752C83.1085 22.2512 83.0059 22.5134 83.0059 22.7794V23.8966C83.0059 24.0448 83.0363 24.1702 83.0933 24.2538C83.1161 24.288 83.1427 24.3146 83.1731 24.326C83.2111 24.3412 83.2491 24.3412 83.2909 24.3184L85.2783 23.1746C85.4075 23.0986 85.5101 22.8364 85.5101 22.5704V21.4532C85.5063 21.305 85.4759 21.1796 85.4227 21.096ZM83.1465 24.1094C83.1275 24.079 83.1161 24.0182 83.1161 23.946V22.8288C83.1161 22.635 83.1959 22.4222 83.2909 22.369L85.2783 21.2252C85.3011 21.21 85.3239 21.21 85.3429 21.2176C85.3543 21.2214 85.3619 21.229 85.3695 21.2404C85.3885 21.2708 85.3999 21.3316 85.3999 21.4038V22.521C85.3999 22.7148 85.3201 22.9276 85.2251 22.9808L83.2377 24.1246C83.1997 24.1474 83.1655 24.1398 83.1465 24.1094Z" fill="#455A64"/>
<path d="M83.6668 22.3462V23.6686L83.3552 23.8472C83.3286 23.8624 83.2944 23.8434 83.2944 23.813V22.8288C83.2944 22.6882 83.3552 22.5286 83.4236 22.4868L83.6668 22.3462Z" fill="#455A64"/>
<path d="M83.811 22.2664L84.1834 22.0498V23.3722L83.811 23.585V22.2664Z" fill="#455A64"/>
<path d="M84.3281 21.9699L84.7043 21.7495V23.0757L84.3281 23.2923V21.9699Z" fill="#455A64"/>
<path d="M85.221 21.5406V22.4944C85.221 22.6692 85.126 22.8326 84.974 22.92L84.8486 22.9922V21.6698L85.145 21.4988C85.1792 21.4798 85.221 21.5026 85.221 21.5406Z" fill="#455A64"/>
<path d="M85.5825 21.4189C85.6357 21.3847 85.6813 21.5443 85.6813 21.7761V21.9851C85.6813 22.2131 85.6357 22.4297 85.5787 22.4677L85.4761 22.5361L85.4799 21.4797C85.4837 21.4759 85.5255 21.4493 85.5825 21.4189Z" fill="#455A64"/>
<path d="M79.9849 24.7972L81.9191 23.0796L81.3225 25.5952L81.0413 24.5502L79.9849 24.7972Z" fill="#455A64"/>
<path d="M46.5491 48.6877L77.6711 30.7213C78.1879 30.4249 78.6059 30.6643 78.6059 31.2609V34.1641C78.6059 34.7607 78.1879 35.4865 77.6711 35.7829L46.5491 53.7493C46.0323 54.0457 45.6143 53.8063 45.6143 53.2097V50.3065C45.6143 49.7099 46.0323 48.9841 46.5491 48.6877Z" fill="#1A90CD"/>
<path d="M80.9543 33.5142C80.8289 33.5142 80.7111 33.4496 80.6427 33.3356C80.5439 33.1646 80.6009 32.9442 80.7719 32.8416L84.8873 30.44C85.0583 30.3412 85.2787 30.3982 85.3775 30.5692C85.4763 30.7402 85.4193 30.9606 85.2483 31.0632L81.1329 33.4648C81.0759 33.499 81.0151 33.5142 80.9543 33.5142Z" fill="#E0E0E0"/>
<path d="M80.9543 31.7397C80.8289 31.7397 80.7111 31.6751 80.6427 31.5611C80.5439 31.3901 80.6009 31.1697 80.7719 31.0709L84.8873 28.6693C85.0583 28.5705 85.2787 28.6275 85.3775 28.7985C85.4763 28.9695 85.4193 29.1899 85.2483 29.2887L81.1329 31.6903C81.0759 31.7245 81.0151 31.7397 80.9543 31.7397Z" fill="#E0E0E0"/>
<path d="M80.9543 29.9689C80.8289 29.9689 80.7111 29.9043 80.6427 29.7903C80.5439 29.6193 80.6009 29.3989 80.7719 29.3001L84.8873 26.8985C85.0583 26.7997 85.2787 26.8567 85.3775 27.0277C85.4763 27.1987 85.4193 27.4191 85.2483 27.5179L81.1329 29.9195C81.0759 29.9499 81.0151 29.9689 80.9543 29.9689Z" fill="#E0E0E0"/>
<path d="M42.6958 119.642V140.485C42.6958 141.324 43.2886 141.663 44.0106 141.245L57.0484 133.717L58.3138 132.987L68.38 127.173C68.437 125.277 68.4864 123.666 68.5206 122.488C68.5662 121.124 68.589 120.329 68.589 120.329L42.6958 119.642Z" fill="#455A64"/>
<path d="M83.1809 91.6431C83.2949 91.2821 83.3709 90.4157 83.4013 90.0395C83.6141 87.4479 84.9593 85.1489 86.3957 83.0437C86.6427 82.6827 86.8935 82.3255 87.1443 81.9683C87.2659 81.7935 87.3951 81.6263 87.4939 81.4401C87.5851 81.2653 87.6725 81.1171 87.9195 81.1665C88.0943 81.2007 88.2349 81.3337 88.3413 81.4781C88.6909 81.9569 88.7251 82.6029 88.5959 83.1805C88.4667 83.7581 88.1969 84.2939 87.9727 84.8411C87.8017 85.2591 88.3033 85.1337 88.5275 85.0387C89.6447 84.5713 90.7657 83.0095 91.4649 82.0481C91.9247 81.4173 92.2667 80.7029 92.8215 80.1443C93.1635 79.7985 93.5853 79.5211 94.0641 79.4337C94.3871 79.3767 94.7063 79.4337 94.7367 79.8403C94.7557 80.0949 94.6379 80.3381 94.5391 80.5737C94.3415 81.0639 94.1705 81.5009 94.3833 82.0177C94.5201 82.3407 94.7215 82.6485 94.7709 82.9943C94.8317 83.4389 94.6341 83.8797 94.6455 84.3281C94.6569 84.7271 94.8849 85.0577 94.9343 85.4339C94.9875 85.8367 94.7253 86.3915 94.5885 86.7639C94.2617 87.6493 93.7981 88.4815 93.2509 89.2529C92.4225 90.4233 91.4079 91.4493 90.3553 92.4183C89.7777 92.9503 89.1507 93.5089 88.8391 94.2461C88.5199 94.9947 88.3603 95.7585 88.1931 96.5603C87.9879 97.5407 87.8093 98.5287 87.6003 99.5091C85.4191 110.138 84.3285 110.738 82.9453 112.323C82.1093 113.28 79.6963 114.185 76.4169 110.799C72.7841 107.045 65.8187 97.3013 65.8187 97.3013L64.3633 84.3205C64.3633 84.3205 65.6553 84.6663 67.2969 85.1337C68.8245 85.5707 70.4357 87.1059 71.5225 88.8235C73.7721 92.3841 79.5823 101.626 79.5823 101.626C79.5823 101.626 82.7401 93.0263 83.1809 91.6431Z" fill="#FFBDA7"/>
<path d="M65.4047 84.4382C67.8063 84.7612 69.2237 85.506 70.6259 87.1666C72.0281 88.831 77.4849 97.913 77.4849 97.913C77.4849 97.913 75.6305 101.911 70.6259 104.02L64.4053 95.8648L65.4047 84.4382Z" fill="#1A90CD"/>
<path opacity="0.15" d="M65.4047 84.4382C67.8063 84.7612 69.2237 85.506 70.6259 87.1666C72.0281 88.831 77.4849 97.913 77.4849 97.913C77.4849 97.913 75.6305 101.911 70.6259 104.02L64.4053 95.8648L65.4047 84.4382Z" fill="black"/>
<path d="M79.586 101.626C78.3016 104.244 77.9444 107.436 77.9444 107.436C77.9444 107.436 77.2338 103.408 78.8146 100.395L79.586 101.626Z" fill="#F0997A"/>
<path d="M87.7828 86.6194C87.9158 88.0824 87.3268 90.0888 86.791 90.845C86.791 90.845 87.7676 89.933 88.0108 88.8348C88.273 87.6264 88.083 87.0906 87.7828 86.6194Z" fill="#F0997A"/>
<path d="M69.026 122.59C63.9948 126.162 47.5256 127.352 42.6958 124.16V100.919V85.9622V85.5746L43.0644 85.4986L47.784 84.5068L50.3414 83.9672L50.9912 83.8304H50.995L53.2712 83.3516L59.2144 83.6974H59.2182L61.0042 83.8H61.008L61.1828 83.8114C61.1828 83.8114 63.25 84.0622 65.397 84.4346C65.4768 84.503 65.549 84.579 65.6288 84.6626V84.6664C67.1146 86.2738 68.4028 90.3816 68.7638 94.7478C68.9006 96.416 69.0032 98.9164 69.0792 101.744C69.0792 101.744 69.083 101.918 69.083 102.006C69.311 110.609 69.026 122.59 69.026 122.59Z" fill="#1A90CD"/>
<path d="M65.165 69.1168C66.2176 66.7 65.1878 63.4966 63.9262 61.988C62.106 59.8106 59.2712 58.872 55.0038 59.138C51.7548 59.3394 48.5628 60.6884 47.9548 64.021C45.3442 64.8 45.6406 69.0864 46.2904 70.975C47.609 74.813 50.1968 78.1494 50.2424 80.114L65.165 69.1168Z" fill="#455A64"/>
<path d="M65.1614 78.1417C64.6484 79.9923 63.5768 81.3527 61.863 81.6187C60.8408 81.7821 59.1574 81.6339 59.1574 81.6339L59.2258 83.9937C61.5324 85.9659 60.685 88.5575 59.1498 90.8945C57.2384 88.7703 55.0534 88.0141 53.142 87.1705C51.2382 86.3345 50.3566 84.4725 50.3566 84.4725L50.1134 76.5077C50.1134 76.5077 49.0646 77.6971 47.3356 76.5723C46.15 75.7971 45.2988 73.7983 46.1614 71.9553C47.0164 70.1465 48.734 70.8951 49.2622 71.4423C49.7866 71.9895 50.406 73.0231 50.843 72.8787C51.5118 72.6545 51.7322 72.2365 51.907 71.7919C52.2148 71.0167 52.4352 70.0173 52.4656 68.2883C52.9444 68.0451 53.4004 67.6993 53.807 67.2547C54.5442 66.4377 54.9394 65.4649 54.9698 64.5757C58.671 63.4167 62.9308 63.9639 64.4698 65.1533C65.3552 66.7113 65.3894 70.3403 65.5338 72.4303C65.6972 74.7027 65.5946 76.5913 65.1614 78.1417Z" fill="#FFBDA7"/>
<path d="M59.1573 81.6341C57.2611 81.5277 53.4535 80.6423 52.4351 79.5859C51.4205 78.5295 50.9873 76.3635 50.9873 76.3635C50.9873 76.3635 51.1393 79.0957 51.9259 80.3041C52.7087 81.5087 54.6923 82.0369 55.8969 82.3333C57.1015 82.6335 59.1915 82.8349 59.1915 82.8349L59.1573 81.6341Z" fill="#F0997A"/>
<path d="M59.15 90.8947C58.1582 90.2867 55.9694 87.8015 54.8826 88.9567C53.7958 90.1119 53.2106 90.4273 52.4924 90.2145C51.7742 90.0017 50.1858 88.4323 49.1484 87.2885C48.111 86.1447 47.7842 84.4993 47.7842 84.4993C47.7842 84.4993 48.7874 83.2795 49.2472 82.4663C49.7412 81.5923 49.6348 81.3453 50.2656 81.3035L50.3226 82.9527C50.3226 82.9527 50.7254 83.8533 52.5038 85.0693C54.2784 86.2815 57.8656 88.0903 59.15 90.8947Z" fill="#1A90CD"/>
<path opacity="0.15" d="M59.15 90.8947C58.1582 90.2867 55.9694 87.8015 54.8826 88.9567C53.7958 90.1119 53.2106 90.4273 52.4924 90.2145C51.7742 90.0017 50.1858 88.4323 49.1484 87.2885C48.111 86.1447 47.7842 84.4993 47.7842 84.4993C47.7842 84.4993 48.7874 83.2795 49.2472 82.4663C49.7412 81.5923 49.6348 81.3453 50.2656 81.3035L50.3226 82.9527C50.3226 82.9527 50.7254 83.8533 52.5038 85.0693C54.2784 86.2815 57.8656 88.0903 59.15 90.8947Z" fill="black"/>
<path d="M59.1499 90.8947C59.7389 90.3551 60.7003 87.8395 60.9587 87.9155C61.3387 88.0257 62.0151 89.7585 62.3419 89.3557C62.8625 88.7173 62.7029 85.7989 61.8403 84.7387C61.0119 83.7165 59.8301 82.5499 59.1879 82.4397L59.2335 83.9939C59.2335 83.9939 59.8795 85.2555 59.8719 86.5019C59.8605 87.3873 59.2715 90.0473 59.1499 90.8947Z" fill="#1A90CD"/>
<path opacity="0.15" d="M59.1499 90.8947C59.7389 90.3551 60.7003 87.8395 60.9587 87.9155C61.3387 88.0257 62.0151 89.7585 62.3419 89.3557C62.8625 88.7173 62.7029 85.7989 61.8403 84.7387C61.0119 83.7165 59.8301 82.5499 59.1879 82.4397L59.2335 83.9939C59.2335 83.9939 59.8795 85.2555 59.8719 86.5019C59.8605 87.3873 59.2715 90.0473 59.1499 90.8947Z" fill="black"/>
<path d="M57.9606 71.222C57.9606 71.6628 57.6186 72.0162 57.1968 72.0162C56.775 72.0162 56.4292 71.659 56.4292 71.222C56.4292 70.7812 56.7712 70.4278 57.193 70.4278C57.6148 70.424 57.9606 70.7812 57.9606 71.222Z" fill="#263238"/>
<path d="M56.8888 68.771L55.3384 69.8198C55.0572 69.3714 55.175 68.7748 55.6006 68.486C56.03 68.1972 56.6076 68.3264 56.8888 68.771Z" fill="#37474F"/>
<path d="M64.3215 69.4893L62.6191 68.6761C62.8281 68.1935 63.3791 67.9845 63.8465 68.2087C64.3177 68.4367 64.5305 69.0067 64.3215 69.4893Z" fill="#37474F"/>
<path d="M63.7477 71.1726C63.7477 71.6134 63.4057 71.9668 62.9839 71.9668C62.5621 71.9668 62.2163 71.6096 62.2163 71.1726C62.2163 70.7318 62.5583 70.3784 62.9801 70.3784C63.4019 70.3784 63.7477 70.7356 63.7477 71.1726Z" fill="#263238"/>
<path d="M59.7197 69.5728L60.2745 75.079L63.2309 74.1898L59.7197 69.5728Z" fill="#F0997A"/>
<path d="M57.9565 76.3635L61.1257 77.0665C60.9509 77.9709 60.0997 78.5485 59.2219 78.3547C58.3479 78.1609 57.7817 77.2679 57.9565 76.3635Z" fill="#B16668"/>
<path d="M59.226 78.3545C59.2944 78.3697 59.359 78.3697 59.4236 78.3773C59.4046 77.5755 58.751 76.9409 57.9492 76.9409C58.048 77.6173 58.5382 78.2025 59.226 78.3545Z" fill="#F28F8F"/>
<path d="M43.8586 98.1147L42.6958 100.919V85.9623V85.5747C42.6958 85.5785 45.9866 91.8789 43.8586 98.1147Z" fill="#1A90CD"/>
<path opacity="0.15" d="M43.8586 98.1147L42.6958 100.919V85.9623V85.5747C42.6958 85.5785 45.9866 91.8789 43.8586 98.1147Z" fill="black"/>
<path d="M65.6135 74.0339C65.6135 74.0339 66.6736 74.3569 67.6692 74.9877C68.6648 75.6185 68.699 76.7319 68.2962 77.4463L67.5135 77.2943C67.5135 77.2943 67.9162 76.3785 67.445 75.8845C66.9738 75.3943 65.6021 74.9687 65.6021 74.9687L65.6135 74.0339Z" fill="#263238"/>
<path d="M67.9697 76.9373C67.3351 76.6295 67.0311 77.0247 66.5827 78.1001C66.1343 79.1755 66.4421 79.4719 66.9893 79.6847C67.5327 79.8975 67.9545 79.5403 68.2889 78.6511C68.6613 77.6479 68.6537 77.2679 67.9697 76.9373Z" fill="#1A90CD"/>
<path opacity="0.1" d="M67.9697 76.9373C67.3351 76.6295 67.0311 77.0247 66.5827 78.1001C66.1343 79.1755 66.4421 79.4719 66.9893 79.6847C67.5327 79.8975 67.9545 79.5403 68.2889 78.6511C68.6613 77.6479 68.6537 77.2679 67.9697 76.9373Z" fill="black"/>
<path d="M49.5854 60.4679C47.693 62.2197 45.8728 64.7125 47.2218 70.4695C46.4086 71.1915 46.0628 72.4379 46.439 73.7185C46.9596 75.4969 48.6658 76.6673 50.2504 76.3291C51.835 75.9947 52.6976 74.2809 52.177 72.5025C51.7894 71.1725 50.3568 69.8843 49.1826 69.9679C49.1826 69.9679 48.0578 67.5055 49.1142 64.0171C50.5506 59.2633 56.0948 58.8681 58.5344 59.2519C57.7136 58.0815 52.0858 58.1499 49.5854 60.4679Z" fill="#263238"/>
<path d="M52.5152 72.415C51.9376 70.4466 50.049 69.1508 48.2934 69.5194C48.016 69.5764 47.7614 69.6752 47.5296 69.8044C47.332 69.9146 46.7354 70.325 46.6176 70.401C45.4966 71.142 44.9798 72.6658 45.4396 74.239C46.0172 76.2074 47.9058 77.5032 49.6614 77.1346C49.9958 77.0624 50.2998 76.937 50.5696 76.766C50.7102 76.6748 51.2688 76.3024 51.4056 76.2074C52.4772 75.4474 52.9636 73.954 52.5152 72.415Z" fill="#1A90CD"/>
<path opacity="0.3" d="M52.5152 72.415C51.9376 70.4466 50.049 69.1508 48.2934 69.5194C48.016 69.5764 47.7614 69.6752 47.5296 69.8044C47.332 69.9146 46.7354 70.325 46.6176 70.401C45.4966 71.142 44.9798 72.6658 45.4396 74.239C46.0172 76.2074 47.9058 77.5032 49.6614 77.1346C49.9958 77.0624 50.2998 76.937 50.5696 76.766C50.7102 76.6748 51.2688 76.3024 51.4056 76.2074C52.4772 75.4474 52.9636 73.954 52.5152 72.415Z" fill="black"/>
<path d="M51.7972 72.8938C51.2196 70.9254 49.331 69.6296 47.5754 69.9982C45.8198 70.3706 44.866 72.2668 45.4398 74.239C46.0174 76.2074 47.906 77.5032 49.6616 77.1346C51.4172 76.7622 52.3748 74.866 51.7972 72.8938Z" fill="#1A90CD"/>
<path opacity="0.1" d="M51.7972 72.8938C51.2196 70.9254 49.331 69.6296 47.5754 69.9982C45.8198 70.3706 44.866 72.2668 45.4398 74.239C46.0174 76.2074 47.906 77.5032 49.6616 77.1346C51.4172 76.7622 52.3748 74.866 51.7972 72.8938Z" fill="black"/>
<path d="M50.1175 73.2511C49.8439 72.3201 48.9509 71.7083 48.1225 71.8869C47.2941 72.0617 46.8419 72.9585 47.1155 73.8895C47.3891 74.8205 48.2821 75.4323 49.1105 75.2537C49.9389 75.0751 50.3911 74.1783 50.1175 73.2511Z" fill="#37474F"/>
<path d="M69.3832 68.2047C69.2122 68.2047 69.0526 68.1173 68.9614 67.9615C68.8474 67.7639 68.874 67.5244 69.0336 67.3648C69.7404 66.6428 70.185 65.6283 70.3826 64.2679C68.0038 63.7815 66.5864 61.7219 66.5864 58.7237C66.5864 53.4189 70.907 46.6093 76.2194 43.5427C79.0466 41.9087 81.7408 41.5933 83.6104 42.6687C85.157 43.5617 86.012 45.3477 86.012 47.6923C86.012 52.9971 81.6914 59.8067 76.379 62.8733C75.638 63.2989 74.897 63.6447 74.1674 63.8955C72.8944 66.7227 70.9374 67.7904 69.5162 68.1856C69.4706 68.2008 69.425 68.2047 69.3832 68.2047ZM76.379 43.8201C71.1578 46.8335 66.9094 53.5215 66.9094 58.7237C66.9094 61.6573 68.2508 63.5725 70.5878 63.9791L70.7398 64.0056L70.7208 64.1577C70.5232 65.6663 70.0482 66.7911 69.2616 67.5891C69.1932 67.6575 69.2046 67.7411 69.235 67.7981C69.2502 67.8247 69.3148 67.9121 69.4288 67.8779C70.793 67.4979 72.6816 66.4642 73.9014 63.7016L73.9318 63.637L74.0002 63.6143C74.7298 63.371 75.4746 63.0291 76.2194 62.5959C81.4406 59.5787 85.689 52.8945 85.689 47.6923C85.689 45.4655 84.8948 43.782 83.4508 42.946C81.6838 41.9276 79.1074 42.2469 76.379 43.8201Z" fill="#1A90CD"/>
<path d="M134.588 56.8181L118.579 47.5759C118.096 47.2981 117.653 47.2659 117.303 47.435C117.259 47.4551 117.219 47.4793 117.178 47.5074L113.696 49.5483C113.704 49.5443 113.712 49.5402 113.717 49.5362C113.278 49.7858 113 50.3654 113 51.1906V68.9907C113 70.4962 113.914 72.2472 115.045 72.8993L131.054 82.1415C131.601 82.4554 132.096 82.4554 132.463 82.2018C132.454 82.2099 132.446 82.2179 132.434 82.222L135.892 80.1932C136.343 79.9517 136.629 79.364 136.629 78.5227V60.7226C136.633 59.2212 135.719 57.4702 134.588 56.8181Z" fill="#1A90CD"/>
<path d="M136.061 58.5047C135.691 57.7761 135.167 57.1522 134.588 56.8181L118.579 47.5759C118.096 47.2981 117.653 47.2659 117.303 47.435C117.259 47.4551 117.218 47.4793 117.178 47.5074L113.696 49.5483C114.059 49.3309 114.53 49.347 115.049 49.6489L131.058 58.8911C131.657 59.2373 132.193 59.8934 132.567 60.6542L136.061 58.5047Z" fill="#1A90CD"/>
<path d="M133.103 80.5997C133.103 81.3967 132.845 81.9643 132.438 82.226L135.896 80.1972C136.347 79.9557 136.633 79.368 136.633 78.5267V60.7266C136.633 59.994 136.416 59.201 136.061 58.5046L132.567 60.6542C132.897 61.3304 133.103 62.0912 133.103 62.7957V80.5997Z" fill="#1A90CD"/>
<path opacity="0.3" d="M136.061 58.5047C135.691 57.7761 135.167 57.1522 134.588 56.8181L118.579 47.5759C118.096 47.2981 117.653 47.2659 117.303 47.435C117.259 47.4551 117.218 47.4793 117.178 47.5074L113.696 49.5483C114.059 49.3309 114.53 49.347 115.049 49.6489L131.058 58.8911C131.657 59.2373 132.193 59.8934 132.567 60.6542L136.061 58.5047Z" fill="black"/>
<path opacity="0.6" d="M133.103 80.5997C133.103 81.3967 132.845 81.9643 132.438 82.226L135.896 80.1972C136.347 79.9557 136.633 79.368 136.633 78.5267V60.7266C136.633 59.994 136.416 59.201 136.061 58.5046L132.567 60.6542C132.897 61.3304 133.103 62.0912 133.103 62.7957V80.5997Z" fill="black"/>
<path d="M128.409 67.8999C128.409 70.2024 127.495 70.9913 126.123 70.1983C125.366 69.7596 124.831 69.0672 124.597 68.1977C124.207 68.6928 123.571 68.725 122.689 68.2179C121.252 67.3886 120.113 65.4162 120.113 63.476C120.113 61.5438 121.24 60.8837 122.689 61.7169C123.426 62.1436 124.005 62.7716 124.408 63.5565V62.7957L125.925 63.6692V67.8395C125.925 68.4594 126.159 68.7975 126.461 68.9706C126.972 69.2685 127.286 68.7653 127.286 67.2719C127.286 64.6595 125.616 61.89 123.14 60.461C120.652 59.024 118.994 60.0223 118.994 62.7152C118.994 65.4565 120.62 68.3426 123.096 69.7716C123.796 70.1782 124.589 70.468 125.293 70.472L125.652 71.8608C124.971 71.8688 123.981 71.5146 123.1 71.0034C119.875 69.1437 117.75 65.3921 117.75 61.9907C117.75 58.6295 119.904 57.3615 123.144 59.2373C126.272 61.0528 128.409 64.6715 128.409 67.8999ZM124.432 65.9637C124.432 64.8446 123.84 63.8705 123.039 63.4076C122.226 62.9366 121.659 63.2667 121.659 64.3616C121.659 65.4685 122.226 66.4668 123.039 66.9378C123.84 67.4007 124.432 67.0948 124.432 65.9637Z" fill="#1A90CD"/>
<g opacity="0.9">
<path d="M128.409 67.8999C128.409 70.2024 127.495 70.9913 126.123 70.1983C125.366 69.7596 124.831 69.0672 124.597 68.1977C124.207 68.6928 123.571 68.725 122.689 68.2179C121.252 67.3886 120.113 65.4162 120.113 63.476C120.113 61.5438 121.24 60.8837 122.689 61.7169C123.426 62.1436 124.005 62.7716 124.408 63.5565V62.7957L125.925 63.6692V67.8395C125.925 68.4594 126.159 68.7975 126.461 68.9706C126.972 69.2685 127.286 68.7653 127.286 67.2719C127.286 64.6595 125.616 61.89 123.14 60.461C120.652 59.024 118.994 60.0223 118.994 62.7152C118.994 65.4565 120.62 68.3426 123.096 69.7716C123.796 70.1782 124.589 70.468 125.293 70.472L125.652 71.8608C124.971 71.8688 123.981 71.5146 123.1 71.0034C119.875 69.1437 117.75 65.3921 117.75 61.9907C117.75 58.6295 119.904 57.3615 123.144 59.2373C126.272 61.0528 128.409 64.6715 128.409 67.8999ZM124.432 65.9637C124.432 64.8446 123.84 63.8705 123.039 63.4076C122.226 62.9366 121.659 63.2667 121.659 64.3616C121.659 65.4685 122.226 66.4668 123.039 66.9378C123.84 67.4007 124.432 67.0948 124.432 65.9637Z" fill="white"/>
</g>
<path d="M134.588 88.5297L118.579 79.2875C118.096 79.0098 117.653 78.9776 117.303 79.1467C117.259 79.1668 117.219 79.1909 117.178 79.2191L113.696 81.26C113.704 81.2559 113.712 81.2519 113.717 81.2479C113.278 81.4974 113 82.0771 113 82.9023V100.702C113 102.208 113.914 103.959 115.045 104.611L131.054 113.853C131.601 114.167 132.096 114.167 132.463 113.913C132.454 113.922 132.446 113.93 132.434 113.934L135.892 111.905C136.343 111.663 136.629 111.076 136.629 110.234V92.4343C136.633 90.9288 135.719 89.1818 134.588 88.5297Z" fill="#1A90CD"/>
<path d="M136.061 90.2163C135.691 89.4878 135.167 88.8638 134.588 88.5297L118.579 79.2875C118.096 79.0098 117.653 78.9776 117.303 79.1467C117.259 79.1668 117.218 79.1909 117.178 79.2191L113.696 81.26C114.059 81.0426 114.53 81.0587 115.049 81.3606L131.058 90.6028C131.657 90.9489 132.193 91.6051 132.567 92.3659L136.061 90.2163Z" fill="#1A90CD"/>
<path d="M133.103 112.307C133.103 113.105 132.845 113.672 132.438 113.934L135.896 111.905C136.347 111.663 136.633 111.076 136.633 110.234V92.4344C136.633 91.7018 136.416 90.9088 136.061 90.2124L132.567 92.3619C132.897 93.0382 133.103 93.799 133.103 94.5034V112.307Z" fill="#1A90CD"/>
<path opacity="0.3" d="M136.061 90.2163C135.691 89.4878 135.167 88.8638 134.588 88.5297L118.579 79.2875C118.096 79.0098 117.653 78.9776 117.303 79.1467C117.259 79.1668 117.218 79.1909 117.178 79.2191L113.696 81.26C114.059 81.0426 114.53 81.0587 115.049 81.3606L131.058 90.6028C131.657 90.9489 132.193 91.6051 132.567 92.3659L136.061 90.2163Z" fill="black"/>
<path opacity="0.6" d="M133.103 112.307C133.103 113.105 132.845 113.672 132.438 113.934L135.896 111.905C136.347 111.663 136.633 111.076 136.633 110.234V92.4344C136.633 91.7018 136.416 90.9088 136.061 90.2124L132.567 92.3619C132.897 93.0382 133.103 93.799 133.103 94.5034V112.307Z" fill="black"/>
<path d="M121.26 96.4878L117.404 90.2163V98.7138L121.26 96.4878Z" fill="#1A90CD"/>
<path d="M124.851 98.2952L128.703 104.965V96.4797L124.851 98.2952Z" fill="#1A90CD"/>
<path d="M117.987 89.9385L121.952 96.379C121.968 96.3951 121.984 96.4112 121.997 96.4313C122.005 96.4474 122.009 96.4635 122.013 96.4796L123.176 98.3675L124.174 97.8966C124.19 97.8805 124.206 97.8644 124.227 97.8523C124.267 97.8281 124.311 97.8161 124.355 97.812L128.365 95.9282L117.987 89.9385Z" fill="#1A90CD"/>
<path d="M124.267 98.5687L123.192 99.0759C123.148 99.096 123.1 99.1081 123.056 99.1081C122.947 99.1081 122.842 99.0517 122.782 98.9551L121.602 97.0391L117.726 99.2772L128.148 105.295L124.267 98.5687Z" fill="#1A90CD"/>
<g opacity="0.9">
<path d="M121.26 96.4878L117.404 90.2163V98.7138L121.26 96.4878Z" fill="white"/>
<path d="M124.851 98.2952L128.703 104.965V96.4797L124.851 98.2952Z" fill="white"/>
<path d="M117.987 89.9385L121.952 96.379C121.968 96.3951 121.984 96.4112 121.997 96.4313C122.005 96.4474 122.009 96.4635 122.013 96.4796L123.176 98.3675L124.174 97.8966C124.19 97.8805 124.206 97.8644 124.227 97.8523C124.267 97.8281 124.311 97.8161 124.355 97.812L128.365 95.9282L117.987 89.9385Z" fill="white"/>
<path d="M124.267 98.5687L123.192 99.0759C123.148 99.096 123.1 99.1081 123.056 99.1081C122.947 99.1081 122.842 99.0517 122.782 98.9551L121.602 97.0391L117.726 99.2772L128.148 105.295L124.267 98.5687Z" fill="white"/>
</g>
<path d="M134.588 25.1064L118.579 15.8642C118.096 15.5864 117.653 15.5542 117.303 15.7233C117.259 15.7434 117.219 15.7676 117.178 15.7958L113.696 17.8366C113.704 17.8326 113.712 17.8286 113.717 17.8245C113.278 18.0741 113 18.6538 113 19.479V37.279C113 38.7845 113.914 40.5355 115.045 41.1876L131.054 50.4298C131.601 50.7438 132.096 50.7438 132.463 50.4902C132.454 50.4982 132.446 50.5063 132.434 50.5103L135.892 48.4815C136.343 48.24 136.629 47.6523 136.629 46.811V29.015C136.633 27.5095 135.719 25.7585 134.588 25.1064Z" fill="#1A90CD"/>
<path d="M136.061 26.797C135.691 26.0684 135.167 25.4445 134.588 25.1104L118.579 15.8642C118.096 15.5864 117.653 15.5542 117.303 15.7233C117.259 15.7434 117.218 15.7676 117.178 15.7958L113.696 17.8366C114.059 17.6192 114.53 17.6353 115.049 17.9372L131.058 27.1794C131.657 27.5256 132.193 28.1817 132.567 28.9425L136.061 26.797Z" fill="#1A90CD"/>
<path d="M133.103 48.8881C133.103 49.6851 132.845 50.2526 132.438 50.5143L135.896 48.4855C136.347 48.244 136.633 47.6563 136.633 46.815V29.015C136.633 28.2823 136.416 27.4894 136.061 26.793L132.567 28.9425C132.897 29.6188 133.103 30.3795 133.103 31.084V48.8881Z" fill="#1A90CD"/>
<path opacity="0.3" d="M136.061 26.797C135.691 26.0684 135.167 25.4445 134.588 25.1104L118.579 15.8642C118.096 15.5864 117.653 15.5542 117.303 15.7233C117.259 15.7434 117.218 15.7676 117.178 15.7958L113.696 17.8366C114.059 17.6192 114.53 17.6353 115.049 17.9372L131.058 27.1794C131.657 27.5256 132.193 28.1817 132.567 28.9425L136.061 26.797Z" fill="black"/>
<path opacity="0.6" d="M133.103 48.8881C133.103 49.6851 132.845 50.2526 132.438 50.5143L135.896 48.4855C136.347 48.244 136.633 47.6563 136.633 46.815V29.015C136.633 28.2823 136.416 27.4894 136.061 26.793L132.567 28.9425C132.897 29.6188 133.103 30.3795 133.103 31.084V48.8881Z" fill="black"/>
<path d="M127.866 41.2119C127.25 40.2015 126.63 39.1911 126.014 38.1808C125.732 37.7179 125.414 37.4482 125.044 37.3677C124.746 37.3032 124.444 37.2388 124.142 37.1463C124.062 37.1221 123.933 37.0174 123.876 36.9208C122.85 35.1416 122.049 33.3182 121.489 31.4464C121.465 31.3578 121.481 31.2451 121.522 31.2008C121.711 31.0116 121.912 30.8386 122.113 30.6695C122.363 30.4602 122.407 30.11 122.266 29.6028C121.968 28.528 121.683 27.4532 121.385 26.3785C121.192 25.674 120.757 25.1668 120.233 25.038C119.505 24.8609 118.845 24.8851 118.261 25.1105C118.016 25.2071 117.887 25.4285 117.887 25.8069C117.987 26.5435 118.06 27.2721 118.197 28.0208C119.191 33.4188 121.586 38.3941 125.366 42.9307C125.664 43.2889 125.962 43.458 126.263 43.4459C126.928 43.4177 127.495 43.2004 127.962 42.7898C128.328 42.4798 128.292 41.9082 127.866 41.2119Z" fill="#1A90CD"/>
<path d="M127.817 35.7373C127.753 34.6625 127.435 33.5515 126.868 32.4204C126.457 31.5992 125.954 30.8626 125.358 30.2024C125.197 30.0253 125.064 29.969 124.988 30.1058C124.911 30.2427 124.984 30.4279 125.141 30.601C125.193 30.6613 125.245 30.7217 125.298 30.7821C126.465 32.199 127.133 33.7166 127.302 35.3428C127.314 35.4676 127.294 35.5884 127.338 35.7091C127.387 35.8379 127.487 36.011 127.576 36.0754C127.661 36.1358 127.753 36.0754 127.826 36.0714C127.822 35.9064 127.826 35.8218 127.817 35.7373Z" fill="#1A90CD"/>
<path d="M124.17 32.4326C124.706 33.0525 124.987 33.7127 125.044 34.4292C125.052 34.5378 125.14 34.6828 125.169 34.7512C125.414 34.9525 125.535 34.884 125.535 34.6345C125.535 33.8777 125.012 32.6862 124.404 32.0502C124.251 31.8932 124.126 31.8449 124.054 31.9777C123.985 32.1025 124.037 32.2756 124.17 32.4326Z" fill="#1A90CD"/>
<g opacity="0.9">
<path d="M127.866 41.2119C127.25 40.2015 126.63 39.1911 126.014 38.1808C125.732 37.7179 125.414 37.4482 125.044 37.3677C124.746 37.3032 124.444 37.2388 124.142 37.1463C124.062 37.1221 123.933 37.0174 123.876 36.9208C122.85 35.1416 122.049 33.3182 121.489 31.4464C121.465 31.3578 121.481 31.2451 121.522 31.2008C121.711 31.0116 121.912 30.8386 122.113 30.6695C122.363 30.4602 122.407 30.11 122.266 29.6028C121.968 28.528 121.683 27.4532 121.385 26.3785C121.192 25.674 120.757 25.1668 120.233 25.038C119.505 24.8609 118.845 24.8851 118.261 25.1105C118.016 25.2071 117.887 25.4285 117.887 25.8069C117.987 26.5435 118.06 27.2721 118.197 28.0208C119.191 33.4188 121.586 38.3941 125.366 42.9307C125.664 43.2889 125.962 43.458 126.263 43.4459C126.928 43.4177 127.495 43.2004 127.962 42.7898C128.328 42.4798 128.292 41.9082 127.866 41.2119Z" fill="white"/>
<path d="M127.817 35.7373C127.753 34.6625 127.435 33.5515 126.868 32.4204C126.457 31.5992 125.954 30.8626 125.358 30.2024C125.197 30.0253 125.064 29.969 124.988 30.1058C124.911 30.2427 124.984 30.4279 125.141 30.601C125.193 30.6613 125.245 30.7217 125.298 30.7821C126.465 32.199 127.133 33.7166 127.302 35.3428C127.314 35.4676 127.294 35.5884 127.338 35.7091C127.387 35.8379 127.487 36.011 127.576 36.0754C127.661 36.1358 127.753 36.0754 127.826 36.0714C127.822 35.9064 127.826 35.8218 127.817 35.7373Z" fill="white"/>
<path d="M124.17 32.4326C124.706 33.0525 124.987 33.7127 125.044 34.4292C125.052 34.5378 125.14 34.6828 125.169 34.7512C125.414 34.9525 125.535 34.884 125.535 34.6345C125.535 33.8777 125.012 32.6862 124.404 32.0502C124.251 31.8932 124.126 31.8449 124.054 31.9777C123.985 32.1025 124.037 32.2756 124.17 32.4326Z" fill="white"/>
</g>
<path d="M154.831 129.929C148.39 133.835 148.39 140.165 154.831 144.071C161.277 147.976 171.724 147.976 178.166 144.071C184.611 140.165 184.611 133.835 178.166 129.929C171.72 126.024 161.273 126.024 154.831 129.929Z" fill="#E6E6E6"/>
<path d="M154.808 118.737C154.808 118.61 154.892 118.487 155.055 118.392C155.384 118.201 155.924 118.201 156.254 118.392C156.421 118.487 156.504 118.614 156.504 118.737L153.486 136.556C153.482 136.644 153.426 136.731 153.311 136.795C153.077 136.93 152.7 136.93 152.465 136.795C152.35 136.727 152.294 136.644 152.291 136.556L154.808 118.737Z" fill="#455A64"/>
<path d="M178.084 118.737C178.084 118.61 178.001 118.487 177.838 118.392C177.509 118.201 176.968 118.201 176.639 118.392C176.472 118.487 176.389 118.614 176.389 118.737L179.407 136.556C179.411 136.644 179.466 136.731 179.582 136.795C179.816 136.93 180.197 136.93 180.428 136.795C180.543 136.727 180.598 136.644 180.602 136.556L178.084 118.737Z" fill="#455A64"/>
<path d="M167.398 120.087C167.398 119.96 167.315 119.837 167.152 119.742C166.822 119.551 166.282 119.551 165.952 119.742C165.786 119.837 165.702 119.964 165.702 120.087L165.952 141.286C165.956 141.374 166.012 141.457 166.127 141.525C166.361 141.66 166.743 141.66 166.973 141.525C167.088 141.457 167.144 141.374 167.148 141.286L167.398 120.087Z" fill="#455A64"/>
<path d="M181.742 112.867H181.726C181.73 110.624 180.257 108.38 177.29 106.664C171.357 103.241 161.739 103.241 155.805 106.664C152.839 108.376 151.369 110.62 151.369 112.867H151.354V114.071C151.389 116.287 152.875 118.495 155.801 120.186C161.735 123.61 171.353 123.61 177.286 120.186C180.213 118.495 181.702 116.287 181.734 114.071V112.867H181.742Z" fill="#1A90CD"/>
<path opacity="0.4" d="M181.742 112.867H181.726C181.73 110.624 180.257 108.38 177.29 106.664C171.357 103.241 161.739 103.241 155.805 106.664C152.839 108.376 151.369 110.62 151.369 112.867H151.354V114.071C151.389 116.287 152.875 118.495 155.801 120.186C161.735 123.61 171.353 123.61 177.286 120.186C180.213 118.495 181.702 116.287 181.734 114.071V112.867H181.742Z" fill="white"/>
<path d="M155.81 106.668C149.877 110.091 149.877 115.647 155.81 119.071C161.743 122.494 171.361 122.494 177.295 119.071C183.228 115.647 183.228 110.091 177.295 106.668C171.361 103.241 161.739 103.241 155.81 106.668Z" fill="#1A90CD"/>
<path opacity="0.6" d="M155.81 106.668C149.877 110.091 149.877 115.647 155.81 119.071C161.743 122.494 171.361 122.494 177.295 119.071C183.228 115.647 183.228 110.091 177.295 106.668C171.361 103.241 161.739 103.241 155.81 106.668Z" fill="white"/>
<g opacity="0.05">
<path d="M169.88 109.972C171.771 111.065 171.771 112.836 169.88 113.928C167.986 115.02 164.92 115.02 163.026 113.928C161.131 112.836 161.135 111.065 163.026 109.972C164.916 108.88 167.986 108.88 169.88 109.972Z" fill="black"/>
</g>
<path d="M163.439 112.192C161.791 110.512 160.822 106.311 162.43 104.976H170.611C172.219 106.311 171.25 110.508 169.602 112.188C169.586 112.204 169.57 112.22 169.559 112.236C169.539 112.256 169.523 112.272 169.503 112.292C169.455 112.335 169.408 112.379 169.352 112.423C169.34 112.434 169.324 112.442 169.312 112.454C169.273 112.486 169.233 112.518 169.189 112.55C169.118 112.601 169.046 112.645 168.975 112.685C167.62 113.467 165.42 113.467 164.066 112.685C163.995 112.645 163.923 112.597 163.852 112.546C163.812 112.518 163.772 112.486 163.737 112.458C163.721 112.446 163.705 112.434 163.689 112.419C163.637 112.375 163.59 112.335 163.546 112.292C163.522 112.272 163.502 112.248 163.482 112.228C163.463 112.22 163.451 112.208 163.439 112.192Z" fill="#EBEBEB"/>
<path d="M169.896 104.44C171.762 105.516 171.762 107.264 169.896 108.344C168.029 109.42 165.003 109.42 163.137 108.344C161.27 107.268 161.27 105.52 163.137 104.444C165.007 103.364 168.033 103.364 169.896 104.44Z" fill="#FAFAFA"/>
<path d="M168.573 105.207C169.709 105.862 169.709 106.926 168.573 107.582C167.438 108.237 165.599 108.237 164.463 107.582C163.327 106.926 163.327 105.862 164.463 105.207C165.599 104.552 167.438 104.552 168.573 105.207Z" fill="#EBEBEB"/>
<path d="M164.463 106.331C165.599 105.675 167.438 105.675 168.574 106.331C168.887 106.513 169.114 106.728 169.253 106.954C169.114 107.18 168.887 107.395 168.574 107.578C167.438 108.233 165.599 108.233 164.463 107.578C164.15 107.395 163.923 107.18 163.784 106.954C163.923 106.728 164.146 106.513 164.463 106.331Z" fill="#E0E0E0"/>
<path d="M168.323 106.954C168.323 106.954 169.125 106.192 169.809 104.976C170.496 103.761 170.623 102.137 170.265 101.934C169.912 101.732 168.466 103.356 168.466 103.356C168.466 103.356 168.681 102.363 168.617 101.283C168.558 100.203 168.291 99.218 167.982 99.0194C167.672 98.8209 166.977 100.187 166.683 101.176C166.389 102.165 166.207 102.979 166.207 102.979C166.207 102.979 166.004 101.641 165.674 100.703C165.313 99.6787 164.987 99.4444 164.733 99.5476C164.479 99.6509 164.312 100.127 164.237 101.494C164.185 102.451 164.296 103.451 164.296 103.451C164.296 103.451 163.788 102.891 163.22 102.347C162.601 101.752 162.335 101.668 162.156 101.783C161.977 101.899 161.929 102.824 162.89 104.567C163.74 106.104 164.705 106.958 164.705 106.958C164.705 106.958 166.048 107.816 168.323 106.954Z" fill="#1A90CD"/>
</g>
<defs>
<clipPath id="clip0_1434_18036">
<rect width="190" height="170" fill="white"/>
</clipPath>
</defs>
</svg>
