<svg width="108" height="90" viewBox="0 0 108 90" fill="none" xmlns="http://www.w3.org/2000/svg">
<mask id="mask0_1074_6110" style="mask-type:luminance" maskUnits="userSpaceOnUse" x="9" y="0" width="90" height="90">
<path d="M9 -7.62939e-06H99V90H9V-7.62939e-06Z" fill="white"/>
</mask>
<g mask="url(#mask0_1074_6110)">
<path d="M91.7787 53.4681C95.2328 48.2096 97.2427 41.9178 97.2427 35.1561C97.2427 16.7106 82.2897 1.75762 63.8442 1.75762C45.3988 1.75762 30.4458 16.7106 30.4458 35.1561C30.4458 53.6015 45.3988 68.5545 63.8442 68.5545C69.3407 68.5545 74.5266 67.2263 79.0996 64.8742" stroke="#A8B5C6" stroke-width="2" stroke-miterlimit="22.926" stroke-linecap="round" stroke-linejoin="round"/>
<path d="M51.5664 11.8181C55.2336 9.8849 59.4107 8.7889 63.8442 8.7889C78.4063 8.7889 90.2114 20.594 90.2114 35.1561C90.2114 40.8386 88.4137 46.1011 85.3562 50.4062M65.4569 61.4746C64.8262 61.5198 64.4865 61.5233 63.8442 61.5233C49.282 61.5233 37.4771 49.7183 37.4771 35.1561C37.4771 30.7229 38.5727 26.5456 40.5059 22.8792" stroke="#A8B5C6" stroke-width="2" stroke-miterlimit="22.926" stroke-linecap="round" stroke-linejoin="round"/>
<path d="M44.0624 62.2594L20.8111 86.5233C18.5191 88.8153 14.7688 88.8153 12.4768 86.5233C10.1848 84.2315 10.1848 80.481 12.4768 78.189L36.5801 55.0901" stroke="#A8B5C6" stroke-width="2" stroke-miterlimit="22.926" stroke-linecap="round" stroke-linejoin="round"/>
<path d="M30.1641 62.2247L36.7755 68.8362" stroke="#A8B5C6" stroke-width="2" stroke-miterlimit="22.926" stroke-linecap="round" stroke-linejoin="round"/>
<path d="M55.0542 35.1561H55.0562" stroke="#A8B5C6" stroke-width="2" stroke-miterlimit="22.926" stroke-linecap="round" stroke-linejoin="round"/>
<path d="M63.8433 35.1561H63.8453" stroke="#A8B5C6" stroke-width="2" stroke-miterlimit="22.926" stroke-linecap="round" stroke-linejoin="round"/>
<path d="M72.6323 35.1561H72.6344" stroke="#A8B5C6" stroke-width="2" stroke-miterlimit="22.926" stroke-linecap="round" stroke-linejoin="round"/>
<path d="M69.8566 64.8703H93.2873C95.4626 64.8703 97.2424 63.0905 97.2424 60.9152C97.2424 58.7399 95.4626 56.9601 93.2873 56.9601C93.0778 54.1508 90.7322 51.9366 87.8692 51.9366C87.3679 51.9366 86.8824 52.0048 86.4215 52.1321C84.9507 49.6831 82.2688 48.0445 79.2043 48.0445C74.5579 48.0445 70.7914 51.811 70.7914 56.4574H69.8842C67.5705 56.4574 65.6777 58.3502 65.6777 60.6638C65.6777 62.9502 67.5619 64.8703 69.8566 64.8703Z" stroke="#A8B5C6" stroke-width="2" stroke-miterlimit="22.926" stroke-linecap="round" stroke-linejoin="round"/>
<path d="M39.6156 11.8897C38.6736 10.2764 36.9239 9.19216 34.9207 9.19216C34.4192 9.19216 33.9339 9.26036 33.473 9.38763C32.002 6.93864 29.3203 5.30001 26.2557 5.30001C21.6093 5.30001 17.8428 9.06648 17.8428 13.7129H16.9356C14.6218 13.7129 12.729 15.6057 12.729 17.9193C12.729 20.2057 14.6134 22.1258 16.9079 22.1258H32.7867" stroke="#A8B5C6" stroke-width="2" stroke-miterlimit="22.926" stroke-linecap="round" stroke-linejoin="round"/>
<path d="M45.1982 16.5117H45.2003" stroke="#A8B5C6" stroke-width="2" stroke-miterlimit="2.613" stroke-linecap="round" stroke-linejoin="round"/>
</g>
</svg>
