<svg width="164" height="121" viewBox="0 0 164 121" fill="none" xmlns="http://www.w3.org/2000/svg">
<g clip-path="url(#clip0_1702_5786)">
<path d="M24.0181 112.8C-8.00604 101.865 -8.00604 84.1345 24.0181 73.2005C56.0423 62.2665 107.963 62.2665 139.983 73.2005C172.004 84.1345 172.007 101.865 139.983 112.8C107.963 123.734 56.0423 123.734 24.0181 112.8Z" fill="#ECECEC"/>
<path d="M46.3199 77.1953L9.32409 99.3949C8.89197 99.6553 8.89197 100.077 9.32409 100.337L15.1136 103.805C15.5457 104.065 16.2479 104.065 16.6801 103.805L53.6759 81.6051C54.108 81.3447 54.108 80.9234 53.6759 80.6629L47.8864 77.1953C47.4543 76.9349 46.7521 76.9349 46.3199 77.1953Z" fill="#E0E0E0"/>
<path d="M50.4795 77.9695V3.43371C50.4795 1.51704 49.5204 0.987368 48.6704 0.499578C47.8204 0.0117878 46.4177 -0.283842 45.2083 0.408425L14.2454 18.1783C13.0361 18.873 12.0547 20.5606 12.0547 21.9476V96.4834C12.0547 97.8704 12.932 98.6907 13.782 99.1785C14.632 99.6663 16.1165 100.203 17.3259 99.5087L48.2887 81.7388C49.4981 81.0465 50.4795 79.9034 50.4795 77.9695Z" fill="#37474F"/>
<path d="M48.5088 78.6765L16.6711 96.9489L16.681 22.0904L12.6985 19.8042C12.302 20.4866 12.0566 21.2552 12.0566 21.95V96.4858C12.0566 97.8728 12.9339 98.6931 13.784 99.1809C14.634 99.6687 16.1184 100.206 17.3278 99.511L48.2907 81.7412C49.0466 81.3076 49.7925 80.6572 50.1865 79.6373L50.0626 79.5658L48.5088 78.6765Z" fill="#263238"/>
<path d="M48.2312 2.78828L17.1816 20.6099C16.334 21.0952 15.6426 22.2851 15.6426 23.2533V97.1855C15.6426 98.676 16.7082 99.2845 18.0068 98.538L48.2312 81.1919C49.1878 80.6425 49.9734 79.295 49.9734 78.1937V3.7885C49.9734 2.68727 49.1878 2.2389 48.2312 2.78828Z" fill="#455A64"/>
<path d="M48.4576 7.32118V76.4297C48.4576 77.4767 47.7141 78.7603 46.8046 79.2801L18.8131 95.3476C17.9011 95.8748 17.1602 95.451 17.1602 94.3991V24.7831C17.1602 23.9331 17.6459 22.9305 18.32 22.3047C18.372 22.2579 18.4241 22.2086 18.4761 22.1643C18.5851 22.0781 18.6991 22.0017 18.8131 21.9352L26.6864 17.417C26.6864 17.417 26.9169 17.2839 27.1994 17.1238C27.4819 16.9612 27.7124 17.0918 27.7124 17.417C27.7124 17.7421 27.9578 17.8678 28.2601 17.6904L37.437 12.4257C37.7368 12.2533 37.9846 11.8468 37.9846 11.5241C37.9846 11.221 38.1879 10.8515 38.4456 10.6692C38.4629 10.6569 38.4803 10.647 38.4976 10.6372L46.1999 6.21749L46.3635 6.12141C47.5184 5.45871 48.4576 6.0007 48.4576 7.32118Z" fill="black"/>
<path d="M44.4027 77.4349C45.3122 76.9151 46.0557 75.6316 46.0557 74.5846V6.29887L38.4996 10.6348C38.4822 10.6446 38.4649 10.6545 38.4475 10.6668C38.1898 10.8467 37.9866 11.2162 37.9866 11.5217C37.9866 11.8469 37.7388 12.2509 37.4389 12.4233L28.2621 17.688C27.9597 17.8629 27.7144 17.7373 27.7144 17.4146C27.7144 17.0869 27.4839 16.9563 27.2014 17.1214C26.9189 17.2815 26.6884 17.4146 26.6884 17.4146L18.8151 21.9328C18.7011 21.9993 18.5871 22.0757 18.478 22.1619C18.426 22.2062 18.374 22.2555 18.3219 22.3023C17.6478 22.9281 17.1621 23.9308 17.1621 24.7807V93.0688L44.4027 77.4349Z" fill="#263238"/>
<path d="M29.6537 14.9091L33.8593 12.4948C34.1096 12.3519 34.3128 12.4529 34.3128 12.7239C34.3128 12.9949 34.1096 13.33 33.8593 13.4729L29.6537 15.8872C29.4034 16.0301 29.2002 15.9291 29.2002 15.6581C29.2002 15.3895 29.4034 15.052 29.6537 14.9091Z" fill="#263238"/>
<path d="M36.0198 11.056C36.3023 10.8934 36.5328 11.0265 36.5328 11.3492C36.5328 11.6744 36.3048 12.0686 36.0198 12.2312C35.7373 12.3938 35.5068 12.2607 35.5068 11.938C35.5068 11.6153 35.7373 11.2186 36.0198 11.056Z" fill="#263238"/>
<path d="M14.929 30.8905C14.929 30.3435 14.5672 29.6932 14.1186 29.4369C13.903 29.3138 13.7073 29.3064 13.5635 29.3926C13.4619 29.4542 13.0629 29.6735 12.9564 29.7375C12.8027 29.8287 12.7061 30.0282 12.7061 30.3091V36.3818C12.7061 36.9287 13.0679 37.5791 13.5164 37.8378C13.7221 37.956 13.9105 37.9683 14.0517 37.8944C14.1632 37.8353 14.5722 37.6013 14.6762 37.5397C14.8299 37.4485 14.9265 37.249 14.9265 36.9681L14.929 30.8905Z" fill="#455A64"/>
<path d="M14.3268 31.2352V37.308C14.3268 37.8549 13.965 38.0914 13.5164 37.8327C13.0704 37.5765 12.7061 36.9237 12.7061 36.3792V30.3065C12.7061 29.7596 13.0679 29.523 13.5164 29.7817C13.9625 30.0379 14.3268 30.6883 14.3268 31.2352Z" fill="#37474F"/>
<path d="M14.929 41.5209C14.929 40.974 14.5672 40.3236 14.1186 40.0674C13.903 39.9442 13.7073 39.9368 13.5635 40.023C13.4619 40.0846 13.0629 40.3039 12.9564 40.3679C12.8027 40.4591 12.7061 40.6586 12.7061 40.9395V47.0122C12.7061 47.5591 13.0679 48.2095 13.5164 48.4682C13.7221 48.5864 13.9105 48.5988 14.0517 48.5248C14.1632 48.4657 14.5722 48.2317 14.6762 48.1701C14.8299 48.0789 14.9265 47.8794 14.9265 47.5985L14.929 41.5209Z" fill="#455A64"/>
<path d="M14.3268 41.8656V47.9383C14.3268 48.4852 13.965 48.7217 13.5164 48.4631C13.0704 48.2069 12.7061 47.5565 12.7061 47.0096V40.9368C12.7061 40.3899 13.0679 40.1534 13.5164 40.4121C13.9625 40.6683 14.3268 41.3187 14.3268 41.8656Z" fill="#37474F"/>
<path d="M68.9429 66.0254C66.7951 67.3925 66.7951 69.6075 68.9429 70.9746C71.0907 72.3418 74.5734 72.3418 76.7212 70.9746C78.869 69.6075 78.869 67.3925 76.7212 66.0254C74.5734 64.6582 71.0907 64.6582 68.9429 66.0254Z" fill="#E0E0E0"/>
<path d="M75.8472 68.6206C77.7374 66.6682 78.8498 61.7637 77.0062 60.2197H67.6213C65.7778 61.7676 66.8862 66.6682 68.7764 68.6206C68.792 68.6401 68.8114 68.6556 68.827 68.6751C68.8503 68.6984 68.8698 68.7178 68.8931 68.7412C68.9476 68.7917 69.002 68.8462 69.0642 68.8968C69.0798 68.9084 69.0954 68.9201 69.1109 68.9318C69.1576 68.9668 69.2043 69.0057 69.2548 69.0407C69.3365 69.099 69.4182 69.1534 69.4998 69.2001C71.0556 70.1063 73.5759 70.1063 75.1316 69.2001C75.2133 69.1534 75.2949 69.099 75.3766 69.0407C75.4233 69.0095 75.4661 68.9745 75.5089 68.9395C75.5283 68.924 75.5477 68.9123 75.5633 68.8968C75.6216 68.8501 75.6761 68.7995 75.7267 68.749C75.75 68.7256 75.7772 68.6984 75.8006 68.6751C75.8161 68.6478 75.8317 68.6323 75.8472 68.6206Z" fill="#37474F"/>
<path d="M68.4344 59.5935C66.2953 60.842 66.2953 62.8683 68.4344 64.1206C70.5736 65.3691 74.0467 65.3691 76.1859 64.1206C78.325 62.8722 78.325 60.8458 76.1859 59.5935C74.0467 58.3411 70.5774 58.3411 68.4344 59.5935Z" fill="#455A64"/>
<path d="M69.4646 60.1924C67.8933 61.1103 67.8933 62.5999 69.4646 63.5178C71.0359 64.4357 73.5873 64.4357 75.1586 63.5178C76.7299 62.5999 76.7299 61.1103 75.1586 60.1924C73.5873 59.2746 71.0359 59.2746 69.4646 60.1924Z" fill="#263238"/>
<path d="M75.1586 61.7715C73.5873 60.8536 71.0359 60.8536 69.4647 61.7715C69.0291 62.0282 68.7179 62.3277 68.5234 62.6466C68.7179 62.9655 69.0291 63.265 69.4647 63.5217C71.0359 64.4396 73.5873 64.4396 75.1586 63.5217C75.5942 63.265 75.9054 62.9655 76.0998 62.6466C75.9054 62.3277 75.5942 62.0282 75.1586 61.7715Z" fill="#FAFAFA"/>
<path d="M72.9419 49.2595C73.6614 50.0374 75.6606 50.2513 76.4851 48.1472C77.263 46.1714 78.0992 44.3006 78.3364 43.5772C78.5737 42.8538 77.858 42.6127 77.858 42.6127C77.858 42.6127 77.7997 41.5275 75.9639 42.2626C74.1437 42.9899 72.8291 44.1139 72.0279 45.9186C71.2423 47.696 71.7129 49.0145 72.9419 49.2595Z" fill="#1A90CD"/>
<path opacity="0.45" d="M72.9419 49.2595C73.6614 50.0374 75.6606 50.2513 76.4851 48.1472C77.263 46.1714 78.0992 44.3006 78.3364 43.5772C78.5737 42.8538 77.858 42.6127 77.858 42.6127C77.858 42.6127 77.7997 41.5275 75.9639 42.2626C74.1437 42.9899 72.8291 44.1139 72.0279 45.9186C71.2423 47.696 71.7129 49.0145 72.9419 49.2595Z" fill="white"/>
<path d="M72.1484 52.0404C72.1834 51.6709 72.234 51.3053 72.3079 50.9436C72.4596 50.2241 72.6657 49.5162 72.9185 48.8239C73.4358 47.416 74.1553 46.0936 75.0498 44.8918C75.5516 44.2151 76.1039 43.5616 76.7223 42.9938C76.7417 42.9783 76.7573 43.0171 76.7417 43.0327C75.7188 44.1334 74.8165 45.3196 74.1203 46.6537C73.4397 47.9527 72.9263 49.3295 72.6035 50.7608C72.514 51.1614 72.4284 51.562 72.3545 51.9665C72.2806 52.3749 72.2379 52.791 72.1679 53.1994C72.1601 53.2422 72.0978 53.2655 72.094 53.2111C72.0706 52.826 72.1095 52.4293 72.1484 52.0404Z" fill="#1A90CD"/>
<path opacity="0.3" d="M72.1484 52.0404C72.1834 51.6709 72.234 51.3053 72.3079 50.9436C72.4596 50.2241 72.6657 49.5162 72.9185 48.8239C73.4358 47.416 74.1553 46.0936 75.0498 44.8918C75.5516 44.2151 76.1039 43.5616 76.7223 42.9938C76.7417 42.9783 76.7573 43.0171 76.7417 43.0327C75.7188 44.1334 74.8165 45.3196 74.1203 46.6537C73.4397 47.9527 72.9263 49.3295 72.6035 50.7608C72.514 51.1614 72.4284 51.562 72.3545 51.9665C72.2806 52.3749 72.2379 52.791 72.1679 53.1994C72.1601 53.2422 72.0978 53.2655 72.094 53.2111C72.0706 52.826 72.1095 52.4293 72.1484 52.0404Z" fill="black"/>
<path d="M71.534 48.7111C73.187 49.2206 74.4121 47.9333 73.9882 45.9108C73.5642 43.8884 71.4407 41.6442 70.6395 42.2471C70.1377 41.7454 69.0371 41.9243 68.5159 43.5656C67.9947 45.2146 68.4653 49.4268 71.534 48.7111Z" fill="#1A90CD"/>
<path opacity="0.25" d="M71.534 48.7111C73.187 49.2206 74.4121 47.9333 73.9882 45.9108C73.5642 43.8884 71.4407 41.6442 70.6395 42.2471C70.1377 41.7454 69.0371 41.9243 68.5159 43.5656C67.9947 45.2146 68.4653 49.4268 71.534 48.7111Z" fill="white"/>
<path d="M70.5654 43.48C71.0554 44.639 71.3782 45.8875 71.6622 47.1126C71.9539 48.365 72.1483 49.6368 72.3 50.9164C72.5956 53.3861 72.6462 55.8831 72.6306 58.3684C72.6267 59.0568 72.6151 59.7452 72.6034 60.4297C72.5917 61.1376 72.5995 61.8532 72.5412 62.5572C72.5178 62.8255 72.1328 62.7555 72.1289 62.5066C72.1056 61.2698 72.1717 60.0252 72.1833 58.7884C72.195 57.5633 72.1911 56.3381 72.16 55.1169C72.0978 52.6238 71.915 50.1346 71.491 47.6727C71.3744 46.9882 71.2421 46.3037 71.0827 45.6269C70.9154 44.9152 70.7093 44.2151 70.5226 43.5072C70.5148 43.48 70.5498 43.4411 70.5654 43.48Z" fill="#1A90CD"/>
<path opacity="0.3" d="M70.5654 43.48C71.0554 44.639 71.3782 45.8875 71.6622 47.1126C71.9539 48.365 72.1483 49.6368 72.3 50.9164C72.5956 53.3861 72.6462 55.8831 72.6306 58.3684C72.6267 59.0568 72.6151 59.7452 72.6034 60.4297C72.5917 61.1376 72.5995 61.8532 72.5412 62.5572C72.5178 62.8255 72.1328 62.7555 72.1289 62.5066C72.1056 61.2698 72.1717 60.0252 72.1833 58.7884C72.195 57.5633 72.1911 56.3381 72.16 55.1169C72.0978 52.6238 71.915 50.1346 71.491 47.6727C71.3744 46.9882 71.2421 46.3037 71.0827 45.6269C70.9154 44.9152 70.7093 44.2151 70.5226 43.5072C70.5148 43.48 70.5498 43.4411 70.5654 43.48Z" fill="black"/>
<path d="M74.2218 54.6385C74.9452 55.4552 76.5982 55.3813 77.7066 53.9267C78.8151 52.4682 79.4802 46.9882 77.9206 47.3382C77.59 46.607 73.2767 48.3611 72.7244 51.9393C72.3199 54.5373 74.2218 54.6385 74.2218 54.6385Z" fill="#1A90CD"/>
<path opacity="0.25" d="M74.2218 54.6385C74.9452 55.4552 76.5982 55.3813 77.7066 53.9267C78.8151 52.4682 79.4802 46.9882 77.9206 47.3382C77.59 46.607 73.2767 48.3611 72.7244 51.9393C72.3199 54.5373 74.2218 54.6385 74.2218 54.6385Z" fill="white"/>
<path d="M72.9299 57.2287C72.9766 56.8904 73.0544 56.5598 73.1438 56.2292C73.3227 55.5563 73.5405 54.8951 73.7856 54.2456C74.2912 52.9155 74.9523 51.6631 75.7108 50.4652C76.1308 49.8001 76.5742 49.1389 77.0798 48.5322C77.0954 48.5167 77.107 48.5517 77.0993 48.5633C76.7142 49.1234 76.3253 49.6796 75.9752 50.2668C75.6174 50.8736 75.2946 51.5075 74.999 52.1454C74.4273 53.3783 73.9489 54.654 73.5755 55.9608C73.4705 56.3303 73.3811 56.7076 73.2722 57.0771C73.1594 57.4621 73.0155 57.8394 72.9182 58.2283C72.9027 58.2866 72.8327 58.3061 72.8404 58.2322C72.8754 57.8977 72.8871 57.5632 72.9299 57.2287Z" fill="#1A90CD"/>
<path opacity="0.3" d="M72.9299 57.2287C72.9766 56.8904 73.0544 56.5598 73.1438 56.2292C73.3227 55.5563 73.5405 54.8951 73.7856 54.2456C74.2912 52.9155 74.9523 51.6631 75.7108 50.4652C76.1308 49.8001 76.5742 49.1389 77.0798 48.5322C77.0954 48.5167 77.107 48.5517 77.0993 48.5633C76.7142 49.1234 76.3253 49.6796 75.9752 50.2668C75.6174 50.8736 75.2946 51.5075 74.999 52.1454C74.4273 53.3783 73.9489 54.654 73.5755 55.9608C73.4705 56.3303 73.3811 56.7076 73.2722 57.0771C73.1594 57.4621 73.0155 57.8394 72.9182 58.2283C72.9027 58.2866 72.8327 58.3061 72.8404 58.2322C72.8754 57.8977 72.8871 57.5632 72.9299 57.2287Z" fill="black"/>
<path d="M71.5811 53.8295C72.5262 53.6156 72.5728 52.4799 71.3905 51.0914C70.212 49.699 67.2406 49.0923 67.0967 49.6796C66.4355 49.6796 66.4355 51.7487 67.8979 53.6506C69.3603 55.5525 71.4916 55.1091 71.5811 53.8295Z" fill="#1A90CD"/>
<path opacity="0.25" d="M71.5811 53.8295C72.5262 53.6156 72.5728 52.4799 71.3905 51.0914C70.212 49.699 67.2406 49.0923 67.0967 49.6796C66.4355 49.6796 66.4355 51.7487 67.8979 53.6506C69.3603 55.5525 71.4916 55.1091 71.5811 53.8295Z" fill="white"/>
<path d="M69.7289 51.807C70.3473 52.2504 70.8957 52.7521 71.3624 53.3588C71.8252 53.9578 72.1908 54.6229 72.4592 55.3346C72.4903 55.4163 72.3503 55.533 72.3153 55.4474C71.7902 54.0589 70.8762 52.7677 69.7211 51.8303C69.7172 51.8187 69.7172 51.7992 69.7289 51.807Z" fill="#1A90CD"/>
<path opacity="0.3" d="M69.7289 51.807C70.3473 52.2504 70.8957 52.7521 71.3624 53.3588C71.8252 53.9578 72.1908 54.6229 72.4592 55.3346C72.4903 55.4163 72.3503 55.533 72.3153 55.4474C71.7902 54.0589 70.8762 52.7677 69.7211 51.8303C69.7172 51.8187 69.7172 51.7992 69.7289 51.807Z" fill="black"/>
<path d="M70.5034 60.7331C71.8102 61.262 71.2501 62.8177 69.9744 64.0001C68.6987 65.1824 66.8746 65.4936 65.9956 65.4314C65.1166 65.3691 64.8949 65.2486 64.8949 65.2486C64.8949 65.2486 64.7549 63.9029 64.9027 63.0861C65.1089 61.9349 65.949 60.3169 67.9831 59.7685C70.0133 59.2201 70.5034 59.9552 70.5034 60.7331Z" fill="#1A90CD"/>
<path opacity="0.45" d="M70.5034 60.7331C71.8102 61.262 71.2501 62.8177 69.9744 64.0001C68.6987 65.1824 66.8746 65.4936 65.9956 65.4314C65.1166 65.3691 64.8949 65.2486 64.8949 65.2486C64.8949 65.2486 64.7549 63.9029 64.9027 63.0861C65.1089 61.9349 65.949 60.3169 67.9831 59.7685C70.0133 59.2201 70.5034 59.9552 70.5034 60.7331Z" fill="white"/>
<path d="M66.8819 63.0316C67.4886 62.3549 68.1187 61.682 68.8849 61.1803C69.6277 60.6902 70.6234 60.2741 71.5141 60.5775C71.8602 60.6941 72.3969 61.0403 72.3347 61.4681C72.3269 61.5109 72.253 61.6159 72.2025 61.5576C72.043 61.3748 71.9263 61.1609 71.7319 61.0092C71.5296 60.8536 71.2846 60.7719 71.0318 60.7447C70.4095 60.6708 69.7483 60.873 69.1999 61.1609C68.317 61.6276 67.6014 62.3549 66.8974 63.055C66.8858 63.0627 66.878 63.0394 66.8819 63.0316Z" fill="#1A90CD"/>
<path opacity="0.3" d="M66.8819 63.0316C67.4886 62.3549 68.1187 61.682 68.8849 61.1803C69.6277 60.6902 70.6234 60.2741 71.5141 60.5775C71.8602 60.6941 72.3969 61.0403 72.3347 61.4681C72.3269 61.5109 72.253 61.6159 72.2025 61.5576C72.043 61.3748 71.9263 61.1609 71.7319 61.0092C71.5296 60.8536 71.2846 60.7719 71.0318 60.7447C70.4095 60.6708 69.7483 60.873 69.1999 61.1609C68.317 61.6276 67.6014 62.3549 66.8974 63.055C66.8858 63.0627 66.878 63.0394 66.8819 63.0316Z" fill="black"/>
<path d="M75.4773 54.0395C75.3528 53.4445 76.2123 52.0171 78.8921 51.7448C81.5718 51.4726 83.5787 52.6083 83.9832 53.1294C84.3877 53.6467 84.5938 54.1951 84.1077 54.3312C83.6215 54.4674 81.9491 54.6307 80.8484 55.1363C79.7477 55.6419 77.5153 57.1393 75.9907 56.6921C74.466 56.2487 74.7188 54.6307 75.4773 54.0395Z" fill="#1A90CD"/>
<path opacity="0.45" d="M75.4773 54.0395C75.3528 53.4445 76.2123 52.0171 78.8921 51.7448C81.5718 51.4726 83.5787 52.6083 83.9832 53.1294C84.3877 53.6467 84.5938 54.1951 84.1077 54.3312C83.6215 54.4674 81.9491 54.6307 80.8484 55.1363C79.7477 55.6419 77.5153 57.1393 75.9907 56.6921C74.466 56.2487 74.7188 54.6307 75.4773 54.0395Z" fill="white"/>
<path d="M73.4394 56.1164C74.5712 53.7828 77.4843 53.0711 79.8646 53.0828C80.6541 53.0866 81.4242 53.1878 82.1865 53.3861C82.1982 53.39 82.1982 53.4133 82.1865 53.4133C80.9108 53.2111 79.5846 53.1644 78.3089 53.3745C77.0448 53.5806 75.8041 53.9734 74.7657 54.7396C74.2562 55.1169 73.8206 55.6147 73.4978 56.1631C73.4628 56.2176 73.42 56.1631 73.4394 56.1164Z" fill="#1A90CD"/>
<path opacity="0.3" d="M73.4394 56.1164C74.5712 53.7828 77.4843 53.0711 79.8646 53.0828C80.6541 53.0866 81.4242 53.1878 82.1865 53.3861C82.1982 53.39 82.1982 53.4133 82.1865 53.4133C80.9108 53.2111 79.5846 53.1644 78.3089 53.3745C77.0448 53.5806 75.8041 53.9734 74.7657 54.7396C74.2562 55.1169 73.8206 55.6147 73.4978 56.1631C73.4628 56.2176 73.42 56.1631 73.4394 56.1164Z" fill="black"/>
<path d="M69.2353 50.9125C69.2703 51.8498 67.9518 52.3943 66.6722 51.5853C65.3965 50.7764 64.0586 49.9868 62.8763 49.6796C61.6939 49.3723 61.1338 48.4078 61.5072 47.941C61.8806 47.4743 62.4757 46.2959 65.5832 46.6809C68.6947 47.0659 69.7954 48.4661 70.2193 49.4579C70.6471 50.4458 69.702 51.1847 69.2353 50.9125Z" fill="#1A90CD"/>
<path opacity="0.45" d="M69.2353 50.9125C69.2703 51.8498 67.9518 52.3943 66.6722 51.5853C65.3965 50.7764 64.0586 49.9868 62.8763 49.6796C61.6939 49.3723 61.1338 48.4078 61.5072 47.941C61.8806 47.4743 62.4757 46.2959 65.5832 46.6809C68.6947 47.0659 69.7954 48.4661 70.2193 49.4579C70.6471 50.4458 69.702 51.1847 69.2353 50.9125Z" fill="white"/>
<path d="M64.1753 47.9372C64.6148 47.8672 65.0815 47.9683 65.5093 48.0772C65.9021 48.1783 66.2833 48.3144 66.6528 48.4856C67.384 48.8239 68.049 49.3062 68.5974 49.8935C68.753 50.0608 68.9047 50.2358 69.0369 50.4225C69.1575 50.5897 69.3014 50.7725 69.3675 50.967C69.387 51.0292 69.2975 51.1303 69.2431 51.0681C69.0875 50.8892 68.9747 50.6753 68.8308 50.4847C68.6752 50.2824 68.508 50.0919 68.3291 49.913C67.9713 49.5512 67.5668 49.2362 67.1312 48.9679C66.7072 48.7112 66.2677 48.4895 65.8049 48.3222C65.5521 48.2289 65.2915 48.155 65.0309 48.0889C64.7509 48.0189 64.4747 47.9488 64.1869 47.9722C64.1675 47.9722 64.1597 47.9411 64.1753 47.9372Z" fill="#1A90CD"/>
<path opacity="0.3" d="M64.1753 47.9372C64.6148 47.8672 65.0815 47.9683 65.5093 48.0772C65.9021 48.1783 66.2833 48.3144 66.6528 48.4856C67.384 48.8239 68.049 49.3062 68.5974 49.8935C68.753 50.0608 68.9047 50.2358 69.0369 50.4225C69.1575 50.5897 69.3014 50.7725 69.3675 50.967C69.387 51.0292 69.2975 51.1303 69.2431 51.0681C69.0875 50.8892 68.9747 50.6753 68.8308 50.4847C68.6752 50.2824 68.508 50.0919 68.3291 49.913C67.9713 49.5512 67.5668 49.2362 67.1312 48.9679C66.7072 48.7112 66.2677 48.4895 65.8049 48.3222C65.5521 48.2289 65.2915 48.155 65.0309 48.0889C64.7509 48.0189 64.4747 47.9488 64.1869 47.9722C64.1675 47.9722 64.1597 47.9411 64.1753 47.9372Z" fill="black"/>
<path d="M71.4675 55.9725C71.9031 55.5369 73.0855 55.638 73.6455 56.9254C74.2056 58.2127 73.031 59.6207 72.8988 60.0174C72.3582 59.7063 71.9381 59.8929 70.9852 59.7062C70.0324 59.5196 69.0989 58.5161 69.1612 57.3376C69.2273 56.1592 69.7251 55.3813 71.4675 55.9725Z" fill="#1A90CD"/>
<path opacity="0.45" d="M71.4675 55.9725C71.9031 55.5369 73.0855 55.638 73.6455 56.9254C74.2056 58.2127 73.031 59.6207 72.8988 60.0174C72.3582 59.7063 71.9381 59.8929 70.9852 59.7062C70.0324 59.5196 69.0989 58.5161 69.1612 57.3376C69.2273 56.1592 69.7251 55.3813 71.4675 55.9725Z" fill="white"/>
<path d="M71.4837 55.8403C71.7171 55.9531 71.9154 56.2292 72.0593 56.4392C72.2149 56.6609 72.3393 56.906 72.4327 57.1627C72.6233 57.6799 72.7049 58.2555 72.596 58.8039C72.5922 58.8234 72.5766 58.8039 72.5766 58.7923C72.6116 58.2361 72.5338 57.6799 72.3005 57.1704C72.1954 56.9371 72.0632 56.7193 71.9076 56.5209C71.826 56.4159 71.7404 56.3109 71.6432 56.2175C71.5615 56.1359 71.4526 56.0659 71.3942 55.9686C71.367 55.9142 71.4176 55.8092 71.4837 55.8403Z" fill="#1A90CD"/>
<path opacity="0.3" d="M71.4837 55.8403C71.7171 55.9531 71.9154 56.2292 72.0593 56.4392C72.2149 56.6609 72.3393 56.906 72.4327 57.1627C72.6233 57.6799 72.7049 58.2555 72.596 58.8039C72.5922 58.8234 72.5766 58.8039 72.5766 58.7923C72.6116 58.2361 72.5338 57.6799 72.3005 57.1704C72.1954 56.9371 72.0632 56.7193 71.9076 56.5209C71.826 56.4159 71.7404 56.3109 71.6432 56.2175C71.5615 56.1359 71.4526 56.0659 71.3942 55.9686C71.367 55.9142 71.4176 55.8092 71.4837 55.8403Z" fill="black"/>
<path d="M73.5177 58.5822C73.5566 57.6216 74.5951 56.8632 76.073 56.4237C77.5509 55.9842 79.1495 56.3536 80.2268 57.5282C81.3041 58.7028 81.8642 59.6985 81.4247 59.9785C80.9852 60.2585 79.0289 60.9781 77.7493 61.3748C76.4697 61.7754 74.7934 61.8959 73.5138 61.1336C72.2381 60.3791 72.3198 59.0606 73.5177 58.5822Z" fill="#1A90CD"/>
<path opacity="0.25" d="M73.5177 58.5822C73.5566 57.6216 74.5951 56.8632 76.073 56.4237C77.5509 55.9842 79.1495 56.3536 80.2268 57.5282C81.3041 58.7028 81.8642 59.6985 81.4247 59.9785C80.9852 60.2585 79.0289 60.9781 77.7493 61.3748C76.4697 61.7754 74.7934 61.8959 73.5138 61.1336C72.2381 60.3791 72.3198 59.0606 73.5177 58.5822Z" fill="white"/>
<path d="M73.4355 58.4733C73.9099 58.1972 74.5011 58.1 75.0417 58.0455C75.5785 57.9911 76.1152 58.0027 76.6519 58.0649C77.2159 58.1311 77.7721 58.2555 78.3166 58.415C78.6005 58.5005 78.8844 58.5939 79.1605 58.695C79.4211 58.7922 79.6895 58.8817 79.9345 59.0139C79.9423 59.0178 79.9501 59.0528 79.9345 59.0489C79.6623 58.9906 79.3978 58.8856 79.1333 58.8039C78.8494 58.7145 78.5616 58.6328 78.2738 58.555C77.7332 58.415 77.1887 58.3022 76.6325 58.2439C76.0802 58.1855 75.5162 58.1816 74.964 58.2477C74.4428 58.3139 73.9527 58.4733 73.451 58.6172C73.346 58.6522 73.3771 58.5083 73.4355 58.4733Z" fill="#1A90CD"/>
<path opacity="0.3" d="M73.4355 58.4733C73.9099 58.1972 74.5011 58.1 75.0417 58.0455C75.5785 57.9911 76.1152 58.0027 76.6519 58.0649C77.2159 58.1311 77.7721 58.2555 78.3166 58.415C78.6005 58.5005 78.8844 58.5939 79.1605 58.695C79.4211 58.7922 79.6895 58.8817 79.9345 59.0139C79.9423 59.0178 79.9501 59.0528 79.9345 59.0489C79.6623 58.9906 79.3978 58.8856 79.1333 58.8039C78.8494 58.7145 78.5616 58.6328 78.2738 58.555C77.7332 58.415 77.1887 58.3022 76.6325 58.2439C76.0802 58.1855 75.5162 58.1816 74.964 58.2477C74.4428 58.3139 73.9527 58.4733 73.451 58.6172C73.346 58.6522 73.3771 58.5083 73.4355 58.4733Z" fill="black"/>
<path d="M70.4682 57.1548C71.5261 56.3148 71.1722 54.304 67.4735 54.1951C63.7747 54.0862 61.1339 55.0507 61.2505 56.2409C60.6555 56.8359 60.9588 58.5045 63.9497 59.0217C66.9445 59.5429 71.2305 59.2823 70.4682 57.1548Z" fill="#1A90CD"/>
<path opacity="0.25" d="M70.4682 57.1548C71.5261 56.3148 71.1722 54.304 67.4735 54.1951C63.7747 54.0862 61.1339 55.0507 61.2505 56.2409C60.6555 56.8359 60.9588 58.5045 63.9497 59.0217C66.9445 59.5429 71.2305 59.2823 70.4682 57.1548Z" fill="white"/>
<path d="M62.993 56.2525C64.0742 56.0542 65.1982 56.0308 66.295 56.058C67.3101 56.0853 68.3603 56.1358 69.3443 56.4081C69.6009 56.4781 69.8499 56.5714 70.0871 56.6842C70.196 56.7387 70.3049 56.7931 70.4099 56.8592C70.4955 56.9098 70.5888 56.9565 70.6161 57.0537C70.6355 57.1121 70.5655 57.186 70.5072 57.1704C70.2816 57.116 70.0716 56.9448 69.8615 56.8515C69.6554 56.7581 69.4376 56.6842 69.2198 56.6181C68.7997 56.4937 68.368 56.4198 67.9363 56.3653C66.9056 56.237 65.8555 56.1786 64.8171 56.1942C64.2103 56.202 63.6036 56.2486 62.9969 56.2953C62.9813 56.2953 62.9735 56.2564 62.993 56.2525Z" fill="#1A90CD"/>
<path opacity="0.3" d="M62.993 56.2525C64.0742 56.0542 65.1982 56.0308 66.295 56.058C67.3101 56.0853 68.3603 56.1358 69.3443 56.4081C69.6009 56.4781 69.8499 56.5714 70.0871 56.6842C70.196 56.7387 70.3049 56.7931 70.4099 56.8592C70.4955 56.9098 70.5888 56.9565 70.6161 57.0537C70.6355 57.1121 70.5655 57.186 70.5072 57.1704C70.2816 57.116 70.0716 56.9448 69.8615 56.8515C69.6554 56.7581 69.4376 56.6842 69.2198 56.6181C68.7997 56.4937 68.368 56.4198 67.9363 56.3653C66.9056 56.237 65.8555 56.1786 64.8171 56.1942C64.2103 56.202 63.6036 56.2486 62.9969 56.2953C62.9813 56.2953 62.9735 56.2564 62.993 56.2525Z" fill="black"/>
<path d="M54.2213 4.74486C53.8139 4.51199 53.2537 4.54489 52.635 4.89926L52.4593 5.00304L44.1764 9.75663C44.1585 9.76675 44.1382 9.77941 44.1204 9.79207C43.8428 9.98697 43.6264 10.3844 43.6264 10.7109C43.6264 11.0602 43.359 11.4956 43.0357 11.6803L33.1665 17.3452C33.1588 17.3502 33.1512 17.3528 33.1435 17.3553C33.1384 17.1908 33.0773 17.0769 32.9831 17.0212C32.8838 16.963 32.5146 16.7503 32.4128 16.6946C32.3135 16.639 32.176 16.6466 32.0232 16.7351C31.7176 16.9073 31.4707 17.0515 31.4707 17.0515L23.0019 21.9114C22.8797 21.9823 22.7574 22.0659 22.6403 22.157C22.5843 22.2051 22.5283 22.2582 22.4723 22.3088C21.7466 22.9821 21.2246 24.0604 21.2246 24.9742V99.3712C21.2246 99.9331 21.4232 100.328 21.744 100.513C21.8408 100.568 22.2227 100.786 22.3195 100.842C22.6403 101.027 23.0834 100.999 23.5748 100.715L53.6815 83.4348C54.6618 82.8754 55.4613 81.4959 55.4613 80.3695V6.5167C55.4613 5.80796 55.2092 5.30931 54.8018 5.07391C54.7025 5.01822 54.318 4.79801 54.2213 4.74486Z" fill="#1A90CD"/>
<path opacity="0.3" d="M23.7409 100.472V100.619L23.5703 100.715C23.0814 100.999 22.6384 101.024 22.315 100.842C22.2208 100.786 21.8363 100.566 21.7421 100.513C21.4213 100.328 21.2227 99.9331 21.2227 99.3687V24.9716C21.2227 24.3591 21.4595 23.6731 21.8363 23.0834L22.5136 23.4732C22.1444 24.0503 21.9178 24.7236 21.9178 25.3007V99.6977C21.9178 100.055 22.0018 100.351 22.1622 100.551C22.3124 100.735 22.5238 100.837 22.7733 100.837C22.9948 100.837 23.2495 100.758 23.5066 100.609L23.7409 100.472Z" fill="black"/>
<path opacity="0.3" d="M44.5266 10.4627C44.3992 10.6399 44.3203 10.8525 44.3203 11.0348C44.3203 11.2474 44.2363 11.4853 44.1013 11.6929L43.4189 11.3006C43.5437 11.1158 43.6252 10.8981 43.6252 10.7083C43.6252 10.5032 43.7118 10.2678 43.8467 10.0704L44.5266 10.4627Z" fill="black"/>
<path d="M22.7764 100.834C22.5269 100.834 22.3156 100.736 22.1653 100.551C22.0049 100.351 21.9209 100.055 21.9209 99.6977V25.2982C21.9209 24.4427 22.4174 23.3846 23.1278 22.724L23.1813 22.6759C23.2169 22.643 23.2551 22.6101 23.2908 22.5772C23.4028 22.4886 23.5199 22.4101 23.632 22.3443L32.1007 17.4844C32.1007 17.4844 32.3477 17.3401 32.6533 17.168C32.7195 17.13 32.7831 17.1098 32.8392 17.1098C32.9996 17.1098 33.0174 17.2971 33.0174 17.3755C33.0174 17.6793 33.1931 17.8818 33.4553 17.8818C33.5648 17.8818 33.6794 17.8463 33.7965 17.778L43.6657 12.1157C44.0324 11.9031 44.3201 11.4298 44.3201 11.0349C44.3201 10.7514 44.5136 10.392 44.7606 10.2198C44.7759 10.2072 44.7912 10.1996 44.8065 10.192L53.0919 5.4384L53.2701 5.33463C53.5961 5.14732 53.922 5.0486 54.2072 5.0486C54.8997 5.0486 55.3301 5.61306 55.3301 6.51923V80.372C55.3301 81.463 54.5611 82.7868 53.6139 83.3285L23.5072 100.609C23.2526 100.756 22.998 100.834 22.7764 100.834Z" fill="#FAFAFA"/>
<path d="M54.2066 5.04868C53.9188 5.04868 53.5955 5.14739 53.2696 5.3347L53.0913 5.43848L44.8084 10.1921C44.7931 10.1997 44.7779 10.2098 44.7626 10.2199C44.5156 10.392 44.3221 10.7515 44.3221 11.035C44.3221 11.4298 44.0344 11.9032 43.6677 12.1158L33.7985 17.7781C33.6814 17.8464 33.5668 17.8819 33.4573 17.8819C33.195 17.8819 33.0193 17.6794 33.0193 17.3756C33.0193 17.2946 33.0015 17.1098 32.8411 17.1098C32.7876 17.1098 32.724 17.1301 32.6552 17.1681C32.3522 17.3402 32.1052 17.4845 32.1027 17.4845L23.6339 22.3444C23.5193 22.4102 23.4022 22.4886 23.2927 22.5772C23.2545 22.6101 23.2189 22.643 23.1832 22.6759L23.1298 22.724C22.4194 23.3847 21.9229 24.4427 21.9229 25.2983V29.7532L55.3345 10.5718V6.5193C55.332 5.6106 54.9017 5.04868 54.2066 5.04868Z" fill="#1A90CD"/>
<g opacity="0.3">
<path d="M54.2066 5.04868C53.9188 5.04868 53.5955 5.14739 53.2696 5.3347L53.0913 5.43848L44.8084 10.1921C44.7931 10.1997 44.7779 10.2098 44.7626 10.2199C44.5156 10.392 44.3221 10.7515 44.3221 11.035C44.3221 11.4298 44.0344 11.9032 43.6677 12.1158L33.7985 17.7781C33.6814 17.8464 33.5668 17.8819 33.4573 17.8819C33.195 17.8819 33.0193 17.6794 33.0193 17.3756C33.0193 17.2946 33.0015 17.1098 32.8411 17.1098C32.7876 17.1098 32.724 17.1301 32.6552 17.1681C32.3522 17.3402 32.1052 17.4845 32.1027 17.4845L23.6339 22.3444C23.5193 22.4102 23.4022 22.4886 23.2927 22.5772C23.2545 22.6101 23.2189 22.643 23.1832 22.6759L23.1298 22.724C22.4194 23.3847 21.9229 24.4427 21.9229 25.2983V29.7532L55.3345 10.5718V6.5193C55.332 5.6106 54.9017 5.04868 54.2066 5.04868Z" fill="white"/>
</g>
<path d="M24.3283 25.3237C24.3283 25.3389 24.3232 25.3566 24.3155 25.3718C24.3079 25.3895 24.2952 25.3996 24.285 25.4072L24.2162 25.4452C24.2035 25.4528 24.1933 25.4528 24.1857 25.4452C24.1755 25.4401 24.173 25.4275 24.173 25.4123V24.2049L23.9056 24.6276C23.8954 24.6453 23.8852 24.6555 23.8725 24.6605C23.8598 24.6656 23.8496 24.663 23.8419 24.6555L23.8012 24.6099C23.7936 24.6023 23.791 24.5871 23.791 24.5719C23.7936 24.5542 23.7987 24.539 23.8088 24.5238L24.1628 23.9619C24.173 23.9467 24.1806 23.9366 24.1882 23.9315C24.1959 23.9239 24.2061 23.9189 24.2137 23.9138L24.2824 23.8758C24.2952 23.8682 24.3054 23.8682 24.313 23.8758C24.3206 23.8834 24.3257 23.8936 24.3257 23.9087V25.3237H24.3283Z" fill="#FAFAFA"/>
<path d="M25.0246 24.9238C25.0246 24.939 25.0195 24.9567 25.0118 24.9719C25.0042 24.9896 24.9915 24.9998 24.9813 25.0073L24.9125 25.0453C24.8998 25.0529 24.8896 25.0529 24.882 25.0453C24.8718 25.0403 24.8692 25.0276 24.8692 25.0124V23.805L24.6019 24.2277C24.5917 24.2455 24.5815 24.2556 24.5688 24.2606C24.5561 24.2657 24.5459 24.2632 24.5382 24.2556L24.4975 24.21C24.4899 24.2024 24.4873 24.1898 24.4873 24.172C24.4899 24.1543 24.4949 24.1391 24.5051 24.1214L24.8591 23.5595C24.8692 23.5468 24.8769 23.5342 24.8845 23.5291C24.8922 23.5241 24.9023 23.5165 24.91 23.5114L24.9787 23.4734C24.9915 23.4658 25.0016 23.4658 25.0093 23.4734C25.0169 23.481 25.022 23.4912 25.022 23.5063V24.9238H25.0246Z" fill="#FAFAFA"/>
<path d="M25.4155 23.7291C25.4282 23.7215 25.4384 23.7215 25.446 23.7291C25.4537 23.7367 25.4588 23.7468 25.4588 23.762V23.9088C25.4588 23.924 25.4537 23.9417 25.446 23.9569C25.4384 23.9746 25.4257 23.9847 25.4155 23.9923L25.306 24.0556C25.2932 24.0632 25.2831 24.0632 25.2754 24.0556C25.2678 24.048 25.2627 24.0379 25.2627 24.0202V23.8733C25.2627 23.8582 25.2678 23.8404 25.2754 23.8253C25.2831 23.8075 25.2958 23.7974 25.306 23.7898L25.4155 23.7291ZM25.4155 24.496C25.4282 24.4884 25.4384 24.4884 25.446 24.496C25.4537 24.5036 25.4588 24.5137 25.4588 24.5289V24.6757C25.4588 24.6909 25.4537 24.7086 25.446 24.7238C25.4384 24.7416 25.4257 24.7517 25.4155 24.7593L25.306 24.8225C25.2932 24.8301 25.2831 24.8301 25.2754 24.8225C25.2678 24.815 25.2627 24.8048 25.2627 24.7896V24.6428C25.2627 24.6276 25.2678 24.6099 25.2754 24.5947C25.2831 24.577 25.2958 24.5669 25.306 24.5593L25.4155 24.496Z" fill="#FAFAFA"/>
<path d="M25.7983 24.1415C25.8136 24.2023 25.8441 24.2377 25.8925 24.2504C25.9409 24.263 25.9969 24.2504 26.0605 24.2149C26.0962 24.1947 26.1318 24.1669 26.1624 24.1365C26.1955 24.1061 26.221 24.0707 26.2464 24.0302C26.2693 23.9897 26.2897 23.9466 26.3024 23.8985C26.3152 23.8505 26.3228 23.7998 26.3228 23.7467C26.3228 23.6935 26.3152 23.6505 26.3024 23.6201C26.2897 23.5872 26.2693 23.5644 26.2464 23.5518C26.2235 23.5391 26.1955 23.5341 26.1624 23.5416C26.1293 23.5467 26.0962 23.5594 26.0605 23.5796C26.0198 23.6049 25.9867 23.6302 25.9612 23.6556C25.9358 23.6834 25.9154 23.7062 25.9001 23.729C25.8849 23.7517 25.8696 23.772 25.8568 23.7922C25.8441 23.8125 25.8288 23.8251 25.8136 23.8353L25.7295 23.8834C25.7193 23.8884 25.7117 23.8884 25.7041 23.8834C25.6964 23.8783 25.6939 23.8682 25.6939 23.8555L25.7448 23.0962C25.7448 23.081 25.7499 23.0633 25.7575 23.0481C25.7652 23.0303 25.7779 23.0202 25.7881 23.0126L26.3712 22.6785C26.3839 22.6709 26.3941 22.6709 26.4017 22.6785C26.4094 22.6861 26.4145 22.6962 26.4145 22.7114V22.7899C26.4145 22.8051 26.4094 22.8228 26.4017 22.838C26.3941 22.8557 26.3814 22.8658 26.3712 22.8734L25.8899 23.1493L25.8645 23.5442C25.8823 23.5214 25.9078 23.4961 25.9409 23.4657C25.974 23.4353 26.0147 23.4075 26.0631 23.3797C26.1217 23.3467 26.1751 23.3265 26.226 23.3214C26.277 23.3164 26.3228 23.324 26.361 23.3467C26.3992 23.3695 26.4297 23.405 26.4501 23.4556C26.473 23.5062 26.4832 23.572 26.4832 23.653C26.4832 23.734 26.473 23.8125 26.4501 23.8884C26.4272 23.9644 26.3992 24.0352 26.361 24.1036C26.3228 24.1694 26.2795 24.2301 26.226 24.2833C26.1751 24.3364 26.1217 24.3795 26.0631 24.4124C26.0071 24.4428 25.9561 24.463 25.9052 24.4731C25.8543 24.4807 25.811 24.4782 25.7728 24.463C25.7346 24.4478 25.7041 24.42 25.6812 24.382C25.6582 24.344 25.6455 24.2934 25.6455 24.2327C25.6455 24.22 25.6481 24.2048 25.6557 24.1922C25.6633 24.1795 25.671 24.1694 25.6812 24.1618L25.7575 24.1188C25.7652 24.1137 25.7754 24.1137 25.783 24.1162C25.7906 24.1188 25.7957 24.1264 25.7983 24.1415Z" fill="#FAFAFA"/>
<path d="M26.7774 23.6075C26.7825 23.6277 26.7901 23.6454 26.8003 23.6632C26.8105 23.6809 26.8258 23.6935 26.8461 23.7011C26.8665 23.7087 26.892 23.7087 26.9251 23.7011C26.9582 23.6935 26.9989 23.6758 27.0524 23.6454C27.0855 23.6252 27.1186 23.6024 27.1491 23.572C27.1797 23.5442 27.2077 23.5113 27.2306 23.4733C27.2535 23.4379 27.2714 23.3974 27.2866 23.3544C27.2994 23.3113 27.307 23.2658 27.307 23.2177C27.307 23.1721 27.2994 23.1341 27.2866 23.1088C27.2739 23.0835 27.2561 23.0683 27.2332 23.0607C27.2103 23.0531 27.1848 23.0557 27.1517 23.0633C27.1211 23.0709 27.088 23.086 27.0498 23.1088L26.9123 23.1873C26.8996 23.1949 26.8894 23.1949 26.8818 23.1873C26.8741 23.1797 26.8691 23.1696 26.8691 23.1519V23.0734C26.8691 23.0607 26.8716 23.0455 26.8767 23.0329C26.8818 23.0177 26.8894 23.0051 26.8945 22.9924L27.1924 22.3976L26.7163 22.6709C26.7036 22.6785 26.6934 22.6785 26.6857 22.6709C26.6781 22.6633 26.673 22.6532 26.673 22.638V22.5596C26.673 22.5444 26.6781 22.5267 26.6857 22.5115C26.6934 22.4937 26.7061 22.4836 26.7163 22.476L27.3681 22.1014C27.3809 22.0938 27.391 22.0938 27.3987 22.1014C27.4063 22.109 27.4114 22.1191 27.4114 22.1343V22.2128C27.4114 22.2254 27.4089 22.2406 27.4038 22.2558C27.3987 22.271 27.391 22.2887 27.3834 22.3039L27.0906 22.8911C27.1466 22.8608 27.195 22.8431 27.2408 22.838C27.2866 22.8329 27.3248 22.8405 27.3579 22.8608C27.391 22.881 27.4165 22.9139 27.4343 22.957C27.4521 23 27.4623 23.0582 27.4623 23.1266C27.4623 23.2 27.4521 23.2734 27.4292 23.3468C27.4063 23.4176 27.3783 23.486 27.3401 23.5467C27.3045 23.6075 27.2586 23.6632 27.2102 23.7138C27.1593 23.7644 27.1059 23.8049 27.0498 23.8378C26.976 23.8808 26.9123 23.9062 26.8589 23.9138C26.8054 23.9213 26.7621 23.9163 26.7265 23.8986C26.6934 23.8808 26.6654 23.8555 26.6501 23.8176C26.6323 23.7821 26.6246 23.7391 26.6221 23.691C26.6221 23.6784 26.6246 23.6657 26.6323 23.6505C26.6399 23.6379 26.6475 23.6277 26.6577 23.6227L26.7341 23.5796C26.7468 23.572 26.757 23.572 26.7621 23.5771C26.7698 23.5898 26.7748 23.5974 26.7774 23.6075Z" fill="#FAFAFA"/>
<path d="M29.357 21.0258L28.8477 22.7546V22.0028L28.2799 22.3293L29.357 21.0258ZM29.357 20.8992C29.3544 20.8992 29.3519 20.8992 29.3493 20.8992C29.3264 20.9017 29.306 20.9068 29.2882 20.9195C29.278 20.9245 29.2704 20.9346 29.2602 20.9422C29.2576 20.9448 29.2577 20.9448 29.2551 20.9473L28.178 22.2483C28.1373 22.2964 28.1399 22.3648 28.178 22.4129C28.2035 22.4432 28.2392 22.4584 28.2773 22.4584C28.3003 22.4584 28.3206 22.4534 28.341 22.4407L28.7153 22.2256V22.7546C28.7153 22.8179 28.7637 22.8735 28.8273 22.8811C28.8324 22.8811 28.8401 22.8837 28.8452 22.8837C28.9012 22.8837 28.9521 22.8457 28.9699 22.79L29.4766 21.0739C29.4817 21.0587 29.4868 21.0435 29.4868 21.0258C29.4868 20.9549 29.4282 20.8992 29.357 20.8992Z" fill="#FAFAFA"/>
<path d="M47.0334 12.3361L46.7559 12.4955V11.9564L47.0334 11.7969V12.3361Z" fill="#FAFAFA"/>
<path d="M47.4703 12.0831L47.1953 12.2425V11.4731L47.4703 11.3136V12.0831Z" fill="#FAFAFA"/>
<path d="M47.9113 11.8324L47.6338 11.9918V10.9287L47.9113 10.7718V11.8324Z" fill="#FAFAFA"/>
<path d="M48.3498 11.5793L48.0723 11.7388V10.3947L48.3498 10.2378V11.5793Z" fill="#1A90CD"/>
<path d="M50.2773 9.09362C49.9921 9.25815 49.7324 9.55683 49.5439 9.90867L49.7273 10.0529C49.8699 9.78464 50.0634 9.56443 50.2773 9.4404C50.4937 9.31637 50.6872 9.3189 50.8298 9.42015L51.0131 9.06578C50.8222 8.93416 50.5624 8.93163 50.2773 9.09362ZM49.8011 10.1112L49.9692 10.2428C50.0506 10.0909 50.1601 9.96436 50.2798 9.89601C50.402 9.82514 50.5141 9.82514 50.593 9.88589L50.761 9.55936C50.6363 9.46824 50.4682 9.46824 50.2798 9.57455C50.0914 9.68339 49.9233 9.8783 49.8011 10.1112ZM50.0456 10.3061L50.2773 10.4908L50.5115 10.0352C50.4504 9.9922 50.3689 9.9922 50.2773 10.0454C50.1856 10.0985 50.1041 10.1922 50.0456 10.3061Z" fill="#FAFAFA"/>
<path d="M53.6168 7.21296C53.7161 7.15727 53.795 7.21549 53.795 7.34711V8.21531C53.795 8.34694 53.7135 8.49881 53.6168 8.55702L52.061 9.45054C51.9617 9.50622 51.8802 9.44801 51.8802 9.31638V8.44818C51.8802 8.31656 51.9617 8.16469 52.061 8.10647L53.6168 7.21296ZM53.6168 7.13955L52.061 8.03307C51.9312 8.10647 51.8242 8.30897 51.8242 8.48109V9.34929C51.8242 9.52141 51.9312 9.59988 52.061 9.52647L53.6168 8.63296C53.7466 8.55956 53.8536 8.35706 53.8536 8.18494V7.31674C53.8536 7.14462 53.7466 7.06362 53.6168 7.13955Z" fill="#1A90CD"/>
<path d="M52.9878 8.70141L52.1119 9.20511C52.0712 9.2279 52.0381 9.20258 52.0381 9.14943V8.43057C52.0381 8.37741 52.0712 8.31413 52.1119 8.29135L52.9878 7.78764C53.0286 7.76486 53.0617 7.79017 53.0617 7.84333V8.56219C53.0591 8.61788 53.026 8.67863 52.9878 8.70141Z" fill="#FAFAFA"/>
<path d="M54.0197 7.88887L53.9561 7.92431V7.45604C53.9561 7.45604 53.9841 7.44085 54.0197 7.4206C54.0554 7.40035 54.0834 7.48894 54.0834 7.61803C54.0834 7.74712 54.0554 7.86862 54.0197 7.88887Z" fill="#1A90CD"/>
<path d="M54.2059 5.17262C54.8298 5.17262 55.2041 5.67633 55.2041 6.51669V80.3695C55.2041 81.4022 54.4478 82.7058 53.5516 83.2171L23.4423 100.498C23.2055 100.634 22.9738 100.708 22.7727 100.708C22.3169 100.708 22.0445 100.331 22.0445 99.6952V25.2982C22.0445 24.4756 22.5257 23.4529 23.2081 22.8201L23.2666 22.767C23.3023 22.7341 23.3354 22.7037 23.3659 22.6784C23.4754 22.5923 23.5875 22.5164 23.697 22.4531L32.1657 17.5907C32.1657 17.5907 32.4127 17.4489 32.7183 17.2743C32.7845 17.2363 32.8252 17.2338 32.8379 17.2338C32.8889 17.2338 32.8889 17.3603 32.8889 17.373C32.8889 17.7451 33.1206 18.0058 33.4541 18.0058C33.5865 18.0058 33.7215 17.9653 33.859 17.8868L43.7282 12.222C44.1305 11.9917 44.4437 11.4677 44.4437 11.0349C44.4437 10.7919 44.6168 10.4704 44.8333 10.3211C44.846 10.3135 44.8562 10.3059 44.8689 10.2983L53.1543 5.54471L53.33 5.44346C53.6407 5.26628 53.9411 5.17262 54.2059 5.17262ZM54.2059 4.92204C53.9029 4.92204 53.5643 5.02075 53.2053 5.22578L53.0296 5.32956L44.7467 10.0832C44.7289 10.0933 44.7085 10.1059 44.6907 10.1186C44.4131 10.3135 44.1967 10.7109 44.1967 11.0374C44.1967 11.3867 43.9293 11.8221 43.606 12.0069L33.7368 17.6717C33.6375 17.7299 33.5407 17.7577 33.4592 17.7577C33.2733 17.7577 33.146 17.6185 33.146 17.3781C33.146 17.13 33.0213 16.9857 32.8405 16.9857C32.7666 16.9857 32.6826 17.011 32.5935 17.0617C32.288 17.2338 32.041 17.3781 32.041 17.3781L23.5722 22.238C23.45 22.3088 23.3278 22.3924 23.2106 22.4835C23.1546 22.5316 23.0986 22.5847 23.0426 22.6354C22.3169 23.3087 21.7949 24.387 21.7949 25.3007V99.6977C21.7949 100.498 22.1947 100.961 22.7778 100.961C23.0171 100.961 23.287 100.882 23.5747 100.718L53.6814 83.4373C54.6617 82.8779 55.4612 81.4984 55.4612 80.372V6.51669C55.4561 5.50674 54.9469 4.92204 54.2059 4.92204Z" fill="#1A90CD"/>
<path d="M47.5158 47.4116C48.2294 42.9976 48.3159 39.2069 47.9627 37.5947C47.6888 36.3192 46.6652 36.3693 46.6652 36.3693C46.6652 36.3693 46.831 32.4282 44.0198 32.9083C40.358 33.5389 35.0672 36.14 32.1262 41.6361C29.1853 47.1322 29.9133 54.0399 30.0575 57.422C30.0575 57.422 31.3261 60.446 38.7866 56.1609C46.2544 51.8902 47.5158 47.4116 47.5158 47.4116Z" fill="#1A90CD"/>
<path d="M32.1338 68.837V74.763C32.1338 75.7733 32.4942 82.0146 38.7942 78.4031C45.087 74.7916 45.4546 68.1276 45.4546 67.1172V61.1912L32.1338 68.837Z" fill="#1A90CD"/>
<path opacity="0.5" d="M32.1338 68.837V74.763C32.1338 75.7733 32.4942 82.0146 38.7942 78.4031C45.087 74.7916 45.4546 68.1276 45.4546 67.1172V61.1912L32.1338 68.837Z" fill="white"/>
<path d="M29.461 58.06C29.0646 58.6834 28.9276 59.8227 29.0934 61.2415C29.3673 63.5704 30.1242 65.4334 31.1189 64.2296L30.7153 57.6874C30.463 57.1929 29.9512 57.2717 29.461 58.06ZM48.1303 47.3401C47.633 47.1252 47.1284 47.6339 46.8833 48.4007L46.4797 55.4087C47.4744 55.4732 48.2313 52.7431 48.5052 50.0989C48.6637 48.4867 48.5196 47.5121 48.1303 47.3401Z" fill="#1A90CD"/>
<path opacity="0.5" d="M29.461 58.06C29.0646 58.6834 28.9276 59.8227 29.0934 61.2415C29.3673 63.5704 30.1242 65.4334 31.1189 64.2296L30.7153 57.6874C30.463 57.1929 29.9512 57.2717 29.461 58.06ZM48.1303 47.3401C47.633 47.1252 47.1284 47.6339 46.8833 48.4007L46.4797 55.4087C47.4744 55.4732 48.2313 52.7431 48.5052 50.0989C48.6637 48.4867 48.5196 47.5121 48.1303 47.3401Z" fill="white"/>
<path d="M44.6612 41.7724C44.5747 39.2286 43.5944 38.1395 38.7937 40.8982C33.993 43.657 33.0127 45.864 32.9262 48.5082C32.8397 51.1523 30.7061 51.9047 30.7061 55.2081C30.7061 58.5114 30.7061 61.693 31.2395 65.0394C31.7729 68.3857 32.8397 71.6676 34.7499 72.6923C36.6601 73.717 37.6404 73.0362 38.7937 72.377C39.947 71.7106 40.9273 71.2663 42.8375 68.0489C44.7477 64.8316 45.8145 60.3244 46.3479 56.3689C46.8813 52.4063 46.8813 49.2247 46.8813 45.9285C46.8813 42.618 44.7477 44.3091 44.6612 41.7724Z" fill="#1A90CD"/>
<path opacity="0.75" d="M44.6612 41.7724C44.5747 39.2286 43.5944 38.1395 38.7937 40.8982C33.993 43.657 33.0127 45.864 32.9262 48.5082C32.8397 51.1523 30.7061 51.9047 30.7061 55.2081C30.7061 58.5114 30.7061 61.693 31.2395 65.0394C31.7729 68.3857 32.8397 71.6676 34.7499 72.6923C36.6601 73.717 37.6404 73.0362 38.7937 72.377C39.947 71.7106 40.9273 71.2663 42.8375 68.0489C44.7477 64.8316 45.8145 60.3244 46.3479 56.3689C46.8813 52.4063 46.8813 49.2247 46.8813 45.9285C46.8813 42.618 44.7477 44.3091 44.6612 41.7724Z" fill="white"/>
<path d="M52.1506 32.0412C51.9343 32.0412 51.7614 31.8692 51.7614 31.6542V27.3333L48.7771 29.0459C48.5897 29.1534 48.3519 29.0889 48.2437 28.9026C48.1356 28.7163 48.2005 28.4798 48.3879 28.3724L51.956 26.323C52.0785 26.2513 52.2227 26.2513 52.3452 26.323C52.4678 26.3946 52.5398 26.5165 52.5398 26.6598V31.6471C52.5398 31.8692 52.3596 32.0412 52.1506 32.0412Z" fill="#455A64"/>
<path d="M25.4283 47.3757C25.2121 47.3757 25.0391 47.2037 25.0391 46.9887V41.9943C25.0391 41.8581 25.1111 41.7291 25.2337 41.6575L28.7585 39.6296C28.9459 39.5221 29.1838 39.5866 29.2919 39.7729C29.4 39.9592 29.3352 40.1957 29.1478 40.3032L25.8175 42.2164V46.9816C25.8175 47.2037 25.6446 47.3757 25.4283 47.3757Z" fill="#455A64"/>
<path d="M48.5825 64.5088C48.4456 64.5088 48.3158 64.4371 48.2437 64.3153C48.1356 64.129 48.2005 63.8925 48.3879 63.785L51.7614 61.8503V57.0851C51.7614 56.8702 51.9343 56.6982 52.1506 56.6982C52.3668 56.6982 52.5398 56.8702 52.5398 57.0851V62.0724C52.5398 62.2086 52.4678 62.3376 52.3452 62.4092L48.7771 64.4586C48.7123 64.4944 48.6474 64.5088 48.5825 64.5088Z" fill="#455A64"/>
<path d="M25.4283 77.7936C25.3634 77.7936 25.2913 77.7792 25.2337 77.7434C25.1111 77.6718 25.0391 77.5499 25.0391 77.4066V72.4193C25.0391 72.2044 25.2121 72.0324 25.4283 72.0324C25.6446 72.0324 25.8175 72.2044 25.8175 72.4193V76.7331L28.7585 75.042C28.9459 74.9345 29.1838 74.999 29.2919 75.1853C29.4 75.3716 29.3352 75.6081 29.1478 75.7155L25.6229 77.7434C25.5653 77.7792 25.5004 77.7936 25.4283 77.7936Z" fill="#455A64"/>
<g opacity="0.7">
<path d="M38.8222 71.5313L38.7861 71.5241L34.3315 71.0655L32.4357 66.9739L31.4121 58.5327L32.0608 52.1553L34.6847 44.8463L34.6991 44.832L38.7645 41.5215L42.8588 40.16L45.5114 44.5096L46.1601 50.1203L45.1366 59.7437L43.248 65.9635L38.8222 71.5313ZM34.4251 70.9294L38.7573 71.3808L43.1399 65.899L45.014 59.7294L46.0304 50.1346L45.3817 44.5525L42.8011 40.3391L38.8222 41.6576L34.8072 44.9395L32.1978 52.1911L31.5491 58.5327L32.5654 66.9452L34.4251 70.9294Z" fill="white"/>
<path d="M38.8668 41.5928H38.7227V71.4521H38.8668V41.5928Z" fill="white"/>
<path d="M35.9527 53.7169L35.8446 53.6739L32.1035 52.2336L32.154 52.1046L35.7797 53.5019L34.6769 44.9031L34.821 44.8888L35.9527 53.7169Z" fill="white"/>
<path d="M41.6035 50.5495L41.6395 50.2486L42.764 40.2453L42.901 40.2597L41.8125 49.962L45.3878 44.4874L45.5104 44.5662L41.6035 50.5495Z" fill="white"/>
<path d="M32.5665 67.0023L32.444 66.9306L34.6641 63.3836L31.3916 58.5253L31.4276 58.4823L35.803 53.5738L38.78 41.3349L41.7642 50.1845L46.2045 50.0627L46.1685 50.163L42.9248 58.7044L45.1089 59.6861L45.0512 59.8151L42.7446 58.7761L42.7662 58.7116L45.9955 50.2131L41.6633 50.3278L41.6417 50.2776L38.8017 41.8508L35.9256 53.6526L31.5718 58.5325L34.8299 63.3765L32.5665 67.0023Z" fill="white"/>
<path d="M38.8098 57.809L38.7305 57.7015L35.7607 53.5885L41.8445 50.0988L38.8098 57.809ZM35.977 53.6315L38.7738 57.5152L41.5706 50.4212L35.977 53.6315Z" fill="white"/>
<path d="M34.6436 63.6488L35.8041 53.6026L35.941 53.6169L34.8526 63.1114L38.7594 57.5795L38.8099 57.5938L42.7528 58.64L41.6427 50.2634L41.7869 50.249L42.9186 58.8335L38.8243 57.7443L34.6436 63.6488Z" fill="white"/>
<path d="M34.4465 71.001L34.3096 70.9938L34.6772 63.3194L34.7349 63.3122L38.7571 62.8034L42.8946 58.5757L43.2766 65.9277L43.1325 65.9348L42.772 58.9053L38.8219 62.9324L38.8003 62.9396L34.8142 63.4412L34.4465 71.001Z" fill="white"/>
</g>
<path d="M39.1591 41.3848C39.1591 41.6571 38.9933 41.9724 38.7914 42.0871C38.5896 42.2017 38.4238 42.0799 38.4238 41.8076C38.4238 41.5353 38.5896 41.22 38.7914 41.1054C38.9933 40.9836 39.1591 41.1125 39.1591 41.3848Z" fill="white"/>
<path d="M39.1591 48.6228C39.1591 48.8951 38.9933 49.2104 38.7914 49.325C38.5896 49.4397 38.4238 49.3179 38.4238 49.0456C38.4238 48.7733 38.5896 48.458 38.7914 48.3433C38.9933 48.2287 39.1591 48.3576 39.1591 48.6228Z" fill="white"/>
<path d="M39.1591 57.4508C39.1591 57.723 38.9933 58.0383 38.7914 58.153C38.5896 58.2676 38.4238 58.1458 38.4238 57.8735C38.4238 57.6012 38.5896 57.2859 38.7914 57.1713C38.9933 57.0495 39.1591 57.1785 39.1591 57.4508Z" fill="white"/>
<path d="M36.2421 53.3949C36.2421 53.6672 36.0763 53.9825 35.8745 54.0971C35.6726 54.2118 35.5068 54.09 35.5068 53.8177C35.5068 53.5454 35.6726 53.2301 35.8745 53.1154C36.0763 53.0008 36.2421 53.1226 36.2421 53.3949Z" fill="white"/>
<path d="M32.4989 51.955C32.4989 52.2273 32.3331 52.5426 32.1313 52.6572C31.9295 52.7719 31.7637 52.65 31.7637 52.3777C31.7637 52.1055 31.9295 51.7902 32.1313 51.6755C32.3331 51.5609 32.4989 51.6898 32.4989 51.955Z" fill="white"/>
<path d="M31.8515 58.3179C31.8515 58.5902 31.6857 58.9055 31.4838 59.0202C31.282 59.1348 31.1162 59.013 31.1162 58.7407C31.1162 58.4684 31.282 58.1531 31.4838 58.0385C31.6857 57.9238 31.8515 58.0456 31.8515 58.3179Z" fill="white"/>
<path d="M35.1171 63.1687C35.1171 63.441 34.9513 63.7563 34.7495 63.8709C34.5476 63.9856 34.3818 63.8637 34.3818 63.5914C34.3818 63.3191 34.5476 63.0039 34.7495 62.8892C34.9513 62.7746 35.1171 62.8964 35.1171 63.1687Z" fill="white"/>
<path d="M32.868 66.7515C32.868 67.0238 32.7023 67.3391 32.5004 67.4537C32.2986 67.5684 32.1328 67.4466 32.1328 67.1743C32.1328 66.902 32.2986 66.5867 32.5004 66.472C32.7023 66.3574 32.868 66.4864 32.868 66.7515Z" fill="white"/>
<path d="M34.7489 70.7856C34.7489 71.0579 34.5831 71.3732 34.3813 71.4879C34.1794 71.6025 34.0137 71.4807 34.0137 71.2084C34.0137 70.9361 34.1794 70.6208 34.3813 70.5062C34.5831 70.3915 34.7489 70.5133 34.7489 70.7856Z" fill="white"/>
<path d="M39.1591 62.6533C39.1591 62.9256 38.9933 63.2409 38.7914 63.3555C38.5896 63.4702 38.4238 63.3483 38.4238 63.076C38.4238 62.8037 38.5896 62.4885 38.7914 62.3738C38.9933 62.2591 39.1591 62.381 39.1591 62.6533Z" fill="white"/>
<path d="M39.1591 71.2445C39.1591 71.5168 38.9933 71.8321 38.7914 71.9468C38.5896 72.0614 38.4238 71.9396 38.4238 71.6673C38.4238 71.395 38.5896 71.0797 38.7914 70.9651C38.9933 70.8504 39.1591 70.9722 39.1591 71.2445Z" fill="white"/>
<path d="M35.1171 44.6813C35.1171 44.9536 34.9513 45.2689 34.7495 45.3835C34.5476 45.4982 34.3818 45.3763 34.3818 45.104C34.3818 44.8317 34.5476 44.5165 34.7495 44.4018C34.9513 44.2871 35.1171 44.409 35.1171 44.6813Z" fill="white"/>
<path d="M41.3398 50.4711C41.3398 50.7434 41.5056 50.8652 41.7075 50.7506C41.9093 50.6359 42.0751 50.3206 42.0751 50.0483C42.0751 49.776 41.9093 49.6542 41.7075 49.7689C41.5056 49.8835 41.3398 50.1988 41.3398 50.4711Z" fill="white"/>
<path d="M45.0781 44.7386C45.0781 45.0109 45.2439 45.1327 45.4458 45.018C45.6476 44.9034 45.8134 44.5881 45.8134 44.3158C45.8134 44.0435 45.6476 43.9217 45.4458 44.0364C45.2439 44.151 45.0781 44.4663 45.0781 44.7386Z" fill="white"/>
<path d="M45.7266 50.3494C45.7266 50.6217 45.8923 50.7435 46.0942 50.6289C46.296 50.5142 46.4618 50.1989 46.4618 49.9266C46.4618 49.6543 46.296 49.5325 46.0942 49.6472C45.8923 49.769 45.7266 50.0771 45.7266 50.3494Z" fill="white"/>
<path d="M42.4619 58.9481C42.4619 59.2204 42.6277 59.3423 42.8295 59.2276C43.0313 59.113 43.1971 58.7977 43.1971 58.5254C43.1971 58.2531 43.0313 58.1313 42.8295 58.2459C42.6277 58.3677 42.4619 58.683 42.4619 58.9481Z" fill="white"/>
<path d="M44.71 59.9585C44.71 60.2308 44.8757 60.3526 45.0776 60.2379C45.2794 60.1233 45.4452 59.808 45.4452 59.5357C45.4452 59.2634 45.2794 59.1416 45.0776 59.2562C44.8757 59.3709 44.71 59.6862 44.71 59.9585Z" fill="white"/>
<path d="M42.8291 66.1425C42.8291 66.4148 42.9949 66.5366 43.1967 66.422C43.3986 66.3073 43.5644 65.992 43.5644 65.7197C43.5644 65.4474 43.3986 65.3256 43.1967 65.4403C42.9949 65.5621 42.8291 65.8702 42.8291 66.1425Z" fill="white"/>
<path d="M42.4619 40.4682C42.4619 40.7405 42.6277 40.8623 42.8295 40.7476C43.0313 40.633 43.1971 40.3177 43.1971 40.0454C43.1971 39.7731 43.0313 39.6513 42.8295 39.7659C42.6277 39.8806 42.4619 40.1959 42.4619 40.4682Z" fill="white"/>
<path d="M83.3947 105.356L106.217 118.522C106.782 118.847 107.767 118.804 108.417 118.432L160.478 88.3958C161.129 88.0194 161.197 87.4505 160.637 87.1254L137.814 73.9595C137.249 73.6344 136.265 73.6772 135.614 74.0493L83.553 104.085C82.9024 104.462 82.8339 105.031 83.3947 105.356Z" fill="#E0E0E0"/>
<path d="M95.642 91.1923C95.642 91.1412 95.642 87.5777 95.642 87.5777C95.642 87.5777 95.2546 88.7996 93.4792 88.6974C92.5766 88.6463 91.2184 87.6543 91.2184 87.6543L91.4143 90.7921C91.2099 91.5031 89.5921 91.3626 87.9231 91.5074C87.6421 91.5329 87.3526 91.5414 87.0588 91.55H87.0418C86.152 91.6819 85.3771 92.3887 86.4415 92.955C87.5101 93.5212 89.0769 93.4999 90.5202 93.4701C92.2615 93.4318 95.6803 92.9124 95.642 91.1923Z" fill="#FFBDA7"/>
<path d="M83.5165 93.1806C83.5165 93.1806 83.4782 93.832 83.6442 94.377C83.7422 94.6963 84.6533 95.7522 86.2073 96.1396C87.7613 96.527 89.4899 96.1311 90.3584 96.2035C91.2269 96.2716 92.1508 96.659 93.1684 96.6973C94.2157 96.7399 95.4462 96.5398 96.1785 95.6713C96.2508 95.2966 96.2296 95.1135 96.2296 95.1135L83.5165 93.1806Z" fill="#263238"/>
<path d="M91.2145 90.873C90.678 91.4307 89.3582 91.3839 87.9277 91.5074C86.5823 91.6223 85.007 91.4606 84.1725 91.9544C83.3423 92.444 83.0996 93.683 84.5812 94.79C85.0112 95.1093 85.6201 95.3519 86.0799 95.518C87.6126 96.0672 89.1964 95.7096 90.214 95.7522C91.5338 95.8075 92.4321 96.2333 93.1474 96.2503C93.8627 96.2673 94.4672 96.2801 95.4891 95.7522C95.8084 95.5861 96.1362 95.2838 96.2256 95.1093C96.3023 94.7772 96.3065 94.411 96.2767 94.1641C96.2171 93.6489 96.0766 93.3637 96.0383 92.8485C96.017 92.5292 96.0468 92.2099 96.0298 91.8948C96.0212 91.6819 95.9659 90.9241 95.6381 90.9794V91.2817C95.3911 91.6266 94.5354 92.3887 92.5258 91.997C91.9468 91.882 91.2996 91.3371 91.3039 90.9922C91.3337 90.9582 91.3933 90.8815 91.4146 90.7964C91.3933 90.7666 91.355 90.7368 91.2145 90.873Z" fill="#1A90CD"/>
<path opacity="0.3" d="M91.2145 90.873C90.678 91.4307 89.3582 91.3839 87.9277 91.5074C86.5823 91.6223 85.007 91.4606 84.1725 91.9544C83.3423 92.444 83.0996 93.683 84.5812 94.79C85.0112 95.1093 85.6201 95.3519 86.0799 95.518C87.6126 96.0672 89.1964 95.7096 90.214 95.7522C91.5338 95.8075 92.4321 96.2333 93.1474 96.2503C93.8627 96.2673 94.4672 96.2801 95.4891 95.7522C95.8084 95.5861 96.1362 95.2838 96.2256 95.1093C96.3023 94.7772 96.3065 94.411 96.2767 94.1641C96.2171 93.6489 96.0766 93.3637 96.0383 92.8485C96.017 92.5292 96.0468 92.2099 96.0298 91.8948C96.0212 91.6819 95.9659 90.9241 95.6381 90.9794V91.2817C95.3911 91.6266 94.5354 92.3887 92.5258 91.997C91.9468 91.882 91.2996 91.3371 91.3039 90.9922C91.3337 90.9582 91.3933 90.8815 91.4146 90.7964C91.3933 90.7666 91.355 90.7368 91.2145 90.873Z" fill="black"/>
<path d="M87.4252 93.4488C87.4252 93.4488 87.1867 92.4355 87.8041 91.5159C87.8041 91.5159 88.2341 91.286 88.5108 91.4606C88.5108 91.4606 87.8892 91.7671 87.9063 93.4361C87.9063 93.4361 87.8807 93.551 87.6679 93.5553C87.5955 93.5595 87.4379 93.5638 87.4252 93.4488Z" fill="#37474F"/>
<path d="M89.6815 91.3754C89.6815 91.3754 89.673 91.3286 89.4261 91.3329C89.2473 91.3371 89.1536 91.418 89.1536 91.418C89.1536 91.418 88.4639 91.8991 88.6129 93.3552C88.6129 93.3552 88.6555 93.5255 88.8896 93.5297C89.1238 93.5297 89.1323 93.3339 89.1323 93.3339C89.1323 93.3339 88.9875 91.8012 89.6815 91.3754Z" fill="#37474F"/>
<path d="M90.4993 91.2434C90.4993 91.2434 90.4397 91.1668 90.2609 91.2008C90.0352 91.2477 90.0012 91.3456 90.0012 91.3456C90.0012 91.3456 89.5754 92.0055 89.8096 93.2019C89.8096 93.2019 89.8266 93.4105 90.1161 93.3722C90.4014 93.3339 90.3162 93.1167 90.3162 93.1167C90.3162 93.1167 90.1076 91.5713 90.4993 91.2434Z" fill="#37474F"/>
<path d="M90.7207 76.6911C90.7207 81.9747 91.2231 89.9449 91.2231 89.9449C91.2231 89.9449 94.0075 90.7921 95.966 89.7107L96.264 78.0919L90.7207 76.6911Z" fill="#1A90CD"/>
<g opacity="0.4">
<path d="M90.7207 76.6911C90.7207 81.9747 91.2231 89.9449 91.2231 89.9449C91.2231 89.9449 94.0075 90.7921 95.966 89.7107L96.264 78.0919L90.7207 76.6911Z" fill="black"/>
</g>
<path d="M90.1339 94.0236C90.1339 93.9725 90.1339 90.4089 90.1339 90.4089C90.1339 90.4089 89.7464 91.6309 87.971 91.5287C87.0684 91.4776 85.7145 90.4856 85.7145 90.4856L85.9104 93.6234C85.706 94.3344 84.0882 94.1939 82.4192 94.3387C82.1382 94.3642 81.8487 94.3727 81.5549 94.3812H81.5379C80.6481 94.5132 79.8732 95.22 80.9376 95.7862C82.0062 96.3525 83.573 96.3312 85.0163 96.2971C86.7534 96.2631 90.1722 95.7436 90.1339 94.0236Z" fill="#FFBDA7"/>
<path d="M78.0077 96.0119C78.0077 96.0119 77.9694 96.6633 78.1354 97.2082C78.2334 97.5275 79.1445 98.5834 80.6985 98.9708C82.2525 99.3583 83.9811 98.9623 84.8496 99.0347C85.7182 99.1028 86.642 99.4903 87.6596 99.5286C88.7069 99.5712 89.9374 99.3711 90.6697 98.5025C90.7421 98.1279 90.7208 97.9448 90.7208 97.9448L78.0077 96.0119Z" fill="#263238"/>
<path d="M85.7057 93.7043C85.1692 94.262 83.8494 94.2152 82.4189 94.3387C81.0735 94.4536 79.4982 94.2918 78.6637 94.7857C77.8335 95.2753 77.5908 96.5143 79.0724 97.6212C79.5024 97.9405 80.1113 98.1832 80.5711 98.3493C82.1038 98.8985 83.6876 98.5409 84.7052 98.5834C86.025 98.6388 86.9233 99.0645 87.6386 99.0816C88.3539 99.0986 88.9585 99.1114 89.9803 98.5834C90.2996 98.4174 90.6274 98.1151 90.7168 97.9405C90.7935 97.6084 90.7977 97.2423 90.7679 96.9954C90.7083 96.4802 90.5678 96.1949 90.5295 95.6798C90.5082 95.3605 90.538 95.0411 90.521 94.7261C90.5125 94.5132 90.4571 93.7554 90.1293 93.8107V94.113C89.8823 94.4579 89.0266 95.22 87.017 94.8283C86.438 94.7133 85.7908 94.1683 85.7951 93.8235C85.8249 93.7894 85.8845 93.7128 85.9058 93.6276C85.8845 93.5978 85.8462 93.5638 85.7057 93.7043Z" fill="#1A90CD"/>
<path opacity="0.3" d="M85.7057 93.7043C85.1692 94.262 83.8494 94.2152 82.4189 94.3387C81.0735 94.4536 79.4982 94.2918 78.6637 94.7857C77.8335 95.2753 77.5908 96.5143 79.0724 97.6212C79.5024 97.9405 80.1113 98.1832 80.5711 98.3493C82.1038 98.8985 83.6876 98.5409 84.7052 98.5834C86.025 98.6388 86.9233 99.0645 87.6386 99.0816C88.3539 99.0986 88.9585 99.1114 89.9803 98.5834C90.2996 98.4174 90.6274 98.1151 90.7168 97.9405C90.7935 97.6084 90.7977 97.2423 90.7679 96.9954C90.7083 96.4802 90.5678 96.1949 90.5295 95.6798C90.5082 95.3605 90.538 95.0411 90.521 94.7261C90.5125 94.5132 90.4571 93.7554 90.1293 93.8107V94.113C89.8823 94.4579 89.0266 95.22 87.017 94.8283C86.438 94.7133 85.7908 94.1683 85.7951 93.8235C85.8249 93.7894 85.8845 93.7128 85.9058 93.6276C85.8845 93.5978 85.8462 93.5638 85.7057 93.7043Z" fill="black"/>
<path d="M81.9164 96.2801C81.9164 96.2801 81.678 95.2668 82.2953 94.3472C82.2953 94.3472 82.7253 94.1172 83.0021 94.2918C83.0021 94.2918 82.3804 94.5984 82.3975 96.2673C82.3975 96.2673 82.3719 96.3823 82.1591 96.3865C82.0867 96.3908 81.9291 96.395 81.9164 96.2801Z" fill="#37474F"/>
<path d="M84.1727 94.2067C84.1727 94.2067 84.1642 94.1598 83.9173 94.1641C83.7385 94.1683 83.6448 94.2492 83.6448 94.2492C83.6448 94.2492 82.9551 94.7303 83.1041 96.1864C83.1041 96.1864 83.1467 96.3567 83.3808 96.361C83.615 96.361 83.6235 96.1651 83.6235 96.1651C83.6235 96.1651 83.4787 94.6324 84.1727 94.2067Z" fill="#37474F"/>
<path d="M84.9905 94.0704C84.9905 94.0704 84.9309 93.9938 84.7521 94.0278C84.5264 94.0747 84.4924 94.1726 84.4924 94.1726C84.4924 94.1726 84.0666 94.8325 84.3008 96.0289C84.3008 96.0289 84.3178 96.2375 84.6073 96.1992C84.8926 96.1609 84.8074 95.9437 84.8074 95.9437C84.8074 95.9437 84.5988 94.4025 84.9905 94.0704Z" fill="#37474F"/>
<path d="M84.8879 79.978C84.7517 81.1658 84.7134 83.3542 84.9901 85.6192C85.4031 89.021 85.501 90.0684 85.7139 92.2823C85.7139 92.2823 87.3828 93.8916 90.2567 92.4824L90.6526 81.549L84.8879 79.978Z" fill="#1A90CD"/>
<g opacity="0.4">
<path d="M84.8879 79.978C84.7517 81.1658 84.7134 83.3542 84.9901 85.6192C85.4031 89.021 85.501 90.0684 85.7139 92.2823C85.7139 92.2823 87.3828 93.8916 90.2567 92.4824L90.6526 81.549L84.8879 79.978Z" fill="black"/>
</g>
<path d="M107.658 116.257L108.05 110.632L110.775 109.057L109.216 115.354L107.658 116.257Z" fill="#B16668"/>
<path d="M107.658 116.257L106.1 115.354L106.129 109.521L108.05 110.632L107.658 116.257Z" fill="#9A4A4D"/>
<path d="M88.5664 105.238L88.9624 99.6138L91.6829 98.0427L90.1247 104.34L88.5664 105.238Z" fill="#B16668"/>
<path d="M88.5667 105.238L87.0127 104.34L87.0425 98.5068L88.9626 99.6138L88.5667 105.238Z" fill="#9A4A4D"/>
<path d="M156.585 87.9949L156.194 82.822L153.469 84.393L155.027 88.8933L156.585 87.9949Z" fill="#B16668"/>
<path d="M155.027 88.8933L153.469 87.9949L151.549 83.2861L153.469 84.3973L155.027 88.8933Z" fill="#9A4A4D"/>
<path d="M107.657 110.402L156.836 81.996V83.797L107.657 112.203V110.402Z" fill="#B16668"/>
<path d="M85.8418 99.6095L107.657 112.203V110.402L85.8418 97.8128V99.6095Z" fill="#9A4A4D"/>
<path d="M107.657 110.402L156.836 81.996L135.025 69.4022L85.8418 97.8128L107.657 110.402Z" fill="#9A4A4D"/>
<path d="M133.092 69.9429L133.088 51.5673C133.088 50.7882 133.637 49.8388 134.31 49.4471L134.961 49.0639C135.638 48.6722 136.732 48.6722 137.405 49.0639L155.61 59.58C156.287 59.9717 156.832 60.9169 156.832 61.7003V80.0716C156.832 80.8508 156.283 81.8002 155.61 82.1919L154.959 82.5708C154.282 82.9625 153.188 82.9625 152.515 82.5708L134.31 72.0589C133.641 71.6715 133.092 70.722 133.092 69.9429Z" fill="#455A64"/>
<path d="M152.519 82.5708L134.314 72.0589C133.637 71.6672 133.092 70.7221 133.092 69.9387L133.088 51.5631C133.088 50.784 133.637 50.4689 134.31 50.8563L152.519 61.3682C153.196 61.7599 153.741 62.7051 153.741 63.4885V81.8598C153.741 82.6432 153.196 82.9625 152.519 82.5708Z" fill="#37474F"/>
<path d="M134.961 49.0682L134.309 49.4514C133.633 49.8431 133.633 50.4732 134.309 50.8649L152.519 61.3768C153.196 61.7684 154.29 61.7684 154.963 61.3768L155.614 60.9978C156.291 60.6061 156.291 59.976 155.614 59.5843L137.409 49.0682C136.732 48.6807 135.638 48.6807 134.961 49.0682Z" fill="#455A64"/>
<path d="M155.615 60.9978L154.963 61.3767C154.286 61.7684 153.741 62.7136 153.741 63.497V81.8683C153.741 82.6475 154.29 82.9625 154.963 82.5751L155.615 82.1961C156.291 81.8045 156.836 80.8593 156.836 80.0759V61.7046C156.836 60.9212 156.291 60.6061 155.615 60.9978Z" fill="#263238"/>
<path d="M127.225 64.2633L110.093 74.1493C109.365 74.5708 108.777 75.5884 108.777 76.4314V80.6166C108.777 81.4553 109.365 82.4771 110.093 82.8986L129.695 94.2109C130.423 94.6324 131.602 94.6324 132.326 94.2109L149.454 84.3206C150.182 83.8991 150.77 82.8816 150.77 82.0386V77.8534C150.77 77.0147 150.182 75.9929 149.454 75.5714L129.856 64.259C129.128 63.8461 127.949 63.8461 127.225 64.2633Z" fill="#455A64"/>
<path d="M149.454 75.5799L129.856 64.2676C129.128 63.8461 127.949 63.8461 127.225 64.2676L110.093 74.1536C109.365 74.5751 109.365 75.252 110.093 75.6735L129.695 86.9901C130.423 87.4116 131.602 87.4116 132.326 86.9901L149.454 77.0998C150.182 76.6783 150.182 75.9971 149.454 75.5799Z" fill="black"/>
<path d="M108.777 80.6165V76.4314C108.777 75.5926 109.365 75.252 110.093 75.6693L129.695 86.9858C130.423 87.4073 131.01 88.4249 131.01 89.2679V93.4531C131.01 94.2918 130.423 94.6324 129.695 94.2152L110.093 82.9028C109.365 82.4771 108.777 81.4553 108.777 80.6165Z" fill="#263238"/>
<path d="M131.011 93.4488V89.2636C131.011 88.4249 131.598 87.4031 132.326 86.9816L149.454 77.0913C150.182 76.6698 150.77 77.0104 150.77 77.8534V82.0386C150.77 82.8773 150.182 83.8991 149.454 84.3206L132.326 94.2109C131.598 94.6324 131.011 94.2918 131.011 93.4488Z" fill="#37474F"/>
<path d="M127.225 56.4678L110.093 66.3538C109.365 66.7753 108.777 67.7928 108.777 68.6316V72.8167C108.777 73.6555 109.365 74.6773 110.093 75.0988L129.695 86.4111C130.423 86.8326 131.602 86.8326 132.326 86.4111L149.454 76.5208C150.182 76.0993 150.77 75.0818 150.77 74.2388V70.0536C150.77 69.2149 150.182 68.193 149.454 67.7716L129.856 56.4678C129.128 56.0463 127.949 56.0463 127.225 56.4678Z" fill="black"/>
<path d="M149.454 67.7801L129.856 56.4677C129.128 56.0463 127.949 56.0463 127.225 56.4677L110.093 66.3538C109.365 66.7753 109.365 67.4522 110.093 67.8737L129.695 79.1903C130.423 79.6118 131.602 79.6118 132.326 79.1903L149.454 69.3C150.182 68.8828 150.182 68.2016 149.454 67.7801Z" fill="#37474F"/>
<path d="M108.777 72.8167V68.6316C108.777 67.7928 109.365 67.4522 110.093 67.8695L129.695 79.186C130.423 79.6075 131.01 80.6251 131.01 81.4681V85.6532C131.01 86.492 130.423 86.8326 129.695 86.4153L110.093 75.103C109.365 74.6773 108.777 73.6597 108.777 72.8167Z" fill="#263238"/>
<path d="M131.011 85.6532V81.4681C131.011 80.6293 131.598 79.6075 132.326 79.186L149.454 69.2957C150.182 68.8743 150.77 69.2149 150.77 70.0579V74.243C150.77 75.0818 150.182 76.1036 149.454 76.5251L132.326 86.4153C131.598 86.8326 131.011 86.492 131.011 85.6532Z" fill="#37474F"/>
<path d="M106.313 76.3377L89.1808 86.2238C88.4528 86.6453 87.8652 87.6628 87.8652 88.5058V92.691C87.8652 93.5297 88.4528 94.5515 89.1808 94.973L108.783 106.29C109.511 106.711 110.69 106.711 111.414 106.29L128.542 96.3993C129.27 95.9778 129.857 94.9603 129.857 94.1173V89.9321C129.857 89.0934 129.27 88.0715 128.542 87.65L108.944 76.3335C108.216 75.9162 107.037 75.9162 106.313 76.3377Z" fill="#455A64"/>
<path d="M128.541 87.6543L108.943 76.3378C108.215 75.9163 107.036 75.9163 106.312 76.3378L89.1798 86.2238C88.4518 86.6453 88.4518 87.3222 89.1798 87.7437L108.782 99.0603C109.51 99.4818 110.689 99.4818 111.413 99.0603L128.541 89.17C129.269 88.7528 129.269 88.0716 128.541 87.6543Z" fill="black"/>
<path d="M87.8604 92.691V88.5058C87.8604 87.6671 88.4479 87.3265 89.1759 87.7437L108.778 99.0603C109.506 99.4818 110.093 100.499 110.093 101.342V105.527C110.093 106.366 109.506 106.707 108.778 106.29L89.1759 94.973C88.4521 94.5515 87.8604 93.5297 87.8604 92.691Z" fill="#263238"/>
<path d="M110.098 105.523V101.338C110.098 100.499 110.685 99.4775 111.413 99.056L128.541 89.1657C129.269 88.7442 129.857 89.0849 129.857 89.9278V94.113C129.857 94.9518 129.269 95.9736 128.541 96.3951L111.413 106.285C110.685 106.707 110.098 106.366 110.098 105.523Z" fill="#37474F"/>
<path d="M106.313 68.5422L89.1808 78.4282C88.4528 78.8497 87.8652 79.8673 87.8652 80.7102V84.8954C87.8652 85.7341 88.4528 86.756 89.1808 87.1775L108.783 98.494C109.511 98.9155 110.69 98.9155 111.414 98.494L128.542 88.6037C129.27 88.1822 129.857 87.1647 129.857 86.3217V82.1365C129.857 81.2978 129.27 80.276 128.542 79.8545L108.944 68.5422C108.216 68.1207 107.037 68.1207 106.313 68.5422Z" fill="#455A64"/>
<path d="M128.541 79.8545L108.943 68.5422C108.215 68.1207 107.036 68.1207 106.312 68.5422L89.1798 78.4282C88.4518 78.8497 88.4518 79.5267 89.1798 79.9482L108.782 91.2647C109.51 91.6862 110.689 91.6862 111.413 91.2647L128.541 81.3744C129.269 80.9572 129.269 80.276 128.541 79.8545Z" fill="#37474F"/>
<path d="M87.8604 84.8912V80.706C87.8604 79.8673 88.4479 79.5267 89.1759 79.9439L108.778 91.2605C109.506 91.682 110.093 92.6995 110.093 93.5425V97.7277C110.093 98.5664 109.506 98.907 108.778 98.4898L89.1759 87.1732C88.4521 86.7517 87.8604 85.7342 87.8604 84.8912Z" fill="#263238"/>
<path d="M110.098 97.7277V93.5425C110.098 92.7038 110.685 91.682 111.413 91.2605L128.541 81.3702C129.269 80.9487 129.857 81.2893 129.857 82.1323V86.3174C129.857 87.1562 129.269 88.178 128.541 88.5995L111.413 98.4898C110.685 98.907 110.098 98.5664 110.098 97.7277Z" fill="#37474F"/>
<path d="M110.949 82.0599C110.949 82.0599 101.029 76.7209 99.2965 75.8439C97.5636 74.9668 94.2087 73.4043 93.0847 73.6555C91.9607 73.9067 91.3306 74.3367 90.9346 75.8013C90.858 76.078 90.6025 77.4405 90.6025 77.4405C90.6025 77.4405 95.5115 80.706 99.6967 81.5575C103.878 82.409 110.949 82.0599 110.949 82.0599Z" fill="#1A90CD"/>
<g opacity="0.45">
<path d="M110.949 82.0599C110.949 82.0599 101.029 76.7209 99.2965 75.8439C97.5636 74.9668 94.2087 73.4043 93.0847 73.6555C91.9607 73.9067 91.3306 74.3367 90.9346 75.8013C90.858 76.078 90.6025 77.4405 90.6025 77.4405C90.6025 77.4405 95.5115 80.706 99.6967 81.5575C103.878 82.409 110.949 82.0599 110.949 82.0599Z" fill="black"/>
</g>
<path d="M111.694 79.2542C111.652 80.5911 111.447 83.9801 109.604 85.8789C108.429 87.0923 103.503 90.7368 99.3813 89.004C94.7789 87.0668 89.0525 82.2941 89.0525 82.2941L85.936 81.0338C85.936 81.0338 84.8375 80.3271 84.8801 80.0418C85.3484 76.8955 87.6092 75.7971 90.7215 76.6911C93.987 77.6321 101.208 80.5017 101.208 80.5017L111.694 79.2542Z" fill="#1A90CD"/>
<g opacity="0.4">
<path d="M111.694 79.2542C111.652 80.5911 111.447 83.9801 109.604 85.8789C108.429 87.0923 103.503 90.7368 99.3813 89.004C94.7789 87.0668 89.0525 82.2941 89.0525 82.2941L85.936 81.0338C85.936 81.0338 84.8375 80.3271 84.8801 80.0418C85.3484 76.8955 87.6092 75.7971 90.7215 76.6911C93.987 77.6321 101.208 80.5017 101.208 80.5017L111.694 79.2542Z" fill="black"/>
</g>
<path opacity="0.1" d="M105.15 88.74C106.244 85.9045 107.577 82.2941 107.577 82.2941L103.055 83.2307C101.859 86.0066 101.246 87.5138 99.0193 86.9178C96.7926 86.3174 89.0566 82.2941 89.0566 82.2941C89.0566 82.2941 94.783 87.0668 99.3855 89.004C101.225 89.7788 103.302 89.4425 105.15 88.74Z" fill="black"/>
<path d="M109.548 60.3634C111.523 60.0697 113.354 60.6104 113.869 62.7391C114.248 64.3017 112.017 69.0999 110.859 71.9525C110.859 71.9525 106.38 71.7694 105.997 68.4613L109.548 60.3634Z" fill="#37474F"/>
<path d="M101.254 53.1767C101.254 53.1767 99.7506 54.9861 99.8613 55.1522C99.9677 55.3182 100.802 55.7014 100.802 55.7014L101.254 53.1767Z" fill="#F0997A"/>
<path d="M102.216 49.941C101.419 50.2134 101.147 50.8819 101.002 52.1847C100.943 52.7296 101.181 53.5769 100.994 54.1474C100.474 55.7397 100.806 58.4433 101.236 58.9542C101.526 59.2948 103.382 59.8568 104.302 59.7078C105.451 59.5204 107.989 58.703 109.338 57.0936C110.922 55.199 111.548 52.4827 110.164 51.2097C108.206 49.413 103.063 49.6472 102.216 49.941Z" fill="#FFBDA7"/>
<path d="M108.679 59.7503L108.594 58.2815L104.046 59.0819L104.144 60.0994C104.2 60.67 104.247 61.2618 103.868 61.4832C103.191 61.8791 102.071 62.4922 101.317 62.952C101.317 62.952 104.608 63.3522 107.086 62.9435C109.564 62.5348 109.211 60.3932 109.211 60.3932C109.087 60.4017 108.708 60.4486 108.679 59.7503Z" fill="#FFBDA7"/>
<path d="M101.317 59.0223C101.688 59.2863 102.773 59.7503 104.11 59.7461L104.046 59.0819C104.046 59.0819 103.361 59.2522 102.441 59.2267C101.773 59.2139 101.326 59.0266 101.317 59.0223Z" fill="#F0997A"/>
<path d="M100.7 50.2347C100.572 50.405 100.491 50.6094 100.474 50.8223C100.444 51.1842 100.623 51.5631 100.934 51.7504C101.245 51.9378 101.679 51.9079 101.943 51.661C101.862 52.0229 101.943 52.4274 102.207 52.6871C102.471 52.9468 102.926 53.0106 103.216 52.7807C103.126 52.9723 103.05 53.232 103.216 53.3598C103.258 53.3938 103.309 53.4109 103.356 53.4236C103.505 53.4577 103.663 53.4492 103.803 53.3938C103.654 53.5726 103.556 53.7983 103.612 54.0197C103.629 54.0921 103.995 54.5476 104.012 54.4965C104.012 54.4965 104.476 53.2193 105.562 53.4918C106.656 53.7642 106.669 55.1948 105.885 55.9867C105.106 56.7743 104.493 56.3911 104.48 56.3869C104.485 56.6168 104.455 57.8515 105.468 58.5625C106.09 59.001 107.729 59.0947 108.593 58.5753C108.912 58.0048 109.445 57.2767 109.858 56.6381C111.237 54.5008 111.693 53.181 111.454 51.9761C111.292 51.1544 110.922 50.686 110.305 50.5285C110.271 49.7494 110.16 49.1448 109.321 48.4253C108.006 47.2928 106.481 47.1948 105.302 47.2459C104.893 47.263 104.485 47.3353 104.084 47.28C103.735 47.2289 103.407 47.0884 103.058 47.0245C102.713 46.9649 102.313 47.0032 102.075 47.2587C101.824 47.5312 101.824 47.9527 101.913 48.3103C101.628 48.3316 101.342 48.3912 101.1 48.5445C100.857 48.6978 100.67 48.9447 100.636 49.2257C100.606 49.5067 100.755 49.8175 101.019 49.9197C100.9 50.0091 100.789 50.1155 100.7 50.2347Z" fill="#263238"/>
<path d="M103.281 83.0562C103.072 83.0562 102.881 83.0477 102.723 83.0349C100.181 82.822 97.6481 81.4681 96.9541 79.9567C97.0563 79.284 97.1968 78.475 97.3458 77.6193C97.58 76.2569 97.8482 74.7156 97.9887 73.3575C98.6103 67.4395 99.7471 63.8163 101.373 62.5859L102.208 62.2155C103.03 61.8451 103.277 61.7344 103.89 61.5258C104.034 61.6066 104.703 61.8876 105.908 61.8876C106.142 61.8876 106.38 61.8791 106.627 61.8578C108.407 61.7046 109.203 60.7722 109.254 60.4401C109.309 60.4316 109.429 60.4188 109.556 60.4103C109.833 60.4656 110.37 60.687 110.876 60.9638L110.97 61.0148C111.443 61.2618 112.426 61.7727 112.818 63.6886C113.316 66.1026 113.099 68.4017 112.762 71.1563C112.699 71.6885 112.63 72.225 112.562 72.7614C112.477 73.4299 112.392 74.0983 112.315 74.7667C112.175 75.9418 112.005 77.4916 111.915 79.0796C111.898 79.3862 111.881 79.6885 111.779 79.9567C111.485 80.7358 110.676 81.1147 109.961 81.4468L109.833 81.5064C108.76 82.0088 107.79 82.3835 106.87 82.6517C106.095 82.8688 104.452 83.0562 103.281 83.0562Z" fill="#F0F0F0"/>
<path d="M109.543 60.4486C109.829 60.5082 110.352 60.7253 110.855 60.9936L110.948 61.0446C111.451 61.3044 112.387 61.794 112.775 63.6886C113.269 66.0984 113.052 68.3932 112.719 71.1435C112.656 71.6843 112.587 72.225 112.519 72.7657C112.434 73.4256 112.353 74.0898 112.272 74.754C112.132 75.929 111.962 77.483 111.868 79.0839C111.851 79.3734 111.834 79.6672 111.736 79.9354C111.446 80.7017 110.646 81.0721 109.939 81.4L109.811 81.4596C108.739 81.962 107.772 82.3366 106.853 82.6006C106.082 82.8263 104.447 83.0136 103.276 83.0136C103.063 83.0136 102.876 83.0051 102.723 82.9923C100.249 82.7837 97.6903 81.4255 97.0005 79.9609C97.0985 79.2712 97.239 78.4751 97.3837 77.6278C97.6179 76.2654 97.8861 74.7199 98.0309 73.3617C98.6482 67.4565 99.7807 63.8461 101.382 62.6327C101.718 62.4837 101.995 62.3602 102.225 62.258C103.033 61.8962 103.285 61.7812 103.872 61.5768C104.094 61.6748 104.758 61.926 105.912 61.926C106.146 61.926 106.388 61.9174 106.635 61.8962C108.372 61.7471 109.19 60.8488 109.296 60.4741C109.347 60.4699 109.441 60.4571 109.543 60.4486ZM109.548 60.3634C109.373 60.3805 109.211 60.3975 109.211 60.3975C109.224 60.6444 108.458 61.6535 106.618 61.811C106.363 61.8323 106.124 61.8408 105.903 61.8408C104.839 61.8408 104.162 61.6237 103.868 61.4832C103.085 61.7557 102.876 61.8706 101.339 62.5518C99.7552 63.7524 98.5886 67.1542 97.9415 73.3532C97.7116 75.5459 97.1666 78.1557 96.9111 79.978C97.5966 81.4766 100.151 82.8646 102.714 83.0817C102.876 83.0945 103.068 83.103 103.276 83.103C104.392 83.103 106.056 82.9242 106.874 82.6858C107.896 82.3877 108.879 81.9875 109.846 81.5362C110.599 81.1828 111.497 80.8082 111.817 79.9652C111.923 79.6842 111.94 79.3734 111.957 79.0754C112.038 77.6363 112.187 76.1973 112.358 74.7667C112.502 73.5618 112.66 72.357 112.805 71.1606C113.111 68.6444 113.375 66.192 112.86 63.6801C112.434 61.6109 111.344 61.1681 110.897 60.9254C110.365 60.6359 109.833 60.4188 109.548 60.3634Z" fill="#E0E0E0"/>
<path d="M92.6194 78.7475C90.7631 78.143 89.9329 76.0993 89.2985 73.8982C89.1027 73.2212 88.9026 72.5273 88.6429 71.8631C88.3661 71.1563 88.0383 70.4751 87.7828 69.7598C87.6466 69.3809 87.5359 68.9935 87.4465 68.6018C87.2336 67.6779 87.3486 66.6604 87.4082 65.7194C87.4252 65.481 87.4422 65.2468 87.4891 65.0127C87.5444 64.753 87.6338 64.4975 87.7573 64.2634C87.8552 64.0803 88.0255 63.8887 88.2256 63.9355C88.3576 63.9696 88.4428 64.0973 88.4853 64.2293C88.5279 64.357 88.5492 64.4975 88.6216 64.6125C89.0048 65.2426 89.6476 64.4592 89.9457 64.2038C90.1075 64.0675 90.4566 63.7354 90.695 63.8504C91.2613 64.1143 92.3554 66.1494 92.3214 67.1925C92.2873 68.2356 91.5891 69.8876 91.8573 70.8583C92.1213 71.829 93.9861 74.92 93.9861 74.92L92.6194 78.7475Z" fill="#FFBDA7"/>
<path d="M94.6764 68.8019L92.288 60.3847C92.2283 60.1676 92.0666 60.1208 91.9261 60.0739C91.7856 60.0271 91.5642 60.0101 91.4066 60.0995L87.362 62.4369C87.2044 62.5263 87.1108 62.7306 87.1576 62.8839L89.5461 71.3011C89.5887 71.4586 89.7462 71.5395 89.8909 71.5863C90.0314 71.6332 90.2699 71.6757 90.4317 71.5863L94.4763 69.2489C94.6296 69.1595 94.7403 69.019 94.6764 68.8019Z" fill="#37474F"/>
<path d="M94.4035 68.8998L90.2439 71.3011L87.8469 62.8456L87.1785 62.6284C87.1402 62.7093 87.1274 62.7987 87.1529 62.8754L89.5414 71.2926C89.584 71.4501 89.7415 71.531 89.8863 71.5778C90.0268 71.6246 90.2652 71.6672 90.427 71.5778L94.4717 69.2404C94.5696 69.1851 94.659 69.0999 94.6888 68.9807L94.6675 68.9722L94.4035 68.8998Z" fill="#263238"/>
<path d="M91.9341 60.3336L87.8767 62.6753C87.766 62.7391 87.7021 62.8796 87.7319 62.9903L90.0991 71.3394C90.146 71.5097 90.3248 71.565 90.4951 71.4671L94.4461 69.1893C94.5695 69.1169 94.6462 68.9552 94.6079 68.8317L92.2236 60.4273C92.1896 60.3038 92.0576 60.2612 91.9341 60.3336Z" fill="#455A64"/>
<path d="M92.1131 60.8445L94.327 68.6486C94.3611 68.7678 94.293 68.9211 94.1738 68.9892L90.5165 71.101C90.3973 71.1691 90.2738 71.1308 90.2398 71.0116L88.0088 63.1479C87.9833 63.0499 88.0216 62.935 88.1025 62.8541C88.111 62.8498 88.1153 62.8413 88.1195 62.8371C88.1323 62.8243 88.1493 62.8158 88.1621 62.8073L89.1924 62.2112C89.1924 62.2112 89.2222 62.1942 89.2605 62.1729C89.2989 62.1516 89.3372 62.1644 89.3457 62.2027C89.3542 62.241 89.3968 62.2495 89.4351 62.2282L90.6357 61.5343C90.6741 61.513 90.6996 61.4619 90.6868 61.4278C90.6783 61.3938 90.6953 61.3512 90.7294 61.3256C90.7337 61.3256 90.7337 61.3214 90.7379 61.3214L91.7427 60.7424L91.764 60.7296C91.913 60.6444 92.0705 60.6955 92.1131 60.8445Z" fill="black"/>
<path d="M93.752 68.8062C93.8712 68.738 93.9393 68.5848 93.9052 68.4655L91.7169 60.7551L90.7291 61.3256C90.7249 61.3256 90.7249 61.3299 90.7206 61.3299C90.6865 61.3512 90.6695 61.398 90.678 61.4321C90.6865 61.4704 90.6652 61.5172 90.6269 61.5385L89.4263 62.2325C89.388 62.2538 89.3454 62.2453 89.3369 62.207C89.3284 62.1686 89.2901 62.1559 89.2518 62.1771C89.2134 62.1984 89.1836 62.2155 89.1836 62.2155L88.1533 62.8115C88.1405 62.82 88.1235 62.8286 88.1107 62.8413C88.1022 62.8456 88.098 62.8541 88.0937 62.8584C88.0128 62.935 87.9745 63.0542 88 63.1521L90.1884 70.8625L93.752 68.8062Z" fill="#FAFAFA"/>
<path d="M89.5541 61.9004L90.1034 61.5811C90.1374 61.5641 90.1715 61.5726 90.18 61.6024C90.1885 61.6322 90.1672 61.6748 90.1374 61.6918L89.5882 62.0111C89.5541 62.0281 89.5201 62.0196 89.5116 61.9898C89.4988 61.96 89.5201 61.9174 89.5541 61.9004Z" fill="#263238"/>
<path d="M90.3759 61.398C90.4142 61.3767 90.4525 61.3895 90.461 61.4278C90.4695 61.4661 90.4482 61.513 90.4142 61.5343C90.3759 61.5555 90.3375 61.5428 90.329 61.5044C90.3205 61.4661 90.3418 61.4193 90.3759 61.398Z" fill="#263238"/>
<path d="M87.8678 63.8589C87.8508 63.795 87.7741 63.7269 87.7018 63.7014C87.6634 63.6886 87.6379 63.6928 87.6166 63.7014C87.6039 63.7099 87.5528 63.7397 87.5357 63.7482C87.5144 63.761 87.5059 63.7823 87.5187 63.8163L87.7145 64.5018C87.7316 64.5614 87.8082 64.6338 87.8806 64.6593C87.9147 64.6721 87.9445 64.6678 87.9615 64.6593C87.9743 64.6508 88.0296 64.621 88.0424 64.6125C88.0637 64.5997 88.0722 64.5784 88.0594 64.5444L87.8678 63.8589Z" fill="#455A64"/>
<path d="M87.7912 63.9057L87.9871 64.5912C88.0041 64.6508 87.9573 64.6848 87.8849 64.6593C87.8083 64.6337 87.7359 64.5656 87.7189 64.5018L87.523 63.8163C87.506 63.7524 87.5528 63.7226 87.6252 63.7482C87.6976 63.7737 87.7742 63.8461 87.7912 63.9057Z" fill="#37474F"/>
<path d="M88.2086 65.0595C88.1916 64.9956 88.115 64.9275 88.0426 64.902C88.0085 64.8892 87.9787 64.8935 87.9574 64.902C87.9447 64.9105 87.8936 64.9403 87.8765 64.9488C87.8553 64.9616 87.8467 64.9829 87.8595 65.0169L88.0554 65.7024C88.0724 65.7663 88.149 65.8344 88.2214 65.8599C88.2555 65.8727 88.2853 65.8684 88.3023 65.8599C88.3151 65.8514 88.3704 65.8216 88.3832 65.8131C88.4045 65.8003 88.413 65.779 88.4002 65.745L88.2086 65.0595Z" fill="#455A64"/>
<path d="M88.1321 65.1063L88.3279 65.7918C88.345 65.8557 88.2981 65.8855 88.2257 65.8599C88.1491 65.8344 88.0767 65.7663 88.0597 65.7024L87.8639 65.0169C87.8468 64.9573 87.8937 64.9233 87.966 64.9488C88.0384 64.9744 88.1151 65.0467 88.1321 65.1063Z" fill="#37474F"/>
<path d="M88.4129 67.9759C88.4981 67.8354 88.5875 67.6992 88.6726 67.5629C89.0388 67.001 89.456 66.4773 89.8775 65.9536C90.3246 65.3959 90.563 65.9578 90.5971 66.4304C90.6694 67.4437 89.8946 68.1675 89.7413 69.1382C89.703 69.3894 89.703 69.6449 89.6732 69.9003C89.6136 70.4708 89.3624 70.9392 89.2048 71.4756C89.158 71.6417 89.0814 71.8162 88.8642 71.7992C88.6556 71.7822 88.6173 71.5523 88.5321 71.399C88.3704 71.0925 88.2639 70.7646 88.1745 70.4325C88.0596 70.0153 87.9701 69.5895 87.9914 69.1595C88.0127 68.721 88.1958 68.3378 88.4129 67.9759Z" fill="#FFBDA7"/>
<path d="M92.6707 73.2553C93.6116 71.5352 95.2976 68.8913 96.9581 66.1324C98.5717 63.4502 99.4019 63.2926 101.369 62.5135C104.255 65.9834 100.36 72.1356 100.36 72.1356C100.36 72.1356 97.1582 76.0993 95.7617 77.6491C94.8548 78.6581 93.1476 79.548 92.1257 78.3473C91.1039 77.151 91.7298 74.9711 92.6707 73.2553Z" fill="#263238"/>
<path d="M129.861 60.6444L146.989 50.7584C147.717 50.3369 148.896 50.3369 149.62 50.7584L151.928 52.091C152.656 52.5125 153.137 53.5216 153.009 54.3518L151.012 67.035C150.88 67.8652 150.186 68.8785 149.458 69.2958L132.33 79.1861C131.602 79.6076 130.423 79.6076 129.695 79.1903L127.366 77.862C126.638 77.4447 126.152 76.4357 126.284 75.6055L128.302 62.9052C128.439 62.075 129.133 61.0617 129.861 60.6444Z" fill="#37474F"/>
<path d="M127.366 77.862L129.695 79.1903C130.423 79.6075 131.121 79.2712 131.253 78.441L133.25 65.7578C133.382 64.9275 132.896 63.9142 132.168 63.497L129.861 62.1644C129.133 61.7429 128.439 62.075 128.307 62.9052L126.289 75.6055C126.152 76.4357 126.638 77.4447 127.366 77.862Z" fill="black"/>
<path d="M129.86 60.6444L146.989 50.7584C147.717 50.3369 148.896 50.3369 149.62 50.7584L151.927 52.091C152.655 52.5125 152.655 53.1895 151.927 53.611L134.799 63.497C134.071 63.9185 132.892 63.9185 132.168 63.497L129.86 62.1644C129.132 61.7429 129.132 61.0617 129.86 60.6444Z" fill="#455A64"/>
<path d="M151.927 53.6067L134.799 63.4927C134.071 63.9142 133.377 64.9233 133.245 65.7535L131.248 78.4367C131.116 79.267 131.602 79.599 132.33 79.1775L149.458 69.2873C150.186 68.8658 150.88 67.8567 151.012 67.0265L153.009 54.3433C153.136 53.5216 152.655 53.1895 151.927 53.6067Z" fill="#263238"/>
<path d="M108.948 72.7103L126.076 62.82C126.804 62.3985 127.983 62.3985 128.707 62.82L131.014 64.1526C131.743 64.5741 132.224 65.5832 132.096 66.4134L130.099 79.0966C129.967 79.9269 129.273 80.9402 128.545 81.3574L111.417 91.2434C110.689 91.6649 109.51 91.6649 108.782 91.2477L106.453 89.9193C105.725 89.5021 105.239 88.493 105.371 87.6628L107.389 74.9626C107.526 74.1451 108.22 73.1318 108.948 72.7103Z" fill="#37474F"/>
<path d="M106.457 89.9278L108.786 91.2562C109.514 91.6734 110.212 91.3371 110.344 90.5069L112.341 77.8236C112.473 76.9934 111.987 75.9801 111.259 75.5629L108.952 74.2303C108.224 73.8088 107.53 74.1409 107.398 74.9711L105.38 87.6714C105.243 88.5016 105.724 89.5106 106.457 89.9278Z" fill="black"/>
<path d="M108.947 72.7103L126.076 62.82C126.804 62.3985 127.983 62.3985 128.707 62.82L131.014 64.1526C131.742 64.5741 131.742 65.2511 131.014 65.6726L113.886 75.5586C113.158 75.9801 111.979 75.9801 111.255 75.5586L108.947 74.226C108.219 73.813 108.219 73.1318 108.947 72.7103Z" fill="#455A64"/>
<path d="M131.014 65.6768L113.886 75.5629C113.158 75.9844 112.464 76.9934 112.332 77.8236L110.335 90.5069C110.203 91.3371 110.689 91.6692 111.417 91.2477L128.545 81.3617C129.273 80.9402 129.967 79.9311 130.099 79.1009L132.095 66.4177C132.223 65.5874 131.742 65.2553 131.014 65.6768Z" fill="#263238"/>
<path d="M111.468 107.69L153.456 83.4479V64.8977L111.468 89.1402V107.69Z" fill="#263238"/>
<g opacity="0.2">
<path d="M111.468 107.69L153.456 83.4479V64.8977L111.468 89.1402V107.69Z" fill="black"/>
</g>
<path d="M153.456 64.8977L151.634 63.8461L109.642 88.0886L111.468 89.1402L153.456 64.8977Z" fill="black"/>
<path d="M111.468 89.1402V107.686L109.642 106.634V88.0886L111.468 89.1402Z" fill="#263238"/>
<path d="M86.9877 96.5781L86.9834 78.2026C86.9834 77.4234 87.5326 76.474 88.2053 76.0823L88.8567 75.6991C89.5337 75.3074 90.6279 75.3074 91.3006 75.6991L109.506 86.2153C110.183 86.607 110.728 87.5521 110.728 88.3355V106.707C110.728 107.486 110.179 108.435 109.506 108.827L108.854 109.206C108.177 109.598 107.083 109.598 106.411 109.206L88.2053 98.6941C87.5326 98.3067 86.9877 97.3573 86.9877 96.5781Z" fill="#455A64"/>
<path d="M106.415 109.206L88.2096 98.6941C87.5326 98.3024 86.9877 97.3573 86.9877 96.5739L86.9834 78.1983C86.9834 77.4192 87.5326 77.1041 88.2053 77.4916L106.415 88.0034C107.092 88.3951 107.637 89.3403 107.637 90.1237V108.495C107.637 109.283 107.088 109.598 106.415 109.206Z" fill="#37474F"/>
<path d="M88.8564 75.7034L88.205 76.0866C87.528 76.4782 87.528 77.1084 88.205 77.5001L106.415 88.0119C107.091 88.4036 108.186 88.4036 108.858 88.0119L109.51 87.633C110.187 87.2413 110.187 86.6112 109.51 86.2195L91.3045 75.7034C90.6275 75.3159 89.5333 75.3159 88.8564 75.7034Z" fill="#455A64"/>
<path d="M109.51 87.633L108.859 88.0119C108.182 88.4036 107.637 89.3488 107.637 90.1322V108.504C107.637 109.283 108.186 109.598 108.859 109.21L109.51 108.831C110.187 108.44 110.732 107.494 110.732 106.711V88.3398C110.732 87.5564 110.187 87.2413 109.51 87.633Z" fill="#263238"/>
</g>
<defs>
<clipPath id="clip0_1702_5786">
<rect width="164" height="121" fill="white"/>
</clipPath>
</defs>
</svg>
