<svg width="93" height="81" viewBox="0 0 93 81" fill="none" xmlns="http://www.w3.org/2000/svg">
<g clip-path="url(#clip0_1061_6054)">
<mask id="mask0_1061_6054" style="mask-type:luminance" maskUnits="userSpaceOnUse" x="0" y="-6" width="93" height="93">
<path opacity="0.5" d="M0 -5.99999H93V87H0V-5.99999Z" fill="white"/>
</mask>
<g mask="url(#mask0_1061_6054)">
<path d="M91.6374 80.0182V28.967C91.6374 27.8185 90.7063 26.8876 89.5578 26.8876H80.9814" stroke="#1A3C6A" stroke-width="2" stroke-miterlimit="10" stroke-linecap="round" stroke-linejoin="round"/>
<path d="M20.9102 40.0159V52.4774" stroke="#1A3C6A" stroke-width="2" stroke-miterlimit="10" stroke-linecap="round" stroke-linejoin="round"/>
<path d="M53.9411 24.7207L49.6827 20.4623C49.2927 20.0723 48.7638 19.8532 48.2121 19.8532H42.7295" stroke="#1A3C6A" stroke-width="2" stroke-miterlimit="10" stroke-linecap="round" stroke-linejoin="round"/>
<path d="M74.2563 26.8875H63.7949" stroke="#1A3C6A" stroke-width="2" stroke-miterlimit="10" stroke-linecap="round" stroke-linejoin="round"/>
<path d="M46.2128 53.171H3.44591C1.69435 53.171 0.7273 55.2038 1.8324 56.5626L20.2853 79.2515C20.6803 79.7371 21.2729 80.019 21.8988 80.019H91.6377L70.4264 53.9385C70.0316 53.4529 69.4389 53.171 68.8131 53.171H52.9383" stroke="#1A3C6A" stroke-width="2" stroke-miterlimit="10" stroke-linecap="round" stroke-linejoin="round"/>
<path d="M75.8442 73.9015H57.4952C56.9279 73.9015 56.3934 73.6365 56.0497 73.1851L51.3474 67.0064C50.8922 66.4084 51.3187 65.548 52.07 65.548H70.4191C70.9862 65.548 71.5209 65.813 71.8644 66.2644L76.5669 72.4433C77.0219 73.0412 76.5956 73.9015 75.8442 73.9015Z" stroke="#1A3C6A" stroke-width="2" stroke-miterlimit="10" stroke-linecap="round" stroke-linejoin="round"/>
<path d="M46.5 73.9011H38.165" stroke="#1A3C6A" stroke-width="2" stroke-miterlimit="10" stroke-linecap="round" stroke-linejoin="round"/>
<path d="M43.4582 69.3826H39.9204" stroke="#1A3C6A" stroke-width="2" stroke-miterlimit="10" stroke-linecap="round" stroke-linejoin="round"/>
<path d="M34.2818 4.67645C31.0694 2.35235 27.1222 0.981331 22.8542 0.981331C12.0851 0.981331 3.33673 9.72969 3.33691 20.4988C3.33691 31.2779 12.0751 40.0159 22.854 40.0159H38.8638C40.1582 40.0159 40.8065 38.4509 39.8912 37.5356L36.6549 34.2993C40.1869 30.7675 42.3715 25.8881 42.3715 20.4986C42.3715 16.4164 41.1174 12.6278 38.9748 9.49483" stroke="#1A3C6A" stroke-width="2" stroke-miterlimit="10" stroke-linecap="round" stroke-linejoin="round"/>
<path d="M26.707 20.4986L30.3377 16.868C31.4017 15.8039 31.4017 14.0789 30.3377 13.0148C29.2736 11.9508 27.5484 11.9508 26.4845 13.0148L22.8539 16.6455L19.2234 13.0148C18.1594 11.9508 16.4342 11.9508 15.3703 13.0148C14.3063 14.0789 14.3063 15.8039 15.3703 16.868L19.0008 20.4986L15.3703 24.1292C14.3063 25.1933 14.3063 26.9183 15.3703 27.9824C15.9023 28.5144 16.5995 28.7803 17.2968 28.7803C17.9941 28.7803 18.6914 28.5144 19.2234 27.9824L22.8539 24.3518L26.4845 27.9824C27.0166 28.5144 27.7137 28.7803 28.411 28.7803C29.1083 28.7803 29.8056 28.5142 30.3377 27.9824C31.4017 26.9183 31.4017 25.1933 30.3377 24.1292L26.707 20.4986Z" stroke="#F94144" stroke-width="2" stroke-miterlimit="10" stroke-linecap="round" stroke-linejoin="round"/>
<path d="M63.5712 27.665C63.5712 30.4651 61.3013 32.7351 58.5011 32.7351C55.7009 32.7351 53.4312 30.4651 53.4312 27.665C53.4312 24.8648 55.7009 22.5948 58.5011 22.5948C61.3013 22.5948 63.5712 24.8648 63.5712 27.665Z" stroke="#1A3C6A" stroke-width="2" stroke-miterlimit="10" stroke-linecap="round" stroke-linejoin="round"/>
<path d="M80.2583 17.5849C80.2583 19.7947 78.467 21.5859 76.2573 21.5859C74.0477 21.5859 72.2563 19.7947 72.2563 17.5849C72.2563 15.3753 74.0477 13.5839 76.2573 13.5839C78.467 13.5839 80.2583 15.3753 80.2583 17.5849Z" stroke="#1A3C6A" stroke-width="2" stroke-miterlimit="10" stroke-linecap="round" stroke-linejoin="round"/>
<path d="M66.889 8.57152L63.4883 11.9722" stroke="#F94144" stroke-width="2" stroke-miterlimit="10" stroke-linecap="round" stroke-linejoin="round"/>
<path d="M66.889 11.9722L63.4883 8.57155" stroke="#F94144" stroke-width="2" stroke-miterlimit="10" stroke-linecap="round" stroke-linejoin="round"/>
<path d="M10.599 42.1624L6.10596 46.6554" stroke="#F94144" stroke-width="2" stroke-miterlimit="10" stroke-linecap="round" stroke-linejoin="round"/>
<path d="M10.599 46.6555L6.10596 42.1624" stroke="#F94144" stroke-width="2" stroke-miterlimit="10" stroke-linecap="round" stroke-linejoin="round"/>
</g>
</g>
<defs>
<clipPath id="clip0_1061_6054">
<rect width="93" height="81" fill="white"/>
</clipPath>
</defs>
</svg>
