<svg width="380" height="272" viewBox="0 0 380 272" fill="none" xmlns="http://www.w3.org/2000/svg">
<g clip-path="url(#clip0_1764_3427)">
<path fill-rule="evenodd" clip-rule="evenodd" d="M0 -132H380V508H0V-132ZM324.501 253.5C313.182 271.42 282.273 270.062 264.434 258C247.816 246.764 242 211.5 242 211.5C242 211.5 240.955 206.127 239.681 197.5C238.623 190.338 237.407 180.933 236.5 170.5C231.732 140.336 230.961 70.5781 233.5 57.4998C235.183 48.8374 250.232 41.4215 256.096 57.4998C259.156 65.8892 259.253 79.5291 259.364 95.2814C259.466 109.719 259.58 125.93 262.001 141.5C262.456 144.43 263.245 147.332 264.434 148.684C265.92 150.374 267.18 150.609 269.647 151.069L269.786 151.095C269.786 151.095 269.786 84 271.843 55.4986C272.387 47.9691 273.948 39.5 275.411 36.5001C279.09 28.9532 292.655 25.0011 296.817 38.5C300.98 51.9988 296.817 143.684 296.817 143.684C297.97 145.878 297.528 148.845 297.146 151.411C296.976 152.555 296.817 153.62 296.817 154.5L298.5 156.913C299.193 154.188 301.896 149.873 304.949 146L313.5 54C314.167 49.6667 317.001 41 323 41C330.5 41 331.999 41.5 337.5 54C341.9 64 335.778 121.289 332.167 148.684C332.663 149.651 333.114 150.654 333.5 151.684C333.646 152.071 333.805 152.492 333.976 152.944C336.623 159.947 342.077 174.376 343.001 188.181C344.771 214.634 330.501 244 324.501 253.5ZM111.5 249C157.616 249 195 193.707 195 125.5C195 57.2928 157.616 2 111.5 2C65.3842 2 28 57.2928 28 125.5C28 193.707 65.3842 249 111.5 249Z" fill="black" fill-opacity="0.25"/>
<ellipse cx="111.5" cy="125.5" rx="83.5" ry="123.5" stroke="white" stroke-width="3" stroke-dasharray="10 5"/>
<path d="M273.948 151.684C273.948 151.684 276.921 140.185 281.678 136.185C287.03 131.686 293.318 137.022 296.817 143.684M273.948 151.684C273.948 151.684 271.95 151.499 269.786 151.095M273.948 151.684L239.681 197.5M271.843 203C271.843 203 296.817 162.499 296.817 154.5C296.817 151.645 298.483 146.856 296.817 143.684M269.786 151.095C267.227 150.617 265.948 150.405 264.434 148.684C263.245 147.332 262.456 144.43 262.001 141.5C256.94 108.942 261.961 73.5784 256.096 57.5001C250.232 41.4218 235.183 48.8377 233.5 57.5001C230.961 70.5784 231.732 140.336 236.5 170.5C237.407 180.934 238.623 190.338 239.681 197.5M269.786 151.095C269.786 151.095 269.786 84.0002 271.843 55.4988C272.387 47.9693 273.948 39.5002 275.411 36.5004C279.09 28.9534 292.655 25.0014 296.817 38.5002C300.98 51.999 296.817 143.684 296.817 143.684M333.5 151.684C335.9 158.083 342.017 173.486 343.001 188.181C344.771 214.634 330.501 244 324.501 253.5C313.182 271.42 282.273 270.062 264.434 258C247.816 246.764 242 211.5 242 211.5C242 211.5 240.955 206.127 239.681 197.5M333.5 151.684C331.1 145.284 326.167 139.895 324 138C322.167 136.939 317.4 135.453 313 138C308.6 140.548 299.834 151.671 298.5 156.914C297.667 164.276 292.5 187 292.5 187C292.5 187 292.5 189.167 294.5 193.5C296.9 198.7 304.5 195.667 308 193.5L323 164L333.5 151.684Z" stroke="white" stroke-width="3" stroke-dasharray="10 5"/>
<path d="M304.5 146.5L313.85 50.4461C314.976 40.3971 329.5 34.5001 335.298 48.6447C341.095 62.7893 333.5 151 333.5 151" stroke="white" stroke-width="3" stroke-dasharray="10 5"/>
</g>
<defs>
<clipPath id="clip0_1764_3427">
<rect width="380" height="272" fill="white"/>
</clipPath>
</defs>
</svg>
