<svg width="380" height="272" viewBox="0 0 380 272" fill="none" xmlns="http://www.w3.org/2000/svg">
<g clip-path="url(#clip0_1764_3441)">
<path fill-rule="evenodd" clip-rule="evenodd" d="M0 -149H380V491H0V-149ZM195 125.5C195 193.707 157.616 249 111.5 249C65.3842 249 28 193.707 28 125.5C28 57.2928 65.3842 2 111.5 2C157.616 2 195 57.2928 195 125.5ZM258 260.23C269.5 268.23 313 271.23 326 256.73C332.723 249.231 337.667 201.73 336 188.73C337.333 185.73 340 178.83 340 175.23C340 171.63 329 167.73 323.5 166.23L319 172.23V163.73C317.833 159.064 311.9 151.23 297.5 157.23C298 154.397 298.3 148.13 295.5 145.73C294.986 145.289 294.45 144.795 293.881 144.27C290.581 141.222 286.178 137.157 278.5 136.73C276.12 136.598 274.33 137.191 273 138.158L269.5 53.0001C261.5 39.0001 253.5 47.1668 250.5 53.0001C248.5 61.0001 245.518 124.064 249.526 154.23C244.113 167.839 235.384 192.853 231 205.73C231.8 228.93 249.333 251.73 258 260.23Z" fill="black" fill-opacity="0.25"/>
<ellipse cx="111.5" cy="125.5" rx="83.5" ry="123.5" stroke="white" stroke-width="3" stroke-dasharray="10 5"/>
<path d="M267.5 145.73C264.333 142.397 256.9 138.03 252.5 147.23C251.716 148.869 250.699 151.282 249.526 154.23M267.5 145.73C269.5 148.73 273.154 162.809 271.5 173.73C270.381 181.12 264.699 184.263 265 191.73C265.162 195.752 264.833 199.064 267.5 201.73C270.167 204.397 278.5 205.73 278.5 205.73M267.5 145.73H269.5C269.5 143.61 270.307 140.116 273 138.158M278.5 205.73C278.5 205.73 287.5 188.833 289.5 182L297.5 157.23M278.5 205.73C278.5 205.73 289.1 218.4 297.5 212M297.5 157.23C298 154.397 298.3 148.13 295.5 145.73C292 142.73 287.5 137.23 278.5 136.73C276.12 136.598 274.33 137.191 273 138.158M297.5 157.23C311.9 151.23 317.833 159.064 319 163.73V172.23M297.5 212L310.5 187L319 172.23M297.5 212C303.9 225.6 312.167 221.064 316.5 217.23L326 205.73L336 188.73M319 172.23L323.5 166.23C329 167.73 340 171.63 340 175.23C340 178.83 337.333 185.73 336 188.73M336 188.73C337.667 201.73 332.723 249.231 326 256.73C313 271.23 269.5 268.23 258 260.23C249.333 251.73 231.8 228.93 231 205.73C235.384 192.853 244.113 167.839 249.526 154.23M249.526 154.23C245.518 124.064 248.5 61.0001 250.5 53.0001C253.5 47.1668 261.5 39.0001 269.5 53.0001L273 138.158" stroke="white" stroke-width="3" stroke-dasharray="10 5"/>
</g>
<defs>
<clipPath id="clip0_1764_3441">
<rect width="380" height="272" fill="white"/>
</clipPath>
</defs>
</svg>
