<svg width="380" height="272" viewBox="0 0 380 272" fill="none" xmlns="http://www.w3.org/2000/svg">
<g clip-path="url(#clip0_1764_3399)">
<path fill-rule="evenodd" clip-rule="evenodd" d="M0 -132H380V508H0V-132ZM329.633 252.5C317 270.838 281.5 272.646 262.5 258C254.69 251.98 247.5 233.5 243.5 210.5L243.5 189.5C243.5 189.5 248.933 164.625 248.133 160.625C245.133 137.791 239.433 89.0247 240.633 76.6247C241.833 64.2247 249.133 63.1247 252.633 64.1247C254.633 64.7913 258.833 68.2247 259.633 76.6247C260.433 85.0247 267.3 127.125 270.633 147.125C271.8 148.291 272.9 148.8 274.5 146C276.1 143.2 274.5 91.1667 273.5 65.5001C273.333 60.0001 275.243 51.6419 282.133 49.6247C285.137 48.7452 287.349 48.6936 290.133 50.1247C292.846 51.5192 295.051 54.9832 295.5 58C296.934 67.6255 296.902 83.8987 296.871 99.759V99.7597C296.827 122.621 296.784 144.625 301.133 144.625C308.5 144.625 308.5 73.5001 308.5 73.5001C308.833 71.1667 310.8 66.3001 316 65.5001C321.2 64.7001 326.464 68.0464 327.5 71.5C329 76.5 325.933 144.725 325.133 155.125C324.333 165.525 327.8 155.791 329.633 149.625C331.466 143.458 332.621 130.484 333.633 118.125C333.878 115.139 333.975 111.789 334.061 108.801L334.062 108.8C334.173 104.963 334.267 101.724 334.633 100.625C335.633 97.6246 338.215 95.7589 341.633 95.1247C346.185 94.2802 350.862 96.1738 352.133 100.625C354.133 107.625 351.633 148.791 349.633 169.625C349.133 188.458 345.133 230 329.633 252.5ZM111.5 249C157.616 249 195 193.707 195 125.5C195 57.2928 157.616 2 111.5 2C65.3842 2 28 57.2928 28 125.5C28 193.707 65.3842 249 111.5 249Z" fill="black" fill-opacity="0.25"/>
<ellipse cx="111.5" cy="125.5" rx="83.5" ry="123.5" stroke="white" stroke-width="3" stroke-dasharray="10 5"/>
<path d="M243.5 211.5C247.5 234.5 254.69 252.98 262.5 259C281.5 273.646 317 271.838 329.633 253.5C345.133 231 349.133 189.458 349.633 170.625C351.633 149.791 354.133 108.625 352.133 101.625C350.861 97.1738 346.184 95.2802 341.633 96.1247C338.215 96.7589 335.633 98.6246 334.633 101.625C333.981 103.58 334.192 112.302 333.633 119.125C332.621 131.484 331.466 144.458 329.633 150.625C327.8 156.791 324.333 166.525 325.133 156.125C325.933 145.725 329 77.5 327.5 72.5C326.464 69.0465 321.2 65.7001 316 66.5001C310.8 67.3001 308.833 72.1667 308.5 74.5001C308.5 74.5001 308.5 145.625 301.133 145.625C293.766 145.625 299 82.5 295.5 59C295.051 55.9832 292.846 52.5192 290.133 51.1247C287.349 49.6936 285.137 49.7452 282.133 50.6247C275.243 52.6419 273.333 61.0001 273.5 66.5001C274.5 92.1667 276.1 144.2 274.5 147C272.9 149.8 271.8 149.291 270.633 148.125C267.3 128.125 260.433 86.0247 259.633 77.6247C258.833 69.2247 254.633 65.7913 252.633 65.1247C249.133 64.1247 241.833 65.2247 240.633 77.6247C239.433 90.0247 245.133 138.791 248.133 161.625C248.933 165.625 243.5 190.5 243.5 190.5M243.5 211.5C243.5 211.5 291.033 207.483 297 204.5C302.967 201.517 304.509 188.958 295.5 187C284 184.5 243.5 190.5 243.5 190.5M243.5 211.5L243.5 190.5" stroke="white" stroke-width="3" stroke-dasharray="10 5"/>
</g>
<defs>
<clipPath id="clip0_1764_3399">
<rect width="380" height="272" fill="white"/>
</clipPath>
</defs>
</svg>
