<svg width="380" height="272" viewBox="0 0 380 272" fill="none" xmlns="http://www.w3.org/2000/svg">
<path fill-rule="evenodd" clip-rule="evenodd" d="M0 0H380V272H0V0ZM195 127.5C195 195.707 157.616 251 111.5 251C65.3842 251 28 195.707 28 127.5C28 59.2928 65.3842 4 111.5 4C157.616 4 195 59.2928 195 127.5ZM334.633 250.125C322 268.463 278.133 274.77 259.133 260.125C251.324 254.105 236.933 240.225 224.133 210.625C224.133 210.625 208.634 153.625 207.133 147.125C206.053 142.445 211.634 136.658 220.134 140.625C228.744 144.643 238.651 171.079 243.364 185.032C244.049 187.061 247.096 186.793 247.382 184.67C248.743 174.591 250.662 159.269 250.133 156.625C247.133 133.791 241.433 85.0247 242.633 72.6247C243.833 60.2247 251.133 59.1247 254.633 60.1247C256.633 60.7913 260.833 64.2247 261.633 72.6247C262.433 81.0247 269.3 123.125 272.633 143.125C273.8 144.291 274.9 144.8 276.5 142C278.1 139.2 276.5 87.1667 275.5 61.5001C275.333 56.0001 277.243 47.6419 284.133 45.6247C287.137 44.7452 289.349 44.6936 292.133 46.1247C294.846 47.5192 297.051 50.9832 297.5 54C298.934 63.6256 298.902 79.8991 298.871 95.7596C298.827 118.621 298.784 140.625 303.133 140.625C310.5 140.625 310.5 69.5001 310.5 69.5001C310.833 67.1667 312.8 62.3001 318 61.5001C323.2 60.7001 328.464 64.0465 329.5 67.5C331 72.5 327.933 140.725 327.133 151.125C326.333 161.525 329.8 151.791 331.633 145.625C333.467 139.458 334.621 126.484 335.633 114.125C335.878 111.138 335.975 107.787 336.062 104.8C336.173 100.963 336.267 97.7243 336.633 96.6247C337.633 93.6246 340.215 91.7589 343.633 91.1247C348.185 90.2802 352.862 92.1738 354.133 96.6247C356.133 103.625 353.633 144.791 351.633 165.625L351.619 166.168C351.113 185.276 349.986 227.838 334.633 250.125Z" fill="black" fill-opacity="0.25"/>
<ellipse cx="111.5" cy="127.5" rx="83.5" ry="123.5" stroke="white" stroke-width="3" stroke-dasharray="10 5"/>
<path d="M259.133 259.125C278.133 273.77 322 267.463 334.633 249.125C349.986 226.838 351.113 184.276 351.619 165.168L351.633 164.625C353.633 143.791 356.133 102.625 354.133 95.6247C352.862 91.1738 348.185 89.2802 343.633 90.1247C340.215 90.7589 337.633 92.6246 336.633 95.6247C335.981 97.5804 336.192 106.302 335.633 113.125C334.621 125.484 333.467 138.458 331.633 144.625C329.8 150.791 326.333 160.525 327.133 150.125C327.933 139.725 331 71.5 329.5 66.5C328.464 63.0465 323.2 59.7001 318 60.5001C312.8 61.3001 310.833 66.1667 310.5 68.5001C310.5 68.5001 310.5 139.625 303.133 139.625C295.767 139.625 301 76.5 297.5 53C297.051 49.9832 294.846 46.5192 292.133 45.1247C289.349 43.6936 287.137 43.7452 284.133 44.6247C277.243 46.6419 275.333 55.0001 275.5 60.5001C276.5 86.1667 278.1 138.2 276.5 141C274.9 143.8 273.8 143.291 272.633 142.125C269.3 122.125 262.433 80.0247 261.633 71.6247C260.833 63.2247 256.633 59.7913 254.633 59.1247C251.133 58.1247 243.833 59.2247 242.633 71.6247C241.433 84.0247 247.133 132.791 250.133 155.625C250.662 158.269 248.743 173.591 247.382 183.67C247.096 185.793 244.049 186.061 243.364 184.032C238.651 170.079 228.744 143.643 220.134 139.625C211.634 135.658 206.053 141.445 207.133 146.125C208.634 152.625 224.133 209.625 224.133 209.625C236.933 239.225 251.324 253.105 259.133 259.125Z" stroke="white" stroke-width="3" stroke-dasharray="10 5"/>
</svg>
