<svg width="381" height="272" viewBox="0 0 381 272" fill="none" xmlns="http://www.w3.org/2000/svg">
<path fill-rule="evenodd" clip-rule="evenodd" d="M0 0H381V272H0V0ZM195 125.5C195 193.707 157.616 249 111.5 249C65.3842 249 28 193.707 28 125.5C28 57.2928 65.3842 2 111.5 2C157.616 2 195 57.2928 195 125.5ZM255.514 257.675C273.353 269.736 314.383 270.904 329.843 256.405C337.838 248.906 343.717 201.409 341.735 188.411C343.321 185.411 343.519 184.971 341.735 179.681C339.354 172.62 328.059 171.912 328.059 171.912H321.518L318.545 158.683C317.157 154.017 307.842 144.684 299.517 150.184C299.517 147.328 298.483 143.856 296.817 140.684C296.817 140.684 308.436 59.1911 304.274 45.6922C300.111 32.1934 284.517 36.7576 282.867 43.6924C280.489 53.6915 279.299 62.6908 279.299 62.6908L269.785 148.095C267.226 147.617 264.434 146.832 264.434 145.684C264.434 143.564 263.245 138.185 263.245 138.185L253.136 54.4216C243.622 40.4228 234.108 48.5888 230.54 54.4216C228.162 62.421 234.129 123.749 238.896 153.913C232.459 167.521 236.486 205.409 236.486 205.409C236.486 205.409 238.896 246.438 255.514 257.675Z" fill="black" fill-opacity="0.25"/>
<ellipse cx="111.5" cy="125.5" rx="83.5" ry="123.5" stroke="white" stroke-width="3" stroke-dasharray="10 5"/>
<path d="M273.948 148.684C273.948 148.684 253.612 179.211 248.379 188.411C247.447 190.049 240.291 150.965 238.896 153.913M273.948 148.684C273.948 148.684 276.921 137.185 281.678 133.185C287.029 128.686 293.318 134.022 296.817 140.684M273.948 148.684C273.948 148.684 271.95 148.499 269.785 148.095M299.517 150.184C299.517 158.183 282.867 185.181 282.867 185.181L290.597 200.179L295.949 211.678M299.517 150.184C307.842 144.684 317.157 154.017 318.545 158.683L321.518 171.912M299.517 150.184C299.517 147.328 298.483 143.856 296.817 140.684M295.949 211.678L311.409 186.681L321.518 171.912M295.949 211.678C295.949 211.678 313.391 220.741 318.545 216.908L329.843 205.409L341.735 188.411M321.518 171.912H328.059C328.059 171.912 339.354 172.62 341.735 179.681C343.519 184.971 343.321 185.411 341.735 188.411M341.735 188.411C343.717 201.409 337.838 248.906 329.843 256.405C314.382 270.904 273.353 269.736 255.514 257.675C238.896 246.438 236.486 205.409 236.486 205.409C236.486 205.409 232.459 167.521 238.896 153.913M238.896 153.913C234.129 123.749 228.162 62.421 230.54 54.4216C234.108 48.5888 243.622 40.4228 253.136 54.4216L263.245 138.185C263.245 138.185 264.434 143.564 264.434 145.684C264.434 146.832 267.226 147.617 269.785 148.095M269.785 148.095L279.299 62.6908C279.299 62.6908 280.489 53.6915 282.867 43.6924C284.517 36.7576 300.111 32.1934 304.274 45.6922C308.436 59.1911 296.817 140.684 296.817 140.684" stroke="white" stroke-width="3" stroke-dasharray="10 5"/>
</svg>
