<svg width="190" height="186" viewBox="0 0 190 186" fill="none" xmlns="http://www.w3.org/2000/svg">
<path d="M28.533 177.325C-8.17766 167.758 -8.17766 152.243 28.533 142.675C65.2436 133.108 124.762 133.108 161.469 142.675C198.175 152.243 198.179 167.758 161.469 177.325C124.762 186.892 65.2436 186.892 28.533 177.325Z" fill="#ECECEC"/>
<path d="M46.8189 153.663C50.9523 155.214 50.9523 157.73 46.8189 159.281C42.6854 160.832 35.9864 160.832 31.8568 159.281C27.7234 157.73 27.7234 155.214 31.8568 153.663C35.9864 152.112 42.6854 152.112 46.8189 153.663Z" fill="#E0E0E0"/>
<path d="M137.353 137.804C131.513 140.06 131.513 143.718 137.353 145.974C143.197 148.231 152.665 148.231 158.509 145.974C164.353 143.718 164.353 140.06 158.509 137.804C152.665 135.547 143.193 135.547 137.353 137.804Z" fill="#E6E6E6"/>
<path d="M93.8649 159.944C111.195 159.944 125.243 154.448 125.243 147.667C125.243 140.886 111.195 135.389 93.8649 135.389C76.5351 135.389 62.4865 140.886 62.4865 147.667C62.4865 154.448 76.5351 159.944 93.8649 159.944Z" fill="#E6E6E6"/>
<path d="M153.425 53.7916L152.793 54.1619L139.907 46.7994L140.535 46.429L153.425 53.7916Z" fill="#FAFAFA"/>
<path d="M140.535 46.4291L152.793 53.4324V40.7276L140.535 33.728V46.4291Z" fill="white"/>
<path d="M138.72 47.4766L153.98 56.1971V40.0505L138.72 31.3299V47.4766ZM139.907 33.3613L152.793 40.7239V54.1619L139.907 46.7994V33.3613Z" fill="#F0F0F0"/>
<path d="M139.907 46.7994L140.535 46.4291V33.728L139.907 33.3614V46.7994Z" fill="#E0E0E0"/>
<path d="M138.72 31.3299L139.359 30.967L154.619 39.6876L153.98 40.0505L138.72 31.3299Z" fill="#FAFAFA"/>
<path d="M154.619 39.6876L153.98 40.0505V56.1934L154.619 55.8342V39.6876Z" fill="#E0E0E0"/>
<path d="M141.015 46.0475L152.317 52.5084V49.276L149.49 42.8189L147.728 44.435L148.363 47.1399L144.458 38.8795L141.015 42.8189V46.0475Z" fill="#F0F0F0"/>
<path d="M147.838 39.7025C148.299 39.9682 148.673 40.6079 148.673 41.1354C148.673 41.6629 148.299 41.8761 147.838 41.6142C147.377 41.3486 147.002 40.7089 147.002 40.1814C146.999 39.6502 147.373 39.4369 147.838 39.7025Z" fill="#F0F0F0"/>
<path d="M153.425 74.0759L152.793 74.4462L139.907 67.0837L140.535 66.7133L153.425 74.0759Z" fill="#FAFAFA"/>
<path d="M140.535 66.7134L152.793 73.7167V61.0119L140.535 54.0123V66.7134Z" fill="white"/>
<path d="M138.72 67.7609L153.98 76.4814V60.3348L138.72 51.6142V67.7609ZM139.907 53.6457L152.793 61.0082V74.4462L139.907 67.0837V53.6457Z" fill="#F0F0F0"/>
<path d="M139.907 67.0837L140.535 66.7134V54.0123L139.907 53.6457V67.0837Z" fill="#E0E0E0"/>
<path d="M138.72 51.6142L139.359 51.2513L154.619 59.9719L153.98 60.3348L138.72 51.6142Z" fill="#FAFAFA"/>
<path d="M154.619 59.9719L153.98 60.3348V76.4777L154.619 76.1185V59.9719Z" fill="#E0E0E0"/>
<path d="M141.015 66.3318L152.317 72.7927V69.5603L149.49 63.1032L147.728 64.7193L148.363 67.4242L144.458 59.1638L141.015 63.1032V66.3318Z" fill="#F0F0F0"/>
<path d="M147.838 59.9868C148.299 60.2525 148.673 60.8922 148.673 61.4197C148.673 61.9472 148.299 62.1604 147.838 61.8985C147.377 61.6329 147.002 60.9932 147.002 60.4657C147.002 59.9382 147.373 59.7212 147.838 59.9868Z" fill="#F0F0F0"/>
<path d="M137.362 125.851C137.362 125.739 137.437 125.627 137.588 125.541C137.887 125.368 138.375 125.368 138.677 125.541C138.828 125.627 138.904 125.739 138.904 125.851L136.167 141.852C136.163 141.93 136.114 142.005 136.008 142.065C135.797 142.185 135.453 142.185 135.241 142.065C135.139 142.005 135.086 141.927 135.082 141.852L137.362 125.851Z" fill="#455A64"/>
<path d="M158.484 125.851C158.484 125.739 158.409 125.627 158.258 125.541C157.959 125.368 157.471 125.368 157.169 125.541C157.018 125.627 156.942 125.739 156.942 125.851L159.679 141.852C159.683 141.93 159.732 142.005 159.838 142.065C160.049 142.185 160.393 142.185 160.605 142.065C160.707 142.005 160.76 141.927 160.764 141.852L158.484 125.851Z" fill="#455A64"/>
<path d="M148.785 127.063C148.785 126.951 148.709 126.839 148.558 126.753C148.259 126.581 147.772 126.581 147.469 126.753C147.318 126.839 147.243 126.951 147.243 127.063L147.469 146.102C147.473 146.18 147.522 146.255 147.628 146.315C147.84 146.435 148.184 146.435 148.396 146.315C148.498 146.255 148.55 146.176 148.554 146.102L148.785 127.063Z" fill="#455A64"/>
<path d="M161.803 120.58H161.792C161.796 118.563 160.457 116.547 157.766 115.009C152.383 111.934 143.655 111.934 138.273 115.009C135.581 116.547 134.247 118.563 134.247 120.58H134.236V121.661C134.27 123.651 135.615 125.634 138.273 127.153C143.655 130.228 152.383 130.228 157.766 127.153C160.423 125.634 161.773 123.651 161.803 121.661V120.58Z" fill="#1A90CD"/>
<path opacity="0.4" d="M161.803 120.58H161.792C161.796 118.563 160.457 116.547 157.766 115.009C152.383 111.934 143.655 111.934 138.273 115.009C135.581 116.547 134.247 118.563 134.247 120.58H134.236V121.661C134.27 123.651 135.615 125.634 138.273 127.153C143.655 130.228 152.383 130.228 157.766 127.153C160.423 125.634 161.773 123.651 161.803 121.661V120.58Z" fill="white"/>
<path d="M138.269 115.009C132.886 118.084 132.886 123.071 138.269 126.15C143.652 129.226 152.38 129.226 157.762 126.15C163.145 123.075 163.145 118.088 157.762 115.009C152.38 111.934 143.652 111.934 138.269 115.009Z" fill="#1A90CD"/>
<path opacity="0.6" d="M138.269 115.009C132.886 118.084 132.886 123.071 138.269 126.15C143.652 129.226 152.38 129.226 157.762 126.15C163.145 123.075 163.145 118.088 157.762 115.009C152.38 111.934 143.652 111.934 138.269 115.009Z" fill="white"/>
<g opacity="0.05">
<path d="M151.038 117.976C152.754 118.956 152.754 120.55 151.038 121.53C149.322 122.51 146.536 122.51 144.82 121.53C143.104 120.55 143.104 118.956 144.82 117.976C146.536 116.996 149.318 116.996 151.038 117.976Z" fill="black"/>
</g>
<path d="M145.19 119.974C143.693 118.462 142.816 114.691 144.275 113.494H151.695C153.154 114.691 152.278 118.462 150.781 119.974C150.769 119.989 150.754 120 150.739 120.015C150.72 120.03 150.705 120.049 150.686 120.064C150.645 120.105 150.599 120.142 150.55 120.183C150.539 120.194 150.527 120.202 150.516 120.209C150.478 120.239 150.444 120.266 150.403 120.295C150.338 120.34 150.274 120.382 150.21 120.419C148.981 121.122 146.986 121.122 145.753 120.419C145.689 120.382 145.621 120.34 145.557 120.295C145.519 120.269 145.485 120.243 145.451 120.217C145.436 120.206 145.421 120.194 145.405 120.183C145.36 120.146 145.315 120.108 145.277 120.067C145.258 120.049 145.235 120.03 145.216 120.011C145.216 119.996 145.201 119.985 145.19 119.974Z" fill="#EBEBEB"/>
<path d="M151.053 113.012C152.746 113.98 152.746 115.548 151.053 116.517C149.359 117.486 146.615 117.486 144.922 116.517C143.228 115.548 143.228 113.98 144.922 113.012C146.615 112.043 149.359 112.043 151.053 113.012Z" fill="#FAFAFA"/>
<path d="M149.855 113.696C150.886 114.284 150.886 115.237 149.855 115.829C148.823 116.416 147.156 116.416 146.124 115.829C145.092 115.241 145.092 114.284 146.124 113.696C147.152 113.109 148.823 113.109 149.855 113.696Z" fill="#EBEBEB"/>
<path d="M146.124 114.71C147.156 114.123 148.823 114.123 149.855 114.71C150.142 114.875 150.346 115.065 150.471 115.271C150.342 115.477 150.138 115.668 149.855 115.832C148.823 116.42 147.156 116.42 146.124 115.832C145.836 115.668 145.632 115.477 145.508 115.271C145.632 115.065 145.836 114.871 146.124 114.71Z" fill="#E0E0E0"/>
<path d="M149.628 115.267C149.628 115.267 150.353 114.583 150.977 113.49C151.601 112.398 151.714 110.939 151.393 110.759C151.072 110.58 149.76 112.035 149.76 112.035C149.76 112.035 149.953 111.145 149.9 110.172C149.843 109.199 149.605 108.316 149.325 108.141C149.046 107.961 148.414 109.188 148.146 110.075C147.878 110.961 147.715 111.691 147.715 111.691C147.715 111.691 147.53 110.49 147.231 109.648C146.902 108.728 146.608 108.518 146.377 108.608C146.146 108.698 145.995 109.128 145.927 110.359C145.882 111.22 145.984 112.117 145.984 112.117C145.984 112.117 145.523 111.612 145.009 111.126C144.445 110.591 144.203 110.516 144.041 110.617C143.878 110.718 143.837 111.553 144.71 113.116C145.481 114.497 146.358 115.264 146.358 115.264C146.358 115.264 147.56 116.042 149.628 115.267Z" fill="#1A90CD"/>
<path d="M49.67 130.722L48.4216 136.836L47.2103 137.529L46.0129 136.845L44.7551 130.722L47.2103 129.316L49.67 130.722Z" fill="#E0E0E0"/>
<path opacity="0.05" d="M49.67 130.722L48.4216 136.836L47.2103 137.529L46.0129 136.845L44.7551 130.722L47.2103 129.316L49.67 130.722Z" fill="black"/>
<path d="M47.2103 137.529V132.123L49.67 130.722L48.4216 136.836L47.2103 137.529Z" fill="#EBEBEB"/>
<path opacity="0.05" d="M49.67 130.722L48.8625 134.672L47.2103 135.614L45.5673 134.677L44.7551 130.722L47.2103 129.316L49.67 130.722Z" fill="black"/>
<path d="M38.8656 124.549L37.6218 130.667L36.4105 131.356L35.2084 130.671L33.9553 124.549L36.4105 123.148L38.8656 124.549Z" fill="#E0E0E0"/>
<path opacity="0.05" d="M38.8656 124.549L37.6218 130.667L36.4105 131.356L35.2084 130.671L33.9553 124.549L36.4105 123.148L38.8656 124.549Z" fill="black"/>
<path d="M36.4105 131.356V125.954L38.8656 124.549L37.6218 130.667L36.4105 131.356Z" fill="#EBEBEB"/>
<path opacity="0.05" d="M38.8656 124.549L38.0627 128.499L36.4105 129.445L34.7675 128.503L33.9553 124.549L36.4105 123.148L38.8656 124.549Z" fill="black"/>
<path opacity="0.05" d="M85.2161 110.323L83.9676 116.441L82.7563 117.13L81.5589 116.446L80.3012 110.323L82.7563 108.917L85.2161 110.323Z" fill="black"/>
<path d="M82.7563 117.13V111.729L85.2161 110.323L83.9676 116.441L82.7563 117.13Z" fill="#EBEBEB"/>
<path opacity="0.05" d="M85.2161 110.323L84.4085 114.273L82.7563 115.215L81.1134 114.278L80.3012 110.323L82.7563 108.917L85.2161 110.323Z" fill="black"/>
<path d="M47.2103 134.626L33.8254 126.978V98.3022L47.2103 105.955V134.626Z" fill="#E0E0E0"/>
<path d="M47.2103 105.955L85.9122 83.7551V112.427L47.2103 134.626V105.955Z" fill="#EBEBEB"/>
<path d="M85.9122 83.7551L47.2102 105.955L33.8254 98.3022L72.5227 76.1027L85.9122 83.7551Z" fill="#F5F5F5"/>
<path d="M49.1224 120.157L84.0001 100.144L83.9955 110.667L84.3482 110.87L49.4751 130.883L49.1224 130.681V120.157Z" fill="#E0E0E0"/>
<path d="M49.4751 120.359L84.3482 100.346V110.87L49.4751 130.883V120.359Z" fill="#F5F5F5"/>
<path d="M66.1969 113.46L68.8006 111.972C69.1394 111.779 69.4132 111.866 69.4132 112.17C69.4132 112.473 69.1394 112.872 68.8006 113.065L66.1969 114.553C65.8581 114.746 65.5843 114.659 65.5843 114.356C65.5843 114.053 65.8581 113.653 66.1969 113.46Z" fill="#E0E0E0"/>
<path d="M49.1224 107.452L83.9955 87.439V97.9623L84.3482 98.1644L49.4751 118.178L49.1224 117.975V107.452Z" fill="#E0E0E0"/>
<path d="M49.4751 107.654L84.3482 87.6411V98.1644L49.4751 118.178V107.654Z" fill="#F5F5F5"/>
<path d="M66.1923 100.75L68.7959 99.2623C69.1347 99.0693 69.4086 99.1566 69.4086 99.4598C69.4086 99.7629 69.1347 100.163 68.7959 100.355L66.1923 101.844C65.8535 102.037 65.5797 101.949 65.5797 101.646C65.5843 101.348 65.8581 100.948 66.1923 100.75Z" fill="#E0E0E0"/>
<path d="M77.006 79.8003C78.6304 80.7281 78.6304 82.2302 77.006 83.158C75.3816 84.0859 72.7501 84.0859 71.1304 83.158C69.506 82.2302 69.506 80.7281 71.1304 79.8003C72.7548 78.8724 75.3863 78.8724 77.006 79.8003Z" fill="#E0E0E0"/>
<path d="M71.4831 81.6836C70.0676 80.255 69.2415 76.6906 70.6199 75.5606H77.6326C79.011 76.6906 78.1802 80.255 76.7693 81.6836C76.7554 81.6973 76.7415 81.7111 76.7322 81.7249C76.7183 81.7387 76.6997 81.757 76.6858 81.7708C76.644 81.8076 76.6022 81.8443 76.5558 81.8811C76.5465 81.8903 76.5326 81.8994 76.5233 81.9086C76.4908 81.9362 76.4537 81.9637 76.4166 81.9867C76.3563 82.0281 76.2959 82.0694 76.2356 82.1015C75.0753 82.7676 73.1864 82.7676 72.0261 82.1015C71.9658 82.0694 71.9008 82.0281 71.8405 81.9867C71.8034 81.9637 71.7755 81.9362 71.743 81.9132C71.7291 81.904 71.7152 81.8903 71.7013 81.8811C71.6595 81.8443 71.6177 81.8076 71.5759 81.7708C71.5574 81.7525 71.5388 81.7341 71.5203 81.7157C71.5063 81.7065 71.4924 81.6973 71.4831 81.6836Z" fill="#EBEBEB"/>
<path d="M77.0246 75.1059C78.6258 76.02 78.6258 77.5036 77.0246 78.4177C75.4234 79.3318 72.8291 79.3318 71.2279 78.4177C69.6267 77.5036 69.6267 76.02 71.2279 75.1059C72.8291 74.1918 75.4234 74.1918 77.0246 75.1059Z" fill="#FAFAFA"/>
<path d="M75.8875 75.7536C76.8621 76.3094 76.8621 77.2096 75.8875 77.77C74.9129 78.3258 73.3349 78.3258 72.3603 77.77C71.3856 77.2142 71.3856 76.3139 72.3603 75.7536C73.3349 75.1978 74.9175 75.1978 75.8875 75.7536Z" fill="#F5F5F5"/>
<path d="M72.3649 76.709C73.3396 76.1532 74.9175 76.1532 75.8922 76.709C76.1613 76.8651 76.3563 77.0443 76.4769 77.2372C76.3563 77.4301 76.166 77.6139 75.8922 77.7654C74.9175 78.3212 73.3396 78.3212 72.3649 77.7654C72.0958 77.6093 71.9008 77.4301 71.7802 77.2372C71.9008 77.0489 72.0911 76.8651 72.3649 76.709Z" fill="#EBEBEB"/>
<path d="M75.674 77.2418C75.674 77.2418 76.3609 76.5941 76.9503 75.5652C77.5397 74.5363 77.6465 73.1537 77.3448 72.9838C77.0385 72.8138 75.7993 74.1918 75.7993 74.1918C75.7993 74.1918 75.9803 73.3512 75.9293 72.4326C75.8782 71.5139 75.6508 70.6825 75.3863 70.5126C75.1217 70.3426 74.5277 71.5001 74.2724 72.3407C74.0172 73.1813 73.864 73.8703 73.864 73.8703C73.864 73.8703 73.6923 72.7357 73.4092 71.9411C73.0982 71.0684 72.8197 70.8708 72.6016 70.9581C72.3835 71.0454 72.2396 71.4496 72.1793 72.6117C72.1329 73.4247 72.2303 74.2745 72.2303 74.2745C72.2303 74.2745 71.7941 73.7968 71.3068 73.3375C70.773 72.8322 70.5456 72.7633 70.3925 72.8598C70.2393 72.9562 70.1975 73.7463 71.0237 75.2207C71.7523 76.5252 72.5831 77.251 72.5831 77.251C72.5831 77.251 73.7248 77.9675 75.674 77.2418Z" fill="#E0E0E0"/>
<path d="M48.9878 99.8043L49.5076 100.052L59.1611 94.5357L58.6413 94.2877L48.9878 99.8043Z" fill="#FAFAFA"/>
<path d="M58.6412 94.2877L49.4565 99.5378L48.1199 85.9416L57.3046 80.696L58.6412 94.2877Z" fill="white"/>
<path d="M60.145 94.9904L48.714 101.522L47.136 85.4868L58.567 78.9551L60.145 94.9904ZM57.7734 80.425L48.1199 85.9416L49.5076 100.057L59.1611 94.5403L57.7734 80.425Z" fill="#F0F0F0"/>
<path d="M59.1611 94.5357L58.6413 94.2877L57.3046 80.696L57.7734 80.425L59.1611 94.5357Z" fill="#E0E0E0"/>
<path d="M58.567 78.9551L58.0379 78.7117L46.6116 85.2434L47.136 85.4868L58.567 78.9551Z" fill="#FAFAFA"/>
<path d="M46.6116 85.2434L47.136 85.4868L48.714 101.522L48.1849 101.279L46.6116 85.2434Z" fill="#E0E0E0"/>
<path d="M58.2375 94.0306L49.7675 98.8674L49.5447 96.5799L51.1181 89.8507L52.6218 92.1474L52.3108 94.0812L54.8124 86.9431L58.0101 91.7386L58.2375 94.0306Z" fill="#F0F0F0"/>
<path d="M50.9881 87.0164C50.6401 87.2139 50.3894 87.6779 50.4266 88.0499C50.4637 88.422 50.7747 88.569 51.1181 88.3714C51.4615 88.1739 51.7121 87.71 51.6797 87.3379C51.6472 86.9613 51.3362 86.8189 50.9881 87.0164Z" fill="#F0F0F0"/>
<path d="M76.5884 57.835L29.2493 84.9035V48.9469L76.5884 21.8738V57.835Z" fill="white"/>
<path d="M29.2493 84.9081V86.3458L77.8275 58.5653L76.5884 57.835L29.2493 84.9081Z" fill="#FAFAFA"/>
<path d="M80.1666 59.902L26.9334 90.342V47.601L80.1666 17.161V59.902ZM77.8275 21.1664L29.2493 48.9469V86.3458L77.8275 58.5653V21.1664Z" fill="#F0F0F0"/>
<path d="M77.8275 58.5653L76.5884 57.835V21.8738L77.8275 21.1664V58.5653Z" fill="#E0E0E0"/>
<path d="M80.1666 17.161L78.9089 16.4445L25.6757 46.8845L26.9334 47.5964L80.1666 17.161Z" fill="#FAFAFA"/>
<path d="M25.6757 46.8845L26.9334 47.5964V90.3374L25.6757 89.6254V46.8845Z" fill="#E0E0E0"/>
<path d="M29.2493 55.8966V57.5089L77.8275 29.7513L76.5884 28.8465L29.2493 55.8966Z" fill="#FAFAFA"/>
<path d="M51.1228 36.4255L52.3805 35.7089V73.1078L51.1228 72.3958V36.4255Z" fill="#E0E0E0"/>
<path d="M54.7195 34.3768L52.3804 35.7089V73.1078L54.7195 71.7712V34.3768Z" fill="#F0F0F0"/>
<path d="M77.8275 29.7513V32.2455L29.2493 60.1638V57.5089L77.8275 29.7513Z" fill="#F0F0F0"/>
<path d="M45.4659 155.491C48.7204 152.169 50.6293 138.645 47.4579 136.011H31.3098C28.1383 138.645 30.0472 152.165 33.298 155.487C33.3245 155.517 33.3585 155.547 33.3887 155.577C33.4265 155.615 33.4644 155.652 33.5022 155.686C33.5929 155.775 33.6912 155.861 33.797 155.947C33.8235 155.97 33.8499 155.989 33.8764 156.007C33.9557 156.071 34.0351 156.131 34.1221 156.194C34.2619 156.292 34.4018 156.385 34.5417 156.464C37.2179 158.009 41.5573 158.009 44.2336 156.464C44.3772 156.385 44.5171 156.292 44.6569 156.194C44.7363 156.138 44.8119 156.078 44.8837 156.022C44.914 155.996 44.948 155.974 44.9782 155.947C45.0803 155.865 45.1748 155.779 45.2617 155.693C45.3071 155.652 45.3487 155.611 45.3903 155.566C45.4129 155.543 45.4394 155.517 45.4659 155.491Z" fill="#37474F"/>
<path d="M32.7121 134.949C29.0266 137.077 29.0266 140.53 32.7121 142.659C36.3976 144.788 42.37 144.788 46.0555 142.659C49.741 140.53 49.741 137.077 46.0555 134.949C42.3662 132.82 36.3938 132.82 32.7121 134.949Z" fill="#455A64"/>
<path d="M34.4812 135.974C31.7747 137.537 31.7747 140.07 34.4812 141.634C37.1876 143.198 41.5724 143.198 44.2789 141.634C46.9854 140.07 46.9854 137.537 44.2789 135.974C41.5762 134.41 37.1876 134.41 34.4812 135.974Z" fill="#263238"/>
<path d="M44.2789 138.66C41.5725 137.096 37.1877 137.096 34.4812 138.66C33.729 139.094 33.196 139.606 32.8596 140.149C33.1922 140.691 33.729 141.2 34.4812 141.638C37.1877 143.202 41.5725 143.202 44.2789 141.638C45.0312 141.204 45.5641 140.691 45.9006 140.149C45.5679 139.606 45.0312 139.094 44.2789 138.66Z" fill="#FAFAFA"/>
<path d="M38.1742 139.595C38.0646 139.636 37.2065 139.726 37.0894 139.73C35.7323 139.786 34.0729 139.124 32.5798 138.469C31.597 138.039 30.2702 137.451 29.6352 136.445C29.3215 135.948 29.2043 135.263 29.4953 134.806C29.8091 134.316 30.5197 134.178 30.6596 133.587C29.6163 132.902 28.2782 132.865 27.3899 131.941C26.7208 131.245 26.3731 130.351 26.1689 129.393C26.048 128.828 26.048 128.061 26.3466 127.624C26.7019 127.107 27.4239 127.152 28.04 127.216C28.2026 127.231 28.3727 127.246 28.5201 127.19C28.6675 127.133 28.796 126.984 28.7847 126.808C28.7734 126.591 28.5768 126.426 28.3991 126.31C28.0174 126.063 27.6091 125.869 27.2387 125.603C26.8682 125.334 26.5243 124.979 26.3655 124.53C26.1803 123.995 26.2861 123.422 26.4071 122.895C26.615 122.004 26.8456 121.107 27.1517 120.257C27.2273 120.052 27.7679 117.942 27.6923 117.938C29.8507 117.994 32.0771 118.78 34.0843 119.801C35.2069 120.37 36.8059 121.402 37.1272 122.839C37.2179 123.246 37.1801 123.658 37.0894 124.047C37.0478 124.223 36.9608 124.384 36.8966 124.552C36.8588 124.657 36.6925 125.061 36.9722 124.93C37.0327 124.9 37.078 124.84 37.1158 124.784C37.4711 124.272 37.8265 123.759 38.1818 123.25C38.2876 123.097 38.4048 122.936 38.5711 122.876C38.9302 122.745 39.7807 123.149 40.5934 124.185C41.1302 124.874 41.3759 125.794 41.425 126.658C41.5082 128.046 41.1075 129.359 40.7106 130.635C41.0319 130.31 41.3532 129.984 41.6745 129.659C42.8009 128.518 43.0088 131.208 42.971 131.765C42.8614 133.235 42.268 135.401 41.5233 136.572C40.6539 137.923 39.6295 139.056 38.1742 139.595Z" fill="#1A90CD"/>
<path opacity="0.3" d="M38.1742 139.595C38.0646 139.636 37.2065 139.726 37.0894 139.73C35.7323 139.786 34.0729 139.124 32.5798 138.469C31.597 138.039 30.2702 137.451 29.6352 136.445C29.3215 135.948 29.2043 135.263 29.4953 134.806C29.8091 134.316 30.5197 134.178 30.6596 133.587C29.6163 132.902 28.2782 132.865 27.3899 131.941C26.7208 131.245 26.3731 130.351 26.1689 129.393C26.048 128.828 26.048 128.061 26.3466 127.624C26.7019 127.107 27.4239 127.152 28.04 127.216C28.2026 127.231 28.3727 127.246 28.5201 127.19C28.6675 127.133 28.796 126.984 28.7847 126.808C28.7734 126.591 28.5768 126.426 28.3991 126.31C28.0174 126.063 27.6091 125.869 27.2387 125.603C26.8682 125.334 26.5243 124.979 26.3655 124.53C26.1803 123.995 26.2861 123.422 26.4071 122.895C26.615 122.004 26.8456 121.107 27.1517 120.257C27.2273 120.052 27.7679 117.942 27.6923 117.938C29.8507 117.994 32.0771 118.78 34.0843 119.801C35.2069 120.37 36.8059 121.402 37.1272 122.839C37.2179 123.246 37.1801 123.658 37.0894 124.047C37.0478 124.223 36.9608 124.384 36.8966 124.552C36.8588 124.657 36.6925 125.061 36.9722 124.93C37.0327 124.9 37.078 124.84 37.1158 124.784C37.4711 124.272 37.8265 123.759 38.1818 123.25C38.2876 123.097 38.4048 122.936 38.5711 122.876C38.9302 122.745 39.7807 123.149 40.5934 124.185C41.1302 124.874 41.3759 125.794 41.425 126.658C41.5082 128.046 41.1075 129.359 40.7106 130.635C41.0319 130.31 41.3532 129.984 41.6745 129.659C42.8009 128.518 43.0088 131.208 42.971 131.765C42.8614 133.235 42.268 135.401 41.5233 136.572C40.6539 137.923 39.6295 139.056 38.1742 139.595Z" fill="white"/>
<path d="M36.6395 132.39C37.1158 129.468 38.3745 127.537 39.1305 126.385L39.157 126.344C39.2061 126.269 39.1872 126.157 39.1116 126.097C39.0398 126.037 38.9377 126.049 38.8886 126.123L38.8622 126.164C38.1402 127.268 36.9684 129.079 36.424 131.776C34.5492 126.524 31.4722 121.185 29.6881 119.528C29.6125 119.46 29.5029 119.464 29.4462 119.539C29.3895 119.618 29.4046 119.734 29.4802 119.805C31.2417 121.439 34.2808 126.718 36.1217 131.896C33.0069 129.494 29.8809 129.748 29.8468 129.752C29.7599 129.76 29.6994 129.846 29.7146 129.943C29.7259 130.01 29.7675 130.066 29.8204 130.089C29.8468 130.1 29.8733 130.104 29.8998 130.104C29.9338 130.1 33.1921 129.831 36.3182 132.472C37.1498 134.93 37.6903 137.332 37.6714 139.281C37.6714 139.356 37.7092 139.423 37.7659 139.46C37.7886 139.475 37.8151 139.483 37.8415 139.487C37.936 139.498 38.0154 139.423 38.0154 139.318C38.0381 137.335 37.4862 134.889 36.6395 132.39Z" fill="white"/>
<path d="M38.8924 140.841C38.9907 140.882 39.758 141.017 39.8676 141.032C41.0848 141.178 42.5703 140.759 43.9047 140.336C44.7854 140.059 45.9723 139.677 46.5318 138.907C46.8115 138.525 46.9136 137.975 46.649 137.586C46.3655 137.163 45.7266 136.999 45.5981 136.509C46.528 136.026 47.73 136.097 48.5201 135.413C49.1173 134.896 49.4197 134.193 49.6011 133.43C49.707 132.981 49.7032 132.356 49.431 131.978C49.1097 131.533 48.4634 131.518 47.9115 131.522C47.7641 131.522 47.6166 131.522 47.4806 131.466C47.3483 131.41 47.2349 131.279 47.2424 131.136C47.25 130.961 47.4239 130.841 47.5864 130.762C47.9266 130.59 48.2933 130.463 48.6221 130.272C48.9548 130.081 49.2609 129.816 49.397 129.46C49.5596 129.038 49.4613 128.566 49.3479 128.129C49.1551 127.388 48.9434 126.643 48.6637 125.933C48.5957 125.76 48.0967 124.006 48.1647 124.01C46.2294 123.897 44.2373 124.373 42.4418 125.053C41.4401 125.435 40.0113 126.153 39.7316 127.298C39.6522 127.624 39.6862 127.96 39.7731 128.282C39.8109 128.428 39.8903 128.566 39.947 128.705C39.981 128.795 40.1322 129.135 39.8828 129.004C39.8261 128.974 39.7883 128.925 39.7505 128.873C39.4292 128.432 39.1079 127.99 38.7828 127.549C38.6845 127.418 38.5824 127.279 38.4312 127.216C38.1099 127.081 37.3464 127.347 36.6244 128.132C36.1443 128.652 35.9327 129.382 35.8911 130.081C35.823 131.204 36.1935 132.3 36.5564 133.362C36.2653 133.074 35.9742 132.786 35.687 132.498C34.6701 131.488 34.4963 133.658 34.5378 134.114C34.6437 135.315 35.188 137.122 35.8646 138.125C36.6546 139.296 37.5807 140.295 38.8924 140.841Z" fill="#1A90CD"/>
<path opacity="0.5" d="M38.8924 140.841C38.9907 140.882 39.758 141.017 39.8676 141.032C41.0848 141.178 42.5703 140.759 43.9047 140.336C44.7854 140.059 45.9723 139.677 46.5318 138.907C46.8115 138.525 46.9136 137.975 46.649 137.586C46.3655 137.163 45.7266 136.999 45.5981 136.509C46.528 136.026 47.73 136.097 48.5201 135.413C49.1173 134.896 49.4197 134.193 49.6011 133.43C49.707 132.981 49.7032 132.356 49.431 131.978C49.1097 131.533 48.4634 131.518 47.9115 131.522C47.7641 131.522 47.6166 131.522 47.4806 131.466C47.3483 131.41 47.2349 131.279 47.2424 131.136C47.25 130.961 47.4239 130.841 47.5864 130.762C47.9266 130.59 48.2933 130.463 48.6221 130.272C48.9548 130.081 49.2609 129.816 49.397 129.46C49.5596 129.038 49.4613 128.566 49.3479 128.129C49.1551 127.388 48.9434 126.643 48.6637 125.933C48.5957 125.76 48.0967 124.006 48.1647 124.01C46.2294 123.897 44.2373 124.373 42.4418 125.053C41.4401 125.435 40.0113 126.153 39.7316 127.298C39.6522 127.624 39.6862 127.96 39.7731 128.282C39.8109 128.428 39.8903 128.566 39.947 128.705C39.981 128.795 40.1322 129.135 39.8828 129.004C39.8261 128.974 39.7883 128.925 39.7505 128.873C39.4292 128.432 39.1079 127.99 38.7828 127.549C38.6845 127.418 38.5824 127.279 38.4312 127.216C38.1099 127.081 37.3464 127.347 36.6244 128.132C36.1443 128.652 35.9327 129.382 35.8911 130.081C35.823 131.204 36.1935 132.3 36.5564 133.362C36.2653 133.074 35.9742 132.786 35.687 132.498C34.6701 131.488 34.4963 133.658 34.5378 134.114C34.6437 135.315 35.188 137.122 35.8646 138.125C36.6546 139.296 37.5807 140.295 38.8924 140.841Z" fill="white"/>
<path d="M40.2229 135.095C39.7807 132.685 38.6391 131.024 37.9549 130.033L37.9285 129.995C37.8831 129.932 37.902 129.842 37.9663 129.797C38.0305 129.752 38.1213 129.771 38.1666 129.835L38.1893 129.872C38.8432 130.822 39.9054 132.378 40.4082 134.608C42.06 130.478 44.7892 126.363 46.3806 125.147C46.4486 125.098 46.5431 125.106 46.596 125.173C46.6489 125.24 46.6338 125.334 46.5696 125.386C45.0009 126.587 42.3057 130.65 40.6841 134.728C43.4624 133.003 46.2709 133.441 46.2974 133.445C46.3768 133.456 46.4297 133.531 46.4146 133.609C46.407 133.662 46.3654 133.703 46.3201 133.722C46.2974 133.729 46.2747 133.733 46.2483 133.725C46.218 133.722 43.2961 133.261 40.5064 135.181C39.7769 137.115 39.3044 139.03 39.3309 140.616C39.3309 140.676 39.2968 140.729 39.2477 140.755C39.2288 140.766 39.2061 140.77 39.1797 140.77C39.0927 140.77 39.0247 140.702 39.0247 140.62C38.9982 139.011 39.4783 137.062 40.2229 135.095Z" fill="white"/>
<path d="M81.7356 102.259C75.956 105.559 67.5946 113.37 67.5946 127.459C67.5946 141.548 74.323 152.023 87.2053 156.703C94.0962 159.206 105.141 159.337 112.244 156.831C119.483 153.164 124.355 149.397 127.012 142.555C129.745 134.612 124.854 126.299 118.201 121.548C111.548 116.797 112.342 111.384 107.64 105.761C105.111 102.738 101.388 100.153 96.8443 99.6514C91.8811 99.109 86.1317 99.745 81.7356 102.259Z" fill="#1A90CD"/>
<path opacity="0.8" d="M81.7356 102.259C75.956 105.559 67.5946 113.37 67.5946 127.459C67.5946 141.548 74.323 152.023 87.2053 156.703C94.0962 159.206 105.141 159.337 112.244 156.831C119.483 153.164 124.355 149.397 127.012 142.555C129.745 134.612 124.854 126.299 118.201 121.548C111.548 116.797 112.342 111.384 107.64 105.761C105.111 102.738 101.388 100.153 96.8443 99.6514C91.8811 99.109 86.1317 99.745 81.7356 102.259Z" fill="white"/>
<path opacity="0.15" d="M109.152 157.706C100.9 158.66 92.2742 156.651 85.5042 152.094C75.1357 145.113 70.6488 134.047 72.8677 120.935C74.8295 109.352 80.681 102.974 86.5551 100.336C85.2396 100.68 83.9658 101.137 82.7713 101.717C78.0161 105.151 73.7862 111.256 72.1684 120.815C69.9004 134.216 74.4969 145.529 85.1073 152.674C90.2595 156.142 96.4625 158.162 102.775 158.563C104.99 158.439 107.16 158.155 109.152 157.706Z" fill="#1A90CD"/>
<path opacity="0.15" d="M114.157 125.813C109.87 123.467 109.039 120.897 105.319 111.335C101.599 101.769 94.8144 102.495 94.8144 102.495C94.8144 102.495 84.8503 102.828 82.4689 109.857C80.8246 114.709 80.8586 124.275 82.4084 129.434C83.3383 132.528 84.6121 133.987 84.6121 133.987C79.7133 133.033 75.8123 136.303 75.8123 136.303C75.8123 136.303 79.4827 134.945 86.2678 137.639C90.2859 139.232 93.8089 141.26 98.0538 143.363C101.437 145.035 103.539 146.445 103.89 147.182C105.247 150.003 105.803 154.047 107.519 158.031C109.36 157.71 111.046 157.291 112.49 156.707C116.806 154.504 120.269 152.248 122.911 149.3C122.99 148.346 122.934 147.366 122.96 146.412C123.055 142.891 123.1 139.363 122.911 135.847C122.473 127.762 118.443 128.162 114.157 125.813Z" fill="#1A90CD"/>
<path d="M114.867 157.25L115.018 164.571C115.018 164.571 114.765 166.483 112.781 166.887C110.796 167.294 110.513 164.837 110.513 164.837L108.952 156.232L114.867 157.25Z" fill="#FFA8A7"/>
<path d="M110.002 168.604C110.002 168.604 109.999 169.109 110.15 169.442C110.301 169.779 111.22 170.198 111.718 170.43C112.217 170.665 112.83 170.931 113.317 171.919C113.835 172.977 114.86 173.999 115.997 174.492C117.135 174.99 118.817 175.3 120.828 174.911C122.839 174.522 122.987 173.34 122.987 173.34C122.987 173.34 123.074 172.233 122.571 172.064C122.064 171.904 110.002 168.604 110.002 168.604Z" fill="#263238"/>
<path d="M110.411 164.302C110.256 164.328 110.237 164.5 110.218 165.005C110.195 165.506 110.006 166.153 109.949 166.64C109.874 167.287 109.81 168.103 109.991 168.746C110.569 169.7 111.745 169.535 112.871 170.534C113.903 171.451 114.928 173.628 117.577 174.107C120.227 174.586 122.219 173.722 122.696 172.97C123.172 172.218 122.714 171.522 121.006 170.647C119.192 169.715 116.78 166.887 116.78 166.887C116.489 166.501 116.194 166.12 115.922 165.712C115.782 165.502 115.699 165.237 115.619 165.001C115.525 164.724 115.43 164.444 115.336 164.167C115.294 164.04 115.234 163.894 115.102 163.856C114.988 163.823 114.871 163.883 114.769 163.939C114.013 164.346 113.208 164.657 112.372 164.863C112.278 164.885 112.172 164.911 112.112 164.99C112.028 165.098 112.066 165.252 112.096 165.387C112.134 165.562 112.146 165.742 112.131 165.921C112.123 166 112.096 166.101 112.017 166.112C111.941 166.124 111.881 166.049 111.843 165.981C111.715 165.761 111.59 165.54 111.461 165.319C111.318 165.065 111.144 164.941 110.879 164.825C110.713 164.754 110.596 164.672 110.467 164.586L110.411 164.302Z" fill="#455A64"/>
<path d="M115.858 173.512C115.858 173.512 115.793 171.683 117.77 170.643C119.747 169.603 120.968 170.235 121.584 170.658C122.318 171.163 123.376 172.229 122.756 173.022C122.087 173.879 121.006 174.298 118.972 174.354C116.939 174.414 115.858 173.512 115.858 173.512Z" fill="#FAFAFA"/>
<path d="M113.03 167.444C113.102 167.44 113.166 167.407 113.208 167.347C113.431 167.033 114.86 165.843 116.266 166.206C116.334 166.045 116.213 165.88 115.926 165.716C114.451 165.607 113.094 166.726 112.826 167.107C112.754 167.208 112.784 167.343 112.89 167.407C112.936 167.433 112.985 167.444 113.03 167.444Z" fill="#FAFAFA"/>
<path d="M117.09 167.235C117.063 167.025 116.833 166.804 116.685 166.76C115.287 166.752 114.024 167.796 113.771 168.162C113.699 168.263 113.729 168.398 113.835 168.462C113.877 168.488 113.926 168.499 113.975 168.499C114.047 168.495 114.111 168.462 114.157 168.402C114.364 168.095 115.725 166.969 117.09 167.235Z" fill="#FAFAFA"/>
<path d="M119.32 169.446C119.199 169.202 118.984 169.012 118.685 168.873C117.237 168.802 115.911 169.895 115.646 170.269C115.574 170.37 115.604 170.504 115.71 170.568C115.752 170.594 115.801 170.605 115.85 170.605C115.922 170.602 115.986 170.568 116.031 170.508C116.262 170.175 117.846 168.873 119.32 169.446Z" fill="#FAFAFA"/>
<path d="M114.909 169.55C114.981 169.547 115.045 169.513 115.086 169.453C115.306 169.143 116.708 167.979 118.099 168.301C118.042 168.099 117.887 167.93 117.623 167.811C116.224 167.803 114.962 168.847 114.708 169.214C114.637 169.315 114.667 169.449 114.773 169.513C114.814 169.543 114.863 169.554 114.909 169.55Z" fill="#FAFAFA"/>
<path d="M125.735 150.998L126.355 158.293C126.355 158.293 126.226 160.216 124.268 160.748C122.314 161.279 121.872 158.843 121.872 158.843L119.759 150.355L125.735 150.998Z" fill="#FFA8A7"/>
<path d="M121.611 162.637C121.611 162.637 121.637 163.142 121.811 163.464C121.985 163.789 122.926 164.148 123.44 164.35C123.954 164.552 124.582 164.78 125.13 165.738C125.716 166.763 126.801 167.717 127.969 168.14C129.137 168.563 130.834 168.768 132.818 168.252C134.803 167.736 134.871 166.55 134.871 166.55C134.871 166.55 134.89 165.439 134.372 165.304C133.862 165.17 121.611 162.637 121.611 162.637Z" fill="#263238"/>
<path d="M121.743 158.32C121.592 158.357 121.584 158.529 121.596 159.034C121.607 159.535 121.456 160.194 121.433 160.684C121.399 161.335 121.388 162.154 121.611 162.783C122.25 163.699 123.414 163.46 124.601 164.384C125.689 165.233 126.85 167.343 129.526 167.654C132.202 167.964 134.134 166.976 134.561 166.198C134.988 165.416 134.485 164.754 132.728 163.984C130.857 163.168 128.267 160.497 128.267 160.497C127.95 160.13 127.632 159.771 127.334 159.378C127.182 159.176 127.08 158.918 126.986 158.686C126.873 158.413 126.763 158.144 126.649 157.871C126.597 157.747 126.529 157.605 126.396 157.575C126.283 157.549 126.169 157.616 126.067 157.676C125.342 158.133 124.555 158.492 123.735 158.75C123.641 158.78 123.539 158.813 123.486 158.896C123.41 159.012 123.459 159.161 123.493 159.292C123.542 159.464 123.565 159.644 123.561 159.824C123.561 159.902 123.539 160.003 123.459 160.022C123.384 160.04 123.319 159.966 123.278 159.902C123.138 159.689 122.998 159.476 122.854 159.262C122.692 159.019 122.514 158.903 122.242 158.806C122.072 158.742 121.947 158.671 121.815 158.593L121.743 158.32Z" fill="#455A64"/>
<path d="M127.768 167.167C127.768 167.167 127.587 165.345 129.492 164.182C131.397 163.018 132.656 163.572 133.299 163.957C134.062 164.418 135.185 165.413 134.622 166.243C134.009 167.141 132.955 167.627 130.932 167.811C128.906 167.998 127.768 167.167 127.768 167.167Z" fill="#FAFAFA"/>
<path d="M124.559 161.286C124.627 161.279 124.695 161.241 124.733 161.178C124.933 160.849 126.287 159.573 127.712 159.846C127.772 159.681 127.64 159.524 127.337 159.378C125.859 159.363 124.574 160.564 124.332 160.961C124.268 161.066 124.306 161.196 124.416 161.256C124.461 161.283 124.51 161.294 124.559 161.286Z" fill="#FAFAFA"/>
<path d="M128.592 160.826C128.555 160.62 128.309 160.411 128.158 160.377C126.759 160.459 125.572 161.578 125.338 161.96C125.274 162.064 125.311 162.195 125.421 162.255C125.466 162.278 125.515 162.289 125.561 162.281C125.629 162.274 125.697 162.237 125.735 162.173C125.931 161.855 127.213 160.643 128.592 160.826Z" fill="#FAFAFA"/>
<path d="M130.966 162.891C130.83 162.656 130.603 162.48 130.297 162.36C128.846 162.379 127.594 163.553 127.353 163.946C127.288 164.051 127.326 164.182 127.436 164.242C127.481 164.264 127.53 164.275 127.576 164.268C127.644 164.26 127.712 164.223 127.749 164.159C127.957 163.812 129.454 162.409 130.966 162.891Z" fill="#FAFAFA"/>
<path d="M126.57 163.273C126.638 163.265 126.706 163.228 126.744 163.164C126.944 162.839 128.267 161.589 129.677 161.825C129.609 161.627 129.443 161.47 129.167 161.365C127.768 161.447 126.578 162.566 126.347 162.947C126.283 163.052 126.321 163.183 126.43 163.243C126.472 163.269 126.521 163.28 126.57 163.273Z" fill="#FAFAFA"/>
<path d="M96.247 117.485C95.8161 120.445 95.7065 122.113 96.8518 125.05C97.9971 127.983 100.59 132.622 104.862 134.81C108.396 136.621 113.729 138.376 114.761 138.825C116.069 139.397 116.319 139.838 116.58 141.982C116.958 145.098 117.649 146.479 118.984 149.966C119.588 151.541 121.15 155.948 121.15 155.948C122.548 156.266 124.801 155.731 126.151 154.926C126.151 154.926 124.608 136.887 123.607 134.395C122.605 131.907 114.062 128.114 111.159 126.58C108.256 125.05 106.631 124.088 103.308 122.016L96.247 117.485Z" fill="#37474F"/>
<path d="M114.761 138.825C116.069 139.397 116.319 139.838 116.58 141.982C116.848 144.193 117.271 145.536 117.974 147.377C117.763 146.572 117.283 143.759 117.211 143.258C116.878 140.95 116.95 139.397 116.621 138.645C116.292 137.897 113.257 136.475 113.257 136.475L105.705 130.553C106.997 128.967 106.547 126.494 106.547 126.494C106.309 129.607 103.867 130.942 103.867 130.942C105.311 131.978 111.405 137.332 111.862 137.732C113.253 138.256 114.353 138.645 114.761 138.825Z" fill="#263238"/>
<path d="M103.89 126.344C103.89 126.344 102.836 128.005 101.875 129.042L102.488 129.517C102.488 129.517 103.622 128.009 103.89 126.344Z" fill="#37474F"/>
<path d="M87.5984 128.641C88.1843 132.319 89.2351 134.145 90.3048 135.248C91.9151 136.913 93.3553 137.916 97.6267 140.1C101.161 141.911 104.593 144.144 105.565 144.702C106.672 145.338 106.978 145.858 107.05 147.291C107.296 152.102 108.838 157.493 109.708 162.061C109.708 162.061 113.038 163.295 115 161.305C115 161.305 115.612 142.177 114.61 139.689C113.609 137.201 101.875 129.038 101.875 129.038C101.875 129.038 102.696 124.975 103.308 122.016L87.5984 128.641Z" fill="#37474F"/>
<path d="M98.6359 103.479C100.382 103.34 102.389 103.587 103.425 104.9C104.797 106.647 107.591 113.744 108.487 117.283C108.732 118.249 104.196 120.46 104.196 120.46L101.342 114.1L98.6359 103.479Z" fill="#F28F8F"/>
<path d="M98.9308 103.411C100.9 103.288 102.276 103.647 103.183 104.492C104.09 105.338 105.088 107.515 105.599 108.772C106.109 110.029 107.235 113.146 107.235 113.146C107.235 113.146 105.848 114.986 102.079 115.54C100.964 111.937 98.9308 103.411 98.9308 103.411Z" fill="#1A90CD"/>
<path d="M85.251 106.973C85.0846 108.473 85.1224 119.857 87.8705 130.078C92.6598 132.33 104.378 128.447 105.376 122.715C105.376 122.715 103.796 120.344 103.21 118.611C103.077 115.705 102.665 111.036 102.473 109.326C102.091 105.944 100.598 103.699 98.927 103.404L93.412 103.486L90.3275 104.1C90.3313 104.107 85.3568 106.038 85.251 106.973Z" fill="#455A64"/>
<path d="M89.5639 89.7861C89.5639 89.7861 88.1955 89.9246 87.5529 91.2751C87.1447 92.1281 87.4736 93.8303 88.0141 96.0712C88.5546 98.3121 89.0649 99.6627 89.39 100.284C89.7113 100.905 90.3842 101.084 90.3842 101.084L90.3388 98.4319L90.2556 96.5838C90.2556 96.5838 91.9378 97.1 92.3687 94.4027C92.6408 92.708 92.414 92.158 92.414 92.158L89.5639 89.7861Z" fill="#263238"/>
<path d="M91.6014 92.6893C91.59 95.424 93.8202 97.6537 96.5834 97.6649C99.3466 97.6762 101.599 95.4689 101.611 92.7341C101.622 89.9994 99.3919 87.7697 96.6288 87.7585C93.8656 87.7472 91.6165 89.9545 91.6014 92.6893Z" fill="#263238"/>
<path d="M90.8794 96.3742C90.3691 96.5201 90.1347 95.6447 89.7567 95.2519C89.3825 94.8591 88.1767 94.485 87.3413 95.6223C86.4832 96.7932 87.4509 98.7087 88.3694 99.1389C89.7151 99.7712 90.335 98.4244 90.335 98.4244L90.4258 104.421C90.4258 104.421 90.7735 105.547 93.0831 106.37C94.8862 107.014 97.5435 105.981 95.8765 104.264L95.8803 102.446C96.6552 102.596 97.706 102.656 98.4998 102.51C99.3957 102.345 100.099 101.653 100.518 100.261C101.339 97.5489 101.169 93.965 100.133 90.7214C98.7644 89.6552 95.3133 90.3548 92.4103 92.1468C92.3044 95.8542 91.4539 96.2096 90.8794 96.3742Z" fill="#FFA8A7"/>
<path d="M95.0525 98.8845L97.4453 99.4607C97.3092 100.127 96.6628 100.538 96.0013 100.377C95.3398 100.216 94.9164 99.5504 95.0525 98.8845Z" fill="#B16668"/>
<path d="M95.1621 99.6926C95.3133 99.5617 95.5061 99.4756 95.7178 99.4494C96.2546 99.3896 96.7384 99.7487 96.848 100.261C96.5985 100.396 96.3037 100.448 96.0013 100.373C95.6195 100.284 95.3247 100.022 95.1621 99.6926Z" fill="#F28F8F"/>
<path d="M101.199 87.4592C101.161 87.3881 101.1 87.3245 101.021 87.3208C100.961 87.3208 100.904 87.3582 100.851 87.3918C100.67 87.519 100.265 87.852 99.751 88.1139C99.8569 87.6275 99.8644 87.1225 99.7813 86.6361C99.7284 86.3368 99.649 85.641 99.2748 85.5624C99.0517 85.5175 98.8552 85.7009 98.6888 85.8542C97.1731 87.2347 95.215 86.5763 93.4044 86.6174C91.8886 86.6548 90.0553 87.2497 89.3598 88.7012C89.0423 89.3671 88.9818 90.0667 89.598 90.5344C90.1234 90.9309 91.7979 91.9672 92.4216 92.1543C94.0735 92.6481 98.394 93.2654 100.647 90.497C100.98 90.0892 101.327 89.21 101.384 88.6863C101.433 88.2448 101.395 87.8707 101.21 87.4741C101.203 87.4704 101.203 87.4629 101.199 87.4592Z" fill="#263238"/>
<path d="M95.8841 102.45C95.8841 102.45 93.6085 101.866 92.6976 101.275C92.0247 100.837 91.4199 100.13 91.2649 99.7562C91.2649 99.7562 91.488 101.028 92.1268 101.702C93.2419 102.88 95.8803 103.172 95.8803 103.172L95.8841 102.45Z" fill="#F28F8F"/>
<path d="M95.835 95.9478C95.835 96.262 95.5855 96.5127 95.2831 96.5089C94.9807 96.5052 94.735 96.2508 94.735 95.9403C94.735 95.626 94.9845 95.3754 95.2869 95.3791C95.5893 95.3829 95.835 95.6372 95.835 95.9478Z" fill="#263238"/>
<path d="M95.336 93.6058L94.1302 94.1969C93.9714 93.8565 94.1113 93.445 94.4439 93.2803C94.7766 93.1195 95.1772 93.2616 95.336 93.6058Z" fill="#263238"/>
<path d="M100.352 93.8527L99.0555 93.4674C99.15 93.1045 99.5167 92.8987 99.8758 93.0035C100.235 93.112 100.447 93.4898 100.352 93.8527Z" fill="#263238"/>
<path d="M99.9968 95.6148C99.9968 95.9291 99.7473 96.1797 99.4449 96.176C99.1425 96.1722 98.8968 95.9178 98.8968 95.6073C98.8968 95.2931 99.1463 95.0424 99.4487 95.0462C99.7511 95.0462 99.9968 95.3043 99.9968 95.6148Z" fill="#263238"/>
<path d="M97.381 98.2186L99.2029 97.6425L97.3092 94.6421L97.381 98.2186Z" fill="#F28F8F"/>
<path d="M111.023 114.04H111.031L110.637 113.733V113.737C110.55 113.673 110.414 113.658 110.248 113.711L106.2 114.997C105.825 115.117 105.429 115.518 105.319 115.892L102.752 124.448C102.692 124.646 102.726 124.795 102.828 124.874H102.824L103.229 125.188V125.185C103.316 125.252 103.452 125.267 103.622 125.214L107.67 123.928C108.044 123.808 108.441 123.408 108.551 123.033C109.054 121.35 110.615 116.157 111.117 114.477C111.182 114.272 111.14 114.118 111.023 114.04Z" fill="#455A64"/>
<path d="M106.158 115.562C105.954 115.738 105.78 115.978 105.712 116.202L103.145 124.754C103.089 124.945 103.115 125.095 103.206 125.173L102.824 124.878L102.828 124.874C102.726 124.792 102.692 124.646 102.752 124.448L105.319 115.892C105.379 115.682 105.538 115.461 105.731 115.286L106.158 115.562Z" fill="#263238"/>
<path d="M103.142 124.758L105.708 116.202C105.822 115.828 106.215 115.428 106.589 115.308L110.637 114.021C111.012 113.901 111.227 114.107 111.114 114.481C110.611 116.161 109.05 121.357 108.547 123.037C108.434 123.411 108.041 123.812 107.666 123.931L103.618 125.218C103.244 125.338 103.032 125.132 103.142 124.758Z" fill="#37474F"/>
<path d="M110.286 117.253C110.997 117.051 111.427 117.807 111.367 119.128C111.307 120.445 110.509 122.884 108.456 122.259C107.659 122.016 107.092 120.695 107.931 120.115C109.394 119.101 109.889 118.578 109.889 118.578L110.286 117.253Z" fill="#F28F8F"/>
<path d="M84.9637 125.147C84.1396 123.449 82.7108 119.315 82.2269 115.211C81.573 109.655 81.951 107.44 85.9616 106.21C88.8835 108.784 87.9725 115.016 87.9725 115.016C88.4715 117.343 89.2993 121.301 89.8739 122.772C93.6463 122.79 100.568 120.695 101.339 120.291C101.736 120.082 102.178 119.461 102.435 119.128C102.786 118.675 103.047 118.421 103.474 118.2C104 117.927 104.438 117.766 104.816 117.564L104.283 119.348C104.325 119.453 104.563 119.479 104.673 119.513C105.466 119.771 106.328 119.887 107.164 119.827C108.921 119.704 110.573 118.447 110.225 119.992C110.086 120.605 109.829 121.758 108.891 122.536C107.969 123.303 104.533 123.643 103.569 124.081C103.569 124.081 94.7539 127.732 91.144 128.151C87.2808 128.596 86.5702 128.458 84.9637 125.147Z" fill="#FFA8A7"/>
<path d="M86.3245 105.985C84.3815 106.539 82.7259 107.01 82.0001 109.756C81.2744 112.498 82.7221 119.158 82.7221 119.158C82.7221 119.158 86.3622 119.939 88.8495 118.394L88.2825 115.02C88.479 111.099 88.0935 107.874 86.3245 105.985Z" fill="#1A90CD"/>
</svg>
