<svg width="190" height="186" viewBox="0 0 190 186" fill="none" xmlns="http://www.w3.org/2000/svg">
<path d="M37.4547 38.4255L37.5719 80.0007L35.885 80.973L35.7678 39.3978L37.4547 38.4255Z" fill="#E0E0E0"/>
<path d="M37.5836 83.5794L37.5895 87.2929L35.9084 88.2653L35.8967 84.5517L37.5836 83.5794Z" fill="#E0E0E0"/>
<path d="M39.8212 78.7063L39.8329 82.4315L38.146 83.4039L38.1343 79.6786L39.8212 78.7063Z" fill="#E0E0E0"/>
<path d="M33.2199 86.0982L33.2316 89.8118L31.5447 90.7841L31.533 87.0705L33.2199 86.0982Z" fill="#E0E0E0"/>
<path d="M33.1028 44.974L33.1145 48.6876L31.4276 49.6599L31.4218 45.9463L33.1028 44.974Z" fill="#E0E0E0"/>
<path d="M33.132 54.0587L33.1495 61.7377L31.4685 62.71L31.4451 55.0311L33.132 54.0587Z" fill="#E0E0E0"/>
<path d="M33.1613 65.8085L33.1964 77.5524L31.5095 78.5247L31.4802 66.7808L33.1613 65.8085Z" fill="#E0E0E0"/>
<path d="M101.809 68.866L101.821 72.5854L100.14 73.5577L100.128 69.8383L101.809 68.866Z" fill="#E0E0E0"/>
<path d="M108.422 65.0531L108.434 68.7666L106.747 69.7389L106.735 66.0254L108.422 65.0531Z" fill="#E0E0E0"/>
<path d="M108.387 52.5182L108.41 61.1402L106.723 62.1125L106.7 53.4905L108.387 52.5182Z" fill="#E0E0E0"/>
<path d="M101.833 76.4629L101.844 80.1764L100.157 81.1488L100.151 77.4352L101.833 76.4629Z" fill="#E0E0E0"/>
<path d="M108.457 77.5759L108.539 105.726L106.852 106.698L106.77 78.5482L108.457 77.5759Z" fill="#E0E0E0"/>
<path d="M101.914 105.164L101.95 117.716L100.269 118.688L100.228 106.136L101.914 105.164Z" fill="#E0E0E0"/>
<path d="M101.868 89.3664L101.891 96.5826L100.204 97.5549L100.187 90.3387L101.868 89.3664Z" fill="#E0E0E0"/>
<path d="M72.4815 81.8514L72.4932 85.5649L70.8063 86.5372L70.8004 82.8237L72.4815 81.8514Z" fill="#E0E0E0"/>
<path d="M79.2642 139.089L79.2759 142.814L77.589 143.787L77.5831 140.061L79.2642 139.089Z" fill="#E0E0E0"/>
<path d="M72.5049 89.8702L72.5166 93.5954L70.8297 94.5677L70.818 90.8425L72.5049 89.8702Z" fill="#E0E0E0"/>
<path d="M76.8275 74.2371L77.0032 136.137L75.3222 137.109L75.1465 75.2094L76.8275 74.2371Z" fill="#E0E0E0"/>
<path d="M72.5752 114.032L72.6104 126.59L70.9234 127.562L70.8883 115.004L72.5752 114.032Z" fill="#E0E0E0"/>
<path d="M72.5282 98.3866L72.5516 105.907L70.8647 106.88L70.8472 99.3589L72.5282 98.3866Z" fill="#E0E0E0"/>
<path d="M67.5673 16.894L67.579 20.6075L65.8921 21.5798L65.8804 17.8663L67.5673 16.894Z" fill="#E0E0E0"/>
<path d="M74.2739 47.932L74.2857 51.6514L72.5988 52.6237L72.587 48.9043L74.2739 47.932Z" fill="#E0E0E0"/>
<path d="M74.2974 56.0558L74.3091 59.7752L72.6222 60.7475L72.6105 57.0281L74.2974 56.0558Z" fill="#E0E0E0"/>
<path d="M71.9309 14.9318L72.0246 49.2321L70.3436 50.2045L70.244 15.9041L71.9309 14.9318Z" fill="#E0E0E0"/>
<path d="M67.6552 47.8205L67.7079 67.7412L66.0268 68.7135L65.9683 48.7928L67.6552 47.8205Z" fill="#E0E0E0"/>
<path d="M67.5965 27.2498L67.6433 43.2989L65.9564 44.277L65.9095 28.2222L67.5965 27.2498Z" fill="#E0E0E0"/>
<g opacity="0.5">
<path d="M104.184 13L104.202 19.1261L96.8747 23.3536L96.8562 17.2312L104.184 13Z" fill="#1A90CD"/>
<path d="M88.4154 93L88.4329 99.197L81.0176 103.479L81 97.2817L88.4154 93Z" fill="#455A64"/>
<path d="M105.986 38L106 42.7311L100.014 46L100 41.2689L105.986 38Z" fill="#455A64"/>
<path d="M25.0549 56.8702L25.0666 61.0992L20.0117 64.0161L20 59.793L25.0549 56.8702Z" fill="#E0E0E0"/>
<path d="M50.1299 46.3913L50.1475 52.5884L42.7322 56.87L42.7146 50.673L50.1299 46.3913Z" fill="#455A64"/>
<path d="M122.444 43.9197L122.456 47.6977L117.928 50.31L117.917 46.5321L122.444 43.9197Z" fill="#1A90CD"/>
<path d="M30.5277 33L30.5394 36.778L26.0117 39.3903L26 35.6124L30.5277 33Z" fill="#1A90CD"/>
<path d="M78.8777 31.5197L78.8835 33.5814L76.4176 35.0048L76.4117 32.943L78.8777 31.5197Z" fill="#1A90CD"/>
<path d="M57.926 46.3913L57.9319 48.4531L55.4659 49.8764L55.4601 47.8147L57.926 46.3913Z" fill="#1A90CD"/>
<path d="M104.316 90.4443L104.334 96.6413L96.9182 100.923L96.9006 94.7259L104.316 90.4443Z" fill="#455A64"/>
<path d="M112.112 90.4443L112.118 92.506L109.646 93.9294L109.64 91.8676L112.112 90.4443Z" fill="#1A90CD"/>
<path d="M31.2403 103.594L31.2579 109.791L23.8425 114.073L23.825 107.876L31.2403 103.594Z" fill="#1A90CD"/>
<path d="M39.0364 103.594L39.0422 105.656L36.5704 107.085L36.5646 105.023L39.0364 103.594Z" fill="#1A90CD"/>
<path d="M125.098 36.0651L125.109 39.8489L120.588 42.4613L120.576 38.6775L125.098 36.0651Z" fill="#E0E0E0"/>
</g>
<path d="M28.533 177.825C-8.17766 168.258 -8.17766 152.743 28.533 143.175C65.2436 133.608 124.762 133.608 161.469 143.175C198.175 152.743 198.179 168.258 161.469 177.825C124.762 187.392 65.2436 187.392 28.533 177.825Z" fill="#ECECEC"/>
<path d="M91.3901 41.6695L90.2432 41L62.4476 57.0515C62.3334 57.119 62.2192 57.1657 62.1102 57.2072C62.0895 57.2124 62.0687 57.2228 62.048 57.228C61.9857 57.2487 61.9234 57.2591 61.8611 57.2695C61.7989 57.093 61.7573 56.901 61.7573 56.6675C61.7573 56.0862 61.5498 55.6814 61.2176 55.4894C61.2176 55.4894 61.2176 55.4894 61.2228 55.4894L60.0759 54.82C60.0707 54.82 60.0707 54.8148 60.0655 54.8148C60.0344 54.7992 60.0033 54.7836 59.9721 54.7681C59.941 54.7525 59.9098 54.7421 59.8735 54.7317C59.8528 54.7266 59.832 54.7214 59.806 54.7162C59.8009 54.7162 59.7957 54.7162 59.7905 54.711C59.7853 54.711 59.7749 54.7058 59.7697 54.7058C59.7334 54.7006 59.6971 54.6954 59.6607 54.6954C59.6192 54.6954 59.5829 54.6902 59.5414 54.6954C59.5258 54.6954 59.5154 54.7006 59.4999 54.7006C59.4895 54.7006 59.4843 54.7006 59.4739 54.7058C59.4532 54.7058 59.4272 54.711 59.4065 54.711C59.3546 54.7214 59.2975 54.7317 59.2456 54.7473C59.2248 54.7525 59.1989 54.7629 59.1729 54.7733C59.1522 54.7784 59.1314 54.7888 59.1106 54.794C59.0847 54.8044 59.0587 54.8096 59.0276 54.82C58.9446 54.8563 58.8563 54.8978 58.7681 54.9497L45.0052 62.895L45.0156 67.1142L45.0208 68.505L45.1142 108.678L46.2611 109.347L91.4887 83.2331L91.3901 41.6695ZM60.3146 55.4427C60.3458 55.4323 60.3717 55.4323 60.4029 55.422C60.3717 55.4271 60.3458 55.4323 60.3146 55.4427ZM60.6364 55.3701C60.6416 55.3701 60.6416 55.3701 60.6364 55.3701C60.6831 55.3649 60.7194 55.3753 60.7609 55.3753C60.7194 55.3753 60.6831 55.3701 60.6364 55.3701ZM60.9478 55.3908H60.953C60.9945 55.4012 61.0256 55.422 61.0619 55.4323C61.0204 55.4168 60.9893 55.396 60.9478 55.3908ZM62.5566 57.9493C62.5617 57.9493 62.5617 57.9493 62.5669 57.9493H62.5721C62.5669 57.9493 62.5617 57.9493 62.5566 57.9493ZM62.8627 57.9649C62.8731 57.9649 62.8783 57.9649 62.8887 57.9649H62.8939C62.8835 57.9649 62.8731 57.9649 62.8627 57.9649Z" fill="#1A90CD"/>
<path opacity="0.4" d="M91.3901 41.6696L63.5945 57.7211C63.4803 57.7885 63.3661 57.8352 63.2572 57.8768C63.2364 57.8871 63.2156 57.8923 63.1949 57.8975C63.0911 57.9287 62.9925 57.9546 62.8991 57.965C62.8887 57.965 62.8783 57.965 62.8731 57.9702C62.7693 57.9806 62.6707 57.9754 62.5773 57.9546C62.5721 57.9546 62.5669 57.9546 62.5617 57.9494C62.4683 57.9287 62.3801 57.8975 62.2971 57.8508C62.0947 57.7366 61.9494 57.5342 61.856 57.2696C61.7937 57.0931 61.7522 56.9011 61.7522 56.6676C61.7522 56.0863 61.5446 55.6815 61.2124 55.4895C61.1657 55.4636 61.1138 55.448 61.0619 55.4325C61.0256 55.4169 60.9893 55.3961 60.9478 55.3909C60.8907 55.3806 60.8284 55.3806 60.7661 55.3806C60.7246 55.3806 60.6883 55.3702 60.6416 55.3754C60.5637 55.3806 60.4859 55.4013 60.4029 55.4221C60.3717 55.4273 60.3458 55.4324 60.3146 55.4428C60.1849 55.4843 60.05 55.5414 59.915 55.6193L46.147 63.5646L46.1574 67.7837L46.1625 69.1746L46.256 109.347L91.4835 83.2333L91.3901 41.6696Z" fill="black"/>
<path opacity="0.1" d="M46.1625 67.7836L46.1469 63.5644L45 62.8949L45.0104 67.1141L45.0156 68.5049L45.109 108.683L46.2559 109.347L46.1625 69.1744V67.7836Z" fill="black"/>
<path opacity="0.2" d="M46.1625 67.7836L46.1469 63.5644L45 62.8949L45.0104 67.1141L45.0156 68.5049L45.109 108.683L46.2559 109.347L46.1625 69.1744V67.7836Z" fill="black"/>
<path d="M49.3021 106.955V69.1278L88.3644 46.5737V84.4008L49.3021 106.955Z" fill="#FAFAFA"/>
<path d="M67.6632 68.5257L67.6684 69.683L52.4628 78.4586V77.3014L67.6632 68.5257Z" fill="#E0E0E0"/>
<path d="M85.3441 56.2573V57.4094L52.4575 76.3982L52.4523 75.2462L85.3441 56.2573Z" fill="#E0E0E0"/>
<path d="M85.3391 54.192V55.3493L52.4525 74.3381L52.4473 73.1808L85.3391 54.192Z" fill="#E0E0E0"/>
<path d="M74.9286 57.3682L74.9337 58.5255L62.8419 65.5055V64.3482L74.9286 57.3682Z" fill="#E0E0E0"/>
<path d="M96.4395 52.8272L51.2119 78.9414L46.2559 109.347L47.3924 110.006L92.6044 83.9909L97.5708 53.7146L96.4395 52.8272Z" fill="#1A90CD"/>
<path opacity="0.2" d="M51.212 78.9413L46.2559 109.347L47.3924 110.006L52.3433 79.8288L51.212 78.9413Z" fill="black"/>
<path opacity="0.2" d="M97.5708 53.7146L96.4395 52.8272L51.2119 78.9414L52.3433 79.8288L97.5708 53.7146Z" fill="white"/>
<path d="M82.0548 76.1093L73.1636 80.9515C72.715 78.5682 70.8567 77.6058 68.6352 78.8151C66.0773 80.2108 64 83.9495 64 87.1693C64 90.389 66.072 91.8704 68.6352 90.4746C70.878 89.2553 72.747 86.232 73.1743 83.3398L78.242 80.5786V82.7453C78.242 83.4053 78.6692 83.7127 79.1925 83.4255C79.7158 83.1383 80.1431 82.3724 80.1431 81.7073V79.5407L82.0495 78.5027C82.5728 78.2155 83 77.4496 83 76.7845C83 76.1194 82.5835 75.8221 82.0548 76.1093ZM68.6405 88.4692C66.9637 89.3863 65.602 88.4138 65.602 86.3026C65.602 84.1914 66.9637 81.7375 68.6405 80.8205C70.3173 79.9034 71.679 80.8759 71.679 82.9871C71.679 85.1034 70.3173 87.5522 68.6405 88.4692Z" fill="#FAFAFA"/>
<path d="M120.936 112.834C120.891 112.649 120.771 112.494 120.606 112.4L88.171 94.6395L119.977 113.762C120.502 114.077 121.131 113.593 120.976 113.004C120.966 112.949 120.951 112.889 120.936 112.834ZM145.135 75.921L123.791 64.3854L144.436 77.094C144.586 77.1888 144.766 77.2188 144.94 77.1838C144.95 77.1838 144.955 77.1789 144.965 77.1789C145.584 77.0491 145.694 76.2155 145.135 75.921ZM135.786 81.6264L95.7982 59.3938L135.012 82.8793C135.262 83.029 135.576 82.9991 135.796 82.8094C135.826 82.7844 135.856 82.7595 135.886 82.7345C136.25 82.43 136.2 81.856 135.786 81.6264ZM122.234 101.428C122.613 101.658 123.102 101.463 123.227 101.039C123.292 100.809 123.362 100.579 123.437 100.355L68 69.2272L122.234 101.428ZM128.169 89.9124L98.8031 73.8195L127.41 91.2052C127.719 91.3899 128.114 91.3001 128.313 91.0006C128.338 90.9607 128.368 90.9207 128.393 90.8858C128.618 90.5613 128.518 90.1071 128.169 89.9124Z" fill="#F5F5F5"/>
<path d="M119.45 92.5681C115.077 91.4599 110.335 93.232 103.272 89.2586C97.3373 85.9193 92.2409 78.2771 91.0329 83.119C90.6136 85.4401 94.2874 91.0856 96.4288 92.8526C91.587 90.7112 90.2592 91.4949 91.9763 95.1188C94.1926 99.7959 99.4587 103.205 99.4587 103.205C99.4587 103.205 95.8797 104.014 98.9895 107.049C103.093 111.057 111.139 110.727 111.139 110.727C111.139 110.727 104.939 112.43 108.159 114.017C108.833 114.346 109.881 114.586 111.154 114.671C121.192 115.335 129.059 103.754 124.816 95.9773C123.658 93.8509 121.187 93.0123 119.45 92.5681Z" fill="#1A90CD"/>
<path opacity="0.65" d="M119.45 92.5681C115.077 91.4599 110.335 93.232 103.272 89.2586C97.3373 85.9193 92.2409 78.2771 91.0329 83.119C90.6136 85.4401 94.2874 91.0856 96.4288 92.8526C91.587 90.7112 90.2592 91.4949 91.9763 95.1188C94.1926 99.7959 99.4587 103.205 99.4587 103.205C99.4587 103.205 95.8797 104.014 98.9895 107.049C103.093 111.057 111.139 110.727 111.139 110.727C111.139 110.727 104.939 112.43 108.159 114.017C108.833 114.346 109.881 114.586 111.154 114.671C121.192 115.335 129.059 103.754 124.816 95.9773C123.658 93.8509 121.187 93.0123 119.45 92.5681Z" fill="white"/>
<path opacity="0.4" d="M120.498 96.6112C117.768 95.6179 114.868 95.1886 112.067 94.4049C108.339 93.3617 104.815 91.7045 101.31 90.0523L98.8197 88.3152C98.071 89.648 98.5302 91.5747 99.3139 92.8875C100.098 94.1953 101.345 95.1637 102.628 95.9823C101.989 96.6661 101.989 97.7793 102.429 98.6079C102.863 99.4365 103.652 100.025 104.465 100.485C105.663 101.164 106.981 101.633 108.344 101.857C107.3 102.227 107.39 103.145 107.49 103.565C107.68 104.393 108.299 105.102 109.018 105.526C109.981 106.095 111.124 106.26 112.237 106.385C113.385 106.51 114.508 106.42 115.691 106.355C115.307 106.919 115.706 107.718 116.27 108.102C117.883 109.215 120.129 109.155 121.936 108.591C122.61 108.381 123.249 108.087 123.853 107.728C125.335 105.361 126.134 102.661 125.979 100.065C124.531 98.4781 122.54 97.355 120.498 96.6112Z" fill="#1A90CD"/>
<path d="M116.665 92.5132C113.874 92.1089 111.099 91.5698 108.379 90.831C105.668 90.0972 103.167 89.0191 100.557 88.0158C100.197 87.876 99.8131 87.7462 99.4387 87.8361C98.8597 87.9758 98.5851 88.6347 98.5552 89.2287C98.5053 90.1572 98.9445 91.3601 99.279 91.8543C100.537 93.7012 102.054 94.7394 104.106 95.3834C103.407 95.573 102.898 96.4166 102.973 97.1653C103.093 98.3733 103.931 98.9823 104.615 99.4216C106.337 100.525 108.643 100.974 110.68 101.174C109.901 101.503 109.033 101.932 108.803 102.741C108.279 104.578 110.73 105.192 112.018 105.431C113.745 105.751 115.517 105.616 117.254 105.481C116.73 105.861 116.849 106.734 117.324 107.178C118.781 108.541 122.006 107.812 123.423 106.669C125.36 105.107 126.224 102.776 125.944 99.7161C125.515 97.5497 124.017 95.1487 122.14 93.9807C120.573 93.0073 118.666 92.7977 116.834 92.5381C116.779 92.5332 116.725 92.5232 116.665 92.5132Z" fill="#1A90CD"/>
<path opacity="0.75" d="M116.665 92.5132C113.874 92.1089 111.099 91.5698 108.379 90.831C105.668 90.0972 103.167 89.0191 100.557 88.0158C100.197 87.876 99.8131 87.7462 99.4387 87.8361C98.8597 87.9758 98.5851 88.6347 98.5552 89.2287C98.5053 90.1572 98.9445 91.3601 99.279 91.8543C100.537 93.7012 102.054 94.7394 104.106 95.3834C103.407 95.573 102.898 96.4166 102.973 97.1653C103.093 98.3733 103.931 98.9823 104.615 99.4216C106.337 100.525 108.643 100.974 110.68 101.174C109.901 101.503 109.033 101.932 108.803 102.741C108.279 104.578 110.73 105.192 112.018 105.431C113.745 105.751 115.517 105.616 117.254 105.481C116.73 105.861 116.849 106.734 117.324 107.178C118.781 108.541 122.006 107.812 123.423 106.669C125.36 105.107 126.224 102.776 125.944 99.7161C125.515 97.5497 124.017 95.1487 122.14 93.9807C120.573 93.0073 118.666 92.7977 116.834 92.5381C116.779 92.5332 116.725 92.5232 116.665 92.5132Z" fill="white"/>
<path opacity="0.4" d="M124.816 95.9723C123.658 93.8458 121.182 93.0073 119.45 92.568C115.077 91.4599 110.335 93.2319 103.272 89.2586C98.9695 86.8376 95.1061 82.1555 92.8499 81.6065L92.9197 82.4101C95.0561 83.1888 96.6534 85.8942 99.9679 88.7345C103.282 91.5747 107.49 93.3966 113.475 93.9157C119.46 94.4349 122.46 93.9008 124.746 97.3899C125.111 97.9439 125.385 98.0538 125.595 97.8491C125.405 97.2102 125.15 96.5812 124.816 95.9723Z" fill="#1A90CD"/>
<path d="M125.949 99.7211C125.809 96.172 123.683 91.7295 117.663 91.6796C109.592 91.6147 103.787 89.4184 97.4572 83.5383C94.3824 80.6781 90.9981 80.4186 91.0081 83.6781C91.2227 81.7763 93.5189 81.8212 96.0895 84.5167C99.0695 87.6364 102.434 90.9009 109.302 92.5032C116.171 94.1055 118.701 93.1222 121.267 94.2253C123.214 95.0589 124.946 97.2053 125.949 99.7211Z" fill="#1A90CD"/>
<path opacity="0.9" d="M125.949 99.7211C125.809 96.172 123.683 91.7295 117.663 91.6796C109.592 91.6147 103.787 89.4184 97.4572 83.5383C94.3824 80.6781 90.9981 80.4186 91.0081 83.6781C91.2227 81.7763 93.5189 81.8212 96.0895 84.5167C99.0695 87.6364 102.434 90.9009 109.302 92.5032C116.171 94.1055 118.701 93.1222 121.267 94.2253C123.214 95.0589 124.946 97.2053 125.949 99.7211Z" fill="white"/>
<path d="M150.593 77.758C152.479 73.9245 156.662 71.6034 158.15 64.0611C159.398 57.7218 157.047 49.3259 161.255 51.4523C163.176 52.5854 164.968 58.7251 164.923 61.3557C166.356 56.5438 167.739 56.0746 169.281 59.5537C171.273 64.0411 170.484 69.9462 170.484 69.9462C170.484 69.9462 172.99 68.2391 173.04 72.3621C173.095 77.2838 167.749 84.2321 167.749 84.2321C169.226 82.9193 172.725 81.332 171.497 84.7113C171.003 86.069 168.348 89.1289 162.977 91.4799C156.543 94.3002 149.884 89.3535 149.744 83.733C149.684 81.4318 149.844 79.2755 150.593 77.758Z" fill="#1A90CD"/>
<path opacity="0.65" d="M150.593 77.758C152.479 73.9245 156.662 71.6034 158.15 64.0611C159.398 57.7218 157.047 49.3259 161.255 51.4523C163.176 52.5854 164.968 58.7251 164.923 61.3557C166.356 56.5438 167.739 56.0746 169.281 59.5537C171.273 64.0411 170.484 69.9462 170.484 69.9462C170.484 69.9462 172.99 68.2391 173.04 72.3621C173.095 77.2838 167.749 84.2321 167.749 84.2321C169.226 82.9193 172.725 81.332 171.497 84.7113C171.003 86.069 168.348 89.1289 162.977 91.4799C156.543 94.3002 149.884 89.3535 149.744 83.733C149.684 81.4318 149.844 79.2755 150.593 77.758Z" fill="white"/>
<path opacity="0.4" d="M152.849 81.0125C153.812 78.4318 155.285 76.0758 156.443 73.58C157.985 70.2506 158.959 66.6866 159.927 63.1426L160.211 60.2774C161.624 60.5619 162.727 62.0844 163.186 63.462C163.646 64.8397 163.571 66.3322 163.371 67.7648C164.255 67.7249 165.053 68.4187 165.378 69.2423C165.702 70.0709 165.642 70.9994 165.473 71.8729C165.223 73.1557 164.749 74.3936 164.08 75.5167C164.983 74.9976 165.587 75.6316 165.832 75.956C166.311 76.6049 166.436 77.4884 166.301 78.2721C166.116 79.3203 165.532 80.2438 164.938 81.1173C164.325 82.0208 163.571 82.7745 162.797 83.5882C163.436 83.663 163.765 84.4417 163.696 85.0856C163.506 86.9375 162.083 88.5149 160.571 89.4633C160.007 89.8177 159.403 90.0972 158.774 90.3068C155.33 91.0656 151.761 89.5881 151.975 87.0973C151.711 85.0707 152.13 82.9442 152.849 81.0125Z" fill="#1A90CD"/>
<path d="M152.265 75.7164C153.687 73.4602 155.005 71.1241 156.143 68.7082C157.276 66.3022 158.04 63.8314 158.924 61.3356C159.043 60.9912 159.188 60.6318 159.483 60.4221C159.942 60.0927 160.576 60.3023 161.025 60.6468C161.719 61.1859 162.318 62.2441 162.463 62.7932C163.017 64.8397 162.827 66.5768 162.028 68.4536C162.592 68.0693 163.511 68.224 164 68.7381C164.794 69.5717 164.714 70.5551 164.609 71.3188C164.339 73.2406 163.251 75.1823 162.143 76.7696C162.857 76.4152 163.696 76.0508 164.419 76.3903C166.057 77.149 164.993 79.2904 164.374 80.3686C163.546 81.8061 162.358 83.0041 161.195 84.1672C161.789 84.0224 162.343 84.6513 162.368 85.2653C162.448 87.1571 159.952 89.029 158.26 89.3434C155.949 89.7727 153.198 90.1621 151.177 88.0706C149.884 86.4184 149.634 82.6447 149.949 80.5732C150.213 78.8411 151.232 77.3387 152.17 75.8611C152.205 75.8112 152.235 75.7613 152.265 75.7164Z" fill="#1A90CD"/>
<path opacity="0.75" d="M152.265 75.7164C153.687 73.4602 155.005 71.1241 156.143 68.7082C157.276 66.3022 158.04 63.8314 158.924 61.3356C159.043 60.9912 159.188 60.6318 159.483 60.4221C159.942 60.0927 160.576 60.3023 161.025 60.6468C161.719 61.1859 162.318 62.2441 162.463 62.7932C163.017 64.8397 162.827 66.5768 162.028 68.4536C162.592 68.0693 163.511 68.224 164 68.7381C164.794 69.5717 164.714 70.5551 164.609 71.3188C164.339 73.2406 163.251 75.1823 162.143 76.7696C162.857 76.4152 163.696 76.0508 164.419 76.3903C166.057 77.149 164.993 79.2904 164.374 80.3686C163.546 81.8061 162.358 83.0041 161.195 84.1672C161.789 84.0224 162.343 84.6513 162.368 85.2653C162.448 87.1571 159.952 89.029 158.26 89.3434C155.949 89.7727 153.198 90.1621 151.177 88.0706C149.884 86.4184 149.634 82.6447 149.949 80.5732C150.213 78.8411 151.232 77.3387 152.17 75.8611C152.205 75.8112 152.235 75.7613 152.265 75.7164Z" fill="white"/>
<path opacity="0.4" d="M149.425 84.0474C149 81.7912 149.844 79.2804 150.598 77.7579C152.484 73.9244 156.667 71.6033 158.155 64.061C159.063 59.4638 158.075 53.7833 159.068 51.8216L159.602 52.3707C158.849 54.3923 159.807 57.2126 159.812 61.3556C159.817 65.4986 159.008 69.9261 155.709 74.5583C152.41 79.1905 151.097 80.6032 150.812 84.5515C150.737 85.5848 150.722 86.6081 150.448 86.633C150.093 86.0989 149.654 85.2753 149.425 84.0474Z" fill="#1A90CD"/>
<path d="M151.182 88.0706C148.721 85.7744 147.393 80.2837 151.052 75.921C155.959 70.0709 157.531 64.4853 157.616 56.334C157.666 51.8216 159.343 49.7551 161.674 51.7767C160.176 50.7534 158.914 52.6003 158.983 56.369C159.068 60.7117 158.949 65.6034 156.772 70.4103C154.012 76.4951 151.451 77.5583 150.662 80.094C150.068 82.0058 149.994 85.7944 151.182 88.0706Z" fill="#1A90CD"/>
<path opacity="0.9" d="M151.182 88.0706C148.721 85.7744 147.393 80.2837 151.052 75.921C155.959 70.0709 157.531 64.4853 157.616 56.334C157.666 51.8216 159.343 49.7551 161.674 51.7767C160.176 50.7534 158.914 52.6003 158.983 56.369C159.068 60.7117 158.949 65.6034 156.772 70.4103C154.012 76.4951 151.451 77.5583 150.662 80.094C150.068 82.0058 149.994 85.7944 151.182 88.0706Z" fill="white"/>
<path d="M158.988 83.5382L150.912 78.876C147.677 77.0441 143.225 77.3236 138.313 80.1639C128.425 85.8742 120.408 99.7609 120.408 111.182C120.408 116.857 122.39 120.85 125.595 122.737L133.671 127.404L134.809 124.409C136.381 124.025 138.044 123.351 139.761 122.358C149.649 116.647 157.666 102.761 157.666 91.34C157.666 89.3734 157.421 87.6113 156.977 86.0639L158.988 83.5382Z" fill="#1A90CD"/>
<path opacity="0.1" d="M120.558 108.386C120.458 109.33 120.403 110.263 120.403 111.177C120.403 116.852 122.385 120.845 125.59 122.732L133.666 127.399L134.804 124.404C135.173 124.314 135.553 124.205 135.932 124.08L137.624 118.24L120.558 108.386Z" fill="black"/>
<path d="M159.043 112.818C166.035 100.706 166.035 87.6155 159.042 83.5782C152.05 79.5409 140.713 86.086 133.72 98.1972C126.727 110.308 126.727 123.399 133.72 127.437C140.713 131.474 152.05 124.929 159.043 112.818Z" fill="#1A90CD"/>
<path opacity="0.3" d="M159.043 112.818C166.035 100.706 166.035 87.6155 159.042 83.5782C152.05 79.5409 140.713 86.086 133.72 98.1972C126.727 110.308 126.727 123.399 133.72 127.437C140.713 131.474 152.05 124.929 159.043 112.818Z" fill="white"/>
<path d="M159.972 88.4251C157.75 84.5765 153.198 84.1473 147.792 87.267C138.847 92.4283 131.295 105.516 131.295 115.844C131.295 118.549 131.814 120.88 132.798 122.583C135.019 126.431 139.571 126.86 144.977 123.741C153.922 118.579 161.474 105.491 161.474 95.1637C161.474 92.4583 160.955 90.1272 159.972 88.4251Z" fill="#1A90CD"/>
<path d="M160.221 88.5697C157.706 84.5515 152.834 83.9375 147.188 86.9175C137.849 91.8542 130.292 104.937 130.691 115.494C130.796 118.26 131.44 120.661 132.553 122.443C135.069 126.461 139.94 127.075 145.586 124.095C154.925 119.163 162.483 106.075 162.083 95.518C161.978 92.7477 161.334 90.3467 160.221 88.5697Z" fill="#1A90CD"/>
<path d="M143.764 123.072C140.17 124.968 136.891 125.403 134.335 124.434C133.656 123.905 133.057 123.246 132.553 122.443C131.44 120.666 130.796 118.26 130.691 115.494C130.292 104.937 137.849 91.8541 147.188 86.9174C150.782 85.0206 154.062 84.5864 156.617 85.5547C157.296 86.0838 157.895 86.7427 158.399 87.5464C159.512 89.3234 160.156 91.7293 160.261 94.4947C160.661 105.052 153.103 118.135 143.764 123.072Z" fill="#FAFAFA"/>
<path d="M145.287 89.5183C145.077 89.6381 144.907 89.9475 144.907 90.2071V92.1488C144.907 92.4084 145.077 92.5182 145.287 92.3984C145.496 92.2786 145.666 91.9691 145.666 91.7096V89.7679C145.666 89.5083 145.496 89.3935 145.287 89.5183Z" fill="#1A90CD"/>
<path d="M158.155 96.9457C158.155 97.1853 157.97 97.4898 157.746 97.6146L156.068 98.588C155.844 98.7177 155.664 98.6279 155.664 98.3833C155.664 98.1437 155.849 97.8392 156.073 97.7144L157.751 96.7411C157.975 96.6163 158.155 96.7061 158.155 96.9457Z" fill="#1A90CD"/>
<path d="M131.949 112.619C131.949 112.38 132.134 112.075 132.358 111.95L134.035 110.977C134.26 110.847 134.44 110.937 134.44 111.182C134.44 111.426 134.255 111.726 134.03 111.851L132.353 112.824C132.129 112.949 131.949 112.859 131.949 112.619Z" fill="#1A90CD"/>
<path d="M144.817 120.047C145.027 119.927 145.197 119.617 145.197 119.358V117.416C145.197 117.157 145.027 117.047 144.817 117.167C144.608 117.286 144.438 117.596 144.438 117.855V119.797C144.438 120.057 144.608 120.167 144.817 120.047Z" fill="#1A90CD"/>
<path d="M146.05 106.205L136.556 104.842H146.794L146.05 106.205Z" fill="#1A90CD"/>
<path d="M146.415 94.4149C146.415 94.4149 147.293 102.571 147.568 104.463C147.593 104.563 147.608 104.673 147.608 104.797C147.608 105.576 147.059 106.524 146.385 106.914C146.045 107.108 145.741 107.128 145.521 106.999C145.406 106.934 144.977 106.684 144.867 106.619C144.643 106.495 144.503 106.22 144.503 105.826C144.393 103.874 145.117 94.4897 145.117 94.4897L145.756 94.0305L146.415 94.4149Z" fill="#37474F"/>
<path d="M147.607 104.797C147.607 105.576 147.058 106.524 146.385 106.914C145.711 107.303 145.162 106.989 145.162 106.21C145.052 104.258 145.776 94.8741 145.776 94.8741L146.415 94.4149C146.415 94.4149 147.603 104.014 147.607 104.797Z" fill="#455A64"/>
<path d="M146.939 105.187C146.939 105.541 146.689 105.965 146.385 106.145C146.08 106.32 145.831 106.18 145.831 105.826C145.831 105.471 146.08 105.047 146.385 104.867C146.689 104.693 146.939 104.832 146.939 105.187Z" fill="#263238"/>
<path d="M156.27 104.434L154.303 104.671L154.323 104.834L156.29 104.597L156.27 104.434Z" fill="#37474F"/>
<path d="M149.728 112.795L149.577 112.86L150.355 114.683L150.507 114.618L149.728 112.795Z" fill="#37474F"/>
<path d="M139.818 94.9535L139.667 95.0182L140.446 96.8406L140.597 96.7759L139.818 94.9535Z" fill="#37474F"/>
<path d="M135.865 104.779L133.898 105.016L133.917 105.179L135.885 104.942L135.865 104.779Z" fill="#37474F"/>
<path d="M157.584 91.0471L155.821 93.0257L155.944 93.1354L157.707 91.1567L157.584 91.0471Z" fill="#37474F"/>
<path d="M150.535 87.0115L149.703 89.5279L149.859 89.5797L150.692 87.0633L150.535 87.0115Z" fill="#37474F"/>
<path d="M140.252 120.005L139.419 122.522L139.576 122.573L140.408 120.057L140.252 120.005Z" fill="#37474F"/>
<path d="M134.144 116.452L132.38 118.43L132.503 118.54L134.267 116.562L134.144 116.452Z" fill="#37474F"/>
<path d="M144.887 78.6515C144.887 78.4718 144.767 78.2921 144.533 78.1573C144.059 77.8828 143.29 77.8828 142.811 78.1573C142.571 78.2921 142.456 78.4718 142.456 78.6515C142.456 78.7363 142.456 83.2337 142.456 83.3136C142.456 83.4933 142.576 83.673 142.811 83.8078C143.285 84.0823 144.054 84.0823 144.533 83.8078C144.772 83.673 144.887 83.4933 144.887 83.3136C144.887 83.2337 144.887 78.7363 144.887 78.6515Z" fill="#455A64"/>
<path d="M142.811 79.1513C142.571 79.0165 142.456 78.8368 142.456 78.6571C142.456 78.4774 142.576 78.2977 142.811 78.1629C143.285 77.8884 144.054 77.8884 144.533 78.1629C144.772 78.2977 144.887 78.4774 144.887 78.6571C144.887 78.8368 144.767 79.0165 144.533 79.1513C144.059 79.4258 143.285 79.4258 142.811 79.1513Z" fill="#37474F"/>
<path d="M147.148 75.8012C147.148 75.2871 146.809 74.7729 146.13 74.3836C144.772 73.5999 142.576 73.5999 141.218 74.3836C140.54 74.7729 140.2 75.2871 140.2 75.8012C140.2 76.0408 140.2 79.8144 140.2 80.054C140.2 80.5682 140.54 81.0823 141.218 81.4716C142.576 82.2553 144.772 82.2553 146.13 81.4716C146.809 81.0823 147.148 80.5682 147.148 80.054C147.148 79.8144 147.148 76.0408 147.148 75.8012Z" fill="#1A90CD"/>
<path opacity="0.3" d="M141.218 77.2188C140.54 76.8295 140.2 76.3153 140.2 75.8012C140.2 75.2871 140.54 74.7729 141.218 74.3836C142.576 73.5999 144.772 73.5999 146.13 74.3836C146.809 74.7729 147.148 75.2871 147.148 75.8012C147.148 76.3153 146.809 76.8295 146.13 77.2188C144.772 78.0025 142.571 78.0025 141.218 77.2188Z" fill="white"/>
<path opacity="0.2" d="M141.368 77.2936V81.5465C141.463 81.5964 141.568 81.6413 141.673 81.6862V77.4334C141.568 77.3885 141.463 77.3485 141.368 77.2936ZM142.431 77.668V81.9258C142.526 81.9458 142.631 81.9608 142.736 81.9757V77.7229C142.631 77.7129 142.531 77.6929 142.431 77.668ZM140.52 76.6347V80.8876C140.605 80.9974 140.709 81.0972 140.824 81.197V76.9442C140.704 76.8444 140.6 76.7445 140.52 76.6347ZM145.636 77.4484V81.7012C145.746 81.6613 145.841 81.6114 145.941 81.5614V77.3086C145.841 77.3685 145.741 77.4084 145.636 77.4484ZM146.485 76.9742V81.227C146.599 81.1322 146.704 81.0323 146.789 80.9325V76.6946C146.699 76.7895 146.599 76.8893 146.485 76.9742ZM144.573 77.7279V81.9807C144.678 81.9707 144.777 81.9508 144.877 81.9308V77.673C144.772 77.6979 144.678 77.7179 144.573 77.7279ZM143.52 77.7978V82.0556H143.824V77.7978C143.719 77.8078 143.624 77.8078 143.52 77.7978Z" fill="black"/>
<path d="M133.202 95.5729C131.355 98.7675 127.881 100.21 125.27 98.6976C122.076 96.8507 120.987 92.7676 122.829 89.573C124.676 86.3784 128.769 85.2702 131.954 87.1321C134.555 88.6595 135.044 92.3783 133.202 95.5729Z" fill="#455A64"/>
<path d="M125.265 98.6977C127.881 100.205 131.355 98.7626 133.197 95.573C133.626 94.8292 133.925 94.0555 134.105 93.2868C134 93.4266 130.926 97.34 127.107 96.2419C123.219 95.1188 122.485 92.1238 122.824 89.5781C120.982 92.7677 122.07 96.8508 125.265 98.6977Z" fill="#37474F"/>
<path d="M124.192 88.924L123.224 88.3599C122.655 88.0205 121.921 88.2052 121.581 88.7742C121.242 89.3433 121.427 90.077 121.996 90.4165L122.989 90.9955C123.413 91.2401 124.027 90.9755 124.357 90.4065C124.691 89.8325 124.616 89.1686 124.192 88.924Z" fill="#1A90CD"/>
<path d="M161.304 78.0925L162.448 76.1108C162.787 75.5418 162.602 74.808 162.033 74.4686C161.464 74.1291 160.73 74.3138 160.391 74.8829L159.233 76.8895C158.988 77.3138 159.253 77.9277 159.822 78.2572C160.396 78.5916 161.06 78.5168 161.304 78.0925Z" fill="#1A90CD"/>
<path d="M152.14 78.1823C153.987 74.9877 158.07 73.8995 161.265 75.7414C164.459 77.5883 165.547 81.6714 163.705 84.866L152.14 78.1823Z" fill="#455A64"/>
<path d="M162.253 76.4451C162.632 77.2338 163.655 80.5681 162.248 81.3968C160.84 82.2254 154.376 79.475 154.376 79.475L163.705 84.8659C165.343 82.0307 164.659 78.4966 162.253 76.4451Z" fill="#37474F"/>
<path d="M49.1583 147.663L53.0057 150.246L93.0057 130.246L89.4062 127.758L49.1583 147.663Z" fill="#E0E0E0"/>
<path d="M145.511 137.119C148.673 136.423 149.678 137.971 147.754 140.576C145.83 143.181 141.709 145.855 138.549 146.55C135.386 147.246 134.382 145.698 136.306 143.093C138.227 140.49 142.349 137.815 145.511 137.119Z" fill="#E0E0E0"/>
</svg>
