<svg width="127" height="95" viewBox="0 0 127 95" fill="none" xmlns="http://www.w3.org/2000/svg">
<g clip-path="url(#clip0_404_961)">
<path d="M35.3247 90.0437C35.3247 90.0437 13.8452 75.3307 8.77955 52.3746C3.71389 29.4214 24.5308 24.7945 36.7398 17.0149C48.9488 9.23539 53.4447 0.484125 71.1342 -0.0548015C88.8269 -0.590936 97.9798 5.3205 104.364 16.7748C110.752 28.2291 114.165 39.9933 116.171 51.4727C118.177 62.9521 117.193 72.1223 105.835 76.6962C94.4778 81.27 89.2078 79.2623 83.8139 84.5315C78.4231 89.7979 53.8039 101.719 35.3247 90.0437Z" fill="#1A90CD"/>
<path opacity="0.7" d="M35.3247 90.0437C35.3247 90.0437 13.8452 75.3307 8.77955 52.3746C3.71389 29.4214 24.5308 24.7945 36.7398 17.0149C48.9488 9.23539 53.4447 0.484125 71.1342 -0.0548015C88.8269 -0.590936 97.9798 5.3205 104.364 16.7748C110.752 28.2291 114.165 39.9933 116.171 51.4727C118.177 62.9521 117.193 72.1223 105.835 76.6962C94.4778 81.27 89.2078 79.2623 83.8139 84.5315C78.4231 89.7979 53.8039 101.719 35.3247 90.0437Z" fill="white"/>
<path d="M0 71.3124H127" stroke="#263238" stroke-miterlimit="10" stroke-linecap="round" stroke-linejoin="round"/>
<path d="M108.584 78.4562L52.1783 53.3938C51.177 52.95 50.727 51.7766 51.1711 50.7788L66.1158 17.1776C66.5598 16.1769 67.7339 15.7272 68.7322 16.171L125.138 41.2334C126.139 41.6771 126.589 42.8506 126.145 43.8483L111.2 77.4495C110.756 78.4502 109.585 78.9 108.584 78.4562Z" fill="#1A90CD" stroke="#263238" stroke-miterlimit="10" stroke-linecap="round" stroke-linejoin="round"/>
<path d="M64.8316 49.575L58.4785 46.7526L57.3104 49.3789L63.6635 52.2014L64.8316 49.575Z" fill="white"/>
<path d="M73.2652 53.3212L66.9121 50.4988L65.744 53.1251L72.097 55.9475L73.2652 53.3212Z" fill="white"/>
<path d="M81.7012 57.0712L75.3481 54.2488L74.18 56.8751L80.5331 59.6976L81.7012 57.0712Z" fill="white"/>
<path d="M90.1353 60.8174L83.7822 57.995L82.6141 60.6213L88.9672 63.4437L90.1353 60.8174Z" fill="white"/>
<path d="M98.5723 64.5648L92.2192 61.7423L91.0511 64.3686L97.4042 67.1911L98.5723 64.5648Z" fill="white"/>
<path d="M107.006 68.311L100.653 65.4886L99.4847 68.1149L105.838 70.9373L107.006 68.311Z" fill="white"/>
<path d="M74.1022 46.3531L62.1017 41.0219C61.604 40.8015 61.3805 40.2178 61.6011 39.7204L65.3767 31.2322C65.5972 30.7349 66.1813 30.5115 66.679 30.7319L78.6794 36.063C79.1771 36.2834 79.4006 36.8672 79.1801 37.3646L75.4044 45.8527C75.1839 46.3501 74.5998 46.5735 74.1022 46.3531Z" fill="white" stroke="#263238" stroke-miterlimit="10"/>
<path d="M99.8169 35.2247L69.582 21.7924L68.9005 23.3247L99.1354 36.7569L99.8169 35.2247Z" fill="#263238" stroke="#263238" stroke-miterlimit="10"/>
<path d="M8.91274 62.8455C8.91274 62.8455 8.4419 62.6817 7.94126 63.2893C7.44062 63.8939 6.23372 67.6227 5.91188 68.1826C5.58706 68.7425 5 68.9272 5 68.9272H13.6807C13.6807 68.9272 10.3849 63.4739 10.0034 63.1701C9.619 62.8664 8.91274 62.8455 8.91274 62.8455Z" fill="#263238" stroke="#263238" stroke-miterlimit="10" stroke-linecap="round" stroke-linejoin="round"/>
<path d="M15.3136 71.426C15.3136 71.426 14.7712 71.5839 14.1246 70.4193C13.4779 69.2548 9.78569 63.459 9.47577 63.1493C9.20757 62.8813 8.98109 62.8396 8.91553 62.8455H17.8019C17.8019 62.8455 17.7125 68.5787 17.2714 69.7909C16.8304 71.0001 16.589 71.4052 15.3136 71.426Z" fill="white" stroke="#263238" stroke-miterlimit="10" stroke-linecap="round" stroke-linejoin="round"/>
<path d="M11.1182 63.06L15.904 70.1453" stroke="#A8A8A8" stroke-miterlimit="10" stroke-linecap="round" stroke-linejoin="round"/>
<path d="M11.604 63.7747H16.3184" stroke="#A8A8A8" stroke-miterlimit="10" stroke-linecap="round" stroke-linejoin="round"/>
<path d="M12.9897 65.666H16.6283" stroke="#A8A8A8" stroke-miterlimit="10" stroke-linecap="round" stroke-linejoin="round"/>
<path d="M14.4438 67.6704H16.5239" stroke="#A8A8A8" stroke-miterlimit="10" stroke-linecap="round" stroke-linejoin="round"/>
<path d="M19.1523 54.8249C19.1523 54.8249 18.3298 54.7475 17.9334 55.3938C17.6116 55.9239 16.8368 67.0807 16.5626 69.9309C16.503 70.5683 16.0262 71.1312 15.311 71.423H28.0297C28.0297 71.423 21.3813 55.8733 21.0356 55.504C20.231 54.6492 19.1523 54.8249 19.1523 54.8249Z" fill="#263238" stroke="#263238" stroke-miterlimit="10" stroke-linecap="round" stroke-linejoin="round"/>
<path d="M28.3243 71.423C28.4048 71.4409 27.5793 71.5332 27.0697 70.8452C26.727 70.3836 21.9799 58.9588 20.5018 55.9299C20.022 54.9471 19.1519 54.825 19.1519 54.825H29.8441V70.4045C29.8471 70.4045 29.5729 71.5213 28.3243 71.423Z" fill="white" stroke="#263238" stroke-miterlimit="10" stroke-linecap="round" stroke-linejoin="round"/>
<path d="M21.5898 55.0424C21.5898 55.0424 22.2127 55.7571 22.6984 56.7996C23.1841 57.842 28.5928 69.7611 28.5928 69.7611" stroke="#A8A8A8" stroke-miterlimit="10" stroke-linecap="round" stroke-linejoin="round"/>
<path d="M24.1558 55.096L28.6645 64.1589" stroke="#A8A8A8" stroke-miterlimit="10" stroke-linecap="round" stroke-linejoin="round"/>
<path d="M22.5615 55.8108H28.596" stroke="#A8A8A8" stroke-miterlimit="10" stroke-linecap="round" stroke-linejoin="round"/>
<path d="M23.7412 58.116H28.7327" stroke="#A8A8A8" stroke-miterlimit="10" stroke-linecap="round" stroke-linejoin="round"/>
<path d="M25.1958 61.136H28.8046" stroke="#A8A8A8" stroke-miterlimit="10" stroke-linecap="round" stroke-linejoin="round"/>
<path d="M26.4443 63.8284H28.6644" stroke="#A8A8A8" stroke-miterlimit="10" stroke-linecap="round" stroke-linejoin="round"/>
<path d="M30.1244 32.1809C30.1244 32.1809 28.9473 32.4162 29.0874 35.2843C29.2126 37.8844 29.1112 65.6243 29.0904 70.193C29.0904 70.2406 29.0874 70.2853 29.0844 70.333C29.0397 70.8601 28.8818 71.3009 28.2292 71.423H27.9014H39.3326C39.9555 70.9644 40.3071 70.324 40.3071 69.6509V32.857L30.1244 32.1809Z" fill="#263238" stroke="#263238" stroke-miterlimit="10" stroke-linecap="round" stroke-linejoin="round"/>
<path d="M32.136 35.0907C32.2761 37.5806 32.1658 52.5763 32.142 55.8465L32.9555 56.4303L33.781 55.8376L34.6064 56.4303L35.4349 55.8376L36.2603 56.4303L37.0888 55.8376L37.9172 56.4303L38.7427 55.8376L39.5681 56.4303L40.3966 55.8376L41.222 56.4303L42.0475 55.8376L42.8759 56.4303L43.7044 55.8376L44.5328 56.4303L44.6192 56.3677C44.6103 54.7713 44.4881 35.6953 43.2842 33.8488C42.0266 31.9218 40.8495 31.9218 40.1433 31.9218C39.437 31.9218 31.4298 31.9218 31.4298 31.9218C31.4298 31.9218 30.2795 31.9367 30.1245 32.1809C30.1245 32.1809 31.9811 32.2941 32.136 35.0907Z" fill="white" stroke="#263238" stroke-miterlimit="10" stroke-linecap="round" stroke-linejoin="round"/>
<path d="M32.3477 31.9903C32.9049 32.2732 33.6648 32.985 33.7632 34.7601C33.9211 37.6014 33.7632 52.35 33.7632 52.35H43.5942C43.5942 52.35 43.5167 35.4541 42.2591 33.4973C41.8241 32.8212 41.4009 32.3775 40.9986 32.0886" stroke="#A8A8A8" stroke-miterlimit="10" stroke-linecap="round" stroke-linejoin="round"/>
<path d="M34.8511 32.1184C34.8511 32.1184 35.757 32.9136 35.757 34.084C35.757 34.9924 35.757 52.344 35.757 52.344" stroke="#A8A8A8" stroke-miterlimit="10" stroke-linecap="round" stroke-linejoin="round"/>
<path d="M38.6235 52.3797V54.6879H43.5405V52.758" stroke="#A8A8A8" stroke-miterlimit="10" stroke-linecap="round" stroke-linejoin="round"/>
<path d="M34.0405 33.9321H41.9167" stroke="#A8A8A8" stroke-miterlimit="10" stroke-linecap="round" stroke-linejoin="round"/>
<path d="M34.231 36.1242H42.1071" stroke="#A8A8A8" stroke-miterlimit="10" stroke-linecap="round" stroke-linejoin="round"/>
<path d="M34.231 38.5813H42.9206" stroke="#A8A8A8" stroke-miterlimit="10" stroke-linecap="round" stroke-linejoin="round"/>
<path d="M34.231 41.3034H42.9206" stroke="#A8A8A8" stroke-miterlimit="10" stroke-linecap="round" stroke-linejoin="round"/>
<path d="M34.231 44.0256H42.9206" stroke="#A8A8A8" stroke-miterlimit="10" stroke-linecap="round" stroke-linejoin="round"/>
<path d="M34.231 46.7478H42.9206" stroke="#A8A8A8" stroke-miterlimit="10" stroke-linecap="round" stroke-linejoin="round"/>
<path d="M34.231 49.47H42.9206" stroke="#A8A8A8" stroke-miterlimit="10" stroke-linecap="round" stroke-linejoin="round"/>
</g>
<defs>
<clipPath id="clip0_404_961">
<rect width="127" height="95" fill="white"/>
</clipPath>
</defs>
</svg>
